M48
; DRILL file {KiCad (5.1.4)-1} date 2019/12/21 20:01:45
; FORMAT={-:-/ absolute / metric / decimal}
; #@! TF.CreationDate,2019-12-21T20:01:45+09:00
; #@! TF.GenerationSoftware,Kicad,Pcbnew,(5.1.4)-1
; #@! TF.FileFunction,Plated,1,2,PTH
FMAT,2
METRIC
T1C0.300
T2C0.400
T3C0.700
T4C0.762
T5C0.800
T6C1.000
T7C1.016
T8C1.400
T9C1.500
T10C3.000
T11C4.500
T12C6.500
%
G90
G05
T1
X104.53Y-129.0
X104.53Y-134.0
X116.08Y-144.62
X117.13Y-143.51
X117.61Y-148.7
X118.24Y-137.57
X118.93Y-137.78
X120.18Y-142.25
X120.2Y-140.75
X120.47Y-116.25
X123.55Y-165.95
X123.96Y-114.83
X124.0Y-146.3
X124.0Y-163.47
X124.43Y-136.5
X124.91Y-129.53
X125.24Y-114.51
X125.75Y-147.07
X126.57Y-136.75
X128.37Y-115.25
X129.0Y-106.25
X129.448Y-142.698
X130.03Y-159.38
X130.592Y-141.592
X130.77Y-133.78
X131.0Y-106.25
X131.355Y-136.09
X132.124Y-152.496
X135.02Y-140.405
X135.02Y-144.215
X135.98Y-152.34
X136.5Y-103.0
X137.5Y-132.25
X137.887Y-162.414
X138.0Y-161.66
X138.95Y-164.63
X146.0Y-166.95
T2
X49.0Y-168.5
X49.25Y-140.0
X49.25Y-142.0
X49.25Y-144.0
X49.25Y-146.0
X49.25Y-148.0
X49.25Y-150.0
X49.25Y-152.0
X49.25Y-154.0
X49.25Y-156.0
X49.25Y-158.0
X49.25Y-160.0
X49.25Y-162.0
X49.25Y-164.0
X50.0Y-141.0
X50.0Y-141.0
X50.0Y-141.0
X50.0Y-143.0
X50.0Y-145.0
X50.0Y-147.0
X50.0Y-149.0
X50.0Y-151.0
X50.0Y-153.0
X50.0Y-155.0
X50.0Y-157.0
X50.0Y-159.0
X50.0Y-161.0
X50.0Y-163.0
X50.0Y-165.0
X50.75Y-140.0
X50.75Y-142.0
X50.75Y-144.0
X50.75Y-150.0
X50.75Y-152.0
X50.75Y-154.0
X50.75Y-160.0
X50.75Y-162.0
X50.75Y-164.0
X51.5Y-141.0
X51.5Y-143.0
X51.5Y-151.0
X51.5Y-153.0
X51.5Y-161.0
X51.5Y-163.0
X51.5Y-165.0
X52.25Y-140.0
X52.25Y-142.0
X52.25Y-150.0
X52.25Y-152.0
X52.25Y-154.0
X52.25Y-162.0
X52.25Y-164.0
X52.3Y-168.3
X53.0Y-141.0
X53.0Y-143.0
X53.0Y-151.0
X53.0Y-153.0
X53.0Y-161.0
X53.0Y-163.0
X53.0Y-165.0
X53.75Y-140.0
X53.75Y-142.0
X53.75Y-150.0
X53.75Y-152.0
X53.75Y-154.0
X53.75Y-162.0
X53.75Y-164.0
X54.5Y-141.0
X54.5Y-143.0
X54.5Y-151.0
X54.5Y-153.0
X54.5Y-161.0
X54.5Y-163.0
X54.5Y-165.0
X55.0Y-169.75
X55.0Y-174.0
X55.22Y-142.02
X55.25Y-100.25
X55.25Y-102.25
X55.25Y-104.25
X55.25Y-140.0
X55.25Y-144.0
X55.25Y-150.0
X55.25Y-152.0
X55.25Y-154.0
X55.25Y-160.0
X55.25Y-162.0
X55.25Y-164.0
X56.0Y-99.25
X56.0Y-101.25
X56.0Y-103.25
X56.0Y-105.25
X56.0Y-141.0
X56.0Y-143.0
X56.0Y-145.0
X56.0Y-149.0
X56.0Y-151.0
X56.0Y-153.0
X56.0Y-155.0
X56.0Y-161.0
X56.0Y-163.0
X56.0Y-165.0
X56.75Y-100.25
X56.75Y-102.25
X56.75Y-104.25
X56.75Y-140.0
X56.75Y-142.0
X56.75Y-144.0
X56.75Y-146.0
X56.75Y-148.0
X56.75Y-150.0
X56.75Y-152.0
X56.75Y-154.0
X56.75Y-156.0
X56.75Y-158.0
X56.75Y-160.0
X56.75Y-162.0
X57.5Y-99.25
X57.5Y-101.25
X57.5Y-103.25
X57.5Y-105.25
X57.5Y-141.0
X57.5Y-143.0
X57.5Y-145.0
X57.5Y-147.0
X57.5Y-149.0
X57.5Y-151.0
X57.5Y-153.0
X57.5Y-155.0
X57.5Y-157.0
X57.5Y-159.0
X57.5Y-161.0
X58.25Y-100.25
X58.25Y-140.0
X58.25Y-142.0
X58.25Y-144.0
X58.25Y-146.0
X58.25Y-148.0
X58.25Y-150.0
X58.25Y-152.0
X58.25Y-154.0
X58.25Y-156.0
X58.25Y-158.0
X58.25Y-160.0
X59.0Y-99.25
X59.0Y-105.25
X59.25Y-174.0
X60.5Y-99.25
X60.5Y-105.25
X61.25Y-100.25
X62.0Y-99.25
X62.0Y-105.25
X62.5Y-165.25
X62.75Y-100.25
X62.75Y-102.25
X62.75Y-104.25
X63.5Y-99.25
X63.5Y-101.25
X63.5Y-103.25
X63.5Y-105.25
X63.5Y-174.0
X64.25Y-100.25
X64.25Y-102.25
X64.25Y-104.25
X64.47Y-167.25
X65.0Y-99.25
X65.0Y-101.25
X65.0Y-103.25
X65.0Y-105.25
X66.75Y-165.25
X67.75Y-169.25
X67.75Y-174.0
X69.75Y-149.75
X69.75Y-153.75
X69.75Y-157.5
X69.75Y-161.75
X72.0Y-169.25
X72.0Y-174.0
X73.0Y-112.5
X73.43Y-106.75
X73.43Y-109.6
X73.5Y-166.0
X74.25Y-149.75
X74.25Y-153.75
X74.25Y-157.5
X74.25Y-161.75
X75.0Y-112.0
X76.25Y-169.25
X76.25Y-174.0
X77.0Y-99.25
X77.0Y-101.25
X77.0Y-103.25
X77.0Y-105.25
X77.75Y-100.25
X77.75Y-102.25
X77.75Y-104.25
X77.75Y-149.75
X78.25Y-166.0
X78.5Y-99.25
X78.5Y-101.25
X78.5Y-103.25
X78.5Y-105.25
X79.25Y-100.25
X79.25Y-102.25
X79.25Y-104.25
X80.0Y-99.25
X80.0Y-101.25
X80.0Y-103.25
X80.0Y-105.25
X80.25Y-163.75
X80.25Y-170.25
X80.25Y-174.0
X80.75Y-100.25
X80.75Y-104.25
X81.5Y-99.25
X81.5Y-105.25
X81.75Y-149.75
X83.0Y-99.25
X83.0Y-105.25
X84.0Y-100.25
X84.0Y-165.75
X84.5Y-163.75
X84.5Y-174.0
X84.75Y-99.25
X84.75Y-105.25
X85.5Y-100.25
X85.5Y-102.25
X85.5Y-104.25
X85.75Y-149.75
X85.75Y-153.0
X86.25Y-99.25
X86.25Y-101.25
X86.25Y-103.25
X86.25Y-105.25
X86.75Y-160.0
X87.0Y-100.25
X87.0Y-102.25
X87.0Y-104.25
X87.75Y-99.25
X87.75Y-101.25
X87.75Y-103.25
X87.75Y-105.25
X88.75Y-156.75
X88.75Y-160.0
X88.75Y-163.0
X88.75Y-167.25
X88.75Y-170.25
X88.75Y-174.0
X90.0Y-149.75
X92.75Y-154.75
X93.0Y-162.25
X93.0Y-167.25
X93.0Y-170.25
X93.0Y-174.0
X95.44Y-123.17
X95.45Y-142.02
X96.5Y-99.25
X96.5Y-101.25
X96.5Y-103.25
X96.5Y-112.75
X96.6Y-109.61
X96.68Y-106.75
X97.25Y-100.25
X97.25Y-102.25
X97.25Y-104.25
X97.25Y-174.0
X97.5Y-167.25
X97.5Y-170.25
X98.0Y-99.25
X98.0Y-103.25
X98.0Y-157.5
X98.25Y-150.0
X98.25Y-152.5
X98.53Y-115.8
X98.73Y-112.16
X98.75Y-104.25
X99.5Y-99.25
X99.5Y-103.25
X99.52Y-165.77
X99.75Y-158.75
X99.75Y-162.0
X99.97Y-147.25
X100.25Y-104.25
X101.0Y-99.25
X101.0Y-101.25
X101.0Y-103.25
X101.5Y-139.43
X101.5Y-144.8
X101.5Y-149.25
X101.5Y-151.0
X101.5Y-155.0
X101.5Y-167.25
X101.5Y-170.25
X101.5Y-174.0
X101.67Y-115.11
X101.75Y-100.25
X101.75Y-102.25
X101.75Y-104.25
X102.0Y-112.96
X102.5Y-99.25
X102.5Y-101.25
X102.5Y-103.25
X102.5Y-124.75
X104.66Y-147.115
X104.7Y-158.635
X104.7Y-164.615
X104.71Y-117.23
X105.26Y-116.24
X105.75Y-144.25
X105.75Y-145.75
X105.75Y-149.25
X105.75Y-151.0
X105.75Y-155.0
X105.75Y-162.25
X105.75Y-163.5
X105.75Y-167.0
X105.75Y-170.25
X105.75Y-174.0
X107.65Y-111.49
X107.65Y-114.69
X107.78Y-106.49
X107.78Y-108.99
X110.0Y-111.75
X110.0Y-114.75
X110.0Y-118.75
X110.0Y-122.75
X110.0Y-138.75
X110.0Y-141.75
X110.0Y-145.75
X110.0Y-151.0
X110.0Y-155.0
X110.0Y-166.25
X110.0Y-170.25
X110.0Y-174.25
X110.05Y-130.85
X110.5Y-108.25
X111.25Y-134.25
X111.25Y-136.5
X111.71Y-131.59
X111.75Y-126.97
X111.75Y-138.55
X112.5Y-106.5
X112.55Y-123.81
X112.75Y-159.5
X113.0Y-128.0
X113.0Y-130.25
X113.5Y-108.5
X113.5Y-111.25
X113.5Y-114.75
X113.5Y-116.5
X114.0Y-125.25
X114.25Y-151.0
X114.25Y-159.0
X114.25Y-166.25
X114.25Y-170.25
X114.25Y-174.25
X114.55Y-147.25
X114.75Y-134.28
X114.78Y-164.5
X115.0Y-137.5
X115.05Y-110.75
X115.25Y-106.5
X115.75Y-145.75
X116.0Y-124.0
X116.25Y-114.75
X116.25Y-116.5
X116.75Y-130.25
X117.5Y-125.5
X117.5Y-170.25
X117.75Y-120.5
X118.25Y-106.5
X118.25Y-174.25
X118.5Y-124.0
X118.5Y-134.28
X118.5Y-155.0
X118.5Y-159.0
X118.75Y-110.25
X118.75Y-116.5
X119.25Y-112.8
X119.85Y-133.5
X120.0Y-130.25
X120.5Y-118.75
X120.75Y-106.5
X121.0Y-126.25
X121.406Y-135.112
X121.406Y-135.112
X121.75Y-130.25
X122.0Y-140.0
X122.0Y-143.5
X122.25Y-174.25
X122.5Y-110.25
X122.5Y-166.75
X122.69Y-111.73
X123.0Y-128.25
X123.0Y-164.25
X123.25Y-137.5
X123.5Y-116.0
X123.5Y-118.75
X124.0Y-126.25
X124.0Y-142.0
X124.25Y-145.0
X125.0Y-139.25
X125.25Y-105.25
X126.25Y-174.25
X126.5Y-104.75
X126.511Y-108.889
X126.55Y-129.25
X126.75Y-149.75
X127.25Y-164.25
X127.25Y-167.5
X127.43Y-122.5
X127.5Y-138.0
X127.77Y-111.51
X128.25Y-170.75
X128.25Y-172.75
X128.5Y-143.75
X128.75Y-167.5
X129.0Y-116.75
X130.0Y-109.75
X130.25Y-174.25
X130.5Y-146.75
X130.92Y-98.95
X130.92Y-101.5
X130.92Y-104.1
X131.28Y-160.2
X131.5Y-129.25
X131.7Y-167.5
X131.9Y-110.69
X132.9Y-167.8
X133.0Y-149.5
X133.75Y-110.32
X134.25Y-174.25
X134.73Y-168.93
X135.25Y-161.25
X136.0Y-146.75
X136.0Y-151.0
X136.25Y-163.75
X136.5Y-111.75
X137.0Y-106.0
X137.0Y-154.0
X137.03Y-167.75
X137.9Y-124.15
X137.9Y-126.81
X138.0Y-140.25
X138.0Y-144.25
X138.0Y-147.25
X138.0Y-151.0
X138.25Y-174.25
X138.75Y-160.0
X139.0Y-169.5
X139.25Y-103.83
X139.25Y-108.41
X140.75Y-126.635
X141.0Y-155.25
X141.0Y-167.0
X141.24Y-136.88
X141.25Y-128.75
X141.25Y-132.75
X141.25Y-139.25
X141.25Y-173.25
X141.5Y-103.25
X141.5Y-147.25
X141.5Y-151.0
X141.5Y-169.5
X142.0Y-108.7
X142.5Y-114.0
X142.5Y-135.55
X142.75Y-122.7
X142.75Y-147.75
X142.75Y-155.2
X143.0Y-104.75
X143.0Y-156.75
X144.0Y-129.5
X144.0Y-159.25
X144.0Y-162.25
X144.0Y-165.0
X144.0Y-167.25
X144.25Y-150.0
X144.25Y-151.25
X145.0Y-105.0
X145.5Y-130.0
X146.0Y-150.0
X146.0Y-151.25
X147.0Y-104.5
X147.0Y-113.5
X147.0Y-142.25
X147.0Y-145.25
X147.0Y-148.25
X147.0Y-152.25
X147.0Y-156.25
X147.0Y-160.25
X147.25Y-163.75
T3
X142.5Y-160.0
X142.5Y-161.5
X142.5Y-163.0
X142.5Y-164.5
X142.5Y-166.0
X142.5Y-167.5
T4
X126.71Y-131.0
X129.25Y-131.0
X131.79Y-131.0
X119.0Y-99.0
X119.0Y-104.08
X121.54Y-99.0
X121.54Y-104.08
X129.16Y-99.0
X129.16Y-104.08
X126.71Y-127.4
X129.25Y-127.4
X131.79Y-127.4
T5
X118.86Y-168.77
X118.86Y-172.27
X84.85Y-167.75
X84.85Y-170.25
X120.0Y-124.5
X121.5Y-124.5
X123.0Y-124.5
X124.5Y-124.5
X126.0Y-124.5
X127.5Y-124.5
X129.0Y-124.5
X130.5Y-124.5
X132.0Y-124.5
T6
X144.75Y-133.0
X144.75Y-135.5
X144.75Y-138.0
X144.75Y-140.5
X130.0Y-165.25
X132.5Y-165.25
X135.0Y-165.25
X137.5Y-165.25
X105.5Y-101.0
X108.0Y-101.0
X144.75Y-145.5
X144.75Y-148.0
X56.75Y-171.75
X59.25Y-171.75
X130.0Y-171.75
X132.5Y-171.75
X135.0Y-171.75
X137.5Y-171.75
X113.0Y-101.0
X115.5Y-101.0
X144.75Y-153.0
X144.75Y-155.5
X144.75Y-120.5
X144.75Y-123.0
X144.75Y-125.5
X144.75Y-128.0
T7
X143.21Y-115.75
X145.75Y-115.75
X50.25Y-112.5
X52.79Y-112.5
T9
X91.75Y-152.09
X91.75Y-159.71
X91.75Y-164.79
X112.07Y-152.09
X112.07Y-162.25
X112.07Y-172.41
T10
X51.0Y-101.0
X51.0Y-172.0
X145.0Y-101.0
X145.0Y-172.0
X99.0Y-101.5
T11
X60.0Y-102.5
X60.0Y-109.5
X82.75Y-102.5
X82.75Y-109.5
T12
X53.25Y-157.25
X64.25Y-157.25
X53.25Y-146.5
X64.25Y-146.5
T3
G00X117.55Y-122.4
M15
G01X118.45Y-122.4
M16
G05
G00X133.55Y-122.4
M15
G01X134.45Y-122.4
M16
G05
T8
G00X55.3Y-127.3
M15
G01X55.3Y-124.7
M16
G05
G00X65.05Y-117.6
M15
G01X62.45Y-117.6
M16
G05
G00X63.75Y-136.8
M15
G01X63.75Y-134.2
M16
G05
G00X72.2Y-127.3
M15
G01X72.2Y-124.7
M16
G05
G00X82.1Y-127.3
M15
G01X82.1Y-124.7
M16
G05
G00X91.85Y-117.6
M15
G01X89.25Y-117.6
M16
G05
G00X90.55Y-136.8
M15
G01X90.55Y-134.2
M16
G05
G00X99.0Y-127.3
M15
G01X99.0Y-124.7
M16
G05
T0
M30
