M48
; DRILL file {KiCad (5.1.4)-1} date 2020/03/02 14:52:38
; FORMAT={-:-/ absolute / metric / decimal}
; #@! TF.CreationDate,2020-03-02T14:52:38+09:00
; #@! TF.GenerationSoftware,Kicad,Pcbnew,(5.1.4)-1
; #@! TF.FileFunction,Plated,1,2,PTH
FMAT,2
METRIC
T1C0.300
T2C0.400
T3C0.700
T4C0.750
T5C0.762
T6C0.800
T7C0.813
T8C1.000
T9C1.600
T10C2.500
T11C3.000
T12C4.500
%
G90
G05
T1
X86.56Y-104.56
X88.8Y-78.05
X90.3Y-78.6
X91.05Y-78.65
X91.635Y-103.4
X91.64Y-101.48
X92.9Y-103.6
X93.2Y-78.4
X95.05Y-116.4
X95.447Y-111.32
X95.45Y-103.65
X96.45Y-110.0
X96.55Y-102.8
X96.55Y-105.35
X98.0Y-102.8
X98.2Y-80.9
X98.81Y-104.87
X99.1Y-62.1
X99.5Y-63.0
X99.6Y-104.75
X100.35Y-121.45
X100.637Y-117.2
X100.637Y-118.65
X101.55Y-125.25
X101.6Y-62.8
X101.6Y-108.35
X101.9Y-78.4
X102.05Y-124.595
X102.35Y-110.0
X103.09Y-109.98
X103.85Y-106.3
X103.88Y-101.48
X103.885Y-103.4
X103.92Y-109.995
X105.1Y-103.5
X106.65Y-78.6
X107.7Y-103.5
X108.55Y-80.85
X109.2Y-77.0
X109.4Y-62.2
X109.45Y-78.6
X109.7Y-67.3
X109.9Y-133.05
X110.05Y-105.55
X110.21Y-114.862
X110.6Y-122.1
X110.87Y-118.57
X111.05Y-112.8
X111.05Y-121.55
X111.452Y-119.125
X111.865Y-112.83
X112.15Y-126.1
X112.95Y-116.25
X113.1Y-62.2
X113.2Y-78.3
X113.4Y-126.15
X113.7Y-114.8
X114.45Y-116.75
X114.79Y-122.38
X114.85Y-133.05
X115.05Y-127.325
X115.55Y-117.85
X116.085Y-103.55
X116.1Y-101.65
X116.4Y-118.95
X117.038Y-112.676
X117.1Y-111.96
X117.25Y-111.05
X117.3Y-119.85
X117.34Y-123.39
X117.35Y-103.4
X117.857Y-121.343
X117.93Y-126.56
X118.573Y-110.61
X118.749Y-122.65
X119.3Y-62.1
X119.343Y-120.918
X119.35Y-106.45
X119.45Y-113.2
X119.5Y-80.9
X119.55Y-124.39
X119.726Y-123.67
X119.9Y-103.4
X120.0Y-119.2
X120.075Y-127.199
X120.135Y-124.857
X120.2Y-106.1
X120.54Y-113.36
X120.65Y-112.6
X120.7Y-65.15
X120.85Y-127.09
X120.95Y-123.3
X121.0Y-118.2
X121.68Y-124.71
X121.73Y-106.83
X121.733Y-125.435
X122.285Y-115.655
X122.357Y-117.657
X122.42Y-107.88
X122.447Y-116.383
X122.45Y-62.1
X123.35Y-78.4
X123.68Y-131.9
X123.9Y-123.9
X124.139Y-121.69
X124.159Y-116.343
X124.61Y-124.65
X124.836Y-121.618
X125.1Y-111.717
X125.36Y-115.89
X125.42Y-115.16
X125.469Y-112.319
X125.516Y-113.05
X125.8Y-131.62
X127.41Y-112.66
X127.719Y-111.783
X127.94Y-131.99
X127.96Y-113.17
X128.1Y-101.55
X128.13Y-107.69
X128.2Y-103.45
X129.2Y-78.6
X129.6Y-103.45
X129.95Y-80.9
X130.45Y-110.1
X130.7Y-66.95
X130.8Y-87.25
X130.968Y-78.042
X130.99Y-132.79
X132.05Y-103.45
X132.35Y-85.9
X132.4Y-88.85
X132.56Y-123.16
X132.653Y-123.854
X133.0Y-107.1
X133.35Y-85.9
X133.525Y-95.048
X134.141Y-113.669
X134.45Y-107.75
X134.696Y-114.224
X135.0Y-108.3
X135.15Y-93.5
X135.25Y-85.9
X135.35Y-87.8
X135.65Y-91.4
X135.65Y-110.0
X136.1Y-86.6
X137.085Y-96.55
X137.6Y-108.4
X138.85Y-107.15
X139.02Y-84.1
X139.75Y-102.15
X139.8Y-129.9
X140.05Y-108.45
X140.05Y-112.3
X141.75Y-93.337
X142.713Y-91.75
X142.938Y-85.0
X144.74Y-103.03
X144.787Y-88.7
T2
X73.25Y-102.25
X73.25Y-105.0
X73.25Y-108.5
X73.25Y-113.5
X73.25Y-118.75
X73.25Y-123.15
X73.25Y-127.0
X73.25Y-133.0
X75.7Y-128.1
X76.0Y-132.25
X76.85Y-123.65
X76.95Y-109.9
X76.95Y-113.5
X76.95Y-117.8
X76.95Y-120.85
X77.0Y-102.25
X78.75Y-134.0
X78.75Y-138.0
X79.05Y-113.15
X79.25Y-131.75
X79.45Y-118.237
X79.7Y-119.55
X79.7Y-124.35
X79.7Y-126.55
X80.05Y-107.05
X80.25Y-102.25
X83.1Y-125.5
X83.1Y-128.2
X83.25Y-131.95
X83.25Y-134.75
X83.5Y-138.0
X83.75Y-104.5
X83.99Y-119.837
X85.1Y-117.5
X85.25Y-102.25
X85.9Y-122.65
X85.9Y-125.5
X87.25Y-108.05
X87.25Y-110.85
X87.6Y-92.9
X88.5Y-131.95
X88.5Y-134.75
X88.5Y-138.0
X88.65Y-122.65
X88.65Y-125.5
X89.095Y-104.555
X89.1Y-108.0
X90.562Y-114.15
X91.0Y-130.75
X92.25Y-110.737
X92.25Y-127.75
X92.25Y-130.75
X93.089Y-116.565
X93.5Y-135.0
X93.5Y-138.0
X94.0Y-92.9
X94.75Y-127.75
X96.6Y-94.3
X97.85Y-108.2
X99.0Y-134.35
X99.85Y-92.9
X100.0Y-132.25
X100.05Y-122.4
X100.85Y-116.15
X101.35Y-104.45
X101.65Y-106.6
X102.5Y-113.3
X103.15Y-124.6
X103.5Y-135.0
X103.5Y-138.0
X103.6Y-117.3
X103.7Y-129.0
X103.7Y-130.9
X105.6Y-129.0
X105.6Y-130.9
X106.1Y-92.9
X106.35Y-105.45
X106.85Y-114.85
X106.93Y-110.57
X108.5Y-109.0
X108.5Y-135.0
X108.5Y-138.0
X108.712Y-133.2
X108.8Y-94.35
X110.15Y-106.65
X110.7Y-131.35
X110.9Y-116.74
X111.25Y-108.2
X111.85Y-92.9
X113.25Y-131.35
X113.55Y-104.65
X114.5Y-134.75
X114.5Y-138.0
X114.8Y-105.2
X115.25Y-115.05
X115.85Y-112.55
X117.05Y-132.65
X117.7Y-108.45
X117.7Y-116.3
X118.15Y-92.9
X118.75Y-107.5
X119.47Y-115.15
X119.5Y-134.75
X119.5Y-138.0
X120.86Y-94.35
X123.11Y-124.92
X123.23Y-131.04
X124.05Y-92.85
X124.17Y-132.86
X124.75Y-135.0
X124.75Y-138.0
X125.7Y-104.75
X125.7Y-121.15
X125.84Y-127.07
X127.0Y-105.25
X127.3Y-62.55
X127.65Y-118.45
X127.75Y-115.0
X128.7Y-125.41
X129.05Y-122.7
X129.75Y-138.0
X129.85Y-89.8
X130.75Y-76.75
X132.025Y-62.154
X132.825Y-96.35
X132.95Y-117.85
X132.95Y-121.7
X133.45Y-126.8
X133.649Y-63.899
X134.05Y-116.7
X134.3Y-106.7
X135.5Y-133.35
X135.5Y-138.0
X135.55Y-125.15
X135.6Y-117.85
X135.6Y-120.4
X135.6Y-122.4
X135.815Y-96.55
X135.838Y-74.55
X135.85Y-78.05
X135.95Y-126.8
X135.95Y-128.8
X135.95Y-130.4
X136.25Y-112.5
X136.95Y-115.2
X137.075Y-104.6
X137.2Y-110.75
X137.83Y-89.832
X138.6Y-117.25
X138.6Y-120.4
X138.812Y-75.75
X138.95Y-128.45
X140.5Y-133.75
X140.5Y-138.0
X140.688Y-75.75
X140.95Y-128.45
X141.65Y-110.75
X143.063Y-87.03
X143.1Y-117.25
X143.1Y-120.4
X143.75Y-128.4
X143.75Y-131.25
X144.987Y-93.2
X146.75Y-102.25
X146.75Y-104.75
X146.75Y-107.25
X146.75Y-109.75
X146.75Y-114.75
X146.75Y-117.25
X146.75Y-119.75
X146.75Y-122.25
X146.75Y-124.75
X146.75Y-128.0
X146.75Y-131.0
X146.75Y-133.0
T3
X138.45Y-126.7
X139.95Y-126.7
X141.45Y-126.7
X142.95Y-126.7
X144.45Y-126.7
X145.95Y-126.7
T4
X74.45Y-68.25
X74.45Y-74.45
X74.45Y-75.45
X74.45Y-76.6
X74.45Y-77.6
X74.45Y-82.95
X74.45Y-83.95
X75.45Y-68.25
X75.45Y-74.45
X75.45Y-75.45
X75.45Y-76.6
X75.45Y-82.95
X75.45Y-83.95
X78.7Y-74.45
X78.7Y-75.45
X78.7Y-76.6
X78.7Y-82.95
X78.7Y-83.95
X78.75Y-68.25
X79.7Y-74.45
X79.7Y-75.45
X79.7Y-76.6
X79.7Y-77.6
X79.75Y-68.25
X81.25Y-68.3
X81.25Y-76.6
X81.25Y-77.6
X81.3Y-74.45
X81.3Y-75.45
X82.25Y-68.3
X82.25Y-76.6
X82.25Y-77.6
X82.3Y-74.45
X82.3Y-75.45
X82.3Y-82.9
X82.3Y-83.9
X83.3Y-83.9
X84.75Y-74.45
X84.75Y-76.6
X85.75Y-74.45
X85.75Y-75.5
X85.75Y-76.6
X85.75Y-77.6
X86.75Y-76.6
X86.75Y-77.6
X86.8Y-74.4
X86.8Y-75.5
X86.85Y-68.3
X86.9Y-69.3
X91.5Y-57.5
X91.5Y-59.0
X91.5Y-60.5
X91.7Y-65.95
X91.7Y-67.45
X91.7Y-68.95
X91.7Y-70.45
X91.7Y-71.95
X91.7Y-73.45
X91.7Y-74.95
X91.7Y-76.45
X93.0Y-56.0
X93.0Y-57.5
X93.0Y-59.0
X93.0Y-60.5
X93.0Y-80.25
X93.0Y-81.75
X93.25Y-64.5
X93.25Y-65.95
X93.25Y-67.45
X93.25Y-68.95
X93.25Y-70.45
X93.25Y-71.95
X93.25Y-73.45
X93.25Y-74.95
X93.25Y-76.45
X94.5Y-54.5
X94.5Y-56.0
X94.5Y-57.5
X94.5Y-59.0
X94.5Y-60.5
X94.5Y-80.25
X94.5Y-81.75
X94.75Y-64.5
X94.75Y-70.45
X94.75Y-71.95
X94.75Y-73.45
X94.75Y-74.95
X94.75Y-76.45
X96.0Y-54.5
X96.0Y-56.0
X96.0Y-57.5
X96.0Y-59.0
X96.0Y-60.5
X96.0Y-80.25
X96.0Y-81.75
X96.25Y-64.5
X96.25Y-71.95
X96.25Y-73.45
X96.25Y-74.95
X96.25Y-76.45
X97.5Y-54.5
X97.5Y-56.0
X97.5Y-57.5
X97.5Y-59.0
X97.5Y-60.5
X97.75Y-64.5
X97.75Y-70.45
X97.75Y-71.95
X97.75Y-73.45
X97.75Y-74.95
X97.75Y-76.45
X100.55Y-70.45
X100.55Y-71.95
X100.55Y-73.45
X100.6Y-74.95
X100.6Y-76.45
X100.75Y-80.25
X100.75Y-81.75
X102.05Y-64.45
X102.05Y-71.95
X102.05Y-73.45
X102.1Y-74.95
X102.1Y-76.45
X102.25Y-80.25
X102.25Y-81.75
X103.55Y-64.45
X103.55Y-71.95
X103.55Y-73.45
X103.6Y-74.95
X103.6Y-76.45
X105.05Y-64.45
X105.05Y-65.95
X105.05Y-70.45
X105.05Y-71.95
X105.05Y-73.45
X105.1Y-74.95
X105.1Y-76.45
X106.55Y-64.45
X106.55Y-65.95
X106.55Y-67.45
X106.55Y-68.95
X106.55Y-70.45
X106.55Y-71.95
X106.55Y-73.45
X106.6Y-74.95
X106.6Y-76.45
X114.25Y-66.0
X114.25Y-66.0
X114.25Y-67.5
X114.25Y-67.5
X114.25Y-69.0
X114.25Y-70.5
X114.25Y-72.0
X114.25Y-73.5
X114.25Y-75.0
X114.25Y-76.5
X114.25Y-80.25
X114.25Y-81.75
X115.75Y-70.5
X115.75Y-72.0
X115.75Y-73.5
X115.75Y-75.0
X115.75Y-76.5
X115.75Y-80.25
X115.75Y-81.75
X117.25Y-72.0
X117.25Y-73.5
X117.25Y-75.0
X117.25Y-76.5
X117.25Y-80.25
X117.25Y-81.75
X118.75Y-72.0
X118.75Y-73.5
X118.75Y-75.0
X118.75Y-76.5
X122.0Y-80.25
X122.0Y-81.75
X122.25Y-70.5
X122.25Y-72.0
X122.25Y-73.5
X122.25Y-75.0
X122.25Y-76.5
X122.75Y-57.5
X122.75Y-59.0
X122.75Y-60.5
X123.5Y-80.25
X123.5Y-81.75
X123.75Y-72.0
X123.75Y-73.5
X123.75Y-75.0
X123.75Y-76.5
X124.25Y-57.5
X124.25Y-59.0
X124.25Y-60.5
X125.0Y-81.75
X125.25Y-70.5
X125.25Y-72.0
X125.25Y-73.5
X125.25Y-75.0
X125.25Y-76.5
X125.75Y-57.5
X125.75Y-59.0
X125.75Y-60.5
X126.5Y-80.25
X126.75Y-66.0
X126.75Y-70.5
X126.75Y-72.0
X126.75Y-73.5
X126.75Y-75.0
X126.75Y-76.5
X127.25Y-57.5
X127.25Y-59.0
X127.25Y-60.5
X128.25Y-66.0
X128.25Y-67.5
X128.25Y-69.0
X128.25Y-70.5
X128.25Y-72.0
X128.25Y-73.5
X128.25Y-75.0
X128.25Y-76.5
X128.75Y-59.0
X128.75Y-60.5
X130.25Y-60.5
T5
X92.18Y-107.4
X94.09Y-107.4
X96.0Y-107.4
X112.59Y-107.4
X114.5Y-107.4
X116.41Y-107.4
X139.81Y-115.59
X139.81Y-123.21
X142.35Y-115.59
X142.35Y-123.21
X144.89Y-115.59
X144.89Y-123.21
T6
X135.15Y-60.825
X137.65Y-60.825
X134.6Y-80.875
X134.6Y-83.375
X79.75Y-60.85
X84.75Y-60.85
X88.55Y-115.7
X88.55Y-118.2
X106.05Y-124.5
X107.55Y-124.5
X109.05Y-124.5
X110.55Y-124.5
X112.05Y-124.5
X113.55Y-124.5
X115.05Y-124.5
X116.55Y-124.5
X118.05Y-124.5
T7
X138.3Y-132.61
X138.3Y-135.15
X138.3Y-137.69
T8
X129.45Y-129.85
X131.95Y-129.85
X134.45Y-129.85
X106.95Y-129.85
X109.45Y-129.85
X111.95Y-129.85
X114.45Y-129.85
X81.75Y-103.25
X81.75Y-105.75
X81.75Y-108.25
X81.75Y-110.75
X119.45Y-129.85
X121.95Y-129.85
X124.45Y-129.85
X94.45Y-129.85
X96.95Y-129.85
X99.45Y-129.85
X101.95Y-129.85
X142.7Y-59.4
X142.7Y-61.9
X81.9Y-129.85
X84.4Y-129.85
X86.9Y-129.85
X89.4Y-129.85
X81.75Y-115.75
X81.75Y-118.25
X81.75Y-120.75
X81.75Y-123.25
X74.25Y-129.7
X76.79Y-129.7
X130.875Y-114.2
X130.875Y-116.7
X130.875Y-119.2
X130.875Y-121.7
T10
X110.7Y-136.35
X75.25Y-107.0
X98.2Y-136.35
X85.65Y-136.35
X75.25Y-119.5
T11
X75.5Y-54.0
X75.5Y-136.0
X144.5Y-54.0
X144.5Y-136.0
X131.95Y-136.35
X121.95Y-136.35
T12
X117.25Y-68.1
X124.25Y-68.1
X77.2Y-71.5
X84.2Y-71.5
X77.2Y-80.0
X84.2Y-80.0
X96.0Y-68.075
X103.0Y-68.075
T9
G00X91.09Y-86.0
M15
G01X87.09Y-86.0
M16
G05
G00X101.09Y-86.0
M15
G01X97.09Y-86.0
M16
G05
G00X111.5Y-86.0
M15
G01X107.5Y-86.0
M16
G05
G00X121.5Y-86.0
M15
G01X117.5Y-86.0
M16
G05
T0
M30
