M48
; DRILL file {KiCad (5.1.2)-1} date 2019/06/29 5:03:26
; FORMAT={-:-/ absolute / inch / decimal}
; #@! TF.CreationDate,2019-06-29T05:03:26+09:00
; #@! TF.GenerationSoftware,Kicad,Pcbnew,(5.1.2)-1
; #@! TF.FileFunction,Plated,1,4,PTH
FMAT,2
INCH
T1C0.0118
T2C0.0197
T3C0.0276
T4C0.0394
T5C0.1181
%
G90
G05
T1
X0.4486Y-1.6614
X0.4685Y-0.0512
X0.486Y-0.3967
X0.4921Y-0.2866
X0.4921Y-1.2879
X0.5157Y-1.6339
X0.5748Y-1.6299
X0.5866Y-1.0236
X0.5906Y-0.3445
X0.5965Y-1.0522
X0.6102Y-0.9941
X0.6181Y-1.5827
X0.6398Y-0.3937
X0.6398Y-0.9744
X0.6398Y-1.6043
X0.6614Y-1.0522
X0.6614Y-1.7165
X0.6683Y-0.3533
X0.6693Y-1.0236
X0.687Y-1.6437
X0.6909Y-0.3701
X0.7106Y-1.622
X0.7126Y-0.6575
X0.7382Y-0.6339
X0.748Y-0.2866
X0.8465Y-0.8957
X0.8661Y-1.2205
X0.8957Y-0.9547
X0.8957Y-1.2697
X0.9154Y-1.6417
X0.9213Y-0.4185
X0.935Y-0.7874
X0.937Y-1.6181
X0.9626Y-0.0492
X0.9636Y-1.5945
X0.9646Y-1.0236
X0.9843Y-0.2866
X0.9882Y-1.5748
X1.0118Y-0.3937
X1.0236Y-0.9646
X1.0354Y-1.3799
X1.0433Y-0.3652
X1.0433Y-1.1024
X1.061Y-1.3583
X1.0925Y-1.1417
X1.1122Y-1.5354
X1.122Y-0.5906
X1.122Y-1.1811
X1.1614Y-1.2756
X1.1622Y-1.5354
X1.169Y-1.2222
X1.2008Y-0.5807
X1.2402Y-0.2866
X1.3189Y-1.063
X1.3386Y-1.3504
X1.3524Y-0.4419
X1.3602Y-1.3287
X1.374Y-0.4636
X1.3799Y-1.3071
X1.3937Y-1.372
X1.3957Y-0.4941
X1.4055Y-1.2539
X1.4173Y-0.3917
X1.4252Y-1.1929
X1.4439Y-0.4252
X1.4567Y-0.8268
X1.4567Y-0.9154
X1.4606Y-0.0492
X1.4685Y-0.3268
X1.4685Y-1.372
X1.4764Y-0.2866
X1.4862Y-1.2807
X1.503Y-0.4508
X1.5246Y-0.4724
X1.5256Y-1.1752
X1.5305Y-0.3917
X1.5404Y-0.4262
X1.5413Y-1.1535
X1.5433Y-1.2874
X1.5453Y-0.4951
X1.5591Y-1.1319
X1.5768Y-1.1102
X1.5965Y-1.0886
X1.6043Y-0.3258
X1.6043Y-1.2807
X1.6098Y-0.9843
X1.6122Y-1.0669
X1.628Y-1.0453
X1.6417Y-0.9945
X1.6425Y-1.4016
X1.6437Y-1.0236
X1.6831Y-1.2008
X1.684Y-0.8644
X1.7126Y-0.8638
X1.7126Y-1.2008
X1.7323Y-0.2866
X1.7421Y-0.8661
X1.7421Y-1.2008
X1.7425Y-1.4016
X1.7717Y-0.8661
X1.7717Y-1.2008
X1.7923Y-0.7776
X1.7937Y-0.7138
X1.7945Y-0.8358
X1.7976Y-0.7516
X1.8425Y-1.4016
X1.9193Y-0.8155
X1.9375Y-0.6594
X1.9425Y-1.4016
X1.9469Y-0.0492
X1.9685Y-0.2869
X1.998Y-0.8155
X2.0425Y-1.4016
X2.095Y-0.6594
X2.1425Y-1.4016
X2.2244Y-0.2854
X2.2425Y-1.4016
X2.3173Y-1.0815
X2.3406Y-1.4035
T2
X0.0591Y-0.919
X0.0886Y-0.8661
X0.1083Y-0.374
X0.1673Y-1.4104
X0.1772Y-0.8661
X0.1949Y-1.1161
X0.2264Y-0.6383
X0.2559Y-0.0394
X0.2559Y-0.1772
X0.2559Y-0.2756
X0.2559Y-0.374
X0.2559Y-0.4823
X0.2559Y-0.6988
X0.2614Y-1.3232
X0.3051Y-0.5428
X0.3161Y-1.5547
X0.3232Y-1.4063
X0.3248Y-0.7874
X0.3445Y-1.8701
X0.3543Y-0.0394
X0.3543Y-0.2756
X0.3543Y-0.374
X0.4429Y-1.8701
X0.4626Y-0.7874
X0.4626Y-0.876
X0.4921Y-0.5217
X0.4921Y-0.5807
X0.4957Y-1.4047
X0.5315Y-1.8701
X0.561Y-0.7874
X0.6299Y-0.5217
X0.6299Y-0.5807
X0.6299Y-0.7185
X0.748Y-0.0984
X0.748Y-0.1673
X0.7776Y-0.4921
X0.7776Y-0.5906
X0.7874Y-0.6988
X0.7972Y-0.0984
X0.7972Y-0.1673
X0.7972Y-0.2362
X0.8858Y-0.8465
X0.8957Y-0.2362
X0.9252Y-0.4921
X0.9252Y-0.5906
X1.0138Y-0.7087
X1.0925Y-1.063
X1.122Y-0.6791
X1.1319Y-0.8563
X1.1811Y-1.0138
X1.2008Y-1.1713
X1.2205Y-0.7776
X1.2205Y-0.9154
X1.2303Y-0.6299
X1.2402Y-0.0984
X1.2402Y-0.1673
X1.2402Y-1.8701
X1.2795Y-1.1024
X1.2894Y-0.0984
X1.2894Y-0.1673
X1.2894Y-0.2362
X1.2992Y-1.3189
X1.3287Y-0.7185
X1.3386Y-1.8701
X1.3484Y-0.8169
X1.3583Y-1.0236
X1.3976Y-0.2362
X1.437Y-1.8701
X1.6929Y-1.8701
X1.7323Y-0.0984
X1.7323Y-0.1673
X1.7815Y-0.0984
X1.7815Y-0.1673
X1.7815Y-0.2362
X1.7913Y-1.8701
X1.8898Y-0.2362
X1.8898Y-1.8701
X1.9882Y-1.8701
X2.0866Y-1.8701
X2.1949Y-1.1319
X2.1949Y-1.8701
X2.2244Y-0.0984
X2.2244Y-0.1673
X2.2539Y-0.5315
X2.2539Y-0.6594
X2.2539Y-0.7972
X2.2539Y-0.9154
X2.2539Y-1.1319
X2.2539Y-1.2795
X2.2835Y-1.8701
X2.313Y-0.1969
X2.313Y-0.3937
X2.313Y-1.3386
X2.3607Y-0.315
X2.3706Y-0.4528
X2.3819Y-0.5315
X2.3819Y-0.6594
X2.3819Y-0.7972
X2.3819Y-0.9547
X2.3819Y-1.1319
X2.3819Y-1.2697
X2.4311Y-0.7185
X2.4508Y-0.3248
X2.4646Y-1.5157
X2.4646Y-1.6457
X2.4902Y-0.9843
X2.4902Y-1.063
X2.5098Y-0.3937
X2.5197Y-1.7028
X2.5492Y-0.5315
X2.5984Y-0.7776
X2.5984Y-0.876
X2.5984Y-0.9843
X2.5984Y-1.063
X2.5984Y-1.1713
X2.5984Y-1.5059
X2.5984Y-1.6043
X2.5984Y-1.7028
T3
X1.8449Y-0.9142
X1.8457Y-0.722
X1.9236Y-0.722
X1.9236Y-0.9142
X2.0024Y-0.9142
X2.0028Y-0.722
X2.0811Y-0.9142
X2.0819Y-0.722
X2.1598Y-0.722
X2.1598Y-0.9142
T4
X1.6398Y-1.7205
X1.7398Y-1.7205
X1.8398Y-1.7205
X1.9398Y-1.7205
X2.0398Y-1.7205
X2.1398Y-1.7205
X2.2398Y-1.7205
X2.3398Y-1.7205
X1.3583Y-0.128
X1.4567Y-0.128
X1.5551Y-0.128
X1.6535Y-0.128
X1.6394Y-1.8201
X1.6394Y-1.9201
X1.7394Y-1.8201
X1.7394Y-1.9201
X1.8394Y-1.8201
X1.8394Y-1.9201
X1.9394Y-1.8201
X1.9394Y-1.9201
X2.0394Y-1.8201
X2.0394Y-1.9201
X2.1394Y-1.8201
X2.1394Y-1.9201
X2.2394Y-1.8201
X2.2394Y-1.9201
X2.3394Y-1.8201
X2.3394Y-1.9201
X0.739Y-1.8189
X0.739Y-1.9189
X0.839Y-1.8189
X0.839Y-1.9189
X0.939Y-1.8189
X0.939Y-1.9189
X1.039Y-1.8189
X1.039Y-1.9189
X2.5118Y-0.626
X2.5118Y-0.7244
X2.5118Y-0.8228
X2.5118Y-0.9213
X0.2915Y-1.7205
X0.3915Y-1.7205
X0.4915Y-1.7205
X0.5915Y-1.7205
X1.1902Y-1.7205
X1.2902Y-1.7205
X1.3902Y-1.7205
X1.4902Y-1.7205
X0.0591Y-1.278
X0.0591Y-1.378
X0.0591Y-1.478
X0.0591Y-1.578
X0.0591Y-1.678
X0.3894Y-0.4469
X0.3894Y-0.5453
X0.3894Y-0.6437
X0.3894Y-0.7421
X2.5118Y-1.1201
X2.5118Y-1.2185
X2.5118Y-1.3169
X2.5118Y-1.4154
X1.8504Y-0.128
X1.9488Y-0.128
X2.0472Y-0.128
X2.1457Y-0.128
X1.1902Y-1.8209
X1.1902Y-1.9209
X1.2902Y-1.8209
X1.2902Y-1.9209
X1.3902Y-1.8209
X1.3902Y-1.9209
X1.4902Y-1.8209
X1.4902Y-1.9209
X0.1378Y-0.4469
X0.1378Y-0.5453
X0.1378Y-0.6437
X0.1378Y-0.7421
X0.2898Y-1.8197
X0.2898Y-1.9197
X0.3898Y-1.8197
X0.3898Y-1.9197
X0.4898Y-1.8197
X0.4898Y-1.9197
X0.5898Y-1.8197
X0.5898Y-1.9197
X0.7386Y-1.7205
X0.8386Y-1.7205
X0.9386Y-1.7205
X1.0386Y-1.7205
X0.374Y-0.1299
X0.4724Y-0.1299
X0.5709Y-0.1299
X0.6693Y-0.1299
X0.0689Y-0.2894
X0.1689Y-0.2894
X0.8661Y-0.128
X0.9646Y-0.128
X1.063Y-0.128
X1.1614Y-0.128
T5
X0.1181Y-0.1181
X0.1181Y-1.8504
X2.5197Y-0.1181
X2.5197Y-1.8504
T0
M30
