M48
; DRILL file {KiCad (5.1.2)-1} date 2019/06/20 17:19:53
; FORMAT={-:-/ absolute / metric / decimal}
; #@! TF.CreationDate,2019-06-20T17:19:53+09:00
; #@! TF.GenerationSoftware,Kicad,Pcbnew,(5.1.2)-1
FMAT,2
METRIC
T1C0.762
T2C0.800
T3C0.900
T4C1.000
T5C3.000
T6C6.500
%
G90
G05
T1
X84.84Y-29.34
X84.84Y-36.96
X84.84Y-42.04
X105.16Y-29.34
X105.16Y-39.5
X105.16Y-49.66
T2
X97.75Y-57.75
X102.75Y-57.75
X76.75Y-55.25
X78.75Y-55.25
T3
X53.75Y-28.75
X56.29Y-28.75
X48.75Y-34.75
X51.29Y-34.75
X83.5Y-55.0
X86.04Y-55.0
X53.75Y-33.5
X56.29Y-33.5
X112.66Y-54.6
X115.2Y-54.6
T4
X124.1Y-44.8
X124.1Y-47.3
X116.0Y-60.5
X118.5Y-60.5
X108.5Y-60.5
X111.0Y-60.5
X63.25Y-29.75
X65.75Y-29.75
X124.1Y-52.35
X124.1Y-54.85
T5
X49.5Y-29.5
X49.5Y-61.0
X124.25Y-29.5
X124.25Y-61.0
T6
X52.25Y-42.0
X63.25Y-42.0
X52.25Y-52.75
X63.25Y-52.75
T0
M30
