G04 #@! TF.GenerationSoftware,KiCad,Pcbnew,(5.1.2)-1*
G04 #@! TF.CreationDate,2019-06-20T17:17:27+09:00*
G04 #@! TF.ProjectId,Jetson_Nano_Power,4a657473-6f6e-45f4-9e61-6e6f5f506f77,rev?*
G04 #@! TF.SameCoordinates,Original*
G04 #@! TF.FileFunction,Copper,L2,Bot*
G04 #@! TF.FilePolarity,Positive*
%FSLAX46Y46*%
G04 Gerber Fmt 4.6, Leading zero omitted, Abs format (unit mm)*
G04 Created by KiCad (PCBNEW (5.1.2)-1) date 2019-06-20 17:17:27*
%MOMM*%
%LPD*%
G04 APERTURE LIST*
%ADD10O,1.500000X2.500000*%
%ADD11C,0.100000*%
%ADD12C,0.875000*%
%ADD13R,1.800000X1.800000*%
%ADD14C,1.800000*%
%ADD15R,1.200000X2.200000*%
%ADD16R,5.800000X6.400000*%
%ADD17C,1.600000*%
%ADD18R,1.000000X0.950000*%
%ADD19R,4.900000X3.200000*%
%ADD20C,8.500000*%
%ADD21C,1.524000*%
%ADD22O,2.500000X1.500000*%
%ADD23C,6.000000*%
%ADD24C,1.500000*%
%ADD25C,1.000000*%
%ADD26C,0.500000*%
%ADD27C,0.254000*%
G04 APERTURE END LIST*
D10*
X63250000Y-29750000D03*
X65750000Y-29750000D03*
D11*
G36*
X73277691Y-29313553D02*
G01*
X73298926Y-29316703D01*
X73319750Y-29321919D01*
X73339962Y-29329151D01*
X73359368Y-29338330D01*
X73377781Y-29349366D01*
X73395024Y-29362154D01*
X73410930Y-29376570D01*
X73425346Y-29392476D01*
X73438134Y-29409719D01*
X73449170Y-29428132D01*
X73458349Y-29447538D01*
X73465581Y-29467750D01*
X73470797Y-29488574D01*
X73473947Y-29509809D01*
X73475000Y-29531250D01*
X73475000Y-29968750D01*
X73473947Y-29990191D01*
X73470797Y-30011426D01*
X73465581Y-30032250D01*
X73458349Y-30052462D01*
X73449170Y-30071868D01*
X73438134Y-30090281D01*
X73425346Y-30107524D01*
X73410930Y-30123430D01*
X73395024Y-30137846D01*
X73377781Y-30150634D01*
X73359368Y-30161670D01*
X73339962Y-30170849D01*
X73319750Y-30178081D01*
X73298926Y-30183297D01*
X73277691Y-30186447D01*
X73256250Y-30187500D01*
X72743750Y-30187500D01*
X72722309Y-30186447D01*
X72701074Y-30183297D01*
X72680250Y-30178081D01*
X72660038Y-30170849D01*
X72640632Y-30161670D01*
X72622219Y-30150634D01*
X72604976Y-30137846D01*
X72589070Y-30123430D01*
X72574654Y-30107524D01*
X72561866Y-30090281D01*
X72550830Y-30071868D01*
X72541651Y-30052462D01*
X72534419Y-30032250D01*
X72529203Y-30011426D01*
X72526053Y-29990191D01*
X72525000Y-29968750D01*
X72525000Y-29531250D01*
X72526053Y-29509809D01*
X72529203Y-29488574D01*
X72534419Y-29467750D01*
X72541651Y-29447538D01*
X72550830Y-29428132D01*
X72561866Y-29409719D01*
X72574654Y-29392476D01*
X72589070Y-29376570D01*
X72604976Y-29362154D01*
X72622219Y-29349366D01*
X72640632Y-29338330D01*
X72660038Y-29329151D01*
X72680250Y-29321919D01*
X72701074Y-29316703D01*
X72722309Y-29313553D01*
X72743750Y-29312500D01*
X73256250Y-29312500D01*
X73277691Y-29313553D01*
X73277691Y-29313553D01*
G37*
D12*
X73000000Y-29750000D03*
D11*
G36*
X73277691Y-30888553D02*
G01*
X73298926Y-30891703D01*
X73319750Y-30896919D01*
X73339962Y-30904151D01*
X73359368Y-30913330D01*
X73377781Y-30924366D01*
X73395024Y-30937154D01*
X73410930Y-30951570D01*
X73425346Y-30967476D01*
X73438134Y-30984719D01*
X73449170Y-31003132D01*
X73458349Y-31022538D01*
X73465581Y-31042750D01*
X73470797Y-31063574D01*
X73473947Y-31084809D01*
X73475000Y-31106250D01*
X73475000Y-31543750D01*
X73473947Y-31565191D01*
X73470797Y-31586426D01*
X73465581Y-31607250D01*
X73458349Y-31627462D01*
X73449170Y-31646868D01*
X73438134Y-31665281D01*
X73425346Y-31682524D01*
X73410930Y-31698430D01*
X73395024Y-31712846D01*
X73377781Y-31725634D01*
X73359368Y-31736670D01*
X73339962Y-31745849D01*
X73319750Y-31753081D01*
X73298926Y-31758297D01*
X73277691Y-31761447D01*
X73256250Y-31762500D01*
X72743750Y-31762500D01*
X72722309Y-31761447D01*
X72701074Y-31758297D01*
X72680250Y-31753081D01*
X72660038Y-31745849D01*
X72640632Y-31736670D01*
X72622219Y-31725634D01*
X72604976Y-31712846D01*
X72589070Y-31698430D01*
X72574654Y-31682524D01*
X72561866Y-31665281D01*
X72550830Y-31646868D01*
X72541651Y-31627462D01*
X72534419Y-31607250D01*
X72529203Y-31586426D01*
X72526053Y-31565191D01*
X72525000Y-31543750D01*
X72525000Y-31106250D01*
X72526053Y-31084809D01*
X72529203Y-31063574D01*
X72534419Y-31042750D01*
X72541651Y-31022538D01*
X72550830Y-31003132D01*
X72561866Y-30984719D01*
X72574654Y-30967476D01*
X72589070Y-30951570D01*
X72604976Y-30937154D01*
X72622219Y-30924366D01*
X72640632Y-30913330D01*
X72660038Y-30904151D01*
X72680250Y-30896919D01*
X72701074Y-30891703D01*
X72722309Y-30888553D01*
X72743750Y-30887500D01*
X73256250Y-30887500D01*
X73277691Y-30888553D01*
X73277691Y-30888553D01*
G37*
D12*
X73000000Y-31325000D03*
D11*
G36*
X82027691Y-30888553D02*
G01*
X82048926Y-30891703D01*
X82069750Y-30896919D01*
X82089962Y-30904151D01*
X82109368Y-30913330D01*
X82127781Y-30924366D01*
X82145024Y-30937154D01*
X82160930Y-30951570D01*
X82175346Y-30967476D01*
X82188134Y-30984719D01*
X82199170Y-31003132D01*
X82208349Y-31022538D01*
X82215581Y-31042750D01*
X82220797Y-31063574D01*
X82223947Y-31084809D01*
X82225000Y-31106250D01*
X82225000Y-31543750D01*
X82223947Y-31565191D01*
X82220797Y-31586426D01*
X82215581Y-31607250D01*
X82208349Y-31627462D01*
X82199170Y-31646868D01*
X82188134Y-31665281D01*
X82175346Y-31682524D01*
X82160930Y-31698430D01*
X82145024Y-31712846D01*
X82127781Y-31725634D01*
X82109368Y-31736670D01*
X82089962Y-31745849D01*
X82069750Y-31753081D01*
X82048926Y-31758297D01*
X82027691Y-31761447D01*
X82006250Y-31762500D01*
X81493750Y-31762500D01*
X81472309Y-31761447D01*
X81451074Y-31758297D01*
X81430250Y-31753081D01*
X81410038Y-31745849D01*
X81390632Y-31736670D01*
X81372219Y-31725634D01*
X81354976Y-31712846D01*
X81339070Y-31698430D01*
X81324654Y-31682524D01*
X81311866Y-31665281D01*
X81300830Y-31646868D01*
X81291651Y-31627462D01*
X81284419Y-31607250D01*
X81279203Y-31586426D01*
X81276053Y-31565191D01*
X81275000Y-31543750D01*
X81275000Y-31106250D01*
X81276053Y-31084809D01*
X81279203Y-31063574D01*
X81284419Y-31042750D01*
X81291651Y-31022538D01*
X81300830Y-31003132D01*
X81311866Y-30984719D01*
X81324654Y-30967476D01*
X81339070Y-30951570D01*
X81354976Y-30937154D01*
X81372219Y-30924366D01*
X81390632Y-30913330D01*
X81410038Y-30904151D01*
X81430250Y-30896919D01*
X81451074Y-30891703D01*
X81472309Y-30888553D01*
X81493750Y-30887500D01*
X82006250Y-30887500D01*
X82027691Y-30888553D01*
X82027691Y-30888553D01*
G37*
D12*
X81750000Y-31325000D03*
D11*
G36*
X82027691Y-29313553D02*
G01*
X82048926Y-29316703D01*
X82069750Y-29321919D01*
X82089962Y-29329151D01*
X82109368Y-29338330D01*
X82127781Y-29349366D01*
X82145024Y-29362154D01*
X82160930Y-29376570D01*
X82175346Y-29392476D01*
X82188134Y-29409719D01*
X82199170Y-29428132D01*
X82208349Y-29447538D01*
X82215581Y-29467750D01*
X82220797Y-29488574D01*
X82223947Y-29509809D01*
X82225000Y-29531250D01*
X82225000Y-29968750D01*
X82223947Y-29990191D01*
X82220797Y-30011426D01*
X82215581Y-30032250D01*
X82208349Y-30052462D01*
X82199170Y-30071868D01*
X82188134Y-30090281D01*
X82175346Y-30107524D01*
X82160930Y-30123430D01*
X82145024Y-30137846D01*
X82127781Y-30150634D01*
X82109368Y-30161670D01*
X82089962Y-30170849D01*
X82069750Y-30178081D01*
X82048926Y-30183297D01*
X82027691Y-30186447D01*
X82006250Y-30187500D01*
X81493750Y-30187500D01*
X81472309Y-30186447D01*
X81451074Y-30183297D01*
X81430250Y-30178081D01*
X81410038Y-30170849D01*
X81390632Y-30161670D01*
X81372219Y-30150634D01*
X81354976Y-30137846D01*
X81339070Y-30123430D01*
X81324654Y-30107524D01*
X81311866Y-30090281D01*
X81300830Y-30071868D01*
X81291651Y-30052462D01*
X81284419Y-30032250D01*
X81279203Y-30011426D01*
X81276053Y-29990191D01*
X81275000Y-29968750D01*
X81275000Y-29531250D01*
X81276053Y-29509809D01*
X81279203Y-29488574D01*
X81284419Y-29467750D01*
X81291651Y-29447538D01*
X81300830Y-29428132D01*
X81311866Y-29409719D01*
X81324654Y-29392476D01*
X81339070Y-29376570D01*
X81354976Y-29362154D01*
X81372219Y-29349366D01*
X81390632Y-29338330D01*
X81410038Y-29329151D01*
X81430250Y-29321919D01*
X81451074Y-29316703D01*
X81472309Y-29313553D01*
X81493750Y-29312500D01*
X82006250Y-29312500D01*
X82027691Y-29313553D01*
X82027691Y-29313553D01*
G37*
D12*
X81750000Y-29750000D03*
D13*
X53750000Y-28750000D03*
D14*
X56290000Y-28750000D03*
D11*
G36*
X60277691Y-28276053D02*
G01*
X60298926Y-28279203D01*
X60319750Y-28284419D01*
X60339962Y-28291651D01*
X60359368Y-28300830D01*
X60377781Y-28311866D01*
X60395024Y-28324654D01*
X60410930Y-28339070D01*
X60425346Y-28354976D01*
X60438134Y-28372219D01*
X60449170Y-28390632D01*
X60458349Y-28410038D01*
X60465581Y-28430250D01*
X60470797Y-28451074D01*
X60473947Y-28472309D01*
X60475000Y-28493750D01*
X60475000Y-29006250D01*
X60473947Y-29027691D01*
X60470797Y-29048926D01*
X60465581Y-29069750D01*
X60458349Y-29089962D01*
X60449170Y-29109368D01*
X60438134Y-29127781D01*
X60425346Y-29145024D01*
X60410930Y-29160930D01*
X60395024Y-29175346D01*
X60377781Y-29188134D01*
X60359368Y-29199170D01*
X60339962Y-29208349D01*
X60319750Y-29215581D01*
X60298926Y-29220797D01*
X60277691Y-29223947D01*
X60256250Y-29225000D01*
X59818750Y-29225000D01*
X59797309Y-29223947D01*
X59776074Y-29220797D01*
X59755250Y-29215581D01*
X59735038Y-29208349D01*
X59715632Y-29199170D01*
X59697219Y-29188134D01*
X59679976Y-29175346D01*
X59664070Y-29160930D01*
X59649654Y-29145024D01*
X59636866Y-29127781D01*
X59625830Y-29109368D01*
X59616651Y-29089962D01*
X59609419Y-29069750D01*
X59604203Y-29048926D01*
X59601053Y-29027691D01*
X59600000Y-29006250D01*
X59600000Y-28493750D01*
X59601053Y-28472309D01*
X59604203Y-28451074D01*
X59609419Y-28430250D01*
X59616651Y-28410038D01*
X59625830Y-28390632D01*
X59636866Y-28372219D01*
X59649654Y-28354976D01*
X59664070Y-28339070D01*
X59679976Y-28324654D01*
X59697219Y-28311866D01*
X59715632Y-28300830D01*
X59735038Y-28291651D01*
X59755250Y-28284419D01*
X59776074Y-28279203D01*
X59797309Y-28276053D01*
X59818750Y-28275000D01*
X60256250Y-28275000D01*
X60277691Y-28276053D01*
X60277691Y-28276053D01*
G37*
D12*
X60037500Y-28750000D03*
D11*
G36*
X58702691Y-28276053D02*
G01*
X58723926Y-28279203D01*
X58744750Y-28284419D01*
X58764962Y-28291651D01*
X58784368Y-28300830D01*
X58802781Y-28311866D01*
X58820024Y-28324654D01*
X58835930Y-28339070D01*
X58850346Y-28354976D01*
X58863134Y-28372219D01*
X58874170Y-28390632D01*
X58883349Y-28410038D01*
X58890581Y-28430250D01*
X58895797Y-28451074D01*
X58898947Y-28472309D01*
X58900000Y-28493750D01*
X58900000Y-29006250D01*
X58898947Y-29027691D01*
X58895797Y-29048926D01*
X58890581Y-29069750D01*
X58883349Y-29089962D01*
X58874170Y-29109368D01*
X58863134Y-29127781D01*
X58850346Y-29145024D01*
X58835930Y-29160930D01*
X58820024Y-29175346D01*
X58802781Y-29188134D01*
X58784368Y-29199170D01*
X58764962Y-29208349D01*
X58744750Y-29215581D01*
X58723926Y-29220797D01*
X58702691Y-29223947D01*
X58681250Y-29225000D01*
X58243750Y-29225000D01*
X58222309Y-29223947D01*
X58201074Y-29220797D01*
X58180250Y-29215581D01*
X58160038Y-29208349D01*
X58140632Y-29199170D01*
X58122219Y-29188134D01*
X58104976Y-29175346D01*
X58089070Y-29160930D01*
X58074654Y-29145024D01*
X58061866Y-29127781D01*
X58050830Y-29109368D01*
X58041651Y-29089962D01*
X58034419Y-29069750D01*
X58029203Y-29048926D01*
X58026053Y-29027691D01*
X58025000Y-29006250D01*
X58025000Y-28493750D01*
X58026053Y-28472309D01*
X58029203Y-28451074D01*
X58034419Y-28430250D01*
X58041651Y-28410038D01*
X58050830Y-28390632D01*
X58061866Y-28372219D01*
X58074654Y-28354976D01*
X58089070Y-28339070D01*
X58104976Y-28324654D01*
X58122219Y-28311866D01*
X58140632Y-28300830D01*
X58160038Y-28291651D01*
X58180250Y-28284419D01*
X58201074Y-28279203D01*
X58222309Y-28276053D01*
X58243750Y-28275000D01*
X58681250Y-28275000D01*
X58702691Y-28276053D01*
X58702691Y-28276053D01*
G37*
D12*
X58462500Y-28750000D03*
D11*
G36*
X83527691Y-30888553D02*
G01*
X83548926Y-30891703D01*
X83569750Y-30896919D01*
X83589962Y-30904151D01*
X83609368Y-30913330D01*
X83627781Y-30924366D01*
X83645024Y-30937154D01*
X83660930Y-30951570D01*
X83675346Y-30967476D01*
X83688134Y-30984719D01*
X83699170Y-31003132D01*
X83708349Y-31022538D01*
X83715581Y-31042750D01*
X83720797Y-31063574D01*
X83723947Y-31084809D01*
X83725000Y-31106250D01*
X83725000Y-31543750D01*
X83723947Y-31565191D01*
X83720797Y-31586426D01*
X83715581Y-31607250D01*
X83708349Y-31627462D01*
X83699170Y-31646868D01*
X83688134Y-31665281D01*
X83675346Y-31682524D01*
X83660930Y-31698430D01*
X83645024Y-31712846D01*
X83627781Y-31725634D01*
X83609368Y-31736670D01*
X83589962Y-31745849D01*
X83569750Y-31753081D01*
X83548926Y-31758297D01*
X83527691Y-31761447D01*
X83506250Y-31762500D01*
X82993750Y-31762500D01*
X82972309Y-31761447D01*
X82951074Y-31758297D01*
X82930250Y-31753081D01*
X82910038Y-31745849D01*
X82890632Y-31736670D01*
X82872219Y-31725634D01*
X82854976Y-31712846D01*
X82839070Y-31698430D01*
X82824654Y-31682524D01*
X82811866Y-31665281D01*
X82800830Y-31646868D01*
X82791651Y-31627462D01*
X82784419Y-31607250D01*
X82779203Y-31586426D01*
X82776053Y-31565191D01*
X82775000Y-31543750D01*
X82775000Y-31106250D01*
X82776053Y-31084809D01*
X82779203Y-31063574D01*
X82784419Y-31042750D01*
X82791651Y-31022538D01*
X82800830Y-31003132D01*
X82811866Y-30984719D01*
X82824654Y-30967476D01*
X82839070Y-30951570D01*
X82854976Y-30937154D01*
X82872219Y-30924366D01*
X82890632Y-30913330D01*
X82910038Y-30904151D01*
X82930250Y-30896919D01*
X82951074Y-30891703D01*
X82972309Y-30888553D01*
X82993750Y-30887500D01*
X83506250Y-30887500D01*
X83527691Y-30888553D01*
X83527691Y-30888553D01*
G37*
D12*
X83250000Y-31325000D03*
D11*
G36*
X83527691Y-29313553D02*
G01*
X83548926Y-29316703D01*
X83569750Y-29321919D01*
X83589962Y-29329151D01*
X83609368Y-29338330D01*
X83627781Y-29349366D01*
X83645024Y-29362154D01*
X83660930Y-29376570D01*
X83675346Y-29392476D01*
X83688134Y-29409719D01*
X83699170Y-29428132D01*
X83708349Y-29447538D01*
X83715581Y-29467750D01*
X83720797Y-29488574D01*
X83723947Y-29509809D01*
X83725000Y-29531250D01*
X83725000Y-29968750D01*
X83723947Y-29990191D01*
X83720797Y-30011426D01*
X83715581Y-30032250D01*
X83708349Y-30052462D01*
X83699170Y-30071868D01*
X83688134Y-30090281D01*
X83675346Y-30107524D01*
X83660930Y-30123430D01*
X83645024Y-30137846D01*
X83627781Y-30150634D01*
X83609368Y-30161670D01*
X83589962Y-30170849D01*
X83569750Y-30178081D01*
X83548926Y-30183297D01*
X83527691Y-30186447D01*
X83506250Y-30187500D01*
X82993750Y-30187500D01*
X82972309Y-30186447D01*
X82951074Y-30183297D01*
X82930250Y-30178081D01*
X82910038Y-30170849D01*
X82890632Y-30161670D01*
X82872219Y-30150634D01*
X82854976Y-30137846D01*
X82839070Y-30123430D01*
X82824654Y-30107524D01*
X82811866Y-30090281D01*
X82800830Y-30071868D01*
X82791651Y-30052462D01*
X82784419Y-30032250D01*
X82779203Y-30011426D01*
X82776053Y-29990191D01*
X82775000Y-29968750D01*
X82775000Y-29531250D01*
X82776053Y-29509809D01*
X82779203Y-29488574D01*
X82784419Y-29467750D01*
X82791651Y-29447538D01*
X82800830Y-29428132D01*
X82811866Y-29409719D01*
X82824654Y-29392476D01*
X82839070Y-29376570D01*
X82854976Y-29362154D01*
X82872219Y-29349366D01*
X82890632Y-29338330D01*
X82910038Y-29329151D01*
X82930250Y-29321919D01*
X82951074Y-29316703D01*
X82972309Y-29313553D01*
X82993750Y-29312500D01*
X83506250Y-29312500D01*
X83527691Y-29313553D01*
X83527691Y-29313553D01*
G37*
D12*
X83250000Y-29750000D03*
D14*
X86040000Y-55000000D03*
D13*
X83500000Y-55000000D03*
D11*
G36*
X87027691Y-46526053D02*
G01*
X87048926Y-46529203D01*
X87069750Y-46534419D01*
X87089962Y-46541651D01*
X87109368Y-46550830D01*
X87127781Y-46561866D01*
X87145024Y-46574654D01*
X87160930Y-46589070D01*
X87175346Y-46604976D01*
X87188134Y-46622219D01*
X87199170Y-46640632D01*
X87208349Y-46660038D01*
X87215581Y-46680250D01*
X87220797Y-46701074D01*
X87223947Y-46722309D01*
X87225000Y-46743750D01*
X87225000Y-47181250D01*
X87223947Y-47202691D01*
X87220797Y-47223926D01*
X87215581Y-47244750D01*
X87208349Y-47264962D01*
X87199170Y-47284368D01*
X87188134Y-47302781D01*
X87175346Y-47320024D01*
X87160930Y-47335930D01*
X87145024Y-47350346D01*
X87127781Y-47363134D01*
X87109368Y-47374170D01*
X87089962Y-47383349D01*
X87069750Y-47390581D01*
X87048926Y-47395797D01*
X87027691Y-47398947D01*
X87006250Y-47400000D01*
X86493750Y-47400000D01*
X86472309Y-47398947D01*
X86451074Y-47395797D01*
X86430250Y-47390581D01*
X86410038Y-47383349D01*
X86390632Y-47374170D01*
X86372219Y-47363134D01*
X86354976Y-47350346D01*
X86339070Y-47335930D01*
X86324654Y-47320024D01*
X86311866Y-47302781D01*
X86300830Y-47284368D01*
X86291651Y-47264962D01*
X86284419Y-47244750D01*
X86279203Y-47223926D01*
X86276053Y-47202691D01*
X86275000Y-47181250D01*
X86275000Y-46743750D01*
X86276053Y-46722309D01*
X86279203Y-46701074D01*
X86284419Y-46680250D01*
X86291651Y-46660038D01*
X86300830Y-46640632D01*
X86311866Y-46622219D01*
X86324654Y-46604976D01*
X86339070Y-46589070D01*
X86354976Y-46574654D01*
X86372219Y-46561866D01*
X86390632Y-46550830D01*
X86410038Y-46541651D01*
X86430250Y-46534419D01*
X86451074Y-46529203D01*
X86472309Y-46526053D01*
X86493750Y-46525000D01*
X87006250Y-46525000D01*
X87027691Y-46526053D01*
X87027691Y-46526053D01*
G37*
D12*
X86750000Y-46962500D03*
D11*
G36*
X87027691Y-48101053D02*
G01*
X87048926Y-48104203D01*
X87069750Y-48109419D01*
X87089962Y-48116651D01*
X87109368Y-48125830D01*
X87127781Y-48136866D01*
X87145024Y-48149654D01*
X87160930Y-48164070D01*
X87175346Y-48179976D01*
X87188134Y-48197219D01*
X87199170Y-48215632D01*
X87208349Y-48235038D01*
X87215581Y-48255250D01*
X87220797Y-48276074D01*
X87223947Y-48297309D01*
X87225000Y-48318750D01*
X87225000Y-48756250D01*
X87223947Y-48777691D01*
X87220797Y-48798926D01*
X87215581Y-48819750D01*
X87208349Y-48839962D01*
X87199170Y-48859368D01*
X87188134Y-48877781D01*
X87175346Y-48895024D01*
X87160930Y-48910930D01*
X87145024Y-48925346D01*
X87127781Y-48938134D01*
X87109368Y-48949170D01*
X87089962Y-48958349D01*
X87069750Y-48965581D01*
X87048926Y-48970797D01*
X87027691Y-48973947D01*
X87006250Y-48975000D01*
X86493750Y-48975000D01*
X86472309Y-48973947D01*
X86451074Y-48970797D01*
X86430250Y-48965581D01*
X86410038Y-48958349D01*
X86390632Y-48949170D01*
X86372219Y-48938134D01*
X86354976Y-48925346D01*
X86339070Y-48910930D01*
X86324654Y-48895024D01*
X86311866Y-48877781D01*
X86300830Y-48859368D01*
X86291651Y-48839962D01*
X86284419Y-48819750D01*
X86279203Y-48798926D01*
X86276053Y-48777691D01*
X86275000Y-48756250D01*
X86275000Y-48318750D01*
X86276053Y-48297309D01*
X86279203Y-48276074D01*
X86284419Y-48255250D01*
X86291651Y-48235038D01*
X86300830Y-48215632D01*
X86311866Y-48197219D01*
X86324654Y-48179976D01*
X86339070Y-48164070D01*
X86354976Y-48149654D01*
X86372219Y-48136866D01*
X86390632Y-48125830D01*
X86410038Y-48116651D01*
X86430250Y-48109419D01*
X86451074Y-48104203D01*
X86472309Y-48101053D01*
X86493750Y-48100000D01*
X87006250Y-48100000D01*
X87027691Y-48101053D01*
X87027691Y-48101053D01*
G37*
D12*
X86750000Y-48537500D03*
D15*
X75220000Y-29800000D03*
X79780000Y-29800000D03*
D16*
X77500000Y-36100000D03*
D17*
X102750000Y-57750000D03*
X97750000Y-57750000D03*
D18*
X68600000Y-54280000D03*
D19*
X72950000Y-55250000D03*
D18*
X68600000Y-56220000D03*
D13*
X48750000Y-34750000D03*
D14*
X51290000Y-34750000D03*
X56290000Y-33500000D03*
D13*
X53750000Y-33500000D03*
X115200000Y-54600000D03*
D14*
X112660000Y-54600000D03*
D10*
X108500000Y-60500000D03*
X111000000Y-60500000D03*
D20*
X52250000Y-42000000D03*
X63250000Y-42000000D03*
X63250000Y-52750000D03*
X52250000Y-52750000D03*
D10*
X118500000Y-60500000D03*
X116000000Y-60500000D03*
D11*
G36*
X59527691Y-37026053D02*
G01*
X59548926Y-37029203D01*
X59569750Y-37034419D01*
X59589962Y-37041651D01*
X59609368Y-37050830D01*
X59627781Y-37061866D01*
X59645024Y-37074654D01*
X59660930Y-37089070D01*
X59675346Y-37104976D01*
X59688134Y-37122219D01*
X59699170Y-37140632D01*
X59708349Y-37160038D01*
X59715581Y-37180250D01*
X59720797Y-37201074D01*
X59723947Y-37222309D01*
X59725000Y-37243750D01*
X59725000Y-37756250D01*
X59723947Y-37777691D01*
X59720797Y-37798926D01*
X59715581Y-37819750D01*
X59708349Y-37839962D01*
X59699170Y-37859368D01*
X59688134Y-37877781D01*
X59675346Y-37895024D01*
X59660930Y-37910930D01*
X59645024Y-37925346D01*
X59627781Y-37938134D01*
X59609368Y-37949170D01*
X59589962Y-37958349D01*
X59569750Y-37965581D01*
X59548926Y-37970797D01*
X59527691Y-37973947D01*
X59506250Y-37975000D01*
X59068750Y-37975000D01*
X59047309Y-37973947D01*
X59026074Y-37970797D01*
X59005250Y-37965581D01*
X58985038Y-37958349D01*
X58965632Y-37949170D01*
X58947219Y-37938134D01*
X58929976Y-37925346D01*
X58914070Y-37910930D01*
X58899654Y-37895024D01*
X58886866Y-37877781D01*
X58875830Y-37859368D01*
X58866651Y-37839962D01*
X58859419Y-37819750D01*
X58854203Y-37798926D01*
X58851053Y-37777691D01*
X58850000Y-37756250D01*
X58850000Y-37243750D01*
X58851053Y-37222309D01*
X58854203Y-37201074D01*
X58859419Y-37180250D01*
X58866651Y-37160038D01*
X58875830Y-37140632D01*
X58886866Y-37122219D01*
X58899654Y-37104976D01*
X58914070Y-37089070D01*
X58929976Y-37074654D01*
X58947219Y-37061866D01*
X58965632Y-37050830D01*
X58985038Y-37041651D01*
X59005250Y-37034419D01*
X59026074Y-37029203D01*
X59047309Y-37026053D01*
X59068750Y-37025000D01*
X59506250Y-37025000D01*
X59527691Y-37026053D01*
X59527691Y-37026053D01*
G37*
D12*
X59287500Y-37500000D03*
D11*
G36*
X57952691Y-37026053D02*
G01*
X57973926Y-37029203D01*
X57994750Y-37034419D01*
X58014962Y-37041651D01*
X58034368Y-37050830D01*
X58052781Y-37061866D01*
X58070024Y-37074654D01*
X58085930Y-37089070D01*
X58100346Y-37104976D01*
X58113134Y-37122219D01*
X58124170Y-37140632D01*
X58133349Y-37160038D01*
X58140581Y-37180250D01*
X58145797Y-37201074D01*
X58148947Y-37222309D01*
X58150000Y-37243750D01*
X58150000Y-37756250D01*
X58148947Y-37777691D01*
X58145797Y-37798926D01*
X58140581Y-37819750D01*
X58133349Y-37839962D01*
X58124170Y-37859368D01*
X58113134Y-37877781D01*
X58100346Y-37895024D01*
X58085930Y-37910930D01*
X58070024Y-37925346D01*
X58052781Y-37938134D01*
X58034368Y-37949170D01*
X58014962Y-37958349D01*
X57994750Y-37965581D01*
X57973926Y-37970797D01*
X57952691Y-37973947D01*
X57931250Y-37975000D01*
X57493750Y-37975000D01*
X57472309Y-37973947D01*
X57451074Y-37970797D01*
X57430250Y-37965581D01*
X57410038Y-37958349D01*
X57390632Y-37949170D01*
X57372219Y-37938134D01*
X57354976Y-37925346D01*
X57339070Y-37910930D01*
X57324654Y-37895024D01*
X57311866Y-37877781D01*
X57300830Y-37859368D01*
X57291651Y-37839962D01*
X57284419Y-37819750D01*
X57279203Y-37798926D01*
X57276053Y-37777691D01*
X57275000Y-37756250D01*
X57275000Y-37243750D01*
X57276053Y-37222309D01*
X57279203Y-37201074D01*
X57284419Y-37180250D01*
X57291651Y-37160038D01*
X57300830Y-37140632D01*
X57311866Y-37122219D01*
X57324654Y-37104976D01*
X57339070Y-37089070D01*
X57354976Y-37074654D01*
X57372219Y-37061866D01*
X57390632Y-37050830D01*
X57410038Y-37041651D01*
X57430250Y-37034419D01*
X57451074Y-37029203D01*
X57472309Y-37026053D01*
X57493750Y-37025000D01*
X57931250Y-37025000D01*
X57952691Y-37026053D01*
X57952691Y-37026053D01*
G37*
D12*
X57712500Y-37500000D03*
D11*
G36*
X58702691Y-33026053D02*
G01*
X58723926Y-33029203D01*
X58744750Y-33034419D01*
X58764962Y-33041651D01*
X58784368Y-33050830D01*
X58802781Y-33061866D01*
X58820024Y-33074654D01*
X58835930Y-33089070D01*
X58850346Y-33104976D01*
X58863134Y-33122219D01*
X58874170Y-33140632D01*
X58883349Y-33160038D01*
X58890581Y-33180250D01*
X58895797Y-33201074D01*
X58898947Y-33222309D01*
X58900000Y-33243750D01*
X58900000Y-33756250D01*
X58898947Y-33777691D01*
X58895797Y-33798926D01*
X58890581Y-33819750D01*
X58883349Y-33839962D01*
X58874170Y-33859368D01*
X58863134Y-33877781D01*
X58850346Y-33895024D01*
X58835930Y-33910930D01*
X58820024Y-33925346D01*
X58802781Y-33938134D01*
X58784368Y-33949170D01*
X58764962Y-33958349D01*
X58744750Y-33965581D01*
X58723926Y-33970797D01*
X58702691Y-33973947D01*
X58681250Y-33975000D01*
X58243750Y-33975000D01*
X58222309Y-33973947D01*
X58201074Y-33970797D01*
X58180250Y-33965581D01*
X58160038Y-33958349D01*
X58140632Y-33949170D01*
X58122219Y-33938134D01*
X58104976Y-33925346D01*
X58089070Y-33910930D01*
X58074654Y-33895024D01*
X58061866Y-33877781D01*
X58050830Y-33859368D01*
X58041651Y-33839962D01*
X58034419Y-33819750D01*
X58029203Y-33798926D01*
X58026053Y-33777691D01*
X58025000Y-33756250D01*
X58025000Y-33243750D01*
X58026053Y-33222309D01*
X58029203Y-33201074D01*
X58034419Y-33180250D01*
X58041651Y-33160038D01*
X58050830Y-33140632D01*
X58061866Y-33122219D01*
X58074654Y-33104976D01*
X58089070Y-33089070D01*
X58104976Y-33074654D01*
X58122219Y-33061866D01*
X58140632Y-33050830D01*
X58160038Y-33041651D01*
X58180250Y-33034419D01*
X58201074Y-33029203D01*
X58222309Y-33026053D01*
X58243750Y-33025000D01*
X58681250Y-33025000D01*
X58702691Y-33026053D01*
X58702691Y-33026053D01*
G37*
D12*
X58462500Y-33500000D03*
D11*
G36*
X60277691Y-33026053D02*
G01*
X60298926Y-33029203D01*
X60319750Y-33034419D01*
X60339962Y-33041651D01*
X60359368Y-33050830D01*
X60377781Y-33061866D01*
X60395024Y-33074654D01*
X60410930Y-33089070D01*
X60425346Y-33104976D01*
X60438134Y-33122219D01*
X60449170Y-33140632D01*
X60458349Y-33160038D01*
X60465581Y-33180250D01*
X60470797Y-33201074D01*
X60473947Y-33222309D01*
X60475000Y-33243750D01*
X60475000Y-33756250D01*
X60473947Y-33777691D01*
X60470797Y-33798926D01*
X60465581Y-33819750D01*
X60458349Y-33839962D01*
X60449170Y-33859368D01*
X60438134Y-33877781D01*
X60425346Y-33895024D01*
X60410930Y-33910930D01*
X60395024Y-33925346D01*
X60377781Y-33938134D01*
X60359368Y-33949170D01*
X60339962Y-33958349D01*
X60319750Y-33965581D01*
X60298926Y-33970797D01*
X60277691Y-33973947D01*
X60256250Y-33975000D01*
X59818750Y-33975000D01*
X59797309Y-33973947D01*
X59776074Y-33970797D01*
X59755250Y-33965581D01*
X59735038Y-33958349D01*
X59715632Y-33949170D01*
X59697219Y-33938134D01*
X59679976Y-33925346D01*
X59664070Y-33910930D01*
X59649654Y-33895024D01*
X59636866Y-33877781D01*
X59625830Y-33859368D01*
X59616651Y-33839962D01*
X59609419Y-33819750D01*
X59604203Y-33798926D01*
X59601053Y-33777691D01*
X59600000Y-33756250D01*
X59600000Y-33243750D01*
X59601053Y-33222309D01*
X59604203Y-33201074D01*
X59609419Y-33180250D01*
X59616651Y-33160038D01*
X59625830Y-33140632D01*
X59636866Y-33122219D01*
X59649654Y-33104976D01*
X59664070Y-33089070D01*
X59679976Y-33074654D01*
X59697219Y-33061866D01*
X59715632Y-33050830D01*
X59735038Y-33041651D01*
X59755250Y-33034419D01*
X59776074Y-33029203D01*
X59797309Y-33026053D01*
X59818750Y-33025000D01*
X60256250Y-33025000D01*
X60277691Y-33026053D01*
X60277691Y-33026053D01*
G37*
D12*
X60037500Y-33500000D03*
D11*
G36*
X109152691Y-54126053D02*
G01*
X109173926Y-54129203D01*
X109194750Y-54134419D01*
X109214962Y-54141651D01*
X109234368Y-54150830D01*
X109252781Y-54161866D01*
X109270024Y-54174654D01*
X109285930Y-54189070D01*
X109300346Y-54204976D01*
X109313134Y-54222219D01*
X109324170Y-54240632D01*
X109333349Y-54260038D01*
X109340581Y-54280250D01*
X109345797Y-54301074D01*
X109348947Y-54322309D01*
X109350000Y-54343750D01*
X109350000Y-54856250D01*
X109348947Y-54877691D01*
X109345797Y-54898926D01*
X109340581Y-54919750D01*
X109333349Y-54939962D01*
X109324170Y-54959368D01*
X109313134Y-54977781D01*
X109300346Y-54995024D01*
X109285930Y-55010930D01*
X109270024Y-55025346D01*
X109252781Y-55038134D01*
X109234368Y-55049170D01*
X109214962Y-55058349D01*
X109194750Y-55065581D01*
X109173926Y-55070797D01*
X109152691Y-55073947D01*
X109131250Y-55075000D01*
X108693750Y-55075000D01*
X108672309Y-55073947D01*
X108651074Y-55070797D01*
X108630250Y-55065581D01*
X108610038Y-55058349D01*
X108590632Y-55049170D01*
X108572219Y-55038134D01*
X108554976Y-55025346D01*
X108539070Y-55010930D01*
X108524654Y-54995024D01*
X108511866Y-54977781D01*
X108500830Y-54959368D01*
X108491651Y-54939962D01*
X108484419Y-54919750D01*
X108479203Y-54898926D01*
X108476053Y-54877691D01*
X108475000Y-54856250D01*
X108475000Y-54343750D01*
X108476053Y-54322309D01*
X108479203Y-54301074D01*
X108484419Y-54280250D01*
X108491651Y-54260038D01*
X108500830Y-54240632D01*
X108511866Y-54222219D01*
X108524654Y-54204976D01*
X108539070Y-54189070D01*
X108554976Y-54174654D01*
X108572219Y-54161866D01*
X108590632Y-54150830D01*
X108610038Y-54141651D01*
X108630250Y-54134419D01*
X108651074Y-54129203D01*
X108672309Y-54126053D01*
X108693750Y-54125000D01*
X109131250Y-54125000D01*
X109152691Y-54126053D01*
X109152691Y-54126053D01*
G37*
D12*
X108912500Y-54600000D03*
D11*
G36*
X110727691Y-54126053D02*
G01*
X110748926Y-54129203D01*
X110769750Y-54134419D01*
X110789962Y-54141651D01*
X110809368Y-54150830D01*
X110827781Y-54161866D01*
X110845024Y-54174654D01*
X110860930Y-54189070D01*
X110875346Y-54204976D01*
X110888134Y-54222219D01*
X110899170Y-54240632D01*
X110908349Y-54260038D01*
X110915581Y-54280250D01*
X110920797Y-54301074D01*
X110923947Y-54322309D01*
X110925000Y-54343750D01*
X110925000Y-54856250D01*
X110923947Y-54877691D01*
X110920797Y-54898926D01*
X110915581Y-54919750D01*
X110908349Y-54939962D01*
X110899170Y-54959368D01*
X110888134Y-54977781D01*
X110875346Y-54995024D01*
X110860930Y-55010930D01*
X110845024Y-55025346D01*
X110827781Y-55038134D01*
X110809368Y-55049170D01*
X110789962Y-55058349D01*
X110769750Y-55065581D01*
X110748926Y-55070797D01*
X110727691Y-55073947D01*
X110706250Y-55075000D01*
X110268750Y-55075000D01*
X110247309Y-55073947D01*
X110226074Y-55070797D01*
X110205250Y-55065581D01*
X110185038Y-55058349D01*
X110165632Y-55049170D01*
X110147219Y-55038134D01*
X110129976Y-55025346D01*
X110114070Y-55010930D01*
X110099654Y-54995024D01*
X110086866Y-54977781D01*
X110075830Y-54959368D01*
X110066651Y-54939962D01*
X110059419Y-54919750D01*
X110054203Y-54898926D01*
X110051053Y-54877691D01*
X110050000Y-54856250D01*
X110050000Y-54343750D01*
X110051053Y-54322309D01*
X110054203Y-54301074D01*
X110059419Y-54280250D01*
X110066651Y-54260038D01*
X110075830Y-54240632D01*
X110086866Y-54222219D01*
X110099654Y-54204976D01*
X110114070Y-54189070D01*
X110129976Y-54174654D01*
X110147219Y-54161866D01*
X110165632Y-54150830D01*
X110185038Y-54141651D01*
X110205250Y-54134419D01*
X110226074Y-54129203D01*
X110247309Y-54126053D01*
X110268750Y-54125000D01*
X110706250Y-54125000D01*
X110727691Y-54126053D01*
X110727691Y-54126053D01*
G37*
D12*
X110487500Y-54600000D03*
D21*
X84840000Y-42040000D03*
X84840000Y-36960000D03*
X84840000Y-29340000D03*
X105160000Y-29340000D03*
X105160000Y-39500000D03*
X105160000Y-49660000D03*
D17*
X76750000Y-55250000D03*
X78750000Y-55250000D03*
D22*
X124100001Y-54849999D03*
X124100001Y-52349999D03*
X124100001Y-44800000D03*
X124100001Y-47300000D03*
D11*
G36*
X107027691Y-60751053D02*
G01*
X107048926Y-60754203D01*
X107069750Y-60759419D01*
X107089962Y-60766651D01*
X107109368Y-60775830D01*
X107127781Y-60786866D01*
X107145024Y-60799654D01*
X107160930Y-60814070D01*
X107175346Y-60829976D01*
X107188134Y-60847219D01*
X107199170Y-60865632D01*
X107208349Y-60885038D01*
X107215581Y-60905250D01*
X107220797Y-60926074D01*
X107223947Y-60947309D01*
X107225000Y-60968750D01*
X107225000Y-61406250D01*
X107223947Y-61427691D01*
X107220797Y-61448926D01*
X107215581Y-61469750D01*
X107208349Y-61489962D01*
X107199170Y-61509368D01*
X107188134Y-61527781D01*
X107175346Y-61545024D01*
X107160930Y-61560930D01*
X107145024Y-61575346D01*
X107127781Y-61588134D01*
X107109368Y-61599170D01*
X107089962Y-61608349D01*
X107069750Y-61615581D01*
X107048926Y-61620797D01*
X107027691Y-61623947D01*
X107006250Y-61625000D01*
X106493750Y-61625000D01*
X106472309Y-61623947D01*
X106451074Y-61620797D01*
X106430250Y-61615581D01*
X106410038Y-61608349D01*
X106390632Y-61599170D01*
X106372219Y-61588134D01*
X106354976Y-61575346D01*
X106339070Y-61560930D01*
X106324654Y-61545024D01*
X106311866Y-61527781D01*
X106300830Y-61509368D01*
X106291651Y-61489962D01*
X106284419Y-61469750D01*
X106279203Y-61448926D01*
X106276053Y-61427691D01*
X106275000Y-61406250D01*
X106275000Y-60968750D01*
X106276053Y-60947309D01*
X106279203Y-60926074D01*
X106284419Y-60905250D01*
X106291651Y-60885038D01*
X106300830Y-60865632D01*
X106311866Y-60847219D01*
X106324654Y-60829976D01*
X106339070Y-60814070D01*
X106354976Y-60799654D01*
X106372219Y-60786866D01*
X106390632Y-60775830D01*
X106410038Y-60766651D01*
X106430250Y-60759419D01*
X106451074Y-60754203D01*
X106472309Y-60751053D01*
X106493750Y-60750000D01*
X107006250Y-60750000D01*
X107027691Y-60751053D01*
X107027691Y-60751053D01*
G37*
D12*
X106750000Y-61187500D03*
D11*
G36*
X107027691Y-59176053D02*
G01*
X107048926Y-59179203D01*
X107069750Y-59184419D01*
X107089962Y-59191651D01*
X107109368Y-59200830D01*
X107127781Y-59211866D01*
X107145024Y-59224654D01*
X107160930Y-59239070D01*
X107175346Y-59254976D01*
X107188134Y-59272219D01*
X107199170Y-59290632D01*
X107208349Y-59310038D01*
X107215581Y-59330250D01*
X107220797Y-59351074D01*
X107223947Y-59372309D01*
X107225000Y-59393750D01*
X107225000Y-59831250D01*
X107223947Y-59852691D01*
X107220797Y-59873926D01*
X107215581Y-59894750D01*
X107208349Y-59914962D01*
X107199170Y-59934368D01*
X107188134Y-59952781D01*
X107175346Y-59970024D01*
X107160930Y-59985930D01*
X107145024Y-60000346D01*
X107127781Y-60013134D01*
X107109368Y-60024170D01*
X107089962Y-60033349D01*
X107069750Y-60040581D01*
X107048926Y-60045797D01*
X107027691Y-60048947D01*
X107006250Y-60050000D01*
X106493750Y-60050000D01*
X106472309Y-60048947D01*
X106451074Y-60045797D01*
X106430250Y-60040581D01*
X106410038Y-60033349D01*
X106390632Y-60024170D01*
X106372219Y-60013134D01*
X106354976Y-60000346D01*
X106339070Y-59985930D01*
X106324654Y-59970024D01*
X106311866Y-59952781D01*
X106300830Y-59934368D01*
X106291651Y-59914962D01*
X106284419Y-59894750D01*
X106279203Y-59873926D01*
X106276053Y-59852691D01*
X106275000Y-59831250D01*
X106275000Y-59393750D01*
X106276053Y-59372309D01*
X106279203Y-59351074D01*
X106284419Y-59330250D01*
X106291651Y-59310038D01*
X106300830Y-59290632D01*
X106311866Y-59272219D01*
X106324654Y-59254976D01*
X106339070Y-59239070D01*
X106354976Y-59224654D01*
X106372219Y-59211866D01*
X106390632Y-59200830D01*
X106410038Y-59191651D01*
X106430250Y-59184419D01*
X106451074Y-59179203D01*
X106472309Y-59176053D01*
X106493750Y-59175000D01*
X107006250Y-59175000D01*
X107027691Y-59176053D01*
X107027691Y-59176053D01*
G37*
D12*
X106750000Y-59612500D03*
D11*
G36*
X114477691Y-59276053D02*
G01*
X114498926Y-59279203D01*
X114519750Y-59284419D01*
X114539962Y-59291651D01*
X114559368Y-59300830D01*
X114577781Y-59311866D01*
X114595024Y-59324654D01*
X114610930Y-59339070D01*
X114625346Y-59354976D01*
X114638134Y-59372219D01*
X114649170Y-59390632D01*
X114658349Y-59410038D01*
X114665581Y-59430250D01*
X114670797Y-59451074D01*
X114673947Y-59472309D01*
X114675000Y-59493750D01*
X114675000Y-59931250D01*
X114673947Y-59952691D01*
X114670797Y-59973926D01*
X114665581Y-59994750D01*
X114658349Y-60014962D01*
X114649170Y-60034368D01*
X114638134Y-60052781D01*
X114625346Y-60070024D01*
X114610930Y-60085930D01*
X114595024Y-60100346D01*
X114577781Y-60113134D01*
X114559368Y-60124170D01*
X114539962Y-60133349D01*
X114519750Y-60140581D01*
X114498926Y-60145797D01*
X114477691Y-60148947D01*
X114456250Y-60150000D01*
X113943750Y-60150000D01*
X113922309Y-60148947D01*
X113901074Y-60145797D01*
X113880250Y-60140581D01*
X113860038Y-60133349D01*
X113840632Y-60124170D01*
X113822219Y-60113134D01*
X113804976Y-60100346D01*
X113789070Y-60085930D01*
X113774654Y-60070024D01*
X113761866Y-60052781D01*
X113750830Y-60034368D01*
X113741651Y-60014962D01*
X113734419Y-59994750D01*
X113729203Y-59973926D01*
X113726053Y-59952691D01*
X113725000Y-59931250D01*
X113725000Y-59493750D01*
X113726053Y-59472309D01*
X113729203Y-59451074D01*
X113734419Y-59430250D01*
X113741651Y-59410038D01*
X113750830Y-59390632D01*
X113761866Y-59372219D01*
X113774654Y-59354976D01*
X113789070Y-59339070D01*
X113804976Y-59324654D01*
X113822219Y-59311866D01*
X113840632Y-59300830D01*
X113860038Y-59291651D01*
X113880250Y-59284419D01*
X113901074Y-59279203D01*
X113922309Y-59276053D01*
X113943750Y-59275000D01*
X114456250Y-59275000D01*
X114477691Y-59276053D01*
X114477691Y-59276053D01*
G37*
D12*
X114200000Y-59712500D03*
D11*
G36*
X114477691Y-60851053D02*
G01*
X114498926Y-60854203D01*
X114519750Y-60859419D01*
X114539962Y-60866651D01*
X114559368Y-60875830D01*
X114577781Y-60886866D01*
X114595024Y-60899654D01*
X114610930Y-60914070D01*
X114625346Y-60929976D01*
X114638134Y-60947219D01*
X114649170Y-60965632D01*
X114658349Y-60985038D01*
X114665581Y-61005250D01*
X114670797Y-61026074D01*
X114673947Y-61047309D01*
X114675000Y-61068750D01*
X114675000Y-61506250D01*
X114673947Y-61527691D01*
X114670797Y-61548926D01*
X114665581Y-61569750D01*
X114658349Y-61589962D01*
X114649170Y-61609368D01*
X114638134Y-61627781D01*
X114625346Y-61645024D01*
X114610930Y-61660930D01*
X114595024Y-61675346D01*
X114577781Y-61688134D01*
X114559368Y-61699170D01*
X114539962Y-61708349D01*
X114519750Y-61715581D01*
X114498926Y-61720797D01*
X114477691Y-61723947D01*
X114456250Y-61725000D01*
X113943750Y-61725000D01*
X113922309Y-61723947D01*
X113901074Y-61720797D01*
X113880250Y-61715581D01*
X113860038Y-61708349D01*
X113840632Y-61699170D01*
X113822219Y-61688134D01*
X113804976Y-61675346D01*
X113789070Y-61660930D01*
X113774654Y-61645024D01*
X113761866Y-61627781D01*
X113750830Y-61609368D01*
X113741651Y-61589962D01*
X113734419Y-61569750D01*
X113729203Y-61548926D01*
X113726053Y-61527691D01*
X113725000Y-61506250D01*
X113725000Y-61068750D01*
X113726053Y-61047309D01*
X113729203Y-61026074D01*
X113734419Y-61005250D01*
X113741651Y-60985038D01*
X113750830Y-60965632D01*
X113761866Y-60947219D01*
X113774654Y-60929976D01*
X113789070Y-60914070D01*
X113804976Y-60899654D01*
X113822219Y-60886866D01*
X113840632Y-60875830D01*
X113860038Y-60866651D01*
X113880250Y-60859419D01*
X113901074Y-60854203D01*
X113922309Y-60851053D01*
X113943750Y-60850000D01*
X114456250Y-60850000D01*
X114477691Y-60851053D01*
X114477691Y-60851053D01*
G37*
D12*
X114200000Y-61287500D03*
D11*
G36*
X122277691Y-56001053D02*
G01*
X122298926Y-56004203D01*
X122319750Y-56009419D01*
X122339962Y-56016651D01*
X122359368Y-56025830D01*
X122377781Y-56036866D01*
X122395024Y-56049654D01*
X122410930Y-56064070D01*
X122425346Y-56079976D01*
X122438134Y-56097219D01*
X122449170Y-56115632D01*
X122458349Y-56135038D01*
X122465581Y-56155250D01*
X122470797Y-56176074D01*
X122473947Y-56197309D01*
X122475000Y-56218750D01*
X122475000Y-56656250D01*
X122473947Y-56677691D01*
X122470797Y-56698926D01*
X122465581Y-56719750D01*
X122458349Y-56739962D01*
X122449170Y-56759368D01*
X122438134Y-56777781D01*
X122425346Y-56795024D01*
X122410930Y-56810930D01*
X122395024Y-56825346D01*
X122377781Y-56838134D01*
X122359368Y-56849170D01*
X122339962Y-56858349D01*
X122319750Y-56865581D01*
X122298926Y-56870797D01*
X122277691Y-56873947D01*
X122256250Y-56875000D01*
X121743750Y-56875000D01*
X121722309Y-56873947D01*
X121701074Y-56870797D01*
X121680250Y-56865581D01*
X121660038Y-56858349D01*
X121640632Y-56849170D01*
X121622219Y-56838134D01*
X121604976Y-56825346D01*
X121589070Y-56810930D01*
X121574654Y-56795024D01*
X121561866Y-56777781D01*
X121550830Y-56759368D01*
X121541651Y-56739962D01*
X121534419Y-56719750D01*
X121529203Y-56698926D01*
X121526053Y-56677691D01*
X121525000Y-56656250D01*
X121525000Y-56218750D01*
X121526053Y-56197309D01*
X121529203Y-56176074D01*
X121534419Y-56155250D01*
X121541651Y-56135038D01*
X121550830Y-56115632D01*
X121561866Y-56097219D01*
X121574654Y-56079976D01*
X121589070Y-56064070D01*
X121604976Y-56049654D01*
X121622219Y-56036866D01*
X121640632Y-56025830D01*
X121660038Y-56016651D01*
X121680250Y-56009419D01*
X121701074Y-56004203D01*
X121722309Y-56001053D01*
X121743750Y-56000000D01*
X122256250Y-56000000D01*
X122277691Y-56001053D01*
X122277691Y-56001053D01*
G37*
D12*
X122000000Y-56437500D03*
D11*
G36*
X122277691Y-54426053D02*
G01*
X122298926Y-54429203D01*
X122319750Y-54434419D01*
X122339962Y-54441651D01*
X122359368Y-54450830D01*
X122377781Y-54461866D01*
X122395024Y-54474654D01*
X122410930Y-54489070D01*
X122425346Y-54504976D01*
X122438134Y-54522219D01*
X122449170Y-54540632D01*
X122458349Y-54560038D01*
X122465581Y-54580250D01*
X122470797Y-54601074D01*
X122473947Y-54622309D01*
X122475000Y-54643750D01*
X122475000Y-55081250D01*
X122473947Y-55102691D01*
X122470797Y-55123926D01*
X122465581Y-55144750D01*
X122458349Y-55164962D01*
X122449170Y-55184368D01*
X122438134Y-55202781D01*
X122425346Y-55220024D01*
X122410930Y-55235930D01*
X122395024Y-55250346D01*
X122377781Y-55263134D01*
X122359368Y-55274170D01*
X122339962Y-55283349D01*
X122319750Y-55290581D01*
X122298926Y-55295797D01*
X122277691Y-55298947D01*
X122256250Y-55300000D01*
X121743750Y-55300000D01*
X121722309Y-55298947D01*
X121701074Y-55295797D01*
X121680250Y-55290581D01*
X121660038Y-55283349D01*
X121640632Y-55274170D01*
X121622219Y-55263134D01*
X121604976Y-55250346D01*
X121589070Y-55235930D01*
X121574654Y-55220024D01*
X121561866Y-55202781D01*
X121550830Y-55184368D01*
X121541651Y-55164962D01*
X121534419Y-55144750D01*
X121529203Y-55123926D01*
X121526053Y-55102691D01*
X121525000Y-55081250D01*
X121525000Y-54643750D01*
X121526053Y-54622309D01*
X121529203Y-54601074D01*
X121534419Y-54580250D01*
X121541651Y-54560038D01*
X121550830Y-54540632D01*
X121561866Y-54522219D01*
X121574654Y-54504976D01*
X121589070Y-54489070D01*
X121604976Y-54474654D01*
X121622219Y-54461866D01*
X121640632Y-54450830D01*
X121660038Y-54441651D01*
X121680250Y-54434419D01*
X121701074Y-54429203D01*
X121722309Y-54426053D01*
X121743750Y-54425000D01*
X122256250Y-54425000D01*
X122277691Y-54426053D01*
X122277691Y-54426053D01*
G37*
D12*
X122000000Y-54862500D03*
D11*
G36*
X122127691Y-46851053D02*
G01*
X122148926Y-46854203D01*
X122169750Y-46859419D01*
X122189962Y-46866651D01*
X122209368Y-46875830D01*
X122227781Y-46886866D01*
X122245024Y-46899654D01*
X122260930Y-46914070D01*
X122275346Y-46929976D01*
X122288134Y-46947219D01*
X122299170Y-46965632D01*
X122308349Y-46985038D01*
X122315581Y-47005250D01*
X122320797Y-47026074D01*
X122323947Y-47047309D01*
X122325000Y-47068750D01*
X122325000Y-47506250D01*
X122323947Y-47527691D01*
X122320797Y-47548926D01*
X122315581Y-47569750D01*
X122308349Y-47589962D01*
X122299170Y-47609368D01*
X122288134Y-47627781D01*
X122275346Y-47645024D01*
X122260930Y-47660930D01*
X122245024Y-47675346D01*
X122227781Y-47688134D01*
X122209368Y-47699170D01*
X122189962Y-47708349D01*
X122169750Y-47715581D01*
X122148926Y-47720797D01*
X122127691Y-47723947D01*
X122106250Y-47725000D01*
X121593750Y-47725000D01*
X121572309Y-47723947D01*
X121551074Y-47720797D01*
X121530250Y-47715581D01*
X121510038Y-47708349D01*
X121490632Y-47699170D01*
X121472219Y-47688134D01*
X121454976Y-47675346D01*
X121439070Y-47660930D01*
X121424654Y-47645024D01*
X121411866Y-47627781D01*
X121400830Y-47609368D01*
X121391651Y-47589962D01*
X121384419Y-47569750D01*
X121379203Y-47548926D01*
X121376053Y-47527691D01*
X121375000Y-47506250D01*
X121375000Y-47068750D01*
X121376053Y-47047309D01*
X121379203Y-47026074D01*
X121384419Y-47005250D01*
X121391651Y-46985038D01*
X121400830Y-46965632D01*
X121411866Y-46947219D01*
X121424654Y-46929976D01*
X121439070Y-46914070D01*
X121454976Y-46899654D01*
X121472219Y-46886866D01*
X121490632Y-46875830D01*
X121510038Y-46866651D01*
X121530250Y-46859419D01*
X121551074Y-46854203D01*
X121572309Y-46851053D01*
X121593750Y-46850000D01*
X122106250Y-46850000D01*
X122127691Y-46851053D01*
X122127691Y-46851053D01*
G37*
D12*
X121850000Y-47287500D03*
D11*
G36*
X122127691Y-45276053D02*
G01*
X122148926Y-45279203D01*
X122169750Y-45284419D01*
X122189962Y-45291651D01*
X122209368Y-45300830D01*
X122227781Y-45311866D01*
X122245024Y-45324654D01*
X122260930Y-45339070D01*
X122275346Y-45354976D01*
X122288134Y-45372219D01*
X122299170Y-45390632D01*
X122308349Y-45410038D01*
X122315581Y-45430250D01*
X122320797Y-45451074D01*
X122323947Y-45472309D01*
X122325000Y-45493750D01*
X122325000Y-45931250D01*
X122323947Y-45952691D01*
X122320797Y-45973926D01*
X122315581Y-45994750D01*
X122308349Y-46014962D01*
X122299170Y-46034368D01*
X122288134Y-46052781D01*
X122275346Y-46070024D01*
X122260930Y-46085930D01*
X122245024Y-46100346D01*
X122227781Y-46113134D01*
X122209368Y-46124170D01*
X122189962Y-46133349D01*
X122169750Y-46140581D01*
X122148926Y-46145797D01*
X122127691Y-46148947D01*
X122106250Y-46150000D01*
X121593750Y-46150000D01*
X121572309Y-46148947D01*
X121551074Y-46145797D01*
X121530250Y-46140581D01*
X121510038Y-46133349D01*
X121490632Y-46124170D01*
X121472219Y-46113134D01*
X121454976Y-46100346D01*
X121439070Y-46085930D01*
X121424654Y-46070024D01*
X121411866Y-46052781D01*
X121400830Y-46034368D01*
X121391651Y-46014962D01*
X121384419Y-45994750D01*
X121379203Y-45973926D01*
X121376053Y-45952691D01*
X121375000Y-45931250D01*
X121375000Y-45493750D01*
X121376053Y-45472309D01*
X121379203Y-45451074D01*
X121384419Y-45430250D01*
X121391651Y-45410038D01*
X121400830Y-45390632D01*
X121411866Y-45372219D01*
X121424654Y-45354976D01*
X121439070Y-45339070D01*
X121454976Y-45324654D01*
X121472219Y-45311866D01*
X121490632Y-45300830D01*
X121510038Y-45291651D01*
X121530250Y-45284419D01*
X121551074Y-45279203D01*
X121572309Y-45276053D01*
X121593750Y-45275000D01*
X122106250Y-45275000D01*
X122127691Y-45276053D01*
X122127691Y-45276053D01*
G37*
D12*
X121850000Y-45712500D03*
D23*
X124250000Y-61000000D03*
X124250000Y-29500000D03*
X49500000Y-29500000D03*
X49500000Y-61000000D03*
D24*
X72950000Y-55250000D02*
X76750000Y-55250000D01*
X76750000Y-50130000D02*
X84840000Y-42040000D01*
X76750000Y-55250000D02*
X76750000Y-50130000D01*
D25*
X63250000Y-30287500D02*
X60037500Y-33500000D01*
X63250000Y-29750000D02*
X63250000Y-30287500D01*
D24*
X63250000Y-29750000D02*
X63250000Y-32500000D01*
X63250000Y-32500000D02*
X63750000Y-33000000D01*
X63750000Y-33000000D02*
X71000000Y-33000000D01*
X76750000Y-46000000D02*
X76750000Y-50130000D01*
X72750000Y-34750000D02*
X72750000Y-42000000D01*
X71000000Y-33000000D02*
X72750000Y-34750000D01*
X72750000Y-42000000D02*
X76750000Y-46000000D01*
X105160000Y-55340000D02*
X102750000Y-57750000D01*
X105160000Y-53840000D02*
X105160000Y-55340000D01*
X105160000Y-49660000D02*
X105160000Y-53840000D01*
D26*
X106600000Y-54600000D02*
X108912500Y-54600000D01*
X105160000Y-53840000D02*
X105840000Y-53840000D01*
X105840000Y-53840000D02*
X106600000Y-54600000D01*
D24*
X104887500Y-57750000D02*
X106750000Y-59612500D01*
X104150000Y-57750000D02*
X104887500Y-57750000D01*
X104150000Y-57750000D02*
X106000000Y-57750000D01*
X102750000Y-57750000D02*
X104150000Y-57750000D01*
X107612500Y-59612500D02*
X108500000Y-60500000D01*
X106750000Y-59612500D02*
X107612500Y-59612500D01*
X112237500Y-57750000D02*
X114200000Y-59712500D01*
X111550000Y-57750000D02*
X112237500Y-57750000D01*
X106000000Y-57750000D02*
X111550000Y-57750000D01*
X115212500Y-59712500D02*
X116000000Y-60500000D01*
X114200000Y-59712500D02*
X115212500Y-59712500D01*
X120537500Y-54862500D02*
X122000000Y-54862500D01*
X111550000Y-57750000D02*
X117650000Y-57750000D01*
X117650000Y-57750000D02*
X120537500Y-54862500D01*
X124087500Y-54862500D02*
X124100001Y-54849999D01*
X122000000Y-54862500D02*
X124087500Y-54862500D01*
X120537500Y-54862500D02*
X121550000Y-53850000D01*
X121550000Y-53850000D02*
X121350000Y-53650000D01*
X121350000Y-47787500D02*
X121850000Y-47287500D01*
X121350000Y-53650000D02*
X121350000Y-47787500D01*
X124087501Y-47287500D02*
X124100001Y-47300000D01*
X121850000Y-47287500D02*
X124087501Y-47287500D01*
D26*
X63250000Y-42000000D02*
X63250000Y-38250000D01*
D25*
X52189999Y-35649999D02*
X51290000Y-34750000D01*
X53578388Y-37038388D02*
X52189999Y-35649999D01*
X57250888Y-37038388D02*
X53578388Y-37038388D01*
X57712500Y-37500000D02*
X57250888Y-37038388D01*
X58462500Y-33500000D02*
X56290000Y-33500000D01*
D26*
X110487500Y-54600000D02*
X112660000Y-54600000D01*
D25*
X65750000Y-29750000D02*
X73000000Y-29750000D01*
X75170000Y-29750000D02*
X75220000Y-29800000D01*
X73000000Y-29750000D02*
X75170000Y-29750000D01*
X65750000Y-29250000D02*
X65750000Y-29750000D01*
X64000000Y-27500000D02*
X65750000Y-29250000D01*
X61287500Y-27500000D02*
X64000000Y-27500000D01*
X60037500Y-28750000D02*
X61287500Y-27500000D01*
X81700000Y-29800000D02*
X81750000Y-29750000D01*
X79780000Y-29800000D02*
X81700000Y-29800000D01*
X81750000Y-29750000D02*
X83250000Y-29750000D01*
X84430000Y-29750000D02*
X84840000Y-29340000D01*
X83250000Y-29750000D02*
X84430000Y-29750000D01*
X86750000Y-31250000D02*
X86750000Y-46962500D01*
X84840000Y-29340000D02*
X86750000Y-31250000D01*
X56290000Y-28750000D02*
X58462500Y-28750000D01*
X86750000Y-54290000D02*
X86040000Y-55000000D01*
X86750000Y-48537500D02*
X86750000Y-54290000D01*
D27*
G36*
X59468002Y-27714367D02*
G01*
X59342725Y-27781329D01*
X59250000Y-27857426D01*
X59157275Y-27781329D01*
X59009142Y-27702150D01*
X58848408Y-27653392D01*
X58713674Y-27640122D01*
X58684999Y-27631423D01*
X58518252Y-27615000D01*
X57325817Y-27615000D01*
X57268505Y-27557688D01*
X57017095Y-27389701D01*
X56737743Y-27273989D01*
X56441184Y-27215000D01*
X56138816Y-27215000D01*
X55842257Y-27273989D01*
X55562905Y-27389701D01*
X55311495Y-27557688D01*
X55097688Y-27771495D01*
X54929701Y-28022905D01*
X54813989Y-28302257D01*
X54755000Y-28598816D01*
X54755000Y-28901184D01*
X54813989Y-29197743D01*
X54929701Y-29477095D01*
X55097688Y-29728505D01*
X55311495Y-29942312D01*
X55562905Y-30110299D01*
X55842257Y-30226011D01*
X56138816Y-30285000D01*
X56441184Y-30285000D01*
X56737743Y-30226011D01*
X57017095Y-30110299D01*
X57268505Y-29942312D01*
X57325817Y-29885000D01*
X58518252Y-29885000D01*
X58684999Y-29868577D01*
X58713674Y-29859878D01*
X58848408Y-29846608D01*
X59009142Y-29797850D01*
X59157275Y-29718671D01*
X59250000Y-29642574D01*
X59342725Y-29718671D01*
X59490858Y-29797850D01*
X59651592Y-29846608D01*
X59786327Y-29859879D01*
X59815002Y-29868577D01*
X60037500Y-29890491D01*
X60259998Y-29868577D01*
X60288673Y-29859879D01*
X60423408Y-29846608D01*
X60584142Y-29797850D01*
X60732275Y-29718671D01*
X60862115Y-29612115D01*
X60968671Y-29482275D01*
X61035633Y-29356998D01*
X61757632Y-28635000D01*
X62008290Y-28635000D01*
X61964236Y-28717419D01*
X61885040Y-28978493D01*
X61865000Y-29181963D01*
X61865000Y-30067368D01*
X59468002Y-32464367D01*
X59342725Y-32531329D01*
X59250000Y-32607426D01*
X59157275Y-32531329D01*
X59009142Y-32452150D01*
X58848408Y-32403392D01*
X58713674Y-32390122D01*
X58684999Y-32381423D01*
X58518252Y-32365000D01*
X57325817Y-32365000D01*
X57268505Y-32307688D01*
X57017095Y-32139701D01*
X56737743Y-32023989D01*
X56441184Y-31965000D01*
X56138816Y-31965000D01*
X55842257Y-32023989D01*
X55562905Y-32139701D01*
X55311495Y-32307688D01*
X55097688Y-32521495D01*
X54929701Y-32772905D01*
X54813989Y-33052257D01*
X54755000Y-33348816D01*
X54755000Y-33651184D01*
X54813989Y-33947743D01*
X54929701Y-34227095D01*
X55097688Y-34478505D01*
X55311495Y-34692312D01*
X55562905Y-34860299D01*
X55842257Y-34976011D01*
X56138816Y-35035000D01*
X56441184Y-35035000D01*
X56737743Y-34976011D01*
X57017095Y-34860299D01*
X57268505Y-34692312D01*
X57325817Y-34635000D01*
X58518252Y-34635000D01*
X58684999Y-34618577D01*
X58713674Y-34609878D01*
X58848408Y-34596608D01*
X59009142Y-34547850D01*
X59157275Y-34468671D01*
X59250000Y-34392574D01*
X59342725Y-34468671D01*
X59490858Y-34547850D01*
X59651592Y-34596608D01*
X59786327Y-34609879D01*
X59815002Y-34618577D01*
X60037500Y-34640491D01*
X60259998Y-34618577D01*
X60288673Y-34609879D01*
X60423408Y-34596608D01*
X60584142Y-34547850D01*
X60732275Y-34468671D01*
X60862115Y-34362115D01*
X60968671Y-34232275D01*
X61035633Y-34106998D01*
X62015027Y-33127604D01*
X62092844Y-33273188D01*
X62222548Y-33431233D01*
X62222551Y-33431236D01*
X62265920Y-33484081D01*
X62318765Y-33527450D01*
X62722546Y-33931231D01*
X62765919Y-33984081D01*
X62976812Y-34157157D01*
X63217419Y-34285764D01*
X63478493Y-34364960D01*
X63681963Y-34385000D01*
X63681971Y-34385000D01*
X63750000Y-34391700D01*
X63818029Y-34385000D01*
X70426315Y-34385000D01*
X71365000Y-35323686D01*
X71365001Y-41931961D01*
X71358300Y-42000000D01*
X71385040Y-42271507D01*
X71464236Y-42532580D01*
X71592844Y-42773188D01*
X71722548Y-42931233D01*
X71722551Y-42931236D01*
X71765920Y-42984081D01*
X71818764Y-43027449D01*
X75365000Y-46573686D01*
X75365001Y-50061961D01*
X75358300Y-50130000D01*
X75365001Y-50198037D01*
X75365000Y-53011928D01*
X70500000Y-53011928D01*
X70385000Y-53023254D01*
X70385000Y-36750000D01*
X70372799Y-36626118D01*
X70336664Y-36506996D01*
X70277983Y-36397213D01*
X70199013Y-36300987D01*
X70102787Y-36222017D01*
X69993004Y-36163336D01*
X69873882Y-36127201D01*
X69750000Y-36115000D01*
X58500000Y-36115000D01*
X58376118Y-36127201D01*
X58256996Y-36163336D01*
X58147213Y-36222017D01*
X58088642Y-36270084D01*
X58057337Y-36231939D01*
X57884511Y-36090104D01*
X57687335Y-35984712D01*
X57473387Y-35919811D01*
X57306640Y-35903388D01*
X57306639Y-35903388D01*
X57250888Y-35897897D01*
X57195137Y-35903388D01*
X54048520Y-35903388D01*
X53031991Y-34886860D01*
X53031987Y-34886855D01*
X52825000Y-34679868D01*
X52825000Y-34598816D01*
X52766011Y-34302257D01*
X52650299Y-34022905D01*
X52482312Y-33771495D01*
X52268505Y-33557688D01*
X52017095Y-33389701D01*
X51737743Y-33273989D01*
X51441184Y-33215000D01*
X51138816Y-33215000D01*
X50842257Y-33273989D01*
X50562905Y-33389701D01*
X50311495Y-33557688D01*
X50097688Y-33771495D01*
X49929701Y-34022905D01*
X49813989Y-34302257D01*
X49755000Y-34598816D01*
X49755000Y-34901184D01*
X49813989Y-35197743D01*
X49929701Y-35477095D01*
X50097688Y-35728505D01*
X50311495Y-35942312D01*
X50562905Y-36110299D01*
X50842257Y-36226011D01*
X51138816Y-36285000D01*
X51219868Y-36285000D01*
X51426855Y-36491987D01*
X51426860Y-36491991D01*
X52736401Y-37801534D01*
X52771939Y-37844837D01*
X52815242Y-37880375D01*
X52815244Y-37880377D01*
X52944765Y-37986672D01*
X53141941Y-38092064D01*
X53355889Y-38156965D01*
X53578388Y-38178879D01*
X53634140Y-38173388D01*
X56749853Y-38173388D01*
X56781329Y-38232275D01*
X56887885Y-38362115D01*
X57017725Y-38468671D01*
X57165858Y-38547850D01*
X57326592Y-38596608D01*
X57461326Y-38609878D01*
X57490001Y-38618577D01*
X57712500Y-38640491D01*
X57865000Y-38625471D01*
X57865000Y-57500000D01*
X57877201Y-57623882D01*
X57913336Y-57743004D01*
X57972017Y-57852787D01*
X58050987Y-57949013D01*
X58147213Y-58027983D01*
X58256996Y-58086664D01*
X58376118Y-58122799D01*
X58500000Y-58135000D01*
X69750000Y-58135000D01*
X69873882Y-58122799D01*
X69993004Y-58086664D01*
X70102787Y-58027983D01*
X70199013Y-57949013D01*
X70277983Y-57852787D01*
X70336664Y-57743004D01*
X70372799Y-57623882D01*
X70385000Y-57500000D01*
X70385000Y-57476746D01*
X70500000Y-57488072D01*
X75400000Y-57488072D01*
X75524482Y-57475812D01*
X75644180Y-57439502D01*
X75754494Y-57380537D01*
X75851185Y-57301185D01*
X75930537Y-57204494D01*
X75989502Y-57094180D01*
X76025812Y-56974482D01*
X76038072Y-56850000D01*
X76038072Y-56635000D01*
X76357301Y-56635000D01*
X76608665Y-56685000D01*
X76891335Y-56685000D01*
X77168574Y-56629853D01*
X77429727Y-56521680D01*
X77664759Y-56364637D01*
X77864637Y-56164759D01*
X78021680Y-55929727D01*
X78129853Y-55668574D01*
X78185000Y-55391335D01*
X78185000Y-55108665D01*
X78135000Y-54857301D01*
X78135000Y-50703685D01*
X85615001Y-43223685D01*
X85615001Y-47018252D01*
X85631424Y-47184999D01*
X85640121Y-47213669D01*
X85653392Y-47348408D01*
X85702150Y-47509142D01*
X85781329Y-47657275D01*
X85857426Y-47750000D01*
X85781329Y-47842725D01*
X85702150Y-47990858D01*
X85653392Y-48151592D01*
X85640121Y-48286327D01*
X85631423Y-48315002D01*
X85615000Y-48481749D01*
X85615001Y-53519465D01*
X85592257Y-53523989D01*
X85312905Y-53639701D01*
X85061495Y-53807688D01*
X84847688Y-54021495D01*
X84679701Y-54272905D01*
X84563989Y-54552257D01*
X84505000Y-54848816D01*
X84505000Y-55151184D01*
X84563989Y-55447743D01*
X84679701Y-55727095D01*
X84847688Y-55978505D01*
X85061495Y-56192312D01*
X85312905Y-56360299D01*
X85592257Y-56476011D01*
X85888816Y-56535000D01*
X86191184Y-56535000D01*
X86487743Y-56476011D01*
X86767095Y-56360299D01*
X87018505Y-56192312D01*
X87232312Y-55978505D01*
X87400299Y-55727095D01*
X87516011Y-55447743D01*
X87575000Y-55151184D01*
X87575000Y-55073845D01*
X87698284Y-54923623D01*
X87803676Y-54726447D01*
X87868577Y-54512499D01*
X87885000Y-54345752D01*
X87890491Y-54290000D01*
X87885000Y-54234248D01*
X87885000Y-48481748D01*
X87868577Y-48315001D01*
X87859878Y-48286326D01*
X87846608Y-48151592D01*
X87797850Y-47990858D01*
X87718671Y-47842725D01*
X87642574Y-47750000D01*
X87718671Y-47657275D01*
X87797850Y-47509142D01*
X87846608Y-47348408D01*
X87859878Y-47213674D01*
X87868577Y-47184999D01*
X87885000Y-47018252D01*
X87885000Y-31305751D01*
X87890491Y-31250000D01*
X87868577Y-31027501D01*
X87803676Y-30813553D01*
X87698284Y-30616377D01*
X87620425Y-30521506D01*
X87556449Y-30443551D01*
X87513141Y-30408009D01*
X86219485Y-29114354D01*
X86183314Y-28932510D01*
X86078005Y-28678273D01*
X85925120Y-28449465D01*
X85730535Y-28254880D01*
X85501727Y-28101995D01*
X85247490Y-27996686D01*
X84977592Y-27943000D01*
X84702408Y-27943000D01*
X84432510Y-27996686D01*
X84178273Y-28101995D01*
X83949465Y-28254880D01*
X83754880Y-28449465D01*
X83644273Y-28615000D01*
X81805752Y-28615000D01*
X81750000Y-28609509D01*
X81694249Y-28615000D01*
X81694248Y-28615000D01*
X81527501Y-28631423D01*
X81416813Y-28665000D01*
X81014625Y-28665000D01*
X81005812Y-28575518D01*
X80969502Y-28455820D01*
X80910537Y-28345506D01*
X80831185Y-28248815D01*
X80734494Y-28169463D01*
X80624180Y-28110498D01*
X80504482Y-28074188D01*
X80380000Y-28061928D01*
X79180000Y-28061928D01*
X79055518Y-28074188D01*
X78935820Y-28110498D01*
X78825506Y-28169463D01*
X78728815Y-28248815D01*
X78649463Y-28345506D01*
X78590498Y-28455820D01*
X78554188Y-28575518D01*
X78541928Y-28700000D01*
X78541928Y-30900000D01*
X78554188Y-31024482D01*
X78590498Y-31144180D01*
X78649463Y-31254494D01*
X78728815Y-31351185D01*
X78825506Y-31430537D01*
X78935820Y-31489502D01*
X79055518Y-31525812D01*
X79180000Y-31538072D01*
X80380000Y-31538072D01*
X80504482Y-31525812D01*
X80624180Y-31489502D01*
X80734494Y-31430537D01*
X80831185Y-31351185D01*
X80910537Y-31254494D01*
X80969502Y-31144180D01*
X81005812Y-31024482D01*
X81014625Y-30935000D01*
X81644249Y-30935000D01*
X81700000Y-30940491D01*
X81755751Y-30935000D01*
X81755752Y-30935000D01*
X81922499Y-30918577D01*
X82033187Y-30885000D01*
X84374249Y-30885000D01*
X84430000Y-30890491D01*
X84485751Y-30885000D01*
X84485752Y-30885000D01*
X84652499Y-30868577D01*
X84737623Y-30842755D01*
X85615000Y-31720132D01*
X85615001Y-40877682D01*
X85501727Y-40801995D01*
X85247490Y-40696686D01*
X84977592Y-40643000D01*
X84702408Y-40643000D01*
X84432510Y-40696686D01*
X84178273Y-40801995D01*
X83949465Y-40954880D01*
X83754880Y-41149465D01*
X83720710Y-41200604D01*
X78135000Y-46786315D01*
X78135000Y-46068026D01*
X78141700Y-45999999D01*
X78135000Y-45931972D01*
X78135000Y-45931963D01*
X78114960Y-45728493D01*
X78035764Y-45467419D01*
X77907157Y-45226812D01*
X77814579Y-45114006D01*
X77777452Y-45068766D01*
X77777445Y-45068759D01*
X77734080Y-45015919D01*
X77681241Y-44972555D01*
X74135000Y-41426315D01*
X74135000Y-34818029D01*
X74141700Y-34750000D01*
X74135000Y-34681971D01*
X74135000Y-34681963D01*
X74114960Y-34478493D01*
X74035764Y-34217419D01*
X73907157Y-33976812D01*
X73777452Y-33818766D01*
X73777445Y-33818759D01*
X73734080Y-33765919D01*
X73681241Y-33722555D01*
X72027452Y-32068767D01*
X71984081Y-32015919D01*
X71773188Y-31842843D01*
X71532581Y-31714236D01*
X71271507Y-31635040D01*
X71068037Y-31615000D01*
X71068029Y-31615000D01*
X71000000Y-31608300D01*
X70931971Y-31615000D01*
X66021100Y-31615000D01*
X66021506Y-31614960D01*
X66282580Y-31535764D01*
X66523187Y-31407157D01*
X66734080Y-31234081D01*
X66907157Y-31023188D01*
X66981020Y-30885000D01*
X73981928Y-30885000D01*
X73981928Y-30900000D01*
X73994188Y-31024482D01*
X74030498Y-31144180D01*
X74089463Y-31254494D01*
X74168815Y-31351185D01*
X74265506Y-31430537D01*
X74375820Y-31489502D01*
X74495518Y-31525812D01*
X74620000Y-31538072D01*
X75820000Y-31538072D01*
X75944482Y-31525812D01*
X76064180Y-31489502D01*
X76174494Y-31430537D01*
X76271185Y-31351185D01*
X76350537Y-31254494D01*
X76409502Y-31144180D01*
X76445812Y-31024482D01*
X76458072Y-30900000D01*
X76458072Y-28700000D01*
X76445812Y-28575518D01*
X76409502Y-28455820D01*
X76350537Y-28345506D01*
X76271185Y-28248815D01*
X76174494Y-28169463D01*
X76064180Y-28110498D01*
X75944482Y-28074188D01*
X75820000Y-28061928D01*
X74620000Y-28061928D01*
X74495518Y-28074188D01*
X74375820Y-28110498D01*
X74265506Y-28169463D01*
X74168815Y-28248815D01*
X74089463Y-28345506D01*
X74030498Y-28455820D01*
X73994188Y-28575518D01*
X73990299Y-28615000D01*
X66981020Y-28615000D01*
X66907157Y-28476812D01*
X66734081Y-28265919D01*
X66523188Y-28092843D01*
X66282581Y-27964236D01*
X66021507Y-27885040D01*
X65986749Y-27881617D01*
X65265132Y-27160000D01*
X88873000Y-27160000D01*
X88873000Y-63340000D01*
X52300666Y-63340000D01*
X52323489Y-63317177D01*
X52721295Y-62721818D01*
X52995309Y-62060290D01*
X53135000Y-61358016D01*
X53135000Y-60641984D01*
X52995309Y-59939710D01*
X52721295Y-59278182D01*
X52323489Y-58682823D01*
X51817177Y-58176511D01*
X51221818Y-57778705D01*
X50560290Y-57504691D01*
X49858016Y-57365000D01*
X49141984Y-57365000D01*
X48439710Y-57504691D01*
X47778182Y-57778705D01*
X47182823Y-58176511D01*
X47160000Y-58199334D01*
X47160000Y-32300666D01*
X47182823Y-32323489D01*
X47778182Y-32721295D01*
X48439710Y-32995309D01*
X49141984Y-33135000D01*
X49858016Y-33135000D01*
X50560290Y-32995309D01*
X51221818Y-32721295D01*
X51817177Y-32323489D01*
X52323489Y-31817177D01*
X52721295Y-31221818D01*
X52995309Y-30560290D01*
X53135000Y-29858016D01*
X53135000Y-29141984D01*
X52995309Y-28439710D01*
X52721295Y-27778182D01*
X52323489Y-27182823D01*
X52300666Y-27160000D01*
X60022368Y-27160000D01*
X59468002Y-27714367D01*
X59468002Y-27714367D01*
G37*
X59468002Y-27714367D02*
X59342725Y-27781329D01*
X59250000Y-27857426D01*
X59157275Y-27781329D01*
X59009142Y-27702150D01*
X58848408Y-27653392D01*
X58713674Y-27640122D01*
X58684999Y-27631423D01*
X58518252Y-27615000D01*
X57325817Y-27615000D01*
X57268505Y-27557688D01*
X57017095Y-27389701D01*
X56737743Y-27273989D01*
X56441184Y-27215000D01*
X56138816Y-27215000D01*
X55842257Y-27273989D01*
X55562905Y-27389701D01*
X55311495Y-27557688D01*
X55097688Y-27771495D01*
X54929701Y-28022905D01*
X54813989Y-28302257D01*
X54755000Y-28598816D01*
X54755000Y-28901184D01*
X54813989Y-29197743D01*
X54929701Y-29477095D01*
X55097688Y-29728505D01*
X55311495Y-29942312D01*
X55562905Y-30110299D01*
X55842257Y-30226011D01*
X56138816Y-30285000D01*
X56441184Y-30285000D01*
X56737743Y-30226011D01*
X57017095Y-30110299D01*
X57268505Y-29942312D01*
X57325817Y-29885000D01*
X58518252Y-29885000D01*
X58684999Y-29868577D01*
X58713674Y-29859878D01*
X58848408Y-29846608D01*
X59009142Y-29797850D01*
X59157275Y-29718671D01*
X59250000Y-29642574D01*
X59342725Y-29718671D01*
X59490858Y-29797850D01*
X59651592Y-29846608D01*
X59786327Y-29859879D01*
X59815002Y-29868577D01*
X60037500Y-29890491D01*
X60259998Y-29868577D01*
X60288673Y-29859879D01*
X60423408Y-29846608D01*
X60584142Y-29797850D01*
X60732275Y-29718671D01*
X60862115Y-29612115D01*
X60968671Y-29482275D01*
X61035633Y-29356998D01*
X61757632Y-28635000D01*
X62008290Y-28635000D01*
X61964236Y-28717419D01*
X61885040Y-28978493D01*
X61865000Y-29181963D01*
X61865000Y-30067368D01*
X59468002Y-32464367D01*
X59342725Y-32531329D01*
X59250000Y-32607426D01*
X59157275Y-32531329D01*
X59009142Y-32452150D01*
X58848408Y-32403392D01*
X58713674Y-32390122D01*
X58684999Y-32381423D01*
X58518252Y-32365000D01*
X57325817Y-32365000D01*
X57268505Y-32307688D01*
X57017095Y-32139701D01*
X56737743Y-32023989D01*
X56441184Y-31965000D01*
X56138816Y-31965000D01*
X55842257Y-32023989D01*
X55562905Y-32139701D01*
X55311495Y-32307688D01*
X55097688Y-32521495D01*
X54929701Y-32772905D01*
X54813989Y-33052257D01*
X54755000Y-33348816D01*
X54755000Y-33651184D01*
X54813989Y-33947743D01*
X54929701Y-34227095D01*
X55097688Y-34478505D01*
X55311495Y-34692312D01*
X55562905Y-34860299D01*
X55842257Y-34976011D01*
X56138816Y-35035000D01*
X56441184Y-35035000D01*
X56737743Y-34976011D01*
X57017095Y-34860299D01*
X57268505Y-34692312D01*
X57325817Y-34635000D01*
X58518252Y-34635000D01*
X58684999Y-34618577D01*
X58713674Y-34609878D01*
X58848408Y-34596608D01*
X59009142Y-34547850D01*
X59157275Y-34468671D01*
X59250000Y-34392574D01*
X59342725Y-34468671D01*
X59490858Y-34547850D01*
X59651592Y-34596608D01*
X59786327Y-34609879D01*
X59815002Y-34618577D01*
X60037500Y-34640491D01*
X60259998Y-34618577D01*
X60288673Y-34609879D01*
X60423408Y-34596608D01*
X60584142Y-34547850D01*
X60732275Y-34468671D01*
X60862115Y-34362115D01*
X60968671Y-34232275D01*
X61035633Y-34106998D01*
X62015027Y-33127604D01*
X62092844Y-33273188D01*
X62222548Y-33431233D01*
X62222551Y-33431236D01*
X62265920Y-33484081D01*
X62318765Y-33527450D01*
X62722546Y-33931231D01*
X62765919Y-33984081D01*
X62976812Y-34157157D01*
X63217419Y-34285764D01*
X63478493Y-34364960D01*
X63681963Y-34385000D01*
X63681971Y-34385000D01*
X63750000Y-34391700D01*
X63818029Y-34385000D01*
X70426315Y-34385000D01*
X71365000Y-35323686D01*
X71365001Y-41931961D01*
X71358300Y-42000000D01*
X71385040Y-42271507D01*
X71464236Y-42532580D01*
X71592844Y-42773188D01*
X71722548Y-42931233D01*
X71722551Y-42931236D01*
X71765920Y-42984081D01*
X71818764Y-43027449D01*
X75365000Y-46573686D01*
X75365001Y-50061961D01*
X75358300Y-50130000D01*
X75365001Y-50198037D01*
X75365000Y-53011928D01*
X70500000Y-53011928D01*
X70385000Y-53023254D01*
X70385000Y-36750000D01*
X70372799Y-36626118D01*
X70336664Y-36506996D01*
X70277983Y-36397213D01*
X70199013Y-36300987D01*
X70102787Y-36222017D01*
X69993004Y-36163336D01*
X69873882Y-36127201D01*
X69750000Y-36115000D01*
X58500000Y-36115000D01*
X58376118Y-36127201D01*
X58256996Y-36163336D01*
X58147213Y-36222017D01*
X58088642Y-36270084D01*
X58057337Y-36231939D01*
X57884511Y-36090104D01*
X57687335Y-35984712D01*
X57473387Y-35919811D01*
X57306640Y-35903388D01*
X57306639Y-35903388D01*
X57250888Y-35897897D01*
X57195137Y-35903388D01*
X54048520Y-35903388D01*
X53031991Y-34886860D01*
X53031987Y-34886855D01*
X52825000Y-34679868D01*
X52825000Y-34598816D01*
X52766011Y-34302257D01*
X52650299Y-34022905D01*
X52482312Y-33771495D01*
X52268505Y-33557688D01*
X52017095Y-33389701D01*
X51737743Y-33273989D01*
X51441184Y-33215000D01*
X51138816Y-33215000D01*
X50842257Y-33273989D01*
X50562905Y-33389701D01*
X50311495Y-33557688D01*
X50097688Y-33771495D01*
X49929701Y-34022905D01*
X49813989Y-34302257D01*
X49755000Y-34598816D01*
X49755000Y-34901184D01*
X49813989Y-35197743D01*
X49929701Y-35477095D01*
X50097688Y-35728505D01*
X50311495Y-35942312D01*
X50562905Y-36110299D01*
X50842257Y-36226011D01*
X51138816Y-36285000D01*
X51219868Y-36285000D01*
X51426855Y-36491987D01*
X51426860Y-36491991D01*
X52736401Y-37801534D01*
X52771939Y-37844837D01*
X52815242Y-37880375D01*
X52815244Y-37880377D01*
X52944765Y-37986672D01*
X53141941Y-38092064D01*
X53355889Y-38156965D01*
X53578388Y-38178879D01*
X53634140Y-38173388D01*
X56749853Y-38173388D01*
X56781329Y-38232275D01*
X56887885Y-38362115D01*
X57017725Y-38468671D01*
X57165858Y-38547850D01*
X57326592Y-38596608D01*
X57461326Y-38609878D01*
X57490001Y-38618577D01*
X57712500Y-38640491D01*
X57865000Y-38625471D01*
X57865000Y-57500000D01*
X57877201Y-57623882D01*
X57913336Y-57743004D01*
X57972017Y-57852787D01*
X58050987Y-57949013D01*
X58147213Y-58027983D01*
X58256996Y-58086664D01*
X58376118Y-58122799D01*
X58500000Y-58135000D01*
X69750000Y-58135000D01*
X69873882Y-58122799D01*
X69993004Y-58086664D01*
X70102787Y-58027983D01*
X70199013Y-57949013D01*
X70277983Y-57852787D01*
X70336664Y-57743004D01*
X70372799Y-57623882D01*
X70385000Y-57500000D01*
X70385000Y-57476746D01*
X70500000Y-57488072D01*
X75400000Y-57488072D01*
X75524482Y-57475812D01*
X75644180Y-57439502D01*
X75754494Y-57380537D01*
X75851185Y-57301185D01*
X75930537Y-57204494D01*
X75989502Y-57094180D01*
X76025812Y-56974482D01*
X76038072Y-56850000D01*
X76038072Y-56635000D01*
X76357301Y-56635000D01*
X76608665Y-56685000D01*
X76891335Y-56685000D01*
X77168574Y-56629853D01*
X77429727Y-56521680D01*
X77664759Y-56364637D01*
X77864637Y-56164759D01*
X78021680Y-55929727D01*
X78129853Y-55668574D01*
X78185000Y-55391335D01*
X78185000Y-55108665D01*
X78135000Y-54857301D01*
X78135000Y-50703685D01*
X85615001Y-43223685D01*
X85615001Y-47018252D01*
X85631424Y-47184999D01*
X85640121Y-47213669D01*
X85653392Y-47348408D01*
X85702150Y-47509142D01*
X85781329Y-47657275D01*
X85857426Y-47750000D01*
X85781329Y-47842725D01*
X85702150Y-47990858D01*
X85653392Y-48151592D01*
X85640121Y-48286327D01*
X85631423Y-48315002D01*
X85615000Y-48481749D01*
X85615001Y-53519465D01*
X85592257Y-53523989D01*
X85312905Y-53639701D01*
X85061495Y-53807688D01*
X84847688Y-54021495D01*
X84679701Y-54272905D01*
X84563989Y-54552257D01*
X84505000Y-54848816D01*
X84505000Y-55151184D01*
X84563989Y-55447743D01*
X84679701Y-55727095D01*
X84847688Y-55978505D01*
X85061495Y-56192312D01*
X85312905Y-56360299D01*
X85592257Y-56476011D01*
X85888816Y-56535000D01*
X86191184Y-56535000D01*
X86487743Y-56476011D01*
X86767095Y-56360299D01*
X87018505Y-56192312D01*
X87232312Y-55978505D01*
X87400299Y-55727095D01*
X87516011Y-55447743D01*
X87575000Y-55151184D01*
X87575000Y-55073845D01*
X87698284Y-54923623D01*
X87803676Y-54726447D01*
X87868577Y-54512499D01*
X87885000Y-54345752D01*
X87890491Y-54290000D01*
X87885000Y-54234248D01*
X87885000Y-48481748D01*
X87868577Y-48315001D01*
X87859878Y-48286326D01*
X87846608Y-48151592D01*
X87797850Y-47990858D01*
X87718671Y-47842725D01*
X87642574Y-47750000D01*
X87718671Y-47657275D01*
X87797850Y-47509142D01*
X87846608Y-47348408D01*
X87859878Y-47213674D01*
X87868577Y-47184999D01*
X87885000Y-47018252D01*
X87885000Y-31305751D01*
X87890491Y-31250000D01*
X87868577Y-31027501D01*
X87803676Y-30813553D01*
X87698284Y-30616377D01*
X87620425Y-30521506D01*
X87556449Y-30443551D01*
X87513141Y-30408009D01*
X86219485Y-29114354D01*
X86183314Y-28932510D01*
X86078005Y-28678273D01*
X85925120Y-28449465D01*
X85730535Y-28254880D01*
X85501727Y-28101995D01*
X85247490Y-27996686D01*
X84977592Y-27943000D01*
X84702408Y-27943000D01*
X84432510Y-27996686D01*
X84178273Y-28101995D01*
X83949465Y-28254880D01*
X83754880Y-28449465D01*
X83644273Y-28615000D01*
X81805752Y-28615000D01*
X81750000Y-28609509D01*
X81694249Y-28615000D01*
X81694248Y-28615000D01*
X81527501Y-28631423D01*
X81416813Y-28665000D01*
X81014625Y-28665000D01*
X81005812Y-28575518D01*
X80969502Y-28455820D01*
X80910537Y-28345506D01*
X80831185Y-28248815D01*
X80734494Y-28169463D01*
X80624180Y-28110498D01*
X80504482Y-28074188D01*
X80380000Y-28061928D01*
X79180000Y-28061928D01*
X79055518Y-28074188D01*
X78935820Y-28110498D01*
X78825506Y-28169463D01*
X78728815Y-28248815D01*
X78649463Y-28345506D01*
X78590498Y-28455820D01*
X78554188Y-28575518D01*
X78541928Y-28700000D01*
X78541928Y-30900000D01*
X78554188Y-31024482D01*
X78590498Y-31144180D01*
X78649463Y-31254494D01*
X78728815Y-31351185D01*
X78825506Y-31430537D01*
X78935820Y-31489502D01*
X79055518Y-31525812D01*
X79180000Y-31538072D01*
X80380000Y-31538072D01*
X80504482Y-31525812D01*
X80624180Y-31489502D01*
X80734494Y-31430537D01*
X80831185Y-31351185D01*
X80910537Y-31254494D01*
X80969502Y-31144180D01*
X81005812Y-31024482D01*
X81014625Y-30935000D01*
X81644249Y-30935000D01*
X81700000Y-30940491D01*
X81755751Y-30935000D01*
X81755752Y-30935000D01*
X81922499Y-30918577D01*
X82033187Y-30885000D01*
X84374249Y-30885000D01*
X84430000Y-30890491D01*
X84485751Y-30885000D01*
X84485752Y-30885000D01*
X84652499Y-30868577D01*
X84737623Y-30842755D01*
X85615000Y-31720132D01*
X85615001Y-40877682D01*
X85501727Y-40801995D01*
X85247490Y-40696686D01*
X84977592Y-40643000D01*
X84702408Y-40643000D01*
X84432510Y-40696686D01*
X84178273Y-40801995D01*
X83949465Y-40954880D01*
X83754880Y-41149465D01*
X83720710Y-41200604D01*
X78135000Y-46786315D01*
X78135000Y-46068026D01*
X78141700Y-45999999D01*
X78135000Y-45931972D01*
X78135000Y-45931963D01*
X78114960Y-45728493D01*
X78035764Y-45467419D01*
X77907157Y-45226812D01*
X77814579Y-45114006D01*
X77777452Y-45068766D01*
X77777445Y-45068759D01*
X77734080Y-45015919D01*
X77681241Y-44972555D01*
X74135000Y-41426315D01*
X74135000Y-34818029D01*
X74141700Y-34750000D01*
X74135000Y-34681971D01*
X74135000Y-34681963D01*
X74114960Y-34478493D01*
X74035764Y-34217419D01*
X73907157Y-33976812D01*
X73777452Y-33818766D01*
X73777445Y-33818759D01*
X73734080Y-33765919D01*
X73681241Y-33722555D01*
X72027452Y-32068767D01*
X71984081Y-32015919D01*
X71773188Y-31842843D01*
X71532581Y-31714236D01*
X71271507Y-31635040D01*
X71068037Y-31615000D01*
X71068029Y-31615000D01*
X71000000Y-31608300D01*
X70931971Y-31615000D01*
X66021100Y-31615000D01*
X66021506Y-31614960D01*
X66282580Y-31535764D01*
X66523187Y-31407157D01*
X66734080Y-31234081D01*
X66907157Y-31023188D01*
X66981020Y-30885000D01*
X73981928Y-30885000D01*
X73981928Y-30900000D01*
X73994188Y-31024482D01*
X74030498Y-31144180D01*
X74089463Y-31254494D01*
X74168815Y-31351185D01*
X74265506Y-31430537D01*
X74375820Y-31489502D01*
X74495518Y-31525812D01*
X74620000Y-31538072D01*
X75820000Y-31538072D01*
X75944482Y-31525812D01*
X76064180Y-31489502D01*
X76174494Y-31430537D01*
X76271185Y-31351185D01*
X76350537Y-31254494D01*
X76409502Y-31144180D01*
X76445812Y-31024482D01*
X76458072Y-30900000D01*
X76458072Y-28700000D01*
X76445812Y-28575518D01*
X76409502Y-28455820D01*
X76350537Y-28345506D01*
X76271185Y-28248815D01*
X76174494Y-28169463D01*
X76064180Y-28110498D01*
X75944482Y-28074188D01*
X75820000Y-28061928D01*
X74620000Y-28061928D01*
X74495518Y-28074188D01*
X74375820Y-28110498D01*
X74265506Y-28169463D01*
X74168815Y-28248815D01*
X74089463Y-28345506D01*
X74030498Y-28455820D01*
X73994188Y-28575518D01*
X73990299Y-28615000D01*
X66981020Y-28615000D01*
X66907157Y-28476812D01*
X66734081Y-28265919D01*
X66523188Y-28092843D01*
X66282581Y-27964236D01*
X66021507Y-27885040D01*
X65986749Y-27881617D01*
X65265132Y-27160000D01*
X88873000Y-27160000D01*
X88873000Y-63340000D01*
X52300666Y-63340000D01*
X52323489Y-63317177D01*
X52721295Y-62721818D01*
X52995309Y-62060290D01*
X53135000Y-61358016D01*
X53135000Y-60641984D01*
X52995309Y-59939710D01*
X52721295Y-59278182D01*
X52323489Y-58682823D01*
X51817177Y-58176511D01*
X51221818Y-57778705D01*
X50560290Y-57504691D01*
X49858016Y-57365000D01*
X49141984Y-57365000D01*
X48439710Y-57504691D01*
X47778182Y-57778705D01*
X47182823Y-58176511D01*
X47160000Y-58199334D01*
X47160000Y-32300666D01*
X47182823Y-32323489D01*
X47778182Y-32721295D01*
X48439710Y-32995309D01*
X49141984Y-33135000D01*
X49858016Y-33135000D01*
X50560290Y-32995309D01*
X51221818Y-32721295D01*
X51817177Y-32323489D01*
X52323489Y-31817177D01*
X52721295Y-31221818D01*
X52995309Y-30560290D01*
X53135000Y-29858016D01*
X53135000Y-29141984D01*
X52995309Y-28439710D01*
X52721295Y-27778182D01*
X52323489Y-27182823D01*
X52300666Y-27160000D01*
X60022368Y-27160000D01*
X59468002Y-27714367D01*
G36*
X121426511Y-27182823D02*
G01*
X121028705Y-27778182D01*
X120754691Y-28439710D01*
X120615000Y-29141984D01*
X120615000Y-29858016D01*
X120754691Y-30560290D01*
X121028705Y-31221818D01*
X121426511Y-31817177D01*
X121932823Y-32323489D01*
X122528182Y-32721295D01*
X123189710Y-32995309D01*
X123891984Y-33135000D01*
X124608016Y-33135000D01*
X125310290Y-32995309D01*
X125971818Y-32721295D01*
X126567177Y-32323489D01*
X126590001Y-32300665D01*
X126590000Y-58199334D01*
X126567177Y-58176511D01*
X125971818Y-57778705D01*
X125310290Y-57504691D01*
X124608016Y-57365000D01*
X123891984Y-57365000D01*
X123189710Y-57504691D01*
X122528182Y-57778705D01*
X121932823Y-58176511D01*
X121426511Y-58682823D01*
X121028705Y-59278182D01*
X120754691Y-59939710D01*
X120615000Y-60641984D01*
X120615000Y-61358016D01*
X120754691Y-62060290D01*
X121028705Y-62721818D01*
X121426511Y-63317177D01*
X121449334Y-63340000D01*
X96377000Y-63340000D01*
X96377000Y-57608665D01*
X101315000Y-57608665D01*
X101315000Y-57891335D01*
X101370147Y-58168574D01*
X101478320Y-58429727D01*
X101635363Y-58664759D01*
X101835241Y-58864637D01*
X102070273Y-59021680D01*
X102331426Y-59129853D01*
X102608665Y-59185000D01*
X102891335Y-59185000D01*
X103142699Y-59135000D01*
X104313815Y-59135000D01*
X105722550Y-60543736D01*
X105765919Y-60596581D01*
X105818764Y-60639950D01*
X105818766Y-60639952D01*
X105887769Y-60696581D01*
X105976812Y-60769657D01*
X106217419Y-60898264D01*
X106478493Y-60977460D01*
X106681963Y-60997500D01*
X106681971Y-60997500D01*
X106750000Y-61004200D01*
X106818029Y-60997500D01*
X107038815Y-60997500D01*
X107115617Y-61074302D01*
X107135040Y-61271507D01*
X107214236Y-61532581D01*
X107342843Y-61773188D01*
X107515920Y-61984081D01*
X107726813Y-62157157D01*
X107967420Y-62285764D01*
X108228494Y-62364960D01*
X108500000Y-62391701D01*
X108771507Y-62364960D01*
X109032581Y-62285764D01*
X109273188Y-62157157D01*
X109484081Y-61984081D01*
X109657157Y-61773188D01*
X109785764Y-61532581D01*
X109864960Y-61271507D01*
X109885000Y-61068037D01*
X109885000Y-60568037D01*
X109891701Y-60500000D01*
X109885000Y-60431963D01*
X109885000Y-59931963D01*
X109864960Y-59728493D01*
X109785764Y-59467419D01*
X109657157Y-59226812D01*
X109581808Y-59135000D01*
X111663815Y-59135000D01*
X113172550Y-60643736D01*
X113215919Y-60696581D01*
X113268764Y-60739950D01*
X113268766Y-60739952D01*
X113342466Y-60800436D01*
X113426812Y-60869657D01*
X113667419Y-60998264D01*
X113928493Y-61077460D01*
X114131963Y-61097500D01*
X114131972Y-61097500D01*
X114199999Y-61104200D01*
X114268026Y-61097500D01*
X114617902Y-61097500D01*
X114635040Y-61271507D01*
X114714236Y-61532581D01*
X114842843Y-61773188D01*
X115015920Y-61984081D01*
X115226813Y-62157157D01*
X115467420Y-62285764D01*
X115728494Y-62364960D01*
X116000000Y-62391701D01*
X116271507Y-62364960D01*
X116532581Y-62285764D01*
X116773188Y-62157157D01*
X116984081Y-61984081D01*
X117157157Y-61773188D01*
X117285764Y-61532581D01*
X117364960Y-61271507D01*
X117385000Y-61068037D01*
X117385000Y-60568026D01*
X117391700Y-60499999D01*
X117385000Y-60431972D01*
X117385000Y-59931963D01*
X117364960Y-59728493D01*
X117285764Y-59467419D01*
X117157157Y-59226812D01*
X117081808Y-59135000D01*
X117581971Y-59135000D01*
X117650000Y-59141700D01*
X117718029Y-59135000D01*
X117718037Y-59135000D01*
X117921507Y-59114960D01*
X118182581Y-59035764D01*
X118423188Y-58907157D01*
X118634081Y-58734081D01*
X118677454Y-58681231D01*
X121111186Y-56247500D01*
X124019471Y-56247500D01*
X124087500Y-56254200D01*
X124155529Y-56247500D01*
X124155537Y-56247500D01*
X124282462Y-56234999D01*
X124668038Y-56234999D01*
X124871508Y-56214959D01*
X125132582Y-56135763D01*
X125373189Y-56007156D01*
X125584082Y-55834080D01*
X125757158Y-55623187D01*
X125885765Y-55382580D01*
X125964961Y-55121506D01*
X125991702Y-54849999D01*
X125964961Y-54578492D01*
X125885765Y-54317418D01*
X125757158Y-54076811D01*
X125584082Y-53865918D01*
X125373189Y-53692842D01*
X125132582Y-53564235D01*
X124871508Y-53485039D01*
X124668038Y-53464999D01*
X124168027Y-53464999D01*
X124100000Y-53458299D01*
X124031974Y-53464999D01*
X123531964Y-53464999D01*
X123405039Y-53477500D01*
X122884324Y-53477500D01*
X122835764Y-53317420D01*
X122735000Y-53128904D01*
X122735000Y-48672500D01*
X123405049Y-48672500D01*
X123531964Y-48685000D01*
X124031972Y-48685000D01*
X124100001Y-48691700D01*
X124168030Y-48685000D01*
X124668038Y-48685000D01*
X124871508Y-48664960D01*
X125132582Y-48585764D01*
X125373189Y-48457157D01*
X125584082Y-48284081D01*
X125757158Y-48073188D01*
X125885765Y-47832581D01*
X125964961Y-47571507D01*
X125991702Y-47300000D01*
X125964961Y-47028493D01*
X125885765Y-46767419D01*
X125757158Y-46526812D01*
X125584082Y-46315919D01*
X125373189Y-46142843D01*
X125132582Y-46014236D01*
X124871508Y-45935040D01*
X124668038Y-45915000D01*
X124282453Y-45915000D01*
X124155538Y-45902500D01*
X124155530Y-45902500D01*
X124087501Y-45895800D01*
X124019472Y-45902500D01*
X121918029Y-45902500D01*
X121850000Y-45895800D01*
X121781971Y-45902500D01*
X121781963Y-45902500D01*
X121578493Y-45922540D01*
X121317419Y-46001736D01*
X121076812Y-46130343D01*
X120865919Y-46303419D01*
X120822546Y-46356269D01*
X120418765Y-46760050D01*
X120365920Y-46803419D01*
X120322551Y-46856264D01*
X120322548Y-46856267D01*
X120192844Y-47014312D01*
X120064236Y-47254920D01*
X119985040Y-47515993D01*
X119958300Y-47787500D01*
X119965001Y-47855539D01*
X119965000Y-53476315D01*
X119606271Y-53835044D01*
X119606266Y-53835048D01*
X119606264Y-53835050D01*
X119553419Y-53878419D01*
X119510050Y-53931264D01*
X117076315Y-56365000D01*
X112305529Y-56365000D01*
X112237500Y-56358300D01*
X112169471Y-56365000D01*
X106094221Y-56365000D01*
X106144081Y-56324081D01*
X106233636Y-56214959D01*
X106317157Y-56113188D01*
X106445764Y-55872581D01*
X106524960Y-55611507D01*
X106536998Y-55489281D01*
X106537603Y-55483137D01*
X106556523Y-55485000D01*
X106556533Y-55485000D01*
X106599999Y-55489281D01*
X106643465Y-55485000D01*
X108115771Y-55485000D01*
X108217725Y-55568671D01*
X108365858Y-55647850D01*
X108526592Y-55696608D01*
X108693750Y-55713072D01*
X109131250Y-55713072D01*
X109298408Y-55696608D01*
X109459142Y-55647850D01*
X109607275Y-55568671D01*
X109700000Y-55492574D01*
X109792725Y-55568671D01*
X109940858Y-55647850D01*
X110101592Y-55696608D01*
X110268750Y-55713072D01*
X110706250Y-55713072D01*
X110873408Y-55696608D01*
X111034142Y-55647850D01*
X111182275Y-55568671D01*
X111284229Y-55485000D01*
X111405210Y-55485000D01*
X111467688Y-55578505D01*
X111681495Y-55792312D01*
X111932905Y-55960299D01*
X112212257Y-56076011D01*
X112508816Y-56135000D01*
X112811184Y-56135000D01*
X113107743Y-56076011D01*
X113387095Y-55960299D01*
X113638505Y-55792312D01*
X113852312Y-55578505D01*
X114020299Y-55327095D01*
X114136011Y-55047743D01*
X114195000Y-54751184D01*
X114195000Y-54448816D01*
X114136011Y-54152257D01*
X114020299Y-53872905D01*
X113852312Y-53621495D01*
X113638505Y-53407688D01*
X113387095Y-53239701D01*
X113107743Y-53123989D01*
X112811184Y-53065000D01*
X112508816Y-53065000D01*
X112212257Y-53123989D01*
X111932905Y-53239701D01*
X111681495Y-53407688D01*
X111467688Y-53621495D01*
X111405210Y-53715000D01*
X111284229Y-53715000D01*
X111182275Y-53631329D01*
X111034142Y-53552150D01*
X110873408Y-53503392D01*
X110706250Y-53486928D01*
X110268750Y-53486928D01*
X110101592Y-53503392D01*
X109940858Y-53552150D01*
X109792725Y-53631329D01*
X109700000Y-53707426D01*
X109607275Y-53631329D01*
X109459142Y-53552150D01*
X109298408Y-53503392D01*
X109131250Y-53486928D01*
X108693750Y-53486928D01*
X108526592Y-53503392D01*
X108365858Y-53552150D01*
X108217725Y-53631329D01*
X108115771Y-53715000D01*
X106966579Y-53715000D01*
X106545000Y-53293422D01*
X106545000Y-49857920D01*
X106557000Y-49797592D01*
X106557000Y-49522408D01*
X106503314Y-49252510D01*
X106398005Y-48998273D01*
X106245120Y-48769465D01*
X106050535Y-48574880D01*
X105821727Y-48421995D01*
X105567490Y-48316686D01*
X105297592Y-48263000D01*
X105022408Y-48263000D01*
X104752510Y-48316686D01*
X104498273Y-48421995D01*
X104269465Y-48574880D01*
X104074880Y-48769465D01*
X103921995Y-48998273D01*
X103816686Y-49252510D01*
X103763000Y-49522408D01*
X103763000Y-49797592D01*
X103775000Y-49857920D01*
X103775001Y-53771954D01*
X103775000Y-53771964D01*
X103775000Y-54766314D01*
X102048339Y-56492976D01*
X101835241Y-56635363D01*
X101635363Y-56835241D01*
X101478320Y-57070273D01*
X101370147Y-57331426D01*
X101315000Y-57608665D01*
X96377000Y-57608665D01*
X96377000Y-39362408D01*
X103763000Y-39362408D01*
X103763000Y-39637592D01*
X103816686Y-39907490D01*
X103921995Y-40161727D01*
X104074880Y-40390535D01*
X104269465Y-40585120D01*
X104498273Y-40738005D01*
X104752510Y-40843314D01*
X105022408Y-40897000D01*
X105297592Y-40897000D01*
X105567490Y-40843314D01*
X105821727Y-40738005D01*
X106050535Y-40585120D01*
X106245120Y-40390535D01*
X106398005Y-40161727D01*
X106503314Y-39907490D01*
X106557000Y-39637592D01*
X106557000Y-39362408D01*
X106503314Y-39092510D01*
X106398005Y-38838273D01*
X106245120Y-38609465D01*
X106050535Y-38414880D01*
X105821727Y-38261995D01*
X105567490Y-38156686D01*
X105297592Y-38103000D01*
X105022408Y-38103000D01*
X104752510Y-38156686D01*
X104498273Y-38261995D01*
X104269465Y-38414880D01*
X104074880Y-38609465D01*
X103921995Y-38838273D01*
X103816686Y-39092510D01*
X103763000Y-39362408D01*
X96377000Y-39362408D01*
X96377000Y-27160000D01*
X121449334Y-27160000D01*
X121426511Y-27182823D01*
X121426511Y-27182823D01*
G37*
X121426511Y-27182823D02*
X121028705Y-27778182D01*
X120754691Y-28439710D01*
X120615000Y-29141984D01*
X120615000Y-29858016D01*
X120754691Y-30560290D01*
X121028705Y-31221818D01*
X121426511Y-31817177D01*
X121932823Y-32323489D01*
X122528182Y-32721295D01*
X123189710Y-32995309D01*
X123891984Y-33135000D01*
X124608016Y-33135000D01*
X125310290Y-32995309D01*
X125971818Y-32721295D01*
X126567177Y-32323489D01*
X126590001Y-32300665D01*
X126590000Y-58199334D01*
X126567177Y-58176511D01*
X125971818Y-57778705D01*
X125310290Y-57504691D01*
X124608016Y-57365000D01*
X123891984Y-57365000D01*
X123189710Y-57504691D01*
X122528182Y-57778705D01*
X121932823Y-58176511D01*
X121426511Y-58682823D01*
X121028705Y-59278182D01*
X120754691Y-59939710D01*
X120615000Y-60641984D01*
X120615000Y-61358016D01*
X120754691Y-62060290D01*
X121028705Y-62721818D01*
X121426511Y-63317177D01*
X121449334Y-63340000D01*
X96377000Y-63340000D01*
X96377000Y-57608665D01*
X101315000Y-57608665D01*
X101315000Y-57891335D01*
X101370147Y-58168574D01*
X101478320Y-58429727D01*
X101635363Y-58664759D01*
X101835241Y-58864637D01*
X102070273Y-59021680D01*
X102331426Y-59129853D01*
X102608665Y-59185000D01*
X102891335Y-59185000D01*
X103142699Y-59135000D01*
X104313815Y-59135000D01*
X105722550Y-60543736D01*
X105765919Y-60596581D01*
X105818764Y-60639950D01*
X105818766Y-60639952D01*
X105887769Y-60696581D01*
X105976812Y-60769657D01*
X106217419Y-60898264D01*
X106478493Y-60977460D01*
X106681963Y-60997500D01*
X106681971Y-60997500D01*
X106750000Y-61004200D01*
X106818029Y-60997500D01*
X107038815Y-60997500D01*
X107115617Y-61074302D01*
X107135040Y-61271507D01*
X107214236Y-61532581D01*
X107342843Y-61773188D01*
X107515920Y-61984081D01*
X107726813Y-62157157D01*
X107967420Y-62285764D01*
X108228494Y-62364960D01*
X108500000Y-62391701D01*
X108771507Y-62364960D01*
X109032581Y-62285764D01*
X109273188Y-62157157D01*
X109484081Y-61984081D01*
X109657157Y-61773188D01*
X109785764Y-61532581D01*
X109864960Y-61271507D01*
X109885000Y-61068037D01*
X109885000Y-60568037D01*
X109891701Y-60500000D01*
X109885000Y-60431963D01*
X109885000Y-59931963D01*
X109864960Y-59728493D01*
X109785764Y-59467419D01*
X109657157Y-59226812D01*
X109581808Y-59135000D01*
X111663815Y-59135000D01*
X113172550Y-60643736D01*
X113215919Y-60696581D01*
X113268764Y-60739950D01*
X113268766Y-60739952D01*
X113342466Y-60800436D01*
X113426812Y-60869657D01*
X113667419Y-60998264D01*
X113928493Y-61077460D01*
X114131963Y-61097500D01*
X114131972Y-61097500D01*
X114199999Y-61104200D01*
X114268026Y-61097500D01*
X114617902Y-61097500D01*
X114635040Y-61271507D01*
X114714236Y-61532581D01*
X114842843Y-61773188D01*
X115015920Y-61984081D01*
X115226813Y-62157157D01*
X115467420Y-62285764D01*
X115728494Y-62364960D01*
X116000000Y-62391701D01*
X116271507Y-62364960D01*
X116532581Y-62285764D01*
X116773188Y-62157157D01*
X116984081Y-61984081D01*
X117157157Y-61773188D01*
X117285764Y-61532581D01*
X117364960Y-61271507D01*
X117385000Y-61068037D01*
X117385000Y-60568026D01*
X117391700Y-60499999D01*
X117385000Y-60431972D01*
X117385000Y-59931963D01*
X117364960Y-59728493D01*
X117285764Y-59467419D01*
X117157157Y-59226812D01*
X117081808Y-59135000D01*
X117581971Y-59135000D01*
X117650000Y-59141700D01*
X117718029Y-59135000D01*
X117718037Y-59135000D01*
X117921507Y-59114960D01*
X118182581Y-59035764D01*
X118423188Y-58907157D01*
X118634081Y-58734081D01*
X118677454Y-58681231D01*
X121111186Y-56247500D01*
X124019471Y-56247500D01*
X124087500Y-56254200D01*
X124155529Y-56247500D01*
X124155537Y-56247500D01*
X124282462Y-56234999D01*
X124668038Y-56234999D01*
X124871508Y-56214959D01*
X125132582Y-56135763D01*
X125373189Y-56007156D01*
X125584082Y-55834080D01*
X125757158Y-55623187D01*
X125885765Y-55382580D01*
X125964961Y-55121506D01*
X125991702Y-54849999D01*
X125964961Y-54578492D01*
X125885765Y-54317418D01*
X125757158Y-54076811D01*
X125584082Y-53865918D01*
X125373189Y-53692842D01*
X125132582Y-53564235D01*
X124871508Y-53485039D01*
X124668038Y-53464999D01*
X124168027Y-53464999D01*
X124100000Y-53458299D01*
X124031974Y-53464999D01*
X123531964Y-53464999D01*
X123405039Y-53477500D01*
X122884324Y-53477500D01*
X122835764Y-53317420D01*
X122735000Y-53128904D01*
X122735000Y-48672500D01*
X123405049Y-48672500D01*
X123531964Y-48685000D01*
X124031972Y-48685000D01*
X124100001Y-48691700D01*
X124168030Y-48685000D01*
X124668038Y-48685000D01*
X124871508Y-48664960D01*
X125132582Y-48585764D01*
X125373189Y-48457157D01*
X125584082Y-48284081D01*
X125757158Y-48073188D01*
X125885765Y-47832581D01*
X125964961Y-47571507D01*
X125991702Y-47300000D01*
X125964961Y-47028493D01*
X125885765Y-46767419D01*
X125757158Y-46526812D01*
X125584082Y-46315919D01*
X125373189Y-46142843D01*
X125132582Y-46014236D01*
X124871508Y-45935040D01*
X124668038Y-45915000D01*
X124282453Y-45915000D01*
X124155538Y-45902500D01*
X124155530Y-45902500D01*
X124087501Y-45895800D01*
X124019472Y-45902500D01*
X121918029Y-45902500D01*
X121850000Y-45895800D01*
X121781971Y-45902500D01*
X121781963Y-45902500D01*
X121578493Y-45922540D01*
X121317419Y-46001736D01*
X121076812Y-46130343D01*
X120865919Y-46303419D01*
X120822546Y-46356269D01*
X120418765Y-46760050D01*
X120365920Y-46803419D01*
X120322551Y-46856264D01*
X120322548Y-46856267D01*
X120192844Y-47014312D01*
X120064236Y-47254920D01*
X119985040Y-47515993D01*
X119958300Y-47787500D01*
X119965001Y-47855539D01*
X119965000Y-53476315D01*
X119606271Y-53835044D01*
X119606266Y-53835048D01*
X119606264Y-53835050D01*
X119553419Y-53878419D01*
X119510050Y-53931264D01*
X117076315Y-56365000D01*
X112305529Y-56365000D01*
X112237500Y-56358300D01*
X112169471Y-56365000D01*
X106094221Y-56365000D01*
X106144081Y-56324081D01*
X106233636Y-56214959D01*
X106317157Y-56113188D01*
X106445764Y-55872581D01*
X106524960Y-55611507D01*
X106536998Y-55489281D01*
X106537603Y-55483137D01*
X106556523Y-55485000D01*
X106556533Y-55485000D01*
X106599999Y-55489281D01*
X106643465Y-55485000D01*
X108115771Y-55485000D01*
X108217725Y-55568671D01*
X108365858Y-55647850D01*
X108526592Y-55696608D01*
X108693750Y-55713072D01*
X109131250Y-55713072D01*
X109298408Y-55696608D01*
X109459142Y-55647850D01*
X109607275Y-55568671D01*
X109700000Y-55492574D01*
X109792725Y-55568671D01*
X109940858Y-55647850D01*
X110101592Y-55696608D01*
X110268750Y-55713072D01*
X110706250Y-55713072D01*
X110873408Y-55696608D01*
X111034142Y-55647850D01*
X111182275Y-55568671D01*
X111284229Y-55485000D01*
X111405210Y-55485000D01*
X111467688Y-55578505D01*
X111681495Y-55792312D01*
X111932905Y-55960299D01*
X112212257Y-56076011D01*
X112508816Y-56135000D01*
X112811184Y-56135000D01*
X113107743Y-56076011D01*
X113387095Y-55960299D01*
X113638505Y-55792312D01*
X113852312Y-55578505D01*
X114020299Y-55327095D01*
X114136011Y-55047743D01*
X114195000Y-54751184D01*
X114195000Y-54448816D01*
X114136011Y-54152257D01*
X114020299Y-53872905D01*
X113852312Y-53621495D01*
X113638505Y-53407688D01*
X113387095Y-53239701D01*
X113107743Y-53123989D01*
X112811184Y-53065000D01*
X112508816Y-53065000D01*
X112212257Y-53123989D01*
X111932905Y-53239701D01*
X111681495Y-53407688D01*
X111467688Y-53621495D01*
X111405210Y-53715000D01*
X111284229Y-53715000D01*
X111182275Y-53631329D01*
X111034142Y-53552150D01*
X110873408Y-53503392D01*
X110706250Y-53486928D01*
X110268750Y-53486928D01*
X110101592Y-53503392D01*
X109940858Y-53552150D01*
X109792725Y-53631329D01*
X109700000Y-53707426D01*
X109607275Y-53631329D01*
X109459142Y-53552150D01*
X109298408Y-53503392D01*
X109131250Y-53486928D01*
X108693750Y-53486928D01*
X108526592Y-53503392D01*
X108365858Y-53552150D01*
X108217725Y-53631329D01*
X108115771Y-53715000D01*
X106966579Y-53715000D01*
X106545000Y-53293422D01*
X106545000Y-49857920D01*
X106557000Y-49797592D01*
X106557000Y-49522408D01*
X106503314Y-49252510D01*
X106398005Y-48998273D01*
X106245120Y-48769465D01*
X106050535Y-48574880D01*
X105821727Y-48421995D01*
X105567490Y-48316686D01*
X105297592Y-48263000D01*
X105022408Y-48263000D01*
X104752510Y-48316686D01*
X104498273Y-48421995D01*
X104269465Y-48574880D01*
X104074880Y-48769465D01*
X103921995Y-48998273D01*
X103816686Y-49252510D01*
X103763000Y-49522408D01*
X103763000Y-49797592D01*
X103775000Y-49857920D01*
X103775001Y-53771954D01*
X103775000Y-53771964D01*
X103775000Y-54766314D01*
X102048339Y-56492976D01*
X101835241Y-56635363D01*
X101635363Y-56835241D01*
X101478320Y-57070273D01*
X101370147Y-57331426D01*
X101315000Y-57608665D01*
X96377000Y-57608665D01*
X96377000Y-39362408D01*
X103763000Y-39362408D01*
X103763000Y-39637592D01*
X103816686Y-39907490D01*
X103921995Y-40161727D01*
X104074880Y-40390535D01*
X104269465Y-40585120D01*
X104498273Y-40738005D01*
X104752510Y-40843314D01*
X105022408Y-40897000D01*
X105297592Y-40897000D01*
X105567490Y-40843314D01*
X105821727Y-40738005D01*
X106050535Y-40585120D01*
X106245120Y-40390535D01*
X106398005Y-40161727D01*
X106503314Y-39907490D01*
X106557000Y-39637592D01*
X106557000Y-39362408D01*
X106503314Y-39092510D01*
X106398005Y-38838273D01*
X106245120Y-38609465D01*
X106050535Y-38414880D01*
X105821727Y-38261995D01*
X105567490Y-38156686D01*
X105297592Y-38103000D01*
X105022408Y-38103000D01*
X104752510Y-38156686D01*
X104498273Y-38261995D01*
X104269465Y-38414880D01*
X104074880Y-38609465D01*
X103921995Y-38838273D01*
X103816686Y-39092510D01*
X103763000Y-39362408D01*
X96377000Y-39362408D01*
X96377000Y-27160000D01*
X121449334Y-27160000D01*
X121426511Y-27182823D01*
G36*
X69623000Y-57373000D02*
G01*
X58627000Y-57373000D01*
X58627000Y-38252589D01*
X58643671Y-38232275D01*
X58722850Y-38084142D01*
X58771608Y-37923408D01*
X58772318Y-37916198D01*
X58831077Y-37722498D01*
X58852991Y-37500000D01*
X58831077Y-37277501D01*
X58772318Y-37083800D01*
X58771608Y-37076592D01*
X58722850Y-36915858D01*
X58702080Y-36877000D01*
X69623000Y-36877000D01*
X69623000Y-57373000D01*
X69623000Y-57373000D01*
G37*
X69623000Y-57373000D02*
X58627000Y-57373000D01*
X58627000Y-38252589D01*
X58643671Y-38232275D01*
X58722850Y-38084142D01*
X58771608Y-37923408D01*
X58772318Y-37916198D01*
X58831077Y-37722498D01*
X58852991Y-37500000D01*
X58831077Y-37277501D01*
X58772318Y-37083800D01*
X58771608Y-37076592D01*
X58722850Y-36915858D01*
X58702080Y-36877000D01*
X69623000Y-36877000D01*
X69623000Y-57373000D01*
M02*
