G04 #@! TF.GenerationSoftware,KiCad,Pcbnew,(5.1.6)-1*
G04 #@! TF.CreationDate,2020-11-29T15:09:12+09:00*
G04 #@! TF.ProjectId,CAN_BLDCMD,43414e5f-424c-4444-934d-442e6b696361,rev?*
G04 #@! TF.SameCoordinates,Original*
G04 #@! TF.FileFunction,Profile,NP*
%FSLAX46Y46*%
G04 Gerber Fmt 4.6, Leading zero omitted, Abs format (unit mm)*
G04 Created by KiCad (PCBNEW (5.1.6)-1) date 2020-11-29 15:09:12*
%MOMM*%
%LPD*%
G01*
G04 APERTURE LIST*
G04 #@! TA.AperFunction,Profile*
%ADD10C,0.050000*%
G04 #@! TD*
G04 APERTURE END LIST*
D10*
X178850000Y-69200000D02*
G75*
G02*
X180650000Y-69200000I900000J0D01*
G01*
X180650000Y-70600000D02*
X180650000Y-69200000D01*
X180650000Y-70600000D02*
G75*
G02*
X178850000Y-70600000I-900000J0D01*
G01*
X178850000Y-70600000D02*
X178850000Y-69200000D01*
X191450000Y-70600000D02*
X191450000Y-69200000D01*
X191450000Y-69200000D02*
G75*
G02*
X193250000Y-69200000I900000J0D01*
G01*
X193250000Y-70600000D02*
G75*
G02*
X191450000Y-70600000I-900000J0D01*
G01*
X193250000Y-70600000D02*
X193250000Y-69200000D01*
X205600000Y-70600000D02*
G75*
G02*
X203800000Y-70600000I-900000J0D01*
G01*
X203800000Y-69200000D02*
G75*
G02*
X205600000Y-69200000I900000J0D01*
G01*
X205600000Y-70600000D02*
X205600000Y-69200000D01*
X203800000Y-70600000D02*
X203800000Y-69200000D01*
X218000000Y-70600000D02*
X218000000Y-69200000D01*
X216200000Y-69200000D02*
G75*
G02*
X218000000Y-69200000I900000J0D01*
G01*
X216200000Y-70600000D02*
X216200000Y-69200000D01*
X218000000Y-70600000D02*
G75*
G02*
X216200000Y-70600000I-900000J0D01*
G01*
X173500000Y-57000000D02*
X173500000Y-141000000D01*
X243500000Y-141000000D02*
X243500000Y-57000000D01*
X176500000Y-144000000D02*
G75*
G02*
X173500000Y-141000000I0J3000000D01*
G01*
X173500000Y-57000000D02*
G75*
G02*
X176500000Y-54000000I3000000J0D01*
G01*
X240500000Y-54000000D02*
G75*
G02*
X243500000Y-57000000I0J-3000000D01*
G01*
X243500000Y-141000000D02*
G75*
G02*
X240500000Y-144000000I-3000000J0D01*
G01*
X240500000Y-144000000D02*
X176500000Y-144000000D01*
X240500000Y-54000000D02*
X176500000Y-54000000D01*
M02*
