G04 #@! TF.GenerationSoftware,KiCad,Pcbnew,(5.1.6)-1*
G04 #@! TF.CreationDate,2020-11-29T15:09:12+09:00*
G04 #@! TF.ProjectId,CAN_BLDCMD,43414e5f-424c-4444-934d-442e6b696361,rev?*
G04 #@! TF.SameCoordinates,Original*
G04 #@! TF.FileFunction,Soldermask,Bot*
G04 #@! TF.FilePolarity,Negative*
%FSLAX46Y46*%
G04 Gerber Fmt 4.6, Leading zero omitted, Abs format (unit mm)*
G04 Created by KiCad (PCBNEW (5.1.6)-1) date 2020-11-29 15:09:12*
%MOMM*%
%LPD*%
G01*
G04 APERTURE LIST*
%ADD10C,0.100000*%
G04 APERTURE END LIST*
D10*
G36*
X235776000Y-142891000D02*
G01*
X233974000Y-142891000D01*
X233974000Y-141089000D01*
X235776000Y-141089000D01*
X235776000Y-142891000D01*
G37*
G36*
X226122193Y-139712811D02*
G01*
X226352410Y-139758604D01*
X226634674Y-139875521D01*
X226888705Y-140045259D01*
X227104741Y-140261295D01*
X227274479Y-140515326D01*
X227391396Y-140797590D01*
X227451000Y-141097240D01*
X227451000Y-141402760D01*
X227391396Y-141702410D01*
X227274479Y-141984674D01*
X227104741Y-142238705D01*
X226888705Y-142454741D01*
X226634674Y-142624479D01*
X226352410Y-142741396D01*
X226202585Y-142771198D01*
X226052761Y-142801000D01*
X225747239Y-142801000D01*
X225597415Y-142771198D01*
X225447590Y-142741396D01*
X225165326Y-142624479D01*
X224911295Y-142454741D01*
X224695259Y-142238705D01*
X224525521Y-141984674D01*
X224408604Y-141702410D01*
X224349000Y-141402760D01*
X224349000Y-141097240D01*
X224408604Y-140797590D01*
X224525521Y-140515326D01*
X224695259Y-140261295D01*
X224911295Y-140045259D01*
X225165326Y-139875521D01*
X225447590Y-139758604D01*
X225677807Y-139712811D01*
X225747239Y-139699000D01*
X226052761Y-139699000D01*
X226122193Y-139712811D01*
G37*
G36*
X193622193Y-139712811D02*
G01*
X193852410Y-139758604D01*
X194134674Y-139875521D01*
X194388705Y-140045259D01*
X194604741Y-140261295D01*
X194774479Y-140515326D01*
X194891396Y-140797590D01*
X194951000Y-141097240D01*
X194951000Y-141402760D01*
X194891396Y-141702410D01*
X194774479Y-141984674D01*
X194604741Y-142238705D01*
X194388705Y-142454741D01*
X194134674Y-142624479D01*
X193852410Y-142741396D01*
X193702585Y-142771198D01*
X193552761Y-142801000D01*
X193247239Y-142801000D01*
X193097415Y-142771198D01*
X192947590Y-142741396D01*
X192665326Y-142624479D01*
X192411295Y-142454741D01*
X192195259Y-142238705D01*
X192025521Y-141984674D01*
X191908604Y-141702410D01*
X191849000Y-141402760D01*
X191849000Y-141097240D01*
X191908604Y-140797590D01*
X192025521Y-140515326D01*
X192195259Y-140261295D01*
X192411295Y-140045259D01*
X192665326Y-139875521D01*
X192947590Y-139758604D01*
X193177807Y-139712811D01*
X193247239Y-139699000D01*
X193552761Y-139699000D01*
X193622193Y-139712811D01*
G37*
G36*
X215029487Y-139998996D02*
G01*
X215266253Y-140097068D01*
X215266255Y-140097069D01*
X215479339Y-140239447D01*
X215660553Y-140420661D01*
X215781052Y-140601000D01*
X215802932Y-140633747D01*
X215901004Y-140870513D01*
X215951000Y-141121861D01*
X215951000Y-141378139D01*
X215901004Y-141629487D01*
X215870798Y-141702410D01*
X215802931Y-141866255D01*
X215660553Y-142079339D01*
X215479339Y-142260553D01*
X215266255Y-142402931D01*
X215266254Y-142402932D01*
X215266253Y-142402932D01*
X215029487Y-142501004D01*
X214778139Y-142551000D01*
X214521861Y-142551000D01*
X214270513Y-142501004D01*
X214033747Y-142402932D01*
X214033746Y-142402932D01*
X214033745Y-142402931D01*
X213820661Y-142260553D01*
X213639447Y-142079339D01*
X213497069Y-141866255D01*
X213429202Y-141702410D01*
X213398996Y-141629487D01*
X213349000Y-141378139D01*
X213349000Y-141121861D01*
X213398996Y-140870513D01*
X213497068Y-140633747D01*
X213518949Y-140601000D01*
X213639447Y-140420661D01*
X213820661Y-140239447D01*
X214033745Y-140097069D01*
X214033747Y-140097068D01*
X214270513Y-139998996D01*
X214521861Y-139949000D01*
X214778139Y-139949000D01*
X215029487Y-139998996D01*
G37*
G36*
X205029487Y-139998996D02*
G01*
X205266253Y-140097068D01*
X205266255Y-140097069D01*
X205479339Y-140239447D01*
X205660553Y-140420661D01*
X205781052Y-140601000D01*
X205802932Y-140633747D01*
X205901004Y-140870513D01*
X205951000Y-141121861D01*
X205951000Y-141378139D01*
X205901004Y-141629487D01*
X205870798Y-141702410D01*
X205802931Y-141866255D01*
X205660553Y-142079339D01*
X205479339Y-142260553D01*
X205266255Y-142402931D01*
X205266254Y-142402932D01*
X205266253Y-142402932D01*
X205029487Y-142501004D01*
X204778139Y-142551000D01*
X204521861Y-142551000D01*
X204270513Y-142501004D01*
X204033747Y-142402932D01*
X204033746Y-142402932D01*
X204033745Y-142402931D01*
X203820661Y-142260553D01*
X203639447Y-142079339D01*
X203497069Y-141866255D01*
X203429202Y-141702410D01*
X203398996Y-141629487D01*
X203349000Y-141378139D01*
X203349000Y-141121861D01*
X203398996Y-140870513D01*
X203497068Y-140633747D01*
X203518949Y-140601000D01*
X203639447Y-140420661D01*
X203820661Y-140239447D01*
X204033745Y-140097069D01*
X204033747Y-140097068D01*
X204270513Y-139998996D01*
X204521861Y-139949000D01*
X204778139Y-139949000D01*
X205029487Y-139998996D01*
G37*
G36*
X233101000Y-141151000D02*
G01*
X231799000Y-141151000D01*
X231799000Y-140149000D01*
X233101000Y-140149000D01*
X233101000Y-141151000D01*
G37*
G36*
X183403512Y-138803927D02*
G01*
X183552812Y-138833624D01*
X183716784Y-138901544D01*
X183864354Y-139000147D01*
X183989853Y-139125646D01*
X184088456Y-139273216D01*
X184156376Y-139437188D01*
X184191000Y-139611259D01*
X184191000Y-139788741D01*
X184156376Y-139962812D01*
X184088456Y-140126784D01*
X183989853Y-140274354D01*
X183864354Y-140399853D01*
X183716784Y-140498456D01*
X183552812Y-140566376D01*
X183403512Y-140596073D01*
X183378742Y-140601000D01*
X183201258Y-140601000D01*
X183176488Y-140596073D01*
X183027188Y-140566376D01*
X182863216Y-140498456D01*
X182715646Y-140399853D01*
X182590147Y-140274354D01*
X182491544Y-140126784D01*
X182423624Y-139962812D01*
X182389000Y-139788741D01*
X182389000Y-139611259D01*
X182423624Y-139437188D01*
X182491544Y-139273216D01*
X182590147Y-139125646D01*
X182715646Y-139000147D01*
X182863216Y-138901544D01*
X183027188Y-138833624D01*
X183176488Y-138803927D01*
X183201258Y-138799000D01*
X183378742Y-138799000D01*
X183403512Y-138803927D01*
G37*
G36*
X181651000Y-140601000D02*
G01*
X179849000Y-140601000D01*
X179849000Y-138799000D01*
X181651000Y-138799000D01*
X181651000Y-140601000D01*
G37*
G36*
X234988512Y-138553927D02*
G01*
X235137812Y-138583624D01*
X235301784Y-138651544D01*
X235449354Y-138750147D01*
X235574853Y-138875646D01*
X235673456Y-139023216D01*
X235741376Y-139187188D01*
X235776000Y-139361259D01*
X235776000Y-139538741D01*
X235741376Y-139712812D01*
X235673456Y-139876784D01*
X235574853Y-140024354D01*
X235449354Y-140149853D01*
X235301784Y-140248456D01*
X235137812Y-140316376D01*
X234988512Y-140346073D01*
X234963742Y-140351000D01*
X234786258Y-140351000D01*
X234761488Y-140346073D01*
X234612188Y-140316376D01*
X234448216Y-140248456D01*
X234300646Y-140149853D01*
X234175147Y-140024354D01*
X234076544Y-139876784D01*
X234008624Y-139712812D01*
X233974000Y-139538741D01*
X233974000Y-139361259D01*
X234008624Y-139187188D01*
X234076544Y-139023216D01*
X234175147Y-138875646D01*
X234300646Y-138750147D01*
X234448216Y-138651544D01*
X234612188Y-138583624D01*
X234761488Y-138553927D01*
X234786258Y-138549000D01*
X234963742Y-138549000D01*
X234988512Y-138553927D01*
G37*
G36*
X230201000Y-138951000D02*
G01*
X229099000Y-138951000D01*
X229099000Y-138049000D01*
X230201000Y-138049000D01*
X230201000Y-138951000D01*
G37*
G36*
X227701000Y-138951000D02*
G01*
X226599000Y-138951000D01*
X226599000Y-138049000D01*
X227701000Y-138049000D01*
X227701000Y-138951000D01*
G37*
G36*
X181301000Y-138201000D02*
G01*
X180199000Y-138201000D01*
X180199000Y-137299000D01*
X181301000Y-137299000D01*
X181301000Y-138201000D01*
G37*
G36*
X198651000Y-138151000D02*
G01*
X197649000Y-138151000D01*
X197649000Y-136849000D01*
X198651000Y-136849000D01*
X198651000Y-138151000D01*
G37*
G36*
X190351000Y-138151000D02*
G01*
X189349000Y-138151000D01*
X189349000Y-136849000D01*
X190351000Y-136849000D01*
X190351000Y-138151000D01*
G37*
G36*
X193651000Y-138151000D02*
G01*
X192649000Y-138151000D01*
X192649000Y-136849000D01*
X193651000Y-136849000D01*
X193651000Y-138151000D01*
G37*
G36*
X195351000Y-138151000D02*
G01*
X194349000Y-138151000D01*
X194349000Y-136849000D01*
X195351000Y-136849000D01*
X195351000Y-138151000D01*
G37*
G36*
X233101000Y-137851000D02*
G01*
X231799000Y-137851000D01*
X231799000Y-136849000D01*
X233101000Y-136849000D01*
X233101000Y-137851000D01*
G37*
G36*
X234987682Y-136013762D02*
G01*
X235137812Y-136043624D01*
X235301784Y-136111544D01*
X235449354Y-136210147D01*
X235574853Y-136335646D01*
X235673456Y-136483216D01*
X235741376Y-136647188D01*
X235776000Y-136821259D01*
X235776000Y-136998741D01*
X235741376Y-137172812D01*
X235673456Y-137336784D01*
X235574853Y-137484354D01*
X235449354Y-137609853D01*
X235301784Y-137708456D01*
X235137812Y-137776376D01*
X234988512Y-137806073D01*
X234963742Y-137811000D01*
X234786258Y-137811000D01*
X234761488Y-137806073D01*
X234612188Y-137776376D01*
X234448216Y-137708456D01*
X234300646Y-137609853D01*
X234175147Y-137484354D01*
X234076544Y-137336784D01*
X234008624Y-137172812D01*
X233974000Y-136998741D01*
X233974000Y-136821259D01*
X234008624Y-136647188D01*
X234076544Y-136483216D01*
X234175147Y-136335646D01*
X234300646Y-136210147D01*
X234448216Y-136111544D01*
X234612188Y-136043624D01*
X234762318Y-136013762D01*
X234786258Y-136009000D01*
X234963742Y-136009000D01*
X234987682Y-136013762D01*
G37*
G36*
X215101000Y-137451000D02*
G01*
X214199000Y-137451000D01*
X214199000Y-136349000D01*
X215101000Y-136349000D01*
X215101000Y-137451000D01*
G37*
G36*
X213301000Y-137451000D02*
G01*
X212399000Y-137451000D01*
X212399000Y-136349000D01*
X213301000Y-136349000D01*
X213301000Y-137451000D01*
G37*
G36*
X205101000Y-137426000D02*
G01*
X204199000Y-137426000D01*
X204199000Y-136324000D01*
X205101000Y-136324000D01*
X205101000Y-137426000D01*
G37*
G36*
X203301000Y-137426000D02*
G01*
X202399000Y-137426000D01*
X202399000Y-136324000D01*
X203301000Y-136324000D01*
X203301000Y-137426000D01*
G37*
G36*
X224807022Y-133460590D02*
G01*
X224891572Y-133486238D01*
X224958012Y-133506392D01*
X225097164Y-133580771D01*
X225219133Y-133680867D01*
X225319229Y-133802835D01*
X225393608Y-133941987D01*
X225408875Y-133992318D01*
X225439410Y-134092977D01*
X225451000Y-134210655D01*
X225451000Y-135289345D01*
X225439410Y-135407023D01*
X225418441Y-135476149D01*
X225393608Y-135558013D01*
X225319229Y-135697165D01*
X225219133Y-135819133D01*
X225097165Y-135919229D01*
X225013850Y-135963762D01*
X224993476Y-135977376D01*
X224976149Y-135994703D01*
X224962535Y-136015077D01*
X224953158Y-136037716D01*
X224948378Y-136061750D01*
X224948378Y-136086254D01*
X224953159Y-136110287D01*
X224962536Y-136132926D01*
X224976150Y-136153300D01*
X224993477Y-136170627D01*
X225013851Y-136184241D01*
X225036490Y-136193618D01*
X225072775Y-136199000D01*
X225101000Y-136199000D01*
X225101000Y-137301000D01*
X224199000Y-137301000D01*
X224199000Y-136199000D01*
X224227226Y-136199000D01*
X224251612Y-136196598D01*
X224275061Y-136189485D01*
X224296672Y-136177934D01*
X224315614Y-136162389D01*
X224331159Y-136143447D01*
X224342710Y-136121836D01*
X224349823Y-136098387D01*
X224352225Y-136074001D01*
X224349823Y-136049615D01*
X224342710Y-136026166D01*
X224331159Y-136004555D01*
X224315614Y-135985613D01*
X224286151Y-135963762D01*
X224202836Y-135919229D01*
X224080868Y-135819133D01*
X223980772Y-135697165D01*
X223906393Y-135558013D01*
X223881560Y-135476149D01*
X223860591Y-135407023D01*
X223849001Y-135289345D01*
X223849000Y-134210656D01*
X223860590Y-134092978D01*
X223906392Y-133941989D01*
X223906392Y-133941988D01*
X223980771Y-133802836D01*
X223980772Y-133802835D01*
X224080867Y-133680867D01*
X224202835Y-133580771D01*
X224341987Y-133506392D01*
X224408427Y-133486238D01*
X224492977Y-133460590D01*
X224650000Y-133445125D01*
X224807022Y-133460590D01*
G37*
G36*
X222307022Y-133460590D02*
G01*
X222391572Y-133486238D01*
X222458012Y-133506392D01*
X222597164Y-133580771D01*
X222719133Y-133680867D01*
X222819229Y-133802835D01*
X222893608Y-133941987D01*
X222908875Y-133992318D01*
X222939410Y-134092977D01*
X222951000Y-134210655D01*
X222951000Y-135289345D01*
X222939410Y-135407023D01*
X222918441Y-135476149D01*
X222893608Y-135558013D01*
X222819229Y-135697165D01*
X222719133Y-135819133D01*
X222597165Y-135919229D01*
X222513850Y-135963762D01*
X222493476Y-135977376D01*
X222476149Y-135994703D01*
X222462535Y-136015077D01*
X222453158Y-136037716D01*
X222448378Y-136061750D01*
X222448378Y-136086254D01*
X222453159Y-136110287D01*
X222462536Y-136132926D01*
X222476150Y-136153300D01*
X222493477Y-136170627D01*
X222513851Y-136184241D01*
X222536490Y-136193618D01*
X222572775Y-136199000D01*
X223301000Y-136199000D01*
X223301000Y-137301000D01*
X222399000Y-137301000D01*
X222399000Y-136168266D01*
X222396598Y-136143880D01*
X222389485Y-136120431D01*
X222377934Y-136098820D01*
X222362389Y-136079878D01*
X222343447Y-136064333D01*
X222321836Y-136052782D01*
X222298387Y-136045669D01*
X222261749Y-136043869D01*
X222150000Y-136054875D01*
X221992978Y-136039410D01*
X221878076Y-136004555D01*
X221841988Y-135993608D01*
X221702836Y-135919229D01*
X221580868Y-135819133D01*
X221480772Y-135697165D01*
X221406393Y-135558013D01*
X221381560Y-135476149D01*
X221360591Y-135407023D01*
X221349001Y-135289345D01*
X221349000Y-134210656D01*
X221360590Y-134092978D01*
X221406392Y-133941989D01*
X221406392Y-133941988D01*
X221480771Y-133802836D01*
X221480772Y-133802835D01*
X221580867Y-133680867D01*
X221702835Y-133580771D01*
X221841987Y-133506392D01*
X221908427Y-133486238D01*
X221992977Y-133460590D01*
X222150000Y-133445125D01*
X222307022Y-133460590D01*
G37*
G36*
X227307022Y-133460590D02*
G01*
X227391572Y-133486238D01*
X227458012Y-133506392D01*
X227597164Y-133580771D01*
X227719133Y-133680867D01*
X227819229Y-133802835D01*
X227893608Y-133941987D01*
X227908875Y-133992318D01*
X227939410Y-134092977D01*
X227951000Y-134210655D01*
X227951000Y-135289345D01*
X227939410Y-135407023D01*
X227918441Y-135476149D01*
X227893608Y-135558013D01*
X227819229Y-135697165D01*
X227719133Y-135819133D01*
X227597165Y-135919229D01*
X227458013Y-135993608D01*
X227422488Y-136004384D01*
X227399849Y-136013762D01*
X227379475Y-136027375D01*
X227362148Y-136044702D01*
X227348534Y-136065077D01*
X227339156Y-136087715D01*
X227334376Y-136111749D01*
X227334376Y-136136253D01*
X227339156Y-136160286D01*
X227348534Y-136182925D01*
X227362147Y-136203299D01*
X227379474Y-136220626D01*
X227399849Y-136234240D01*
X227422487Y-136243618D01*
X227446521Y-136248398D01*
X227458773Y-136249000D01*
X227701000Y-136249000D01*
X227701000Y-137151000D01*
X226599000Y-137151000D01*
X226599000Y-136249000D01*
X226841228Y-136249000D01*
X226865614Y-136246598D01*
X226889063Y-136239485D01*
X226910674Y-136227934D01*
X226929616Y-136212389D01*
X226945161Y-136193447D01*
X226956712Y-136171836D01*
X226963825Y-136148387D01*
X226966227Y-136124001D01*
X226963825Y-136099615D01*
X226956712Y-136076166D01*
X226945161Y-136054555D01*
X226929616Y-136035613D01*
X226910674Y-136020068D01*
X226889063Y-136008517D01*
X226877513Y-136004384D01*
X226841988Y-135993608D01*
X226702836Y-135919229D01*
X226580868Y-135819133D01*
X226480772Y-135697165D01*
X226406393Y-135558013D01*
X226381560Y-135476149D01*
X226360591Y-135407023D01*
X226349001Y-135289345D01*
X226349000Y-134210656D01*
X226360590Y-134092978D01*
X226406392Y-133941989D01*
X226406392Y-133941988D01*
X226480771Y-133802836D01*
X226480772Y-133802835D01*
X226580867Y-133680867D01*
X226702835Y-133580771D01*
X226841987Y-133506392D01*
X226908427Y-133486238D01*
X226992977Y-133460590D01*
X227150000Y-133445125D01*
X227307022Y-133460590D01*
G37*
G36*
X229807022Y-133460590D02*
G01*
X229891572Y-133486238D01*
X229958012Y-133506392D01*
X230097164Y-133580771D01*
X230219133Y-133680867D01*
X230319229Y-133802835D01*
X230393608Y-133941987D01*
X230408875Y-133992318D01*
X230439410Y-134092977D01*
X230451000Y-134210655D01*
X230451000Y-135289345D01*
X230439410Y-135407023D01*
X230418441Y-135476149D01*
X230393608Y-135558013D01*
X230319229Y-135697165D01*
X230219133Y-135819133D01*
X230097165Y-135919229D01*
X229958013Y-135993608D01*
X229922488Y-136004384D01*
X229899849Y-136013762D01*
X229879475Y-136027375D01*
X229862148Y-136044702D01*
X229848534Y-136065077D01*
X229839156Y-136087715D01*
X229834376Y-136111749D01*
X229834376Y-136136253D01*
X229839156Y-136160286D01*
X229848534Y-136182925D01*
X229862147Y-136203299D01*
X229879474Y-136220626D01*
X229899849Y-136234240D01*
X229922487Y-136243618D01*
X229946521Y-136248398D01*
X229958773Y-136249000D01*
X230201000Y-136249000D01*
X230201000Y-137151000D01*
X229099000Y-137151000D01*
X229099000Y-136249000D01*
X229341228Y-136249000D01*
X229365614Y-136246598D01*
X229389063Y-136239485D01*
X229410674Y-136227934D01*
X229429616Y-136212389D01*
X229445161Y-136193447D01*
X229456712Y-136171836D01*
X229463825Y-136148387D01*
X229466227Y-136124001D01*
X229463825Y-136099615D01*
X229456712Y-136076166D01*
X229445161Y-136054555D01*
X229429616Y-136035613D01*
X229410674Y-136020068D01*
X229389063Y-136008517D01*
X229377513Y-136004384D01*
X229341988Y-135993608D01*
X229202836Y-135919229D01*
X229080868Y-135819133D01*
X228980772Y-135697165D01*
X228906393Y-135558013D01*
X228881560Y-135476149D01*
X228860591Y-135407023D01*
X228849001Y-135289345D01*
X228849000Y-134210656D01*
X228860590Y-134092978D01*
X228906392Y-133941989D01*
X228906392Y-133941988D01*
X228980771Y-133802836D01*
X228980772Y-133802835D01*
X229080867Y-133680867D01*
X229202835Y-133580771D01*
X229341987Y-133506392D01*
X229408427Y-133486238D01*
X229492977Y-133460590D01*
X229650000Y-133445125D01*
X229807022Y-133460590D01*
G37*
G36*
X181315759Y-135513851D02*
G01*
X181306382Y-135536490D01*
X181301000Y-135572775D01*
X181301000Y-136401000D01*
X180199000Y-136401000D01*
X180199000Y-135499000D01*
X181325683Y-135499000D01*
X181315759Y-135513851D01*
G37*
G36*
X217307022Y-133460590D02*
G01*
X217391572Y-133486238D01*
X217458012Y-133506392D01*
X217597164Y-133580771D01*
X217719133Y-133680867D01*
X217819229Y-133802835D01*
X217893608Y-133941987D01*
X217908875Y-133992318D01*
X217939410Y-134092977D01*
X217951000Y-134210655D01*
X217951000Y-135289345D01*
X217939410Y-135407023D01*
X217918441Y-135476149D01*
X217893608Y-135558013D01*
X217819229Y-135697165D01*
X217719133Y-135819133D01*
X217597165Y-135919229D01*
X217458013Y-135993608D01*
X217421925Y-136004555D01*
X217307023Y-136039410D01*
X217150000Y-136054875D01*
X216992978Y-136039410D01*
X216878076Y-136004555D01*
X216841988Y-135993608D01*
X216702836Y-135919229D01*
X216580868Y-135819133D01*
X216480772Y-135697165D01*
X216406393Y-135558013D01*
X216381560Y-135476149D01*
X216360591Y-135407023D01*
X216349001Y-135289345D01*
X216349000Y-134210656D01*
X216360590Y-134092978D01*
X216406392Y-133941989D01*
X216406392Y-133941988D01*
X216480771Y-133802836D01*
X216480772Y-133802835D01*
X216580867Y-133680867D01*
X216702835Y-133580771D01*
X216841987Y-133506392D01*
X216908427Y-133486238D01*
X216992977Y-133460590D01*
X217150000Y-133445125D01*
X217307022Y-133460590D01*
G37*
G36*
X214807022Y-133460590D02*
G01*
X214891572Y-133486238D01*
X214958012Y-133506392D01*
X215097164Y-133580771D01*
X215219133Y-133680867D01*
X215319229Y-133802835D01*
X215393608Y-133941987D01*
X215408875Y-133992318D01*
X215439410Y-134092977D01*
X215451000Y-134210655D01*
X215451000Y-135289345D01*
X215439410Y-135407023D01*
X215418441Y-135476149D01*
X215393608Y-135558013D01*
X215319229Y-135697165D01*
X215219133Y-135819133D01*
X215097165Y-135919229D01*
X214958013Y-135993608D01*
X214921925Y-136004555D01*
X214807023Y-136039410D01*
X214650000Y-136054875D01*
X214492978Y-136039410D01*
X214378076Y-136004555D01*
X214341988Y-135993608D01*
X214202836Y-135919229D01*
X214080868Y-135819133D01*
X213980772Y-135697165D01*
X213906393Y-135558013D01*
X213881560Y-135476149D01*
X213860591Y-135407023D01*
X213849001Y-135289345D01*
X213849000Y-134210656D01*
X213860590Y-134092978D01*
X213906392Y-133941989D01*
X213906392Y-133941988D01*
X213980771Y-133802836D01*
X213980772Y-133802835D01*
X214080867Y-133680867D01*
X214202835Y-133580771D01*
X214341987Y-133506392D01*
X214377512Y-133495616D01*
X214400151Y-133486238D01*
X214420525Y-133472625D01*
X214437852Y-133455298D01*
X214437972Y-133455118D01*
X214451613Y-133459256D01*
X214475999Y-133461658D01*
X214488251Y-133461056D01*
X214492974Y-133460591D01*
X214492977Y-133460590D01*
X214650000Y-133445125D01*
X214807022Y-133460590D01*
G37*
G36*
X212851000Y-133251000D02*
G01*
X212458772Y-133251000D01*
X212434386Y-133253402D01*
X212410937Y-133260515D01*
X212389326Y-133272066D01*
X212370384Y-133287611D01*
X212354839Y-133306553D01*
X212343288Y-133328164D01*
X212336175Y-133351613D01*
X212333773Y-133375999D01*
X212336175Y-133400385D01*
X212343288Y-133423834D01*
X212354839Y-133445445D01*
X212370384Y-133464387D01*
X212389326Y-133479932D01*
X212410937Y-133491483D01*
X212422487Y-133495616D01*
X212458012Y-133506392D01*
X212597164Y-133580771D01*
X212719133Y-133680867D01*
X212819229Y-133802835D01*
X212893608Y-133941987D01*
X212908875Y-133992318D01*
X212939410Y-134092977D01*
X212951000Y-134210655D01*
X212951000Y-135289345D01*
X212939410Y-135407023D01*
X212918441Y-135476149D01*
X212893608Y-135558013D01*
X212819229Y-135697165D01*
X212719133Y-135819133D01*
X212597165Y-135919229D01*
X212458013Y-135993608D01*
X212421925Y-136004555D01*
X212307023Y-136039410D01*
X212150000Y-136054875D01*
X211992978Y-136039410D01*
X211878076Y-136004555D01*
X211841988Y-135993608D01*
X211702836Y-135919229D01*
X211580868Y-135819133D01*
X211480772Y-135697165D01*
X211406393Y-135558013D01*
X211381560Y-135476149D01*
X211360591Y-135407023D01*
X211349001Y-135289345D01*
X211349000Y-134210656D01*
X211360590Y-134092978D01*
X211406392Y-133941989D01*
X211406392Y-133941988D01*
X211480771Y-133802836D01*
X211480772Y-133802835D01*
X211580867Y-133680867D01*
X211702835Y-133580771D01*
X211841987Y-133506392D01*
X211877512Y-133495616D01*
X211900151Y-133486238D01*
X211920525Y-133472625D01*
X211937852Y-133455298D01*
X211951466Y-133434923D01*
X211960844Y-133412285D01*
X211965624Y-133388251D01*
X211965624Y-133363747D01*
X211960844Y-133339714D01*
X211951466Y-133317075D01*
X211937853Y-133296701D01*
X211920526Y-133279374D01*
X211900151Y-133265760D01*
X211877513Y-133256382D01*
X211853479Y-133251602D01*
X211841227Y-133251000D01*
X211749000Y-133251000D01*
X211749000Y-132349000D01*
X212851000Y-132349000D01*
X212851000Y-133251000D01*
G37*
G36*
X202307022Y-133460590D02*
G01*
X202391572Y-133486238D01*
X202458012Y-133506392D01*
X202597164Y-133580771D01*
X202719133Y-133680867D01*
X202819229Y-133802835D01*
X202893608Y-133941987D01*
X202908875Y-133992318D01*
X202939410Y-134092977D01*
X202951000Y-134210655D01*
X202951000Y-135289345D01*
X202939410Y-135407023D01*
X202918441Y-135476149D01*
X202893608Y-135558013D01*
X202819229Y-135697165D01*
X202719133Y-135819133D01*
X202597165Y-135919229D01*
X202458013Y-135993608D01*
X202421925Y-136004555D01*
X202307023Y-136039410D01*
X202150000Y-136054875D01*
X201992978Y-136039410D01*
X201878076Y-136004555D01*
X201841988Y-135993608D01*
X201702836Y-135919229D01*
X201580868Y-135819133D01*
X201480772Y-135697165D01*
X201406393Y-135558013D01*
X201381560Y-135476149D01*
X201360591Y-135407023D01*
X201349001Y-135289345D01*
X201349000Y-134210656D01*
X201360590Y-134092978D01*
X201406392Y-133941989D01*
X201406392Y-133941988D01*
X201480771Y-133802836D01*
X201480772Y-133802835D01*
X201580867Y-133680867D01*
X201702835Y-133580771D01*
X201841987Y-133506392D01*
X201908427Y-133486238D01*
X201992977Y-133460590D01*
X202150000Y-133445125D01*
X202307022Y-133460590D01*
G37*
G36*
X204807022Y-133460590D02*
G01*
X204891572Y-133486238D01*
X204958012Y-133506392D01*
X205097164Y-133580771D01*
X205219133Y-133680867D01*
X205319229Y-133802835D01*
X205393608Y-133941987D01*
X205408875Y-133992318D01*
X205439410Y-134092977D01*
X205451000Y-134210655D01*
X205451000Y-135289345D01*
X205439410Y-135407023D01*
X205418441Y-135476149D01*
X205393608Y-135558013D01*
X205319229Y-135697165D01*
X205219133Y-135819133D01*
X205097165Y-135919229D01*
X204958013Y-135993608D01*
X204921925Y-136004555D01*
X204807023Y-136039410D01*
X204650000Y-136054875D01*
X204492978Y-136039410D01*
X204378076Y-136004555D01*
X204341988Y-135993608D01*
X204202836Y-135919229D01*
X204080868Y-135819133D01*
X203980772Y-135697165D01*
X203906393Y-135558013D01*
X203881560Y-135476149D01*
X203860591Y-135407023D01*
X203849001Y-135289345D01*
X203849000Y-134210656D01*
X203860590Y-134092978D01*
X203906392Y-133941989D01*
X203906392Y-133941988D01*
X203980771Y-133802836D01*
X203980772Y-133802835D01*
X204080867Y-133680867D01*
X204202835Y-133580771D01*
X204341987Y-133506392D01*
X204408427Y-133486238D01*
X204492977Y-133460590D01*
X204650000Y-133445125D01*
X204807022Y-133460590D01*
G37*
G36*
X207307022Y-133460590D02*
G01*
X207391572Y-133486238D01*
X207458012Y-133506392D01*
X207597164Y-133580771D01*
X207719133Y-133680867D01*
X207819229Y-133802835D01*
X207893608Y-133941987D01*
X207908875Y-133992318D01*
X207939410Y-134092977D01*
X207951000Y-134210655D01*
X207951000Y-135289345D01*
X207939410Y-135407023D01*
X207918441Y-135476149D01*
X207893608Y-135558013D01*
X207819229Y-135697165D01*
X207719133Y-135819133D01*
X207597165Y-135919229D01*
X207458013Y-135993608D01*
X207421925Y-136004555D01*
X207307023Y-136039410D01*
X207150000Y-136054875D01*
X206992978Y-136039410D01*
X206878076Y-136004555D01*
X206841988Y-135993608D01*
X206702836Y-135919229D01*
X206580868Y-135819133D01*
X206480772Y-135697165D01*
X206406393Y-135558013D01*
X206381560Y-135476149D01*
X206360591Y-135407023D01*
X206349001Y-135289345D01*
X206349000Y-134210656D01*
X206360590Y-134092978D01*
X206406392Y-133941989D01*
X206406392Y-133941988D01*
X206480771Y-133802836D01*
X206480772Y-133802835D01*
X206580867Y-133680867D01*
X206702835Y-133580771D01*
X206841987Y-133506392D01*
X206908427Y-133486238D01*
X206992977Y-133460590D01*
X207150000Y-133445125D01*
X207307022Y-133460590D01*
G37*
G36*
X189807022Y-133460590D02*
G01*
X189891572Y-133486238D01*
X189958012Y-133506392D01*
X190097164Y-133580771D01*
X190219133Y-133680867D01*
X190319229Y-133802835D01*
X190393608Y-133941987D01*
X190408875Y-133992318D01*
X190439410Y-134092977D01*
X190451000Y-134210655D01*
X190451000Y-135289345D01*
X190439410Y-135407023D01*
X190418441Y-135476149D01*
X190393608Y-135558013D01*
X190319229Y-135697165D01*
X190219133Y-135819133D01*
X190097165Y-135919229D01*
X189958013Y-135993608D01*
X189921925Y-136004555D01*
X189807023Y-136039410D01*
X189650000Y-136054875D01*
X189492978Y-136039410D01*
X189378076Y-136004555D01*
X189341988Y-135993608D01*
X189202836Y-135919229D01*
X189080868Y-135819133D01*
X188980772Y-135697165D01*
X188906393Y-135558013D01*
X188881560Y-135476149D01*
X188860591Y-135407023D01*
X188849001Y-135289345D01*
X188849000Y-134210656D01*
X188860590Y-134092978D01*
X188906392Y-133941989D01*
X188906392Y-133941988D01*
X188980771Y-133802836D01*
X188980772Y-133802835D01*
X189080867Y-133680867D01*
X189202835Y-133580771D01*
X189341987Y-133506392D01*
X189408427Y-133486238D01*
X189492977Y-133460590D01*
X189650000Y-133445125D01*
X189807022Y-133460590D01*
G37*
G36*
X197307022Y-133460590D02*
G01*
X197391572Y-133486238D01*
X197458012Y-133506392D01*
X197597164Y-133580771D01*
X197719133Y-133680867D01*
X197819229Y-133802835D01*
X197893608Y-133941987D01*
X197908875Y-133992318D01*
X197939410Y-134092977D01*
X197951000Y-134210655D01*
X197951000Y-135289345D01*
X197939410Y-135407023D01*
X197918441Y-135476149D01*
X197893608Y-135558013D01*
X197819229Y-135697165D01*
X197719133Y-135819133D01*
X197597165Y-135919229D01*
X197458013Y-135993608D01*
X197421925Y-136004555D01*
X197307023Y-136039410D01*
X197150000Y-136054875D01*
X196992978Y-136039410D01*
X196878076Y-136004555D01*
X196841988Y-135993608D01*
X196702836Y-135919229D01*
X196580868Y-135819133D01*
X196480772Y-135697165D01*
X196406393Y-135558013D01*
X196381560Y-135476149D01*
X196360591Y-135407023D01*
X196349001Y-135289345D01*
X196349000Y-134210656D01*
X196360590Y-134092978D01*
X196406392Y-133941989D01*
X196406392Y-133941988D01*
X196480771Y-133802836D01*
X196480772Y-133802835D01*
X196580867Y-133680867D01*
X196702835Y-133580771D01*
X196841987Y-133506392D01*
X196908427Y-133486238D01*
X196992977Y-133460590D01*
X197150000Y-133445125D01*
X197307022Y-133460590D01*
G37*
G36*
X194807022Y-133460590D02*
G01*
X194891572Y-133486238D01*
X194958012Y-133506392D01*
X195097164Y-133580771D01*
X195219133Y-133680867D01*
X195319229Y-133802835D01*
X195393608Y-133941987D01*
X195408875Y-133992318D01*
X195439410Y-134092977D01*
X195451000Y-134210655D01*
X195451000Y-135289345D01*
X195439410Y-135407023D01*
X195418441Y-135476149D01*
X195393608Y-135558013D01*
X195319229Y-135697165D01*
X195219133Y-135819133D01*
X195097165Y-135919229D01*
X194958013Y-135993608D01*
X194921925Y-136004555D01*
X194807023Y-136039410D01*
X194650000Y-136054875D01*
X194492978Y-136039410D01*
X194378076Y-136004555D01*
X194341988Y-135993608D01*
X194202836Y-135919229D01*
X194080868Y-135819133D01*
X193980772Y-135697165D01*
X193906393Y-135558013D01*
X193881560Y-135476149D01*
X193860591Y-135407023D01*
X193849001Y-135289345D01*
X193849000Y-134210656D01*
X193860590Y-134092978D01*
X193906392Y-133941989D01*
X193906392Y-133941988D01*
X193980771Y-133802836D01*
X193980772Y-133802835D01*
X194080867Y-133680867D01*
X194202835Y-133580771D01*
X194341987Y-133506392D01*
X194408427Y-133486238D01*
X194492977Y-133460590D01*
X194650000Y-133445125D01*
X194807022Y-133460590D01*
G37*
G36*
X192307022Y-133460590D02*
G01*
X192391572Y-133486238D01*
X192458012Y-133506392D01*
X192597164Y-133580771D01*
X192719133Y-133680867D01*
X192819229Y-133802835D01*
X192893608Y-133941987D01*
X192908875Y-133992318D01*
X192939410Y-134092977D01*
X192951000Y-134210655D01*
X192951000Y-135289345D01*
X192939410Y-135407023D01*
X192918441Y-135476149D01*
X192893608Y-135558013D01*
X192819229Y-135697165D01*
X192719133Y-135819133D01*
X192597165Y-135919229D01*
X192458013Y-135993608D01*
X192421925Y-136004555D01*
X192307023Y-136039410D01*
X192150000Y-136054875D01*
X191992978Y-136039410D01*
X191878076Y-136004555D01*
X191841988Y-135993608D01*
X191702836Y-135919229D01*
X191580868Y-135819133D01*
X191480772Y-135697165D01*
X191406393Y-135558013D01*
X191381560Y-135476149D01*
X191360591Y-135407023D01*
X191349001Y-135289345D01*
X191349000Y-134210656D01*
X191360590Y-134092978D01*
X191406392Y-133941989D01*
X191406392Y-133941988D01*
X191480771Y-133802836D01*
X191480772Y-133802835D01*
X191580867Y-133680867D01*
X191702835Y-133580771D01*
X191841987Y-133506392D01*
X191908427Y-133486238D01*
X191992977Y-133460590D01*
X192150000Y-133445125D01*
X192307022Y-133460590D01*
G37*
G36*
X183328571Y-134352863D02*
G01*
X183407023Y-134360590D01*
X183507682Y-134391125D01*
X183558013Y-134406392D01*
X183697165Y-134480771D01*
X183819133Y-134580867D01*
X183919229Y-134702835D01*
X183993608Y-134841987D01*
X183993608Y-134841988D01*
X184039410Y-134992977D01*
X184054875Y-135150000D01*
X184039410Y-135307023D01*
X184030099Y-135337717D01*
X183993608Y-135458013D01*
X183919229Y-135597165D01*
X183819133Y-135719133D01*
X183697165Y-135819229D01*
X183558013Y-135893608D01*
X183507682Y-135908875D01*
X183407023Y-135939410D01*
X183328571Y-135947137D01*
X183289346Y-135951000D01*
X182210654Y-135951000D01*
X182171429Y-135947137D01*
X182092977Y-135939410D01*
X181992318Y-135908875D01*
X181941987Y-135893608D01*
X181802835Y-135819229D01*
X181680867Y-135719133D01*
X181580771Y-135597165D01*
X181536238Y-135513850D01*
X181522624Y-135493476D01*
X181505297Y-135476149D01*
X181484923Y-135462535D01*
X181462284Y-135453158D01*
X181448498Y-135450416D01*
X181454217Y-135443447D01*
X181465768Y-135421836D01*
X181472881Y-135398387D01*
X181475283Y-135374001D01*
X181469901Y-135337717D01*
X181460590Y-135307023D01*
X181445125Y-135150000D01*
X181460590Y-134992979D01*
X181460590Y-134992977D01*
X181506392Y-134841988D01*
X181506392Y-134841987D01*
X181580771Y-134702835D01*
X181680867Y-134580867D01*
X181802835Y-134480771D01*
X181941987Y-134406392D01*
X181992318Y-134391125D01*
X182092977Y-134360590D01*
X182171429Y-134352863D01*
X182210654Y-134349000D01*
X183289346Y-134349000D01*
X183328571Y-134352863D01*
G37*
G36*
X233651000Y-134101000D02*
G01*
X232549000Y-134101000D01*
X232549000Y-133199000D01*
X233651000Y-133199000D01*
X233651000Y-134101000D01*
G37*
G36*
X183323958Y-131852409D02*
G01*
X183407023Y-131860590D01*
X183507682Y-131891125D01*
X183558013Y-131906392D01*
X183697165Y-131980771D01*
X183819133Y-132080867D01*
X183919229Y-132202835D01*
X183993608Y-132341987D01*
X183993608Y-132341988D01*
X184039410Y-132492977D01*
X184054875Y-132650000D01*
X184039410Y-132807023D01*
X184013816Y-132891396D01*
X183993608Y-132958013D01*
X183919229Y-133097165D01*
X183819133Y-133219133D01*
X183697165Y-133319229D01*
X183558013Y-133393608D01*
X183507682Y-133408875D01*
X183407023Y-133439410D01*
X183348996Y-133445125D01*
X183289346Y-133451000D01*
X182210654Y-133451000D01*
X182151004Y-133445125D01*
X182092977Y-133439410D01*
X181992318Y-133408875D01*
X181941987Y-133393608D01*
X181802835Y-133319229D01*
X181680867Y-133219133D01*
X181580771Y-133097165D01*
X181506392Y-132958013D01*
X181486184Y-132891396D01*
X181460590Y-132807023D01*
X181445125Y-132650000D01*
X181460590Y-132492977D01*
X181506392Y-132341988D01*
X181506392Y-132341987D01*
X181580771Y-132202835D01*
X181680867Y-132080867D01*
X181802835Y-131980771D01*
X181941987Y-131906392D01*
X181992318Y-131891125D01*
X182092977Y-131860590D01*
X182176042Y-131852409D01*
X182210654Y-131849000D01*
X183289346Y-131849000D01*
X183323958Y-131852409D01*
G37*
G36*
X214351000Y-133251480D02*
G01*
X214341227Y-133251000D01*
X213249000Y-133251000D01*
X213249000Y-132349000D01*
X214351000Y-132349000D01*
X214351000Y-133251480D01*
G37*
G36*
X176458614Y-129860110D02*
G01*
X176702410Y-129908604D01*
X176984674Y-130025521D01*
X177238705Y-130195259D01*
X177454741Y-130411295D01*
X177624479Y-130665326D01*
X177741396Y-130947590D01*
X177801000Y-131247240D01*
X177801000Y-131552760D01*
X177741396Y-131852410D01*
X177624479Y-132134674D01*
X177454741Y-132388705D01*
X177238705Y-132604741D01*
X176984674Y-132774479D01*
X176702410Y-132891396D01*
X176552585Y-132921198D01*
X176402761Y-132951000D01*
X176097239Y-132951000D01*
X175947415Y-132921198D01*
X175797590Y-132891396D01*
X175515326Y-132774479D01*
X175261295Y-132604741D01*
X175045259Y-132388705D01*
X174875521Y-132134674D01*
X174758604Y-131852410D01*
X174699000Y-131552760D01*
X174699000Y-131247240D01*
X174758604Y-130947590D01*
X174875521Y-130665326D01*
X175045259Y-130411295D01*
X175261295Y-130195259D01*
X175515326Y-130025521D01*
X175797590Y-129908604D01*
X176041386Y-129860110D01*
X176097239Y-129849000D01*
X176402761Y-129849000D01*
X176458614Y-129860110D01*
G37*
G36*
X190201000Y-132501000D02*
G01*
X189299000Y-132501000D01*
X189299000Y-131499000D01*
X190201000Y-131499000D01*
X190201000Y-132501000D01*
G37*
G36*
X195201000Y-132501000D02*
G01*
X194299000Y-132501000D01*
X194299000Y-131499000D01*
X195201000Y-131499000D01*
X195201000Y-132501000D01*
G37*
G36*
X233651000Y-132301000D02*
G01*
X232549000Y-132301000D01*
X232549000Y-131399000D01*
X233651000Y-131399000D01*
X233651000Y-132301000D01*
G37*
G36*
X188001000Y-132251000D02*
G01*
X186899000Y-132251000D01*
X186899000Y-131349000D01*
X188001000Y-131349000D01*
X188001000Y-132251000D01*
G37*
G36*
X193001000Y-132251000D02*
G01*
X191899000Y-132251000D01*
X191899000Y-131349000D01*
X193001000Y-131349000D01*
X193001000Y-132251000D01*
G37*
G36*
X185279591Y-131253085D02*
G01*
X185313569Y-131263393D01*
X185344890Y-131280134D01*
X185372339Y-131302661D01*
X185394866Y-131330110D01*
X185411607Y-131361431D01*
X185421915Y-131395409D01*
X185426000Y-131436890D01*
X185426000Y-132038110D01*
X185421915Y-132079591D01*
X185411607Y-132113569D01*
X185394866Y-132144890D01*
X185372339Y-132172339D01*
X185344890Y-132194866D01*
X185313569Y-132211607D01*
X185279591Y-132221915D01*
X185238110Y-132226000D01*
X184561890Y-132226000D01*
X184520409Y-132221915D01*
X184486431Y-132211607D01*
X184455110Y-132194866D01*
X184427661Y-132172339D01*
X184405134Y-132144890D01*
X184388393Y-132113569D01*
X184378085Y-132079591D01*
X184374000Y-132038110D01*
X184374000Y-131436890D01*
X184378085Y-131395409D01*
X184388393Y-131361431D01*
X184405134Y-131330110D01*
X184427661Y-131302661D01*
X184455110Y-131280134D01*
X184486431Y-131263393D01*
X184520409Y-131253085D01*
X184561890Y-131249000D01*
X185238110Y-131249000D01*
X185279591Y-131253085D01*
G37*
G36*
X203317028Y-130927934D02*
G01*
X203338639Y-130939485D01*
X203362088Y-130946598D01*
X203386474Y-130949000D01*
X203451000Y-130949000D01*
X203451000Y-132051000D01*
X202549000Y-132051000D01*
X202549000Y-130949000D01*
X203213526Y-130949000D01*
X203237912Y-130946598D01*
X203261361Y-130939485D01*
X203282972Y-130927934D01*
X203300001Y-130913959D01*
X203317028Y-130927934D01*
G37*
G36*
X206317028Y-130927934D02*
G01*
X206338639Y-130939485D01*
X206362088Y-130946598D01*
X206386474Y-130949000D01*
X206601000Y-130949000D01*
X206601000Y-132051000D01*
X205699000Y-132051000D01*
X205699000Y-130949000D01*
X206213526Y-130949000D01*
X206237912Y-130946598D01*
X206261361Y-130939485D01*
X206282972Y-130927934D01*
X206300001Y-130913959D01*
X206317028Y-130927934D01*
G37*
G36*
X207817028Y-130927934D02*
G01*
X207838639Y-130939485D01*
X207862088Y-130946598D01*
X207886474Y-130949000D01*
X208401000Y-130949000D01*
X208401000Y-132051000D01*
X207499000Y-132051000D01*
X207499000Y-130949000D01*
X207713526Y-130949000D01*
X207737912Y-130946598D01*
X207761361Y-130939485D01*
X207782972Y-130927934D01*
X207800001Y-130913959D01*
X207817028Y-130927934D01*
G37*
G36*
X204817028Y-130927934D02*
G01*
X204838639Y-130939485D01*
X204862088Y-130946598D01*
X204886474Y-130949000D01*
X205251000Y-130949000D01*
X205251000Y-132051000D01*
X204349000Y-132051000D01*
X204349000Y-130949000D01*
X204713526Y-130949000D01*
X204737912Y-130946598D01*
X204761361Y-130939485D01*
X204782972Y-130927934D01*
X204800001Y-130913959D01*
X204817028Y-130927934D01*
G37*
G36*
X209601000Y-129286511D02*
G01*
X209599660Y-129287611D01*
X209584115Y-129306553D01*
X209572564Y-129328164D01*
X209565451Y-129351613D01*
X209563049Y-129375999D01*
X209565451Y-129400385D01*
X209572564Y-129423834D01*
X209584115Y-129445445D01*
X209599660Y-129464387D01*
X209618601Y-129479931D01*
X209714988Y-129544335D01*
X209805665Y-129635012D01*
X209876909Y-129741636D01*
X209918477Y-129841988D01*
X209925983Y-129860111D01*
X209927403Y-129867249D01*
X209934516Y-129890698D01*
X209946067Y-129912309D01*
X209961612Y-129931251D01*
X209980554Y-129946797D01*
X210002164Y-129958348D01*
X210025613Y-129965461D01*
X210049999Y-129967863D01*
X210074385Y-129965461D01*
X210097834Y-129958348D01*
X210119445Y-129946797D01*
X210138387Y-129931252D01*
X210153933Y-129912310D01*
X210165484Y-129890700D01*
X210172597Y-129867249D01*
X210174017Y-129860111D01*
X210181524Y-129841988D01*
X210223091Y-129741636D01*
X210294335Y-129635012D01*
X210385012Y-129544335D01*
X210481399Y-129479931D01*
X210500340Y-129464387D01*
X210515885Y-129445445D01*
X210527436Y-129423834D01*
X210534549Y-129400385D01*
X210536951Y-129375999D01*
X210534549Y-129351613D01*
X210527436Y-129328164D01*
X210515885Y-129306553D01*
X210500340Y-129287611D01*
X210499000Y-129286511D01*
X210499000Y-128149000D01*
X211401000Y-128149000D01*
X211401000Y-129251000D01*
X211188048Y-129251000D01*
X211163662Y-129253402D01*
X211140213Y-129260515D01*
X211118602Y-129272066D01*
X211099660Y-129287611D01*
X211084115Y-129306553D01*
X211072564Y-129328164D01*
X211065451Y-129351613D01*
X211063049Y-129375999D01*
X211065451Y-129400385D01*
X211072564Y-129423834D01*
X211084115Y-129445445D01*
X211099660Y-129464387D01*
X211118601Y-129479931D01*
X211214988Y-129544335D01*
X211305665Y-129635012D01*
X211376909Y-129741636D01*
X211418477Y-129841988D01*
X211425983Y-129860111D01*
X211427403Y-129867249D01*
X211434516Y-129890698D01*
X211446067Y-129912309D01*
X211461612Y-129931251D01*
X211480554Y-129946797D01*
X211502164Y-129958348D01*
X211525613Y-129965461D01*
X211549999Y-129967863D01*
X211574385Y-129965461D01*
X211597834Y-129958348D01*
X211619445Y-129946797D01*
X211638387Y-129931252D01*
X211653933Y-129912310D01*
X211665484Y-129890700D01*
X211672597Y-129867249D01*
X211674017Y-129860111D01*
X211681524Y-129841988D01*
X211723091Y-129741636D01*
X211794335Y-129635012D01*
X211885012Y-129544335D01*
X211991636Y-129473091D01*
X212110110Y-129424017D01*
X212111030Y-129423834D01*
X212235881Y-129399000D01*
X212364119Y-129399000D01*
X212488970Y-129423834D01*
X212489890Y-129424017D01*
X212608364Y-129473091D01*
X212714988Y-129544335D01*
X212805665Y-129635012D01*
X212876909Y-129741636D01*
X212918477Y-129841988D01*
X212925983Y-129860111D01*
X212927403Y-129867249D01*
X212934516Y-129890698D01*
X212946067Y-129912309D01*
X212961612Y-129931251D01*
X212980554Y-129946797D01*
X213002164Y-129958348D01*
X213025613Y-129965461D01*
X213049999Y-129967863D01*
X213074385Y-129965461D01*
X213097834Y-129958348D01*
X213119445Y-129946797D01*
X213138387Y-129931252D01*
X213153933Y-129912310D01*
X213165484Y-129890700D01*
X213172597Y-129867249D01*
X213174017Y-129860111D01*
X213181524Y-129841988D01*
X213223091Y-129741636D01*
X213294335Y-129635012D01*
X213385012Y-129544335D01*
X213491636Y-129473091D01*
X213610110Y-129424017D01*
X213611030Y-129423834D01*
X213735881Y-129399000D01*
X213864119Y-129399000D01*
X213988970Y-129423834D01*
X213989890Y-129424017D01*
X214108364Y-129473091D01*
X214214988Y-129544335D01*
X214305665Y-129635012D01*
X214376909Y-129741636D01*
X214418477Y-129841988D01*
X214425983Y-129860111D01*
X214427403Y-129867249D01*
X214434516Y-129890698D01*
X214446067Y-129912309D01*
X214461612Y-129931251D01*
X214480554Y-129946797D01*
X214502164Y-129958348D01*
X214525613Y-129965461D01*
X214549999Y-129967863D01*
X214574385Y-129965461D01*
X214597834Y-129958348D01*
X214619445Y-129946797D01*
X214638387Y-129931252D01*
X214653933Y-129912310D01*
X214665484Y-129890700D01*
X214672597Y-129867249D01*
X214674017Y-129860111D01*
X214681524Y-129841988D01*
X214723091Y-129741636D01*
X214794335Y-129635012D01*
X214885012Y-129544335D01*
X214991636Y-129473091D01*
X215110110Y-129424017D01*
X215111030Y-129423834D01*
X215235881Y-129399000D01*
X215364119Y-129399000D01*
X215488970Y-129423834D01*
X215489890Y-129424017D01*
X215608364Y-129473091D01*
X215714988Y-129544335D01*
X215805665Y-129635012D01*
X215834446Y-129678085D01*
X215876910Y-129741638D01*
X215925983Y-129860110D01*
X215951000Y-129985881D01*
X215951000Y-130114119D01*
X215925983Y-130239890D01*
X215891343Y-130323519D01*
X215876909Y-130358364D01*
X215805665Y-130464988D01*
X215714988Y-130555665D01*
X215608364Y-130626909D01*
X215608363Y-130626910D01*
X215608362Y-130626910D01*
X215489890Y-130675983D01*
X215364119Y-130701000D01*
X215235881Y-130701000D01*
X215110110Y-130675983D01*
X214991638Y-130626910D01*
X214991637Y-130626910D01*
X214991636Y-130626909D01*
X214885012Y-130555665D01*
X214794335Y-130464988D01*
X214723091Y-130358364D01*
X214674017Y-130239890D01*
X214672597Y-130232751D01*
X214665484Y-130209302D01*
X214653933Y-130187691D01*
X214638388Y-130168749D01*
X214619446Y-130153203D01*
X214597836Y-130141652D01*
X214574387Y-130134539D01*
X214550001Y-130132137D01*
X214525615Y-130134539D01*
X214502166Y-130141652D01*
X214480555Y-130153203D01*
X214461613Y-130168748D01*
X214446067Y-130187690D01*
X214434516Y-130209300D01*
X214427403Y-130232751D01*
X214425983Y-130239890D01*
X214401446Y-130299127D01*
X214376909Y-130358365D01*
X214372066Y-130365613D01*
X214360515Y-130387223D01*
X214353402Y-130410672D01*
X214351000Y-130435058D01*
X214351000Y-131451000D01*
X213249000Y-131451000D01*
X213249000Y-130435058D01*
X213246598Y-130410672D01*
X213239485Y-130387223D01*
X213227934Y-130365613D01*
X213223091Y-130358365D01*
X213198554Y-130299127D01*
X213174017Y-130239890D01*
X213172597Y-130232751D01*
X213165484Y-130209302D01*
X213153933Y-130187691D01*
X213138388Y-130168749D01*
X213119446Y-130153203D01*
X213097836Y-130141652D01*
X213074387Y-130134539D01*
X213050001Y-130132137D01*
X213025615Y-130134539D01*
X213002166Y-130141652D01*
X212980555Y-130153203D01*
X212961613Y-130168748D01*
X212946067Y-130187690D01*
X212934516Y-130209300D01*
X212927403Y-130232751D01*
X212925983Y-130239890D01*
X212901446Y-130299127D01*
X212876909Y-130358365D01*
X212872066Y-130365613D01*
X212860515Y-130387223D01*
X212853402Y-130410672D01*
X212851000Y-130435058D01*
X212851000Y-131451000D01*
X211749000Y-131451000D01*
X211749000Y-130435058D01*
X211746598Y-130410672D01*
X211739485Y-130387223D01*
X211727934Y-130365613D01*
X211723091Y-130358365D01*
X211698554Y-130299127D01*
X211674017Y-130239890D01*
X211672597Y-130232751D01*
X211665484Y-130209302D01*
X211653933Y-130187691D01*
X211638388Y-130168749D01*
X211619446Y-130153203D01*
X211597836Y-130141652D01*
X211574387Y-130134539D01*
X211550001Y-130132137D01*
X211525615Y-130134539D01*
X211502166Y-130141652D01*
X211480555Y-130153203D01*
X211461613Y-130168748D01*
X211446067Y-130187690D01*
X211434516Y-130209300D01*
X211427403Y-130232751D01*
X211425983Y-130239890D01*
X211376909Y-130358364D01*
X211305665Y-130464988D01*
X211214988Y-130555665D01*
X211108364Y-130626909D01*
X211108363Y-130626910D01*
X211108362Y-130626910D01*
X210989890Y-130675983D01*
X210864119Y-130701000D01*
X210735881Y-130701000D01*
X210610110Y-130675983D01*
X210491638Y-130626910D01*
X210491637Y-130626910D01*
X210491636Y-130626909D01*
X210385012Y-130555665D01*
X210294335Y-130464988D01*
X210223091Y-130358364D01*
X210174017Y-130239890D01*
X210172597Y-130232751D01*
X210165484Y-130209302D01*
X210153933Y-130187691D01*
X210138388Y-130168749D01*
X210119446Y-130153203D01*
X210097836Y-130141652D01*
X210074387Y-130134539D01*
X210050001Y-130132137D01*
X210025615Y-130134539D01*
X210002166Y-130141652D01*
X209980555Y-130153203D01*
X209961613Y-130168748D01*
X209946067Y-130187690D01*
X209934516Y-130209300D01*
X209927403Y-130232751D01*
X209925983Y-130239890D01*
X209876909Y-130358364D01*
X209805665Y-130464988D01*
X209714988Y-130555665D01*
X209608364Y-130626909D01*
X209608363Y-130626910D01*
X209608362Y-130626910D01*
X209489890Y-130675983D01*
X209364119Y-130701000D01*
X209235881Y-130701000D01*
X209110110Y-130675983D01*
X208991638Y-130626910D01*
X208991637Y-130626910D01*
X208991636Y-130626909D01*
X208885012Y-130555665D01*
X208794335Y-130464988D01*
X208723091Y-130358364D01*
X208674017Y-130239890D01*
X208672597Y-130232751D01*
X208665484Y-130209302D01*
X208653933Y-130187691D01*
X208638388Y-130168749D01*
X208619446Y-130153203D01*
X208597836Y-130141652D01*
X208574387Y-130134539D01*
X208550001Y-130132137D01*
X208525615Y-130134539D01*
X208502166Y-130141652D01*
X208480555Y-130153203D01*
X208461613Y-130168748D01*
X208446067Y-130187690D01*
X208434516Y-130209300D01*
X208427403Y-130232751D01*
X208425983Y-130239890D01*
X208376909Y-130358364D01*
X208305665Y-130464988D01*
X208214988Y-130555665D01*
X208108364Y-130626909D01*
X208108363Y-130626910D01*
X208108362Y-130626910D01*
X207989890Y-130675983D01*
X207862088Y-130701404D01*
X207838639Y-130708517D01*
X207817028Y-130720068D01*
X207800000Y-130734043D01*
X207782972Y-130720068D01*
X207761361Y-130708517D01*
X207737912Y-130701404D01*
X207610110Y-130675983D01*
X207491638Y-130626910D01*
X207491637Y-130626910D01*
X207491636Y-130626909D01*
X207385012Y-130555665D01*
X207294335Y-130464988D01*
X207223091Y-130358364D01*
X207174017Y-130239890D01*
X207172597Y-130232751D01*
X207165484Y-130209302D01*
X207153933Y-130187691D01*
X207138388Y-130168749D01*
X207119446Y-130153203D01*
X207097836Y-130141652D01*
X207074387Y-130134539D01*
X207050001Y-130132137D01*
X207025615Y-130134539D01*
X207002166Y-130141652D01*
X206980555Y-130153203D01*
X206961613Y-130168748D01*
X206946067Y-130187690D01*
X206934516Y-130209300D01*
X206927403Y-130232751D01*
X206925983Y-130239890D01*
X206876909Y-130358364D01*
X206805665Y-130464988D01*
X206714988Y-130555665D01*
X206608364Y-130626909D01*
X206608363Y-130626910D01*
X206608362Y-130626910D01*
X206489890Y-130675983D01*
X206362088Y-130701404D01*
X206338639Y-130708517D01*
X206317028Y-130720068D01*
X206300000Y-130734043D01*
X206282972Y-130720068D01*
X206261361Y-130708517D01*
X206237912Y-130701404D01*
X206110110Y-130675983D01*
X205991638Y-130626910D01*
X205991637Y-130626910D01*
X205991636Y-130626909D01*
X205885012Y-130555665D01*
X205794335Y-130464988D01*
X205723091Y-130358364D01*
X205674017Y-130239890D01*
X205672597Y-130232751D01*
X205665484Y-130209302D01*
X205653933Y-130187691D01*
X205638388Y-130168749D01*
X205619446Y-130153203D01*
X205597836Y-130141652D01*
X205574387Y-130134539D01*
X205550001Y-130132137D01*
X205525615Y-130134539D01*
X205502166Y-130141652D01*
X205480555Y-130153203D01*
X205461613Y-130168748D01*
X205446067Y-130187690D01*
X205434516Y-130209300D01*
X205427403Y-130232751D01*
X205425983Y-130239890D01*
X205376909Y-130358364D01*
X205305665Y-130464988D01*
X205214988Y-130555665D01*
X205108364Y-130626909D01*
X205108363Y-130626910D01*
X205108362Y-130626910D01*
X204989890Y-130675983D01*
X204862088Y-130701404D01*
X204838639Y-130708517D01*
X204817028Y-130720068D01*
X204800000Y-130734043D01*
X204782972Y-130720068D01*
X204761361Y-130708517D01*
X204737912Y-130701404D01*
X204610110Y-130675983D01*
X204491638Y-130626910D01*
X204491637Y-130626910D01*
X204491636Y-130626909D01*
X204385012Y-130555665D01*
X204294335Y-130464988D01*
X204223091Y-130358364D01*
X204174017Y-130239890D01*
X204172597Y-130232751D01*
X204165484Y-130209302D01*
X204153933Y-130187691D01*
X204138388Y-130168749D01*
X204119446Y-130153203D01*
X204097836Y-130141652D01*
X204074387Y-130134539D01*
X204050001Y-130132137D01*
X204025615Y-130134539D01*
X204002166Y-130141652D01*
X203980555Y-130153203D01*
X203961613Y-130168748D01*
X203946067Y-130187690D01*
X203934516Y-130209300D01*
X203927403Y-130232751D01*
X203925983Y-130239890D01*
X203876909Y-130358364D01*
X203805665Y-130464988D01*
X203714988Y-130555665D01*
X203608364Y-130626909D01*
X203608363Y-130626910D01*
X203608362Y-130626910D01*
X203489890Y-130675983D01*
X203362088Y-130701404D01*
X203338639Y-130708517D01*
X203317028Y-130720068D01*
X203300000Y-130734043D01*
X203282972Y-130720068D01*
X203261361Y-130708517D01*
X203237912Y-130701404D01*
X203110110Y-130675983D01*
X202991638Y-130626910D01*
X202991637Y-130626910D01*
X202991636Y-130626909D01*
X202885012Y-130555665D01*
X202794335Y-130464988D01*
X202723091Y-130358364D01*
X202708658Y-130323519D01*
X202674017Y-130239890D01*
X202649000Y-130114119D01*
X202649000Y-129985881D01*
X202674017Y-129860110D01*
X202723090Y-129741638D01*
X202765555Y-129678085D01*
X202794335Y-129635012D01*
X202885012Y-129544335D01*
X202991636Y-129473091D01*
X203110110Y-129424017D01*
X203111030Y-129423834D01*
X203235881Y-129399000D01*
X203364119Y-129399000D01*
X203488970Y-129423834D01*
X203489890Y-129424017D01*
X203608364Y-129473091D01*
X203714988Y-129544335D01*
X203805665Y-129635012D01*
X203876909Y-129741636D01*
X203918477Y-129841988D01*
X203925983Y-129860111D01*
X203927403Y-129867249D01*
X203934516Y-129890698D01*
X203946067Y-129912309D01*
X203961612Y-129931251D01*
X203980554Y-129946797D01*
X204002164Y-129958348D01*
X204025613Y-129965461D01*
X204049999Y-129967863D01*
X204074385Y-129965461D01*
X204097834Y-129958348D01*
X204119445Y-129946797D01*
X204138387Y-129931252D01*
X204153933Y-129912310D01*
X204165484Y-129890700D01*
X204172597Y-129867249D01*
X204174017Y-129860111D01*
X204181524Y-129841988D01*
X204223091Y-129741636D01*
X204294335Y-129635012D01*
X204385012Y-129544335D01*
X204491636Y-129473091D01*
X204610110Y-129424017D01*
X204611030Y-129423834D01*
X204735881Y-129399000D01*
X204864119Y-129399000D01*
X204988970Y-129423834D01*
X204989890Y-129424017D01*
X205108364Y-129473091D01*
X205214988Y-129544335D01*
X205305665Y-129635012D01*
X205376909Y-129741636D01*
X205418477Y-129841988D01*
X205425983Y-129860111D01*
X205427403Y-129867249D01*
X205434516Y-129890698D01*
X205446067Y-129912309D01*
X205461612Y-129931251D01*
X205480554Y-129946797D01*
X205502164Y-129958348D01*
X205525613Y-129965461D01*
X205549999Y-129967863D01*
X205574385Y-129965461D01*
X205597834Y-129958348D01*
X205619445Y-129946797D01*
X205638387Y-129931252D01*
X205653933Y-129912310D01*
X205665484Y-129890700D01*
X205672597Y-129867249D01*
X205674017Y-129860111D01*
X205681524Y-129841988D01*
X205723091Y-129741636D01*
X205794335Y-129635012D01*
X205885012Y-129544335D01*
X205991636Y-129473091D01*
X206110110Y-129424017D01*
X206111030Y-129423834D01*
X206235881Y-129399000D01*
X206364119Y-129399000D01*
X206488970Y-129423834D01*
X206489890Y-129424017D01*
X206608364Y-129473091D01*
X206714988Y-129544335D01*
X206805665Y-129635012D01*
X206876909Y-129741636D01*
X206918477Y-129841988D01*
X206925983Y-129860111D01*
X206927403Y-129867249D01*
X206934516Y-129890698D01*
X206946067Y-129912309D01*
X206961612Y-129931251D01*
X206980554Y-129946797D01*
X207002164Y-129958348D01*
X207025613Y-129965461D01*
X207049999Y-129967863D01*
X207074385Y-129965461D01*
X207097834Y-129958348D01*
X207119445Y-129946797D01*
X207138387Y-129931252D01*
X207153933Y-129912310D01*
X207165484Y-129890700D01*
X207172597Y-129867249D01*
X207174017Y-129860111D01*
X207181524Y-129841988D01*
X207223091Y-129741636D01*
X207294335Y-129635012D01*
X207385012Y-129544335D01*
X207491636Y-129473091D01*
X207610110Y-129424017D01*
X207611030Y-129423834D01*
X207735881Y-129399000D01*
X207864119Y-129399000D01*
X207988970Y-129423834D01*
X207989890Y-129424017D01*
X208108364Y-129473091D01*
X208214988Y-129544335D01*
X208305665Y-129635012D01*
X208376909Y-129741636D01*
X208418477Y-129841988D01*
X208425983Y-129860111D01*
X208427403Y-129867249D01*
X208434516Y-129890698D01*
X208446067Y-129912309D01*
X208461612Y-129931251D01*
X208480554Y-129946797D01*
X208502164Y-129958348D01*
X208525613Y-129965461D01*
X208549999Y-129967863D01*
X208574385Y-129965461D01*
X208597834Y-129958348D01*
X208619445Y-129946797D01*
X208638387Y-129931252D01*
X208653933Y-129912310D01*
X208665484Y-129890700D01*
X208672597Y-129867249D01*
X208674017Y-129860111D01*
X208681524Y-129841988D01*
X208723091Y-129741636D01*
X208794335Y-129635012D01*
X208885012Y-129544335D01*
X208981399Y-129479931D01*
X209000340Y-129464387D01*
X209015885Y-129445445D01*
X209027436Y-129423834D01*
X209034549Y-129400385D01*
X209036951Y-129375999D01*
X209034549Y-129351613D01*
X209027436Y-129328164D01*
X209015885Y-129306553D01*
X209000340Y-129287611D01*
X208981398Y-129272066D01*
X208959787Y-129260515D01*
X208936338Y-129253402D01*
X208911952Y-129251000D01*
X208699000Y-129251000D01*
X208699000Y-128149000D01*
X209601000Y-128149000D01*
X209601000Y-129286511D01*
G37*
G36*
X183315876Y-129351613D02*
G01*
X183407023Y-129360590D01*
X183507682Y-129391125D01*
X183558013Y-129406392D01*
X183697165Y-129480771D01*
X183819133Y-129580867D01*
X183919229Y-129702835D01*
X183993608Y-129841987D01*
X183993608Y-129841988D01*
X184039410Y-129992977D01*
X184054875Y-130150000D01*
X184039410Y-130307023D01*
X184009158Y-130406750D01*
X183993608Y-130458013D01*
X183919229Y-130597165D01*
X183819133Y-130719133D01*
X183697165Y-130819229D01*
X183558013Y-130893608D01*
X183507682Y-130908875D01*
X183407023Y-130939410D01*
X183334040Y-130946598D01*
X183289346Y-130951000D01*
X182210654Y-130951000D01*
X182165960Y-130946598D01*
X182092977Y-130939410D01*
X181992318Y-130908875D01*
X181941987Y-130893608D01*
X181802835Y-130819229D01*
X181680867Y-130719133D01*
X181580771Y-130597165D01*
X181506392Y-130458013D01*
X181490842Y-130406750D01*
X181460590Y-130307023D01*
X181445125Y-130150000D01*
X181460590Y-129992977D01*
X181506392Y-129841988D01*
X181506392Y-129841987D01*
X181580771Y-129702835D01*
X181680867Y-129580867D01*
X181802835Y-129480771D01*
X181941987Y-129406392D01*
X181992318Y-129391125D01*
X182092977Y-129360590D01*
X182184124Y-129351613D01*
X182210654Y-129349000D01*
X183289346Y-129349000D01*
X183315876Y-129351613D01*
G37*
G36*
X185279591Y-129678085D02*
G01*
X185313569Y-129688393D01*
X185344890Y-129705134D01*
X185372339Y-129727661D01*
X185394866Y-129755110D01*
X185411607Y-129786431D01*
X185421915Y-129820409D01*
X185426000Y-129861890D01*
X185426000Y-130463110D01*
X185421915Y-130504591D01*
X185411607Y-130538569D01*
X185394866Y-130569890D01*
X185372339Y-130597339D01*
X185344890Y-130619866D01*
X185313569Y-130636607D01*
X185279591Y-130646915D01*
X185238110Y-130651000D01*
X184561890Y-130651000D01*
X184520409Y-130646915D01*
X184486431Y-130636607D01*
X184455110Y-130619866D01*
X184427661Y-130597339D01*
X184405134Y-130569890D01*
X184388393Y-130538569D01*
X184378085Y-130504591D01*
X184374000Y-130463110D01*
X184374000Y-129861890D01*
X184378085Y-129820409D01*
X184388393Y-129786431D01*
X184405134Y-129755110D01*
X184427661Y-129727661D01*
X184455110Y-129705134D01*
X184486431Y-129688393D01*
X184520409Y-129678085D01*
X184561890Y-129674000D01*
X185238110Y-129674000D01*
X185279591Y-129678085D01*
G37*
G36*
X189251000Y-130501000D02*
G01*
X188349000Y-130501000D01*
X188349000Y-129499000D01*
X189251000Y-129499000D01*
X189251000Y-130501000D01*
G37*
G36*
X191151000Y-130501000D02*
G01*
X190249000Y-130501000D01*
X190249000Y-129499000D01*
X191151000Y-129499000D01*
X191151000Y-130501000D01*
G37*
G36*
X196151000Y-130501000D02*
G01*
X195249000Y-130501000D01*
X195249000Y-129499000D01*
X196151000Y-129499000D01*
X196151000Y-130501000D01*
G37*
G36*
X194251000Y-130501000D02*
G01*
X193349000Y-130501000D01*
X193349000Y-129499000D01*
X194251000Y-129499000D01*
X194251000Y-130501000D01*
G37*
G36*
X188001000Y-130451000D02*
G01*
X186899000Y-130451000D01*
X186899000Y-129549000D01*
X188001000Y-129549000D01*
X188001000Y-130451000D01*
G37*
G36*
X193001000Y-130451000D02*
G01*
X191899000Y-130451000D01*
X191899000Y-129549000D01*
X193001000Y-129549000D01*
X193001000Y-130451000D01*
G37*
G36*
X242158014Y-128744973D02*
G01*
X242261878Y-128776479D01*
X242305907Y-128800013D01*
X242357599Y-128827643D01*
X242357601Y-128827644D01*
X242357600Y-128827644D01*
X242441501Y-128896499D01*
X242510356Y-128980400D01*
X242561521Y-129076121D01*
X242593027Y-129179985D01*
X242601000Y-129260933D01*
X242601000Y-129839067D01*
X242593027Y-129920015D01*
X242561521Y-130023879D01*
X242561519Y-130023882D01*
X242510357Y-130119600D01*
X242441501Y-130203501D01*
X242357600Y-130272357D01*
X242292748Y-130307021D01*
X242261879Y-130323521D01*
X242158015Y-130355027D01*
X242050000Y-130365666D01*
X241941986Y-130355027D01*
X241838122Y-130323521D01*
X241807253Y-130307021D01*
X241742401Y-130272357D01*
X241658500Y-130203501D01*
X241589643Y-130119599D01*
X241538481Y-130023882D01*
X241526954Y-129985882D01*
X241506973Y-129920015D01*
X241499000Y-129839067D01*
X241499000Y-129260934D01*
X241506973Y-129179986D01*
X241538479Y-129076122D01*
X241589644Y-128980400D01*
X241658499Y-128896499D01*
X241742400Y-128827644D01*
X241742399Y-128827644D01*
X241742401Y-128827643D01*
X241794093Y-128800013D01*
X241838121Y-128776479D01*
X241941985Y-128744973D01*
X242050000Y-128734334D01*
X242158014Y-128744973D01*
G37*
G36*
X234658014Y-128744973D02*
G01*
X234761878Y-128776479D01*
X234805907Y-128800013D01*
X234857599Y-128827643D01*
X234857601Y-128827644D01*
X234857600Y-128827644D01*
X234941501Y-128896499D01*
X235010356Y-128980400D01*
X235061521Y-129076121D01*
X235093027Y-129179985D01*
X235101000Y-129260933D01*
X235101000Y-129839067D01*
X235093027Y-129920015D01*
X235061521Y-130023879D01*
X235061519Y-130023882D01*
X235010357Y-130119600D01*
X234941501Y-130203501D01*
X234857600Y-130272357D01*
X234792748Y-130307021D01*
X234761879Y-130323521D01*
X234658015Y-130355027D01*
X234550000Y-130365666D01*
X234441986Y-130355027D01*
X234338122Y-130323521D01*
X234307253Y-130307021D01*
X234242401Y-130272357D01*
X234158500Y-130203501D01*
X234089643Y-130119599D01*
X234038481Y-130023882D01*
X234026954Y-129985882D01*
X234006973Y-129920015D01*
X233999000Y-129839067D01*
X233999000Y-129260934D01*
X234006973Y-129179986D01*
X234038479Y-129076122D01*
X234089644Y-128980400D01*
X234158499Y-128896499D01*
X234242400Y-128827644D01*
X234242399Y-128827644D01*
X234242401Y-128827643D01*
X234294093Y-128800013D01*
X234338121Y-128776479D01*
X234441985Y-128744973D01*
X234550000Y-128734334D01*
X234658014Y-128744973D01*
G37*
G36*
X240658014Y-128744973D02*
G01*
X240761878Y-128776479D01*
X240805907Y-128800013D01*
X240857599Y-128827643D01*
X240857601Y-128827644D01*
X240857600Y-128827644D01*
X240941501Y-128896499D01*
X241010356Y-128980400D01*
X241061521Y-129076121D01*
X241093027Y-129179985D01*
X241101000Y-129260933D01*
X241101000Y-129839067D01*
X241093027Y-129920015D01*
X241061521Y-130023879D01*
X241061519Y-130023882D01*
X241010357Y-130119600D01*
X240941501Y-130203501D01*
X240857600Y-130272357D01*
X240792748Y-130307021D01*
X240761879Y-130323521D01*
X240658015Y-130355027D01*
X240550000Y-130365666D01*
X240441986Y-130355027D01*
X240338122Y-130323521D01*
X240307253Y-130307021D01*
X240242401Y-130272357D01*
X240158500Y-130203501D01*
X240089643Y-130119599D01*
X240038481Y-130023882D01*
X240026954Y-129985882D01*
X240006973Y-129920015D01*
X239999000Y-129839067D01*
X239999000Y-129260934D01*
X240006973Y-129179986D01*
X240038479Y-129076122D01*
X240089644Y-128980400D01*
X240158499Y-128896499D01*
X240242400Y-128827644D01*
X240242399Y-128827644D01*
X240242401Y-128827643D01*
X240294093Y-128800013D01*
X240338121Y-128776479D01*
X240441985Y-128744973D01*
X240550000Y-128734334D01*
X240658014Y-128744973D01*
G37*
G36*
X237658014Y-128744973D02*
G01*
X237761878Y-128776479D01*
X237805907Y-128800013D01*
X237857599Y-128827643D01*
X237857601Y-128827644D01*
X237857600Y-128827644D01*
X237941501Y-128896499D01*
X238010356Y-128980400D01*
X238061521Y-129076121D01*
X238093027Y-129179985D01*
X238101000Y-129260933D01*
X238101000Y-129839067D01*
X238093027Y-129920015D01*
X238061521Y-130023879D01*
X238061519Y-130023882D01*
X238010357Y-130119600D01*
X237941501Y-130203501D01*
X237857600Y-130272357D01*
X237792748Y-130307021D01*
X237761879Y-130323521D01*
X237658015Y-130355027D01*
X237550000Y-130365666D01*
X237441986Y-130355027D01*
X237338122Y-130323521D01*
X237307253Y-130307021D01*
X237242401Y-130272357D01*
X237158500Y-130203501D01*
X237089643Y-130119599D01*
X237038481Y-130023882D01*
X237026954Y-129985882D01*
X237006973Y-129920015D01*
X236999000Y-129839067D01*
X236999000Y-129260934D01*
X237006973Y-129179986D01*
X237038479Y-129076122D01*
X237089644Y-128980400D01*
X237158499Y-128896499D01*
X237242400Y-128827644D01*
X237242399Y-128827644D01*
X237242401Y-128827643D01*
X237294093Y-128800013D01*
X237338121Y-128776479D01*
X237441985Y-128744973D01*
X237550000Y-128734334D01*
X237658014Y-128744973D01*
G37*
G36*
X236158014Y-128744973D02*
G01*
X236261878Y-128776479D01*
X236305907Y-128800013D01*
X236357599Y-128827643D01*
X236357601Y-128827644D01*
X236357600Y-128827644D01*
X236441501Y-128896499D01*
X236510356Y-128980400D01*
X236561521Y-129076121D01*
X236593027Y-129179985D01*
X236601000Y-129260933D01*
X236601000Y-129839067D01*
X236593027Y-129920015D01*
X236561521Y-130023879D01*
X236561519Y-130023882D01*
X236510357Y-130119600D01*
X236441501Y-130203501D01*
X236357600Y-130272357D01*
X236292748Y-130307021D01*
X236261879Y-130323521D01*
X236158015Y-130355027D01*
X236050000Y-130365666D01*
X235941986Y-130355027D01*
X235838122Y-130323521D01*
X235807253Y-130307021D01*
X235742401Y-130272357D01*
X235658500Y-130203501D01*
X235589643Y-130119599D01*
X235538481Y-130023882D01*
X235526954Y-129985882D01*
X235506973Y-129920015D01*
X235499000Y-129839067D01*
X235499000Y-129260934D01*
X235506973Y-129179986D01*
X235538479Y-129076122D01*
X235589644Y-128980400D01*
X235658499Y-128896499D01*
X235742400Y-128827644D01*
X235742399Y-128827644D01*
X235742401Y-128827643D01*
X235794093Y-128800013D01*
X235838121Y-128776479D01*
X235941985Y-128744973D01*
X236050000Y-128734334D01*
X236158014Y-128744973D01*
G37*
G36*
X239158014Y-128744973D02*
G01*
X239261878Y-128776479D01*
X239305907Y-128800013D01*
X239357599Y-128827643D01*
X239357601Y-128827644D01*
X239357600Y-128827644D01*
X239441501Y-128896499D01*
X239510356Y-128980400D01*
X239561521Y-129076121D01*
X239593027Y-129179985D01*
X239601000Y-129260933D01*
X239601000Y-129839067D01*
X239593027Y-129920015D01*
X239561521Y-130023879D01*
X239561519Y-130023882D01*
X239510357Y-130119600D01*
X239441501Y-130203501D01*
X239357600Y-130272357D01*
X239292748Y-130307021D01*
X239261879Y-130323521D01*
X239158015Y-130355027D01*
X239050000Y-130365666D01*
X238941986Y-130355027D01*
X238838122Y-130323521D01*
X238807253Y-130307021D01*
X238742401Y-130272357D01*
X238658500Y-130203501D01*
X238589643Y-130119599D01*
X238538481Y-130023882D01*
X238526954Y-129985882D01*
X238506973Y-129920015D01*
X238499000Y-129839067D01*
X238499000Y-129260934D01*
X238506973Y-129179986D01*
X238538479Y-129076122D01*
X238589644Y-128980400D01*
X238658499Y-128896499D01*
X238742400Y-128827644D01*
X238742399Y-128827644D01*
X238742401Y-128827643D01*
X238794093Y-128800013D01*
X238838121Y-128776479D01*
X238941985Y-128744973D01*
X239050000Y-128734334D01*
X239158014Y-128744973D01*
G37*
G36*
X183328571Y-126852863D02*
G01*
X183407023Y-126860590D01*
X183470765Y-126879926D01*
X183558013Y-126906392D01*
X183697165Y-126980771D01*
X183819133Y-127080867D01*
X183919229Y-127202835D01*
X183993608Y-127341987D01*
X184008875Y-127392318D01*
X184039410Y-127492977D01*
X184054875Y-127650000D01*
X184039410Y-127807023D01*
X184008875Y-127907682D01*
X183993608Y-127958013D01*
X183919229Y-128097165D01*
X183819133Y-128219133D01*
X183697165Y-128319229D01*
X183558013Y-128393608D01*
X183507682Y-128408875D01*
X183407023Y-128439410D01*
X183328571Y-128447137D01*
X183289346Y-128451000D01*
X182210654Y-128451000D01*
X182171429Y-128447137D01*
X182092977Y-128439410D01*
X181992318Y-128408875D01*
X181941987Y-128393608D01*
X181802835Y-128319229D01*
X181680867Y-128219133D01*
X181580771Y-128097165D01*
X181506392Y-127958013D01*
X181491125Y-127907682D01*
X181460590Y-127807023D01*
X181445125Y-127650000D01*
X181460590Y-127492977D01*
X181491125Y-127392318D01*
X181506392Y-127341987D01*
X181580771Y-127202835D01*
X181680867Y-127080867D01*
X181802835Y-126980771D01*
X181941987Y-126906392D01*
X182029235Y-126879926D01*
X182092977Y-126860590D01*
X182171429Y-126852863D01*
X182210654Y-126849000D01*
X183289346Y-126849000D01*
X183328571Y-126852863D01*
G37*
G36*
X202951000Y-128201000D02*
G01*
X200649000Y-128201000D01*
X200649000Y-127299000D01*
X202951000Y-127299000D01*
X202951000Y-128201000D01*
G37*
G36*
X232884999Y-126449737D02*
G01*
X232894608Y-126452652D01*
X232903472Y-126457390D01*
X232911237Y-126463763D01*
X232921884Y-126476737D01*
X232928053Y-126485968D01*
X232945381Y-126503294D01*
X232965756Y-126516907D01*
X232988395Y-126526283D01*
X233012428Y-126531063D01*
X233036932Y-126531062D01*
X233060965Y-126526280D01*
X233083604Y-126516902D01*
X233103978Y-126503287D01*
X233121304Y-126485959D01*
X233128175Y-126476683D01*
X233138726Y-126463800D01*
X233140103Y-126462668D01*
X233146484Y-126457419D01*
X233155339Y-126452674D01*
X233158377Y-126451749D01*
X233164915Y-126449758D01*
X233164918Y-126449758D01*
X233164950Y-126449748D01*
X233175000Y-126448753D01*
X233175065Y-126448753D01*
X233181175Y-126448148D01*
X234168860Y-126448148D01*
X234184999Y-126449737D01*
X234194608Y-126452652D01*
X234203472Y-126457390D01*
X234211237Y-126463763D01*
X234217610Y-126471528D01*
X234222348Y-126480392D01*
X234225263Y-126490001D01*
X234226852Y-126506140D01*
X234226852Y-127993860D01*
X234225263Y-128009999D01*
X234222348Y-128019608D01*
X234217610Y-128028472D01*
X234211237Y-128036237D01*
X234203472Y-128042610D01*
X234194608Y-128047348D01*
X234184999Y-128050263D01*
X234168860Y-128051852D01*
X233181140Y-128051852D01*
X233165001Y-128050263D01*
X233155392Y-128047348D01*
X233146528Y-128042610D01*
X233138788Y-128036258D01*
X233138787Y-128036257D01*
X233138763Y-128036237D01*
X233132360Y-128028427D01*
X233132323Y-128028372D01*
X233124520Y-128018853D01*
X233124489Y-128018878D01*
X233113147Y-128005028D01*
X233094221Y-127989463D01*
X233072623Y-127977889D01*
X233049181Y-127970751D01*
X233024798Y-127968324D01*
X233000409Y-127970700D01*
X232976953Y-127977789D01*
X232955330Y-127989318D01*
X232936372Y-128004843D01*
X232920807Y-128023769D01*
X232918971Y-128026825D01*
X232917582Y-128028514D01*
X232917581Y-128028516D01*
X232912485Y-128034712D01*
X232911200Y-128036274D01*
X232903425Y-128042642D01*
X232897517Y-128045791D01*
X232894562Y-128047367D01*
X232884981Y-128050262D01*
X232884915Y-128050282D01*
X232868887Y-128051852D01*
X231731140Y-128051852D01*
X231715001Y-128050263D01*
X231705392Y-128047348D01*
X231696528Y-128042610D01*
X231688763Y-128036237D01*
X231682390Y-128028472D01*
X231677652Y-128019608D01*
X231674737Y-128009999D01*
X231673148Y-127993860D01*
X231673148Y-126506140D01*
X231674737Y-126490001D01*
X231677652Y-126480392D01*
X231682390Y-126471528D01*
X231688763Y-126463763D01*
X231696528Y-126457390D01*
X231705392Y-126452652D01*
X231715001Y-126449737D01*
X231731140Y-126448148D01*
X232868860Y-126448148D01*
X232884999Y-126449737D01*
G37*
G36*
X188901000Y-127951000D02*
G01*
X187899000Y-127951000D01*
X187899000Y-126649000D01*
X188901000Y-126649000D01*
X188901000Y-127951000D01*
G37*
G36*
X185601000Y-127951000D02*
G01*
X184599000Y-127951000D01*
X184599000Y-126649000D01*
X185601000Y-126649000D01*
X185601000Y-127951000D01*
G37*
G36*
X241327142Y-126178242D02*
G01*
X241475101Y-126239529D01*
X241608255Y-126328499D01*
X241721501Y-126441745D01*
X241810471Y-126574899D01*
X241871758Y-126722858D01*
X241903000Y-126879925D01*
X241903000Y-127040075D01*
X241871758Y-127197142D01*
X241810471Y-127345101D01*
X241721501Y-127478255D01*
X241608255Y-127591501D01*
X241475101Y-127680471D01*
X241327142Y-127741758D01*
X241170075Y-127773000D01*
X241009925Y-127773000D01*
X240852858Y-127741758D01*
X240704899Y-127680471D01*
X240571745Y-127591501D01*
X240458499Y-127478255D01*
X240369529Y-127345101D01*
X240308242Y-127197142D01*
X240277000Y-127040075D01*
X240277000Y-126879925D01*
X240308242Y-126722858D01*
X240369529Y-126574899D01*
X240458499Y-126441745D01*
X240571745Y-126328499D01*
X240704899Y-126239529D01*
X240852858Y-126178242D01*
X241009925Y-126147000D01*
X241170075Y-126147000D01*
X241327142Y-126178242D01*
G37*
G36*
X236247142Y-126178242D02*
G01*
X236395101Y-126239529D01*
X236528255Y-126328499D01*
X236641501Y-126441745D01*
X236730471Y-126574899D01*
X236791758Y-126722858D01*
X236823000Y-126879925D01*
X236823000Y-127040075D01*
X236791758Y-127197142D01*
X236730471Y-127345101D01*
X236641501Y-127478255D01*
X236528255Y-127591501D01*
X236395101Y-127680471D01*
X236247142Y-127741758D01*
X236090075Y-127773000D01*
X235929925Y-127773000D01*
X235772858Y-127741758D01*
X235624899Y-127680471D01*
X235491745Y-127591501D01*
X235378499Y-127478255D01*
X235289529Y-127345101D01*
X235228242Y-127197142D01*
X235197000Y-127040075D01*
X235197000Y-126879925D01*
X235228242Y-126722858D01*
X235289529Y-126574899D01*
X235378499Y-126441745D01*
X235491745Y-126328499D01*
X235624899Y-126239529D01*
X235772858Y-126178242D01*
X235929925Y-126147000D01*
X236090075Y-126147000D01*
X236247142Y-126178242D01*
G37*
G36*
X238787142Y-126178242D02*
G01*
X238935101Y-126239529D01*
X239068255Y-126328499D01*
X239181501Y-126441745D01*
X239270471Y-126574899D01*
X239331758Y-126722858D01*
X239363000Y-126879925D01*
X239363000Y-127040075D01*
X239331758Y-127197142D01*
X239270471Y-127345101D01*
X239181501Y-127478255D01*
X239068255Y-127591501D01*
X238935101Y-127680471D01*
X238787142Y-127741758D01*
X238630075Y-127773000D01*
X238469925Y-127773000D01*
X238312858Y-127741758D01*
X238164899Y-127680471D01*
X238031745Y-127591501D01*
X237918499Y-127478255D01*
X237829529Y-127345101D01*
X237768242Y-127197142D01*
X237737000Y-127040075D01*
X237737000Y-126879925D01*
X237768242Y-126722858D01*
X237829529Y-126574899D01*
X237918499Y-126441745D01*
X238031745Y-126328499D01*
X238164899Y-126239529D01*
X238312858Y-126178242D01*
X238469925Y-126147000D01*
X238630075Y-126147000D01*
X238787142Y-126178242D01*
G37*
G36*
X207001000Y-127701000D02*
G01*
X206099000Y-127701000D01*
X206099000Y-126599000D01*
X207001000Y-126599000D01*
X207001000Y-127701000D01*
G37*
G36*
X205201000Y-127701000D02*
G01*
X204299000Y-127701000D01*
X204299000Y-126599000D01*
X205201000Y-126599000D01*
X205201000Y-127701000D01*
G37*
G36*
X228497699Y-125577285D02*
G01*
X228582023Y-125585590D01*
X228682682Y-125616125D01*
X228733013Y-125631392D01*
X228872165Y-125705771D01*
X228994133Y-125805867D01*
X229094229Y-125927835D01*
X229168608Y-126066987D01*
X229180778Y-126107107D01*
X229214410Y-126217977D01*
X229229875Y-126375000D01*
X229214410Y-126532023D01*
X229201403Y-126574900D01*
X229168608Y-126683013D01*
X229094229Y-126822165D01*
X228994133Y-126944133D01*
X228872165Y-127044229D01*
X228733013Y-127118608D01*
X228682682Y-127133875D01*
X228582023Y-127164410D01*
X228503571Y-127172137D01*
X228464346Y-127176000D01*
X227385654Y-127176000D01*
X227346429Y-127172137D01*
X227267977Y-127164410D01*
X227167318Y-127133875D01*
X227116987Y-127118608D01*
X226977835Y-127044229D01*
X226855867Y-126944133D01*
X226755771Y-126822165D01*
X226681392Y-126683013D01*
X226648597Y-126574900D01*
X226635590Y-126532023D01*
X226620125Y-126375000D01*
X226635590Y-126217977D01*
X226669222Y-126107107D01*
X226681392Y-126066987D01*
X226755771Y-125927835D01*
X226855867Y-125805867D01*
X226977835Y-125705771D01*
X227116987Y-125631392D01*
X227167318Y-125616125D01*
X227267977Y-125585590D01*
X227352301Y-125577285D01*
X227385654Y-125574000D01*
X228464346Y-125574000D01*
X228497699Y-125577285D01*
G37*
G36*
X212222125Y-126107107D02*
G01*
X211584315Y-126744917D01*
X210805083Y-125965685D01*
X211442893Y-125327875D01*
X212222125Y-126107107D01*
G37*
G36*
X202951000Y-126401000D02*
G01*
X200649000Y-126401000D01*
X200649000Y-125499000D01*
X202951000Y-125499000D01*
X202951000Y-126401000D01*
G37*
G36*
X190001000Y-124885462D02*
G01*
X190003402Y-124909848D01*
X190010515Y-124933297D01*
X190022066Y-124954908D01*
X190037611Y-124973850D01*
X190056553Y-124989395D01*
X190078164Y-125000946D01*
X190101613Y-125008059D01*
X190125999Y-125010461D01*
X190150385Y-125008059D01*
X190173834Y-125000946D01*
X190195445Y-124989395D01*
X190214387Y-124973850D01*
X190229932Y-124954908D01*
X190241483Y-124933297D01*
X190248596Y-124909848D01*
X190250396Y-124897713D01*
X190253565Y-124865532D01*
X190265296Y-124826862D01*
X190284346Y-124791223D01*
X190309983Y-124759983D01*
X190341223Y-124734346D01*
X190376862Y-124715296D01*
X190415532Y-124703565D01*
X190461888Y-124699000D01*
X191538112Y-124699000D01*
X191584468Y-124703565D01*
X191623138Y-124715296D01*
X191658777Y-124734346D01*
X191690017Y-124759983D01*
X191715654Y-124791223D01*
X191734704Y-124826862D01*
X191746435Y-124865532D01*
X191751000Y-124911888D01*
X191751000Y-125563112D01*
X191746435Y-125609468D01*
X191734704Y-125648138D01*
X191715654Y-125683777D01*
X191690017Y-125715017D01*
X191658777Y-125740654D01*
X191623138Y-125759704D01*
X191584468Y-125771435D01*
X191538112Y-125776000D01*
X190461888Y-125776000D01*
X190415532Y-125771435D01*
X190376862Y-125759704D01*
X190341223Y-125740654D01*
X190309983Y-125715017D01*
X190284346Y-125683777D01*
X190265296Y-125648138D01*
X190253565Y-125609468D01*
X190250396Y-125577287D01*
X190245616Y-125553253D01*
X190236239Y-125530615D01*
X190222625Y-125510240D01*
X190205298Y-125492913D01*
X190184924Y-125479299D01*
X190162285Y-125469922D01*
X190138252Y-125465141D01*
X190113748Y-125465141D01*
X190089714Y-125469921D01*
X190067076Y-125479298D01*
X190046701Y-125492912D01*
X190029374Y-125510239D01*
X190015760Y-125530613D01*
X190006383Y-125553252D01*
X190001602Y-125577285D01*
X190001000Y-125589538D01*
X190001000Y-126101000D01*
X188299000Y-126101000D01*
X188299000Y-124399000D01*
X190001000Y-124399000D01*
X190001000Y-124885462D01*
G37*
G36*
X198879591Y-124653085D02*
G01*
X198913569Y-124663393D01*
X198944890Y-124680134D01*
X198972339Y-124702661D01*
X198994866Y-124730110D01*
X199011607Y-124761431D01*
X199021915Y-124795409D01*
X199026000Y-124836890D01*
X199026000Y-125438110D01*
X199021915Y-125479591D01*
X199011607Y-125513569D01*
X198994866Y-125544890D01*
X198972339Y-125572339D01*
X198944890Y-125594866D01*
X198913569Y-125611607D01*
X198879591Y-125621915D01*
X198838110Y-125626000D01*
X198161890Y-125626000D01*
X198120409Y-125621915D01*
X198086431Y-125611607D01*
X198055110Y-125594866D01*
X198027661Y-125572339D01*
X198022624Y-125566201D01*
X198005297Y-125548874D01*
X197984923Y-125535261D01*
X197962284Y-125525883D01*
X197938251Y-125521103D01*
X197913747Y-125521103D01*
X197889713Y-125525884D01*
X197867074Y-125535261D01*
X197846700Y-125548875D01*
X197829373Y-125566202D01*
X197815760Y-125586576D01*
X197806382Y-125609215D01*
X197801000Y-125645500D01*
X197801000Y-125701000D01*
X195449000Y-125701000D01*
X195449000Y-125680999D01*
X195446598Y-125656613D01*
X195439485Y-125633164D01*
X195427934Y-125611553D01*
X195412389Y-125592611D01*
X195393447Y-125577066D01*
X195371836Y-125565515D01*
X195348387Y-125558402D01*
X195324001Y-125556000D01*
X194459000Y-125556000D01*
X194459000Y-124944000D01*
X195324001Y-124944000D01*
X195348387Y-124941598D01*
X195371836Y-124934485D01*
X195393447Y-124922934D01*
X195412389Y-124907389D01*
X195427934Y-124888447D01*
X195439485Y-124866836D01*
X195446598Y-124843387D01*
X195449000Y-124819001D01*
X195449000Y-124799000D01*
X197893390Y-124799000D01*
X197917776Y-124796598D01*
X197941225Y-124789485D01*
X197962836Y-124777934D01*
X197981778Y-124762389D01*
X198003629Y-124732926D01*
X198005134Y-124730110D01*
X198027661Y-124702661D01*
X198055110Y-124680134D01*
X198086431Y-124663393D01*
X198120409Y-124653085D01*
X198161890Y-124649000D01*
X198838110Y-124649000D01*
X198879591Y-124653085D01*
G37*
G36*
X211072125Y-124957107D02*
G01*
X210434315Y-125594917D01*
X209655083Y-124815685D01*
X210292893Y-124177875D01*
X211072125Y-124957107D01*
G37*
G36*
X192941000Y-125556000D02*
G01*
X192139000Y-125556000D01*
X192139000Y-124944000D01*
X192941000Y-124944000D01*
X192941000Y-125556000D01*
G37*
G36*
X213494917Y-124834315D02*
G01*
X212857107Y-125472125D01*
X212077875Y-124692893D01*
X212715685Y-124055083D01*
X213494917Y-124834315D01*
G37*
G36*
X232126000Y-125451000D02*
G01*
X230824000Y-125451000D01*
X230824000Y-124449000D01*
X232126000Y-124449000D01*
X232126000Y-125451000D01*
G37*
G36*
X204501000Y-125101000D02*
G01*
X203599000Y-125101000D01*
X203599000Y-120399000D01*
X204501000Y-120399000D01*
X204501000Y-125101000D01*
G37*
G36*
X202701000Y-125101000D02*
G01*
X201799000Y-125101000D01*
X201799000Y-120399000D01*
X202701000Y-120399000D01*
X202701000Y-125101000D01*
G37*
G36*
X228503571Y-123077863D02*
G01*
X228582023Y-123085590D01*
X228679515Y-123115164D01*
X228733013Y-123131392D01*
X228872165Y-123205771D01*
X228994133Y-123305867D01*
X229094229Y-123427835D01*
X229168608Y-123566987D01*
X229183875Y-123617318D01*
X229214410Y-123717977D01*
X229229875Y-123875000D01*
X229214410Y-124032023D01*
X229183875Y-124132682D01*
X229168608Y-124183013D01*
X229094229Y-124322165D01*
X228994133Y-124444133D01*
X228872165Y-124544229D01*
X228733013Y-124618608D01*
X228682682Y-124633875D01*
X228582023Y-124664410D01*
X228503571Y-124672137D01*
X228464346Y-124676000D01*
X227385654Y-124676000D01*
X227346429Y-124672137D01*
X227267977Y-124664410D01*
X227167318Y-124633875D01*
X227116987Y-124618608D01*
X226977835Y-124544229D01*
X226855867Y-124444133D01*
X226755771Y-124322165D01*
X226681392Y-124183013D01*
X226666125Y-124132682D01*
X226635590Y-124032023D01*
X226620125Y-123875000D01*
X226635590Y-123717977D01*
X226666125Y-123617318D01*
X226681392Y-123566987D01*
X226755771Y-123427835D01*
X226855867Y-123305867D01*
X226977835Y-123205771D01*
X227116987Y-123131392D01*
X227170485Y-123115164D01*
X227267977Y-123085590D01*
X227346429Y-123077863D01*
X227385654Y-123074000D01*
X228464346Y-123074000D01*
X228503571Y-123077863D01*
G37*
G36*
X192941000Y-124606000D02*
G01*
X192139000Y-124606000D01*
X192139000Y-123994000D01*
X192941000Y-123994000D01*
X192941000Y-124606000D01*
G37*
G36*
X195263402Y-124001613D02*
G01*
X195261000Y-124025999D01*
X195261000Y-124606000D01*
X194459000Y-124606000D01*
X194459000Y-123994000D01*
X195265711Y-123994000D01*
X195263402Y-124001613D01*
G37*
G36*
X212344917Y-123684315D02*
G01*
X211707107Y-124322125D01*
X210927875Y-123542893D01*
X211565685Y-122905083D01*
X212344917Y-123684315D01*
G37*
G36*
X197801000Y-123054500D02*
G01*
X197803402Y-123078886D01*
X197810515Y-123102335D01*
X197822066Y-123123946D01*
X197837611Y-123142888D01*
X197856553Y-123158433D01*
X197878164Y-123169984D01*
X197901613Y-123177097D01*
X197925999Y-123179499D01*
X197950385Y-123177097D01*
X197973834Y-123169984D01*
X197995445Y-123158433D01*
X198022624Y-123133799D01*
X198027661Y-123127661D01*
X198055110Y-123105134D01*
X198086431Y-123088393D01*
X198120409Y-123078085D01*
X198161890Y-123074000D01*
X198838110Y-123074000D01*
X198879591Y-123078085D01*
X198913569Y-123088393D01*
X198944890Y-123105134D01*
X198972339Y-123127661D01*
X198994866Y-123155110D01*
X199011607Y-123186431D01*
X199021915Y-123220409D01*
X199026000Y-123261890D01*
X199026000Y-123863110D01*
X199021915Y-123904591D01*
X199011607Y-123938569D01*
X198994866Y-123969890D01*
X198972339Y-123997339D01*
X198944890Y-124019866D01*
X198913569Y-124036607D01*
X198879591Y-124046915D01*
X198838110Y-124051000D01*
X198161890Y-124051000D01*
X198120409Y-124046915D01*
X198086431Y-124036607D01*
X198055110Y-124019866D01*
X198027661Y-123997339D01*
X198005134Y-123969890D01*
X198003629Y-123967074D01*
X197990015Y-123946700D01*
X197972688Y-123929373D01*
X197952313Y-123915759D01*
X197929674Y-123906382D01*
X197893390Y-123901000D01*
X195444289Y-123901000D01*
X195446598Y-123893387D01*
X195449000Y-123869001D01*
X195449000Y-123780999D01*
X195446598Y-123756613D01*
X195439485Y-123733164D01*
X195427934Y-123711553D01*
X195412389Y-123692611D01*
X195393447Y-123677066D01*
X195371836Y-123665515D01*
X195348387Y-123658402D01*
X195324001Y-123656000D01*
X194459000Y-123656000D01*
X194459000Y-123044000D01*
X195324001Y-123044000D01*
X195348387Y-123041598D01*
X195371836Y-123034485D01*
X195393447Y-123022934D01*
X195412389Y-123007389D01*
X195419274Y-122999000D01*
X197801000Y-122999000D01*
X197801000Y-123054500D01*
G37*
G36*
X191584468Y-122828565D02*
G01*
X191623138Y-122840296D01*
X191658777Y-122859346D01*
X191690017Y-122884983D01*
X191715654Y-122916223D01*
X191734704Y-122951862D01*
X191746435Y-122990532D01*
X191751000Y-123036888D01*
X191751000Y-123688112D01*
X191746435Y-123734468D01*
X191734704Y-123773138D01*
X191715654Y-123808777D01*
X191690017Y-123840017D01*
X191658777Y-123865654D01*
X191623138Y-123884704D01*
X191584468Y-123896435D01*
X191538112Y-123901000D01*
X190461888Y-123901000D01*
X190415532Y-123896435D01*
X190376862Y-123884704D01*
X190341223Y-123865654D01*
X190309983Y-123840017D01*
X190284346Y-123808777D01*
X190265296Y-123773138D01*
X190253565Y-123734468D01*
X190249000Y-123688112D01*
X190249000Y-123036888D01*
X190253565Y-122990532D01*
X190265296Y-122951862D01*
X190284346Y-122916223D01*
X190309983Y-122884983D01*
X190341223Y-122859346D01*
X190376862Y-122840296D01*
X190415532Y-122828565D01*
X190461888Y-122824000D01*
X191538112Y-122824000D01*
X191584468Y-122828565D01*
G37*
G36*
X192941000Y-123656000D02*
G01*
X192139000Y-123656000D01*
X192139000Y-123044000D01*
X192941000Y-123044000D01*
X192941000Y-123656000D01*
G37*
G36*
X189398228Y-121931703D02*
G01*
X189553100Y-121995853D01*
X189692481Y-122088985D01*
X189811015Y-122207519D01*
X189904147Y-122346900D01*
X189968297Y-122501772D01*
X190001000Y-122666184D01*
X190001000Y-122833816D01*
X189968297Y-122998228D01*
X189904147Y-123153100D01*
X189811015Y-123292481D01*
X189692481Y-123411015D01*
X189553100Y-123504147D01*
X189398228Y-123568297D01*
X189233816Y-123601000D01*
X189066184Y-123601000D01*
X188901772Y-123568297D01*
X188746900Y-123504147D01*
X188607519Y-123411015D01*
X188488985Y-123292481D01*
X188395853Y-123153100D01*
X188331703Y-122998228D01*
X188299000Y-122833816D01*
X188299000Y-122666184D01*
X188331703Y-122501772D01*
X188395853Y-122346900D01*
X188488985Y-122207519D01*
X188607519Y-122088985D01*
X188746900Y-121995853D01*
X188901772Y-121931703D01*
X189066184Y-121899000D01*
X189233816Y-121899000D01*
X189398228Y-121931703D01*
G37*
G36*
X210272125Y-122007107D02*
G01*
X210272125Y-122007108D01*
X210392893Y-122127876D01*
X210392893Y-122127875D01*
X211172125Y-122907107D01*
X210534315Y-123544917D01*
X209755083Y-122765685D01*
X209755084Y-122765685D01*
X209634316Y-122644917D01*
X209634315Y-122644917D01*
X208855083Y-121865685D01*
X209492893Y-121227875D01*
X210272125Y-122007107D01*
G37*
G36*
X183309652Y-121851000D02*
G01*
X183407023Y-121860590D01*
X183507682Y-121891125D01*
X183558013Y-121906392D01*
X183697165Y-121980771D01*
X183819133Y-122080867D01*
X183919229Y-122202835D01*
X183993608Y-122341987D01*
X183993608Y-122341988D01*
X184039410Y-122492977D01*
X184054875Y-122650000D01*
X184039410Y-122807023D01*
X184028043Y-122844495D01*
X183993608Y-122958013D01*
X183919229Y-123097165D01*
X183819133Y-123219133D01*
X183697165Y-123319229D01*
X183558013Y-123393608D01*
X183507682Y-123408875D01*
X183407023Y-123439410D01*
X183328571Y-123447137D01*
X183289346Y-123451000D01*
X182210654Y-123451000D01*
X182171429Y-123447137D01*
X182092977Y-123439410D01*
X181992318Y-123408875D01*
X181941987Y-123393608D01*
X181802835Y-123319229D01*
X181680867Y-123219133D01*
X181580771Y-123097165D01*
X181506392Y-122958013D01*
X181471957Y-122844495D01*
X181460590Y-122807023D01*
X181445125Y-122650000D01*
X181460590Y-122492977D01*
X181506392Y-122341988D01*
X181506392Y-122341987D01*
X181580771Y-122202835D01*
X181680867Y-122080867D01*
X181802835Y-121980771D01*
X181941987Y-121906392D01*
X181992318Y-121891125D01*
X182092977Y-121860590D01*
X182190348Y-121851000D01*
X182210654Y-121849000D01*
X183289346Y-121849000D01*
X183309652Y-121851000D01*
G37*
G36*
X207922125Y-121957107D02*
G01*
X207284315Y-122594917D01*
X206505083Y-121815685D01*
X207142893Y-121177875D01*
X207922125Y-121957107D01*
G37*
G36*
X194879591Y-121278085D02*
G01*
X194913569Y-121288393D01*
X194944890Y-121305134D01*
X194972339Y-121327661D01*
X194994866Y-121355110D01*
X195011607Y-121386431D01*
X195021915Y-121420409D01*
X195026000Y-121461890D01*
X195026000Y-122138110D01*
X195021915Y-122179591D01*
X195011607Y-122213569D01*
X194994866Y-122244890D01*
X194972339Y-122272339D01*
X194944890Y-122294866D01*
X194913569Y-122311607D01*
X194879591Y-122321915D01*
X194838110Y-122326000D01*
X194236890Y-122326000D01*
X194195409Y-122321915D01*
X194161431Y-122311607D01*
X194130110Y-122294866D01*
X194102661Y-122272339D01*
X194080134Y-122244890D01*
X194063393Y-122213569D01*
X194053085Y-122179591D01*
X194049000Y-122138110D01*
X194049000Y-121461890D01*
X194053085Y-121420409D01*
X194063393Y-121386431D01*
X194080134Y-121355110D01*
X194102661Y-121327661D01*
X194130110Y-121305134D01*
X194161431Y-121288393D01*
X194195409Y-121278085D01*
X194236890Y-121274000D01*
X194838110Y-121274000D01*
X194879591Y-121278085D01*
G37*
G36*
X193304591Y-121278085D02*
G01*
X193338569Y-121288393D01*
X193369890Y-121305134D01*
X193397339Y-121327661D01*
X193419866Y-121355110D01*
X193436607Y-121386431D01*
X193446915Y-121420409D01*
X193451000Y-121461890D01*
X193451000Y-122138110D01*
X193446915Y-122179591D01*
X193436607Y-122213569D01*
X193419866Y-122244890D01*
X193397339Y-122272339D01*
X193369890Y-122294866D01*
X193338569Y-122311607D01*
X193304591Y-122321915D01*
X193263110Y-122326000D01*
X192661890Y-122326000D01*
X192620409Y-122321915D01*
X192586431Y-122311607D01*
X192555110Y-122294866D01*
X192527661Y-122272339D01*
X192505134Y-122244890D01*
X192488393Y-122213569D01*
X192478085Y-122179591D01*
X192474000Y-122138110D01*
X192474000Y-121461890D01*
X192478085Y-121420409D01*
X192488393Y-121386431D01*
X192505134Y-121355110D01*
X192527661Y-121327661D01*
X192555110Y-121305134D01*
X192586431Y-121288393D01*
X192620409Y-121278085D01*
X192661890Y-121274000D01*
X193263110Y-121274000D01*
X193304591Y-121278085D01*
G37*
G36*
X211544917Y-120734315D02*
G01*
X211544917Y-120734316D01*
X211665685Y-120855084D01*
X211665685Y-120855083D01*
X212444917Y-121634315D01*
X211807107Y-122272125D01*
X211027875Y-121492893D01*
X211027876Y-121492893D01*
X210907108Y-121372125D01*
X210907107Y-121372125D01*
X210127875Y-120592893D01*
X210765685Y-119955083D01*
X211544917Y-120734315D01*
G37*
G36*
X228503571Y-120577863D02*
G01*
X228582023Y-120585590D01*
X228682682Y-120616125D01*
X228733013Y-120631392D01*
X228832024Y-120684315D01*
X228872165Y-120705771D01*
X228994133Y-120805867D01*
X229094229Y-120927835D01*
X229094230Y-120927837D01*
X229113762Y-120964378D01*
X229127376Y-120984753D01*
X229144703Y-121002080D01*
X229165077Y-121015693D01*
X229187716Y-121025071D01*
X229211749Y-121029851D01*
X229236253Y-121029851D01*
X229260287Y-121025070D01*
X229282925Y-121015693D01*
X229303300Y-121002079D01*
X229320627Y-120984752D01*
X229334240Y-120964378D01*
X229340610Y-120949000D01*
X230451000Y-120949000D01*
X230451000Y-121851000D01*
X229349000Y-121851000D01*
X229349000Y-121844546D01*
X229346598Y-121820160D01*
X229339485Y-121796711D01*
X229327934Y-121775100D01*
X229312389Y-121756158D01*
X229293447Y-121740613D01*
X229271836Y-121729062D01*
X229248387Y-121721949D01*
X229224001Y-121719547D01*
X229199615Y-121721949D01*
X229176166Y-121729062D01*
X229154555Y-121740613D01*
X229135613Y-121756158D01*
X229113762Y-121785622D01*
X229097746Y-121815585D01*
X229094229Y-121822165D01*
X229058513Y-121865685D01*
X228994133Y-121944133D01*
X228872165Y-122044229D01*
X228733013Y-122118608D01*
X228682682Y-122133875D01*
X228582023Y-122164410D01*
X228503571Y-122172137D01*
X228464346Y-122176000D01*
X227385654Y-122176000D01*
X227346429Y-122172137D01*
X227267977Y-122164410D01*
X227167318Y-122133875D01*
X227116987Y-122118608D01*
X226977835Y-122044229D01*
X226855867Y-121944133D01*
X226755771Y-121822165D01*
X226681392Y-121683013D01*
X226655907Y-121599000D01*
X226635590Y-121532023D01*
X226620125Y-121375000D01*
X226635590Y-121217977D01*
X226681392Y-121066988D01*
X226681392Y-121066987D01*
X226755771Y-120927835D01*
X226855867Y-120805867D01*
X226977835Y-120705771D01*
X227116987Y-120631392D01*
X227167318Y-120616125D01*
X227267977Y-120585590D01*
X227346429Y-120577863D01*
X227385654Y-120574000D01*
X228464346Y-120574000D01*
X228503571Y-120577863D01*
G37*
G36*
X232126000Y-122151000D02*
G01*
X230824000Y-122151000D01*
X230824000Y-121149000D01*
X232126000Y-121149000D01*
X232126000Y-122151000D01*
G37*
G36*
X220344917Y-121065685D02*
G01*
X219565685Y-121844917D01*
X218927875Y-121207107D01*
X219707107Y-120427875D01*
X220344917Y-121065685D01*
G37*
G36*
X209194917Y-120684315D02*
G01*
X208557107Y-121322125D01*
X207777875Y-120542893D01*
X208415685Y-119905083D01*
X209194917Y-120684315D01*
G37*
G36*
X195684468Y-119903565D02*
G01*
X195723138Y-119915296D01*
X195758777Y-119934346D01*
X195790017Y-119959983D01*
X195815654Y-119991223D01*
X195834704Y-120026862D01*
X195846435Y-120065532D01*
X195851000Y-120111888D01*
X195851000Y-120763112D01*
X195846435Y-120809468D01*
X195834704Y-120848138D01*
X195815654Y-120883777D01*
X195790017Y-120915017D01*
X195758777Y-120940654D01*
X195723138Y-120959704D01*
X195684468Y-120971435D01*
X195638112Y-120976000D01*
X194561888Y-120976000D01*
X194515532Y-120971435D01*
X194476862Y-120959704D01*
X194441223Y-120940654D01*
X194409983Y-120915017D01*
X194384346Y-120883777D01*
X194365296Y-120848138D01*
X194353565Y-120809468D01*
X194349000Y-120763112D01*
X194349000Y-120111888D01*
X194353565Y-120065532D01*
X194365296Y-120026862D01*
X194384346Y-119991223D01*
X194409983Y-119959983D01*
X194441223Y-119934346D01*
X194476862Y-119915296D01*
X194515532Y-119903565D01*
X194561888Y-119899000D01*
X195638112Y-119899000D01*
X195684468Y-119903565D01*
G37*
G36*
X183323958Y-119352409D02*
G01*
X183407023Y-119360590D01*
X183507682Y-119391125D01*
X183558013Y-119406392D01*
X183697165Y-119480771D01*
X183819133Y-119580867D01*
X183919229Y-119702835D01*
X183993608Y-119841987D01*
X183993608Y-119841988D01*
X184039410Y-119992977D01*
X184054875Y-120150000D01*
X184039410Y-120307023D01*
X184013816Y-120391396D01*
X183993608Y-120458013D01*
X183919229Y-120597165D01*
X183819133Y-120719133D01*
X183697165Y-120819229D01*
X183558013Y-120893608D01*
X183507682Y-120908875D01*
X183407023Y-120939410D01*
X183328571Y-120947137D01*
X183289346Y-120951000D01*
X182210654Y-120951000D01*
X182171429Y-120947137D01*
X182092977Y-120939410D01*
X181992318Y-120908875D01*
X181941987Y-120893608D01*
X181802835Y-120819229D01*
X181680867Y-120719133D01*
X181580771Y-120597165D01*
X181506392Y-120458013D01*
X181486184Y-120391396D01*
X181460590Y-120307023D01*
X181445125Y-120150000D01*
X181460590Y-119992977D01*
X181506392Y-119841988D01*
X181506392Y-119841987D01*
X181580771Y-119702835D01*
X181680867Y-119580867D01*
X181802835Y-119480771D01*
X181941987Y-119406392D01*
X181992318Y-119391125D01*
X182092977Y-119360590D01*
X182176042Y-119352409D01*
X182210654Y-119349000D01*
X183289346Y-119349000D01*
X183323958Y-119352409D01*
G37*
G36*
X219072125Y-119792893D02*
G01*
X218292893Y-120572125D01*
X217655083Y-119934315D01*
X218434315Y-119155083D01*
X219072125Y-119792893D01*
G37*
G36*
X176552585Y-117378802D02*
G01*
X176702410Y-117408604D01*
X176984674Y-117525521D01*
X177238705Y-117695259D01*
X177454741Y-117911295D01*
X177624479Y-118165326D01*
X177741396Y-118447590D01*
X177765146Y-118566988D01*
X177801000Y-118747239D01*
X177801000Y-119052761D01*
X177784793Y-119134240D01*
X177741396Y-119352410D01*
X177624479Y-119634674D01*
X177454741Y-119888705D01*
X177238705Y-120104741D01*
X176984674Y-120274479D01*
X176702410Y-120391396D01*
X176552585Y-120421198D01*
X176402761Y-120451000D01*
X176097239Y-120451000D01*
X175947415Y-120421198D01*
X175797590Y-120391396D01*
X175515326Y-120274479D01*
X175261295Y-120104741D01*
X175045259Y-119888705D01*
X174875521Y-119634674D01*
X174758604Y-119352410D01*
X174715207Y-119134240D01*
X174699000Y-119052761D01*
X174699000Y-118747239D01*
X174734854Y-118566988D01*
X174758604Y-118447590D01*
X174875521Y-118165326D01*
X175045259Y-117911295D01*
X175261295Y-117695259D01*
X175515326Y-117525521D01*
X175797590Y-117408604D01*
X175947415Y-117378802D01*
X176097239Y-117349000D01*
X176402761Y-117349000D01*
X176552585Y-117378802D01*
G37*
G36*
X238787142Y-118558242D02*
G01*
X238935101Y-118619529D01*
X239068255Y-118708499D01*
X239181501Y-118821745D01*
X239270471Y-118954899D01*
X239331758Y-119102858D01*
X239363000Y-119259925D01*
X239363000Y-119420075D01*
X239331758Y-119577142D01*
X239270471Y-119725101D01*
X239181501Y-119858255D01*
X239068255Y-119971501D01*
X238935101Y-120060471D01*
X238787142Y-120121758D01*
X238630075Y-120153000D01*
X238469925Y-120153000D01*
X238312858Y-120121758D01*
X238164899Y-120060471D01*
X238031745Y-119971501D01*
X237918499Y-119858255D01*
X237829529Y-119725101D01*
X237768242Y-119577142D01*
X237737000Y-119420075D01*
X237737000Y-119259925D01*
X237768242Y-119102858D01*
X237829529Y-118954899D01*
X237918499Y-118821745D01*
X238031745Y-118708499D01*
X238164899Y-118619529D01*
X238312858Y-118558242D01*
X238469925Y-118527000D01*
X238630075Y-118527000D01*
X238787142Y-118558242D01*
G37*
G36*
X236247142Y-118558242D02*
G01*
X236395101Y-118619529D01*
X236528255Y-118708499D01*
X236641501Y-118821745D01*
X236730471Y-118954899D01*
X236791758Y-119102858D01*
X236823000Y-119259925D01*
X236823000Y-119420075D01*
X236791758Y-119577142D01*
X236730471Y-119725101D01*
X236641501Y-119858255D01*
X236528255Y-119971501D01*
X236395101Y-120060471D01*
X236247142Y-120121758D01*
X236090075Y-120153000D01*
X235929925Y-120153000D01*
X235772858Y-120121758D01*
X235624899Y-120060471D01*
X235491745Y-119971501D01*
X235378499Y-119858255D01*
X235289529Y-119725101D01*
X235228242Y-119577142D01*
X235197000Y-119420075D01*
X235197000Y-119259925D01*
X235228242Y-119102858D01*
X235289529Y-118954899D01*
X235378499Y-118821745D01*
X235491745Y-118708499D01*
X235624899Y-118619529D01*
X235772858Y-118558242D01*
X235929925Y-118527000D01*
X236090075Y-118527000D01*
X236247142Y-118558242D01*
G37*
G36*
X241327142Y-118558242D02*
G01*
X241475101Y-118619529D01*
X241608255Y-118708499D01*
X241721501Y-118821745D01*
X241810471Y-118954899D01*
X241871758Y-119102858D01*
X241903000Y-119259925D01*
X241903000Y-119420075D01*
X241871758Y-119577142D01*
X241810471Y-119725101D01*
X241721501Y-119858255D01*
X241608255Y-119971501D01*
X241475101Y-120060471D01*
X241327142Y-120121758D01*
X241170075Y-120153000D01*
X241009925Y-120153000D01*
X240852858Y-120121758D01*
X240704899Y-120060471D01*
X240571745Y-119971501D01*
X240458499Y-119858255D01*
X240369529Y-119725101D01*
X240308242Y-119577142D01*
X240277000Y-119420075D01*
X240277000Y-119259925D01*
X240308242Y-119102858D01*
X240369529Y-118954899D01*
X240458499Y-118821745D01*
X240571745Y-118708499D01*
X240704899Y-118619529D01*
X240852858Y-118558242D01*
X241009925Y-118527000D01*
X241170075Y-118527000D01*
X241327142Y-118558242D01*
G37*
G36*
X228472265Y-118074780D02*
G01*
X228582023Y-118085590D01*
X228682682Y-118116125D01*
X228733013Y-118131392D01*
X228872165Y-118205771D01*
X228994133Y-118305867D01*
X229094229Y-118427835D01*
X229168608Y-118566987D01*
X229168608Y-118566988D01*
X229214410Y-118717977D01*
X229221317Y-118788110D01*
X229229875Y-118875000D01*
X229216407Y-119011749D01*
X229216407Y-119036253D01*
X229221187Y-119060287D01*
X229230565Y-119082925D01*
X229244179Y-119103300D01*
X229261506Y-119120627D01*
X229281880Y-119134240D01*
X229304519Y-119143618D01*
X229340804Y-119149000D01*
X230451000Y-119149000D01*
X230451000Y-120051000D01*
X229349000Y-120051000D01*
X229349000Y-119344546D01*
X229346598Y-119320160D01*
X229339485Y-119296711D01*
X229327934Y-119275100D01*
X229312389Y-119256158D01*
X229293447Y-119240613D01*
X229271836Y-119229062D01*
X229248387Y-119221949D01*
X229224001Y-119219547D01*
X229199615Y-119221949D01*
X229176166Y-119229062D01*
X229154555Y-119240613D01*
X229135613Y-119256158D01*
X229113762Y-119285622D01*
X229097746Y-119315585D01*
X229094229Y-119322165D01*
X229013877Y-119420075D01*
X228994133Y-119444133D01*
X228872165Y-119544229D01*
X228733013Y-119618608D01*
X228682682Y-119633875D01*
X228582023Y-119664410D01*
X228503571Y-119672137D01*
X228464346Y-119676000D01*
X227385654Y-119676000D01*
X227346429Y-119672137D01*
X227267977Y-119664410D01*
X227167318Y-119633875D01*
X227116987Y-119618608D01*
X226977835Y-119544229D01*
X226855867Y-119444133D01*
X226755771Y-119322165D01*
X226681392Y-119183013D01*
X226655129Y-119096435D01*
X226635590Y-119032023D01*
X226620125Y-118875000D01*
X226635590Y-118717977D01*
X226681392Y-118566988D01*
X226681392Y-118566987D01*
X226755771Y-118427835D01*
X226855867Y-118305867D01*
X226977835Y-118205771D01*
X227116987Y-118131392D01*
X227167318Y-118116125D01*
X227267977Y-118085590D01*
X227377735Y-118074780D01*
X227385654Y-118074000D01*
X228464346Y-118074000D01*
X228472265Y-118074780D01*
G37*
G36*
X209544917Y-118765685D02*
G01*
X208765685Y-119544917D01*
X208127875Y-118907107D01*
X208907107Y-118127875D01*
X209544917Y-118765685D01*
G37*
G36*
X195684468Y-118028565D02*
G01*
X195723138Y-118040296D01*
X195758777Y-118059346D01*
X195790017Y-118084983D01*
X195815654Y-118116223D01*
X195834704Y-118151862D01*
X195846435Y-118190532D01*
X195851000Y-118236888D01*
X195851000Y-118888112D01*
X195846435Y-118934468D01*
X195834704Y-118973138D01*
X195815654Y-119008777D01*
X195790017Y-119040017D01*
X195758777Y-119065654D01*
X195723138Y-119084704D01*
X195684468Y-119096435D01*
X195638112Y-119101000D01*
X194561888Y-119101000D01*
X194515532Y-119096435D01*
X194476862Y-119084704D01*
X194441223Y-119065654D01*
X194409983Y-119040017D01*
X194384346Y-119008777D01*
X194365296Y-118973138D01*
X194353565Y-118934468D01*
X194349000Y-118888112D01*
X194349000Y-118236888D01*
X194353565Y-118190532D01*
X194365296Y-118151862D01*
X194384346Y-118116223D01*
X194409983Y-118084983D01*
X194441223Y-118059346D01*
X194476862Y-118040296D01*
X194515532Y-118028565D01*
X194561888Y-118024000D01*
X195638112Y-118024000D01*
X195684468Y-118028565D01*
G37*
G36*
X201979591Y-117928085D02*
G01*
X202013569Y-117938393D01*
X202044890Y-117955134D01*
X202072339Y-117977661D01*
X202094866Y-118005110D01*
X202111607Y-118036431D01*
X202121915Y-118070409D01*
X202126000Y-118111890D01*
X202126000Y-118788110D01*
X202121915Y-118829591D01*
X202111607Y-118863569D01*
X202094866Y-118894890D01*
X202072339Y-118922339D01*
X202044890Y-118944866D01*
X202013569Y-118961607D01*
X201979591Y-118971915D01*
X201938110Y-118976000D01*
X201336890Y-118976000D01*
X201295409Y-118971915D01*
X201261431Y-118961607D01*
X201230110Y-118944866D01*
X201202661Y-118922339D01*
X201180134Y-118894890D01*
X201163393Y-118863569D01*
X201153085Y-118829591D01*
X201149000Y-118788110D01*
X201149000Y-118111890D01*
X201153085Y-118070409D01*
X201163393Y-118036431D01*
X201180134Y-118005110D01*
X201202661Y-117977661D01*
X201230110Y-117955134D01*
X201261431Y-117938393D01*
X201295409Y-117928085D01*
X201336890Y-117924000D01*
X201938110Y-117924000D01*
X201979591Y-117928085D01*
G37*
G36*
X197454591Y-117928085D02*
G01*
X197488569Y-117938393D01*
X197519890Y-117955134D01*
X197547339Y-117977661D01*
X197569866Y-118005110D01*
X197586607Y-118036431D01*
X197596915Y-118070409D01*
X197601000Y-118111890D01*
X197601000Y-118788110D01*
X197596915Y-118829591D01*
X197586607Y-118863569D01*
X197569866Y-118894890D01*
X197547339Y-118922339D01*
X197519890Y-118944866D01*
X197488569Y-118961607D01*
X197454591Y-118971915D01*
X197413110Y-118976000D01*
X196811890Y-118976000D01*
X196770409Y-118971915D01*
X196736431Y-118961607D01*
X196705110Y-118944866D01*
X196677661Y-118922339D01*
X196655134Y-118894890D01*
X196638393Y-118863569D01*
X196628085Y-118829591D01*
X196624000Y-118788110D01*
X196624000Y-118111890D01*
X196628085Y-118070409D01*
X196638393Y-118036431D01*
X196655134Y-118005110D01*
X196677661Y-117977661D01*
X196705110Y-117955134D01*
X196736431Y-117938393D01*
X196770409Y-117928085D01*
X196811890Y-117924000D01*
X197413110Y-117924000D01*
X197454591Y-117928085D01*
G37*
G36*
X199029591Y-117928085D02*
G01*
X199063569Y-117938393D01*
X199094890Y-117955134D01*
X199122339Y-117977661D01*
X199144866Y-118005110D01*
X199161607Y-118036431D01*
X199171915Y-118070409D01*
X199176000Y-118111890D01*
X199176000Y-118788110D01*
X199171915Y-118829591D01*
X199161607Y-118863569D01*
X199144866Y-118894890D01*
X199122339Y-118922339D01*
X199094890Y-118944866D01*
X199063569Y-118961607D01*
X199029591Y-118971915D01*
X198988110Y-118976000D01*
X198386890Y-118976000D01*
X198345409Y-118971915D01*
X198311431Y-118961607D01*
X198280110Y-118944866D01*
X198252661Y-118922339D01*
X198230134Y-118894890D01*
X198213393Y-118863569D01*
X198203085Y-118829591D01*
X198199000Y-118788110D01*
X198199000Y-118111890D01*
X198203085Y-118070409D01*
X198213393Y-118036431D01*
X198230134Y-118005110D01*
X198252661Y-117977661D01*
X198280110Y-117955134D01*
X198311431Y-117938393D01*
X198345409Y-117928085D01*
X198386890Y-117924000D01*
X198988110Y-117924000D01*
X199029591Y-117928085D01*
G37*
G36*
X200404591Y-117928085D02*
G01*
X200438569Y-117938393D01*
X200469890Y-117955134D01*
X200497339Y-117977661D01*
X200519866Y-118005110D01*
X200536607Y-118036431D01*
X200546915Y-118070409D01*
X200551000Y-118111890D01*
X200551000Y-118788110D01*
X200546915Y-118829591D01*
X200536607Y-118863569D01*
X200519866Y-118894890D01*
X200497339Y-118922339D01*
X200469890Y-118944866D01*
X200438569Y-118961607D01*
X200404591Y-118971915D01*
X200363110Y-118976000D01*
X199761890Y-118976000D01*
X199720409Y-118971915D01*
X199686431Y-118961607D01*
X199655110Y-118944866D01*
X199627661Y-118922339D01*
X199605134Y-118894890D01*
X199588393Y-118863569D01*
X199578085Y-118829591D01*
X199574000Y-118788110D01*
X199574000Y-118111890D01*
X199578085Y-118070409D01*
X199588393Y-118036431D01*
X199605134Y-118005110D01*
X199627661Y-117977661D01*
X199655110Y-117955134D01*
X199686431Y-117938393D01*
X199720409Y-117928085D01*
X199761890Y-117924000D01*
X200363110Y-117924000D01*
X200404591Y-117928085D01*
G37*
G36*
X183328571Y-116852863D02*
G01*
X183407023Y-116860590D01*
X183507682Y-116891125D01*
X183558013Y-116906392D01*
X183697165Y-116980771D01*
X183819133Y-117080867D01*
X183919229Y-117202835D01*
X183993608Y-117341987D01*
X183995735Y-117349000D01*
X184039410Y-117492977D01*
X184054875Y-117650000D01*
X184039410Y-117807023D01*
X184016742Y-117881750D01*
X183993608Y-117958013D01*
X183919229Y-118097165D01*
X183819133Y-118219133D01*
X183697165Y-118319229D01*
X183558013Y-118393608D01*
X183507682Y-118408875D01*
X183407023Y-118439410D01*
X183328571Y-118447137D01*
X183289346Y-118451000D01*
X182210654Y-118451000D01*
X182171429Y-118447137D01*
X182092977Y-118439410D01*
X181992318Y-118408875D01*
X181941987Y-118393608D01*
X181802835Y-118319229D01*
X181680867Y-118219133D01*
X181580771Y-118097165D01*
X181506392Y-117958013D01*
X181483258Y-117881750D01*
X181460590Y-117807023D01*
X181445125Y-117650000D01*
X181460590Y-117492977D01*
X181504265Y-117349000D01*
X181506392Y-117341987D01*
X181580771Y-117202835D01*
X181680867Y-117080867D01*
X181802835Y-116980771D01*
X181941987Y-116906392D01*
X181992318Y-116891125D01*
X182092977Y-116860590D01*
X182171429Y-116852863D01*
X182210654Y-116849000D01*
X183289346Y-116849000D01*
X183328571Y-116852863D01*
G37*
G36*
X208272125Y-117492893D02*
G01*
X207492893Y-118272125D01*
X206855083Y-117634315D01*
X207634315Y-116855083D01*
X208272125Y-117492893D01*
G37*
G36*
X180979591Y-117153085D02*
G01*
X181013569Y-117163393D01*
X181044890Y-117180134D01*
X181072339Y-117202661D01*
X181094866Y-117230110D01*
X181111607Y-117261431D01*
X181121915Y-117295409D01*
X181126000Y-117336890D01*
X181126000Y-117938110D01*
X181121915Y-117979591D01*
X181111607Y-118013569D01*
X181094866Y-118044890D01*
X181072339Y-118072339D01*
X181044890Y-118094866D01*
X181013569Y-118111607D01*
X180979591Y-118121915D01*
X180938110Y-118126000D01*
X180261890Y-118126000D01*
X180220409Y-118121915D01*
X180186431Y-118111607D01*
X180155110Y-118094866D01*
X180127661Y-118072339D01*
X180105134Y-118044890D01*
X180088393Y-118013569D01*
X180078085Y-117979591D01*
X180074000Y-117938110D01*
X180074000Y-117336890D01*
X180078085Y-117295409D01*
X180088393Y-117261431D01*
X180105134Y-117230110D01*
X180127661Y-117202661D01*
X180155110Y-117180134D01*
X180186431Y-117163393D01*
X180220409Y-117153085D01*
X180261890Y-117149000D01*
X180938110Y-117149000D01*
X180979591Y-117153085D01*
G37*
G36*
X215272125Y-116057107D02*
G01*
X215272125Y-116057108D01*
X215279505Y-116064488D01*
X215298447Y-116080033D01*
X215320058Y-116091584D01*
X215343507Y-116098697D01*
X215365922Y-116100905D01*
X215392893Y-116127876D01*
X215392893Y-116127875D01*
X216172125Y-116907107D01*
X215534315Y-117544917D01*
X214755083Y-116765685D01*
X214755084Y-116765685D01*
X214747703Y-116758304D01*
X214728761Y-116742759D01*
X214707150Y-116731208D01*
X214683701Y-116724095D01*
X214661286Y-116721887D01*
X214634316Y-116694917D01*
X214634315Y-116694917D01*
X213855083Y-115915685D01*
X214492893Y-115277875D01*
X215272125Y-116057107D01*
G37*
G36*
X199851000Y-117501000D02*
G01*
X198249000Y-117501000D01*
X198249000Y-115399000D01*
X199851000Y-115399000D01*
X199851000Y-117501000D01*
G37*
G36*
X202151000Y-117501000D02*
G01*
X200549000Y-117501000D01*
X200549000Y-115399000D01*
X202151000Y-115399000D01*
X202151000Y-117501000D01*
G37*
G36*
X197551000Y-117501000D02*
G01*
X195949000Y-117501000D01*
X195949000Y-115399000D01*
X197551000Y-115399000D01*
X197551000Y-117501000D01*
G37*
G36*
X180979591Y-115578085D02*
G01*
X181013569Y-115588393D01*
X181044890Y-115605134D01*
X181072339Y-115627661D01*
X181094866Y-115655110D01*
X181111607Y-115686431D01*
X181121915Y-115720409D01*
X181126000Y-115761890D01*
X181126000Y-116363110D01*
X181121915Y-116404591D01*
X181111607Y-116438569D01*
X181094866Y-116469890D01*
X181072339Y-116497339D01*
X181044890Y-116519866D01*
X181013569Y-116536607D01*
X180979591Y-116546915D01*
X180938110Y-116551000D01*
X180261890Y-116551000D01*
X180220409Y-116546915D01*
X180186431Y-116536607D01*
X180155110Y-116519866D01*
X180127661Y-116497339D01*
X180105134Y-116469890D01*
X180088393Y-116438569D01*
X180078085Y-116404591D01*
X180074000Y-116363110D01*
X180074000Y-115761890D01*
X180078085Y-115720409D01*
X180088393Y-115686431D01*
X180105134Y-115655110D01*
X180127661Y-115627661D01*
X180155110Y-115605134D01*
X180186431Y-115588393D01*
X180220409Y-115578085D01*
X180261890Y-115574000D01*
X180938110Y-115574000D01*
X180979591Y-115578085D01*
G37*
G36*
X216544917Y-114784315D02*
G01*
X216544917Y-114784316D01*
X216552297Y-114791696D01*
X216571239Y-114807241D01*
X216592850Y-114818792D01*
X216616299Y-114825905D01*
X216638714Y-114828113D01*
X216665685Y-114855084D01*
X216665685Y-114855083D01*
X217444917Y-115634315D01*
X216807107Y-116272125D01*
X216027875Y-115492893D01*
X216027876Y-115492893D01*
X216020495Y-115485512D01*
X216001553Y-115469967D01*
X215979942Y-115458416D01*
X215956493Y-115451303D01*
X215934078Y-115449095D01*
X215907108Y-115422125D01*
X215907107Y-115422125D01*
X215127875Y-114642893D01*
X215765685Y-114005083D01*
X216544917Y-114784315D01*
G37*
G36*
X183328571Y-114352863D02*
G01*
X183407023Y-114360590D01*
X183507682Y-114391125D01*
X183558013Y-114406392D01*
X183697165Y-114480771D01*
X183819133Y-114580867D01*
X183919229Y-114702835D01*
X183993608Y-114841987D01*
X184008875Y-114892318D01*
X184039410Y-114992977D01*
X184054875Y-115150000D01*
X184039410Y-115307023D01*
X184014522Y-115389067D01*
X183993608Y-115458013D01*
X183919229Y-115597165D01*
X183819133Y-115719133D01*
X183697165Y-115819229D01*
X183558013Y-115893608D01*
X183520369Y-115905027D01*
X183407023Y-115939410D01*
X183328571Y-115947137D01*
X183289346Y-115951000D01*
X182210654Y-115951000D01*
X182171429Y-115947137D01*
X182092977Y-115939410D01*
X181979631Y-115905027D01*
X181941987Y-115893608D01*
X181802835Y-115819229D01*
X181680867Y-115719133D01*
X181580771Y-115597165D01*
X181506392Y-115458013D01*
X181485478Y-115389067D01*
X181460590Y-115307023D01*
X181445125Y-115150000D01*
X181460590Y-114992977D01*
X181491125Y-114892318D01*
X181506392Y-114841987D01*
X181580771Y-114702835D01*
X181680867Y-114580867D01*
X181802835Y-114480771D01*
X181941987Y-114406392D01*
X181992318Y-114391125D01*
X182092977Y-114360590D01*
X182171429Y-114352863D01*
X182210654Y-114349000D01*
X183289346Y-114349000D01*
X183328571Y-114352863D01*
G37*
G36*
X228758015Y-114294973D02*
G01*
X228861879Y-114326479D01*
X228889055Y-114341005D01*
X228957600Y-114377643D01*
X229041501Y-114446499D01*
X229110357Y-114530400D01*
X229137332Y-114580867D01*
X229161521Y-114626121D01*
X229193027Y-114729985D01*
X229201000Y-114810933D01*
X229201000Y-115389067D01*
X229193027Y-115470015D01*
X229161521Y-115573879D01*
X229139453Y-115615164D01*
X229118102Y-115655110D01*
X229110356Y-115669600D01*
X229041501Y-115753501D01*
X228972645Y-115810009D01*
X228957599Y-115822357D01*
X228905907Y-115849987D01*
X228861878Y-115873521D01*
X228758014Y-115905027D01*
X228650000Y-115915666D01*
X228541985Y-115905027D01*
X228438121Y-115873521D01*
X228394093Y-115849987D01*
X228342401Y-115822357D01*
X228329643Y-115811887D01*
X228258499Y-115753501D01*
X228189644Y-115669600D01*
X228170784Y-115634315D01*
X228140728Y-115578085D01*
X228138479Y-115573878D01*
X228106973Y-115470014D01*
X228099000Y-115389066D01*
X228099000Y-114810933D01*
X228106973Y-114729985D01*
X228138480Y-114626121D01*
X228138481Y-114626118D01*
X228189643Y-114530401D01*
X228258500Y-114446499D01*
X228342401Y-114377643D01*
X228410946Y-114341005D01*
X228438122Y-114326479D01*
X228541986Y-114294973D01*
X228650000Y-114284334D01*
X228758015Y-114294973D01*
G37*
G36*
X230258015Y-114294973D02*
G01*
X230361879Y-114326479D01*
X230389055Y-114341005D01*
X230457600Y-114377643D01*
X230541501Y-114446499D01*
X230610357Y-114530400D01*
X230637332Y-114580867D01*
X230661521Y-114626121D01*
X230693027Y-114729985D01*
X230701000Y-114810933D01*
X230701000Y-115389067D01*
X230693027Y-115470015D01*
X230661521Y-115573879D01*
X230639453Y-115615164D01*
X230618102Y-115655110D01*
X230610356Y-115669600D01*
X230541501Y-115753501D01*
X230472645Y-115810009D01*
X230457599Y-115822357D01*
X230405907Y-115849987D01*
X230361878Y-115873521D01*
X230258014Y-115905027D01*
X230150000Y-115915666D01*
X230041985Y-115905027D01*
X229938121Y-115873521D01*
X229894093Y-115849987D01*
X229842401Y-115822357D01*
X229829643Y-115811887D01*
X229758499Y-115753501D01*
X229689644Y-115669600D01*
X229670784Y-115634315D01*
X229640728Y-115578085D01*
X229638479Y-115573878D01*
X229606973Y-115470014D01*
X229599000Y-115389066D01*
X229599000Y-114810933D01*
X229606973Y-114729985D01*
X229638480Y-114626121D01*
X229638481Y-114626118D01*
X229689643Y-114530401D01*
X229758500Y-114446499D01*
X229842401Y-114377643D01*
X229910946Y-114341005D01*
X229938122Y-114326479D01*
X230041986Y-114294973D01*
X230150000Y-114284334D01*
X230258015Y-114294973D01*
G37*
G36*
X227258015Y-114294973D02*
G01*
X227361879Y-114326479D01*
X227389055Y-114341005D01*
X227457600Y-114377643D01*
X227541501Y-114446499D01*
X227610357Y-114530400D01*
X227637332Y-114580867D01*
X227661521Y-114626121D01*
X227693027Y-114729985D01*
X227701000Y-114810933D01*
X227701000Y-115389067D01*
X227693027Y-115470015D01*
X227661521Y-115573879D01*
X227639453Y-115615164D01*
X227618102Y-115655110D01*
X227610356Y-115669600D01*
X227541501Y-115753501D01*
X227472645Y-115810009D01*
X227457599Y-115822357D01*
X227405907Y-115849987D01*
X227361878Y-115873521D01*
X227258014Y-115905027D01*
X227150000Y-115915666D01*
X227041985Y-115905027D01*
X226938121Y-115873521D01*
X226894093Y-115849987D01*
X226842401Y-115822357D01*
X226829643Y-115811887D01*
X226758499Y-115753501D01*
X226689644Y-115669600D01*
X226670784Y-115634315D01*
X226640728Y-115578085D01*
X226638479Y-115573878D01*
X226606973Y-115470014D01*
X226599000Y-115389066D01*
X226599000Y-114810933D01*
X226606973Y-114729985D01*
X226638480Y-114626121D01*
X226638481Y-114626118D01*
X226689643Y-114530401D01*
X226758500Y-114446499D01*
X226842401Y-114377643D01*
X226910946Y-114341005D01*
X226938122Y-114326479D01*
X227041986Y-114294973D01*
X227150000Y-114284334D01*
X227258015Y-114294973D01*
G37*
G36*
X231758015Y-114294973D02*
G01*
X231861879Y-114326479D01*
X231889055Y-114341005D01*
X231957600Y-114377643D01*
X232041501Y-114446499D01*
X232110357Y-114530400D01*
X232137332Y-114580867D01*
X232161521Y-114626121D01*
X232193027Y-114729985D01*
X232201000Y-114810933D01*
X232201000Y-115389067D01*
X232193027Y-115470015D01*
X232161521Y-115573879D01*
X232139453Y-115615164D01*
X232118102Y-115655110D01*
X232110356Y-115669600D01*
X232041501Y-115753501D01*
X231972645Y-115810009D01*
X231957599Y-115822357D01*
X231905907Y-115849987D01*
X231861878Y-115873521D01*
X231758014Y-115905027D01*
X231650000Y-115915666D01*
X231541985Y-115905027D01*
X231438121Y-115873521D01*
X231394093Y-115849987D01*
X231342401Y-115822357D01*
X231329643Y-115811887D01*
X231258499Y-115753501D01*
X231189644Y-115669600D01*
X231170784Y-115634315D01*
X231140728Y-115578085D01*
X231138479Y-115573878D01*
X231106973Y-115470014D01*
X231099000Y-115389066D01*
X231099000Y-114810933D01*
X231106973Y-114729985D01*
X231138480Y-114626121D01*
X231138481Y-114626118D01*
X231189643Y-114530401D01*
X231258500Y-114446499D01*
X231342401Y-114377643D01*
X231410946Y-114341005D01*
X231438122Y-114326479D01*
X231541986Y-114294973D01*
X231650000Y-114284334D01*
X231758015Y-114294973D01*
G37*
G36*
X233258015Y-114294973D02*
G01*
X233361879Y-114326479D01*
X233389055Y-114341005D01*
X233457600Y-114377643D01*
X233541501Y-114446499D01*
X233610357Y-114530400D01*
X233637332Y-114580867D01*
X233661521Y-114626121D01*
X233693027Y-114729985D01*
X233701000Y-114810933D01*
X233701000Y-115389067D01*
X233693027Y-115470015D01*
X233661521Y-115573879D01*
X233639453Y-115615164D01*
X233618102Y-115655110D01*
X233610356Y-115669600D01*
X233541501Y-115753501D01*
X233472645Y-115810009D01*
X233457599Y-115822357D01*
X233405907Y-115849987D01*
X233361878Y-115873521D01*
X233258014Y-115905027D01*
X233150000Y-115915666D01*
X233041985Y-115905027D01*
X232938121Y-115873521D01*
X232894093Y-115849987D01*
X232842401Y-115822357D01*
X232829643Y-115811887D01*
X232758499Y-115753501D01*
X232689644Y-115669600D01*
X232670784Y-115634315D01*
X232640728Y-115578085D01*
X232638479Y-115573878D01*
X232606973Y-115470014D01*
X232599000Y-115389066D01*
X232599000Y-114810933D01*
X232606973Y-114729985D01*
X232638480Y-114626121D01*
X232638481Y-114626118D01*
X232689643Y-114530401D01*
X232758500Y-114446499D01*
X232842401Y-114377643D01*
X232910946Y-114341005D01*
X232938122Y-114326479D01*
X233041986Y-114294973D01*
X233150000Y-114284334D01*
X233258015Y-114294973D01*
G37*
G36*
X234758015Y-114294973D02*
G01*
X234861879Y-114326479D01*
X234889055Y-114341005D01*
X234957600Y-114377643D01*
X235041501Y-114446499D01*
X235110357Y-114530400D01*
X235137332Y-114580867D01*
X235161521Y-114626121D01*
X235193027Y-114729985D01*
X235201000Y-114810933D01*
X235201000Y-115389067D01*
X235193027Y-115470015D01*
X235161521Y-115573879D01*
X235139453Y-115615164D01*
X235118102Y-115655110D01*
X235110356Y-115669600D01*
X235041501Y-115753501D01*
X234972645Y-115810009D01*
X234957599Y-115822357D01*
X234905907Y-115849987D01*
X234861878Y-115873521D01*
X234758014Y-115905027D01*
X234650000Y-115915666D01*
X234541985Y-115905027D01*
X234438121Y-115873521D01*
X234394093Y-115849987D01*
X234342401Y-115822357D01*
X234329643Y-115811887D01*
X234258499Y-115753501D01*
X234189644Y-115669600D01*
X234170784Y-115634315D01*
X234140728Y-115578085D01*
X234138479Y-115573878D01*
X234106973Y-115470014D01*
X234099000Y-115389066D01*
X234099000Y-114810933D01*
X234106973Y-114729985D01*
X234138480Y-114626121D01*
X234138481Y-114626118D01*
X234189643Y-114530401D01*
X234258500Y-114446499D01*
X234342401Y-114377643D01*
X234410946Y-114341005D01*
X234438122Y-114326479D01*
X234541986Y-114294973D01*
X234650000Y-114284334D01*
X234758015Y-114294973D01*
G37*
G36*
X240501000Y-115751000D02*
G01*
X239599000Y-115751000D01*
X239599000Y-114649000D01*
X240501000Y-114649000D01*
X240501000Y-115751000D01*
G37*
G36*
X242301000Y-115751000D02*
G01*
X241399000Y-115751000D01*
X241399000Y-114649000D01*
X242301000Y-114649000D01*
X242301000Y-115751000D01*
G37*
G36*
X213794917Y-114515685D02*
G01*
X213015685Y-115294917D01*
X212377875Y-114657107D01*
X213157107Y-113877875D01*
X213794917Y-114515685D01*
G37*
G36*
X192609928Y-114506764D02*
G01*
X192631009Y-114513160D01*
X192650445Y-114523548D01*
X192667476Y-114537524D01*
X192681452Y-114554555D01*
X192691840Y-114573991D01*
X192698236Y-114595072D01*
X192701000Y-114623140D01*
X192701000Y-115086860D01*
X192698236Y-115114928D01*
X192691840Y-115136009D01*
X192681452Y-115155445D01*
X192667476Y-115172476D01*
X192650445Y-115186452D01*
X192631009Y-115196840D01*
X192609928Y-115203236D01*
X192581860Y-115206000D01*
X190768140Y-115206000D01*
X190740072Y-115203236D01*
X190718991Y-115196840D01*
X190699555Y-115186452D01*
X190682524Y-115172476D01*
X190668548Y-115155445D01*
X190658160Y-115136009D01*
X190651764Y-115114928D01*
X190649000Y-115086860D01*
X190649000Y-114623140D01*
X190651764Y-114595072D01*
X190658160Y-114573991D01*
X190668548Y-114554555D01*
X190682524Y-114537524D01*
X190699555Y-114523548D01*
X190718991Y-114513160D01*
X190740072Y-114506764D01*
X190768140Y-114504000D01*
X192581860Y-114504000D01*
X192609928Y-114506764D01*
G37*
G36*
X187659928Y-114506764D02*
G01*
X187681009Y-114513160D01*
X187700445Y-114523548D01*
X187717476Y-114537524D01*
X187731452Y-114554555D01*
X187741840Y-114573991D01*
X187748236Y-114595072D01*
X187751000Y-114623140D01*
X187751000Y-115086860D01*
X187748236Y-115114928D01*
X187741840Y-115136009D01*
X187731452Y-115155445D01*
X187717476Y-115172476D01*
X187700445Y-115186452D01*
X187681009Y-115196840D01*
X187659928Y-115203236D01*
X187631860Y-115206000D01*
X185818140Y-115206000D01*
X185790072Y-115203236D01*
X185768991Y-115196840D01*
X185749555Y-115186452D01*
X185732524Y-115172476D01*
X185718548Y-115155445D01*
X185708160Y-115136009D01*
X185701764Y-115114928D01*
X185699000Y-115086860D01*
X185699000Y-114623140D01*
X185701764Y-114595072D01*
X185708160Y-114573991D01*
X185718548Y-114554555D01*
X185732524Y-114537524D01*
X185749555Y-114523548D01*
X185768991Y-114513160D01*
X185790072Y-114506764D01*
X185818140Y-114504000D01*
X187631860Y-114504000D01*
X187659928Y-114506764D01*
G37*
G36*
X193979591Y-113253085D02*
G01*
X194013569Y-113263393D01*
X194044890Y-113280134D01*
X194072339Y-113302661D01*
X194094866Y-113330110D01*
X194111607Y-113361431D01*
X194121915Y-113395409D01*
X194126000Y-113436890D01*
X194126000Y-114038110D01*
X194121915Y-114079591D01*
X194111607Y-114113569D01*
X194094866Y-114144890D01*
X194072339Y-114172339D01*
X194044890Y-114194866D01*
X194013569Y-114211607D01*
X193979591Y-114221915D01*
X193938110Y-114226000D01*
X193261890Y-114226000D01*
X193220409Y-114221915D01*
X193186431Y-114211607D01*
X193155110Y-114194866D01*
X193127661Y-114172339D01*
X193105134Y-114144890D01*
X193088393Y-114113569D01*
X193078085Y-114079591D01*
X193074000Y-114038110D01*
X193074000Y-113436890D01*
X193078085Y-113395409D01*
X193088393Y-113361431D01*
X193105134Y-113330110D01*
X193127661Y-113302661D01*
X193155110Y-113280134D01*
X193186431Y-113263393D01*
X193220409Y-113253085D01*
X193261890Y-113249000D01*
X193938110Y-113249000D01*
X193979591Y-113253085D01*
G37*
G36*
X212522125Y-113242893D02*
G01*
X211742893Y-114022125D01*
X211105083Y-113384315D01*
X211884315Y-112605083D01*
X212522125Y-113242893D01*
G37*
G36*
X187659928Y-113236764D02*
G01*
X187681009Y-113243160D01*
X187700445Y-113253548D01*
X187717476Y-113267524D01*
X187731452Y-113284555D01*
X187741840Y-113303991D01*
X187748236Y-113325072D01*
X187751000Y-113353140D01*
X187751000Y-113816860D01*
X187748236Y-113844928D01*
X187741840Y-113866009D01*
X187731452Y-113885445D01*
X187717476Y-113902476D01*
X187700445Y-113916452D01*
X187681009Y-113926840D01*
X187659928Y-113933236D01*
X187631860Y-113936000D01*
X185818140Y-113936000D01*
X185790072Y-113933236D01*
X185768991Y-113926840D01*
X185749555Y-113916452D01*
X185732524Y-113902476D01*
X185718548Y-113885445D01*
X185708160Y-113866009D01*
X185701764Y-113844928D01*
X185699000Y-113816860D01*
X185699000Y-113353140D01*
X185701764Y-113325072D01*
X185708160Y-113303991D01*
X185718548Y-113284555D01*
X185732524Y-113267524D01*
X185749555Y-113253548D01*
X185768991Y-113243160D01*
X185790072Y-113236764D01*
X185818140Y-113234000D01*
X187631860Y-113234000D01*
X187659928Y-113236764D01*
G37*
G36*
X192609928Y-113236764D02*
G01*
X192631009Y-113243160D01*
X192650445Y-113253548D01*
X192667476Y-113267524D01*
X192681452Y-113284555D01*
X192691840Y-113303991D01*
X192698236Y-113325072D01*
X192701000Y-113353140D01*
X192701000Y-113816860D01*
X192698236Y-113844928D01*
X192691840Y-113866009D01*
X192681452Y-113885445D01*
X192667476Y-113902476D01*
X192650445Y-113916452D01*
X192631009Y-113926840D01*
X192609928Y-113933236D01*
X192581860Y-113936000D01*
X190768140Y-113936000D01*
X190740072Y-113933236D01*
X190718991Y-113926840D01*
X190699555Y-113916452D01*
X190682524Y-113902476D01*
X190668548Y-113885445D01*
X190658160Y-113866009D01*
X190651764Y-113844928D01*
X190649000Y-113816860D01*
X190649000Y-113353140D01*
X190651764Y-113325072D01*
X190658160Y-113303991D01*
X190668548Y-113284555D01*
X190682524Y-113267524D01*
X190699555Y-113253548D01*
X190718991Y-113243160D01*
X190740072Y-113236764D01*
X190768140Y-113234000D01*
X192581860Y-113234000D01*
X192609928Y-113236764D01*
G37*
G36*
X223237142Y-111718242D02*
G01*
X223385101Y-111779529D01*
X223518255Y-111868499D01*
X223631501Y-111981745D01*
X223720471Y-112114899D01*
X223781758Y-112262858D01*
X223813000Y-112419925D01*
X223813000Y-112580075D01*
X223781758Y-112737142D01*
X223720471Y-112885101D01*
X223631501Y-113018255D01*
X223518255Y-113131501D01*
X223385101Y-113220471D01*
X223237142Y-113281758D01*
X223080075Y-113313000D01*
X222919925Y-113313000D01*
X222762858Y-113281758D01*
X222614899Y-113220471D01*
X222481745Y-113131501D01*
X222368499Y-113018255D01*
X222279529Y-112885101D01*
X222218242Y-112737142D01*
X222187000Y-112580075D01*
X222187000Y-112419925D01*
X222218242Y-112262858D01*
X222279529Y-112114899D01*
X222368499Y-111981745D01*
X222481745Y-111868499D01*
X222614899Y-111779529D01*
X222762858Y-111718242D01*
X222919925Y-111687000D01*
X223080075Y-111687000D01*
X223237142Y-111718242D01*
G37*
G36*
X221327142Y-111718242D02*
G01*
X221475101Y-111779529D01*
X221608255Y-111868499D01*
X221721501Y-111981745D01*
X221810471Y-112114899D01*
X221871758Y-112262858D01*
X221903000Y-112419925D01*
X221903000Y-112580075D01*
X221871758Y-112737142D01*
X221810471Y-112885101D01*
X221721501Y-113018255D01*
X221608255Y-113131501D01*
X221475101Y-113220471D01*
X221327142Y-113281758D01*
X221170075Y-113313000D01*
X221009925Y-113313000D01*
X220852858Y-113281758D01*
X220704899Y-113220471D01*
X220571745Y-113131501D01*
X220458499Y-113018255D01*
X220369529Y-112885101D01*
X220308242Y-112737142D01*
X220277000Y-112580075D01*
X220277000Y-112419925D01*
X220308242Y-112262858D01*
X220369529Y-112114899D01*
X220458499Y-111981745D01*
X220571745Y-111868499D01*
X220704899Y-111779529D01*
X220852858Y-111718242D01*
X221009925Y-111687000D01*
X221170075Y-111687000D01*
X221327142Y-111718242D01*
G37*
G36*
X225147142Y-111718242D02*
G01*
X225295101Y-111779529D01*
X225428255Y-111868499D01*
X225541501Y-111981745D01*
X225630471Y-112114899D01*
X225691758Y-112262858D01*
X225723000Y-112419925D01*
X225723000Y-112580075D01*
X225691758Y-112737142D01*
X225630471Y-112885101D01*
X225541501Y-113018255D01*
X225428255Y-113131501D01*
X225295101Y-113220471D01*
X225147142Y-113281758D01*
X224990075Y-113313000D01*
X224829925Y-113313000D01*
X224672858Y-113281758D01*
X224524899Y-113220471D01*
X224391745Y-113131501D01*
X224278499Y-113018255D01*
X224189529Y-112885101D01*
X224128242Y-112737142D01*
X224097000Y-112580075D01*
X224097000Y-112419925D01*
X224128242Y-112262858D01*
X224189529Y-112114899D01*
X224278499Y-111981745D01*
X224391745Y-111868499D01*
X224524899Y-111779529D01*
X224672858Y-111718242D01*
X224829925Y-111687000D01*
X224990075Y-111687000D01*
X225147142Y-111718242D01*
G37*
G36*
X187659928Y-111966764D02*
G01*
X187681009Y-111973160D01*
X187700445Y-111983548D01*
X187717476Y-111997524D01*
X187731452Y-112014555D01*
X187741840Y-112033991D01*
X187748236Y-112055072D01*
X187751000Y-112083140D01*
X187751000Y-112546860D01*
X187748236Y-112574928D01*
X187741840Y-112596009D01*
X187731452Y-112615445D01*
X187717476Y-112632476D01*
X187700445Y-112646452D01*
X187681009Y-112656840D01*
X187659928Y-112663236D01*
X187631860Y-112666000D01*
X185818140Y-112666000D01*
X185790072Y-112663236D01*
X185768991Y-112656840D01*
X185749555Y-112646452D01*
X185732524Y-112632476D01*
X185718548Y-112615445D01*
X185708160Y-112596009D01*
X185701764Y-112574928D01*
X185699000Y-112546860D01*
X185699000Y-112083140D01*
X185701764Y-112055072D01*
X185708160Y-112033991D01*
X185718548Y-112014555D01*
X185732524Y-111997524D01*
X185749555Y-111983548D01*
X185768991Y-111973160D01*
X185790072Y-111966764D01*
X185818140Y-111964000D01*
X187631860Y-111964000D01*
X187659928Y-111966764D01*
G37*
G36*
X192609928Y-111966764D02*
G01*
X192631009Y-111973160D01*
X192650445Y-111983548D01*
X192667476Y-111997524D01*
X192681452Y-112014555D01*
X192691840Y-112033991D01*
X192698236Y-112055072D01*
X192701000Y-112083140D01*
X192701000Y-112546860D01*
X192698236Y-112574928D01*
X192691840Y-112596009D01*
X192681452Y-112615445D01*
X192667476Y-112632476D01*
X192650445Y-112646452D01*
X192631009Y-112656840D01*
X192609928Y-112663236D01*
X192581860Y-112666000D01*
X190768140Y-112666000D01*
X190740072Y-112663236D01*
X190718991Y-112656840D01*
X190699555Y-112646452D01*
X190682524Y-112632476D01*
X190668548Y-112615445D01*
X190658160Y-112596009D01*
X190651764Y-112574928D01*
X190649000Y-112546860D01*
X190649000Y-112083140D01*
X190651764Y-112055072D01*
X190658160Y-112033991D01*
X190668548Y-112014555D01*
X190682524Y-111997524D01*
X190699555Y-111983548D01*
X190718991Y-111973160D01*
X190740072Y-111966764D01*
X190768140Y-111964000D01*
X192581860Y-111964000D01*
X192609928Y-111966764D01*
G37*
G36*
X193979591Y-111678085D02*
G01*
X194013569Y-111688393D01*
X194044890Y-111705134D01*
X194072339Y-111727661D01*
X194094866Y-111755110D01*
X194111607Y-111786431D01*
X194121915Y-111820409D01*
X194126000Y-111861890D01*
X194126000Y-112463110D01*
X194121915Y-112504591D01*
X194111607Y-112538569D01*
X194094866Y-112569890D01*
X194072339Y-112597339D01*
X194044890Y-112619866D01*
X194013569Y-112636607D01*
X193979591Y-112646915D01*
X193938110Y-112651000D01*
X193261890Y-112651000D01*
X193220409Y-112646915D01*
X193186431Y-112636607D01*
X193155110Y-112619866D01*
X193127661Y-112597339D01*
X193105134Y-112569890D01*
X193088393Y-112538569D01*
X193078085Y-112504591D01*
X193074000Y-112463110D01*
X193074000Y-111861890D01*
X193078085Y-111820409D01*
X193088393Y-111786431D01*
X193105134Y-111755110D01*
X193127661Y-111727661D01*
X193155110Y-111705134D01*
X193186431Y-111688393D01*
X193220409Y-111678085D01*
X193261890Y-111674000D01*
X193938110Y-111674000D01*
X193979591Y-111678085D01*
G37*
G36*
X242301000Y-112326000D02*
G01*
X241399000Y-112326000D01*
X241399000Y-111224000D01*
X242301000Y-111224000D01*
X242301000Y-112326000D01*
G37*
G36*
X240501000Y-112326000D02*
G01*
X239599000Y-112326000D01*
X239599000Y-111224000D01*
X240501000Y-111224000D01*
X240501000Y-112326000D01*
G37*
G36*
X192609928Y-110696764D02*
G01*
X192631009Y-110703160D01*
X192650445Y-110713548D01*
X192667476Y-110727524D01*
X192681452Y-110744555D01*
X192691840Y-110763991D01*
X192698236Y-110785072D01*
X192701000Y-110813140D01*
X192701000Y-111276860D01*
X192698236Y-111304928D01*
X192691840Y-111326009D01*
X192681452Y-111345445D01*
X192667476Y-111362476D01*
X192650445Y-111376452D01*
X192631009Y-111386840D01*
X192609928Y-111393236D01*
X192581860Y-111396000D01*
X190768140Y-111396000D01*
X190740072Y-111393236D01*
X190718991Y-111386840D01*
X190699555Y-111376452D01*
X190682524Y-111362476D01*
X190668548Y-111345445D01*
X190658160Y-111326009D01*
X190651764Y-111304928D01*
X190649000Y-111276860D01*
X190649000Y-110813140D01*
X190651764Y-110785072D01*
X190658160Y-110763991D01*
X190668548Y-110744555D01*
X190682524Y-110727524D01*
X190699555Y-110713548D01*
X190718991Y-110703160D01*
X190740072Y-110696764D01*
X190768140Y-110694000D01*
X192581860Y-110694000D01*
X192609928Y-110696764D01*
G37*
G36*
X187659928Y-110696764D02*
G01*
X187681009Y-110703160D01*
X187700445Y-110713548D01*
X187717476Y-110727524D01*
X187731452Y-110744555D01*
X187741840Y-110763991D01*
X187748236Y-110785072D01*
X187751000Y-110813140D01*
X187751000Y-111276860D01*
X187748236Y-111304928D01*
X187741840Y-111326009D01*
X187731452Y-111345445D01*
X187717476Y-111362476D01*
X187700445Y-111376452D01*
X187681009Y-111386840D01*
X187659928Y-111393236D01*
X187631860Y-111396000D01*
X185818140Y-111396000D01*
X185790072Y-111393236D01*
X185768991Y-111386840D01*
X185749555Y-111376452D01*
X185732524Y-111362476D01*
X185718548Y-111345445D01*
X185708160Y-111326009D01*
X185701764Y-111304928D01*
X185699000Y-111276860D01*
X185699000Y-110813140D01*
X185701764Y-110785072D01*
X185708160Y-110763991D01*
X185718548Y-110744555D01*
X185732524Y-110727524D01*
X185749555Y-110713548D01*
X185768991Y-110703160D01*
X185790072Y-110696764D01*
X185818140Y-110694000D01*
X187631860Y-110694000D01*
X187659928Y-110696764D01*
G37*
G36*
X225254591Y-110278085D02*
G01*
X225288569Y-110288393D01*
X225319890Y-110305134D01*
X225347339Y-110327661D01*
X225369866Y-110355110D01*
X225386607Y-110386431D01*
X225396915Y-110420409D01*
X225401000Y-110461890D01*
X225401000Y-111138110D01*
X225396915Y-111179591D01*
X225386607Y-111213569D01*
X225369866Y-111244890D01*
X225347339Y-111272339D01*
X225319890Y-111294866D01*
X225288569Y-111311607D01*
X225254591Y-111321915D01*
X225213110Y-111326000D01*
X224611890Y-111326000D01*
X224570409Y-111321915D01*
X224536431Y-111311607D01*
X224505110Y-111294866D01*
X224477661Y-111272339D01*
X224455134Y-111244890D01*
X224438393Y-111213569D01*
X224428085Y-111179591D01*
X224424000Y-111138110D01*
X224424000Y-110461890D01*
X224428085Y-110420409D01*
X224438393Y-110386431D01*
X224455134Y-110355110D01*
X224477661Y-110327661D01*
X224505110Y-110305134D01*
X224536431Y-110288393D01*
X224570409Y-110278085D01*
X224611890Y-110274000D01*
X225213110Y-110274000D01*
X225254591Y-110278085D01*
G37*
G36*
X226829591Y-110278085D02*
G01*
X226863569Y-110288393D01*
X226894890Y-110305134D01*
X226922339Y-110327661D01*
X226944866Y-110355110D01*
X226961607Y-110386431D01*
X226971915Y-110420409D01*
X226976000Y-110461890D01*
X226976000Y-111138110D01*
X226971915Y-111179591D01*
X226961607Y-111213569D01*
X226944866Y-111244890D01*
X226922339Y-111272339D01*
X226894890Y-111294866D01*
X226863569Y-111311607D01*
X226829591Y-111321915D01*
X226788110Y-111326000D01*
X226186890Y-111326000D01*
X226145409Y-111321915D01*
X226111431Y-111311607D01*
X226080110Y-111294866D01*
X226052661Y-111272339D01*
X226030134Y-111244890D01*
X226013393Y-111213569D01*
X226003085Y-111179591D01*
X225999000Y-111138110D01*
X225999000Y-110461890D01*
X226003085Y-110420409D01*
X226013393Y-110386431D01*
X226030134Y-110355110D01*
X226052661Y-110327661D01*
X226080110Y-110305134D01*
X226111431Y-110288393D01*
X226145409Y-110278085D01*
X226186890Y-110274000D01*
X226788110Y-110274000D01*
X226829591Y-110278085D01*
G37*
G36*
X201251000Y-108926000D02*
G01*
X201125999Y-108926000D01*
X201101613Y-108928402D01*
X201078164Y-108935515D01*
X201056553Y-108947066D01*
X201037611Y-108962611D01*
X201022066Y-108981553D01*
X201010515Y-109003164D01*
X201003402Y-109026613D01*
X201001000Y-109050999D01*
X201001000Y-111201000D01*
X197099000Y-111201000D01*
X197099000Y-109099000D01*
X198774001Y-109099000D01*
X198798387Y-109096598D01*
X198821836Y-109089485D01*
X198843447Y-109077934D01*
X198862389Y-109062389D01*
X198877934Y-109043447D01*
X198889485Y-109021836D01*
X198896598Y-108998387D01*
X198899000Y-108974001D01*
X198899000Y-108024000D01*
X201251000Y-108024000D01*
X201251000Y-108926000D01*
G37*
G36*
X234459425Y-108729599D02*
G01*
X234583621Y-108754302D01*
X234720022Y-108810801D01*
X234842779Y-108892825D01*
X234947175Y-108997221D01*
X235029199Y-109119978D01*
X235085698Y-109256379D01*
X235114500Y-109401181D01*
X235114500Y-109548819D01*
X235085698Y-109693621D01*
X235029199Y-109830022D01*
X234947175Y-109952779D01*
X234842779Y-110057175D01*
X234720022Y-110139199D01*
X234583621Y-110195698D01*
X234459425Y-110220401D01*
X234438820Y-110224500D01*
X234291180Y-110224500D01*
X234270575Y-110220401D01*
X234146379Y-110195698D01*
X234009978Y-110139199D01*
X233887221Y-110057175D01*
X233782825Y-109952779D01*
X233700801Y-109830022D01*
X233644302Y-109693621D01*
X233615500Y-109548819D01*
X233615500Y-109401181D01*
X233644302Y-109256379D01*
X233700801Y-109119978D01*
X233782825Y-108997221D01*
X233887221Y-108892825D01*
X234009978Y-108810801D01*
X234146379Y-108754302D01*
X234270575Y-108729599D01*
X234291180Y-108725500D01*
X234438820Y-108725500D01*
X234459425Y-108729599D01*
G37*
G36*
X231919425Y-108729599D02*
G01*
X232043621Y-108754302D01*
X232180022Y-108810801D01*
X232302779Y-108892825D01*
X232407175Y-108997221D01*
X232489199Y-109119978D01*
X232545698Y-109256379D01*
X232574500Y-109401181D01*
X232574500Y-109548819D01*
X232545698Y-109693621D01*
X232489199Y-109830022D01*
X232407175Y-109952779D01*
X232302779Y-110057175D01*
X232180022Y-110139199D01*
X232043621Y-110195698D01*
X231919425Y-110220401D01*
X231898820Y-110224500D01*
X231751180Y-110224500D01*
X231730575Y-110220401D01*
X231606379Y-110195698D01*
X231469978Y-110139199D01*
X231347221Y-110057175D01*
X231242825Y-109952779D01*
X231160801Y-109830022D01*
X231104302Y-109693621D01*
X231075500Y-109548819D01*
X231075500Y-109401181D01*
X231104302Y-109256379D01*
X231160801Y-109119978D01*
X231242825Y-108997221D01*
X231347221Y-108892825D01*
X231469978Y-108810801D01*
X231606379Y-108754302D01*
X231730575Y-108729599D01*
X231751180Y-108725500D01*
X231898820Y-108725500D01*
X231919425Y-108729599D01*
G37*
G36*
X230034500Y-110224500D02*
G01*
X228535500Y-110224500D01*
X228535500Y-108725500D01*
X230034500Y-108725500D01*
X230034500Y-110224500D01*
G37*
G36*
X213501000Y-109051000D02*
G01*
X211149000Y-109051000D01*
X211149000Y-108149000D01*
X213501000Y-108149000D01*
X213501000Y-109051000D01*
G37*
G36*
X189001000Y-109051000D02*
G01*
X186649000Y-109051000D01*
X186649000Y-108149000D01*
X189001000Y-108149000D01*
X189001000Y-109051000D01*
G37*
G36*
X217451000Y-108501000D02*
G01*
X216349000Y-108501000D01*
X216349000Y-107599000D01*
X217451000Y-107599000D01*
X217451000Y-108501000D01*
G37*
G36*
X205201000Y-108501000D02*
G01*
X204099000Y-108501000D01*
X204099000Y-107599000D01*
X205201000Y-107599000D01*
X205201000Y-108501000D01*
G37*
G36*
X192951000Y-108501000D02*
G01*
X191849000Y-108501000D01*
X191849000Y-107599000D01*
X192951000Y-107599000D01*
X192951000Y-108501000D01*
G37*
G36*
X234076000Y-108376000D02*
G01*
X233174000Y-108376000D01*
X233174000Y-107274000D01*
X234076000Y-107274000D01*
X234076000Y-108376000D01*
G37*
G36*
X232276000Y-108376000D02*
G01*
X231374000Y-108376000D01*
X231374000Y-107274000D01*
X232276000Y-107274000D01*
X232276000Y-108376000D01*
G37*
G36*
X229601000Y-108351000D02*
G01*
X228499000Y-108351000D01*
X228499000Y-107449000D01*
X229601000Y-107449000D01*
X229601000Y-108351000D01*
G37*
G36*
X241854987Y-106176524D02*
G01*
X241873730Y-106182210D01*
X241890997Y-106191439D01*
X241906136Y-106203864D01*
X241918561Y-106219003D01*
X241927790Y-106236270D01*
X241933476Y-106255013D01*
X241936000Y-106280640D01*
X241936000Y-107769360D01*
X241933476Y-107794987D01*
X241927790Y-107813730D01*
X241918561Y-107830997D01*
X241906136Y-107846136D01*
X241890997Y-107858561D01*
X241873730Y-107867790D01*
X241854987Y-107873476D01*
X241829360Y-107876000D01*
X241390640Y-107876000D01*
X241365013Y-107873476D01*
X241346270Y-107867790D01*
X241329003Y-107858561D01*
X241313864Y-107846136D01*
X241301439Y-107830997D01*
X241292210Y-107813730D01*
X241286524Y-107794987D01*
X241284000Y-107769360D01*
X241284000Y-106280640D01*
X241286524Y-106255013D01*
X241292210Y-106236270D01*
X241301439Y-106219003D01*
X241313864Y-106203864D01*
X241329003Y-106191439D01*
X241346270Y-106182210D01*
X241365013Y-106176524D01*
X241390640Y-106174000D01*
X241829360Y-106174000D01*
X241854987Y-106176524D01*
G37*
G36*
X240584987Y-106176524D02*
G01*
X240603730Y-106182210D01*
X240620997Y-106191439D01*
X240636136Y-106203864D01*
X240648561Y-106219003D01*
X240657790Y-106236270D01*
X240663476Y-106255013D01*
X240666000Y-106280640D01*
X240666000Y-107769360D01*
X240663476Y-107794987D01*
X240657790Y-107813730D01*
X240648561Y-107830997D01*
X240636136Y-107846136D01*
X240620997Y-107858561D01*
X240603730Y-107867790D01*
X240584987Y-107873476D01*
X240559360Y-107876000D01*
X240120640Y-107876000D01*
X240095013Y-107873476D01*
X240076270Y-107867790D01*
X240059003Y-107858561D01*
X240043864Y-107846136D01*
X240031439Y-107830997D01*
X240022210Y-107813730D01*
X240016524Y-107794987D01*
X240014000Y-107769360D01*
X240014000Y-106280640D01*
X240016524Y-106255013D01*
X240022210Y-106236270D01*
X240031439Y-106219003D01*
X240043864Y-106203864D01*
X240059003Y-106191439D01*
X240076270Y-106182210D01*
X240095013Y-106176524D01*
X240120640Y-106174000D01*
X240559360Y-106174000D01*
X240584987Y-106176524D01*
G37*
G36*
X189001000Y-107251000D02*
G01*
X186649000Y-107251000D01*
X186649000Y-106349000D01*
X189001000Y-106349000D01*
X189001000Y-107251000D01*
G37*
G36*
X213501000Y-107251000D02*
G01*
X211149000Y-107251000D01*
X211149000Y-106349000D01*
X213501000Y-106349000D01*
X213501000Y-107251000D01*
G37*
G36*
X201251000Y-107126000D02*
G01*
X198899000Y-107126000D01*
X198899000Y-106224000D01*
X201251000Y-106224000D01*
X201251000Y-107126000D01*
G37*
G36*
X205201000Y-106701000D02*
G01*
X204099000Y-106701000D01*
X204099000Y-105799000D01*
X205201000Y-105799000D01*
X205201000Y-106701000D01*
G37*
G36*
X217451000Y-106701000D02*
G01*
X216349000Y-106701000D01*
X216349000Y-105799000D01*
X217451000Y-105799000D01*
X217451000Y-106701000D01*
G37*
G36*
X192951000Y-106701000D02*
G01*
X191849000Y-106701000D01*
X191849000Y-105799000D01*
X192951000Y-105799000D01*
X192951000Y-106701000D01*
G37*
G36*
X229601000Y-106551000D02*
G01*
X228499000Y-106551000D01*
X228499000Y-105649000D01*
X229601000Y-105649000D01*
X229601000Y-106551000D01*
G37*
G36*
X239551000Y-104151000D02*
G01*
X237849000Y-104151000D01*
X237849000Y-102449000D01*
X239551000Y-102449000D01*
X239551000Y-104151000D01*
G37*
G36*
X233581000Y-100474001D02*
G01*
X233583402Y-100498387D01*
X233590515Y-100521836D01*
X233602066Y-100543447D01*
X233617611Y-100562389D01*
X233636553Y-100577934D01*
X233658164Y-100589485D01*
X233681613Y-100596598D01*
X233705999Y-100599000D01*
X233794001Y-100599000D01*
X233818387Y-100596598D01*
X233841836Y-100589485D01*
X233863447Y-100577934D01*
X233882389Y-100562389D01*
X233897934Y-100543447D01*
X233909485Y-100521836D01*
X233916598Y-100498387D01*
X233919000Y-100474001D01*
X233919000Y-99659000D01*
X234531000Y-99659000D01*
X234531000Y-100474001D01*
X234533402Y-100498387D01*
X234540515Y-100521836D01*
X234552066Y-100543447D01*
X234567611Y-100562389D01*
X234586553Y-100577934D01*
X234608164Y-100589485D01*
X234631613Y-100596598D01*
X234655999Y-100599000D01*
X234744001Y-100599000D01*
X234768387Y-100596598D01*
X234791836Y-100589485D01*
X234801147Y-100584508D01*
X234801000Y-100585999D01*
X234801000Y-101793390D01*
X234803402Y-101817776D01*
X234810515Y-101841225D01*
X234822066Y-101862836D01*
X234837611Y-101881778D01*
X234867074Y-101903629D01*
X234869890Y-101905134D01*
X234897339Y-101927661D01*
X234919866Y-101955110D01*
X234936607Y-101986431D01*
X234946915Y-102020409D01*
X234951000Y-102061890D01*
X234951000Y-102738110D01*
X234946915Y-102779591D01*
X234936607Y-102813569D01*
X234919866Y-102844890D01*
X234897339Y-102872339D01*
X234869890Y-102894866D01*
X234838569Y-102911607D01*
X234804591Y-102921915D01*
X234763110Y-102926000D01*
X234161890Y-102926000D01*
X234120409Y-102921915D01*
X234086431Y-102911607D01*
X234055110Y-102894866D01*
X234027661Y-102872339D01*
X234005134Y-102844890D01*
X233988393Y-102813569D01*
X233978085Y-102779591D01*
X233974000Y-102738110D01*
X233974000Y-102061890D01*
X233978085Y-102020409D01*
X233988393Y-101986431D01*
X234005134Y-101955110D01*
X234027661Y-101927661D01*
X234033799Y-101922624D01*
X234051126Y-101905297D01*
X234064739Y-101884923D01*
X234074117Y-101862284D01*
X234078897Y-101838251D01*
X234078897Y-101813747D01*
X234074116Y-101789713D01*
X234064739Y-101767074D01*
X234051125Y-101746700D01*
X234033798Y-101729373D01*
X234013424Y-101715760D01*
X233990785Y-101706382D01*
X233954500Y-101701000D01*
X232799000Y-101701000D01*
X232799000Y-100599000D01*
X232844001Y-100599000D01*
X232868387Y-100596598D01*
X232891836Y-100589485D01*
X232913447Y-100577934D01*
X232932389Y-100562389D01*
X232947934Y-100543447D01*
X232959485Y-100521836D01*
X232966598Y-100498387D01*
X232969000Y-100474001D01*
X232969000Y-99659000D01*
X233581000Y-99659000D01*
X233581000Y-100474001D01*
G37*
G36*
X236601000Y-101701000D02*
G01*
X236545500Y-101701000D01*
X236521114Y-101703402D01*
X236497665Y-101710515D01*
X236476054Y-101722066D01*
X236457112Y-101737611D01*
X236441567Y-101756553D01*
X236430016Y-101778164D01*
X236422903Y-101801613D01*
X236420501Y-101825999D01*
X236422903Y-101850385D01*
X236430016Y-101873834D01*
X236441567Y-101895445D01*
X236466201Y-101922624D01*
X236472339Y-101927661D01*
X236494866Y-101955110D01*
X236511607Y-101986431D01*
X236521915Y-102020409D01*
X236526000Y-102061890D01*
X236526000Y-102738110D01*
X236521915Y-102779591D01*
X236511607Y-102813569D01*
X236494866Y-102844890D01*
X236472339Y-102872339D01*
X236444890Y-102894866D01*
X236413569Y-102911607D01*
X236379591Y-102921915D01*
X236338110Y-102926000D01*
X235736890Y-102926000D01*
X235695409Y-102921915D01*
X235661431Y-102911607D01*
X235630110Y-102894866D01*
X235602661Y-102872339D01*
X235580134Y-102844890D01*
X235563393Y-102813569D01*
X235553085Y-102779591D01*
X235549000Y-102738110D01*
X235549000Y-102061890D01*
X235553085Y-102020409D01*
X235563393Y-101986431D01*
X235580134Y-101955110D01*
X235602661Y-101927661D01*
X235630110Y-101905134D01*
X235632926Y-101903629D01*
X235653300Y-101890015D01*
X235670627Y-101872688D01*
X235684241Y-101852313D01*
X235693618Y-101829674D01*
X235699000Y-101793390D01*
X235699000Y-100599000D01*
X236601000Y-100599000D01*
X236601000Y-101701000D01*
G37*
G36*
X231901000Y-101701000D02*
G01*
X230999000Y-101701000D01*
X230999000Y-100599000D01*
X231901000Y-100599000D01*
X231901000Y-101701000D01*
G37*
G36*
X238948228Y-99981703D02*
G01*
X239103100Y-100045853D01*
X239242481Y-100138985D01*
X239361015Y-100257519D01*
X239454147Y-100396900D01*
X239518297Y-100551772D01*
X239551000Y-100716184D01*
X239551000Y-100883816D01*
X239518297Y-101048228D01*
X239454147Y-101203100D01*
X239361015Y-101342481D01*
X239242481Y-101461015D01*
X239103100Y-101554147D01*
X238948228Y-101618297D01*
X238783816Y-101651000D01*
X238616184Y-101651000D01*
X238451772Y-101618297D01*
X238296900Y-101554147D01*
X238157519Y-101461015D01*
X238038985Y-101342481D01*
X237945853Y-101203100D01*
X237881703Y-101048228D01*
X237849000Y-100883816D01*
X237849000Y-100716184D01*
X237881703Y-100551772D01*
X237945853Y-100396900D01*
X238038985Y-100257519D01*
X238157519Y-100138985D01*
X238296900Y-100045853D01*
X238451772Y-99981703D01*
X238616184Y-99949000D01*
X238783816Y-99949000D01*
X238948228Y-99981703D01*
G37*
G36*
X241854987Y-99676524D02*
G01*
X241873730Y-99682210D01*
X241890997Y-99691439D01*
X241906136Y-99703864D01*
X241918561Y-99719003D01*
X241927790Y-99736270D01*
X241933476Y-99755013D01*
X241936000Y-99780640D01*
X241936000Y-101269360D01*
X241933476Y-101294987D01*
X241927790Y-101313730D01*
X241918561Y-101330997D01*
X241906136Y-101346136D01*
X241890997Y-101358561D01*
X241873730Y-101367790D01*
X241854987Y-101373476D01*
X241829360Y-101376000D01*
X241390640Y-101376000D01*
X241365013Y-101373476D01*
X241346270Y-101367790D01*
X241329003Y-101358561D01*
X241313864Y-101346136D01*
X241301439Y-101330997D01*
X241292210Y-101313730D01*
X241286524Y-101294987D01*
X241284000Y-101269360D01*
X241284000Y-99780640D01*
X241286524Y-99755013D01*
X241292210Y-99736270D01*
X241301439Y-99719003D01*
X241313864Y-99703864D01*
X241329003Y-99691439D01*
X241346270Y-99682210D01*
X241365013Y-99676524D01*
X241390640Y-99674000D01*
X241829360Y-99674000D01*
X241854987Y-99676524D01*
G37*
G36*
X240584987Y-99676524D02*
G01*
X240603730Y-99682210D01*
X240620997Y-99691439D01*
X240636136Y-99703864D01*
X240648561Y-99719003D01*
X240657790Y-99736270D01*
X240663476Y-99755013D01*
X240666000Y-99780640D01*
X240666000Y-101269360D01*
X240663476Y-101294987D01*
X240657790Y-101313730D01*
X240648561Y-101330997D01*
X240636136Y-101346136D01*
X240620997Y-101358561D01*
X240603730Y-101367790D01*
X240584987Y-101373476D01*
X240559360Y-101376000D01*
X240120640Y-101376000D01*
X240095013Y-101373476D01*
X240076270Y-101367790D01*
X240059003Y-101358561D01*
X240043864Y-101346136D01*
X240031439Y-101330997D01*
X240022210Y-101313730D01*
X240016524Y-101294987D01*
X240014000Y-101269360D01*
X240014000Y-99780640D01*
X240016524Y-99755013D01*
X240022210Y-99736270D01*
X240031439Y-99719003D01*
X240043864Y-99703864D01*
X240059003Y-99691439D01*
X240076270Y-99682210D01*
X240095013Y-99676524D01*
X240120640Y-99674000D01*
X240559360Y-99674000D01*
X240584987Y-99676524D01*
G37*
G36*
X235481000Y-100461000D02*
G01*
X234925999Y-100461000D01*
X234901613Y-100463402D01*
X234878164Y-100470515D01*
X234868853Y-100475492D01*
X234869000Y-100474001D01*
X234869000Y-99659000D01*
X235481000Y-99659000D01*
X235481000Y-100461000D01*
G37*
G36*
X237104591Y-99203085D02*
G01*
X237138569Y-99213393D01*
X237169890Y-99230134D01*
X237197339Y-99252661D01*
X237219866Y-99280110D01*
X237236607Y-99311431D01*
X237246915Y-99345409D01*
X237251000Y-99386890D01*
X237251000Y-99988110D01*
X237246915Y-100029591D01*
X237236607Y-100063569D01*
X237219866Y-100094890D01*
X237197339Y-100122339D01*
X237169890Y-100144866D01*
X237138569Y-100161607D01*
X237104591Y-100171915D01*
X237063110Y-100176000D01*
X236386890Y-100176000D01*
X236345409Y-100171915D01*
X236311431Y-100161607D01*
X236280110Y-100144866D01*
X236252661Y-100122339D01*
X236230134Y-100094890D01*
X236213393Y-100063569D01*
X236203085Y-100029591D01*
X236199000Y-99988110D01*
X236199000Y-99386890D01*
X236203085Y-99345409D01*
X236213393Y-99311431D01*
X236230134Y-99280110D01*
X236252661Y-99252661D01*
X236280110Y-99230134D01*
X236311431Y-99213393D01*
X236345409Y-99203085D01*
X236386890Y-99199000D01*
X237063110Y-99199000D01*
X237104591Y-99203085D01*
G37*
G36*
X239651000Y-99351000D02*
G01*
X238549000Y-99351000D01*
X238549000Y-98449000D01*
X239651000Y-98449000D01*
X239651000Y-99351000D01*
G37*
G36*
X237104591Y-97628085D02*
G01*
X237138569Y-97638393D01*
X237169890Y-97655134D01*
X237197339Y-97677661D01*
X237219866Y-97705110D01*
X237236607Y-97736431D01*
X237246915Y-97770409D01*
X237251000Y-97811890D01*
X237251000Y-98413110D01*
X237246915Y-98454591D01*
X237236607Y-98488569D01*
X237219866Y-98519890D01*
X237197339Y-98547339D01*
X237169890Y-98569866D01*
X237138569Y-98586607D01*
X237104591Y-98596915D01*
X237063110Y-98601000D01*
X236386890Y-98601000D01*
X236345409Y-98596915D01*
X236311431Y-98586607D01*
X236280110Y-98569866D01*
X236252661Y-98547339D01*
X236230134Y-98519890D01*
X236213393Y-98488569D01*
X236203085Y-98454591D01*
X236199000Y-98413110D01*
X236199000Y-97811890D01*
X236203085Y-97770409D01*
X236213393Y-97736431D01*
X236230134Y-97705110D01*
X236252661Y-97677661D01*
X236280110Y-97655134D01*
X236311431Y-97638393D01*
X236345409Y-97628085D01*
X236386890Y-97624000D01*
X237063110Y-97624000D01*
X237104591Y-97628085D01*
G37*
G36*
X242376000Y-98451000D02*
G01*
X241074000Y-98451000D01*
X241074000Y-97449000D01*
X242376000Y-97449000D01*
X242376000Y-98451000D01*
G37*
G36*
X235481000Y-98141000D02*
G01*
X234869000Y-98141000D01*
X234869000Y-97339000D01*
X235481000Y-97339000D01*
X235481000Y-98141000D01*
G37*
G36*
X233581000Y-98141000D02*
G01*
X232969000Y-98141000D01*
X232969000Y-97339000D01*
X233581000Y-97339000D01*
X233581000Y-98141000D01*
G37*
G36*
X234531000Y-98141000D02*
G01*
X233919000Y-98141000D01*
X233919000Y-97339000D01*
X234531000Y-97339000D01*
X234531000Y-98141000D01*
G37*
G36*
X239651000Y-97551000D02*
G01*
X238549000Y-97551000D01*
X238549000Y-96649000D01*
X239651000Y-96649000D01*
X239651000Y-97551000D01*
G37*
G36*
X233759468Y-95353565D02*
G01*
X233798138Y-95365296D01*
X233833777Y-95384346D01*
X233865017Y-95409983D01*
X233890654Y-95441223D01*
X233909704Y-95476862D01*
X233921435Y-95515532D01*
X233926000Y-95561888D01*
X233926000Y-96638112D01*
X233921435Y-96684468D01*
X233909704Y-96723138D01*
X233890654Y-96758777D01*
X233865017Y-96790017D01*
X233833777Y-96815654D01*
X233798138Y-96834704D01*
X233759468Y-96846435D01*
X233713112Y-96851000D01*
X233061888Y-96851000D01*
X233015532Y-96846435D01*
X232976862Y-96834704D01*
X232941223Y-96815654D01*
X232909983Y-96790017D01*
X232884346Y-96758777D01*
X232865296Y-96723138D01*
X232853565Y-96684468D01*
X232849000Y-96638112D01*
X232849000Y-95561888D01*
X232853565Y-95515532D01*
X232865296Y-95476862D01*
X232884346Y-95441223D01*
X232909983Y-95409983D01*
X232941223Y-95384346D01*
X232976862Y-95365296D01*
X233015532Y-95353565D01*
X233061888Y-95349000D01*
X233713112Y-95349000D01*
X233759468Y-95353565D01*
G37*
G36*
X235634468Y-95353565D02*
G01*
X235673138Y-95365296D01*
X235708777Y-95384346D01*
X235740017Y-95409983D01*
X235765654Y-95441223D01*
X235784704Y-95476862D01*
X235796435Y-95515532D01*
X235801000Y-95561888D01*
X235801000Y-96638112D01*
X235796435Y-96684468D01*
X235784704Y-96723138D01*
X235765654Y-96758777D01*
X235740017Y-96790017D01*
X235708777Y-96815654D01*
X235673138Y-96834704D01*
X235634468Y-96846435D01*
X235588112Y-96851000D01*
X234936888Y-96851000D01*
X234890532Y-96846435D01*
X234851862Y-96834704D01*
X234816223Y-96815654D01*
X234784983Y-96790017D01*
X234759346Y-96758777D01*
X234740296Y-96723138D01*
X234728565Y-96684468D01*
X234724000Y-96638112D01*
X234724000Y-95561888D01*
X234728565Y-95515532D01*
X234740296Y-95476862D01*
X234759346Y-95441223D01*
X234784983Y-95409983D01*
X234816223Y-95384346D01*
X234851862Y-95365296D01*
X234890532Y-95353565D01*
X234936888Y-95349000D01*
X235588112Y-95349000D01*
X235634468Y-95353565D01*
G37*
G36*
X238201000Y-95751000D02*
G01*
X236899000Y-95751000D01*
X236899000Y-94749000D01*
X238201000Y-94749000D01*
X238201000Y-95751000D01*
G37*
G36*
X242376000Y-95151000D02*
G01*
X241074000Y-95151000D01*
X241074000Y-94149000D01*
X242376000Y-94149000D01*
X242376000Y-95151000D01*
G37*
G36*
X236476000Y-94526000D02*
G01*
X234774000Y-94526000D01*
X234774000Y-92824000D01*
X236476000Y-92824000D01*
X236476000Y-94526000D01*
G37*
G36*
X233373228Y-92856703D02*
G01*
X233528100Y-92920853D01*
X233667481Y-93013985D01*
X233786015Y-93132519D01*
X233879147Y-93271900D01*
X233943297Y-93426772D01*
X233976000Y-93591184D01*
X233976000Y-93758816D01*
X233943297Y-93923228D01*
X233879147Y-94078100D01*
X233786015Y-94217481D01*
X233667481Y-94336015D01*
X233528100Y-94429147D01*
X233373228Y-94493297D01*
X233208816Y-94526000D01*
X233041184Y-94526000D01*
X232876772Y-94493297D01*
X232721900Y-94429147D01*
X232582519Y-94336015D01*
X232463985Y-94217481D01*
X232370853Y-94078100D01*
X232306703Y-93923228D01*
X232274000Y-93758816D01*
X232274000Y-93591184D01*
X232306703Y-93426772D01*
X232370853Y-93271900D01*
X232463985Y-93132519D01*
X232582519Y-93013985D01*
X232721900Y-92920853D01*
X232876772Y-92856703D01*
X233041184Y-92824000D01*
X233208816Y-92824000D01*
X233373228Y-92856703D01*
G37*
G36*
X242284468Y-92653565D02*
G01*
X242323138Y-92665296D01*
X242358777Y-92684346D01*
X242390017Y-92709983D01*
X242415654Y-92741223D01*
X242434704Y-92776862D01*
X242446435Y-92815532D01*
X242451000Y-92861888D01*
X242451000Y-93513112D01*
X242446435Y-93559468D01*
X242434704Y-93598138D01*
X242415654Y-93633777D01*
X242390017Y-93665017D01*
X242358777Y-93690654D01*
X242323138Y-93709704D01*
X242284468Y-93721435D01*
X242238112Y-93726000D01*
X241161888Y-93726000D01*
X241115532Y-93721435D01*
X241076862Y-93709704D01*
X241041223Y-93690654D01*
X241009983Y-93665017D01*
X240984346Y-93633777D01*
X240965296Y-93598138D01*
X240953565Y-93559468D01*
X240949000Y-93513112D01*
X240949000Y-92861888D01*
X240953565Y-92815532D01*
X240965296Y-92776862D01*
X240984346Y-92741223D01*
X241009983Y-92709983D01*
X241041223Y-92684346D01*
X241076862Y-92665296D01*
X241115532Y-92653565D01*
X241161888Y-92649000D01*
X242238112Y-92649000D01*
X242284468Y-92653565D01*
G37*
G36*
X189701000Y-87751000D02*
G01*
X189374999Y-87751000D01*
X189350613Y-87753402D01*
X189327164Y-87760515D01*
X189305553Y-87772066D01*
X189286611Y-87787611D01*
X189271066Y-87806553D01*
X189259515Y-87828164D01*
X189252402Y-87851613D01*
X189250000Y-87875999D01*
X189250000Y-88375001D01*
X189252402Y-88399387D01*
X189259515Y-88422836D01*
X189271066Y-88444447D01*
X189286611Y-88463389D01*
X189305553Y-88478934D01*
X189327164Y-88490485D01*
X189350613Y-88497598D01*
X189374999Y-88500000D01*
X193875001Y-88500000D01*
X193899387Y-88497598D01*
X193922836Y-88490485D01*
X193944447Y-88478934D01*
X193963389Y-88463389D01*
X193978934Y-88444447D01*
X193990485Y-88422836D01*
X193997598Y-88399387D01*
X194000000Y-88375001D01*
X194000000Y-87925999D01*
X193999000Y-87915847D01*
X193999000Y-84699000D01*
X202101000Y-84699000D01*
X202101000Y-87801000D01*
X201874999Y-87801000D01*
X201850613Y-87803402D01*
X201827164Y-87810515D01*
X201805553Y-87822066D01*
X201786611Y-87837611D01*
X201771066Y-87856553D01*
X201759515Y-87878164D01*
X201752402Y-87901613D01*
X201750000Y-87925999D01*
X201750000Y-88375001D01*
X201752402Y-88399387D01*
X201759515Y-88422836D01*
X201771066Y-88444447D01*
X201786611Y-88463389D01*
X201805553Y-88478934D01*
X201827164Y-88490485D01*
X201850613Y-88497598D01*
X201874999Y-88500000D01*
X206375001Y-88500000D01*
X206399387Y-88497598D01*
X206422836Y-88490485D01*
X206444447Y-88478934D01*
X206463389Y-88463389D01*
X206478934Y-88444447D01*
X206490485Y-88422836D01*
X206497598Y-88399387D01*
X206500000Y-88375001D01*
X206500000Y-87925999D01*
X206497598Y-87901613D01*
X206490485Y-87878164D01*
X206478934Y-87856553D01*
X206463389Y-87837611D01*
X206444447Y-87822066D01*
X206422836Y-87810515D01*
X206399387Y-87803402D01*
X206399000Y-87803364D01*
X206399000Y-84699000D01*
X214501000Y-84699000D01*
X214501000Y-87801000D01*
X214124999Y-87801000D01*
X214100613Y-87803402D01*
X214077164Y-87810515D01*
X214055553Y-87822066D01*
X214036611Y-87837611D01*
X214021066Y-87856553D01*
X214009515Y-87878164D01*
X214002402Y-87901613D01*
X214000000Y-87925999D01*
X214000000Y-88175001D01*
X214002402Y-88199387D01*
X214009515Y-88222836D01*
X214021066Y-88244447D01*
X214036611Y-88263389D01*
X214055553Y-88278934D01*
X214077164Y-88290485D01*
X214100613Y-88297598D01*
X214124999Y-88300000D01*
X220500000Y-88300000D01*
X220500000Y-89201617D01*
X220502402Y-89226003D01*
X220509515Y-89249452D01*
X220521066Y-89271063D01*
X220536611Y-89290005D01*
X220555553Y-89305550D01*
X220577164Y-89317101D01*
X220591306Y-89321391D01*
X220591277Y-89321486D01*
X220603055Y-89325059D01*
X220603058Y-89325059D01*
X220942548Y-89428042D01*
X220942550Y-89428043D01*
X221255422Y-89595277D01*
X221467383Y-89769229D01*
X221529661Y-89820339D01*
X221754722Y-90094577D01*
X221921958Y-90407452D01*
X222024941Y-90746942D01*
X222059714Y-91100000D01*
X222024941Y-91453058D01*
X221921958Y-91792548D01*
X221921957Y-91792550D01*
X221754723Y-92105422D01*
X221529661Y-92379661D01*
X221255422Y-92604723D01*
X220942550Y-92771957D01*
X220942548Y-92771958D01*
X220603058Y-92874941D01*
X220426669Y-92892314D01*
X220338476Y-92901000D01*
X215661524Y-92901000D01*
X215573331Y-92892314D01*
X215396942Y-92874941D01*
X215057452Y-92771958D01*
X215057450Y-92771957D01*
X214744578Y-92604723D01*
X214470339Y-92379661D01*
X214245277Y-92105422D01*
X214078043Y-91792550D01*
X214078042Y-91792548D01*
X213975059Y-91453058D01*
X213940286Y-91100000D01*
X213975059Y-90746942D01*
X214001046Y-90661273D01*
X214005824Y-90637251D01*
X214005824Y-90612747D01*
X214001044Y-90588714D01*
X213991666Y-90566075D01*
X213978053Y-90545701D01*
X213960726Y-90528374D01*
X213940351Y-90514760D01*
X213917713Y-90505382D01*
X213893679Y-90500602D01*
X213881427Y-90500000D01*
X181500000Y-90500000D01*
X181500000Y-86500000D01*
X181502073Y-86500000D01*
X181510287Y-86497508D01*
X181532926Y-86488131D01*
X181553300Y-86474517D01*
X181570627Y-86457190D01*
X181584241Y-86436816D01*
X181593618Y-86414177D01*
X181599000Y-86377892D01*
X181599000Y-84649000D01*
X189701000Y-84649000D01*
X189701000Y-87751000D01*
G37*
G36*
X236859468Y-67553565D02*
G01*
X236898138Y-67565296D01*
X236933777Y-67584346D01*
X236965017Y-67609983D01*
X236990654Y-67641223D01*
X237009704Y-67676862D01*
X237021435Y-67715532D01*
X237026000Y-67761888D01*
X237026000Y-68749131D01*
X237028402Y-68773517D01*
X237035515Y-68796966D01*
X237047066Y-68818577D01*
X237062611Y-68837519D01*
X237081553Y-68853064D01*
X237103164Y-68864615D01*
X237126613Y-68871728D01*
X237150999Y-68874130D01*
X237175385Y-68871728D01*
X237198834Y-68864615D01*
X237220442Y-68853066D01*
X237604810Y-68596239D01*
X237604811Y-68596238D01*
X238160057Y-68366248D01*
X238749501Y-68249000D01*
X239350499Y-68249000D01*
X239939943Y-68366248D01*
X240495189Y-68596238D01*
X240495190Y-68596239D01*
X240994899Y-68930134D01*
X241419866Y-69355101D01*
X241520788Y-69506141D01*
X241753762Y-69854811D01*
X241983752Y-70410057D01*
X242101000Y-70999501D01*
X242101000Y-71600499D01*
X241983752Y-72189943D01*
X241753762Y-72745189D01*
X241753761Y-72745190D01*
X241419866Y-73244899D01*
X240994899Y-73669866D01*
X240743347Y-73837948D01*
X240495189Y-74003762D01*
X239939943Y-74233752D01*
X239350499Y-74351000D01*
X238749501Y-74351000D01*
X238160057Y-74233752D01*
X237604811Y-74003762D01*
X237444445Y-73896609D01*
X237422834Y-73885058D01*
X237399385Y-73877945D01*
X237374999Y-73875543D01*
X237350613Y-73877945D01*
X237327164Y-73885058D01*
X237305553Y-73896609D01*
X237286611Y-73912154D01*
X237271066Y-73931096D01*
X237259515Y-73952707D01*
X237252402Y-73976156D01*
X237250000Y-74000542D01*
X237250000Y-76849458D01*
X237252402Y-76873844D01*
X237259515Y-76897293D01*
X237271066Y-76918904D01*
X237286611Y-76937846D01*
X237305553Y-76953391D01*
X237327164Y-76964942D01*
X237350613Y-76972055D01*
X237374999Y-76974457D01*
X237399385Y-76972055D01*
X237422834Y-76964942D01*
X237444445Y-76953391D01*
X237604811Y-76846238D01*
X238160057Y-76616248D01*
X238749501Y-76499000D01*
X239350499Y-76499000D01*
X239939943Y-76616248D01*
X240495189Y-76846238D01*
X240495190Y-76846239D01*
X240994899Y-77180134D01*
X241419866Y-77605101D01*
X241419867Y-77605103D01*
X241753762Y-78104811D01*
X241983752Y-78660057D01*
X242101000Y-79249501D01*
X242101000Y-79850499D01*
X241983752Y-80439943D01*
X241753762Y-80995189D01*
X241650786Y-81149303D01*
X241419866Y-81494899D01*
X240994899Y-81919866D01*
X240934023Y-81960542D01*
X240495189Y-82253762D01*
X239939943Y-82483752D01*
X239350499Y-82601000D01*
X238749501Y-82601000D01*
X238160057Y-82483752D01*
X237604811Y-82253762D01*
X237444445Y-82146609D01*
X237422834Y-82135058D01*
X237399385Y-82127945D01*
X237374999Y-82125543D01*
X237350613Y-82127945D01*
X237327164Y-82135058D01*
X237305553Y-82146609D01*
X237286611Y-82162154D01*
X237271066Y-82181096D01*
X237259515Y-82202707D01*
X237252402Y-82226156D01*
X237250000Y-82250542D01*
X237250000Y-89500000D01*
X231488675Y-89500000D01*
X231464289Y-89502402D01*
X231440840Y-89509515D01*
X231419229Y-89521066D01*
X231400287Y-89536611D01*
X231384742Y-89555553D01*
X231373191Y-89577164D01*
X231366078Y-89600613D01*
X231363676Y-89624999D01*
X231366078Y-89649385D01*
X231373191Y-89672834D01*
X231384742Y-89694445D01*
X231409372Y-89721620D01*
X231529661Y-89820339D01*
X231754722Y-90094577D01*
X231921958Y-90407452D01*
X232024941Y-90746942D01*
X232059714Y-91100000D01*
X232024941Y-91453058D01*
X231921958Y-91792548D01*
X231921957Y-91792550D01*
X231754723Y-92105422D01*
X231529661Y-92379661D01*
X231255422Y-92604723D01*
X230942550Y-92771957D01*
X230942548Y-92771958D01*
X230603058Y-92874941D01*
X230426669Y-92892314D01*
X230338476Y-92901000D01*
X225661524Y-92901000D01*
X225573331Y-92892314D01*
X225396942Y-92874941D01*
X225057452Y-92771958D01*
X225057450Y-92771957D01*
X224744578Y-92604723D01*
X224470339Y-92379661D01*
X224245277Y-92105422D01*
X224078043Y-91792550D01*
X224078042Y-91792548D01*
X223975059Y-91453058D01*
X223940286Y-91100000D01*
X223975059Y-90746942D01*
X224078042Y-90407452D01*
X224245278Y-90094577D01*
X224470339Y-89820339D01*
X224532617Y-89769229D01*
X224744578Y-89595277D01*
X225057450Y-89428043D01*
X225057452Y-89428042D01*
X225396942Y-89325059D01*
X225477741Y-89317101D01*
X225637253Y-89301390D01*
X225661287Y-89296609D01*
X225683925Y-89287232D01*
X225704300Y-89273618D01*
X225721627Y-89256291D01*
X225735240Y-89235917D01*
X225744618Y-89213278D01*
X225750000Y-89176993D01*
X225750000Y-88250000D01*
X235875001Y-88250000D01*
X235899387Y-88247598D01*
X235922836Y-88240485D01*
X235944447Y-88228934D01*
X235963389Y-88213389D01*
X235978934Y-88194447D01*
X235990485Y-88172836D01*
X235997598Y-88149387D01*
X236000000Y-88125001D01*
X236000000Y-79867836D01*
X235999000Y-79857683D01*
X235999000Y-79242317D01*
X236000000Y-79232164D01*
X236000000Y-71617836D01*
X235999000Y-71607683D01*
X235999000Y-70999501D01*
X236116248Y-70410057D01*
X236346238Y-69854811D01*
X236579212Y-69506141D01*
X236680134Y-69355101D01*
X236770854Y-69264381D01*
X236786394Y-69245445D01*
X236797945Y-69223834D01*
X236805058Y-69200385D01*
X236807460Y-69175999D01*
X236805058Y-69151613D01*
X236797945Y-69128164D01*
X236786394Y-69106553D01*
X236770849Y-69087611D01*
X236751907Y-69072066D01*
X236730296Y-69060515D01*
X236706847Y-69053402D01*
X236682461Y-69051000D01*
X236161888Y-69051000D01*
X236115532Y-69046435D01*
X236076862Y-69034704D01*
X236041223Y-69015654D01*
X236009983Y-68990017D01*
X235984346Y-68958777D01*
X235965296Y-68923138D01*
X235953565Y-68884468D01*
X235949000Y-68838112D01*
X235949000Y-67761888D01*
X235953565Y-67715532D01*
X235965296Y-67676862D01*
X235984346Y-67641223D01*
X236009983Y-67609983D01*
X236041223Y-67584346D01*
X236076862Y-67565296D01*
X236115532Y-67553565D01*
X236161888Y-67549000D01*
X236813112Y-67549000D01*
X236859468Y-67553565D01*
G37*
G36*
X238201000Y-92451000D02*
G01*
X236899000Y-92451000D01*
X236899000Y-91449000D01*
X238201000Y-91449000D01*
X238201000Y-92451000D01*
G37*
G36*
X242284468Y-90778565D02*
G01*
X242323138Y-90790296D01*
X242358777Y-90809346D01*
X242390017Y-90834983D01*
X242415654Y-90866223D01*
X242434704Y-90901862D01*
X242446435Y-90940532D01*
X242451000Y-90986888D01*
X242451000Y-91638112D01*
X242446435Y-91684468D01*
X242434704Y-91723138D01*
X242415654Y-91758777D01*
X242390017Y-91790017D01*
X242358777Y-91815654D01*
X242323138Y-91834704D01*
X242284468Y-91846435D01*
X242238112Y-91851000D01*
X241161888Y-91851000D01*
X241115532Y-91846435D01*
X241076862Y-91834704D01*
X241041223Y-91815654D01*
X241009983Y-91790017D01*
X240984346Y-91758777D01*
X240965296Y-91723138D01*
X240953565Y-91684468D01*
X240949000Y-91638112D01*
X240949000Y-90986888D01*
X240953565Y-90940532D01*
X240965296Y-90901862D01*
X240984346Y-90866223D01*
X241009983Y-90834983D01*
X241041223Y-90809346D01*
X241076862Y-90790296D01*
X241115532Y-90778565D01*
X241161888Y-90774000D01*
X242238112Y-90774000D01*
X242284468Y-90778565D01*
G37*
G36*
X240228571Y-88302863D02*
G01*
X240307023Y-88310590D01*
X240407682Y-88341125D01*
X240458013Y-88356392D01*
X240597165Y-88430771D01*
X240719133Y-88530867D01*
X240819229Y-88652835D01*
X240893608Y-88791987D01*
X240893608Y-88791988D01*
X240939410Y-88942977D01*
X240954875Y-89100000D01*
X240939410Y-89257023D01*
X240908875Y-89357682D01*
X240893608Y-89408013D01*
X240819229Y-89547165D01*
X240719133Y-89669133D01*
X240597165Y-89769229D01*
X240458013Y-89843608D01*
X240407682Y-89858875D01*
X240307023Y-89889410D01*
X240228571Y-89897137D01*
X240189346Y-89901000D01*
X239110654Y-89901000D01*
X239071429Y-89897137D01*
X238992977Y-89889410D01*
X238892318Y-89858875D01*
X238841987Y-89843608D01*
X238702835Y-89769229D01*
X238580867Y-89669133D01*
X238480771Y-89547165D01*
X238406392Y-89408013D01*
X238391125Y-89357682D01*
X238360590Y-89257023D01*
X238345125Y-89100000D01*
X238360590Y-88942977D01*
X238406392Y-88791988D01*
X238406392Y-88791987D01*
X238480771Y-88652835D01*
X238580867Y-88530867D01*
X238702835Y-88430771D01*
X238841987Y-88356392D01*
X238892318Y-88341125D01*
X238992977Y-88310590D01*
X239071429Y-88302863D01*
X239110654Y-88299000D01*
X240189346Y-88299000D01*
X240228571Y-88302863D01*
G37*
G36*
X203301000Y-87801000D02*
G01*
X202399000Y-87801000D01*
X202399000Y-84699000D01*
X203301000Y-84699000D01*
X203301000Y-87801000D01*
G37*
G36*
X215701000Y-87801000D02*
G01*
X214799000Y-87801000D01*
X214799000Y-84699000D01*
X215701000Y-84699000D01*
X215701000Y-87801000D01*
G37*
G36*
X190901000Y-87751000D02*
G01*
X189999000Y-87751000D01*
X189999000Y-84649000D01*
X190901000Y-84649000D01*
X190901000Y-87751000D01*
G37*
G36*
X192501000Y-87551000D02*
G01*
X191399000Y-87551000D01*
X191399000Y-86649000D01*
X192501000Y-86649000D01*
X192501000Y-87551000D01*
G37*
G36*
X204876000Y-87551000D02*
G01*
X203774000Y-87551000D01*
X203774000Y-86649000D01*
X204876000Y-86649000D01*
X204876000Y-87551000D01*
G37*
G36*
X217301000Y-87501000D02*
G01*
X216199000Y-87501000D01*
X216199000Y-86599000D01*
X217301000Y-86599000D01*
X217301000Y-87501000D01*
G37*
G36*
X230038820Y-85808103D02*
G01*
X230072985Y-85818467D01*
X230104464Y-85835293D01*
X230132060Y-85857940D01*
X230154707Y-85885536D01*
X230171533Y-85917015D01*
X230181897Y-85951180D01*
X230186000Y-85992842D01*
X230186000Y-87242158D01*
X230181897Y-87283820D01*
X230171533Y-87317985D01*
X230154707Y-87349464D01*
X230132060Y-87377060D01*
X230104464Y-87399707D01*
X230072985Y-87416533D01*
X230038820Y-87426897D01*
X229997158Y-87431000D01*
X227622842Y-87431000D01*
X227581180Y-87426897D01*
X227547015Y-87416533D01*
X227515536Y-87399707D01*
X227487940Y-87377060D01*
X227465293Y-87349464D01*
X227448467Y-87317985D01*
X227438103Y-87283820D01*
X227434000Y-87242158D01*
X227434000Y-85992842D01*
X227438103Y-85951180D01*
X227448467Y-85917015D01*
X227465293Y-85885536D01*
X227487940Y-85857940D01*
X227515536Y-85835293D01*
X227547015Y-85818467D01*
X227581180Y-85808103D01*
X227622842Y-85804000D01*
X229997158Y-85804000D01*
X230038820Y-85808103D01*
G37*
G36*
X240228571Y-85802863D02*
G01*
X240307023Y-85810590D01*
X240388458Y-85835293D01*
X240458013Y-85856392D01*
X240597165Y-85930771D01*
X240719133Y-86030867D01*
X240819229Y-86152835D01*
X240893608Y-86291987D01*
X240893608Y-86291988D01*
X240939410Y-86442977D01*
X240954875Y-86600000D01*
X240939410Y-86757023D01*
X240908875Y-86857682D01*
X240893608Y-86908013D01*
X240819229Y-87047165D01*
X240719133Y-87169133D01*
X240597165Y-87269229D01*
X240458013Y-87343608D01*
X240407682Y-87358875D01*
X240307023Y-87389410D01*
X240228571Y-87397137D01*
X240189346Y-87401000D01*
X239110654Y-87401000D01*
X239071429Y-87397137D01*
X238992977Y-87389410D01*
X238892318Y-87358875D01*
X238841987Y-87343608D01*
X238702835Y-87269229D01*
X238580867Y-87169133D01*
X238480771Y-87047165D01*
X238406392Y-86908013D01*
X238391125Y-86857682D01*
X238360590Y-86757023D01*
X238345125Y-86600000D01*
X238360590Y-86442977D01*
X238406392Y-86291988D01*
X238406392Y-86291987D01*
X238480771Y-86152835D01*
X238580867Y-86030867D01*
X238702835Y-85930771D01*
X238841987Y-85856392D01*
X238911542Y-85835293D01*
X238992977Y-85810590D01*
X239071429Y-85802863D01*
X239110654Y-85799000D01*
X240189346Y-85799000D01*
X240228571Y-85802863D01*
G37*
G36*
X204876000Y-85751000D02*
G01*
X203774000Y-85751000D01*
X203774000Y-84849000D01*
X204876000Y-84849000D01*
X204876000Y-85751000D01*
G37*
G36*
X192501000Y-85751000D02*
G01*
X191399000Y-85751000D01*
X191399000Y-84849000D01*
X192501000Y-84849000D01*
X192501000Y-85751000D01*
G37*
G36*
X217301000Y-85701000D02*
G01*
X216199000Y-85701000D01*
X216199000Y-84799000D01*
X217301000Y-84799000D01*
X217301000Y-85701000D01*
G37*
G36*
X231500000Y-68146317D02*
G01*
X231502402Y-68170703D01*
X231509515Y-68194152D01*
X231521066Y-68215763D01*
X231536611Y-68234705D01*
X231555553Y-68250250D01*
X231577164Y-68261801D01*
X231600613Y-68268914D01*
X231624999Y-68271316D01*
X231649385Y-68268914D01*
X231749501Y-68249000D01*
X232350499Y-68249000D01*
X232939943Y-68366248D01*
X233495189Y-68596238D01*
X233495190Y-68596239D01*
X233879558Y-68853066D01*
X233901166Y-68864615D01*
X233924615Y-68871728D01*
X233949001Y-68874130D01*
X233973387Y-68871728D01*
X233996836Y-68864615D01*
X234018447Y-68853064D01*
X234037388Y-68837519D01*
X234052934Y-68818577D01*
X234064485Y-68796966D01*
X234071598Y-68773517D01*
X234074000Y-68749131D01*
X234074000Y-67761888D01*
X234078565Y-67715532D01*
X234090296Y-67676862D01*
X234109346Y-67641223D01*
X234134983Y-67609983D01*
X234166223Y-67584346D01*
X234201862Y-67565296D01*
X234240532Y-67553565D01*
X234286888Y-67549000D01*
X234938112Y-67549000D01*
X234984468Y-67553565D01*
X235023138Y-67565296D01*
X235058777Y-67584346D01*
X235090017Y-67609983D01*
X235115654Y-67641223D01*
X235134704Y-67676862D01*
X235146435Y-67715532D01*
X235151000Y-67761888D01*
X235151000Y-68838112D01*
X235146435Y-68884468D01*
X235134704Y-68923138D01*
X235115654Y-68958777D01*
X235090017Y-68990017D01*
X235058777Y-69015654D01*
X235023138Y-69034704D01*
X234984468Y-69046435D01*
X234938112Y-69051000D01*
X234417539Y-69051000D01*
X234393153Y-69053402D01*
X234369704Y-69060515D01*
X234348093Y-69072066D01*
X234329151Y-69087611D01*
X234313606Y-69106553D01*
X234302055Y-69128164D01*
X234294942Y-69151613D01*
X234292540Y-69175999D01*
X234294942Y-69200385D01*
X234302055Y-69223834D01*
X234313606Y-69245445D01*
X234329146Y-69264381D01*
X234419866Y-69355101D01*
X234520788Y-69506141D01*
X234753762Y-69854811D01*
X234983752Y-70410057D01*
X235101000Y-70999501D01*
X235101000Y-71600499D01*
X234983752Y-72189943D01*
X234753762Y-72745189D01*
X234753761Y-72745190D01*
X234419866Y-73244899D01*
X233994899Y-73669866D01*
X233743347Y-73837948D01*
X233495189Y-74003762D01*
X232939943Y-74233752D01*
X232350499Y-74351000D01*
X231749501Y-74351000D01*
X231649385Y-74331086D01*
X231624999Y-74328684D01*
X231600613Y-74331086D01*
X231577164Y-74338199D01*
X231555553Y-74349750D01*
X231536611Y-74365296D01*
X231521066Y-74384238D01*
X231509515Y-74405848D01*
X231502402Y-74429297D01*
X231500000Y-74453683D01*
X231500000Y-76396317D01*
X231502402Y-76420703D01*
X231509515Y-76444152D01*
X231521066Y-76465763D01*
X231536611Y-76484705D01*
X231555553Y-76500250D01*
X231577164Y-76511801D01*
X231600613Y-76518914D01*
X231624999Y-76521316D01*
X231649385Y-76518914D01*
X231749501Y-76499000D01*
X232350499Y-76499000D01*
X232939943Y-76616248D01*
X233495189Y-76846238D01*
X233495190Y-76846239D01*
X233994899Y-77180134D01*
X234419866Y-77605101D01*
X234419867Y-77605103D01*
X234753762Y-78104811D01*
X234983752Y-78660057D01*
X235101000Y-79249501D01*
X235101000Y-79850499D01*
X234983752Y-80439943D01*
X234753762Y-80995189D01*
X234650786Y-81149303D01*
X234419866Y-81494899D01*
X234320654Y-81594111D01*
X234305114Y-81613047D01*
X234293563Y-81634658D01*
X234286450Y-81658107D01*
X234284048Y-81682493D01*
X234286450Y-81706879D01*
X234293563Y-81730328D01*
X234305114Y-81751939D01*
X234320659Y-81770881D01*
X234339601Y-81786426D01*
X234361212Y-81797977D01*
X234384661Y-81805090D01*
X234409047Y-81807492D01*
X234433433Y-81805090D01*
X234438863Y-81803730D01*
X234486888Y-81799000D01*
X235138112Y-81799000D01*
X235184468Y-81803565D01*
X235223138Y-81815296D01*
X235258777Y-81834346D01*
X235290017Y-81859983D01*
X235315654Y-81891223D01*
X235334704Y-81926862D01*
X235346435Y-81965532D01*
X235351000Y-82011888D01*
X235351000Y-83088112D01*
X235346435Y-83134468D01*
X235334704Y-83173138D01*
X235315654Y-83208777D01*
X235290017Y-83240017D01*
X235258777Y-83265654D01*
X235223138Y-83284704D01*
X235184468Y-83296435D01*
X235138112Y-83301000D01*
X234486888Y-83301000D01*
X234440532Y-83296435D01*
X234401862Y-83284704D01*
X234366223Y-83265654D01*
X234334983Y-83240017D01*
X234309346Y-83208777D01*
X234290296Y-83173138D01*
X234278565Y-83134468D01*
X234274000Y-83088112D01*
X234274000Y-82011888D01*
X234279057Y-81960542D01*
X234281890Y-81946300D01*
X234281890Y-81921796D01*
X234277110Y-81897762D01*
X234267733Y-81875123D01*
X234254119Y-81854749D01*
X234236792Y-81837422D01*
X234216418Y-81823808D01*
X234193779Y-81814431D01*
X234169746Y-81809650D01*
X234145242Y-81809650D01*
X234121208Y-81814430D01*
X234098569Y-81823807D01*
X234078195Y-81837421D01*
X234069116Y-81845649D01*
X233994899Y-81919866D01*
X233934023Y-81960542D01*
X233495189Y-82253762D01*
X232939943Y-82483752D01*
X232350499Y-82601000D01*
X231749501Y-82601000D01*
X231160057Y-82483752D01*
X230604811Y-82253762D01*
X230380445Y-82103845D01*
X230358834Y-82092294D01*
X230335385Y-82085181D01*
X230310999Y-82082779D01*
X230286613Y-82085181D01*
X230263164Y-82092294D01*
X230241553Y-82103845D01*
X230222612Y-82119390D01*
X230207066Y-82138332D01*
X230195515Y-82159943D01*
X230188402Y-82183392D01*
X230186000Y-82207778D01*
X230186000Y-82567158D01*
X230181897Y-82608820D01*
X230171533Y-82642985D01*
X230154707Y-82674464D01*
X230132060Y-82702060D01*
X230104464Y-82724707D01*
X230072985Y-82741533D01*
X230038820Y-82751897D01*
X229997158Y-82756000D01*
X227622842Y-82756000D01*
X227581180Y-82751897D01*
X227547015Y-82741533D01*
X227515536Y-82724707D01*
X227487940Y-82702060D01*
X227465293Y-82674464D01*
X227448467Y-82642985D01*
X227438103Y-82608820D01*
X227434000Y-82567158D01*
X227434000Y-81317842D01*
X227438103Y-81276180D01*
X227448467Y-81242015D01*
X227465293Y-81210536D01*
X227487940Y-81182940D01*
X227515536Y-81160293D01*
X227547015Y-81143467D01*
X227581180Y-81133103D01*
X227622842Y-81129000D01*
X229214590Y-81129000D01*
X229238976Y-81126598D01*
X229262425Y-81119485D01*
X229284036Y-81107934D01*
X229302978Y-81092389D01*
X229318523Y-81073447D01*
X229330074Y-81051836D01*
X229337187Y-81028387D01*
X229339589Y-81004001D01*
X229337187Y-80979615D01*
X229330074Y-80956166D01*
X229116248Y-80439943D01*
X228999000Y-79850499D01*
X228999000Y-79249501D01*
X229116248Y-78660057D01*
X229346238Y-78104811D01*
X229478934Y-77906218D01*
X229490485Y-77884607D01*
X229497598Y-77861158D01*
X229500000Y-77836772D01*
X229500000Y-73013228D01*
X229497598Y-72988842D01*
X229490485Y-72965393D01*
X229478934Y-72943782D01*
X229346238Y-72745189D01*
X229116248Y-72189943D01*
X228999000Y-71600499D01*
X228999000Y-70999501D01*
X229116248Y-70410057D01*
X229346238Y-69854811D01*
X229478934Y-69656218D01*
X229490485Y-69634607D01*
X229497598Y-69611158D01*
X229500000Y-69586772D01*
X229500000Y-61421793D01*
X229497598Y-61397407D01*
X229490485Y-61373958D01*
X229478934Y-61352347D01*
X229463389Y-61333405D01*
X229444447Y-61317860D01*
X229422836Y-61306309D01*
X229399387Y-61299196D01*
X229375001Y-61296794D01*
X229350615Y-61299196D01*
X229327180Y-61306305D01*
X229298228Y-61318297D01*
X229133816Y-61351000D01*
X228966184Y-61351000D01*
X228801772Y-61318297D01*
X228646900Y-61254147D01*
X228507519Y-61161015D01*
X228388985Y-61042481D01*
X228295853Y-60903100D01*
X228231703Y-60748228D01*
X228199000Y-60583816D01*
X228199000Y-60416184D01*
X228231703Y-60251772D01*
X228295853Y-60096900D01*
X228388985Y-59957519D01*
X228507519Y-59838985D01*
X228646900Y-59745853D01*
X228801772Y-59681703D01*
X228966184Y-59649000D01*
X229133816Y-59649000D01*
X229298228Y-59681703D01*
X229327180Y-59693695D01*
X229350615Y-59700804D01*
X229375002Y-59703206D01*
X229399388Y-59700804D01*
X229422837Y-59693691D01*
X229444447Y-59682140D01*
X229463389Y-59666594D01*
X229478934Y-59647652D01*
X229490485Y-59626042D01*
X229497598Y-59602593D01*
X229500000Y-59578207D01*
X229500000Y-58624999D01*
X229497598Y-58600613D01*
X229490485Y-58577164D01*
X229478934Y-58555553D01*
X229463389Y-58536611D01*
X229444447Y-58521066D01*
X229422836Y-58509515D01*
X229399387Y-58502402D01*
X229375001Y-58500000D01*
X216124999Y-58500000D01*
X216100613Y-58502402D01*
X216077164Y-58509515D01*
X216055553Y-58521066D01*
X216036611Y-58536611D01*
X216021066Y-58555553D01*
X216009515Y-58577164D01*
X216002402Y-58600613D01*
X216000000Y-58624999D01*
X216000000Y-59324001D01*
X216002402Y-59348387D01*
X216009515Y-59371836D01*
X216021066Y-59393447D01*
X216036611Y-59412389D01*
X216055553Y-59427934D01*
X216077164Y-59439485D01*
X216100613Y-59446598D01*
X216101000Y-59446636D01*
X216101000Y-67551000D01*
X205999000Y-67551000D01*
X205999000Y-60374999D01*
X205996598Y-60350613D01*
X205989485Y-60327164D01*
X205977934Y-60305553D01*
X205962389Y-60286611D01*
X205943447Y-60271066D01*
X205921836Y-60259515D01*
X205898387Y-60252402D01*
X205874001Y-60250000D01*
X203825999Y-60250000D01*
X203801613Y-60252402D01*
X203778164Y-60259515D01*
X203756553Y-60271066D01*
X203737611Y-60286611D01*
X203722066Y-60305553D01*
X203710515Y-60327164D01*
X203703402Y-60350613D01*
X203701000Y-60374999D01*
X203701000Y-67551000D01*
X193599000Y-67551000D01*
X193599000Y-60374999D01*
X193596598Y-60350613D01*
X193589485Y-60327164D01*
X193577934Y-60305553D01*
X193562389Y-60286611D01*
X193543447Y-60271066D01*
X193521836Y-60259515D01*
X193498387Y-60252402D01*
X193474001Y-60250000D01*
X191425999Y-60250000D01*
X191401613Y-60252402D01*
X191378164Y-60259515D01*
X191356553Y-60271066D01*
X191337611Y-60286611D01*
X191322066Y-60305553D01*
X191310515Y-60327164D01*
X191303402Y-60350613D01*
X191301000Y-60374999D01*
X191301000Y-67501000D01*
X181199000Y-67501000D01*
X181199000Y-59374198D01*
X181213389Y-59362389D01*
X181228934Y-59343447D01*
X181240485Y-59321836D01*
X181247598Y-59298387D01*
X181250000Y-59274001D01*
X181250000Y-56250000D01*
X231500000Y-56250000D01*
X231500000Y-68146317D01*
G37*
G36*
X214501000Y-72551000D02*
G01*
X214374999Y-72551000D01*
X214350613Y-72553402D01*
X214327164Y-72560515D01*
X214305553Y-72572066D01*
X214286611Y-72587611D01*
X214271066Y-72606553D01*
X214259515Y-72628164D01*
X214252402Y-72651613D01*
X214250000Y-72675999D01*
X214250000Y-74574001D01*
X214252402Y-74598387D01*
X214259515Y-74621836D01*
X214271066Y-74643447D01*
X214286611Y-74662389D01*
X214305553Y-74677934D01*
X214327164Y-74689485D01*
X214350613Y-74696598D01*
X214374999Y-74699000D01*
X216101000Y-74699000D01*
X216101000Y-82801000D01*
X205999000Y-82801000D01*
X205999000Y-74584153D01*
X206000000Y-74574001D01*
X206000000Y-69500000D01*
X206274001Y-69500000D01*
X206298387Y-69497598D01*
X206321836Y-69490485D01*
X206343447Y-69478934D01*
X206362389Y-69463389D01*
X206374198Y-69449000D01*
X214501000Y-69449000D01*
X214501000Y-72551000D01*
G37*
G36*
X202101000Y-72553364D02*
G01*
X202100613Y-72553402D01*
X202077164Y-72560515D01*
X202055553Y-72572066D01*
X202036611Y-72587611D01*
X202021066Y-72606553D01*
X202009515Y-72628164D01*
X202002402Y-72651613D01*
X202000000Y-72675999D01*
X202000000Y-74574001D01*
X202002402Y-74598387D01*
X202009515Y-74621836D01*
X202021066Y-74643447D01*
X202036611Y-74662389D01*
X202055553Y-74677934D01*
X202077164Y-74689485D01*
X202100613Y-74696598D01*
X202124999Y-74699000D01*
X203701000Y-74699000D01*
X203701000Y-82801000D01*
X193599000Y-82801000D01*
X193599000Y-74699000D01*
X193625001Y-74699000D01*
X193649387Y-74696598D01*
X193672836Y-74689485D01*
X193694447Y-74677934D01*
X193713389Y-74662389D01*
X193728934Y-74643447D01*
X193740485Y-74621836D01*
X193747598Y-74598387D01*
X193750000Y-74574001D01*
X193750000Y-69500000D01*
X193874001Y-69500000D01*
X193898387Y-69497598D01*
X193921836Y-69490485D01*
X193943447Y-69478934D01*
X193962389Y-69463389D01*
X193974198Y-69449000D01*
X202101000Y-69449000D01*
X202101000Y-72553364D01*
G37*
G36*
X189701000Y-72501000D02*
G01*
X189624999Y-72501000D01*
X189600613Y-72503402D01*
X189577164Y-72510515D01*
X189555553Y-72522066D01*
X189536611Y-72537611D01*
X189521066Y-72556553D01*
X189509515Y-72578164D01*
X189502402Y-72601613D01*
X189500000Y-72625999D01*
X189500000Y-73132130D01*
X189502402Y-73156516D01*
X189550740Y-73399527D01*
X189550740Y-74000473D01*
X189502402Y-74243484D01*
X189500000Y-74267870D01*
X189500000Y-74524001D01*
X189502402Y-74548387D01*
X189509515Y-74571836D01*
X189521066Y-74593447D01*
X189536611Y-74612389D01*
X189555553Y-74627934D01*
X189577164Y-74639485D01*
X189600613Y-74646598D01*
X189624999Y-74649000D01*
X191301000Y-74649000D01*
X191301000Y-82751000D01*
X181199000Y-82751000D01*
X181199000Y-74624198D01*
X181213389Y-74612389D01*
X181228934Y-74593447D01*
X181240485Y-74571836D01*
X181247598Y-74548387D01*
X181250000Y-74524001D01*
X181250000Y-69500000D01*
X181474001Y-69500000D01*
X181498387Y-69497598D01*
X181521836Y-69490485D01*
X181543447Y-69478934D01*
X181562389Y-69463389D01*
X181577934Y-69444447D01*
X181589485Y-69422836D01*
X181596598Y-69399387D01*
X181596636Y-69399000D01*
X189701000Y-69399000D01*
X189701000Y-72501000D01*
G37*
G36*
X215701000Y-72551000D02*
G01*
X214799000Y-72551000D01*
X214799000Y-69449000D01*
X215701000Y-69449000D01*
X215701000Y-72551000D01*
G37*
G36*
X203301000Y-72551000D02*
G01*
X202399000Y-72551000D01*
X202399000Y-69449000D01*
X203301000Y-69449000D01*
X203301000Y-72551000D01*
G37*
G36*
X190901000Y-72501000D02*
G01*
X189999000Y-72501000D01*
X189999000Y-69399000D01*
X190901000Y-69399000D01*
X190901000Y-72501000D01*
G37*
G36*
X234298228Y-59681703D02*
G01*
X234453100Y-59745853D01*
X234592481Y-59838985D01*
X234711015Y-59957519D01*
X234804147Y-60096900D01*
X234868297Y-60251772D01*
X234901000Y-60416184D01*
X234901000Y-60583816D01*
X234868297Y-60748228D01*
X234804147Y-60903100D01*
X234711015Y-61042481D01*
X234592481Y-61161015D01*
X234453100Y-61254147D01*
X234298228Y-61318297D01*
X234133816Y-61351000D01*
X233966184Y-61351000D01*
X233801772Y-61318297D01*
X233646900Y-61254147D01*
X233507519Y-61161015D01*
X233388985Y-61042481D01*
X233295853Y-60903100D01*
X233231703Y-60748228D01*
X233199000Y-60583816D01*
X233199000Y-60416184D01*
X233231703Y-60251772D01*
X233295853Y-60096900D01*
X233388985Y-59957519D01*
X233507519Y-59838985D01*
X233646900Y-59745853D01*
X233801772Y-59681703D01*
X233966184Y-59649000D01*
X234133816Y-59649000D01*
X234298228Y-59681703D01*
G37*
M02*
