M48
; DRILL file {KiCad (5.1.4)-1} date 2020/01/10 4:32:48
; FORMAT={-:-/ absolute / metric / decimal}
; #@! TF.CreationDate,2020-01-10T04:32:48+09:00
; #@! TF.GenerationSoftware,Kicad,Pcbnew,(5.1.4)-1
; #@! TF.FileFunction,Plated,1,2,PTH
FMAT,2
METRIC
T1C0.300
T2C0.400
T3C0.700
T4C0.750
T5C0.762
T6C0.800
T7C0.813
T8C1.000
T9C1.600
T10C2.500
T11C3.000
T12C4.500
%
G90
G05
T1
X86.56Y-104.56
X90.25Y-72.4
X90.5Y-58.0
X91.45Y-75.45
X91.635Y-103.4
X91.64Y-101.48
X92.9Y-103.6
X93.662Y-74.9
X95.05Y-116.4
X95.447Y-111.32
X95.45Y-103.65
X96.45Y-110.0
X96.55Y-102.8
X96.55Y-105.35
X98.0Y-102.8
X98.81Y-104.87
X99.6Y-104.75
X100.35Y-121.45
X100.637Y-117.2
X100.637Y-118.65
X100.65Y-72.4
X101.25Y-57.75
X101.55Y-125.25
X101.6Y-108.35
X102.05Y-124.595
X102.35Y-110.0
X103.09Y-109.98
X103.85Y-106.3
X103.88Y-101.48
X103.885Y-103.4
X103.92Y-109.995
X104.112Y-74.9
X105.1Y-103.5
X107.7Y-103.5
X109.9Y-133.05
X110.05Y-105.55
X110.21Y-114.862
X110.6Y-122.1
X110.87Y-118.57
X111.05Y-112.8
X111.05Y-121.55
X111.1Y-72.4
X111.452Y-119.125
X111.865Y-112.83
X112.15Y-126.1
X112.95Y-116.25
X113.4Y-126.15
X113.7Y-114.8
X114.45Y-116.75
X114.512Y-74.95
X114.79Y-122.38
X114.85Y-133.05
X115.05Y-127.325
X115.55Y-117.85
X116.085Y-103.55
X116.1Y-101.65
X116.4Y-118.95
X117.038Y-112.676
X117.1Y-111.96
X117.25Y-111.05
X117.3Y-119.85
X117.34Y-123.39
X117.35Y-103.4
X117.857Y-121.343
X117.93Y-126.56
X118.573Y-110.61
X118.749Y-122.65
X119.343Y-120.918
X119.35Y-106.45
X119.45Y-113.2
X119.55Y-124.39
X119.726Y-123.67
X119.9Y-103.4
X120.0Y-119.2
X120.075Y-127.199
X120.135Y-124.857
X120.2Y-106.1
X120.54Y-113.36
X120.65Y-112.6
X120.85Y-127.09
X120.95Y-123.3
X121.0Y-118.2
X121.55Y-72.4
X121.68Y-124.71
X121.73Y-106.83
X121.733Y-125.435
X122.285Y-115.655
X122.357Y-117.657
X122.42Y-107.88
X122.447Y-116.383
X123.68Y-131.9
X123.9Y-123.9
X124.139Y-121.69
X124.159Y-116.343
X124.61Y-124.65
X124.836Y-121.618
X125.062Y-74.95
X125.1Y-111.717
X125.36Y-115.89
X125.42Y-115.16
X125.469Y-112.319
X125.516Y-113.05
X125.8Y-131.62
X127.41Y-112.66
X127.719Y-111.783
X127.94Y-131.99
X127.96Y-113.17
X128.1Y-101.55
X128.13Y-107.69
X128.2Y-103.45
X129.6Y-103.45
X130.0Y-74.95
X130.45Y-110.1
X130.99Y-132.79
X132.05Y-103.45
X132.56Y-123.16
X132.653Y-123.854
X133.0Y-107.1
X134.141Y-113.669
X134.45Y-107.75
X134.696Y-114.224
X135.0Y-108.3
X135.15Y-93.5
X135.65Y-91.4
X135.65Y-110.0
X137.085Y-96.55
X137.6Y-108.4
X138.85Y-107.15
X139.02Y-84.1
X139.75Y-102.15
X139.8Y-129.9
X140.05Y-108.45
X140.05Y-112.3
X141.75Y-93.337
X142.938Y-85.0
X144.74Y-103.03
X144.787Y-88.7
T2
X73.25Y-102.25
X73.25Y-105.0
X73.25Y-108.5
X73.25Y-113.5
X73.25Y-118.75
X73.25Y-123.15
X73.25Y-127.0
X73.25Y-133.0
X75.7Y-128.1
X76.0Y-132.25
X76.85Y-123.65
X76.95Y-109.9
X76.95Y-113.5
X76.95Y-117.8
X76.95Y-120.85
X77.0Y-102.25
X78.75Y-134.0
X78.75Y-138.0
X79.05Y-113.15
X79.25Y-131.75
X79.45Y-118.237
X79.7Y-119.55
X79.7Y-124.35
X79.7Y-126.55
X80.05Y-107.05
X80.25Y-102.25
X83.1Y-125.5
X83.1Y-128.2
X83.25Y-131.95
X83.25Y-134.75
X83.5Y-138.0
X83.75Y-104.5
X83.99Y-119.837
X85.1Y-117.5
X85.25Y-102.25
X85.8Y-91.5
X85.9Y-122.65
X85.9Y-125.5
X87.25Y-108.05
X87.25Y-110.85
X88.5Y-131.95
X88.5Y-134.75
X88.5Y-138.0
X88.65Y-122.65
X88.65Y-125.5
X89.095Y-104.555
X89.1Y-108.0
X90.562Y-114.15
X91.0Y-130.75
X92.1Y-91.5
X92.25Y-110.737
X92.25Y-127.75
X92.25Y-130.75
X93.089Y-116.565
X93.5Y-135.0
X93.5Y-138.0
X94.75Y-127.75
X95.6Y-93.85
X97.85Y-108.2
X98.1Y-91.5
X99.0Y-134.35
X100.0Y-132.25
X100.05Y-122.4
X100.85Y-116.15
X101.35Y-104.45
X101.65Y-106.6
X102.5Y-113.3
X103.15Y-124.6
X103.5Y-135.0
X103.5Y-138.0
X103.6Y-117.3
X103.7Y-129.0
X103.7Y-130.9
X104.4Y-91.5
X105.6Y-129.0
X105.6Y-130.9
X106.35Y-105.45
X106.85Y-114.85
X106.93Y-110.57
X107.8Y-93.85
X108.5Y-109.0
X108.5Y-135.0
X108.5Y-138.0
X108.712Y-133.2
X109.95Y-91.5
X110.15Y-106.65
X110.7Y-131.35
X110.9Y-116.74
X111.25Y-108.2
X111.35Y-57.8
X112.27Y-74.225
X113.25Y-131.35
X113.55Y-104.65
X114.5Y-134.75
X114.5Y-138.0
X114.8Y-105.2
X115.25Y-115.05
X115.85Y-112.55
X117.05Y-132.65
X117.7Y-108.45
X117.7Y-116.3
X117.862Y-90.1
X118.75Y-107.5
X119.47Y-115.15
X119.5Y-134.75
X119.5Y-138.0
X120.05Y-93.85
X121.775Y-57.825
X123.11Y-124.92
X123.23Y-131.04
X123.662Y-90.05
X124.17Y-132.86
X124.75Y-135.0
X124.75Y-138.0
X125.7Y-104.75
X125.7Y-121.15
X125.84Y-127.07
X127.0Y-105.25
X127.65Y-118.45
X127.75Y-115.0
X128.7Y-125.41
X129.05Y-90.1
X129.05Y-122.7
X129.75Y-138.0
X132.15Y-93.85
X132.95Y-117.85
X132.95Y-121.7
X133.45Y-126.8
X133.6Y-65.0
X134.05Y-116.7
X134.3Y-106.7
X135.5Y-133.35
X135.5Y-138.0
X135.55Y-125.15
X135.6Y-117.85
X135.6Y-120.4
X135.6Y-122.4
X135.815Y-96.55
X135.838Y-74.55
X135.85Y-78.05
X135.95Y-126.8
X135.95Y-128.8
X135.95Y-130.4
X136.25Y-112.5
X136.95Y-115.2
X137.075Y-104.6
X137.2Y-110.75
X137.83Y-89.832
X138.6Y-117.25
X138.6Y-120.4
X138.812Y-75.75
X138.95Y-128.45
X140.5Y-133.75
X140.5Y-138.0
X140.688Y-75.75
X140.95Y-128.45
X141.65Y-110.75
X141.75Y-91.763
X143.063Y-87.03
X143.1Y-117.25
X143.1Y-120.4
X143.75Y-128.4
X143.75Y-131.25
X144.987Y-93.2
X146.75Y-102.25
X146.75Y-104.75
X146.75Y-107.25
X146.75Y-109.75
X146.75Y-114.75
X146.75Y-117.25
X146.75Y-119.75
X146.75Y-122.25
X146.75Y-124.75
X146.75Y-128.0
X146.75Y-131.0
X146.75Y-133.0
T3
X138.45Y-126.7
X139.95Y-126.7
X141.45Y-126.7
X142.95Y-126.7
X144.45Y-126.7
X145.95Y-126.7
T4
X74.5Y-59.8
X74.5Y-66.0
X74.5Y-67.0
X74.5Y-68.5
X74.5Y-69.5
X74.5Y-74.5
X74.5Y-75.5
X75.5Y-59.8
X75.5Y-66.0
X75.5Y-67.0
X75.5Y-68.5
X75.5Y-74.5
X75.5Y-75.5
X78.75Y-66.0
X78.75Y-67.0
X78.75Y-68.5
X78.75Y-74.5
X78.75Y-75.5
X78.8Y-59.8
X79.75Y-66.0
X79.75Y-67.0
X79.75Y-68.5
X79.75Y-69.5
X79.75Y-74.5
X79.75Y-75.5
X79.8Y-59.8
X81.3Y-59.85
X81.3Y-68.15
X81.3Y-69.15
X81.35Y-66.0
X81.35Y-67.0
X81.35Y-74.45
X81.35Y-75.45
X82.3Y-59.85
X82.3Y-68.15
X82.3Y-69.15
X82.35Y-66.0
X82.35Y-67.0
X82.35Y-74.45
X82.35Y-75.45
X83.35Y-75.45
X84.8Y-66.0
X84.8Y-68.15
X84.8Y-75.45
X85.8Y-66.0
X85.8Y-67.05
X85.8Y-68.15
X85.8Y-69.15
X85.8Y-74.45
X85.8Y-75.45
X85.9Y-59.85
X86.8Y-68.15
X86.8Y-69.15
X86.8Y-74.45
X86.8Y-75.45
X86.85Y-65.95
X86.85Y-67.05
X86.9Y-59.85
X86.95Y-60.85
X92.75Y-59.5
X92.75Y-61.0
X92.75Y-62.5
X92.75Y-64.0
X92.75Y-65.5
X92.75Y-67.0
X92.75Y-68.5
X92.75Y-70.0
X92.75Y-71.5
X93.75Y-77.25
X93.75Y-78.75
X93.75Y-80.25
X94.25Y-59.5
X94.25Y-61.0
X94.25Y-62.5
X94.25Y-64.0
X94.25Y-65.5
X94.25Y-67.0
X94.25Y-68.5
X94.25Y-70.0
X94.25Y-71.5
X95.25Y-77.25
X95.25Y-78.75
X95.25Y-80.25
X95.25Y-81.75
X95.75Y-59.5
X95.75Y-61.0
X95.75Y-62.5
X95.75Y-64.0
X95.75Y-65.5
X95.75Y-71.5
X95.75Y-73.0
X96.75Y-77.25
X96.75Y-78.75
X96.75Y-80.25
X96.75Y-81.75
X96.75Y-83.25
X97.25Y-59.5
X97.25Y-61.0
X97.25Y-62.5
X97.25Y-64.0
X97.25Y-65.5
X97.25Y-71.5
X97.25Y-73.0
X98.25Y-77.25
X98.25Y-78.75
X98.25Y-80.25
X98.25Y-81.75
X98.25Y-83.25
X98.75Y-59.5
X98.75Y-61.0
X98.75Y-62.5
X98.75Y-64.0
X98.75Y-65.5
X99.75Y-81.75
X99.75Y-83.25
X100.75Y-59.75
X100.75Y-61.25
X100.75Y-62.75
X100.75Y-64.25
X100.75Y-65.75
X101.25Y-83.25
X102.25Y-60.25
X102.25Y-61.75
X102.25Y-63.25
X102.25Y-64.75
X102.25Y-66.25
X102.25Y-70.75
X102.25Y-72.25
X103.75Y-60.25
X103.75Y-61.75
X103.75Y-63.25
X103.75Y-64.75
X103.75Y-72.25
X104.57Y-77.4
X104.57Y-78.9
X104.57Y-80.4
X105.25Y-60.25
X105.25Y-61.75
X105.25Y-63.25
X105.25Y-64.75
X105.25Y-66.25
X105.25Y-72.25
X106.07Y-77.4
X106.07Y-78.9
X106.07Y-80.4
X106.07Y-81.9
X106.75Y-63.25
X106.75Y-64.75
X106.75Y-66.25
X106.75Y-67.75
X106.75Y-69.25
X106.75Y-70.75
X107.57Y-77.4
X107.57Y-78.9
X107.57Y-80.4
X107.57Y-81.9
X109.07Y-77.4
X109.07Y-78.9
X109.07Y-80.4
X109.07Y-81.9
X113.75Y-59.25
X113.75Y-60.75
X113.75Y-62.25
X113.75Y-63.75
X113.75Y-65.25
X113.75Y-66.75
X113.75Y-68.25
X113.75Y-69.75
X113.75Y-71.25
X115.25Y-59.25
X115.25Y-60.75
X115.25Y-62.25
X115.25Y-63.75
X115.25Y-65.25
X115.25Y-66.75
X115.25Y-68.25
X115.25Y-69.75
X115.25Y-71.25
X115.5Y-77.9
X115.5Y-79.4
X115.5Y-80.9
X115.55Y-82.4
X116.75Y-59.25
X116.75Y-60.75
X116.75Y-62.25
X116.75Y-63.75
X116.75Y-65.25
X116.75Y-71.25
X116.75Y-72.75
X117.0Y-77.9
X117.0Y-79.4
X117.0Y-80.9
X117.05Y-82.4
X117.05Y-83.9
X118.25Y-59.25
X118.25Y-60.75
X118.25Y-62.25
X118.25Y-63.75
X118.25Y-65.25
X118.25Y-71.25
X118.25Y-72.75
X118.5Y-77.9
X118.5Y-79.35
X118.5Y-80.85
X118.55Y-82.35
X118.55Y-83.85
X119.75Y-59.25
X119.75Y-60.75
X119.75Y-62.25
X119.75Y-63.75
X119.75Y-65.25
X120.0Y-77.9
X120.0Y-79.35
X120.0Y-80.85
X120.05Y-82.35
X120.05Y-83.85
X122.25Y-60.0
X122.25Y-61.5
X122.25Y-63.0
X122.25Y-64.5
X122.25Y-66.0
X123.0Y-72.0
X123.75Y-60.0
X123.75Y-61.5
X123.75Y-63.0
X123.75Y-64.5
X123.75Y-66.0
X124.5Y-72.0
X125.05Y-77.4
X125.05Y-78.9
X125.05Y-80.4
X125.05Y-81.9
X125.25Y-60.0
X125.25Y-61.5
X125.25Y-63.0
X125.25Y-64.5
X126.0Y-72.0
X126.55Y-77.4
X126.55Y-78.9
X126.55Y-80.4
X126.55Y-81.9
X126.55Y-83.4
X126.75Y-60.0
X126.75Y-61.5
X126.75Y-63.0
X126.75Y-64.5
X126.75Y-66.0
X127.5Y-70.5
X127.5Y-72.0
X127.65Y-67.25
X128.05Y-77.4
X128.05Y-78.9
X128.05Y-80.4
X128.05Y-81.9
X128.05Y-83.4
X129.55Y-77.4
X129.55Y-78.9
X129.55Y-80.4
X129.55Y-81.9
X129.55Y-83.4
T5
X139.81Y-115.59
X139.81Y-123.21
X142.35Y-115.59
X142.35Y-123.21
X144.89Y-115.59
X144.89Y-123.21
X92.09Y-107.4
X94.0Y-107.4
X95.91Y-107.4
X112.59Y-107.4
X114.5Y-107.4
X116.41Y-107.4
T6
X106.05Y-124.5
X107.55Y-124.5
X109.05Y-124.5
X110.55Y-124.5
X112.05Y-124.5
X113.55Y-124.5
X115.05Y-124.5
X116.55Y-124.5
X118.05Y-124.5
X88.55Y-115.7
X88.55Y-118.2
X134.6Y-79.65
X134.6Y-82.15
X133.6Y-59.6
X136.1Y-59.6
X77.25Y-82.75
X82.25Y-82.75
T7
X138.3Y-132.61
X138.3Y-135.15
X138.3Y-137.69
T8
X81.75Y-103.25
X81.75Y-105.75
X81.75Y-108.25
X81.75Y-110.75
X81.9Y-129.85
X84.4Y-129.85
X86.9Y-129.85
X89.4Y-129.85
X142.7Y-59.4
X142.7Y-61.9
X119.45Y-129.85
X121.95Y-129.85
X124.45Y-129.85
X81.75Y-115.75
X81.75Y-118.25
X81.75Y-120.75
X81.75Y-123.25
X94.45Y-129.85
X96.95Y-129.85
X99.45Y-129.85
X101.95Y-129.85
X106.95Y-129.85
X109.45Y-129.85
X111.95Y-129.85
X114.45Y-129.85
X74.25Y-129.7
X76.79Y-129.7
X129.45Y-129.85
X131.95Y-129.85
X134.45Y-129.85
X130.875Y-114.2
X130.875Y-116.7
X130.875Y-119.2
X130.875Y-121.7
T10
X75.25Y-107.0
X85.65Y-136.35
X75.25Y-119.5
X98.2Y-136.35
X110.7Y-136.35
T11
X75.5Y-54.0
X75.5Y-136.0
X144.5Y-54.0
X144.5Y-136.0
X131.95Y-136.35
X121.95Y-136.35
T12
X97.1Y-68.7
X104.1Y-68.7
X118.0Y-68.75
X125.0Y-68.75
X77.25Y-63.05
X84.25Y-63.05
X77.25Y-71.55
X84.25Y-71.55
T9
G00X91.0Y-86.0
M15
G01X87.0Y-86.0
M16
G05
G00X101.0Y-86.0
M15
G01X97.0Y-86.0
M16
G05
G00X111.5Y-86.0
M15
G01X107.5Y-86.0
M16
G05
G00X121.5Y-86.0
M15
G01X117.5Y-86.0
M16
G05
T0
M30
