M48
; DRILL file {KiCad (5.1.4)-1} date 2020/02/14 11:52:27
; FORMAT={-:-/ absolute / metric / decimal}
; #@! TF.CreationDate,2020-02-14T11:52:27+09:00
; #@! TF.GenerationSoftware,Kicad,Pcbnew,(5.1.4)-1
; #@! TF.FileFunction,Plated,1,2,PTH
FMAT,2
METRIC
T1C0.300
T2C0.400
T3C0.600
T4C0.700
T5C0.762
T6C0.800
T7C0.813
T8C1.000
T9C1.001
T10C1.016
T11C1.100
T12C2.301
T13C3.000
%
G90
G05
T1
X59.0Y-125.75
X61.25Y-129.03
X68.74Y-113.62
X71.47Y-118.5
X78.82Y-120.74
X78.95Y-88.655
X78.95Y-95.095
X80.19Y-121.2
X80.64Y-99.57
X80.7Y-117.65
X81.69Y-96.18
X82.44Y-89.89
X83.26Y-115.09
X83.47Y-119.77
X84.9Y-98.475
X85.27Y-125.15
X87.18Y-100.41
X88.46Y-115.09
X89.86Y-125.62
X92.04Y-113.6
X92.04Y-116.6
X93.37Y-104.04
X93.78Y-113.5
X94.75Y-71.79
X96.146Y-99.406
X96.79Y-71.215
X96.96Y-99.405
X98.58Y-88.37
X99.21Y-90.17
X100.25Y-93.28
X100.72Y-115.2
X100.88Y-101.69
X100.9Y-100.04
X101.46Y-111.37
X101.5Y-102.24
X101.989Y-115.63
X101.99Y-112.79
X102.075Y-103.3
X102.75Y-93.28
X103.05Y-102.37
X103.75Y-119.47
X104.09Y-98.26
X105.0Y-112.8
X105.0Y-115.63
X105.1Y-81.66
X105.182Y-80.928
X105.36Y-98.16
X105.77Y-88.48
X105.78Y-83.13
X106.29Y-98.29
X106.54Y-83.49
X106.54Y-88.62
X106.703Y-96.003
X107.4Y-95.78
X107.41Y-81.66
X107.55Y-78.83
X107.56Y-80.95
X107.61Y-79.53
X107.77Y-119.89
X107.77Y-127.54
X108.0Y-112.36
X108.0Y-115.63
X108.041Y-97.686
X108.35Y-127.94
X108.36Y-118.46
X108.912Y-75.718
X109.55Y-76.52
X110.17Y-99.599
X110.25Y-119.47
X111.0Y-112.73
X111.0Y-115.63
X111.09Y-99.599
X111.27Y-83.41
X112.035Y-82.835
X113.128Y-75.718
X113.14Y-76.52
X113.14Y-93.78
X113.15Y-79.53
X113.16Y-78.83
X113.71Y-119.52
X113.71Y-122.59
X113.78Y-87.0
X114.0Y-99.195
X114.0Y-101.245
X114.0Y-103.325
X114.0Y-115.63
X114.0Y-118.25
X114.108Y-94.498
X114.44Y-119.67
X114.44Y-122.42
X114.592Y-89.148
X114.9Y-88.52
X115.73Y-106.0
X115.738Y-105.298
X115.743Y-103.623
X115.87Y-106.72
X116.04Y-107.45
X116.19Y-108.14
X116.55Y-95.81
X116.75Y-119.47
X116.86Y-110.84
X117.0Y-115.63
X117.25Y-110.21
X118.0Y-82.3
X118.0Y-93.335
X118.31Y-110.87
X118.69Y-111.49
X118.78Y-73.25
X118.78Y-75.25
X120.0Y-129.4
X120.51Y-78.83
X120.7Y-100.17
X121.22Y-110.63
X121.8Y-111.07
X121.908Y-104.415
X121.91Y-108.11
X121.93Y-84.25
X121.93Y-95.25
X122.38Y-111.51
X122.54Y-108.46
X122.542Y-103.84
X122.73Y-79.89
X122.98Y-111.89
X123.25Y-119.47
X123.49Y-80.14
X123.5Y-83.43
X124.0Y-95.58
X124.21Y-83.43
X126.18Y-73.0
X126.38Y-98.235
X126.5Y-83.43
X126.5Y-95.57
X126.82Y-73.0
X126.89Y-78.83
X127.844Y-103.998
X128.535Y-104.12
X128.707Y-104.799
X128.762Y-119.562
X129.0Y-83.43
X129.03Y-105.42
X129.765Y-105.91
X129.937Y-117.567
X130.34Y-107.073
X130.36Y-106.37
X130.69Y-107.68
X130.84Y-70.58
X131.02Y-102.5
X131.25Y-110.64
X131.5Y-71.24
X131.887Y-102.447
X132.0Y-83.25
X132.0Y-119.05
X132.505Y-93.865
X132.662Y-100.898
X132.77Y-101.82
X132.77Y-123.55
X133.01Y-93.29
X134.0Y-95.32
X134.07Y-83.25
X134.22Y-86.25
X134.47Y-93.43
X135.39Y-112.71
X135.76Y-104.12
X135.788Y-101.928
X135.9Y-102.63
X136.3Y-104.64
X137.308Y-94.063
X137.358Y-93.325
X137.545Y-94.75
X138.1Y-105.77
X138.12Y-99.37
X138.131Y-104.936
X138.49Y-106.37
X138.68Y-107.06
X138.855Y-99.256
X139.02Y-107.68
X139.09Y-85.95
X139.43Y-99.67
X139.55Y-94.47
X140.015Y-100.19
X140.34Y-100.9
X140.87Y-86.77
X141.07Y-101.0
X141.095Y-101.91
X141.095Y-101.91
X141.55Y-69.75
X141.63Y-117.25
X141.63Y-120.25
X142.097Y-103.633
X142.14Y-69.14
X142.85Y-95.05
X142.85Y-103.72
X142.915Y-97.204
X143.27Y-96.588
X143.27Y-107.62
X143.57Y-126.0
X143.88Y-107.07
X143.93Y-106.28
X144.07Y-95.18
X144.085Y-78.25
X144.24Y-124.71
X144.66Y-77.59
X144.67Y-94.64
X146.65Y-120.45
X147.38Y-111.05
X147.43Y-98.9
X147.43Y-121.4
X147.45Y-86.3
X147.45Y-89.71
X147.45Y-91.46
X147.45Y-94.85
X147.45Y-102.21
X147.45Y-103.96
X147.45Y-114.46
X147.45Y-116.21
X147.45Y-119.5
X147.45Y-124.71
X147.45Y-126.46
X147.48Y-107.35
X147.48Y-129.85
T2
X54.0Y-65.5
X54.0Y-69.5
X54.0Y-75.25
X54.0Y-79.75
X54.0Y-84.75
X54.0Y-88.75
X54.0Y-92.25
X54.0Y-96.75
X54.0Y-100.5
X54.0Y-104.75
X54.0Y-108.0
X54.0Y-111.5
X54.0Y-115.25
X54.0Y-122.5
X54.0Y-125.5
X54.0Y-128.5
X54.0Y-131.5
X55.5Y-120.18
X55.54Y-127.555
X56.0Y-131.0
X56.25Y-70.5
X56.25Y-73.75
X56.25Y-101.25
X56.5Y-66.0
X56.5Y-108.0
X56.5Y-111.25
X57.25Y-84.75
X57.25Y-88.75
X57.25Y-92.25
X58.25Y-122.998
X58.25Y-131.5
X58.74Y-99.19
X58.75Y-65.5
X58.75Y-104.75
X59.25Y-73.75
X59.5Y-60.25
X59.5Y-133.25
X59.75Y-63.5
X60.25Y-68.5
X60.25Y-82.0
X60.25Y-87.0
X60.25Y-92.0
X60.25Y-94.75
X60.25Y-97.0
X60.25Y-137.25
X60.5Y-101.25
X60.7Y-133.742
X60.75Y-113.5
X60.75Y-116.0
X60.75Y-119.25
X60.75Y-122.5
X61.5Y-130.5
X62.53Y-74.25
X62.62Y-103.0
X62.75Y-72.75
X62.75Y-127.47
X62.75Y-129.03
X62.75Y-133.0
X63.0Y-69.25
X63.25Y-104.5
X63.5Y-82.0
X63.5Y-84.5
X63.5Y-87.0
X63.5Y-94.5
X63.5Y-119.25
X63.5Y-137.25
X63.75Y-99.75
X63.75Y-108.5
X65.5Y-69.25
X65.5Y-130.25
X65.75Y-87.635
X65.75Y-99.385
X65.81Y-112.0
X66.115Y-106.0
X66.5Y-122.5
X66.75Y-104.5
X67.0Y-137.25
X67.25Y-73.75
X67.25Y-76.25
X67.25Y-84.5
X67.25Y-87.0
X67.5Y-92.0
X67.5Y-94.5
X67.5Y-99.75
X67.5Y-102.0
X68.25Y-69.25
X68.25Y-88.0
X68.25Y-89.25
X68.5Y-112.5
X68.5Y-115.5
X68.5Y-117.5
X68.75Y-135.0
X68.75Y-137.25
X68.998Y-132.5
X70.0Y-88.0
X70.0Y-89.25
X70.001Y-123.95
X70.25Y-117.135
X70.5Y-76.25
X70.5Y-92.0
X70.5Y-94.5
X70.5Y-99.75
X70.5Y-130.25
X70.75Y-69.25
X71.25Y-109.0
X71.25Y-111.25
X72.0Y-84.5
X72.0Y-102.0
X72.0Y-104.75
X72.25Y-91.0
X73.25Y-69.25
X73.25Y-111.25
X73.75Y-73.75
X73.75Y-80.25
X74.05Y-100.75
X74.14Y-115.25
X74.25Y-117.0
X74.5Y-108.0
X75.0Y-91.0
X75.25Y-95.75
X75.25Y-98.25
X75.75Y-69.25
X75.75Y-121.0
X76.0Y-125.25
X77.0Y-83.25
X77.0Y-93.5
X77.0Y-95.75
X77.0Y-98.25
X77.75Y-125.25
X78.0Y-72.25
X78.5Y-69.25
X78.5Y-100.25
X78.5Y-105.135
X78.5Y-129.0
X78.75Y-79.0
X78.95Y-97.635
X79.5Y-93.5
X80.53Y-110.5
X80.53Y-119.5
X80.995Y-87.725
X81.0Y-86.25
X81.25Y-75.5
X81.25Y-108.0
X81.75Y-113.25
X81.75Y-115.5
X82.0Y-69.25
X82.0Y-71.5
X82.25Y-99.25
X82.5Y-129.25
X82.5Y-135.0
X82.5Y-137.25
X82.75Y-117.5
X83.0Y-83.0
X83.5Y-86.25
X83.5Y-90.0
X83.5Y-92.5
X83.5Y-95.0
X83.5Y-132.5
X83.75Y-111.25
X84.0Y-122.05
X84.0Y-125.75
X84.75Y-79.0
X86.0Y-65.5
X86.0Y-67.9
X86.25Y-92.5
X86.25Y-101.5
X86.75Y-90.0
X87.0Y-99.25
X87.0Y-132.5
X87.25Y-61.75
X87.5Y-129.5
X87.75Y-64.25
X87.75Y-91.32
X87.81Y-122.05
X88.0Y-135.0
X88.0Y-137.25
X88.25Y-101.5
X88.25Y-104.0
X88.25Y-108.0
X89.0Y-59.75
X89.0Y-99.75
X89.1Y-65.5
X89.1Y-67.9
X89.25Y-92.5
X89.25Y-124.0
X90.5Y-71.5
X91.25Y-135.0
X91.25Y-137.25
X91.75Y-106.25
X91.75Y-131.0
X92.4Y-65.5
X92.4Y-68.0
X92.75Y-79.0
X92.75Y-83.0
X92.75Y-90.0
X92.75Y-111.25
X93.0Y-103.0
X94.0Y-92.5
X94.441Y-122.595
X94.5Y-101.25
X94.7Y-65.5
X94.7Y-67.9
X94.75Y-75.25
X95.0Y-73.25
X95.5Y-81.0
X95.5Y-105.25
X96.29Y-118.7
X97.0Y-111.25
X97.2Y-65.5
X97.2Y-67.9
X97.5Y-125.0
X97.5Y-128.25
X97.75Y-87.75
X97.75Y-116.25
X98.0Y-83.5
X98.07Y-132.25
X98.25Y-73.25
X98.25Y-90.0
X98.5Y-137.25
X98.75Y-93.0
X99.0Y-107.5
X99.0Y-114.25
X99.7Y-65.5
X99.8Y-67.9
X100.0Y-101.0
X100.0Y-103.25
X100.0Y-105.75
X100.25Y-117.0
X100.5Y-81.0
X100.5Y-84.75
X101.0Y-73.25
X101.5Y-125.0
X101.5Y-128.25
X102.25Y-133.5
X102.25Y-135.5
X102.3Y-65.5
X102.3Y-67.9
X102.75Y-79.0
X103.5Y-81.25
X103.5Y-84.75
X103.5Y-105.5
X103.5Y-113.0
X103.5Y-117.0
X103.75Y-133.5
X103.75Y-135.5
X104.25Y-89.0
X104.9Y-65.5
X104.9Y-67.9
X105.0Y-75.0
X105.0Y-86.5
X105.75Y-73.25
X105.75Y-128.25
X106.0Y-78.0
X106.0Y-131.5
X106.5Y-113.0
X106.5Y-116.0
X106.5Y-117.75
X106.75Y-125.0
X107.4Y-65.5
X107.4Y-67.9
X107.5Y-75.0
X107.5Y-86.0
X107.5Y-88.5
X107.5Y-102.0
X107.5Y-105.5
X107.75Y-77.75
X108.5Y-73.25
X108.5Y-129.25
X109.0Y-132.75
X109.25Y-113.0
X109.25Y-125.0
X109.5Y-108.5
X109.95Y-65.5
X109.95Y-67.9
X110.5Y-102.0
X110.5Y-105.5
X110.82Y-136.75
X112.25Y-77.75
X112.25Y-81.5
X112.5Y-65.5
X112.5Y-67.9
X112.5Y-115.75
X112.5Y-118.25
X112.5Y-125.0
X112.5Y-129.25
X113.0Y-103.75
X113.25Y-73.25
X113.75Y-88.75
X114.0Y-133.5
X114.0Y-135.5
X114.75Y-80.75
X115.0Y-76.5
X115.0Y-130.25
X115.15Y-65.5
X115.15Y-67.6
X115.25Y-62.75
X115.25Y-101.5
X115.5Y-125.0
X115.75Y-133.5
X115.75Y-135.5
X116.75Y-121.03
X117.0Y-130.25
X117.5Y-100.5
X117.75Y-125.0
X118.5Y-62.75
X118.5Y-65.5
X118.5Y-67.75
X118.5Y-115.75
X119.25Y-81.25
X119.5Y-132.0
X120.25Y-82.25
X120.25Y-112.0
X120.25Y-114.0
X120.75Y-72.0
X121.5Y-74.75
X121.5Y-117.75
X121.75Y-132.0
X122.0Y-93.5
X123.0Y-72.75
X123.0Y-125.0
X123.0Y-130.25
X123.25Y-84.5
X123.25Y-121.03
X123.32Y-136.75
X123.72Y-117.36
X124.25Y-92.0
X124.5Y-94.25
X126.5Y-85.25
X126.85Y-115.71
X127.0Y-92.0
X127.0Y-94.25
X127.0Y-112.25
X127.0Y-122.5
X127.0Y-125.5
X127.0Y-130.25
X127.0Y-135.5
X129.0Y-135.5
X129.15Y-84.55
X129.25Y-65.5
X129.25Y-67.75
X129.25Y-87.5
X129.25Y-93.0
X129.75Y-119.25
X130.0Y-110.75
X130.37Y-116.22
X130.5Y-122.5
X130.5Y-125.5
X130.75Y-95.0
X130.75Y-133.0
X131.0Y-65.5
X131.0Y-67.75
X131.5Y-93.0
X131.75Y-137.0
X132.5Y-84.5
X132.75Y-114.0
X134.0Y-65.5
X134.0Y-89.25
X134.31Y-116.22
X135.0Y-72.75
X135.0Y-76.75
X135.49Y-115.21
X135.5Y-96.25
X135.5Y-118.25
X135.83Y-81.95
X136.0Y-70.5
X136.0Y-126.5
X136.0Y-129.5
X136.0Y-132.0
X136.0Y-137.0
X136.25Y-65.5
X136.25Y-68.0
X136.5Y-100.0
X136.5Y-109.0
X136.5Y-121.75
X138.0Y-75.0
X138.25Y-73.75
X138.25Y-120.0
X138.75Y-65.5
X138.75Y-70.5
X139.0Y-68.0
X139.75Y-126.5
X139.75Y-137.0
X140.635Y-122.25
X141.0Y-123.5
X141.25Y-132.25
X142.25Y-65.5
X142.25Y-67.75
X143.0Y-71.75
X143.0Y-123.5
X143.25Y-137.0
X143.5Y-75.25
X144.0Y-85.0
X144.0Y-88.75
X144.5Y-69.75
X144.5Y-127.25
X145.82Y-111.05
X145.87Y-98.9
X145.87Y-121.4
X145.89Y-86.3
X145.89Y-94.85
X145.89Y-119.5
X145.92Y-107.35
X145.92Y-129.85
X146.25Y-137.0
X146.5Y-59.75
X146.5Y-132.0
X146.65Y-108.6
X146.65Y-109.8
X146.7Y-96.15
X146.7Y-97.65
X146.75Y-71.75
X146.75Y-78.0
X146.75Y-80.5
X146.75Y-82.75
X146.75Y-85.0
X147.0Y-65.75
X147.0Y-75.25
X148.75Y-93.5
X148.75Y-95.0
X148.75Y-106.0
X148.75Y-107.75
X148.75Y-118.75
X148.75Y-120.25
X150.0Y-93.5
X150.0Y-95.0
X150.25Y-65.75
X150.25Y-70.5
X150.25Y-73.0
X150.25Y-75.25
X150.25Y-78.0
X150.25Y-80.5
X150.25Y-82.75
X150.25Y-106.0
X150.25Y-107.75
X150.25Y-118.75
X150.25Y-120.25
X151.5Y-86.43
X151.5Y-98.93
X151.5Y-123.93
X151.75Y-111.43
X152.0Y-65.5
X152.0Y-67.75
X152.0Y-131.5
T4
X141.75Y-107.0
X141.75Y-108.5
X141.75Y-110.0
X141.75Y-111.5
X141.75Y-113.0
X141.75Y-114.5
T5
X85.09Y-95.035
X87.63Y-95.035
X90.17Y-95.035
X92.71Y-95.035
X95.25Y-95.035
X97.79Y-95.035
X100.33Y-95.035
X102.87Y-95.035
X105.41Y-95.035
T6
X90.0Y-101.5
X90.0Y-104.04
X90.0Y-106.58
X90.0Y-109.12
X97.62Y-101.5
X97.62Y-104.04
X97.62Y-106.58
X97.62Y-109.12
T7
X60.71Y-135.25
X63.25Y-135.25
X65.79Y-135.25
T8
X149.42Y-121.71
X149.42Y-124.21
X149.42Y-126.71
X149.42Y-129.21
X69.0Y-78.25
X69.0Y-80.75
X69.0Y-83.25
X69.0Y-85.75
X62.0Y-109.75
X62.0Y-112.25
X62.0Y-114.75
X62.0Y-117.25
X105.5Y-134.5
X108.0Y-134.5
X110.5Y-134.5
X113.0Y-134.5
X70.25Y-134.5
X72.75Y-134.5
X75.25Y-134.5
X77.75Y-134.5
X149.5Y-96.75
X149.5Y-99.25
X149.5Y-101.75
X149.5Y-104.25
X69.0Y-90.75
X69.0Y-93.25
X69.0Y-95.75
X69.0Y-98.25
X71.75Y-125.0
X74.25Y-125.0
X93.0Y-134.5
X95.5Y-134.5
X98.0Y-134.5
X100.5Y-134.5
X64.25Y-125.0
X66.75Y-125.0
X149.5Y-84.25
X149.5Y-86.75
X149.5Y-89.25
X149.5Y-91.75
X149.42Y-109.21
X149.42Y-111.71
X149.42Y-114.21
X149.42Y-116.71
X118.0Y-134.5
X120.5Y-134.5
X123.0Y-134.5
X125.5Y-134.5
X62.0Y-78.25
X62.0Y-80.75
X62.0Y-83.25
X62.0Y-85.75
X62.0Y-90.75
X62.0Y-93.25
X62.0Y-95.75
X62.0Y-98.25
T9
X132.251Y-124.996
X134.791Y-124.996
X136.823Y-124.996
X139.363Y-124.996
T10
X54.75Y-103.0
X57.29Y-103.0
X120.25Y-66.75
X122.79Y-66.75
X125.33Y-66.75
X127.87Y-66.75
X61.75Y-61.71
X61.75Y-64.25
X64.29Y-61.71
X64.29Y-64.25
X66.83Y-61.71
X66.83Y-64.25
X69.37Y-61.71
X69.37Y-64.25
X71.91Y-61.71
X71.91Y-64.25
X74.45Y-61.71
X74.45Y-64.25
X76.99Y-61.71
X76.99Y-64.25
X79.53Y-61.71
X79.53Y-64.25
X82.07Y-61.71
X82.07Y-64.25
X84.61Y-61.71
X84.61Y-64.25
X148.5Y-69.0
X148.5Y-71.54
X148.5Y-74.08
X148.5Y-76.62
X148.5Y-79.16
X132.5Y-66.75
X135.04Y-66.75
X137.58Y-66.75
X140.12Y-66.75
X144.25Y-61.71
X144.25Y-64.25
X144.25Y-66.79
X132.5Y-61.71
X132.5Y-64.25
X135.04Y-61.71
X135.04Y-64.25
X137.58Y-61.71
X137.58Y-64.25
X140.12Y-61.71
X140.12Y-64.25
X120.25Y-61.71
X120.25Y-64.25
X122.79Y-61.71
X122.79Y-64.25
X125.33Y-61.71
X125.33Y-64.25
X127.87Y-61.71
X127.87Y-64.25
X54.75Y-72.25
X57.29Y-72.25
X90.89Y-66.75
X93.43Y-66.75
X95.97Y-66.75
X98.51Y-66.75
X101.05Y-66.75
X103.59Y-66.75
X106.13Y-66.75
X108.67Y-66.75
X111.21Y-66.75
X113.75Y-66.75
X61.75Y-66.75
X64.29Y-66.75
X66.83Y-66.75
X69.37Y-66.75
X71.91Y-66.75
X74.45Y-66.75
X76.99Y-66.75
X79.53Y-66.75
X82.07Y-66.75
X84.61Y-66.75
X90.89Y-61.71
X90.89Y-64.25
X93.43Y-61.71
X93.43Y-64.25
X95.97Y-61.71
X95.97Y-64.25
X98.51Y-61.71
X98.51Y-64.25
X101.05Y-61.71
X101.05Y-64.25
X103.59Y-61.71
X103.59Y-64.25
X106.13Y-61.71
X106.13Y-64.25
X108.67Y-61.71
X108.67Y-64.25
X111.21Y-61.71
X111.21Y-64.25
X113.75Y-61.71
X113.75Y-64.25
T12
X128.695Y-127.663
X142.411Y-127.663
T13
X56.0Y-62.0
X56.0Y-135.0
X150.0Y-62.0
X150.0Y-135.0
X55.5Y-82.0
X55.5Y-94.5
X55.5Y-113.5
T3
G00X80.93Y-131.87
M15
G01X80.93Y-130.77
M16
G05
G00X80.93Y-135.89
M15
G01X80.93Y-135.09
M16
G05
G00X89.57Y-131.87
M15
G01X89.57Y-130.77
M16
G05
G00X89.57Y-135.89
M15
G01X89.57Y-135.09
M16
G05
T11
G00X76.95Y-91.235
M15
G01X78.35Y-91.235
M16
G05
G00X112.15Y-91.235
M15
G01X113.55Y-91.235
M16
G05
T0
M30
