M48
; DRILL file {KiCad (5.1.5)-3} date 2020/03/09 16:46:41
; FORMAT={-:-/ absolute / inch / decimal}
; #@! TF.CreationDate,2020-03-09T16:46:41+09:00
; #@! TF.GenerationSoftware,Kicad,Pcbnew,(5.1.5)-3
; #@! TF.FileFunction,Plated,1,2,PTH
FMAT,2
INCH
T1C0.0118
T2C0.0157
T3C0.0236
T4C0.0276
T5C0.0300
T6C0.0315
T7C0.0320
T8C0.0394
T9C0.0394
T10C0.0400
T11C0.0433
T12C0.0906
T13C0.1181
%
G90
G05
T1
X2.3228Y-4.9508
X2.4114Y-5.0799
X2.7063Y-4.4732
X2.8138Y-4.6654
X2.9016Y-4.2008
X3.1031Y-4.7535
X3.1083Y-3.4904
X3.1083Y-3.7439
X3.1571Y-4.7717
X3.1772Y-4.6319
X3.2012Y-3.8941
X3.2161Y-3.7866
X3.2457Y-3.539
X3.278Y-4.5311
X3.2862Y-4.7154
X3.3425Y-3.877
X3.3571Y-4.9272
X3.4323Y-3.9531
X3.4827Y-4.5311
X3.5378Y-4.9457
X3.6236Y-4.4724
X3.6236Y-4.5906
X3.6654Y-4.0207
X3.6921Y-4.4685
X3.7224Y-4.0433
X3.7224Y-4.3661
X3.7303Y-2.8264
X3.8106Y-2.8037
X3.8238Y-4.0679
X3.8346Y-4.5524
X3.8811Y-3.4791
X3.8878Y-4.6191
X3.9059Y-3.55
X3.9459Y-4.0207
X3.9469Y-3.6724
X3.9528Y-4.5524
X3.9695Y-4.0433
X3.9945Y-4.3846
X4.0187Y-4.0669
X4.0453Y-3.6724
X4.0571Y-4.0303
X4.0709Y-4.4331
X4.0709Y-4.5524
X4.0846Y-4.7035
X4.098Y-3.8685
X4.1378Y-3.215
X4.141Y-3.1862
X4.148Y-3.8646
X4.1642Y-3.4835
X4.1646Y-3.2728
X4.1752Y-4.0591
X4.1846Y-3.8697
X4.187Y-4.437
X4.187Y-4.5524
X4.1945Y-3.287
X4.1945Y-3.489
X4.2009Y-3.7797
X4.2165Y-4.1398
X4.2165Y-4.2028
X4.2165Y-4.2657
X4.2283Y-3.7709
X4.2287Y-3.215
X4.2343Y-3.1035
X4.2346Y-3.187
X4.2366Y-3.1311
X4.2429Y-4.7201
X4.2429Y-5.0213
X4.2536Y-3.8459
X4.2657Y-5.037
X4.2661Y-4.6638
X4.2879Y-2.981
X4.3031Y-4.4331
X4.3031Y-4.5524
X4.313Y-3.0126
X4.3374Y-3.9212
X4.3406Y-4.7035
X4.3736Y-3.9212
X4.3807Y-3.2839
X4.4108Y-3.2612
X4.4193Y-4.5524
X4.4193Y-4.4311
X4.4539Y-2.981
X4.4543Y-3.0126
X4.4543Y-3.6921
X4.4547Y-3.1311
X4.4551Y-3.1035
X4.4768Y-4.7055
X4.4768Y-4.8264
X4.4795Y-3.4252
X4.4882Y-3.9053
X4.4882Y-3.986
X4.4882Y-4.0679
X4.4925Y-3.7204
X4.5055Y-4.7114
X4.5055Y-4.8197
X4.5115Y-3.5098
X4.5236Y-3.485
X4.5315Y-4.5524
X4.5563Y-4.1732
X4.5566Y-4.1456
X4.5568Y-4.0797
X4.5618Y-4.2016
X4.5685Y-4.2303
X4.5744Y-4.2575
X4.5886Y-3.772
X4.5965Y-4.7035
X4.6008Y-4.3638
X4.6161Y-4.339
X4.6457Y-3.2402
X4.6457Y-3.6746
X4.6579Y-4.365
X4.6728Y-4.3894
X4.6764Y-2.8839
X4.6764Y-2.9626
X4.7244Y-5.0945
X4.7445Y-3.1035
X4.752Y-3.9437
X4.7724Y-4.3555
X4.7953Y-4.3728
X4.7995Y-4.1108
X4.7996Y-4.2563
X4.8004Y-3.3169
X4.8004Y-3.75
X4.8181Y-4.3902
X4.8244Y-4.2701
X4.8245Y-4.0882
X4.8319Y-3.1453
X4.8417Y-4.4051
X4.8524Y-4.7035
X4.8618Y-3.1551
X4.8622Y-3.2846
X4.8819Y-3.763
X4.8902Y-3.2846
X4.9677Y-2.874
X4.9756Y-3.8675
X4.9803Y-3.2846
X4.9803Y-3.7626
X4.9929Y-2.874
X4.9957Y-3.1035
X5.0332Y-4.0944
X5.0604Y-4.0992
X5.0672Y-4.1259
X5.0694Y-4.7071
X5.0787Y-3.2846
X5.0799Y-4.1504
X5.1088Y-4.1697
X5.1156Y-4.6286
X5.1315Y-4.2155
X5.1323Y-4.1878
X5.1453Y-4.2394
X5.1512Y-2.7787
X5.1583Y-4.0354
X5.1673Y-4.3559
X5.1772Y-2.8047
X5.1924Y-4.0333
X5.1969Y-3.2776
X5.1969Y-4.687
X5.2167Y-3.6955
X5.2229Y-3.9724
X5.2272Y-4.0087
X5.2272Y-4.8642
X5.2366Y-3.6728
X5.2756Y-3.7528
X5.2783Y-3.2776
X5.2843Y-3.3957
X5.2941Y-3.6783
X5.3303Y-4.4374
X5.3449Y-4.0992
X5.346Y-4.0129
X5.3504Y-4.0406
X5.3661Y-4.1197
X5.4058Y-3.7033
X5.4078Y-3.6742
X5.4152Y-3.7303
X5.437Y-4.1642
X5.4378Y-3.9122
X5.4382Y-4.1313
X5.4524Y-4.1878
X5.4598Y-4.215
X5.4667Y-3.9077
X5.4732Y-4.2394
X5.476Y-3.3839
X5.4894Y-3.924
X5.4931Y-2.7461
X5.4941Y-3.7193
X5.5121Y-2.7234
X5.5124Y-3.9445
X5.5252Y-3.9724
X5.5461Y-3.4161
X5.5539Y-3.9764
X5.5549Y-4.0122
X5.5549Y-4.0122
X5.576Y-4.6161
X5.576Y-4.7343
X5.5944Y-4.0801
X5.624Y-3.7421
X5.624Y-4.0835
X5.6266Y-3.8269
X5.6406Y-3.8027
X5.6406Y-4.237
X5.6524Y-4.9606
X5.6594Y-2.9213
X5.6646Y-4.2154
X5.6665Y-4.1843
X5.6715Y-3.0512
X5.672Y-3.7472
X5.6787Y-4.9098
X5.6949Y-2.9843
X5.6957Y-3.726
X5.6959Y-2.936
X5.7382Y-2.7283
X5.7618Y-2.9626
X5.7736Y-4.7421
X5.8024Y-4.372
X5.8043Y-3.8937
X5.8043Y-4.7795
X5.8051Y-3.3976
X5.8051Y-3.5319
X5.8051Y-3.6008
X5.8051Y-3.7343
X5.8051Y-4.024
X5.8051Y-4.0929
X5.8051Y-4.5063
X5.8051Y-4.5752
X5.8051Y-4.7047
X5.8051Y-4.9098
X5.8051Y-4.9787
X5.8063Y-4.2264
X5.8063Y-5.1122
X5.8947Y-2.8976
T2
X2.126Y-2.5787
X2.126Y-2.7362
X2.126Y-2.9626
X2.126Y-3.1398
X2.126Y-3.3366
X2.126Y-3.4941
X2.126Y-3.6319
X2.126Y-3.8091
X2.126Y-3.9567
X2.126Y-4.124
X2.126Y-4.252
X2.126Y-4.3898
X2.126Y-4.5374
X2.126Y-4.8228
X2.126Y-4.9409
X2.126Y-5.0591
X2.126Y-5.1772
X2.185Y-4.7315
X2.1866Y-5.0219
X2.2047Y-5.1575
X2.2146Y-2.7756
X2.2146Y-2.9035
X2.2146Y-3.9862
X2.2244Y-2.5984
X2.2244Y-4.252
X2.2244Y-4.3799
X2.2539Y-3.3366
X2.2539Y-3.4941
X2.2539Y-3.6319
X2.2933Y-4.8424
X2.2933Y-5.1772
X2.3126Y-3.9051
X2.313Y-2.5787
X2.313Y-4.124
X2.3327Y-2.9035
X2.3425Y-2.372
X2.3425Y-5.2461
X2.3524Y-2.5
X2.372Y-2.6969
X2.372Y-3.2283
X2.372Y-3.4252
X2.372Y-3.622
X2.372Y-3.7303
X2.372Y-3.8189
X2.372Y-5.4035
X2.3819Y-3.9862
X2.3898Y-5.2654
X2.3917Y-4.4685
X2.3917Y-4.5669
X2.3917Y-4.6949
X2.3917Y-4.8228
X2.4213Y-5.1378
X2.4449Y-4.2362
X2.4618Y-2.9232
X2.4654Y-4.0551
X2.4705Y-2.8642
X2.4705Y-5.0185
X2.4705Y-5.0799
X2.4705Y-5.2362
X2.4803Y-2.7264
X2.4902Y-4.1142
X2.5Y-3.2283
X2.5Y-3.3268
X2.5Y-3.4252
X2.5Y-3.7205
X2.5Y-4.6949
X2.5Y-5.4035
X2.5098Y-3.9272
X2.5787Y-2.7264
X2.5787Y-5.128
X2.5886Y-3.4502
X2.5886Y-3.9128
X2.5909Y-4.4094
X2.603Y-4.1732
X2.6181Y-4.8228
X2.628Y-4.1142
X2.628Y-4.2362
X2.6378Y-5.4035
X2.6476Y-2.9035
X2.6476Y-3.002
X2.6476Y-3.3268
X2.6476Y-3.4252
X2.6575Y-3.622
X2.6575Y-3.7205
X2.6575Y-3.9272
X2.6575Y-4.0157
X2.687Y-2.7264
X2.687Y-3.4646
X2.687Y-3.5138
X2.6969Y-4.4291
X2.6969Y-4.5472
X2.6969Y-4.626
X2.7067Y-5.315
X2.7067Y-5.4035
X2.7165Y-5.2165
X2.7559Y-3.4646
X2.7559Y-3.5138
X2.7559Y-4.8799
X2.7657Y-4.6116
X2.7756Y-3.002
X2.7756Y-3.622
X2.7756Y-3.7205
X2.7756Y-3.9272
X2.7756Y-4.0433
X2.7756Y-5.128
X2.7854Y-2.7264
X2.8051Y-4.2913
X2.8051Y-4.3799
X2.8346Y-3.3268
X2.8346Y-4.0413
X2.8445Y-3.5827
X2.8839Y-2.7264
X2.8839Y-4.3799
X2.9035Y-2.9035
X2.9035Y-3.1594
X2.9189Y-4.5374
X2.9232Y-4.6063
X2.9528Y-3.5827
X2.9626Y-3.7697
X2.9626Y-3.8681
X2.9823Y-2.7264
X2.9823Y-4.7638
X2.9921Y-4.9311
X3.0315Y-3.2776
X3.0315Y-3.6811
X3.0315Y-3.7697
X3.0315Y-3.8681
X3.061Y-4.9311
X3.0709Y-2.8445
X3.0906Y-2.7264
X3.0906Y-4.0453
X3.0906Y-5.0787
X3.1004Y-3.1102
X3.1299Y-3.6811
X3.1705Y-4.3504
X3.1705Y-4.7047
X3.1888Y-3.4537
X3.189Y-3.3957
X3.1988Y-2.9724
X3.2087Y-4.0768
X3.2185Y-4.4587
X3.2185Y-4.5472
X3.2283Y-2.7264
X3.2283Y-2.815
X3.248Y-5.0886
X3.248Y-5.315
X3.248Y-5.4035
X3.2579Y-4.626
X3.2677Y-3.2677
X3.2874Y-3.3957
X3.2874Y-3.5433
X3.2874Y-3.6417
X3.2874Y-3.7402
X3.2874Y-5.2165
X3.2972Y-4.3799
X3.3071Y-4.8051
X3.3071Y-4.9508
X3.3366Y-3.1102
X3.3858Y-2.5787
X3.3858Y-2.6732
X3.3957Y-3.6417
X3.3957Y-3.9961
X3.4154Y-3.5433
X3.4252Y-3.9075
X3.4252Y-5.2165
X3.435Y-2.4311
X3.4449Y-5.0984
X3.4547Y-2.5295
X3.4547Y-3.5953
X3.4571Y-4.8051
X3.4646Y-5.315
X3.4646Y-5.4035
X3.4724Y-4.0965
X3.498Y-4.3858
X3.5039Y-2.3524
X3.5059Y-3.9232
X3.5079Y-2.5787
X3.5079Y-2.6732
X3.5138Y-3.6417
X3.5138Y-4.8819
X3.563Y-2.815
X3.5925Y-5.315
X3.5925Y-5.4035
X3.6122Y-5.1575
X3.6319Y-3.9921
X3.6378Y-2.5787
X3.6378Y-2.6772
X3.6417Y-4.2598
X3.6516Y-3.1102
X3.6516Y-3.2677
X3.6516Y-3.5433
X3.7008Y-3.6417
X3.7181Y-4.8266
X3.7283Y-2.5787
X3.7283Y-2.6732
X3.7303Y-2.9626
X3.7402Y-2.8839
X3.75Y-4.4783
X3.7598Y-3.189
X3.7909Y-4.6732
X3.8268Y-2.5787
X3.8268Y-2.6732
X3.8366Y-3.9921
X3.8386Y-4.9213
X3.8386Y-5.0492
X3.8484Y-3.4547
X3.8524Y-4.252
X3.8524Y-4.3445
X3.8583Y-3.2874
X3.861Y-5.2067
X3.8681Y-2.8839
X3.8681Y-3.5433
X3.878Y-5.4035
X3.8878Y-3.6614
X3.9252Y-2.5787
X3.9252Y-3.9232
X3.9291Y-2.6732
X3.9567Y-3.189
X3.9567Y-3.3366
X3.9764Y-2.8839
X3.9961Y-4.6654
X3.9961Y-4.9213
X3.9961Y-5.0492
X4.0256Y-4.4783
X4.0256Y-5.2559
X4.0256Y-5.3346
X4.0276Y-2.5787
X4.0276Y-2.6732
X4.0453Y-3.1102
X4.0748Y-3.1988
X4.0748Y-3.3366
X4.0846Y-5.2559
X4.0846Y-5.3346
X4.1043Y-3.5039
X4.124Y-4.4783
X4.1299Y-2.5787
X4.1299Y-2.6732
X4.1339Y-2.9528
X4.1339Y-3.4055
X4.1634Y-2.8839
X4.1634Y-5.0492
X4.1732Y-3.0709
X4.1732Y-5.1772
X4.2028Y-4.9213
X4.2224Y-4.6654
X4.2283Y-2.5787
X4.2283Y-2.6732
X4.2323Y-2.9528
X4.2323Y-3.3858
X4.2323Y-3.4843
X4.2382Y-4.0118
X4.2421Y-3.061
X4.2421Y-4.4783
X4.2717Y-2.8839
X4.2717Y-5.0886
X4.2913Y-5.2264
X4.3012Y-4.9213
X4.3287Y-2.5787
X4.3287Y-2.6732
X4.3543Y-4.2283
X4.3602Y-4.4783
X4.363Y-5.3839
X4.4193Y-3.061
X4.4193Y-3.2087
X4.4291Y-2.5787
X4.4291Y-2.6732
X4.4291Y-4.9213
X4.4291Y-5.0886
X4.4429Y-4.0807
X4.4587Y-2.8839
X4.4783Y-3.4941
X4.4783Y-4.4783
X4.4783Y-4.6457
X4.4882Y-5.2559
X4.4882Y-5.3346
X4.5177Y-3.1791
X4.5276Y-3.0118
X4.5276Y-5.128
X4.5335Y-2.5787
X4.5335Y-2.6614
X4.5374Y-2.4705
X4.5374Y-3.9961
X4.5472Y-4.9213
X4.5571Y-5.2559
X4.5571Y-5.3346
X4.5965Y-4.765
X4.6063Y-5.128
X4.626Y-3.9567
X4.6358Y-4.9213
X4.6654Y-2.4705
X4.6654Y-2.5787
X4.6654Y-2.6673
X4.6949Y-3.1988
X4.7047Y-5.1969
X4.7343Y-3.2382
X4.7539Y-2.8346
X4.7835Y-2.9429
X4.7835Y-4.6358
X4.7933Y-5.1969
X4.8031Y-3.6811
X4.8425Y-2.8642
X4.8425Y-4.9213
X4.8425Y-5.128
X4.8524Y-3.3268
X4.8524Y-4.765
X4.8551Y-5.3839
X4.8709Y-4.6205
X4.8917Y-3.622
X4.9016Y-3.7106
X4.9803Y-3.3563
X4.9941Y-4.5555
X5.0Y-3.622
X5.0Y-3.7106
X5.0Y-4.4193
X5.0Y-4.8228
X5.0Y-4.9409
X5.0Y-5.128
X5.0Y-5.3346
X5.0787Y-5.3346
X5.0846Y-3.3287
X5.0886Y-2.5787
X5.0886Y-2.6673
X5.0886Y-3.4449
X5.0886Y-3.6614
X5.1083Y-4.6949
X5.1181Y-4.3602
X5.1327Y-4.5756
X5.1378Y-4.8228
X5.1378Y-4.9409
X5.1476Y-3.7402
X5.1476Y-5.2362
X5.1575Y-2.5787
X5.1575Y-2.6673
X5.1772Y-3.6614
X5.187Y-5.3937
X5.2165Y-3.3268
X5.2264Y-4.4882
X5.2756Y-2.5787
X5.2756Y-3.5138
X5.2878Y-4.5756
X5.315Y-2.8642
X5.315Y-3.0217
X5.3343Y-4.5358
X5.3346Y-3.7894
X5.3346Y-4.6555
X5.3476Y-3.2264
X5.3543Y-2.7756
X5.3543Y-4.9803
X5.3543Y-5.0984
X5.3543Y-5.1969
X5.3543Y-5.3937
X5.3642Y-2.5787
X5.3642Y-2.6772
X5.374Y-3.937
X5.374Y-4.2913
X5.374Y-4.7933
X5.3937Y-2.8248
X5.4134Y-3.2579
X5.4232Y-2.9528
X5.4429Y-4.7244
X5.4626Y-2.5787
X5.4724Y-2.6772
X5.502Y-4.9803
X5.502Y-5.3937
X5.5354Y-3.1959
X5.5368Y-4.813
X5.5512Y-4.8622
X5.561Y-5.2067
X5.6004Y-2.5787
X5.6004Y-2.6673
X5.6299Y-4.8622
X5.6398Y-5.3937
X5.6693Y-3.3465
X5.6693Y-3.4941
X5.689Y-5.0098
X5.7409Y-4.372
X5.7429Y-3.8937
X5.7429Y-4.7795
X5.7437Y-3.3976
X5.7437Y-3.7343
X5.7437Y-4.7047
X5.7449Y-4.2264
X5.7449Y-5.1122
X5.7579Y-5.3937
X5.7677Y-2.3524
X5.7677Y-5.1969
X5.7736Y-4.2756
X5.7736Y-4.3228
X5.7756Y-3.7854
X5.7756Y-3.8445
X5.7776Y-3.2579
X5.7776Y-3.3465
X5.7874Y-2.5886
X5.8563Y-3.6811
X5.8563Y-3.7402
X5.8563Y-4.1732
X5.8563Y-4.2421
X5.8563Y-4.6752
X5.8563Y-4.7343
X5.9055Y-3.6811
X5.9055Y-3.7402
X5.9154Y-3.2579
X5.9154Y-4.1732
X5.9154Y-4.2421
X5.9154Y-4.6752
X5.9154Y-4.7343
X5.9646Y-3.4028
X5.9646Y-3.8949
X5.9646Y-4.8791
X5.9744Y-4.387
X5.9843Y-5.1772
T4
X5.5807Y-4.2126
X5.5807Y-4.2717
X5.5807Y-4.3307
X5.5807Y-4.3898
X5.5807Y-4.4488
X5.5807Y-4.5079
T5
X3.35Y-3.7415
X3.45Y-3.7415
X3.55Y-3.7415
X3.65Y-3.7415
X3.75Y-3.7415
X3.85Y-3.7415
X3.95Y-3.7415
X4.05Y-3.7415
X4.15Y-3.7415
T6
X5.5335Y-2.9035
X5.5335Y-3.002
X5.5335Y-3.1004
T7
X2.3902Y-5.3248
X2.4902Y-5.3248
X2.5902Y-5.3248
T8
X2.7165Y-3.0807
X2.7165Y-3.1791
X2.7165Y-3.2776
X2.7165Y-3.376
X2.4409Y-3.0807
X2.4409Y-3.1791
X2.4409Y-3.2776
X2.4409Y-3.376
X5.8827Y-4.2996
X5.8827Y-4.398
X5.8827Y-4.4965
X5.8827Y-4.5949
X4.1535Y-5.2953
X4.252Y-5.2953
X4.3504Y-5.2953
X4.4488Y-5.2953
X2.8248Y-4.9213
X2.9232Y-4.9213
X3.6614Y-5.2953
X3.7598Y-5.2953
X3.8583Y-5.2953
X3.9567Y-5.2953
X3.5728Y-4.1634
X3.6713Y-4.1634
X3.7697Y-4.1634
X3.8681Y-4.1634
X3.9665Y-4.1634
X4.065Y-4.1634
X5.8858Y-3.8091
X5.8858Y-3.9075
X5.8858Y-4.0059
X5.8858Y-4.1043
X2.4409Y-3.5728
X2.4409Y-3.6713
X2.4409Y-3.7697
X2.4409Y-3.8681
X5.8858Y-3.3169
X5.8858Y-3.4154
X5.8858Y-3.5138
X5.8858Y-3.6122
X5.8071Y-3.1594
X5.9071Y-3.1594
X4.6457Y-5.2953
X4.7441Y-5.2953
X4.8425Y-5.2953
X4.9409Y-5.2953
X5.8827Y-4.7917
X5.8827Y-4.8902
X5.8827Y-4.9886
X5.8827Y-5.087
X2.7657Y-5.2953
X2.8642Y-5.2953
X2.9626Y-5.2953
X3.061Y-5.2953
X2.5295Y-4.9213
X2.628Y-4.9213
X2.7165Y-3.5728
X2.7165Y-3.6713
X2.7165Y-3.7697
X2.7165Y-3.8681
X2.4409Y-4.3209
X2.4409Y-4.4193
X2.4409Y-4.5177
X2.4409Y-4.6161
T9
X5.2067Y-4.9211
X5.3067Y-4.9211
X5.3867Y-4.9211
X5.4867Y-4.9211
T10
X2.1555Y-4.0551
X2.2555Y-4.0551
X5.6791Y-2.4295
X5.6791Y-2.5295
X5.6791Y-2.6295
X4.7343Y-2.4295
X4.7343Y-2.5295
X4.8343Y-2.4295
X4.8343Y-2.5295
X4.9343Y-2.4295
X4.9343Y-2.5295
X5.0343Y-2.4295
X5.0343Y-2.5295
X2.4311Y-2.4295
X2.4311Y-2.5295
X2.5311Y-2.4295
X2.5311Y-2.5295
X2.6311Y-2.4295
X2.6311Y-2.5295
X2.7311Y-2.4295
X2.7311Y-2.5295
X2.8311Y-2.4295
X2.8311Y-2.5295
X2.9311Y-2.4295
X2.9311Y-2.5295
X3.0311Y-2.4295
X3.0311Y-2.5295
X3.1311Y-2.4295
X3.1311Y-2.5295
X3.2311Y-2.4295
X3.2311Y-2.5295
X3.3311Y-2.4295
X3.3311Y-2.5295
X3.5783Y-2.4295
X3.5783Y-2.5295
X3.6783Y-2.4295
X3.6783Y-2.5295
X3.7783Y-2.4295
X3.7783Y-2.5295
X3.8783Y-2.4295
X3.8783Y-2.5295
X3.9783Y-2.4295
X3.9783Y-2.5295
X4.0783Y-2.4295
X4.0783Y-2.5295
X4.1783Y-2.4295
X4.1783Y-2.5295
X4.2783Y-2.4295
X4.2783Y-2.5295
X4.3783Y-2.4295
X4.3783Y-2.5295
X4.4783Y-2.4295
X4.4783Y-2.5295
X5.2165Y-2.4295
X5.2165Y-2.5295
X5.3165Y-2.4295
X5.3165Y-2.5295
X5.4165Y-2.4295
X5.4165Y-2.5295
X5.5165Y-2.4295
X5.5165Y-2.5295
X5.8465Y-2.6476
X5.8465Y-2.7476
X5.8465Y-2.8476
X5.8465Y-2.9476
X5.8465Y-3.0476
X2.4311Y-2.628
X2.5311Y-2.628
X2.6311Y-2.628
X2.7311Y-2.628
X2.8311Y-2.628
X2.9311Y-2.628
X3.0311Y-2.628
X3.1311Y-2.628
X3.2311Y-2.628
X3.3311Y-2.628
X2.1555Y-2.8445
X2.2555Y-2.8445
X5.2165Y-2.628
X5.3165Y-2.628
X5.4165Y-2.628
X5.5165Y-2.628
X4.7343Y-2.628
X4.8343Y-2.628
X4.9343Y-2.628
X5.0343Y-2.628
X3.5783Y-2.628
X3.6783Y-2.628
X3.7783Y-2.628
X3.8783Y-2.628
X3.9783Y-2.628
X4.0783Y-2.628
X4.1783Y-2.628
X4.2783Y-2.628
X4.3783Y-2.628
X4.4783Y-2.628
T12
X5.0667Y-5.0261
X5.6067Y-5.0261
T13
X2.2047Y-2.4409
X2.2047Y-5.315
X5.9055Y-2.4409
X5.9055Y-5.315
X2.185Y-4.4685
X2.185Y-3.2283
X2.185Y-3.7205
T3
G00X3.1862Y-5.1917
M15
G01X3.1862Y-5.1484
M16
G05
G00X3.1862Y-5.35
M15
G01X3.1862Y-5.3185
M16
G05
G00X3.5264Y-5.1917
M15
G01X3.5264Y-5.1484
M16
G05
G00X3.5264Y-5.35
M15
G01X3.5264Y-5.3185
M16
G05
T11
G00X3.0295Y-3.5919
M15
G01X3.0846Y-3.5919
M16
G05
G00X4.4154Y-3.5919
M15
G01X4.4705Y-3.5919
M16
G05
T0
M30
