G04 #@! TF.GenerationSoftware,KiCad,Pcbnew,(5.1.2)-1*
G04 #@! TF.CreationDate,2019-09-19T23:19:24+09:00*
G04 #@! TF.ProjectId,Slapnir,536c6170-6e69-4722-9e6b-696361645f70,rev?*
G04 #@! TF.SameCoordinates,Original*
G04 #@! TF.FileFunction,Legend,Top*
G04 #@! TF.FilePolarity,Positive*
%FSLAX46Y46*%
G04 Gerber Fmt 4.6, Leading zero omitted, Abs format (unit mm)*
G04 Created by KiCad (PCBNEW (5.1.2)-1) date 2019-09-19 23:19:24*
%MOMM*%
%LPD*%
G04 APERTURE LIST*
%ADD10C,0.150000*%
%ADD11C,0.500000*%
%ADD12C,0.120000*%
%ADD13C,0.300000*%
G04 APERTURE END LIST*
D10*
X124797619Y-91335000D02*
X125702380Y-91335000D01*
X125035714Y-92178571D02*
X125369047Y-92178571D01*
X125511904Y-92702380D02*
X125035714Y-92702380D01*
X125035714Y-91702380D01*
X125511904Y-91702380D01*
X125702380Y-91335000D02*
X126750000Y-91335000D01*
X125940476Y-92702380D02*
X125940476Y-91702380D01*
X126511904Y-92702380D01*
X126511904Y-91702380D01*
X126750000Y-91335000D02*
X127702380Y-91335000D01*
X127511904Y-92702380D02*
X126940476Y-92702380D01*
X127226190Y-92702380D02*
X127226190Y-91702380D01*
X127130952Y-91845238D01*
X127035714Y-91940476D01*
X126940476Y-91988095D01*
X124797619Y-88835000D02*
X125702380Y-88835000D01*
X125035714Y-89678571D02*
X125369047Y-89678571D01*
X125511904Y-90202380D02*
X125035714Y-90202380D01*
X125035714Y-89202380D01*
X125511904Y-89202380D01*
X125702380Y-88835000D02*
X126750000Y-88835000D01*
X125940476Y-90202380D02*
X125940476Y-89202380D01*
X126511904Y-90202380D01*
X126511904Y-89202380D01*
X126750000Y-88835000D02*
X127702380Y-88835000D01*
X127178571Y-89202380D02*
X127273809Y-89202380D01*
X127369047Y-89250000D01*
X127416666Y-89297619D01*
X127464285Y-89392857D01*
X127511904Y-89583333D01*
X127511904Y-89821428D01*
X127464285Y-90011904D01*
X127416666Y-90107142D01*
X127369047Y-90154761D01*
X127273809Y-90202380D01*
X127178571Y-90202380D01*
X127083333Y-90154761D01*
X127035714Y-90107142D01*
X126988095Y-90011904D01*
X126940476Y-89821428D01*
X126940476Y-89583333D01*
X126988095Y-89392857D01*
X127035714Y-89297619D01*
X127083333Y-89250000D01*
X127178571Y-89202380D01*
X125488095Y-86750000D02*
X125392857Y-86702380D01*
X125250000Y-86702380D01*
X125107142Y-86750000D01*
X125011904Y-86845238D01*
X124964285Y-86940476D01*
X124916666Y-87130952D01*
X124916666Y-87273809D01*
X124964285Y-87464285D01*
X125011904Y-87559523D01*
X125107142Y-87654761D01*
X125250000Y-87702380D01*
X125345238Y-87702380D01*
X125488095Y-87654761D01*
X125535714Y-87607142D01*
X125535714Y-87273809D01*
X125345238Y-87273809D01*
X125964285Y-87702380D02*
X125964285Y-86702380D01*
X126535714Y-87702380D01*
X126535714Y-86702380D01*
X127011904Y-87702380D02*
X127011904Y-86702380D01*
X127250000Y-86702380D01*
X127392857Y-86750000D01*
X127488095Y-86845238D01*
X127535714Y-86940476D01*
X127583333Y-87130952D01*
X127583333Y-87273809D01*
X127535714Y-87464285D01*
X127488095Y-87559523D01*
X127392857Y-87654761D01*
X127250000Y-87702380D01*
X127011904Y-87702380D01*
X128116666Y-77361904D02*
X127735714Y-77361904D01*
X127735714Y-76561904D01*
X128802380Y-77361904D02*
X128345238Y-77361904D01*
X128573809Y-77361904D02*
X128573809Y-76561904D01*
X128497619Y-76676190D01*
X128421428Y-76752380D01*
X128345238Y-76790476D01*
X128116666Y-79861904D02*
X127850000Y-79480952D01*
X127659523Y-79861904D02*
X127659523Y-79061904D01*
X127964285Y-79061904D01*
X128040476Y-79100000D01*
X128078571Y-79138095D01*
X128116666Y-79214285D01*
X128116666Y-79328571D01*
X128078571Y-79404761D01*
X128040476Y-79442857D01*
X127964285Y-79480952D01*
X127659523Y-79480952D01*
X128878571Y-79861904D02*
X128421428Y-79861904D01*
X128650000Y-79861904D02*
X128650000Y-79061904D01*
X128573809Y-79176190D01*
X128497619Y-79252380D01*
X128421428Y-79290476D01*
X128116666Y-74861904D02*
X127850000Y-74480952D01*
X127659523Y-74861904D02*
X127659523Y-74061904D01*
X127964285Y-74061904D01*
X128040476Y-74100000D01*
X128078571Y-74138095D01*
X128116666Y-74214285D01*
X128116666Y-74328571D01*
X128078571Y-74404761D01*
X128040476Y-74442857D01*
X127964285Y-74480952D01*
X127659523Y-74480952D01*
X128611904Y-74061904D02*
X128688095Y-74061904D01*
X128764285Y-74100000D01*
X128802380Y-74138095D01*
X128840476Y-74214285D01*
X128878571Y-74366666D01*
X128878571Y-74557142D01*
X128840476Y-74709523D01*
X128802380Y-74785714D01*
X128764285Y-74823809D01*
X128688095Y-74861904D01*
X128611904Y-74861904D01*
X128535714Y-74823809D01*
X128497619Y-74785714D01*
X128459523Y-74709523D01*
X128421428Y-74557142D01*
X128421428Y-74366666D01*
X128459523Y-74214285D01*
X128497619Y-74138095D01*
X128535714Y-74100000D01*
X128611904Y-74061904D01*
X128116666Y-72361904D02*
X127735714Y-72361904D01*
X127735714Y-71561904D01*
X128535714Y-71561904D02*
X128611904Y-71561904D01*
X128688095Y-71600000D01*
X128726190Y-71638095D01*
X128764285Y-71714285D01*
X128802380Y-71866666D01*
X128802380Y-72057142D01*
X128764285Y-72209523D01*
X128726190Y-72285714D01*
X128688095Y-72323809D01*
X128611904Y-72361904D01*
X128535714Y-72361904D01*
X128459523Y-72323809D01*
X128421428Y-72285714D01*
X128383333Y-72209523D01*
X128345238Y-72057142D01*
X128345238Y-71866666D01*
X128383333Y-71714285D01*
X128421428Y-71638095D01*
X128459523Y-71600000D01*
X128535714Y-71561904D01*
X124890476Y-50350000D02*
X124814285Y-50311904D01*
X124700000Y-50311904D01*
X124585714Y-50350000D01*
X124509523Y-50426190D01*
X124471428Y-50502380D01*
X124433333Y-50654761D01*
X124433333Y-50769047D01*
X124471428Y-50921428D01*
X124509523Y-50997619D01*
X124585714Y-51073809D01*
X124700000Y-51111904D01*
X124776190Y-51111904D01*
X124890476Y-51073809D01*
X124928571Y-51035714D01*
X124928571Y-50769047D01*
X124776190Y-50769047D01*
X125271428Y-51111904D02*
X125271428Y-50311904D01*
X125728571Y-51111904D01*
X125728571Y-50311904D01*
X126109523Y-51111904D02*
X126109523Y-50311904D01*
X126300000Y-50311904D01*
X126414285Y-50350000D01*
X126490476Y-50426190D01*
X126528571Y-50502380D01*
X126566666Y-50654761D01*
X126566666Y-50769047D01*
X126528571Y-50921428D01*
X126490476Y-50997619D01*
X126414285Y-51073809D01*
X126300000Y-51111904D01*
X126109523Y-51111904D01*
X125347619Y-54311904D02*
X124966666Y-54311904D01*
X124928571Y-54692857D01*
X124966666Y-54654761D01*
X125042857Y-54616666D01*
X125233333Y-54616666D01*
X125309523Y-54654761D01*
X125347619Y-54692857D01*
X125385714Y-54769047D01*
X125385714Y-54959523D01*
X125347619Y-55035714D01*
X125309523Y-55073809D01*
X125233333Y-55111904D01*
X125042857Y-55111904D01*
X124966666Y-55073809D01*
X124928571Y-55035714D01*
X125614285Y-54311904D02*
X125880952Y-55111904D01*
X126147619Y-54311904D01*
X126059523Y-45952380D02*
X125583333Y-45952380D01*
X125535714Y-46428571D01*
X125583333Y-46380952D01*
X125678571Y-46333333D01*
X125916666Y-46333333D01*
X126011904Y-46380952D01*
X126059523Y-46428571D01*
X126107142Y-46523809D01*
X126107142Y-46761904D01*
X126059523Y-46857142D01*
X126011904Y-46904761D01*
X125916666Y-46952380D01*
X125678571Y-46952380D01*
X125583333Y-46904761D01*
X125535714Y-46857142D01*
X126392857Y-45952380D02*
X126726190Y-46952380D01*
X127059523Y-45952380D01*
X125488095Y-43500000D02*
X125392857Y-43452380D01*
X125250000Y-43452380D01*
X125107142Y-43500000D01*
X125011904Y-43595238D01*
X124964285Y-43690476D01*
X124916666Y-43880952D01*
X124916666Y-44023809D01*
X124964285Y-44214285D01*
X125011904Y-44309523D01*
X125107142Y-44404761D01*
X125250000Y-44452380D01*
X125345238Y-44452380D01*
X125488095Y-44404761D01*
X125535714Y-44357142D01*
X125535714Y-44023809D01*
X125345238Y-44023809D01*
X125964285Y-44452380D02*
X125964285Y-43452380D01*
X126535714Y-44452380D01*
X126535714Y-43452380D01*
X127011904Y-44452380D02*
X127011904Y-43452380D01*
X127250000Y-43452380D01*
X127392857Y-43500000D01*
X127488095Y-43595238D01*
X127535714Y-43690476D01*
X127583333Y-43880952D01*
X127583333Y-44023809D01*
X127535714Y-44214285D01*
X127488095Y-44309523D01*
X127392857Y-44404761D01*
X127250000Y-44452380D01*
X127011904Y-44452380D01*
D11*
X161738095Y-49892857D02*
X163261904Y-49892857D01*
X162500000Y-50654761D02*
X162500000Y-49130952D01*
X166988095Y-94892857D02*
X168511904Y-94892857D01*
X167750000Y-95654761D02*
X167750000Y-94130952D01*
X166988095Y-70142857D02*
X168511904Y-70142857D01*
X167750000Y-70904761D02*
X167750000Y-69380952D01*
X181238095Y-49492857D02*
X182761904Y-49492857D01*
X182000000Y-50254761D02*
X182000000Y-48730952D01*
D12*
X126010000Y-52537221D02*
X126010000Y-52862779D01*
X124990000Y-52537221D02*
X124990000Y-52862779D01*
X145310000Y-53697936D02*
X145310000Y-54902064D01*
X142590000Y-53697936D02*
X142590000Y-54902064D01*
X145310000Y-60097936D02*
X145310000Y-61302064D01*
X142590000Y-60097936D02*
X142590000Y-61302064D01*
X142590000Y-65947936D02*
X142590000Y-67152064D01*
X145310000Y-65947936D02*
X145310000Y-67152064D01*
X145310000Y-72297936D02*
X145310000Y-73502064D01*
X142590000Y-72297936D02*
X142590000Y-73502064D01*
X142640000Y-78247936D02*
X142640000Y-79452064D01*
X145360000Y-78247936D02*
X145360000Y-79452064D01*
X142640000Y-84547936D02*
X142640000Y-85752064D01*
X145360000Y-84547936D02*
X145360000Y-85752064D01*
X145360000Y-90747936D02*
X145360000Y-91952064D01*
X142640000Y-90747936D02*
X142640000Y-91952064D01*
X142640000Y-97047936D02*
X142640000Y-98252064D01*
X145360000Y-97047936D02*
X145360000Y-98252064D01*
X163270000Y-42200000D02*
G75*
G03X163270000Y-42200000I-6370000J0D01*
G01*
X150570000Y-42200000D02*
X163230000Y-42200000D01*
X150570000Y-42160000D02*
X163230000Y-42160000D01*
X150570000Y-42120000D02*
X163230000Y-42120000D01*
X150571000Y-42080000D02*
X163229000Y-42080000D01*
X150572000Y-42040000D02*
X163228000Y-42040000D01*
X150573000Y-42000000D02*
X163227000Y-42000000D01*
X150574000Y-41960000D02*
X163226000Y-41960000D01*
X150576000Y-41920000D02*
X163224000Y-41920000D01*
X150578000Y-41880000D02*
X163222000Y-41880000D01*
X150580000Y-41840000D02*
X163220000Y-41840000D01*
X150582000Y-41800000D02*
X163218000Y-41800000D01*
X150585000Y-41760000D02*
X163215000Y-41760000D01*
X150588000Y-41720000D02*
X163212000Y-41720000D01*
X150591000Y-41680000D02*
X163209000Y-41680000D01*
X150594000Y-41640000D02*
X163206000Y-41640000D01*
X150598000Y-41600000D02*
X163202000Y-41600000D01*
X150602000Y-41560000D02*
X163198000Y-41560000D01*
X150606000Y-41520000D02*
X163194000Y-41520000D01*
X150610000Y-41479000D02*
X163190000Y-41479000D01*
X150615000Y-41439000D02*
X163185000Y-41439000D01*
X150620000Y-41399000D02*
X163180000Y-41399000D01*
X150625000Y-41359000D02*
X163175000Y-41359000D01*
X150631000Y-41319000D02*
X163169000Y-41319000D01*
X150636000Y-41279000D02*
X163164000Y-41279000D01*
X150642000Y-41239000D02*
X163158000Y-41239000D01*
X150648000Y-41199000D02*
X163152000Y-41199000D01*
X150655000Y-41159000D02*
X163145000Y-41159000D01*
X150662000Y-41119000D02*
X155460000Y-41119000D01*
X158340000Y-41119000D02*
X163138000Y-41119000D01*
X150669000Y-41079000D02*
X155460000Y-41079000D01*
X158340000Y-41079000D02*
X163131000Y-41079000D01*
X150676000Y-41039000D02*
X155460000Y-41039000D01*
X158340000Y-41039000D02*
X163124000Y-41039000D01*
X150684000Y-40999000D02*
X155460000Y-40999000D01*
X158340000Y-40999000D02*
X163116000Y-40999000D01*
X150691000Y-40959000D02*
X155460000Y-40959000D01*
X158340000Y-40959000D02*
X163109000Y-40959000D01*
X150699000Y-40919000D02*
X155460000Y-40919000D01*
X158340000Y-40919000D02*
X163101000Y-40919000D01*
X150708000Y-40879000D02*
X155460000Y-40879000D01*
X158340000Y-40879000D02*
X163092000Y-40879000D01*
X150716000Y-40839000D02*
X155460000Y-40839000D01*
X158340000Y-40839000D02*
X163084000Y-40839000D01*
X150725000Y-40799000D02*
X155460000Y-40799000D01*
X158340000Y-40799000D02*
X163075000Y-40799000D01*
X150734000Y-40759000D02*
X155460000Y-40759000D01*
X158340000Y-40759000D02*
X163066000Y-40759000D01*
X150744000Y-40719000D02*
X155460000Y-40719000D01*
X158340000Y-40719000D02*
X163056000Y-40719000D01*
X150754000Y-40679000D02*
X155460000Y-40679000D01*
X158340000Y-40679000D02*
X163046000Y-40679000D01*
X150763000Y-40639000D02*
X155460000Y-40639000D01*
X158340000Y-40639000D02*
X163037000Y-40639000D01*
X150774000Y-40599000D02*
X155460000Y-40599000D01*
X158340000Y-40599000D02*
X163026000Y-40599000D01*
X150784000Y-40559000D02*
X155460000Y-40559000D01*
X158340000Y-40559000D02*
X163016000Y-40559000D01*
X150795000Y-40519000D02*
X155460000Y-40519000D01*
X158340000Y-40519000D02*
X163005000Y-40519000D01*
X150806000Y-40479000D02*
X155460000Y-40479000D01*
X158340000Y-40479000D02*
X162994000Y-40479000D01*
X150817000Y-40439000D02*
X155460000Y-40439000D01*
X158340000Y-40439000D02*
X162983000Y-40439000D01*
X150829000Y-40399000D02*
X155460000Y-40399000D01*
X158340000Y-40399000D02*
X162971000Y-40399000D01*
X150841000Y-40359000D02*
X155460000Y-40359000D01*
X158340000Y-40359000D02*
X162959000Y-40359000D01*
X150853000Y-40319000D02*
X155460000Y-40319000D01*
X158340000Y-40319000D02*
X162947000Y-40319000D01*
X150866000Y-40279000D02*
X155460000Y-40279000D01*
X158340000Y-40279000D02*
X162934000Y-40279000D01*
X150879000Y-40239000D02*
X155460000Y-40239000D01*
X158340000Y-40239000D02*
X162921000Y-40239000D01*
X150892000Y-40199000D02*
X155460000Y-40199000D01*
X158340000Y-40199000D02*
X162908000Y-40199000D01*
X150905000Y-40159000D02*
X155460000Y-40159000D01*
X158340000Y-40159000D02*
X162895000Y-40159000D01*
X150919000Y-40119000D02*
X155460000Y-40119000D01*
X158340000Y-40119000D02*
X162881000Y-40119000D01*
X150933000Y-40079000D02*
X155460000Y-40079000D01*
X158340000Y-40079000D02*
X162867000Y-40079000D01*
X150947000Y-40039000D02*
X155460000Y-40039000D01*
X158340000Y-40039000D02*
X162853000Y-40039000D01*
X150961000Y-39999000D02*
X155460000Y-39999000D01*
X158340000Y-39999000D02*
X162839000Y-39999000D01*
X150976000Y-39959000D02*
X155460000Y-39959000D01*
X158340000Y-39959000D02*
X162824000Y-39959000D01*
X150992000Y-39919000D02*
X155460000Y-39919000D01*
X158340000Y-39919000D02*
X162808000Y-39919000D01*
X151007000Y-39879000D02*
X155460000Y-39879000D01*
X158340000Y-39879000D02*
X162793000Y-39879000D01*
X151023000Y-39839000D02*
X155460000Y-39839000D01*
X158340000Y-39839000D02*
X162777000Y-39839000D01*
X151039000Y-39799000D02*
X155460000Y-39799000D01*
X158340000Y-39799000D02*
X162761000Y-39799000D01*
X151055000Y-39759000D02*
X155460000Y-39759000D01*
X158340000Y-39759000D02*
X162745000Y-39759000D01*
X151072000Y-39719000D02*
X155460000Y-39719000D01*
X158340000Y-39719000D02*
X162728000Y-39719000D01*
X151089000Y-39679000D02*
X155460000Y-39679000D01*
X158340000Y-39679000D02*
X162711000Y-39679000D01*
X151107000Y-39639000D02*
X155460000Y-39639000D01*
X158340000Y-39639000D02*
X162693000Y-39639000D01*
X151124000Y-39599000D02*
X155460000Y-39599000D01*
X158340000Y-39599000D02*
X162676000Y-39599000D01*
X151142000Y-39559000D02*
X155460000Y-39559000D01*
X158340000Y-39559000D02*
X162658000Y-39559000D01*
X151161000Y-39519000D02*
X155460000Y-39519000D01*
X158340000Y-39519000D02*
X162639000Y-39519000D01*
X151179000Y-39479000D02*
X155460000Y-39479000D01*
X158340000Y-39479000D02*
X162621000Y-39479000D01*
X151198000Y-39439000D02*
X155460000Y-39439000D01*
X158340000Y-39439000D02*
X162602000Y-39439000D01*
X151218000Y-39399000D02*
X155460000Y-39399000D01*
X158340000Y-39399000D02*
X162582000Y-39399000D01*
X151238000Y-39359000D02*
X155460000Y-39359000D01*
X158340000Y-39359000D02*
X162562000Y-39359000D01*
X151258000Y-39319000D02*
X155460000Y-39319000D01*
X158340000Y-39319000D02*
X162542000Y-39319000D01*
X151278000Y-39279000D02*
X155460000Y-39279000D01*
X158340000Y-39279000D02*
X162522000Y-39279000D01*
X151299000Y-39239000D02*
X155460000Y-39239000D01*
X158340000Y-39239000D02*
X162501000Y-39239000D01*
X151320000Y-39199000D02*
X155460000Y-39199000D01*
X158340000Y-39199000D02*
X162480000Y-39199000D01*
X151342000Y-39159000D02*
X155460000Y-39159000D01*
X158340000Y-39159000D02*
X162458000Y-39159000D01*
X151364000Y-39119000D02*
X155460000Y-39119000D01*
X158340000Y-39119000D02*
X162436000Y-39119000D01*
X151386000Y-39079000D02*
X155460000Y-39079000D01*
X158340000Y-39079000D02*
X162414000Y-39079000D01*
X151409000Y-39039000D02*
X155460000Y-39039000D01*
X158340000Y-39039000D02*
X162391000Y-39039000D01*
X151432000Y-38999000D02*
X155460000Y-38999000D01*
X158340000Y-38999000D02*
X162368000Y-38999000D01*
X151455000Y-38959000D02*
X155460000Y-38959000D01*
X158340000Y-38959000D02*
X162345000Y-38959000D01*
X151479000Y-38919000D02*
X155460000Y-38919000D01*
X158340000Y-38919000D02*
X162321000Y-38919000D01*
X151503000Y-38879000D02*
X155460000Y-38879000D01*
X158340000Y-38879000D02*
X162297000Y-38879000D01*
X151528000Y-38839000D02*
X155460000Y-38839000D01*
X158340000Y-38839000D02*
X162272000Y-38839000D01*
X151553000Y-38799000D02*
X155460000Y-38799000D01*
X158340000Y-38799000D02*
X162247000Y-38799000D01*
X151578000Y-38759000D02*
X155460000Y-38759000D01*
X158340000Y-38759000D02*
X162222000Y-38759000D01*
X151604000Y-38719000D02*
X155460000Y-38719000D01*
X158340000Y-38719000D02*
X162196000Y-38719000D01*
X151630000Y-38679000D02*
X155460000Y-38679000D01*
X158340000Y-38679000D02*
X162170000Y-38679000D01*
X151657000Y-38639000D02*
X155460000Y-38639000D01*
X158340000Y-38639000D02*
X162143000Y-38639000D01*
X151684000Y-38599000D02*
X155460000Y-38599000D01*
X158340000Y-38599000D02*
X162116000Y-38599000D01*
X151712000Y-38559000D02*
X155460000Y-38559000D01*
X158340000Y-38559000D02*
X162088000Y-38559000D01*
X151740000Y-38519000D02*
X155460000Y-38519000D01*
X158340000Y-38519000D02*
X162060000Y-38519000D01*
X151769000Y-38479000D02*
X155460000Y-38479000D01*
X158340000Y-38479000D02*
X162031000Y-38479000D01*
X151798000Y-38439000D02*
X155460000Y-38439000D01*
X158340000Y-38439000D02*
X162002000Y-38439000D01*
X151827000Y-38399000D02*
X155460000Y-38399000D01*
X158340000Y-38399000D02*
X161973000Y-38399000D01*
X151857000Y-38359000D02*
X155460000Y-38359000D01*
X158340000Y-38359000D02*
X161943000Y-38359000D01*
X151888000Y-38319000D02*
X155460000Y-38319000D01*
X158340000Y-38319000D02*
X161912000Y-38319000D01*
X151918000Y-38279000D02*
X155460000Y-38279000D01*
X158340000Y-38279000D02*
X161882000Y-38279000D01*
X151950000Y-38239000D02*
X161850000Y-38239000D01*
X151982000Y-38199000D02*
X161818000Y-38199000D01*
X152015000Y-38159000D02*
X161785000Y-38159000D01*
X152048000Y-38119000D02*
X161752000Y-38119000D01*
X152081000Y-38079000D02*
X161719000Y-38079000D01*
X152115000Y-38039000D02*
X161685000Y-38039000D01*
X152150000Y-37999000D02*
X161650000Y-37999000D01*
X152186000Y-37959000D02*
X161614000Y-37959000D01*
X152222000Y-37919000D02*
X161578000Y-37919000D01*
X152258000Y-37879000D02*
X161542000Y-37879000D01*
X152295000Y-37839000D02*
X161505000Y-37839000D01*
X152333000Y-37799000D02*
X161467000Y-37799000D01*
X152372000Y-37759000D02*
X161428000Y-37759000D01*
X152411000Y-37719000D02*
X161389000Y-37719000D01*
X152451000Y-37679000D02*
X161349000Y-37679000D01*
X152492000Y-37639000D02*
X161308000Y-37639000D01*
X152533000Y-37599000D02*
X161267000Y-37599000D01*
X152575000Y-37559000D02*
X161225000Y-37559000D01*
X152618000Y-37519000D02*
X161182000Y-37519000D01*
X152662000Y-37479000D02*
X161138000Y-37479000D01*
X152706000Y-37439000D02*
X161094000Y-37439000D01*
X152752000Y-37399000D02*
X161048000Y-37399000D01*
X152798000Y-37359000D02*
X161002000Y-37359000D01*
X152845000Y-37319000D02*
X160955000Y-37319000D01*
X152893000Y-37279000D02*
X160907000Y-37279000D01*
X152943000Y-37239000D02*
X160857000Y-37239000D01*
X152993000Y-37199000D02*
X160807000Y-37199000D01*
X153044000Y-37159000D02*
X160756000Y-37159000D01*
X153096000Y-37119000D02*
X160704000Y-37119000D01*
X153150000Y-37079000D02*
X160650000Y-37079000D01*
X153204000Y-37039000D02*
X160596000Y-37039000D01*
X153260000Y-36999000D02*
X160540000Y-36999000D01*
X153317000Y-36959000D02*
X160483000Y-36959000D01*
X153376000Y-36919000D02*
X160424000Y-36919000D01*
X153436000Y-36879000D02*
X160364000Y-36879000D01*
X153498000Y-36839000D02*
X160302000Y-36839000D01*
X153561000Y-36799000D02*
X160239000Y-36799000D01*
X153625000Y-36759000D02*
X160175000Y-36759000D01*
X153692000Y-36719000D02*
X160108000Y-36719000D01*
X153760000Y-36679000D02*
X160040000Y-36679000D01*
X153831000Y-36639000D02*
X159969000Y-36639000D01*
X153904000Y-36599000D02*
X159896000Y-36599000D01*
X153979000Y-36559000D02*
X159821000Y-36559000D01*
X154056000Y-36519000D02*
X159744000Y-36519000D01*
X154136000Y-36479000D02*
X159664000Y-36479000D01*
X154219000Y-36439000D02*
X159581000Y-36439000D01*
X154306000Y-36399000D02*
X159494000Y-36399000D01*
X154396000Y-36359000D02*
X159404000Y-36359000D01*
X154490000Y-36319000D02*
X159310000Y-36319000D01*
X154588000Y-36279000D02*
X159212000Y-36279000D01*
X154691000Y-36239000D02*
X159109000Y-36239000D01*
X154800000Y-36199000D02*
X159000000Y-36199000D01*
X154916000Y-36159000D02*
X158884000Y-36159000D01*
X155039000Y-36119000D02*
X158761000Y-36119000D01*
X155172000Y-36079000D02*
X158628000Y-36079000D01*
X155317000Y-36039000D02*
X158483000Y-36039000D01*
X155478000Y-35999000D02*
X158322000Y-35999000D01*
X155659000Y-35959000D02*
X158141000Y-35959000D01*
X155872000Y-35919000D02*
X157928000Y-35919000D01*
X156143000Y-35879000D02*
X157657000Y-35879000D01*
X156583000Y-35839000D02*
X157217000Y-35839000D01*
X153325000Y-49017082D02*
X153325000Y-47767082D01*
X152700000Y-48392082D02*
X153950000Y-48392082D01*
X127485000Y-71215000D02*
X125200000Y-71215000D01*
X127485000Y-72685000D02*
X127485000Y-71215000D01*
X125200000Y-72685000D02*
X127485000Y-72685000D01*
X125200000Y-75185000D02*
X127485000Y-75185000D01*
X127485000Y-75185000D02*
X127485000Y-73715000D01*
X127485000Y-73715000D02*
X125200000Y-73715000D01*
X127485000Y-76215000D02*
X125200000Y-76215000D01*
X127485000Y-77685000D02*
X127485000Y-76215000D01*
X125200000Y-77685000D02*
X127485000Y-77685000D01*
X125200000Y-80185000D02*
X127485000Y-80185000D01*
X127485000Y-80185000D02*
X127485000Y-78715000D01*
X127485000Y-78715000D02*
X125200000Y-78715000D01*
X118050000Y-59935000D02*
X120335000Y-59935000D01*
X120335000Y-59935000D02*
X120335000Y-58465000D01*
X120335000Y-58465000D02*
X118050000Y-58465000D01*
X120285000Y-61415000D02*
X118000000Y-61415000D01*
X120285000Y-62885000D02*
X120285000Y-61415000D01*
X118000000Y-62885000D02*
X120285000Y-62885000D01*
X147185000Y-55100000D02*
X147185000Y-52815000D01*
X147185000Y-52815000D02*
X145715000Y-52815000D01*
X145715000Y-52815000D02*
X145715000Y-55100000D01*
X147185000Y-67350000D02*
X147185000Y-65065000D01*
X147185000Y-65065000D02*
X145715000Y-65065000D01*
X145715000Y-65065000D02*
X145715000Y-67350000D01*
X145715000Y-71415000D02*
X145715000Y-73700000D01*
X147185000Y-71415000D02*
X145715000Y-71415000D01*
X147185000Y-73700000D02*
X147185000Y-71415000D01*
X145715000Y-77365000D02*
X145715000Y-79650000D01*
X147185000Y-77365000D02*
X145715000Y-77365000D01*
X147185000Y-79650000D02*
X147185000Y-77365000D01*
X147185000Y-86000000D02*
X147185000Y-83715000D01*
X147185000Y-83715000D02*
X145715000Y-83715000D01*
X145715000Y-83715000D02*
X145715000Y-86000000D01*
X145715000Y-89865000D02*
X145715000Y-92150000D01*
X147185000Y-89865000D02*
X145715000Y-89865000D01*
X147185000Y-92150000D02*
X147185000Y-89865000D01*
X147185000Y-98500000D02*
X147185000Y-96215000D01*
X147185000Y-96215000D02*
X145715000Y-96215000D01*
X145715000Y-96215000D02*
X145715000Y-98500000D01*
X182585000Y-44000000D02*
X182585000Y-41715000D01*
X182585000Y-41715000D02*
X181115000Y-41715000D01*
X181115000Y-41715000D02*
X181115000Y-44000000D01*
X139265000Y-50785000D02*
X141550000Y-50785000D01*
X139265000Y-49315000D02*
X139265000Y-50785000D01*
X141550000Y-49315000D02*
X139265000Y-49315000D01*
D11*
X126650000Y-50000000D02*
X126650000Y-49000000D01*
X126650000Y-56500000D02*
X126650000Y-55500000D01*
X126650000Y-55500000D02*
X123150000Y-55500000D01*
X126650000Y-50000000D02*
X123150000Y-50000000D01*
X120850000Y-54500000D02*
X120850000Y-56500000D01*
X120850000Y-51000000D02*
X120850000Y-49000000D01*
X120850000Y-54500000D02*
X116250000Y-54500000D01*
X120850000Y-51000000D02*
X116250000Y-51000000D01*
X123150000Y-49000000D02*
X123150000Y-56500000D01*
X116250000Y-49000000D02*
X116250000Y-56500000D01*
X114050000Y-49000000D02*
X114050000Y-56500000D01*
X126650000Y-56500000D02*
X114050000Y-56500000D01*
X126650000Y-49000000D02*
X114050000Y-49000000D01*
X126650000Y-41500000D02*
X114050000Y-41500000D01*
X126650000Y-49000000D02*
X114050000Y-49000000D01*
X114050000Y-41500000D02*
X114050000Y-49000000D01*
X116250000Y-41500000D02*
X116250000Y-49000000D01*
X123150000Y-41500000D02*
X123150000Y-49000000D01*
X120850000Y-43500000D02*
X116250000Y-43500000D01*
X120850000Y-47000000D02*
X116250000Y-47000000D01*
X120850000Y-43500000D02*
X120850000Y-41500000D01*
X120850000Y-47000000D02*
X120850000Y-49000000D01*
X126650000Y-42500000D02*
X123150000Y-42500000D01*
X126650000Y-48000000D02*
X123150000Y-48000000D01*
X126650000Y-49000000D02*
X126650000Y-48000000D01*
X126650000Y-42500000D02*
X126650000Y-41500000D01*
D13*
X126550000Y-70450000D02*
X123050000Y-70450000D01*
X126550000Y-69450000D02*
X126550000Y-70450000D01*
X126550000Y-69450000D02*
X113950000Y-69450000D01*
X116150000Y-69450000D02*
X116150000Y-81950000D01*
X120750000Y-73950000D02*
X120750000Y-69450000D01*
X116150000Y-73950000D02*
X120750000Y-73950000D01*
X120750000Y-77450000D02*
X120750000Y-81950000D01*
X120750000Y-77450000D02*
X116150000Y-77450000D01*
X123050000Y-69450000D02*
X123050000Y-81950000D01*
X126550000Y-80950000D02*
X126550000Y-81950000D01*
X123050000Y-80950000D02*
X126550000Y-80950000D01*
X126550000Y-81950000D02*
X113950000Y-81950000D01*
X113950000Y-81950000D02*
X113950000Y-69450000D01*
D10*
X172100000Y-51050000D02*
X164100000Y-51050000D01*
X169600000Y-35050000D02*
X166600000Y-35050000D01*
X172100000Y-38050000D02*
X172100000Y-51050000D01*
X169600000Y-35050000D02*
X172100000Y-38050000D01*
X164100000Y-38050000D02*
X164100000Y-51050000D01*
X166600000Y-35050000D02*
X164100000Y-38050000D01*
X180700000Y-51050000D02*
X172700000Y-51050000D01*
X178200000Y-35050000D02*
X175200000Y-35050000D01*
X180700000Y-38050000D02*
X180700000Y-51050000D01*
X178200000Y-35050000D02*
X180700000Y-38050000D01*
X172700000Y-38050000D02*
X172700000Y-51050000D01*
X175200000Y-35050000D02*
X172700000Y-38050000D01*
X160550000Y-55300000D02*
X158050000Y-58300000D01*
X158050000Y-58300000D02*
X158050000Y-71300000D01*
X163550000Y-55300000D02*
X166050000Y-58300000D01*
X166050000Y-58300000D02*
X166050000Y-71300000D01*
X163550000Y-55300000D02*
X160550000Y-55300000D01*
X166050000Y-71300000D02*
X158050000Y-71300000D01*
X166000000Y-96150000D02*
X158000000Y-96150000D01*
X163500000Y-80150000D02*
X160500000Y-80150000D01*
X166000000Y-83150000D02*
X166000000Y-96150000D01*
X163500000Y-80150000D02*
X166000000Y-83150000D01*
X158000000Y-83150000D02*
X158000000Y-96150000D01*
X160500000Y-80150000D02*
X158000000Y-83150000D01*
D12*
X116512779Y-58690000D02*
X116187221Y-58690000D01*
X116512779Y-59710000D02*
X116187221Y-59710000D01*
X116512779Y-61640000D02*
X116187221Y-61640000D01*
X116512779Y-62660000D02*
X116187221Y-62660000D01*
X165262779Y-53090000D02*
X164937221Y-53090000D01*
X165262779Y-54110000D02*
X164937221Y-54110000D01*
X165262779Y-72340000D02*
X164937221Y-72340000D01*
X165262779Y-73360000D02*
X164937221Y-73360000D01*
X165212779Y-79460000D02*
X164887221Y-79460000D01*
X165212779Y-78440000D02*
X164887221Y-78440000D01*
X165262779Y-98360000D02*
X164937221Y-98360000D01*
X165262779Y-97340000D02*
X164937221Y-97340000D01*
X148460000Y-54137221D02*
X148460000Y-54462779D01*
X147440000Y-54137221D02*
X147440000Y-54462779D01*
X147440000Y-60537221D02*
X147440000Y-60862779D01*
X148460000Y-60537221D02*
X148460000Y-60862779D01*
X148460000Y-66387221D02*
X148460000Y-66712779D01*
X147440000Y-66387221D02*
X147440000Y-66712779D01*
X148460000Y-72737221D02*
X148460000Y-73062779D01*
X147440000Y-72737221D02*
X147440000Y-73062779D01*
X147490000Y-78687221D02*
X147490000Y-79012779D01*
X148510000Y-78687221D02*
X148510000Y-79012779D01*
X148510000Y-85037221D02*
X148510000Y-85362779D01*
X147490000Y-85037221D02*
X147490000Y-85362779D01*
X147490000Y-91187221D02*
X147490000Y-91512779D01*
X148510000Y-91187221D02*
X148510000Y-91512779D01*
X148510000Y-97537221D02*
X148510000Y-97862779D01*
X147490000Y-97537221D02*
X147490000Y-97862779D01*
X181340000Y-45437221D02*
X181340000Y-45762779D01*
X182360000Y-45437221D02*
X182360000Y-45762779D01*
X143087221Y-50560000D02*
X143412779Y-50560000D01*
X143087221Y-49540000D02*
X143412779Y-49540000D01*
X136250000Y-62760000D02*
X140110000Y-62760000D01*
X140110000Y-62760000D02*
X140110000Y-62505000D01*
X136250000Y-62760000D02*
X132390000Y-62760000D01*
X132390000Y-62760000D02*
X132390000Y-62505000D01*
X136250000Y-52240000D02*
X140110000Y-52240000D01*
X140110000Y-52240000D02*
X140110000Y-52495000D01*
X136250000Y-52240000D02*
X132390000Y-52240000D01*
X132390000Y-52240000D02*
X132390000Y-52495000D01*
X132390000Y-52495000D02*
X130575000Y-52495000D01*
X132390000Y-64745000D02*
X130575000Y-64745000D01*
X132390000Y-64490000D02*
X132390000Y-64745000D01*
X136250000Y-64490000D02*
X132390000Y-64490000D01*
X140110000Y-64490000D02*
X140110000Y-64745000D01*
X136250000Y-64490000D02*
X140110000Y-64490000D01*
X132390000Y-75010000D02*
X132390000Y-74755000D01*
X136250000Y-75010000D02*
X132390000Y-75010000D01*
X140110000Y-75010000D02*
X140110000Y-74755000D01*
X136250000Y-75010000D02*
X140110000Y-75010000D01*
X136250000Y-87260000D02*
X140110000Y-87260000D01*
X140110000Y-87260000D02*
X140110000Y-87005000D01*
X136250000Y-87260000D02*
X132390000Y-87260000D01*
X132390000Y-87260000D02*
X132390000Y-87005000D01*
X136250000Y-76740000D02*
X140110000Y-76740000D01*
X140110000Y-76740000D02*
X140110000Y-76995000D01*
X136250000Y-76740000D02*
X132390000Y-76740000D01*
X132390000Y-76740000D02*
X132390000Y-76995000D01*
X132390000Y-76995000D02*
X130575000Y-76995000D01*
X132390000Y-89495000D02*
X130575000Y-89495000D01*
X132390000Y-89240000D02*
X132390000Y-89495000D01*
X136250000Y-89240000D02*
X132390000Y-89240000D01*
X140110000Y-89240000D02*
X140110000Y-89495000D01*
X136250000Y-89240000D02*
X140110000Y-89240000D01*
X132390000Y-99760000D02*
X132390000Y-99505000D01*
X136250000Y-99760000D02*
X132390000Y-99760000D01*
X140110000Y-99760000D02*
X140110000Y-99505000D01*
X136250000Y-99760000D02*
X140110000Y-99760000D01*
X147185000Y-61500000D02*
X147185000Y-59215000D01*
X147185000Y-59215000D02*
X145715000Y-59215000D01*
X145715000Y-59215000D02*
X145715000Y-61500000D01*
D11*
X126650000Y-84750000D02*
X114050000Y-84750000D01*
X114050000Y-94750000D02*
X114050000Y-84750000D01*
X126650000Y-94750000D02*
X114050000Y-94750000D01*
X116250000Y-84750000D02*
X116250000Y-94750000D01*
X120850000Y-88000000D02*
X116250000Y-88000000D01*
X120850000Y-91500000D02*
X116250000Y-91500000D01*
X120850000Y-88000000D02*
X120850000Y-84750000D01*
X120850000Y-91500000D02*
X120850000Y-94750000D01*
X126650000Y-94750000D02*
X126650000Y-93750000D01*
X123150000Y-94750000D02*
X123150000Y-84750000D01*
X126650000Y-85750000D02*
X123150000Y-85750000D01*
X126650000Y-84750000D02*
X126650000Y-85750000D01*
X126650000Y-93750000D02*
X123150000Y-93750000D01*
D10*
X126252380Y-53914285D02*
X126252380Y-53819047D01*
X126300000Y-53723809D01*
X126347619Y-53676190D01*
X126442857Y-53628571D01*
X126633333Y-53580952D01*
X126871428Y-53580952D01*
X127061904Y-53628571D01*
X127157142Y-53676190D01*
X127204761Y-53723809D01*
X127252380Y-53819047D01*
X127252380Y-53914285D01*
X127204761Y-54009523D01*
X127157142Y-54057142D01*
X127061904Y-54104761D01*
X126871428Y-54152380D01*
X126633333Y-54152380D01*
X126442857Y-54104761D01*
X126347619Y-54057142D01*
X126300000Y-54009523D01*
X126252380Y-53914285D01*
X127157142Y-53152380D02*
X127204761Y-53104761D01*
X127252380Y-53152380D01*
X127204761Y-53200000D01*
X127157142Y-53152380D01*
X127252380Y-53152380D01*
X127252380Y-52152380D02*
X127252380Y-52723809D01*
X127252380Y-52438095D02*
X126252380Y-52438095D01*
X126395238Y-52533333D01*
X126490476Y-52628571D01*
X126538095Y-52723809D01*
X126585714Y-51295238D02*
X127252380Y-51295238D01*
X126585714Y-51723809D02*
X127109523Y-51723809D01*
X127204761Y-51676190D01*
X127252380Y-51580952D01*
X127252380Y-51438095D01*
X127204761Y-51342857D01*
X127157142Y-51295238D01*
X143119047Y-54128571D02*
X143119047Y-54661904D01*
X142928571Y-53823809D02*
X142738095Y-54395238D01*
X143233333Y-54395238D01*
X143538095Y-54585714D02*
X143576190Y-54623809D01*
X143538095Y-54661904D01*
X143500000Y-54623809D01*
X143538095Y-54585714D01*
X143538095Y-54661904D01*
X143842857Y-53861904D02*
X144376190Y-53861904D01*
X144033333Y-54661904D01*
X145023809Y-54128571D02*
X145023809Y-54661904D01*
X144680952Y-54128571D02*
X144680952Y-54547619D01*
X144719047Y-54623809D01*
X144795238Y-54661904D01*
X144909523Y-54661904D01*
X144985714Y-54623809D01*
X145023809Y-54585714D01*
X143169047Y-60578571D02*
X143169047Y-61111904D01*
X142978571Y-60273809D02*
X142788095Y-60845238D01*
X143283333Y-60845238D01*
X143588095Y-61035714D02*
X143626190Y-61073809D01*
X143588095Y-61111904D01*
X143550000Y-61073809D01*
X143588095Y-61035714D01*
X143588095Y-61111904D01*
X143892857Y-60311904D02*
X144426190Y-60311904D01*
X144083333Y-61111904D01*
X145073809Y-60578571D02*
X145073809Y-61111904D01*
X144730952Y-60578571D02*
X144730952Y-60997619D01*
X144769047Y-61073809D01*
X144845238Y-61111904D01*
X144959523Y-61111904D01*
X145035714Y-61073809D01*
X145073809Y-61035714D01*
X143169047Y-66378571D02*
X143169047Y-66911904D01*
X142978571Y-66073809D02*
X142788095Y-66645238D01*
X143283333Y-66645238D01*
X143588095Y-66835714D02*
X143626190Y-66873809D01*
X143588095Y-66911904D01*
X143550000Y-66873809D01*
X143588095Y-66835714D01*
X143588095Y-66911904D01*
X143892857Y-66111904D02*
X144426190Y-66111904D01*
X144083333Y-66911904D01*
X145073809Y-66378571D02*
X145073809Y-66911904D01*
X144730952Y-66378571D02*
X144730952Y-66797619D01*
X144769047Y-66873809D01*
X144845238Y-66911904D01*
X144959523Y-66911904D01*
X145035714Y-66873809D01*
X145073809Y-66835714D01*
X143169047Y-72728571D02*
X143169047Y-73261904D01*
X142978571Y-72423809D02*
X142788095Y-72995238D01*
X143283333Y-72995238D01*
X143588095Y-73185714D02*
X143626190Y-73223809D01*
X143588095Y-73261904D01*
X143550000Y-73223809D01*
X143588095Y-73185714D01*
X143588095Y-73261904D01*
X143892857Y-72461904D02*
X144426190Y-72461904D01*
X144083333Y-73261904D01*
X145073809Y-72728571D02*
X145073809Y-73261904D01*
X144730952Y-72728571D02*
X144730952Y-73147619D01*
X144769047Y-73223809D01*
X144845238Y-73261904D01*
X144959523Y-73261904D01*
X145035714Y-73223809D01*
X145073809Y-73185714D01*
X143219047Y-78678571D02*
X143219047Y-79211904D01*
X143028571Y-78373809D02*
X142838095Y-78945238D01*
X143333333Y-78945238D01*
X143638095Y-79135714D02*
X143676190Y-79173809D01*
X143638095Y-79211904D01*
X143600000Y-79173809D01*
X143638095Y-79135714D01*
X143638095Y-79211904D01*
X143942857Y-78411904D02*
X144476190Y-78411904D01*
X144133333Y-79211904D01*
X145123809Y-78678571D02*
X145123809Y-79211904D01*
X144780952Y-78678571D02*
X144780952Y-79097619D01*
X144819047Y-79173809D01*
X144895238Y-79211904D01*
X145009523Y-79211904D01*
X145085714Y-79173809D01*
X145123809Y-79135714D01*
X143204048Y-84973570D02*
X143204048Y-85506903D01*
X143013572Y-84668808D02*
X142823096Y-85240237D01*
X143318334Y-85240237D01*
X143623096Y-85430713D02*
X143661191Y-85468808D01*
X143623096Y-85506903D01*
X143585001Y-85468808D01*
X143623096Y-85430713D01*
X143623096Y-85506903D01*
X143927858Y-84706903D02*
X144461191Y-84706903D01*
X144118334Y-85506903D01*
X145108810Y-84973570D02*
X145108810Y-85506903D01*
X144765953Y-84973570D02*
X144765953Y-85392618D01*
X144804048Y-85468808D01*
X144880239Y-85506903D01*
X144994524Y-85506903D01*
X145070715Y-85468808D01*
X145108810Y-85430713D01*
X143219047Y-91178571D02*
X143219047Y-91711904D01*
X143028571Y-90873809D02*
X142838095Y-91445238D01*
X143333333Y-91445238D01*
X143638095Y-91635714D02*
X143676190Y-91673809D01*
X143638095Y-91711904D01*
X143600000Y-91673809D01*
X143638095Y-91635714D01*
X143638095Y-91711904D01*
X143942857Y-90911904D02*
X144476190Y-90911904D01*
X144133333Y-91711904D01*
X145123809Y-91178571D02*
X145123809Y-91711904D01*
X144780952Y-91178571D02*
X144780952Y-91597619D01*
X144819047Y-91673809D01*
X144895238Y-91711904D01*
X145009523Y-91711904D01*
X145085714Y-91673809D01*
X145123809Y-91635714D01*
X143169047Y-97478571D02*
X143169047Y-98011904D01*
X142978571Y-97173809D02*
X142788095Y-97745238D01*
X143283333Y-97745238D01*
X143588095Y-97935714D02*
X143626190Y-97973809D01*
X143588095Y-98011904D01*
X143550000Y-97973809D01*
X143588095Y-97935714D01*
X143588095Y-98011904D01*
X143892857Y-97211904D02*
X144426190Y-97211904D01*
X144083333Y-98011904D01*
X145073809Y-97478571D02*
X145073809Y-98011904D01*
X144730952Y-97478571D02*
X144730952Y-97897619D01*
X144769047Y-97973809D01*
X144845238Y-98011904D01*
X144959523Y-98011904D01*
X145035714Y-97973809D01*
X145073809Y-97935714D01*
X155304761Y-47502380D02*
X154733333Y-47502380D01*
X155019047Y-47502380D02*
X155019047Y-46502380D01*
X154923809Y-46645238D01*
X154828571Y-46740476D01*
X154733333Y-46788095D01*
X156209523Y-46502380D02*
X155733333Y-46502380D01*
X155685714Y-46978571D01*
X155733333Y-46930952D01*
X155828571Y-46883333D01*
X156066666Y-46883333D01*
X156161904Y-46930952D01*
X156209523Y-46978571D01*
X156257142Y-47073809D01*
X156257142Y-47311904D01*
X156209523Y-47407142D01*
X156161904Y-47454761D01*
X156066666Y-47502380D01*
X155828571Y-47502380D01*
X155733333Y-47454761D01*
X155685714Y-47407142D01*
X156876190Y-46502380D02*
X156971428Y-46502380D01*
X157066666Y-46550000D01*
X157114285Y-46597619D01*
X157161904Y-46692857D01*
X157209523Y-46883333D01*
X157209523Y-47121428D01*
X157161904Y-47311904D01*
X157114285Y-47407142D01*
X157066666Y-47454761D01*
X156971428Y-47502380D01*
X156876190Y-47502380D01*
X156780952Y-47454761D01*
X156733333Y-47407142D01*
X156685714Y-47311904D01*
X156638095Y-47121428D01*
X156638095Y-46883333D01*
X156685714Y-46692857D01*
X156733333Y-46597619D01*
X156780952Y-46550000D01*
X156876190Y-46502380D01*
X157828571Y-46502380D02*
X157923809Y-46502380D01*
X158019047Y-46550000D01*
X158066666Y-46597619D01*
X158114285Y-46692857D01*
X158161904Y-46883333D01*
X158161904Y-47121428D01*
X158114285Y-47311904D01*
X158066666Y-47407142D01*
X158019047Y-47454761D01*
X157923809Y-47502380D01*
X157828571Y-47502380D01*
X157733333Y-47454761D01*
X157685714Y-47407142D01*
X157638095Y-47311904D01*
X157590476Y-47121428D01*
X157590476Y-46883333D01*
X157638095Y-46692857D01*
X157685714Y-46597619D01*
X157733333Y-46550000D01*
X157828571Y-46502380D01*
X159019047Y-46835714D02*
X159019047Y-47502380D01*
X158590476Y-46835714D02*
X158590476Y-47359523D01*
X158638095Y-47454761D01*
X158733333Y-47502380D01*
X158876190Y-47502380D01*
X158971428Y-47454761D01*
X159019047Y-47407142D01*
X118709523Y-60102380D02*
X118233333Y-60102380D01*
X118185714Y-60578571D01*
X118233333Y-60530952D01*
X118328571Y-60483333D01*
X118566666Y-60483333D01*
X118661904Y-60530952D01*
X118709523Y-60578571D01*
X118757142Y-60673809D01*
X118757142Y-60911904D01*
X118709523Y-61007142D01*
X118661904Y-61054761D01*
X118566666Y-61102380D01*
X118328571Y-61102380D01*
X118233333Y-61054761D01*
X118185714Y-61007142D01*
X119042857Y-60102380D02*
X119376190Y-61102380D01*
X119709523Y-60102380D01*
X117561904Y-63052380D02*
X118180952Y-63052380D01*
X117847619Y-63433333D01*
X117990476Y-63433333D01*
X118085714Y-63480952D01*
X118133333Y-63528571D01*
X118180952Y-63623809D01*
X118180952Y-63861904D01*
X118133333Y-63957142D01*
X118085714Y-64004761D01*
X117990476Y-64052380D01*
X117704761Y-64052380D01*
X117609523Y-64004761D01*
X117561904Y-63957142D01*
X118466666Y-63052380D02*
X118800000Y-64052380D01*
X119133333Y-63052380D01*
X119371428Y-63052380D02*
X119990476Y-63052380D01*
X119657142Y-63433333D01*
X119800000Y-63433333D01*
X119895238Y-63480952D01*
X119942857Y-63528571D01*
X119990476Y-63623809D01*
X119990476Y-63861904D01*
X119942857Y-63957142D01*
X119895238Y-64004761D01*
X119800000Y-64052380D01*
X119514285Y-64052380D01*
X119419047Y-64004761D01*
X119371428Y-63957142D01*
X183128571Y-44319047D02*
X183176190Y-44176190D01*
X183223809Y-44128571D01*
X183319047Y-44080952D01*
X183461904Y-44080952D01*
X183557142Y-44128571D01*
X183604761Y-44176190D01*
X183652380Y-44271428D01*
X183652380Y-44652380D01*
X182652380Y-44652380D01*
X182652380Y-44319047D01*
X182700000Y-44223809D01*
X182747619Y-44176190D01*
X182842857Y-44128571D01*
X182938095Y-44128571D01*
X183033333Y-44176190D01*
X183080952Y-44223809D01*
X183128571Y-44319047D01*
X183128571Y-44652380D01*
X183366666Y-43700000D02*
X183366666Y-43223809D01*
X183652380Y-43795238D02*
X182652380Y-43461904D01*
X183652380Y-43128571D01*
X182652380Y-42938095D02*
X182652380Y-42366666D01*
X183652380Y-42652380D02*
X182652380Y-42652380D01*
X182652380Y-42176190D02*
X182652380Y-41604761D01*
X183652380Y-41890476D02*
X182652380Y-41890476D01*
X139630952Y-51932380D02*
X139059523Y-51932380D01*
X139345238Y-51932380D02*
X139345238Y-50932380D01*
X139250000Y-51075238D01*
X139154761Y-51170476D01*
X139059523Y-51218095D01*
X140011904Y-51027619D02*
X140059523Y-50980000D01*
X140154761Y-50932380D01*
X140392857Y-50932380D01*
X140488095Y-50980000D01*
X140535714Y-51027619D01*
X140583333Y-51122857D01*
X140583333Y-51218095D01*
X140535714Y-51360952D01*
X139964285Y-51932380D01*
X140583333Y-51932380D01*
X140869047Y-50932380D02*
X141202380Y-51932380D01*
X141535714Y-50932380D01*
X141869047Y-51932380D02*
X141869047Y-50932380D01*
X142250000Y-50932380D01*
X142345238Y-50980000D01*
X142392857Y-51027619D01*
X142440476Y-51122857D01*
X142440476Y-51265714D01*
X142392857Y-51360952D01*
X142345238Y-51408571D01*
X142250000Y-51456190D01*
X141869047Y-51456190D01*
X123202380Y-52238095D02*
X122202380Y-52238095D01*
X122202380Y-51857142D01*
X122250000Y-51761904D01*
X122297619Y-51714285D01*
X122392857Y-51666666D01*
X122535714Y-51666666D01*
X122630952Y-51714285D01*
X122678571Y-51761904D01*
X122726190Y-51857142D01*
X122726190Y-52238095D01*
X123202380Y-50714285D02*
X123202380Y-51285714D01*
X123202380Y-51000000D02*
X122202380Y-51000000D01*
X122345238Y-51095238D01*
X122440476Y-51190476D01*
X122488095Y-51285714D01*
D13*
X115021428Y-57092857D02*
X114450000Y-57092857D01*
X114392857Y-57664285D01*
X114450000Y-57607142D01*
X114564285Y-57550000D01*
X114850000Y-57550000D01*
X114964285Y-57607142D01*
X115021428Y-57664285D01*
X115078571Y-57778571D01*
X115078571Y-58064285D01*
X115021428Y-58178571D01*
X114964285Y-58235714D01*
X114850000Y-58292857D01*
X114564285Y-58292857D01*
X114450000Y-58235714D01*
X114392857Y-58178571D01*
X115421428Y-57092857D02*
X115821428Y-58292857D01*
X116221428Y-57092857D01*
D10*
X123202380Y-44738095D02*
X122202380Y-44738095D01*
X122202380Y-44357142D01*
X122250000Y-44261904D01*
X122297619Y-44214285D01*
X122392857Y-44166666D01*
X122535714Y-44166666D01*
X122630952Y-44214285D01*
X122678571Y-44261904D01*
X122726190Y-44357142D01*
X122726190Y-44738095D01*
X122297619Y-43785714D02*
X122250000Y-43738095D01*
X122202380Y-43642857D01*
X122202380Y-43404761D01*
X122250000Y-43309523D01*
X122297619Y-43261904D01*
X122392857Y-43214285D01*
X122488095Y-43214285D01*
X122630952Y-43261904D01*
X123202380Y-43833333D01*
X123202380Y-43214285D01*
D13*
X125271428Y-39842857D02*
X124700000Y-39842857D01*
X124642857Y-40414285D01*
X124700000Y-40357142D01*
X124814285Y-40300000D01*
X125100000Y-40300000D01*
X125214285Y-40357142D01*
X125271428Y-40414285D01*
X125328571Y-40528571D01*
X125328571Y-40814285D01*
X125271428Y-40928571D01*
X125214285Y-40985714D01*
X125100000Y-41042857D01*
X124814285Y-41042857D01*
X124700000Y-40985714D01*
X124642857Y-40928571D01*
X125671428Y-39842857D02*
X126071428Y-41042857D01*
X126471428Y-39842857D01*
X114392857Y-83485714D02*
X114564285Y-83542857D01*
X114850000Y-83542857D01*
X114964285Y-83485714D01*
X115021428Y-83428571D01*
X115078571Y-83314285D01*
X115078571Y-83200000D01*
X115021428Y-83085714D01*
X114964285Y-83028571D01*
X114850000Y-82971428D01*
X114621428Y-82914285D01*
X114507142Y-82857142D01*
X114450000Y-82800000D01*
X114392857Y-82685714D01*
X114392857Y-82571428D01*
X114450000Y-82457142D01*
X114507142Y-82400000D01*
X114621428Y-82342857D01*
X114907142Y-82342857D01*
X115078571Y-82400000D01*
X115592857Y-83542857D02*
X115592857Y-82342857D01*
X116792857Y-82400000D02*
X116678571Y-82342857D01*
X116507142Y-82342857D01*
X116335714Y-82400000D01*
X116221428Y-82514285D01*
X116164285Y-82628571D01*
X116107142Y-82857142D01*
X116107142Y-83028571D01*
X116164285Y-83257142D01*
X116221428Y-83371428D01*
X116335714Y-83485714D01*
X116507142Y-83542857D01*
X116621428Y-83542857D01*
X116792857Y-83485714D01*
X116850000Y-83428571D01*
X116850000Y-83028571D01*
X116621428Y-83028571D01*
X117364285Y-83542857D02*
X117364285Y-82342857D01*
X118050000Y-83542857D01*
X118050000Y-82342857D01*
X118564285Y-83200000D02*
X119135714Y-83200000D01*
X118450000Y-83542857D02*
X118850000Y-82342857D01*
X119250000Y-83542857D01*
X120221428Y-83542857D02*
X119650000Y-83542857D01*
X119650000Y-82342857D01*
D11*
X167826190Y-52507142D02*
X168111904Y-52602380D01*
X168207142Y-52697619D01*
X168302380Y-52888095D01*
X168302380Y-53173809D01*
X168207142Y-53364285D01*
X168111904Y-53459523D01*
X167921428Y-53554761D01*
X167159523Y-53554761D01*
X167159523Y-51554761D01*
X167826190Y-51554761D01*
X168016666Y-51650000D01*
X168111904Y-51745238D01*
X168207142Y-51935714D01*
X168207142Y-52126190D01*
X168111904Y-52316666D01*
X168016666Y-52411904D01*
X167826190Y-52507142D01*
X167159523Y-52507142D01*
X169064285Y-52983333D02*
X170016666Y-52983333D01*
X168873809Y-53554761D02*
X169540476Y-51554761D01*
X170207142Y-53554761D01*
X170588095Y-51554761D02*
X171730952Y-51554761D01*
X171159523Y-53554761D02*
X171159523Y-51554761D01*
X172111904Y-51554761D02*
X173254761Y-51554761D01*
X172683333Y-53554761D02*
X172683333Y-51554761D01*
X173445238Y-53745238D02*
X174969047Y-53745238D01*
X175445238Y-53554761D02*
X175445238Y-51554761D01*
X176397619Y-53554761D02*
X176397619Y-51554761D01*
X177540476Y-53554761D01*
X177540476Y-51554761D01*
D10*
X179628571Y-45311904D02*
X179676190Y-45169047D01*
X179723809Y-45121428D01*
X179819047Y-45073809D01*
X179961904Y-45073809D01*
X180057142Y-45121428D01*
X180104761Y-45169047D01*
X180152380Y-45264285D01*
X180152380Y-45645238D01*
X179152380Y-45645238D01*
X179152380Y-45311904D01*
X179200000Y-45216666D01*
X179247619Y-45169047D01*
X179342857Y-45121428D01*
X179438095Y-45121428D01*
X179533333Y-45169047D01*
X179580952Y-45216666D01*
X179628571Y-45311904D01*
X179628571Y-45645238D01*
X179866666Y-44692857D02*
X179866666Y-44216666D01*
X180152380Y-44788095D02*
X179152380Y-44454761D01*
X180152380Y-44121428D01*
X179152380Y-43930952D02*
X179152380Y-43359523D01*
X180152380Y-43645238D02*
X179152380Y-43645238D01*
X179152380Y-43169047D02*
X179152380Y-42597619D01*
X180152380Y-42883333D02*
X179152380Y-42883333D01*
X180247619Y-42502380D02*
X180247619Y-41740476D01*
X180152380Y-41502380D02*
X179152380Y-41502380D01*
X180152380Y-41026190D02*
X179152380Y-41026190D01*
X180152380Y-40454761D01*
X179152380Y-40454761D01*
D11*
X166904761Y-66252380D02*
X166904761Y-65871428D01*
X167000000Y-65680952D01*
X167190476Y-65490476D01*
X167571428Y-65395238D01*
X168238095Y-65395238D01*
X168619047Y-65490476D01*
X168809523Y-65680952D01*
X168904761Y-65871428D01*
X168904761Y-66252380D01*
X168809523Y-66442857D01*
X168619047Y-66633333D01*
X168238095Y-66728571D01*
X167571428Y-66728571D01*
X167190476Y-66633333D01*
X167000000Y-66442857D01*
X166904761Y-66252380D01*
X166904761Y-64538095D02*
X168523809Y-64538095D01*
X168714285Y-64442857D01*
X168809523Y-64347619D01*
X168904761Y-64157142D01*
X168904761Y-63776190D01*
X168809523Y-63585714D01*
X168714285Y-63490476D01*
X168523809Y-63395238D01*
X166904761Y-63395238D01*
X166904761Y-62728571D02*
X166904761Y-61585714D01*
X168904761Y-62157142D02*
X166904761Y-62157142D01*
X166904761Y-60538095D02*
X166904761Y-60347619D01*
X167000000Y-60157142D01*
X167095238Y-60061904D01*
X167285714Y-59966666D01*
X167666666Y-59871428D01*
X168142857Y-59871428D01*
X168523809Y-59966666D01*
X168714285Y-60061904D01*
X168809523Y-60157142D01*
X168904761Y-60347619D01*
X168904761Y-60538095D01*
X168809523Y-60728571D01*
X168714285Y-60823809D01*
X168523809Y-60919047D01*
X168142857Y-61014285D01*
X167666666Y-61014285D01*
X167285714Y-60919047D01*
X167095238Y-60823809D01*
X167000000Y-60728571D01*
X166904761Y-60538095D01*
X166904761Y-91102380D02*
X166904761Y-90721428D01*
X167000000Y-90530952D01*
X167190476Y-90340476D01*
X167571428Y-90245238D01*
X168238095Y-90245238D01*
X168619047Y-90340476D01*
X168809523Y-90530952D01*
X168904761Y-90721428D01*
X168904761Y-91102380D01*
X168809523Y-91292857D01*
X168619047Y-91483333D01*
X168238095Y-91578571D01*
X167571428Y-91578571D01*
X167190476Y-91483333D01*
X167000000Y-91292857D01*
X166904761Y-91102380D01*
X166904761Y-89388095D02*
X168523809Y-89388095D01*
X168714285Y-89292857D01*
X168809523Y-89197619D01*
X168904761Y-89007142D01*
X168904761Y-88626190D01*
X168809523Y-88435714D01*
X168714285Y-88340476D01*
X168523809Y-88245238D01*
X166904761Y-88245238D01*
X166904761Y-87578571D02*
X166904761Y-86435714D01*
X168904761Y-87007142D02*
X166904761Y-87007142D01*
X168904761Y-84721428D02*
X168904761Y-85864285D01*
X168904761Y-85292857D02*
X166904761Y-85292857D01*
X167190476Y-85483333D01*
X167380952Y-85673809D01*
X167476190Y-85864285D01*
D10*
X115778571Y-59961904D02*
X115397619Y-59961904D01*
X115359523Y-60342857D01*
X115397619Y-60304761D01*
X115473809Y-60266666D01*
X115664285Y-60266666D01*
X115740476Y-60304761D01*
X115778571Y-60342857D01*
X115816666Y-60419047D01*
X115816666Y-60609523D01*
X115778571Y-60685714D01*
X115740476Y-60723809D01*
X115664285Y-60761904D01*
X115473809Y-60761904D01*
X115397619Y-60723809D01*
X115359523Y-60685714D01*
X116578571Y-60761904D02*
X116121428Y-60761904D01*
X116350000Y-60761904D02*
X116350000Y-59961904D01*
X116273809Y-60076190D01*
X116197619Y-60152380D01*
X116121428Y-60190476D01*
X117073809Y-59961904D02*
X117150000Y-59961904D01*
X117226190Y-60000000D01*
X117264285Y-60038095D01*
X117302380Y-60114285D01*
X117340476Y-60266666D01*
X117340476Y-60457142D01*
X117302380Y-60609523D01*
X117264285Y-60685714D01*
X117226190Y-60723809D01*
X117150000Y-60761904D01*
X117073809Y-60761904D01*
X116997619Y-60723809D01*
X116959523Y-60685714D01*
X116921428Y-60609523D01*
X116883333Y-60457142D01*
X116883333Y-60266666D01*
X116921428Y-60114285D01*
X116959523Y-60038095D01*
X116997619Y-60000000D01*
X117073809Y-59961904D01*
X115321428Y-62911904D02*
X115816666Y-62911904D01*
X115550000Y-63216666D01*
X115664285Y-63216666D01*
X115740476Y-63254761D01*
X115778571Y-63292857D01*
X115816666Y-63369047D01*
X115816666Y-63559523D01*
X115778571Y-63635714D01*
X115740476Y-63673809D01*
X115664285Y-63711904D01*
X115435714Y-63711904D01*
X115359523Y-63673809D01*
X115321428Y-63635714D01*
X116083333Y-62911904D02*
X116578571Y-62911904D01*
X116311904Y-63216666D01*
X116426190Y-63216666D01*
X116502380Y-63254761D01*
X116540476Y-63292857D01*
X116578571Y-63369047D01*
X116578571Y-63559523D01*
X116540476Y-63635714D01*
X116502380Y-63673809D01*
X116426190Y-63711904D01*
X116197619Y-63711904D01*
X116121428Y-63673809D01*
X116083333Y-63635714D01*
X117073809Y-62911904D02*
X117150000Y-62911904D01*
X117226190Y-62950000D01*
X117264285Y-62988095D01*
X117302380Y-63064285D01*
X117340476Y-63216666D01*
X117340476Y-63407142D01*
X117302380Y-63559523D01*
X117264285Y-63635714D01*
X117226190Y-63673809D01*
X117150000Y-63711904D01*
X117073809Y-63711904D01*
X116997619Y-63673809D01*
X116959523Y-63635714D01*
X116921428Y-63559523D01*
X116883333Y-63407142D01*
X116883333Y-63216666D01*
X116921428Y-63064285D01*
X116959523Y-62988095D01*
X116997619Y-62950000D01*
X117073809Y-62911904D01*
X164833333Y-51731904D02*
X165328571Y-51731904D01*
X165061904Y-52036666D01*
X165176190Y-52036666D01*
X165252380Y-52074761D01*
X165290476Y-52112857D01*
X165328571Y-52189047D01*
X165328571Y-52379523D01*
X165290476Y-52455714D01*
X165252380Y-52493809D01*
X165176190Y-52531904D01*
X164947619Y-52531904D01*
X164871428Y-52493809D01*
X164833333Y-52455714D01*
X164816666Y-73602380D02*
X165435714Y-73602380D01*
X165102380Y-73983333D01*
X165245238Y-73983333D01*
X165340476Y-74030952D01*
X165388095Y-74078571D01*
X165435714Y-74173809D01*
X165435714Y-74411904D01*
X165388095Y-74507142D01*
X165340476Y-74554761D01*
X165245238Y-74602380D01*
X164959523Y-74602380D01*
X164864285Y-74554761D01*
X164816666Y-74507142D01*
X164716666Y-76972380D02*
X165335714Y-76972380D01*
X165002380Y-77353333D01*
X165145238Y-77353333D01*
X165240476Y-77400952D01*
X165288095Y-77448571D01*
X165335714Y-77543809D01*
X165335714Y-77781904D01*
X165288095Y-77877142D01*
X165240476Y-77924761D01*
X165145238Y-77972380D01*
X164859523Y-77972380D01*
X164764285Y-77924761D01*
X164716666Y-77877142D01*
X164816666Y-98702380D02*
X165435714Y-98702380D01*
X165102380Y-99083333D01*
X165245238Y-99083333D01*
X165340476Y-99130952D01*
X165388095Y-99178571D01*
X165435714Y-99273809D01*
X165435714Y-99511904D01*
X165388095Y-99607142D01*
X165340476Y-99654761D01*
X165245238Y-99702380D01*
X164959523Y-99702380D01*
X164864285Y-99654761D01*
X164816666Y-99607142D01*
X149652380Y-54014285D02*
X149652380Y-54585714D01*
X149652380Y-54300000D02*
X148652380Y-54300000D01*
X148795238Y-54395238D01*
X148890476Y-54490476D01*
X148938095Y-54585714D01*
X149652380Y-60414285D02*
X149652380Y-60985714D01*
X149652380Y-60700000D02*
X148652380Y-60700000D01*
X148795238Y-60795238D01*
X148890476Y-60890476D01*
X148938095Y-60985714D01*
X149652380Y-66264285D02*
X149652380Y-66835714D01*
X149652380Y-66550000D02*
X148652380Y-66550000D01*
X148795238Y-66645238D01*
X148890476Y-66740476D01*
X148938095Y-66835714D01*
X149652380Y-72614285D02*
X149652380Y-73185714D01*
X149652380Y-72900000D02*
X148652380Y-72900000D01*
X148795238Y-72995238D01*
X148890476Y-73090476D01*
X148938095Y-73185714D01*
X149702380Y-78564285D02*
X149702380Y-79135714D01*
X149702380Y-78850000D02*
X148702380Y-78850000D01*
X148845238Y-78945238D01*
X148940476Y-79040476D01*
X148988095Y-79135714D01*
X149652380Y-84964285D02*
X149652380Y-85535714D01*
X149652380Y-85250000D02*
X148652380Y-85250000D01*
X148795238Y-85345238D01*
X148890476Y-85440476D01*
X148938095Y-85535714D01*
X149637381Y-91089284D02*
X149637381Y-91660713D01*
X149637381Y-91374999D02*
X148637381Y-91374999D01*
X148780239Y-91470237D01*
X148875477Y-91565475D01*
X148923096Y-91660713D01*
X149647381Y-97449284D02*
X149647381Y-98020713D01*
X149647381Y-97734999D02*
X148647381Y-97734999D01*
X148790239Y-97830237D01*
X148885477Y-97925475D01*
X148933096Y-98020713D01*
X132583333Y-63052380D02*
X132583333Y-63861904D01*
X132630952Y-63957142D01*
X132678571Y-64004761D01*
X132773809Y-64052380D01*
X132964285Y-64052380D01*
X133059523Y-64004761D01*
X133107142Y-63957142D01*
X133154761Y-63861904D01*
X133154761Y-63052380D01*
X134202380Y-63957142D02*
X134154761Y-64004761D01*
X134011904Y-64052380D01*
X133916666Y-64052380D01*
X133773809Y-64004761D01*
X133678571Y-63909523D01*
X133630952Y-63814285D01*
X133583333Y-63623809D01*
X133583333Y-63480952D01*
X133630952Y-63290476D01*
X133678571Y-63195238D01*
X133773809Y-63100000D01*
X133916666Y-63052380D01*
X134011904Y-63052380D01*
X134154761Y-63100000D01*
X134202380Y-63147619D01*
X135202380Y-63957142D02*
X135154761Y-64004761D01*
X135011904Y-64052380D01*
X134916666Y-64052380D01*
X134773809Y-64004761D01*
X134678571Y-63909523D01*
X134630952Y-63814285D01*
X134583333Y-63623809D01*
X134583333Y-63480952D01*
X134630952Y-63290476D01*
X134678571Y-63195238D01*
X134773809Y-63100000D01*
X134916666Y-63052380D01*
X135011904Y-63052380D01*
X135154761Y-63100000D01*
X135202380Y-63147619D01*
X135583333Y-63147619D02*
X135630952Y-63100000D01*
X135726190Y-63052380D01*
X135964285Y-63052380D01*
X136059523Y-63100000D01*
X136107142Y-63147619D01*
X136154761Y-63242857D01*
X136154761Y-63338095D01*
X136107142Y-63480952D01*
X135535714Y-64052380D01*
X136154761Y-64052380D01*
X136773809Y-63052380D02*
X136869047Y-63052380D01*
X136964285Y-63100000D01*
X137011904Y-63147619D01*
X137059523Y-63242857D01*
X137107142Y-63433333D01*
X137107142Y-63671428D01*
X137059523Y-63861904D01*
X137011904Y-63957142D01*
X136964285Y-64004761D01*
X136869047Y-64052380D01*
X136773809Y-64052380D01*
X136678571Y-64004761D01*
X136630952Y-63957142D01*
X136583333Y-63861904D01*
X136535714Y-63671428D01*
X136535714Y-63433333D01*
X136583333Y-63242857D01*
X136630952Y-63147619D01*
X136678571Y-63100000D01*
X136773809Y-63052380D01*
X138011904Y-63052380D02*
X137535714Y-63052380D01*
X137488095Y-63528571D01*
X137535714Y-63480952D01*
X137630952Y-63433333D01*
X137869047Y-63433333D01*
X137964285Y-63480952D01*
X138011904Y-63528571D01*
X138059523Y-63623809D01*
X138059523Y-63861904D01*
X138011904Y-63957142D01*
X137964285Y-64004761D01*
X137869047Y-64052380D01*
X137630952Y-64052380D01*
X137535714Y-64004761D01*
X137488095Y-63957142D01*
X138440476Y-63147619D02*
X138488095Y-63100000D01*
X138583333Y-63052380D01*
X138821428Y-63052380D01*
X138916666Y-63100000D01*
X138964285Y-63147619D01*
X139011904Y-63242857D01*
X139011904Y-63338095D01*
X138964285Y-63480952D01*
X138392857Y-64052380D01*
X139011904Y-64052380D01*
X139630952Y-63052380D02*
X139726190Y-63052380D01*
X139821428Y-63100000D01*
X139869047Y-63147619D01*
X139916666Y-63242857D01*
X139964285Y-63433333D01*
X139964285Y-63671428D01*
X139916666Y-63861904D01*
X139869047Y-63957142D01*
X139821428Y-64004761D01*
X139726190Y-64052380D01*
X139630952Y-64052380D01*
X139535714Y-64004761D01*
X139488095Y-63957142D01*
X139440476Y-63861904D01*
X139392857Y-63671428D01*
X139392857Y-63433333D01*
X139440476Y-63242857D01*
X139488095Y-63147619D01*
X139535714Y-63100000D01*
X139630952Y-63052380D01*
X132583333Y-75302380D02*
X132583333Y-76111904D01*
X132630952Y-76207142D01*
X132678571Y-76254761D01*
X132773809Y-76302380D01*
X132964285Y-76302380D01*
X133059523Y-76254761D01*
X133107142Y-76207142D01*
X133154761Y-76111904D01*
X133154761Y-75302380D01*
X134202380Y-76207142D02*
X134154761Y-76254761D01*
X134011904Y-76302380D01*
X133916666Y-76302380D01*
X133773809Y-76254761D01*
X133678571Y-76159523D01*
X133630952Y-76064285D01*
X133583333Y-75873809D01*
X133583333Y-75730952D01*
X133630952Y-75540476D01*
X133678571Y-75445238D01*
X133773809Y-75350000D01*
X133916666Y-75302380D01*
X134011904Y-75302380D01*
X134154761Y-75350000D01*
X134202380Y-75397619D01*
X135202380Y-76207142D02*
X135154761Y-76254761D01*
X135011904Y-76302380D01*
X134916666Y-76302380D01*
X134773809Y-76254761D01*
X134678571Y-76159523D01*
X134630952Y-76064285D01*
X134583333Y-75873809D01*
X134583333Y-75730952D01*
X134630952Y-75540476D01*
X134678571Y-75445238D01*
X134773809Y-75350000D01*
X134916666Y-75302380D01*
X135011904Y-75302380D01*
X135154761Y-75350000D01*
X135202380Y-75397619D01*
X135583333Y-75397619D02*
X135630952Y-75350000D01*
X135726190Y-75302380D01*
X135964285Y-75302380D01*
X136059523Y-75350000D01*
X136107142Y-75397619D01*
X136154761Y-75492857D01*
X136154761Y-75588095D01*
X136107142Y-75730952D01*
X135535714Y-76302380D01*
X136154761Y-76302380D01*
X136773809Y-75302380D02*
X136869047Y-75302380D01*
X136964285Y-75350000D01*
X137011904Y-75397619D01*
X137059523Y-75492857D01*
X137107142Y-75683333D01*
X137107142Y-75921428D01*
X137059523Y-76111904D01*
X137011904Y-76207142D01*
X136964285Y-76254761D01*
X136869047Y-76302380D01*
X136773809Y-76302380D01*
X136678571Y-76254761D01*
X136630952Y-76207142D01*
X136583333Y-76111904D01*
X136535714Y-75921428D01*
X136535714Y-75683333D01*
X136583333Y-75492857D01*
X136630952Y-75397619D01*
X136678571Y-75350000D01*
X136773809Y-75302380D01*
X138011904Y-75302380D02*
X137535714Y-75302380D01*
X137488095Y-75778571D01*
X137535714Y-75730952D01*
X137630952Y-75683333D01*
X137869047Y-75683333D01*
X137964285Y-75730952D01*
X138011904Y-75778571D01*
X138059523Y-75873809D01*
X138059523Y-76111904D01*
X138011904Y-76207142D01*
X137964285Y-76254761D01*
X137869047Y-76302380D01*
X137630952Y-76302380D01*
X137535714Y-76254761D01*
X137488095Y-76207142D01*
X138440476Y-75397619D02*
X138488095Y-75350000D01*
X138583333Y-75302380D01*
X138821428Y-75302380D01*
X138916666Y-75350000D01*
X138964285Y-75397619D01*
X139011904Y-75492857D01*
X139011904Y-75588095D01*
X138964285Y-75730952D01*
X138392857Y-76302380D01*
X139011904Y-76302380D01*
X139630952Y-75302380D02*
X139726190Y-75302380D01*
X139821428Y-75350000D01*
X139869047Y-75397619D01*
X139916666Y-75492857D01*
X139964285Y-75683333D01*
X139964285Y-75921428D01*
X139916666Y-76111904D01*
X139869047Y-76207142D01*
X139821428Y-76254761D01*
X139726190Y-76302380D01*
X139630952Y-76302380D01*
X139535714Y-76254761D01*
X139488095Y-76207142D01*
X139440476Y-76111904D01*
X139392857Y-75921428D01*
X139392857Y-75683333D01*
X139440476Y-75492857D01*
X139488095Y-75397619D01*
X139535714Y-75350000D01*
X139630952Y-75302380D01*
X132583333Y-87552380D02*
X132583333Y-88361904D01*
X132630952Y-88457142D01*
X132678571Y-88504761D01*
X132773809Y-88552380D01*
X132964285Y-88552380D01*
X133059523Y-88504761D01*
X133107142Y-88457142D01*
X133154761Y-88361904D01*
X133154761Y-87552380D01*
X134202380Y-88457142D02*
X134154761Y-88504761D01*
X134011904Y-88552380D01*
X133916666Y-88552380D01*
X133773809Y-88504761D01*
X133678571Y-88409523D01*
X133630952Y-88314285D01*
X133583333Y-88123809D01*
X133583333Y-87980952D01*
X133630952Y-87790476D01*
X133678571Y-87695238D01*
X133773809Y-87600000D01*
X133916666Y-87552380D01*
X134011904Y-87552380D01*
X134154761Y-87600000D01*
X134202380Y-87647619D01*
X135202380Y-88457142D02*
X135154761Y-88504761D01*
X135011904Y-88552380D01*
X134916666Y-88552380D01*
X134773809Y-88504761D01*
X134678571Y-88409523D01*
X134630952Y-88314285D01*
X134583333Y-88123809D01*
X134583333Y-87980952D01*
X134630952Y-87790476D01*
X134678571Y-87695238D01*
X134773809Y-87600000D01*
X134916666Y-87552380D01*
X135011904Y-87552380D01*
X135154761Y-87600000D01*
X135202380Y-87647619D01*
X135583333Y-87647619D02*
X135630952Y-87600000D01*
X135726190Y-87552380D01*
X135964285Y-87552380D01*
X136059523Y-87600000D01*
X136107142Y-87647619D01*
X136154761Y-87742857D01*
X136154761Y-87838095D01*
X136107142Y-87980952D01*
X135535714Y-88552380D01*
X136154761Y-88552380D01*
X136773809Y-87552380D02*
X136869047Y-87552380D01*
X136964285Y-87600000D01*
X137011904Y-87647619D01*
X137059523Y-87742857D01*
X137107142Y-87933333D01*
X137107142Y-88171428D01*
X137059523Y-88361904D01*
X137011904Y-88457142D01*
X136964285Y-88504761D01*
X136869047Y-88552380D01*
X136773809Y-88552380D01*
X136678571Y-88504761D01*
X136630952Y-88457142D01*
X136583333Y-88361904D01*
X136535714Y-88171428D01*
X136535714Y-87933333D01*
X136583333Y-87742857D01*
X136630952Y-87647619D01*
X136678571Y-87600000D01*
X136773809Y-87552380D01*
X138011904Y-87552380D02*
X137535714Y-87552380D01*
X137488095Y-88028571D01*
X137535714Y-87980952D01*
X137630952Y-87933333D01*
X137869047Y-87933333D01*
X137964285Y-87980952D01*
X138011904Y-88028571D01*
X138059523Y-88123809D01*
X138059523Y-88361904D01*
X138011904Y-88457142D01*
X137964285Y-88504761D01*
X137869047Y-88552380D01*
X137630952Y-88552380D01*
X137535714Y-88504761D01*
X137488095Y-88457142D01*
X138440476Y-87647619D02*
X138488095Y-87600000D01*
X138583333Y-87552380D01*
X138821428Y-87552380D01*
X138916666Y-87600000D01*
X138964285Y-87647619D01*
X139011904Y-87742857D01*
X139011904Y-87838095D01*
X138964285Y-87980952D01*
X138392857Y-88552380D01*
X139011904Y-88552380D01*
X139630952Y-87552380D02*
X139726190Y-87552380D01*
X139821428Y-87600000D01*
X139869047Y-87647619D01*
X139916666Y-87742857D01*
X139964285Y-87933333D01*
X139964285Y-88171428D01*
X139916666Y-88361904D01*
X139869047Y-88457142D01*
X139821428Y-88504761D01*
X139726190Y-88552380D01*
X139630952Y-88552380D01*
X139535714Y-88504761D01*
X139488095Y-88457142D01*
X139440476Y-88361904D01*
X139392857Y-88171428D01*
X139392857Y-87933333D01*
X139440476Y-87742857D01*
X139488095Y-87647619D01*
X139535714Y-87600000D01*
X139630952Y-87552380D01*
X132583333Y-100052380D02*
X132583333Y-100861904D01*
X132630952Y-100957142D01*
X132678571Y-101004761D01*
X132773809Y-101052380D01*
X132964285Y-101052380D01*
X133059523Y-101004761D01*
X133107142Y-100957142D01*
X133154761Y-100861904D01*
X133154761Y-100052380D01*
X134202380Y-100957142D02*
X134154761Y-101004761D01*
X134011904Y-101052380D01*
X133916666Y-101052380D01*
X133773809Y-101004761D01*
X133678571Y-100909523D01*
X133630952Y-100814285D01*
X133583333Y-100623809D01*
X133583333Y-100480952D01*
X133630952Y-100290476D01*
X133678571Y-100195238D01*
X133773809Y-100100000D01*
X133916666Y-100052380D01*
X134011904Y-100052380D01*
X134154761Y-100100000D01*
X134202380Y-100147619D01*
X135202380Y-100957142D02*
X135154761Y-101004761D01*
X135011904Y-101052380D01*
X134916666Y-101052380D01*
X134773809Y-101004761D01*
X134678571Y-100909523D01*
X134630952Y-100814285D01*
X134583333Y-100623809D01*
X134583333Y-100480952D01*
X134630952Y-100290476D01*
X134678571Y-100195238D01*
X134773809Y-100100000D01*
X134916666Y-100052380D01*
X135011904Y-100052380D01*
X135154761Y-100100000D01*
X135202380Y-100147619D01*
X135583333Y-100147619D02*
X135630952Y-100100000D01*
X135726190Y-100052380D01*
X135964285Y-100052380D01*
X136059523Y-100100000D01*
X136107142Y-100147619D01*
X136154761Y-100242857D01*
X136154761Y-100338095D01*
X136107142Y-100480952D01*
X135535714Y-101052380D01*
X136154761Y-101052380D01*
X136773809Y-100052380D02*
X136869047Y-100052380D01*
X136964285Y-100100000D01*
X137011904Y-100147619D01*
X137059523Y-100242857D01*
X137107142Y-100433333D01*
X137107142Y-100671428D01*
X137059523Y-100861904D01*
X137011904Y-100957142D01*
X136964285Y-101004761D01*
X136869047Y-101052380D01*
X136773809Y-101052380D01*
X136678571Y-101004761D01*
X136630952Y-100957142D01*
X136583333Y-100861904D01*
X136535714Y-100671428D01*
X136535714Y-100433333D01*
X136583333Y-100242857D01*
X136630952Y-100147619D01*
X136678571Y-100100000D01*
X136773809Y-100052380D01*
X138011904Y-100052380D02*
X137535714Y-100052380D01*
X137488095Y-100528571D01*
X137535714Y-100480952D01*
X137630952Y-100433333D01*
X137869047Y-100433333D01*
X137964285Y-100480952D01*
X138011904Y-100528571D01*
X138059523Y-100623809D01*
X138059523Y-100861904D01*
X138011904Y-100957142D01*
X137964285Y-101004761D01*
X137869047Y-101052380D01*
X137630952Y-101052380D01*
X137535714Y-101004761D01*
X137488095Y-100957142D01*
X138440476Y-100147619D02*
X138488095Y-100100000D01*
X138583333Y-100052380D01*
X138821428Y-100052380D01*
X138916666Y-100100000D01*
X138964285Y-100147619D01*
X139011904Y-100242857D01*
X139011904Y-100338095D01*
X138964285Y-100480952D01*
X138392857Y-101052380D01*
X139011904Y-101052380D01*
X139630952Y-100052380D02*
X139726190Y-100052380D01*
X139821428Y-100100000D01*
X139869047Y-100147619D01*
X139916666Y-100242857D01*
X139964285Y-100433333D01*
X139964285Y-100671428D01*
X139916666Y-100861904D01*
X139869047Y-100957142D01*
X139821428Y-101004761D01*
X139726190Y-101052380D01*
X139630952Y-101052380D01*
X139535714Y-101004761D01*
X139488095Y-100957142D01*
X139440476Y-100861904D01*
X139392857Y-100671428D01*
X139392857Y-100433333D01*
X139440476Y-100242857D01*
X139488095Y-100147619D01*
X139535714Y-100100000D01*
X139630952Y-100052380D01*
X123202380Y-87988095D02*
X122202380Y-87988095D01*
X122202380Y-87607142D01*
X122250000Y-87511904D01*
X122297619Y-87464285D01*
X122392857Y-87416666D01*
X122535714Y-87416666D01*
X122630952Y-87464285D01*
X122678571Y-87511904D01*
X122726190Y-87607142D01*
X122726190Y-87988095D01*
X122630952Y-86845238D02*
X122583333Y-86940476D01*
X122535714Y-86988095D01*
X122440476Y-87035714D01*
X122392857Y-87035714D01*
X122297619Y-86988095D01*
X122250000Y-86940476D01*
X122202380Y-86845238D01*
X122202380Y-86654761D01*
X122250000Y-86559523D01*
X122297619Y-86511904D01*
X122392857Y-86464285D01*
X122440476Y-86464285D01*
X122535714Y-86511904D01*
X122583333Y-86559523D01*
X122630952Y-86654761D01*
X122630952Y-86845238D01*
X122678571Y-86940476D01*
X122726190Y-86988095D01*
X122821428Y-87035714D01*
X123011904Y-87035714D01*
X123107142Y-86988095D01*
X123154761Y-86940476D01*
X123202380Y-86845238D01*
X123202380Y-86654761D01*
X123154761Y-86559523D01*
X123107142Y-86511904D01*
X123011904Y-86464285D01*
X122821428Y-86464285D01*
X122726190Y-86511904D01*
X122678571Y-86559523D01*
X122630952Y-86654761D01*
D13*
X114185714Y-95246000D02*
X115271428Y-95246000D01*
X114471428Y-96414285D02*
X114871428Y-96414285D01*
X115042857Y-97042857D02*
X114471428Y-97042857D01*
X114471428Y-95842857D01*
X115042857Y-95842857D01*
X115271428Y-95246000D02*
X116528571Y-95246000D01*
X115557142Y-97042857D02*
X115557142Y-95842857D01*
X116242857Y-97042857D01*
X116242857Y-95842857D01*
X116528571Y-95246000D02*
X117557142Y-95246000D01*
X116757142Y-96700000D02*
X117328571Y-96700000D01*
X116642857Y-97042857D02*
X117042857Y-95842857D01*
X117442857Y-97042857D01*
X117557142Y-95246000D02*
X118757142Y-95246000D01*
X118242857Y-96414285D02*
X118414285Y-96471428D01*
X118471428Y-96528571D01*
X118528571Y-96642857D01*
X118528571Y-96814285D01*
X118471428Y-96928571D01*
X118414285Y-96985714D01*
X118300000Y-97042857D01*
X117842857Y-97042857D01*
X117842857Y-95842857D01*
X118242857Y-95842857D01*
X118357142Y-95900000D01*
X118414285Y-95957142D01*
X118471428Y-96071428D01*
X118471428Y-96185714D01*
X118414285Y-96300000D01*
X118357142Y-96357142D01*
X118242857Y-96414285D01*
X117842857Y-96414285D01*
X118757142Y-95246000D02*
X119728571Y-95246000D01*
X119614285Y-97042857D02*
X119042857Y-97042857D01*
X119042857Y-95842857D01*
X119728571Y-95246000D02*
X120814285Y-95246000D01*
X120014285Y-96414285D02*
X120414285Y-96414285D01*
X120585714Y-97042857D02*
X120014285Y-97042857D01*
X120014285Y-95842857D01*
X120585714Y-95842857D01*
M02*
