M48
; DRILL file {KiCad (5.1.2)-1} date 2019/09/19 23:19:27
; FORMAT={-:-/ absolute / metric / decimal}
; #@! TF.CreationDate,2019-09-19T23:19:27+09:00
; #@! TF.GenerationSoftware,Kicad,Pcbnew,(5.1.2)-1
; #@! TF.FileFunction,Plated,1,2,PTH
FMAT,2
METRIC
T1C0.300
T2C0.400
T3C0.750
T4C1.000
T5C1.200
T6C3.000
T7C4.500
%
G90
G05
T1
X115.562Y-59.2
X115.75Y-63.25
X127.75Y-85.5
X128.0Y-90.25
X128.5Y-76.5
X129.0Y-83.0
X129.5Y-64.319
X129.5Y-68.75
X131.25Y-80.5
X131.537Y-58.0
X131.537Y-59.45
X131.588Y-71.75
X131.588Y-74.2
X131.588Y-82.55
X131.588Y-84.0
X131.6Y-53.055
X131.6Y-55.595
X131.6Y-67.845
X131.6Y-92.595
X131.637Y-86.45
X143.25Y-60.75
X143.25Y-85.25
X143.5Y-73.0
X144.25Y-97.75
X166.63Y-73.55
X169.25Y-62.25
X169.25Y-86.5
T2
X126.75Y-95.75
X131.6Y-61.945
X131.6Y-65.305
X131.6Y-70.385
X131.6Y-77.555
X131.6Y-90.055
X131.6Y-95.135
X131.6Y-96.405
X131.6Y-98.945
X139.75Y-48.75
X142.25Y-99.75
X142.5Y-63.25
X142.5Y-87.5
X142.75Y-75.25
X144.037Y-50.05
X148.75Y-58.75
X148.75Y-65.25
X149.0Y-77.0
X149.237Y-53.6
X149.25Y-70.25
X149.25Y-83.5
X149.25Y-89.5
X149.25Y-95.25
X150.087Y-69.5
X150.1Y-93.5
X166.75Y-98.5
T3
X142.75Y-37.0
X142.75Y-38.5
X142.75Y-40.0
X142.75Y-41.5
X144.25Y-37.0
X144.25Y-38.5
X144.25Y-40.0
X144.25Y-41.5
X145.75Y-37.0
X145.75Y-38.5
X145.75Y-40.0
X145.75Y-41.5
X147.25Y-37.0
X147.25Y-38.5
X147.25Y-40.0
X147.25Y-41.5
X148.75Y-37.0
X148.75Y-38.5
X148.75Y-40.0
X148.75Y-41.5
X151.25Y-56.0
X151.25Y-57.5
X151.25Y-59.0
X151.25Y-60.5
X151.25Y-62.0
X151.25Y-64.5
X151.25Y-66.0
X151.25Y-80.75
X151.25Y-82.25
X151.25Y-83.75
X151.25Y-85.25
X151.25Y-86.75
X151.25Y-89.5
X151.25Y-91.0
X152.75Y-56.0
X152.75Y-57.5
X152.75Y-59.0
X152.75Y-60.5
X152.75Y-62.0
X152.75Y-64.5
X152.75Y-66.0
X152.75Y-67.5
X152.75Y-80.75
X152.75Y-82.25
X152.75Y-83.75
X152.75Y-85.25
X152.75Y-86.75
X152.75Y-89.5
X152.75Y-91.0
X152.75Y-92.5
X154.25Y-56.0
X154.25Y-57.5
X154.25Y-59.0
X154.25Y-60.5
X154.25Y-62.0
X154.25Y-64.5
X154.25Y-66.0
X154.25Y-67.5
X154.25Y-69.0
X154.25Y-80.75
X154.25Y-82.25
X154.25Y-83.75
X154.25Y-85.25
X154.25Y-86.75
X154.25Y-89.5
X154.25Y-91.0
X154.25Y-92.5
X154.25Y-94.0
X155.75Y-56.0
X155.75Y-57.5
X155.75Y-59.0
X155.75Y-60.5
X155.75Y-62.0
X155.75Y-64.5
X155.75Y-66.0
X155.75Y-67.5
X155.75Y-69.0
X155.75Y-70.5
X155.75Y-80.75
X155.75Y-82.25
X155.75Y-83.75
X155.75Y-85.25
X155.75Y-86.75
X155.75Y-89.5
X155.75Y-91.0
X155.75Y-92.5
X155.75Y-94.0
X155.75Y-95.5
X157.25Y-56.0
X157.25Y-57.5
X157.25Y-59.0
X157.25Y-60.5
X157.25Y-62.0
X157.25Y-64.5
X157.25Y-66.0
X157.25Y-67.5
X157.25Y-69.0
X157.25Y-70.5
X157.25Y-80.75
X157.25Y-82.25
X157.25Y-83.75
X157.25Y-85.25
X157.25Y-86.75
X157.25Y-89.5
X157.25Y-91.0
X157.25Y-92.5
X157.25Y-94.0
X157.25Y-95.5
X158.75Y-56.0
X158.75Y-57.5
X158.75Y-59.0
X158.75Y-60.5
X158.75Y-62.0
X158.75Y-64.5
X158.75Y-66.0
X158.75Y-67.5
X158.75Y-69.0
X158.75Y-70.5
X158.75Y-80.75
X158.75Y-82.25
X158.75Y-83.75
X158.75Y-85.25
X158.75Y-86.75
X158.75Y-89.5
X158.75Y-91.0
X158.75Y-92.5
X158.75Y-94.0
X158.75Y-95.5
X160.25Y-56.0
X160.25Y-70.5
X160.25Y-80.75
X160.25Y-95.5
X161.75Y-70.5
X161.75Y-95.5
X162.75Y-36.5
X162.75Y-38.0
X162.75Y-39.5
X162.75Y-41.0
X163.25Y-70.5
X163.25Y-95.5
X164.25Y-36.5
X164.25Y-38.0
X164.25Y-39.5
X164.25Y-41.0
X165.0Y-57.25
X165.0Y-68.75
X165.0Y-70.75
X165.0Y-82.0
X165.0Y-84.25
X165.75Y-93.5
X165.75Y-95.5
X166.5Y-57.25
X166.5Y-59.5
X166.5Y-68.75
X166.5Y-70.75
X166.5Y-82.0
X166.5Y-84.25
X167.25Y-93.5
X167.25Y-95.5
X168.0Y-57.25
X168.0Y-59.5
X168.0Y-68.75
X168.0Y-70.75
X168.0Y-82.0
X168.0Y-84.25
X168.75Y-93.5
X168.75Y-95.5
X172.5Y-36.5
X172.5Y-38.0
X172.5Y-39.5
X172.5Y-41.0
X180.0Y-36.5
X180.0Y-38.0
X180.0Y-39.5
X180.0Y-41.0
T4
X123.15Y-71.95
X123.15Y-74.45
X123.15Y-76.95
X123.15Y-79.45
X123.25Y-44.0
X123.25Y-46.5
X123.25Y-87.25
X123.25Y-89.75
X123.25Y-92.25
X123.25Y-51.5
X123.25Y-54.0
T5
X156.9Y-39.7
X156.9Y-44.7
T6
X117.0Y-38.0
X117.0Y-101.0
X184.0Y-38.0
X184.0Y-101.0
X116.75Y-89.75
X116.75Y-52.75
X116.65Y-75.7
X116.75Y-45.25
T7
X176.7Y-39.55
X176.7Y-46.55
X162.05Y-59.8
X162.05Y-66.8
X168.1Y-39.55
X168.1Y-46.55
X162.0Y-84.65
X162.0Y-91.65
T0
M30
