G04 #@! TF.GenerationSoftware,KiCad,Pcbnew,(5.1.2)-1*
G04 #@! TF.CreationDate,2019-09-19T23:19:24+09:00*
G04 #@! TF.ProjectId,Slapnir,536c6170-6e69-4722-9e6b-696361645f70,rev?*
G04 #@! TF.SameCoordinates,Original*
G04 #@! TF.FileFunction,Legend,Bot*
G04 #@! TF.FilePolarity,Positive*
%FSLAX46Y46*%
G04 Gerber Fmt 4.6, Leading zero omitted, Abs format (unit mm)*
G04 Created by KiCad (PCBNEW (5.1.2)-1) date 2019-09-19 23:19:24*
%MOMM*%
%LPD*%
G04 APERTURE LIST*
%ADD10C,0.120000*%
%ADD11C,0.150000*%
G04 APERTURE END LIST*
D10*
X120137221Y-46040000D02*
X120462779Y-46040000D01*
X120137221Y-47060000D02*
X120462779Y-47060000D01*
X121790000Y-68241422D02*
X121790000Y-68758578D01*
X123210000Y-68241422D02*
X123210000Y-68758578D01*
X130912779Y-61440000D02*
X130587221Y-61440000D01*
X130912779Y-62460000D02*
X130587221Y-62460000D01*
X130962779Y-74710000D02*
X130637221Y-74710000D01*
X130962779Y-73690000D02*
X130637221Y-73690000D01*
X131012779Y-86960000D02*
X130687221Y-86960000D01*
X131012779Y-85940000D02*
X130687221Y-85940000D01*
X130962779Y-98440000D02*
X130637221Y-98440000D01*
X130962779Y-99460000D02*
X130637221Y-99460000D01*
X163440000Y-42791422D02*
X163440000Y-43308578D01*
X164860000Y-42791422D02*
X164860000Y-43308578D01*
X180760000Y-42791422D02*
X180760000Y-43308578D01*
X179340000Y-42791422D02*
X179340000Y-43308578D01*
X121250000Y-58250000D02*
X119250000Y-58250000D01*
X119250000Y-58250000D02*
X119250000Y-54350000D01*
X121250000Y-58250000D02*
X121250000Y-54350000D01*
X169500000Y-57360000D02*
X168400000Y-57360000D01*
X169500000Y-55550000D02*
X169500000Y-57360000D01*
X171000000Y-55550000D02*
X169500000Y-55550000D01*
X169500000Y-64140000D02*
X164375000Y-64140000D01*
X169500000Y-65950000D02*
X169500000Y-64140000D01*
X171000000Y-65950000D02*
X169500000Y-65950000D01*
X150550000Y-63000000D02*
X149050000Y-63000000D01*
X149050000Y-63000000D02*
X149050000Y-61190000D01*
X149050000Y-61190000D02*
X143925000Y-61190000D01*
X150550000Y-52600000D02*
X149050000Y-52600000D01*
X149050000Y-52600000D02*
X149050000Y-54410000D01*
X149050000Y-54410000D02*
X147950000Y-54410000D01*
X169500000Y-68685000D02*
X168400000Y-68685000D01*
X169500000Y-66875000D02*
X169500000Y-68685000D01*
X171000000Y-66875000D02*
X169500000Y-66875000D01*
X169500000Y-75465000D02*
X164375000Y-75465000D01*
X169500000Y-77275000D02*
X169500000Y-75465000D01*
X171000000Y-77275000D02*
X169500000Y-77275000D01*
X150550000Y-74350000D02*
X149050000Y-74350000D01*
X149050000Y-74350000D02*
X149050000Y-72540000D01*
X149050000Y-72540000D02*
X143925000Y-72540000D01*
X150550000Y-63950000D02*
X149050000Y-63950000D01*
X149050000Y-63950000D02*
X149050000Y-65760000D01*
X149050000Y-65760000D02*
X147950000Y-65760000D01*
X170900000Y-90800000D02*
X169400000Y-90800000D01*
X169400000Y-90800000D02*
X169400000Y-88990000D01*
X169400000Y-88990000D02*
X164275000Y-88990000D01*
X170900000Y-80400000D02*
X169400000Y-80400000D01*
X169400000Y-80400000D02*
X169400000Y-82210000D01*
X169400000Y-82210000D02*
X168300000Y-82210000D01*
X149050000Y-79110000D02*
X147950000Y-79110000D01*
X149050000Y-77300000D02*
X149050000Y-79110000D01*
X150550000Y-77300000D02*
X149050000Y-77300000D01*
X149050000Y-85890000D02*
X143925000Y-85890000D01*
X149050000Y-87700000D02*
X149050000Y-85890000D01*
X150550000Y-87700000D02*
X149050000Y-87700000D01*
X170900000Y-102100000D02*
X169400000Y-102100000D01*
X169400000Y-102100000D02*
X169400000Y-100290000D01*
X169400000Y-100290000D02*
X164275000Y-100290000D01*
X170900000Y-91700000D02*
X169400000Y-91700000D01*
X169400000Y-91700000D02*
X169400000Y-93510000D01*
X169400000Y-93510000D02*
X168300000Y-93510000D01*
X149050000Y-90560000D02*
X147950000Y-90560000D01*
X149050000Y-88750000D02*
X149050000Y-90560000D01*
X150550000Y-88750000D02*
X149050000Y-88750000D01*
X149050000Y-97340000D02*
X143925000Y-97340000D01*
X149050000Y-99150000D02*
X149050000Y-97340000D01*
X150550000Y-99150000D02*
X149050000Y-99150000D01*
X130912779Y-58510000D02*
X130587221Y-58510000D01*
X130912779Y-57490000D02*
X130587221Y-57490000D01*
X130962779Y-69790000D02*
X130637221Y-69790000D01*
X130962779Y-70810000D02*
X130637221Y-70810000D01*
X130962779Y-82040000D02*
X130637221Y-82040000D01*
X130962779Y-83060000D02*
X130637221Y-83060000D01*
X130962779Y-94520000D02*
X130637221Y-94520000D01*
X130962779Y-95540000D02*
X130637221Y-95540000D01*
X130912779Y-58940000D02*
X130587221Y-58940000D01*
X130912779Y-59960000D02*
X130587221Y-59960000D01*
X130962779Y-72260000D02*
X130637221Y-72260000D01*
X130962779Y-71240000D02*
X130637221Y-71240000D01*
X130962779Y-84510000D02*
X130637221Y-84510000D01*
X130962779Y-83490000D02*
X130637221Y-83490000D01*
X130962779Y-95990000D02*
X130637221Y-95990000D01*
X130962779Y-97010000D02*
X130637221Y-97010000D01*
X145612779Y-61740000D02*
X145287221Y-61740000D01*
X145612779Y-62760000D02*
X145287221Y-62760000D01*
X145612779Y-74010000D02*
X145287221Y-74010000D01*
X145612779Y-72990000D02*
X145287221Y-72990000D01*
X145562779Y-87260000D02*
X145237221Y-87260000D01*
X145562779Y-86240000D02*
X145237221Y-86240000D01*
X145562779Y-97740000D02*
X145237221Y-97740000D01*
X145562779Y-98760000D02*
X145237221Y-98760000D01*
X121160000Y-66410000D02*
X119900000Y-66410000D01*
X114340000Y-66410000D02*
X115600000Y-66410000D01*
X121160000Y-62650000D02*
X121160000Y-66410000D01*
X114340000Y-60400000D02*
X114340000Y-66410000D01*
X149550000Y-43820000D02*
X149550000Y-45320000D01*
X149550000Y-45320000D02*
X149280000Y-45320000D01*
X149280000Y-45320000D02*
X149280000Y-48150000D01*
X142650000Y-43820000D02*
X142650000Y-45320000D01*
X142650000Y-45320000D02*
X142920000Y-45320000D01*
X142920000Y-45320000D02*
X142920000Y-46420000D01*
X120828733Y-59760000D02*
X121171267Y-59760000D01*
X120828733Y-58740000D02*
X121171267Y-58740000D01*
X151010000Y-45958578D02*
X151010000Y-45441422D01*
X149590000Y-45958578D02*
X149590000Y-45441422D01*
X143008578Y-49460000D02*
X142491422Y-49460000D01*
X143008578Y-48040000D02*
X142491422Y-48040000D01*
X151500000Y-47450000D02*
X151500000Y-45450000D01*
X151500000Y-45450000D02*
X155400000Y-45450000D01*
X151500000Y-47450000D02*
X155400000Y-47450000D01*
X130912779Y-53560000D02*
X130587221Y-53560000D01*
X130912779Y-52540000D02*
X130587221Y-52540000D01*
X130912779Y-64790000D02*
X130587221Y-64790000D01*
X130912779Y-65810000D02*
X130587221Y-65810000D01*
X130962779Y-78060000D02*
X130637221Y-78060000D01*
X130962779Y-77040000D02*
X130637221Y-77040000D01*
X130962779Y-89540000D02*
X130637221Y-89540000D01*
X130962779Y-90560000D02*
X130637221Y-90560000D01*
D11*
X121514285Y-44572380D02*
X121419047Y-44572380D01*
X121323809Y-44620000D01*
X121276190Y-44667619D01*
X121228571Y-44762857D01*
X121180952Y-44953333D01*
X121180952Y-45191428D01*
X121228571Y-45381904D01*
X121276190Y-45477142D01*
X121323809Y-45524761D01*
X121419047Y-45572380D01*
X121514285Y-45572380D01*
X121609523Y-45524761D01*
X121657142Y-45477142D01*
X121704761Y-45381904D01*
X121752380Y-45191428D01*
X121752380Y-44953333D01*
X121704761Y-44762857D01*
X121657142Y-44667619D01*
X121609523Y-44620000D01*
X121514285Y-44572380D01*
X120752380Y-45477142D02*
X120704761Y-45524761D01*
X120752380Y-45572380D01*
X120800000Y-45524761D01*
X120752380Y-45477142D01*
X120752380Y-45572380D01*
X119752380Y-45572380D02*
X120323809Y-45572380D01*
X120038095Y-45572380D02*
X120038095Y-44572380D01*
X120133333Y-44715238D01*
X120228571Y-44810476D01*
X120323809Y-44858095D01*
X118895238Y-44905714D02*
X118895238Y-45572380D01*
X119323809Y-44905714D02*
X119323809Y-45429523D01*
X119276190Y-45524761D01*
X119180952Y-45572380D01*
X119038095Y-45572380D01*
X118942857Y-45524761D01*
X118895238Y-45477142D01*
X123647619Y-67335714D02*
X123600000Y-67383333D01*
X123552380Y-67478571D01*
X123552380Y-67716666D01*
X123600000Y-67811904D01*
X123647619Y-67859523D01*
X123742857Y-67907142D01*
X123838095Y-67907142D01*
X123980952Y-67859523D01*
X124552380Y-67288095D01*
X124552380Y-67907142D01*
X123647619Y-68288095D02*
X123600000Y-68335714D01*
X123552380Y-68430952D01*
X123552380Y-68669047D01*
X123600000Y-68764285D01*
X123647619Y-68811904D01*
X123742857Y-68859523D01*
X123838095Y-68859523D01*
X123980952Y-68811904D01*
X124552380Y-68240476D01*
X124552380Y-68859523D01*
X123885714Y-69716666D02*
X124552380Y-69716666D01*
X123885714Y-69288095D02*
X124409523Y-69288095D01*
X124504761Y-69335714D01*
X124552380Y-69430952D01*
X124552380Y-69573809D01*
X124504761Y-69669047D01*
X124457142Y-69716666D01*
X128971428Y-61511904D02*
X128895238Y-61511904D01*
X128819047Y-61550000D01*
X128780952Y-61588095D01*
X128742857Y-61664285D01*
X128704761Y-61816666D01*
X128704761Y-62007142D01*
X128742857Y-62159523D01*
X128780952Y-62235714D01*
X128819047Y-62273809D01*
X128895238Y-62311904D01*
X128971428Y-62311904D01*
X129047619Y-62273809D01*
X129085714Y-62235714D01*
X129123809Y-62159523D01*
X129161904Y-62007142D01*
X129161904Y-61816666D01*
X129123809Y-61664285D01*
X129085714Y-61588095D01*
X129047619Y-61550000D01*
X128971428Y-61511904D01*
X128361904Y-62235714D02*
X128323809Y-62273809D01*
X128361904Y-62311904D01*
X128400000Y-62273809D01*
X128361904Y-62235714D01*
X128361904Y-62311904D01*
X127561904Y-62311904D02*
X128019047Y-62311904D01*
X127790476Y-62311904D02*
X127790476Y-61511904D01*
X127866666Y-61626190D01*
X127942857Y-61702380D01*
X128019047Y-61740476D01*
X126876190Y-61778571D02*
X126876190Y-62311904D01*
X127219047Y-61778571D02*
X127219047Y-62197619D01*
X127180952Y-62273809D01*
X127104761Y-62311904D01*
X126990476Y-62311904D01*
X126914285Y-62273809D01*
X126876190Y-62235714D01*
X129071428Y-73761904D02*
X128995238Y-73761904D01*
X128919047Y-73800000D01*
X128880952Y-73838095D01*
X128842857Y-73914285D01*
X128804761Y-74066666D01*
X128804761Y-74257142D01*
X128842857Y-74409523D01*
X128880952Y-74485714D01*
X128919047Y-74523809D01*
X128995238Y-74561904D01*
X129071428Y-74561904D01*
X129147619Y-74523809D01*
X129185714Y-74485714D01*
X129223809Y-74409523D01*
X129261904Y-74257142D01*
X129261904Y-74066666D01*
X129223809Y-73914285D01*
X129185714Y-73838095D01*
X129147619Y-73800000D01*
X129071428Y-73761904D01*
X128461904Y-74485714D02*
X128423809Y-74523809D01*
X128461904Y-74561904D01*
X128500000Y-74523809D01*
X128461904Y-74485714D01*
X128461904Y-74561904D01*
X127661904Y-74561904D02*
X128119047Y-74561904D01*
X127890476Y-74561904D02*
X127890476Y-73761904D01*
X127966666Y-73876190D01*
X128042857Y-73952380D01*
X128119047Y-73990476D01*
X126976190Y-74028571D02*
X126976190Y-74561904D01*
X127319047Y-74028571D02*
X127319047Y-74447619D01*
X127280952Y-74523809D01*
X127204761Y-74561904D01*
X127090476Y-74561904D01*
X127014285Y-74523809D01*
X126976190Y-74485714D01*
X129121428Y-86011904D02*
X129045238Y-86011904D01*
X128969047Y-86050000D01*
X128930952Y-86088095D01*
X128892857Y-86164285D01*
X128854761Y-86316666D01*
X128854761Y-86507142D01*
X128892857Y-86659523D01*
X128930952Y-86735714D01*
X128969047Y-86773809D01*
X129045238Y-86811904D01*
X129121428Y-86811904D01*
X129197619Y-86773809D01*
X129235714Y-86735714D01*
X129273809Y-86659523D01*
X129311904Y-86507142D01*
X129311904Y-86316666D01*
X129273809Y-86164285D01*
X129235714Y-86088095D01*
X129197619Y-86050000D01*
X129121428Y-86011904D01*
X128511904Y-86735714D02*
X128473809Y-86773809D01*
X128511904Y-86811904D01*
X128550000Y-86773809D01*
X128511904Y-86735714D01*
X128511904Y-86811904D01*
X127711904Y-86811904D02*
X128169047Y-86811904D01*
X127940476Y-86811904D02*
X127940476Y-86011904D01*
X128016666Y-86126190D01*
X128092857Y-86202380D01*
X128169047Y-86240476D01*
X127026190Y-86278571D02*
X127026190Y-86811904D01*
X127369047Y-86278571D02*
X127369047Y-86697619D01*
X127330952Y-86773809D01*
X127254761Y-86811904D01*
X127140476Y-86811904D01*
X127064285Y-86773809D01*
X127026190Y-86735714D01*
X129071428Y-98511904D02*
X128995238Y-98511904D01*
X128919047Y-98550000D01*
X128880952Y-98588095D01*
X128842857Y-98664285D01*
X128804761Y-98816666D01*
X128804761Y-99007142D01*
X128842857Y-99159523D01*
X128880952Y-99235714D01*
X128919047Y-99273809D01*
X128995238Y-99311904D01*
X129071428Y-99311904D01*
X129147619Y-99273809D01*
X129185714Y-99235714D01*
X129223809Y-99159523D01*
X129261904Y-99007142D01*
X129261904Y-98816666D01*
X129223809Y-98664285D01*
X129185714Y-98588095D01*
X129147619Y-98550000D01*
X129071428Y-98511904D01*
X128461904Y-99235714D02*
X128423809Y-99273809D01*
X128461904Y-99311904D01*
X128500000Y-99273809D01*
X128461904Y-99235714D01*
X128461904Y-99311904D01*
X127661904Y-99311904D02*
X128119047Y-99311904D01*
X127890476Y-99311904D02*
X127890476Y-98511904D01*
X127966666Y-98626190D01*
X128042857Y-98702380D01*
X128119047Y-98740476D01*
X126976190Y-98778571D02*
X126976190Y-99311904D01*
X127319047Y-98778571D02*
X127319047Y-99197619D01*
X127280952Y-99273809D01*
X127204761Y-99311904D01*
X127090476Y-99311904D01*
X127014285Y-99273809D01*
X126976190Y-99235714D01*
X162385714Y-42073809D02*
X163052380Y-42073809D01*
X162004761Y-41835714D02*
X162719047Y-41597619D01*
X162719047Y-42216666D01*
X162957142Y-42597619D02*
X163004761Y-42645238D01*
X163052380Y-42597619D01*
X163004761Y-42550000D01*
X162957142Y-42597619D01*
X163052380Y-42597619D01*
X162052380Y-42978571D02*
X162052380Y-43645238D01*
X163052380Y-43216666D01*
X162385714Y-44454761D02*
X163052380Y-44454761D01*
X162385714Y-44026190D02*
X162909523Y-44026190D01*
X163004761Y-44073809D01*
X163052380Y-44169047D01*
X163052380Y-44311904D01*
X163004761Y-44407142D01*
X162957142Y-44454761D01*
X181485714Y-42073809D02*
X182152380Y-42073809D01*
X181104761Y-41835714D02*
X181819047Y-41597619D01*
X181819047Y-42216666D01*
X182057142Y-42597619D02*
X182104761Y-42645238D01*
X182152380Y-42597619D01*
X182104761Y-42550000D01*
X182057142Y-42597619D01*
X182152380Y-42597619D01*
X181152380Y-42978571D02*
X181152380Y-43645238D01*
X182152380Y-43216666D01*
X181485714Y-44454761D02*
X182152380Y-44454761D01*
X181485714Y-44026190D02*
X182009523Y-44026190D01*
X182104761Y-44073809D01*
X182152380Y-44169047D01*
X182152380Y-44311904D01*
X182104761Y-44407142D01*
X182057142Y-44454761D01*
X128776190Y-58361904D02*
X129233333Y-58361904D01*
X129004761Y-58361904D02*
X129004761Y-57561904D01*
X129080952Y-57676190D01*
X129157142Y-57752380D01*
X129233333Y-57790476D01*
X128280952Y-57561904D02*
X128204761Y-57561904D01*
X128128571Y-57600000D01*
X128090476Y-57638095D01*
X128052380Y-57714285D01*
X128014285Y-57866666D01*
X128014285Y-58057142D01*
X128052380Y-58209523D01*
X128090476Y-58285714D01*
X128128571Y-58323809D01*
X128204761Y-58361904D01*
X128280952Y-58361904D01*
X128357142Y-58323809D01*
X128395238Y-58285714D01*
X128433333Y-58209523D01*
X128471428Y-58057142D01*
X128471428Y-57866666D01*
X128433333Y-57714285D01*
X128395238Y-57638095D01*
X128357142Y-57600000D01*
X128280952Y-57561904D01*
X127671428Y-58361904D02*
X127671428Y-57561904D01*
X127595238Y-58057142D02*
X127366666Y-58361904D01*
X127366666Y-57828571D02*
X127671428Y-58133333D01*
X128826190Y-70661904D02*
X129283333Y-70661904D01*
X129054761Y-70661904D02*
X129054761Y-69861904D01*
X129130952Y-69976190D01*
X129207142Y-70052380D01*
X129283333Y-70090476D01*
X128330952Y-69861904D02*
X128254761Y-69861904D01*
X128178571Y-69900000D01*
X128140476Y-69938095D01*
X128102380Y-70014285D01*
X128064285Y-70166666D01*
X128064285Y-70357142D01*
X128102380Y-70509523D01*
X128140476Y-70585714D01*
X128178571Y-70623809D01*
X128254761Y-70661904D01*
X128330952Y-70661904D01*
X128407142Y-70623809D01*
X128445238Y-70585714D01*
X128483333Y-70509523D01*
X128521428Y-70357142D01*
X128521428Y-70166666D01*
X128483333Y-70014285D01*
X128445238Y-69938095D01*
X128407142Y-69900000D01*
X128330952Y-69861904D01*
X127721428Y-70661904D02*
X127721428Y-69861904D01*
X127645238Y-70357142D02*
X127416666Y-70661904D01*
X127416666Y-70128571D02*
X127721428Y-70433333D01*
X128826190Y-82911904D02*
X129283333Y-82911904D01*
X129054761Y-82911904D02*
X129054761Y-82111904D01*
X129130952Y-82226190D01*
X129207142Y-82302380D01*
X129283333Y-82340476D01*
X128330952Y-82111904D02*
X128254761Y-82111904D01*
X128178571Y-82150000D01*
X128140476Y-82188095D01*
X128102380Y-82264285D01*
X128064285Y-82416666D01*
X128064285Y-82607142D01*
X128102380Y-82759523D01*
X128140476Y-82835714D01*
X128178571Y-82873809D01*
X128254761Y-82911904D01*
X128330952Y-82911904D01*
X128407142Y-82873809D01*
X128445238Y-82835714D01*
X128483333Y-82759523D01*
X128521428Y-82607142D01*
X128521428Y-82416666D01*
X128483333Y-82264285D01*
X128445238Y-82188095D01*
X128407142Y-82150000D01*
X128330952Y-82111904D01*
X127721428Y-82911904D02*
X127721428Y-82111904D01*
X127645238Y-82607142D02*
X127416666Y-82911904D01*
X127416666Y-82378571D02*
X127721428Y-82683333D01*
X128826190Y-95361904D02*
X129283333Y-95361904D01*
X129054761Y-95361904D02*
X129054761Y-94561904D01*
X129130952Y-94676190D01*
X129207142Y-94752380D01*
X129283333Y-94790476D01*
X128330952Y-94561904D02*
X128254761Y-94561904D01*
X128178571Y-94600000D01*
X128140476Y-94638095D01*
X128102380Y-94714285D01*
X128064285Y-94866666D01*
X128064285Y-95057142D01*
X128102380Y-95209523D01*
X128140476Y-95285714D01*
X128178571Y-95323809D01*
X128254761Y-95361904D01*
X128330952Y-95361904D01*
X128407142Y-95323809D01*
X128445238Y-95285714D01*
X128483333Y-95209523D01*
X128521428Y-95057142D01*
X128521428Y-94866666D01*
X128483333Y-94714285D01*
X128445238Y-94638095D01*
X128407142Y-94600000D01*
X128330952Y-94561904D01*
X127721428Y-95361904D02*
X127721428Y-94561904D01*
X127645238Y-95057142D02*
X127416666Y-95361904D01*
X127416666Y-94828571D02*
X127721428Y-95133333D01*
X128807142Y-59811904D02*
X129264285Y-59811904D01*
X129035714Y-59811904D02*
X129035714Y-59011904D01*
X129111904Y-59126190D01*
X129188095Y-59202380D01*
X129264285Y-59240476D01*
X128311904Y-59011904D02*
X128235714Y-59011904D01*
X128159523Y-59050000D01*
X128121428Y-59088095D01*
X128083333Y-59164285D01*
X128045238Y-59316666D01*
X128045238Y-59507142D01*
X128083333Y-59659523D01*
X128121428Y-59735714D01*
X128159523Y-59773809D01*
X128235714Y-59811904D01*
X128311904Y-59811904D01*
X128388095Y-59773809D01*
X128426190Y-59735714D01*
X128464285Y-59659523D01*
X128502380Y-59507142D01*
X128502380Y-59316666D01*
X128464285Y-59164285D01*
X128426190Y-59088095D01*
X128388095Y-59050000D01*
X128311904Y-59011904D01*
X127550000Y-59011904D02*
X127473809Y-59011904D01*
X127397619Y-59050000D01*
X127359523Y-59088095D01*
X127321428Y-59164285D01*
X127283333Y-59316666D01*
X127283333Y-59507142D01*
X127321428Y-59659523D01*
X127359523Y-59735714D01*
X127397619Y-59773809D01*
X127473809Y-59811904D01*
X127550000Y-59811904D01*
X127626190Y-59773809D01*
X127664285Y-59735714D01*
X127702380Y-59659523D01*
X127740476Y-59507142D01*
X127740476Y-59316666D01*
X127702380Y-59164285D01*
X127664285Y-59088095D01*
X127626190Y-59050000D01*
X127550000Y-59011904D01*
X126940476Y-59811904D02*
X126940476Y-59011904D01*
X126864285Y-59507142D02*
X126635714Y-59811904D01*
X126635714Y-59278571D02*
X126940476Y-59583333D01*
X128807142Y-72111904D02*
X129264285Y-72111904D01*
X129035714Y-72111904D02*
X129035714Y-71311904D01*
X129111904Y-71426190D01*
X129188095Y-71502380D01*
X129264285Y-71540476D01*
X128311904Y-71311904D02*
X128235714Y-71311904D01*
X128159523Y-71350000D01*
X128121428Y-71388095D01*
X128083333Y-71464285D01*
X128045238Y-71616666D01*
X128045238Y-71807142D01*
X128083333Y-71959523D01*
X128121428Y-72035714D01*
X128159523Y-72073809D01*
X128235714Y-72111904D01*
X128311904Y-72111904D01*
X128388095Y-72073809D01*
X128426190Y-72035714D01*
X128464285Y-71959523D01*
X128502380Y-71807142D01*
X128502380Y-71616666D01*
X128464285Y-71464285D01*
X128426190Y-71388095D01*
X128388095Y-71350000D01*
X128311904Y-71311904D01*
X127550000Y-71311904D02*
X127473809Y-71311904D01*
X127397619Y-71350000D01*
X127359523Y-71388095D01*
X127321428Y-71464285D01*
X127283333Y-71616666D01*
X127283333Y-71807142D01*
X127321428Y-71959523D01*
X127359523Y-72035714D01*
X127397619Y-72073809D01*
X127473809Y-72111904D01*
X127550000Y-72111904D01*
X127626190Y-72073809D01*
X127664285Y-72035714D01*
X127702380Y-71959523D01*
X127740476Y-71807142D01*
X127740476Y-71616666D01*
X127702380Y-71464285D01*
X127664285Y-71388095D01*
X127626190Y-71350000D01*
X127550000Y-71311904D01*
X126940476Y-72111904D02*
X126940476Y-71311904D01*
X126864285Y-71807142D02*
X126635714Y-72111904D01*
X126635714Y-71578571D02*
X126940476Y-71883333D01*
X128857142Y-84361904D02*
X129314285Y-84361904D01*
X129085714Y-84361904D02*
X129085714Y-83561904D01*
X129161904Y-83676190D01*
X129238095Y-83752380D01*
X129314285Y-83790476D01*
X128361904Y-83561904D02*
X128285714Y-83561904D01*
X128209523Y-83600000D01*
X128171428Y-83638095D01*
X128133333Y-83714285D01*
X128095238Y-83866666D01*
X128095238Y-84057142D01*
X128133333Y-84209523D01*
X128171428Y-84285714D01*
X128209523Y-84323809D01*
X128285714Y-84361904D01*
X128361904Y-84361904D01*
X128438095Y-84323809D01*
X128476190Y-84285714D01*
X128514285Y-84209523D01*
X128552380Y-84057142D01*
X128552380Y-83866666D01*
X128514285Y-83714285D01*
X128476190Y-83638095D01*
X128438095Y-83600000D01*
X128361904Y-83561904D01*
X127600000Y-83561904D02*
X127523809Y-83561904D01*
X127447619Y-83600000D01*
X127409523Y-83638095D01*
X127371428Y-83714285D01*
X127333333Y-83866666D01*
X127333333Y-84057142D01*
X127371428Y-84209523D01*
X127409523Y-84285714D01*
X127447619Y-84323809D01*
X127523809Y-84361904D01*
X127600000Y-84361904D01*
X127676190Y-84323809D01*
X127714285Y-84285714D01*
X127752380Y-84209523D01*
X127790476Y-84057142D01*
X127790476Y-83866666D01*
X127752380Y-83714285D01*
X127714285Y-83638095D01*
X127676190Y-83600000D01*
X127600000Y-83561904D01*
X126990476Y-84361904D02*
X126990476Y-83561904D01*
X126914285Y-84057142D02*
X126685714Y-84361904D01*
X126685714Y-83828571D02*
X126990476Y-84133333D01*
X128807142Y-96861904D02*
X129264285Y-96861904D01*
X129035714Y-96861904D02*
X129035714Y-96061904D01*
X129111904Y-96176190D01*
X129188095Y-96252380D01*
X129264285Y-96290476D01*
X128311904Y-96061904D02*
X128235714Y-96061904D01*
X128159523Y-96100000D01*
X128121428Y-96138095D01*
X128083333Y-96214285D01*
X128045238Y-96366666D01*
X128045238Y-96557142D01*
X128083333Y-96709523D01*
X128121428Y-96785714D01*
X128159523Y-96823809D01*
X128235714Y-96861904D01*
X128311904Y-96861904D01*
X128388095Y-96823809D01*
X128426190Y-96785714D01*
X128464285Y-96709523D01*
X128502380Y-96557142D01*
X128502380Y-96366666D01*
X128464285Y-96214285D01*
X128426190Y-96138095D01*
X128388095Y-96100000D01*
X128311904Y-96061904D01*
X127550000Y-96061904D02*
X127473809Y-96061904D01*
X127397619Y-96100000D01*
X127359523Y-96138095D01*
X127321428Y-96214285D01*
X127283333Y-96366666D01*
X127283333Y-96557142D01*
X127321428Y-96709523D01*
X127359523Y-96785714D01*
X127397619Y-96823809D01*
X127473809Y-96861904D01*
X127550000Y-96861904D01*
X127626190Y-96823809D01*
X127664285Y-96785714D01*
X127702380Y-96709523D01*
X127740476Y-96557142D01*
X127740476Y-96366666D01*
X127702380Y-96214285D01*
X127664285Y-96138095D01*
X127626190Y-96100000D01*
X127550000Y-96061904D01*
X126940476Y-96861904D02*
X126940476Y-96061904D01*
X126864285Y-96557142D02*
X126635714Y-96861904D01*
X126635714Y-96328571D02*
X126940476Y-96633333D01*
X145783333Y-63132380D02*
X145164285Y-63132380D01*
X145497619Y-63513333D01*
X145354761Y-63513333D01*
X145259523Y-63560952D01*
X145211904Y-63608571D01*
X145164285Y-63703809D01*
X145164285Y-63941904D01*
X145211904Y-64037142D01*
X145259523Y-64084761D01*
X145354761Y-64132380D01*
X145640476Y-64132380D01*
X145735714Y-64084761D01*
X145783333Y-64037142D01*
X145716666Y-74491904D02*
X145221428Y-74491904D01*
X145488095Y-74796666D01*
X145373809Y-74796666D01*
X145297619Y-74834761D01*
X145259523Y-74872857D01*
X145221428Y-74949047D01*
X145221428Y-75139523D01*
X145259523Y-75215714D01*
X145297619Y-75253809D01*
X145373809Y-75291904D01*
X145602380Y-75291904D01*
X145678571Y-75253809D01*
X145716666Y-75215714D01*
X145733333Y-87632380D02*
X145114285Y-87632380D01*
X145447619Y-88013333D01*
X145304761Y-88013333D01*
X145209523Y-88060952D01*
X145161904Y-88108571D01*
X145114285Y-88203809D01*
X145114285Y-88441904D01*
X145161904Y-88537142D01*
X145209523Y-88584761D01*
X145304761Y-88632380D01*
X145590476Y-88632380D01*
X145685714Y-88584761D01*
X145733333Y-88537142D01*
X145733333Y-99132380D02*
X145114285Y-99132380D01*
X145447619Y-99513333D01*
X145304761Y-99513333D01*
X145209523Y-99560952D01*
X145161904Y-99608571D01*
X145114285Y-99703809D01*
X145114285Y-99941904D01*
X145161904Y-100037142D01*
X145209523Y-100084761D01*
X145304761Y-100132380D01*
X145590476Y-100132380D01*
X145685714Y-100084761D01*
X145733333Y-100037142D01*
X120264285Y-64633333D02*
X119883333Y-64633333D01*
X120340476Y-64861904D02*
X120073809Y-64061904D01*
X119807142Y-64861904D01*
X119616666Y-64061904D02*
X119083333Y-64061904D01*
X119616666Y-64861904D01*
X119083333Y-64861904D01*
X118359523Y-64861904D02*
X118816666Y-64861904D01*
X118588095Y-64861904D02*
X118588095Y-64061904D01*
X118664285Y-64176190D01*
X118740476Y-64252380D01*
X118816666Y-64290476D01*
X117864285Y-64061904D02*
X117788095Y-64061904D01*
X117711904Y-64100000D01*
X117673809Y-64138095D01*
X117635714Y-64214285D01*
X117597619Y-64366666D01*
X117597619Y-64557142D01*
X117635714Y-64709523D01*
X117673809Y-64785714D01*
X117711904Y-64823809D01*
X117788095Y-64861904D01*
X117864285Y-64861904D01*
X117940476Y-64823809D01*
X117978571Y-64785714D01*
X118016666Y-64709523D01*
X118054761Y-64557142D01*
X118054761Y-64366666D01*
X118016666Y-64214285D01*
X117978571Y-64138095D01*
X117940476Y-64100000D01*
X117864285Y-64061904D01*
X117140476Y-64404761D02*
X117216666Y-64366666D01*
X117254761Y-64328571D01*
X117292857Y-64252380D01*
X117292857Y-64214285D01*
X117254761Y-64138095D01*
X117216666Y-64100000D01*
X117140476Y-64061904D01*
X116988095Y-64061904D01*
X116911904Y-64100000D01*
X116873809Y-64138095D01*
X116835714Y-64214285D01*
X116835714Y-64252380D01*
X116873809Y-64328571D01*
X116911904Y-64366666D01*
X116988095Y-64404761D01*
X117140476Y-64404761D01*
X117216666Y-64442857D01*
X117254761Y-64480952D01*
X117292857Y-64557142D01*
X117292857Y-64709523D01*
X117254761Y-64785714D01*
X117216666Y-64823809D01*
X117140476Y-64861904D01*
X116988095Y-64861904D01*
X116911904Y-64823809D01*
X116873809Y-64785714D01*
X116835714Y-64709523D01*
X116835714Y-64557142D01*
X116873809Y-64480952D01*
X116911904Y-64442857D01*
X116988095Y-64404761D01*
X116150000Y-64061904D02*
X116302380Y-64061904D01*
X116378571Y-64100000D01*
X116416666Y-64138095D01*
X116492857Y-64252380D01*
X116530952Y-64404761D01*
X116530952Y-64709523D01*
X116492857Y-64785714D01*
X116454761Y-64823809D01*
X116378571Y-64861904D01*
X116226190Y-64861904D01*
X116150000Y-64823809D01*
X116111904Y-64785714D01*
X116073809Y-64709523D01*
X116073809Y-64519047D01*
X116111904Y-64442857D01*
X116150000Y-64404761D01*
X116226190Y-64366666D01*
X116378571Y-64366666D01*
X116454761Y-64404761D01*
X116492857Y-64442857D01*
X116530952Y-64519047D01*
X115730952Y-64861904D02*
X115730952Y-64061904D01*
X115730952Y-64442857D02*
X115273809Y-64442857D01*
X115273809Y-64861904D02*
X115273809Y-64061904D01*
X147376190Y-45311904D02*
X147757142Y-45311904D01*
X147757142Y-44511904D01*
X147185714Y-44511904D02*
X146652380Y-44511904D01*
X146995238Y-45311904D01*
X146233333Y-44854761D02*
X146309523Y-44816666D01*
X146347619Y-44778571D01*
X146385714Y-44702380D01*
X146385714Y-44664285D01*
X146347619Y-44588095D01*
X146309523Y-44550000D01*
X146233333Y-44511904D01*
X146080952Y-44511904D01*
X146004761Y-44550000D01*
X145966666Y-44588095D01*
X145928571Y-44664285D01*
X145928571Y-44702380D01*
X145966666Y-44778571D01*
X146004761Y-44816666D01*
X146080952Y-44854761D01*
X146233333Y-44854761D01*
X146309523Y-44892857D01*
X146347619Y-44930952D01*
X146385714Y-45007142D01*
X146385714Y-45159523D01*
X146347619Y-45235714D01*
X146309523Y-45273809D01*
X146233333Y-45311904D01*
X146080952Y-45311904D01*
X146004761Y-45273809D01*
X145966666Y-45235714D01*
X145928571Y-45159523D01*
X145928571Y-45007142D01*
X145966666Y-44930952D01*
X146004761Y-44892857D01*
X146080952Y-44854761D01*
X145166666Y-45311904D02*
X145623809Y-45311904D01*
X145395238Y-45311904D02*
X145395238Y-44511904D01*
X145471428Y-44626190D01*
X145547619Y-44702380D01*
X145623809Y-44740476D01*
X144861904Y-44588095D02*
X144823809Y-44550000D01*
X144747619Y-44511904D01*
X144557142Y-44511904D01*
X144480952Y-44550000D01*
X144442857Y-44588095D01*
X144404761Y-44664285D01*
X144404761Y-44740476D01*
X144442857Y-44854761D01*
X144900000Y-45311904D01*
X144404761Y-45311904D01*
X124642857Y-59702380D02*
X125214285Y-59702380D01*
X124928571Y-59702380D02*
X124928571Y-58702380D01*
X125023809Y-58845238D01*
X125119047Y-58940476D01*
X125214285Y-58988095D01*
X124023809Y-58702380D02*
X123928571Y-58702380D01*
X123833333Y-58750000D01*
X123785714Y-58797619D01*
X123738095Y-58892857D01*
X123690476Y-59083333D01*
X123690476Y-59321428D01*
X123738095Y-59511904D01*
X123785714Y-59607142D01*
X123833333Y-59654761D01*
X123928571Y-59702380D01*
X124023809Y-59702380D01*
X124119047Y-59654761D01*
X124166666Y-59607142D01*
X124214285Y-59511904D01*
X124261904Y-59321428D01*
X124261904Y-59083333D01*
X124214285Y-58892857D01*
X124166666Y-58797619D01*
X124119047Y-58750000D01*
X124023809Y-58702380D01*
X122833333Y-59035714D02*
X122833333Y-59702380D01*
X123261904Y-59035714D02*
X123261904Y-59559523D01*
X123214285Y-59654761D01*
X123119047Y-59702380D01*
X122976190Y-59702380D01*
X122880952Y-59654761D01*
X122833333Y-59607142D01*
X150661904Y-42485714D02*
X150661904Y-42028571D01*
X150661904Y-42257142D02*
X149861904Y-42257142D01*
X149976190Y-42180952D01*
X150052380Y-42104761D01*
X150090476Y-42028571D01*
X149861904Y-42980952D02*
X149861904Y-43057142D01*
X149900000Y-43133333D01*
X149938095Y-43171428D01*
X150014285Y-43209523D01*
X150166666Y-43247619D01*
X150357142Y-43247619D01*
X150509523Y-43209523D01*
X150585714Y-43171428D01*
X150623809Y-43133333D01*
X150661904Y-43057142D01*
X150661904Y-42980952D01*
X150623809Y-42904761D01*
X150585714Y-42866666D01*
X150509523Y-42828571D01*
X150357142Y-42790476D01*
X150166666Y-42790476D01*
X150014285Y-42828571D01*
X149938095Y-42866666D01*
X149900000Y-42904761D01*
X149861904Y-42980952D01*
X150128571Y-43933333D02*
X150661904Y-43933333D01*
X150128571Y-43590476D02*
X150547619Y-43590476D01*
X150623809Y-43628571D01*
X150661904Y-43704761D01*
X150661904Y-43819047D01*
X150623809Y-43895238D01*
X150585714Y-43933333D01*
X146392857Y-49202380D02*
X146964285Y-49202380D01*
X146678571Y-49202380D02*
X146678571Y-48202380D01*
X146773809Y-48345238D01*
X146869047Y-48440476D01*
X146964285Y-48488095D01*
X145773809Y-48202380D02*
X145678571Y-48202380D01*
X145583333Y-48250000D01*
X145535714Y-48297619D01*
X145488095Y-48392857D01*
X145440476Y-48583333D01*
X145440476Y-48821428D01*
X145488095Y-49011904D01*
X145535714Y-49107142D01*
X145583333Y-49154761D01*
X145678571Y-49202380D01*
X145773809Y-49202380D01*
X145869047Y-49154761D01*
X145916666Y-49107142D01*
X145964285Y-49011904D01*
X146011904Y-48821428D01*
X146011904Y-48583333D01*
X145964285Y-48392857D01*
X145916666Y-48297619D01*
X145869047Y-48250000D01*
X145773809Y-48202380D01*
X144583333Y-48535714D02*
X144583333Y-49202380D01*
X145011904Y-48535714D02*
X145011904Y-49059523D01*
X144964285Y-49154761D01*
X144869047Y-49202380D01*
X144726190Y-49202380D01*
X144630952Y-49154761D01*
X144583333Y-49107142D01*
X154964285Y-48902380D02*
X154964285Y-47902380D01*
X154726190Y-47902380D01*
X154583333Y-47950000D01*
X154488095Y-48045238D01*
X154440476Y-48140476D01*
X154392857Y-48330952D01*
X154392857Y-48473809D01*
X154440476Y-48664285D01*
X154488095Y-48759523D01*
X154583333Y-48854761D01*
X154726190Y-48902380D01*
X154964285Y-48902380D01*
X153440476Y-48902380D02*
X154011904Y-48902380D01*
X153726190Y-48902380D02*
X153726190Y-47902380D01*
X153821428Y-48045238D01*
X153916666Y-48140476D01*
X154011904Y-48188095D01*
X152869047Y-48330952D02*
X152964285Y-48283333D01*
X153011904Y-48235714D01*
X153059523Y-48140476D01*
X153059523Y-48092857D01*
X153011904Y-47997619D01*
X152964285Y-47950000D01*
X152869047Y-47902380D01*
X152678571Y-47902380D01*
X152583333Y-47950000D01*
X152535714Y-47997619D01*
X152488095Y-48092857D01*
X152488095Y-48140476D01*
X152535714Y-48235714D01*
X152583333Y-48283333D01*
X152678571Y-48330952D01*
X152869047Y-48330952D01*
X152964285Y-48378571D01*
X153011904Y-48426190D01*
X153059523Y-48521428D01*
X153059523Y-48711904D01*
X153011904Y-48807142D01*
X152964285Y-48854761D01*
X152869047Y-48902380D01*
X152678571Y-48902380D01*
X152583333Y-48854761D01*
X152535714Y-48807142D01*
X152488095Y-48711904D01*
X152488095Y-48521428D01*
X152535714Y-48426190D01*
X152583333Y-48378571D01*
X152678571Y-48330952D01*
X128776190Y-53411904D02*
X129233333Y-53411904D01*
X129004761Y-53411904D02*
X129004761Y-52611904D01*
X129080952Y-52726190D01*
X129157142Y-52802380D01*
X129233333Y-52840476D01*
X128280952Y-52611904D02*
X128204761Y-52611904D01*
X128128571Y-52650000D01*
X128090476Y-52688095D01*
X128052380Y-52764285D01*
X128014285Y-52916666D01*
X128014285Y-53107142D01*
X128052380Y-53259523D01*
X128090476Y-53335714D01*
X128128571Y-53373809D01*
X128204761Y-53411904D01*
X128280952Y-53411904D01*
X128357142Y-53373809D01*
X128395238Y-53335714D01*
X128433333Y-53259523D01*
X128471428Y-53107142D01*
X128471428Y-52916666D01*
X128433333Y-52764285D01*
X128395238Y-52688095D01*
X128357142Y-52650000D01*
X128280952Y-52611904D01*
X127671428Y-53411904D02*
X127671428Y-52611904D01*
X127595238Y-53107142D02*
X127366666Y-53411904D01*
X127366666Y-52878571D02*
X127671428Y-53183333D01*
X128776190Y-65661904D02*
X129233333Y-65661904D01*
X129004761Y-65661904D02*
X129004761Y-64861904D01*
X129080952Y-64976190D01*
X129157142Y-65052380D01*
X129233333Y-65090476D01*
X128280952Y-64861904D02*
X128204761Y-64861904D01*
X128128571Y-64900000D01*
X128090476Y-64938095D01*
X128052380Y-65014285D01*
X128014285Y-65166666D01*
X128014285Y-65357142D01*
X128052380Y-65509523D01*
X128090476Y-65585714D01*
X128128571Y-65623809D01*
X128204761Y-65661904D01*
X128280952Y-65661904D01*
X128357142Y-65623809D01*
X128395238Y-65585714D01*
X128433333Y-65509523D01*
X128471428Y-65357142D01*
X128471428Y-65166666D01*
X128433333Y-65014285D01*
X128395238Y-64938095D01*
X128357142Y-64900000D01*
X128280952Y-64861904D01*
X127671428Y-65661904D02*
X127671428Y-64861904D01*
X127595238Y-65357142D02*
X127366666Y-65661904D01*
X127366666Y-65128571D02*
X127671428Y-65433333D01*
X128826190Y-77911904D02*
X129283333Y-77911904D01*
X129054761Y-77911904D02*
X129054761Y-77111904D01*
X129130952Y-77226190D01*
X129207142Y-77302380D01*
X129283333Y-77340476D01*
X128330952Y-77111904D02*
X128254761Y-77111904D01*
X128178571Y-77150000D01*
X128140476Y-77188095D01*
X128102380Y-77264285D01*
X128064285Y-77416666D01*
X128064285Y-77607142D01*
X128102380Y-77759523D01*
X128140476Y-77835714D01*
X128178571Y-77873809D01*
X128254761Y-77911904D01*
X128330952Y-77911904D01*
X128407142Y-77873809D01*
X128445238Y-77835714D01*
X128483333Y-77759523D01*
X128521428Y-77607142D01*
X128521428Y-77416666D01*
X128483333Y-77264285D01*
X128445238Y-77188095D01*
X128407142Y-77150000D01*
X128330952Y-77111904D01*
X127721428Y-77911904D02*
X127721428Y-77111904D01*
X127645238Y-77607142D02*
X127416666Y-77911904D01*
X127416666Y-77378571D02*
X127721428Y-77683333D01*
X128826190Y-90411904D02*
X129283333Y-90411904D01*
X129054761Y-90411904D02*
X129054761Y-89611904D01*
X129130952Y-89726190D01*
X129207142Y-89802380D01*
X129283333Y-89840476D01*
X128330952Y-89611904D02*
X128254761Y-89611904D01*
X128178571Y-89650000D01*
X128140476Y-89688095D01*
X128102380Y-89764285D01*
X128064285Y-89916666D01*
X128064285Y-90107142D01*
X128102380Y-90259523D01*
X128140476Y-90335714D01*
X128178571Y-90373809D01*
X128254761Y-90411904D01*
X128330952Y-90411904D01*
X128407142Y-90373809D01*
X128445238Y-90335714D01*
X128483333Y-90259523D01*
X128521428Y-90107142D01*
X128521428Y-89916666D01*
X128483333Y-89764285D01*
X128445238Y-89688095D01*
X128407142Y-89650000D01*
X128330952Y-89611904D01*
X127721428Y-90411904D02*
X127721428Y-89611904D01*
X127645238Y-90107142D02*
X127416666Y-90411904D01*
X127416666Y-89878571D02*
X127721428Y-90183333D01*
M02*
