M48
; DRILL file {KiCad (5.1.4)-1} date 2019/10/16 10:14:36
; FORMAT={-:-/ absolute / metric / decimal}
; #@! TF.CreationDate,2019-10-16T10:14:36+09:00
; #@! TF.GenerationSoftware,Kicad,Pcbnew,(5.1.4)-1
FMAT,2
METRIC
T1C0.700
T2C0.750
T3C0.800
T4C0.900
T5C1.000
T6C1.100
T7C3.000
T8C4.500
%
G90
G05
T1
X129.13Y-99.25
X136.75Y-99.25
X128.63Y-110.5
X136.25Y-110.5
T2
X128.7Y-112.9
X136.32Y-112.9
T3
X146.75Y-84.5
X150.25Y-84.5
T4
X150.46Y-108.8
X153.0Y-108.8
T5
X104.25Y-98.75
X104.25Y-101.25
T6
X125.5Y-91.71
X125.5Y-94.25
X125.5Y-96.79
X139.5Y-91.71
X139.5Y-94.25
X139.5Y-96.79
X125.5Y-102.96
X125.5Y-105.5
X125.5Y-108.04
X139.5Y-102.96
X139.5Y-105.5
X139.5Y-108.04
T7
X98.0Y-83.25
X98.0Y-113.0
X156.0Y-83.0
X156.0Y-113.0
X97.75Y-100.0
X132.5Y-94.25
X132.5Y-105.5
T8
X146.75Y-102.0
X153.75Y-102.0
X146.75Y-93.25
X153.75Y-93.25
T0
M30
