M48
; DRILL file {KiCad (5.1.5)-3} date 2020/03/19 0:28:35
; FORMAT={-:-/ absolute / metric / decimal}
; #@! TF.CreationDate,2020-03-19T00:28:35+09:00
; #@! TF.GenerationSoftware,Kicad,Pcbnew,(5.1.5)-3
; #@! TF.FileFunction,Plated,1,2,PTH
FMAT,2
METRIC
T1C0.300
T2C0.400
T3C0.700
T4C0.750
T5C0.762
T6C0.800
T7C0.813
T8C1.000
T9C2.000
T10C2.499
T11C2.500
T12C3.000
T13C4.500
%
G90
G05
T1
X183.55Y-97.6
X183.55Y-108.55
X184.75Y-116.65
X186.75Y-96.25
X187.1Y-112.58
X187.65Y-111.92
X187.75Y-108.95
X187.75Y-110.35
X189.35Y-108.95
X189.35Y-110.35
X189.919Y-98.354
X190.5Y-94.0
X191.28Y-97.7
X191.445Y-82.35
X191.95Y-99.4
X192.6Y-97.15
X192.95Y-98.85
X193.45Y-110.5
X194.21Y-89.27
X194.72Y-94.7
X195.25Y-96.33
X195.4Y-76.67
X195.55Y-89.99
X195.55Y-94.36
X195.65Y-105.95
X196.1Y-88.1
X196.25Y-106.6
X196.28Y-94.36
X196.69Y-96.6
X197.17Y-82.85
X197.23Y-78.41
X197.269Y-96.19
X197.8Y-108.35
X197.9Y-94.36
X197.95Y-76.71
X198.674Y-94.36
X198.75Y-103.55
X199.25Y-101.2
X199.703Y-97.227
X200.158Y-96.636
X200.4Y-109.9
X201.13Y-94.49
X201.17Y-100.25
X201.248Y-99.551
X202.05Y-106.7
X202.407Y-95.75
X202.675Y-100.175
X202.751Y-94.55
X202.899Y-96.248
X203.143Y-99.625
X203.25Y-110.0
X203.62Y-110.78
X203.67Y-95.426
X203.75Y-90.29
X203.79Y-102.71
X204.363Y-107.823
X204.488Y-101.25
X204.776Y-99.601
X204.82Y-94.55
X204.821Y-96.434
X204.9Y-106.1
X205.131Y-98.991
X205.464Y-101.91
X205.5Y-94.0
X205.878Y-101.11
X205.9Y-105.1
X206.02Y-90.15
X206.231Y-99.53
X206.31Y-82.29
X206.65Y-96.35
X206.95Y-104.1
X207.19Y-97.02
X207.55Y-101.5
X208.347Y-103.977
X208.36Y-108.92
X208.671Y-98.41
X209.14Y-88.97
X209.19Y-109.48
X209.26Y-108.29
X209.3Y-107.2
X209.361Y-98.64
X209.5Y-110.2
X209.685Y-103.74
X209.871Y-98.08
X210.45Y-91.1
X210.49Y-99.04
X210.58Y-102.272
X210.822Y-107.746
X210.84Y-109.47
X211.1Y-94.65
X211.189Y-89.402
X211.5Y-77.05
X211.88Y-89.29
X212.25Y-79.3
X212.286Y-94.91
X212.5Y-101.75
X213.0Y-94.36
X213.226Y-99.426
X213.25Y-111.42
X213.35Y-107.26
X213.5Y-101.75
X214.62Y-105.25
X214.95Y-111.35
X215.05Y-105.867
X215.85Y-118.1
X216.39Y-94.7
X216.8Y-111.72
X216.829Y-99.651
X216.89Y-100.49
X217.33Y-112.24
X217.7Y-105.65
X217.755Y-106.9
X218.2Y-105.1
X218.25Y-110.6
X218.55Y-106.35
X218.71Y-99.93
X219.1Y-107.3
X219.4Y-108.0
X219.464Y-94.76
X219.65Y-93.6
X219.748Y-112.739
X219.91Y-109.523
X219.95Y-102.4
X220.2Y-106.2
X220.588Y-109.35
X220.65Y-103.0
X220.728Y-106.722
X221.323Y-105.195
X221.816Y-109.404
X222.15Y-105.15
X222.376Y-109.825
X223.15Y-109.79
X224.15Y-88.8
X224.5Y-107.35
X224.63Y-112.71
X225.2Y-102.35
X225.87Y-92.95
X225.9Y-102.9
X226.4Y-108.55
X227.0Y-119.25
X227.0Y-121.5
X230.2Y-98.25
X233.95Y-98.25
X234.325Y-92.75
T2
X167.75Y-97.25
X167.75Y-101.0
X167.75Y-105.0
X167.75Y-108.75
X167.75Y-112.75
X167.75Y-117.25
X167.75Y-122.5
X171.25Y-122.0
X172.25Y-97.25
X172.25Y-101.0
X172.25Y-105.0
X172.25Y-108.75
X172.25Y-112.75
X172.25Y-117.25
X173.25Y-128.0
X173.75Y-124.5
X174.75Y-109.0
X176.5Y-97.25
X177.25Y-109.0
X177.75Y-121.25
X177.75Y-128.0
X178.25Y-103.0
X179.5Y-108.25
X179.75Y-114.5
X180.5Y-105.75
X181.75Y-122.0
X181.75Y-125.25
X181.75Y-128.25
X182.5Y-99.25
X182.5Y-102.25
X182.5Y-111.0
X182.5Y-114.5
X184.75Y-128.25
X185.0Y-124.0
X186.5Y-97.5
X186.5Y-99.5
X186.5Y-101.25
X186.5Y-103.0
X186.5Y-104.75
X186.5Y-106.5
X186.5Y-113.5
X188.0Y-125.0
X188.25Y-96.5
X188.25Y-128.25
X189.0Y-100.75
X189.0Y-103.25
X189.0Y-105.75
X189.25Y-111.75
X190.548Y-88.514
X190.55Y-89.7
X191.25Y-123.5
X191.439Y-87.35
X191.5Y-91.63
X191.5Y-96.5
X191.5Y-121.75
X191.75Y-115.5
X191.75Y-124.75
X191.75Y-128.25
X192.75Y-101.25
X192.75Y-104.25
X193.275Y-96.4
X193.74Y-82.42
X194.0Y-117.25
X194.25Y-72.0
X195.23Y-88.58
X195.25Y-123.75
X195.25Y-128.25
X195.61Y-79.11
X195.7Y-101.2
X196.46Y-71.35
X196.46Y-74.67
X196.55Y-80.25
X196.65Y-103.6
X196.75Y-116.5
X196.85Y-84.7
X197.75Y-90.75
X198.03Y-88.54
X198.35Y-79.11
X199.0Y-124.75
X199.0Y-128.25
X199.048Y-88.319
X199.25Y-104.75
X201.0Y-106.5
X201.375Y-104.7
X201.5Y-102.25
X201.5Y-118.5
X201.5Y-121.5
X202.5Y-124.75
X202.5Y-128.25
X203.0Y-118.5
X203.0Y-121.5
X204.61Y-89.43
X205.35Y-88.6
X205.5Y-128.25
X206.27Y-92.85
X207.434Y-102.342
X207.55Y-109.3
X208.15Y-91.24
X208.5Y-128.25
X208.576Y-82.376
X209.0Y-72.0
X209.11Y-95.91
X209.2Y-86.6
X209.67Y-82.39
X209.85Y-94.729
X210.25Y-79.75
X210.35Y-124.1
X211.25Y-128.25
X212.05Y-113.9
X212.5Y-116.9
X212.65Y-71.35
X212.65Y-76.8
X212.71Y-105.91
X213.01Y-90.89
X213.15Y-80.2
X213.42Y-84.33
X213.79Y-95.03
X214.9Y-116.15
X214.95Y-92.13
X215.25Y-128.25
X215.9Y-111.65
X216.05Y-119.85
X218.5Y-96.18
X219.0Y-104.4
X219.0Y-116.25
X219.0Y-121.0
X219.0Y-126.0
X219.76Y-98.3
X220.25Y-128.25
X220.35Y-88.35
X220.35Y-89.55
X220.45Y-119.85
X221.25Y-118.75
X221.4Y-91.7
X221.75Y-96.25
X221.75Y-116.25
X221.75Y-121.0
X221.75Y-126.0
X222.516Y-82.411
X223.2Y-96.05
X223.75Y-72.0
X224.3Y-86.6
X224.668Y-81.561
X224.95Y-92.55
X225.0Y-116.25
X225.25Y-128.0
X225.41Y-94.48
X225.5Y-121.75
X225.62Y-82.97
X225.75Y-95.75
X225.75Y-118.75
X226.0Y-78.0
X226.0Y-81.75
X226.25Y-91.3
X227.0Y-60.5
X227.25Y-64.5
X227.5Y-70.75
X227.5Y-76.5
X228.0Y-79.25
X228.3Y-84.95
X228.5Y-121.75
X229.2Y-99.4
X229.25Y-113.5
X229.5Y-108.5
X230.25Y-68.0
X230.25Y-72.0
X230.25Y-117.5
X230.5Y-124.0
X230.75Y-128.0
X231.5Y-60.5
X232.3Y-110.375
X232.325Y-113.925
X232.4Y-82.55
X232.5Y-76.0
X232.5Y-117.5
X232.5Y-122.5
X233.125Y-93.95
X233.35Y-106.15
X233.375Y-103.825
X233.75Y-88.75
X234.0Y-84.5
X234.55Y-91.15
X234.9Y-99.4
X235.0Y-101.15
X236.25Y-60.5
X236.25Y-64.0
X236.25Y-68.0
X236.25Y-72.0
X236.25Y-76.0
X236.25Y-80.0
X236.25Y-84.5
X236.25Y-89.5
X236.25Y-103.75
X236.25Y-106.25
X236.25Y-110.5
X236.25Y-114.25
X236.25Y-117.75
T3
X228.0Y-116.0
X229.5Y-116.0
X231.0Y-116.0
X232.5Y-116.0
X234.0Y-116.0
X235.5Y-116.0
X188.95Y-113.85
X190.45Y-113.85
X191.95Y-113.85
X193.45Y-113.85
X194.95Y-113.85
X196.45Y-113.85
T4
X168.25Y-71.25
X168.25Y-72.75
X169.75Y-71.25
X169.75Y-72.75
X170.5Y-79.0
X170.5Y-80.5
X170.5Y-87.25
X170.5Y-88.75
X171.25Y-71.25
X171.25Y-72.75
X172.0Y-79.0
X172.0Y-80.5
X172.0Y-87.25
X172.0Y-88.75
X173.5Y-79.0
X173.5Y-87.25
X173.5Y-88.75
X177.25Y-71.25
X177.25Y-72.75
X177.25Y-79.0
X177.25Y-80.5
X177.25Y-87.25
X178.75Y-71.25
X178.75Y-72.75
X178.75Y-79.0
X178.75Y-80.5
X178.75Y-87.25
X180.25Y-71.25
X180.25Y-72.75
X180.25Y-79.0
X180.25Y-80.5
X180.25Y-87.25
X181.75Y-85.75
X181.75Y-87.25
X185.0Y-74.5
X185.0Y-76.0
X185.0Y-77.5
X185.0Y-79.0
X186.25Y-60.5
X186.25Y-62.0
X186.25Y-63.5
X186.25Y-65.0
X186.5Y-68.5
X186.5Y-70.0
X186.5Y-71.5
X186.5Y-73.0
X186.5Y-74.5
X186.5Y-76.0
X186.5Y-77.5
X186.5Y-79.0
X187.75Y-59.0
X187.75Y-60.5
X187.75Y-62.0
X187.75Y-63.5
X187.75Y-65.0
X188.0Y-68.5
X188.0Y-70.0
X188.0Y-74.5
X188.0Y-76.0
X188.0Y-77.5
X188.0Y-79.0
X189.25Y-59.0
X189.25Y-60.5
X189.25Y-62.0
X189.25Y-63.5
X189.25Y-65.0
X189.5Y-68.5
X189.5Y-70.0
X189.5Y-74.5
X189.5Y-76.0
X189.5Y-77.5
X189.5Y-79.0
X190.75Y-59.0
X190.75Y-60.5
X190.75Y-62.0
X190.75Y-63.5
X190.75Y-65.0
X191.0Y-68.5
X191.0Y-70.0
X191.0Y-74.5
X191.0Y-76.0
X191.0Y-77.5
X191.0Y-79.0
X192.25Y-59.0
X192.25Y-60.5
X192.25Y-62.0
X192.25Y-63.5
X192.25Y-65.0
X192.5Y-68.5
X192.5Y-70.0
X192.5Y-71.5
X192.5Y-73.0
X192.5Y-74.5
X192.5Y-76.0
X193.75Y-59.0
X193.75Y-60.5
X193.75Y-62.0
X193.75Y-63.5
X193.75Y-65.0
X200.0Y-74.5
X200.0Y-76.0
X200.0Y-77.5
X200.0Y-79.0
X201.0Y-59.0
X201.0Y-60.5
X201.0Y-62.0
X201.0Y-63.5
X201.0Y-65.0
X201.5Y-68.5
X201.5Y-70.0
X201.5Y-71.5
X201.5Y-73.0
X201.5Y-74.5
X201.5Y-76.0
X201.5Y-77.5
X201.5Y-79.0
X202.5Y-59.0
X202.5Y-60.5
X202.5Y-62.0
X202.5Y-63.5
X202.5Y-65.0
X203.0Y-68.5
X203.0Y-70.0
X203.0Y-74.5
X203.0Y-76.0
X203.0Y-77.5
X203.0Y-79.0
X204.0Y-59.0
X204.0Y-60.5
X204.0Y-62.0
X204.0Y-63.5
X204.0Y-65.0
X204.5Y-68.5
X204.5Y-70.0
X204.5Y-74.5
X204.5Y-76.0
X204.5Y-77.5
X204.5Y-79.0
X205.5Y-59.0
X205.5Y-60.5
X205.5Y-62.0
X205.5Y-63.5
X205.5Y-65.0
X206.0Y-68.5
X206.0Y-70.0
X206.0Y-71.5
X206.0Y-73.0
X206.0Y-74.5
X206.0Y-76.0
X206.0Y-77.5
X206.0Y-79.0
X207.0Y-59.0
X207.0Y-60.5
X207.0Y-62.0
X207.0Y-63.5
X207.0Y-65.0
X208.5Y-59.0
X208.5Y-60.5
X208.5Y-62.0
X208.5Y-63.5
X208.5Y-65.0
X214.75Y-76.0
X214.75Y-77.5
X214.75Y-79.0
X215.4Y-59.05
X215.4Y-60.55
X215.4Y-62.05
X215.4Y-63.55
X215.4Y-65.05
X216.25Y-68.5
X216.25Y-70.0
X216.25Y-71.5
X216.25Y-73.0
X216.25Y-74.5
X216.25Y-76.0
X216.25Y-77.5
X216.25Y-79.0
X216.9Y-59.05
X216.9Y-60.55
X216.9Y-62.05
X216.9Y-63.55
X216.9Y-65.05
X217.75Y-68.5
X217.75Y-70.0
X217.75Y-74.5
X217.75Y-76.0
X217.75Y-77.5
X217.75Y-79.0
X218.4Y-59.05
X218.4Y-60.55
X218.4Y-62.05
X218.4Y-63.55
X218.4Y-65.05
X219.25Y-68.5
X219.25Y-70.0
X219.25Y-74.5
X219.25Y-76.0
X219.25Y-77.5
X219.25Y-79.0
X219.9Y-59.05
X219.9Y-60.55
X219.9Y-62.05
X219.9Y-63.55
X219.9Y-65.05
X220.75Y-68.5
X220.75Y-70.0
X220.75Y-74.5
X220.75Y-76.0
X220.75Y-77.5
X220.75Y-79.0
X221.4Y-59.05
X221.4Y-60.55
X221.4Y-62.05
X221.4Y-63.55
X221.4Y-65.05
X222.9Y-59.05
X222.9Y-60.55
X222.9Y-62.05
X222.9Y-63.55
X222.9Y-65.05
T5
X216.19Y-121.46
X216.19Y-124.0
X216.19Y-126.54
X223.81Y-121.46
X223.81Y-124.0
X223.81Y-126.54
T6
X199.0Y-112.5
X200.5Y-112.5
X202.0Y-112.5
X203.5Y-112.5
X205.0Y-112.5
X206.5Y-112.5
X208.0Y-112.5
X209.5Y-112.5
X211.0Y-112.5
X228.75Y-74.5
X231.25Y-74.5
X230.75Y-91.55
X230.75Y-94.05
X172.5Y-65.0
X177.5Y-65.0
T7
X230.46Y-120.75
X233.0Y-120.75
X235.54Y-120.75
T8
X176.25Y-112.0
X176.25Y-114.5
X176.25Y-117.0
X176.25Y-119.5
X227.75Y-104.75
X227.75Y-107.25
X227.75Y-109.75
X227.75Y-112.25
X233.75Y-64.5
X233.75Y-67.0
X176.25Y-99.5
X176.25Y-102.0
X176.25Y-104.5
X176.25Y-107.0
X176.25Y-99.5
X176.25Y-102.0
X176.25Y-104.5
X176.25Y-107.0
X213.75Y-114.3
X216.29Y-114.3
X218.83Y-114.3
X221.37Y-114.3
X213.5Y-122.5
X213.5Y-125.04
X213.5Y-127.58
X182.25Y-119.75
X184.75Y-119.75
X187.25Y-119.75
X189.75Y-119.75
X204.75Y-119.75
X207.25Y-119.75
X209.75Y-119.75
X176.25Y-124.25
X176.25Y-126.79
X194.75Y-119.75
X197.25Y-119.75
X199.75Y-119.75
T9
X207.25Y-126.25
X197.25Y-126.25
T10
X204.0Y-72.5
X189.5Y-72.5
X219.0Y-72.5
T11
X186.0Y-126.25
X169.75Y-115.75
X234.25Y-108.5
X169.75Y-103.25
X169.75Y-103.25
T12
X170.0Y-57.0
X170.0Y-126.0
X234.0Y-57.0
X234.0Y-126.0
T13
X171.5Y-84.0
X178.5Y-84.0
X171.5Y-75.75
X178.5Y-75.75
T0
M30
