M48
; DRILL file {KiCad (5.1.4)-1} date 2019/11/11 11:03:19
; FORMAT={-:-/ absolute / metric / decimal}
; #@! TF.CreationDate,2019-11-11T11:03:19+09:00
; #@! TF.GenerationSoftware,Kicad,Pcbnew,(5.1.4)-1
; #@! TF.FileFunction,Plated,1,2,PTH
FMAT,2
METRIC
T1C0.300
T2C0.500
T3C0.700
T4C0.750
T5C0.762
T6C0.800
T7C1.000
T8C3.000
T9C4.500
%
G90
G05
T1
X104.75Y-114.0
X106.0Y-114.4
X106.0Y-134.25
X107.5Y-112.6
X109.0Y-113.5
X109.5Y-133.0
X110.0Y-114.4
X115.75Y-115.25
X118.0Y-114.4
X119.384Y-131.201
X119.5Y-112.6
X120.5Y-113.5
X122.0Y-114.4
X124.5Y-114.5
X126.5Y-125.5
X127.02Y-132.96
X130.0Y-114.4
X131.5Y-112.6
X133.0Y-113.5
X133.48Y-125.5
X134.0Y-114.4
X135.963Y-124.5
X136.0Y-120.25
X136.5Y-127.5
X137.75Y-124.75
X137.75Y-126.25
X137.925Y-121.925
X138.0Y-112.6
X138.4Y-128.2
X138.713Y-121.0
X139.25Y-124.75
X139.25Y-126.25
X139.44Y-122.65
X139.5Y-127.0
X139.61Y-123.329
X141.187Y-127.127
X141.75Y-120.75
X142.0Y-114.4
X142.5Y-133.5
X143.25Y-134.0
X143.5Y-112.6
X143.5Y-120.5
X143.75Y-114.25
X144.0Y-121.5
X144.199Y-129.821
X144.5Y-113.5
X145.5Y-120.0
X146.0Y-114.4
X146.0Y-133.0
X146.75Y-133.5
X147.75Y-122.5
X147.75Y-123.5
X147.75Y-124.5
X147.75Y-125.5
X148.5Y-132.0
X150.75Y-83.75
X152.825Y-114.15
X155.0Y-115.25
X156.25Y-115.25
X158.5Y-139.0
T2
X88.75Y-112.25
X88.75Y-116.0
X88.75Y-120.5
X88.75Y-125.0
X88.75Y-129.5
X88.75Y-135.0
X88.75Y-137.25
X88.75Y-141.5
X92.0Y-121.25
X92.0Y-125.0
X92.0Y-128.25
X92.25Y-112.25
X92.25Y-116.0
X93.75Y-141.5
X94.75Y-121.25
X94.75Y-125.0
X94.75Y-128.25
X94.75Y-131.5
X94.75Y-134.25
X94.75Y-138.0
X95.25Y-112.25
X95.25Y-116.0
X96.5Y-141.75
X96.5Y-144.75
X96.5Y-147.25
X98.0Y-112.25
X99.5Y-135.5
X99.5Y-138.0
X99.5Y-141.75
X99.5Y-144.75
X99.5Y-147.25
X99.75Y-116.0
X99.75Y-121.25
X99.75Y-125.0
X100.0Y-129.75
X100.0Y-132.0
X100.5Y-112.25
X102.5Y-112.25
X102.5Y-138.0
X102.5Y-141.75
X102.5Y-144.75
X102.5Y-147.25
X102.537Y-124.5
X104.2Y-99.925
X104.25Y-133.75
X104.5Y-116.25
X104.5Y-119.0
X105.0Y-69.25
X105.0Y-70.0
X105.0Y-70.75
X105.0Y-71.5
X105.0Y-72.25
X105.0Y-73.0
X105.0Y-73.75
X105.0Y-74.5
X105.0Y-75.25
X105.0Y-76.0
X105.0Y-76.75
X105.0Y-135.75
X105.75Y-69.25
X105.75Y-70.0
X105.75Y-70.75
X105.75Y-71.5
X105.75Y-72.25
X105.75Y-73.0
X105.75Y-73.75
X105.75Y-74.5
X105.75Y-75.25
X105.75Y-76.0
X105.75Y-76.75
X105.75Y-144.75
X105.75Y-147.25
X106.5Y-69.25
X106.5Y-70.0
X106.5Y-70.75
X106.5Y-71.5
X106.5Y-72.25
X106.5Y-73.0
X106.5Y-73.75
X106.5Y-74.5
X106.5Y-75.25
X106.5Y-76.0
X106.5Y-76.75
X107.25Y-69.25
X107.25Y-70.0
X107.25Y-70.75
X107.25Y-71.5
X107.25Y-72.25
X107.25Y-73.0
X107.25Y-73.75
X107.25Y-74.5
X107.25Y-75.25
X107.25Y-76.0
X107.25Y-76.75
X108.0Y-69.25
X108.0Y-70.0
X108.0Y-70.75
X108.0Y-71.5
X108.0Y-72.25
X108.0Y-73.0
X108.0Y-73.75
X108.0Y-74.5
X108.0Y-75.25
X108.0Y-76.0
X108.0Y-76.75
X108.13Y-99.96
X108.5Y-117.5
X108.5Y-120.25
X108.75Y-69.25
X108.75Y-70.0
X108.75Y-70.75
X108.75Y-71.5
X108.75Y-72.25
X108.75Y-73.0
X108.75Y-73.75
X108.75Y-74.5
X108.75Y-75.25
X108.75Y-76.0
X108.75Y-76.75
X109.0Y-64.75
X109.0Y-67.75
X109.5Y-69.25
X109.5Y-70.0
X109.5Y-70.75
X109.5Y-71.5
X109.5Y-72.25
X109.5Y-73.0
X109.5Y-73.75
X109.5Y-74.5
X109.5Y-75.25
X109.5Y-76.0
X109.5Y-76.75
X110.25Y-73.0
X110.25Y-73.75
X110.25Y-74.5
X110.25Y-75.25
X110.25Y-76.0
X110.25Y-76.75
X111.0Y-73.0
X111.0Y-73.75
X111.0Y-74.5
X111.0Y-75.25
X111.0Y-76.0
X111.0Y-76.75
X111.0Y-117.5
X111.0Y-120.25
X111.0Y-144.75
X111.0Y-147.25
X111.25Y-135.75
X111.75Y-73.0
X111.75Y-73.75
X111.75Y-74.5
X111.75Y-75.25
X111.75Y-76.0
X111.75Y-76.75
X112.29Y-82.15
X112.5Y-73.0
X112.5Y-73.75
X112.5Y-74.5
X112.5Y-75.25
X112.5Y-76.0
X112.5Y-76.75
X112.5Y-102.0
X112.72Y-100.81
X113.25Y-73.0
X113.25Y-73.75
X113.25Y-74.5
X113.25Y-75.25
X113.25Y-76.0
X113.25Y-76.75
X113.5Y-130.5
X114.0Y-73.0
X114.0Y-73.75
X114.0Y-74.5
X114.0Y-75.25
X114.0Y-76.0
X114.0Y-76.75
X114.0Y-112.6
X114.25Y-144.75
X114.25Y-147.25
X115.75Y-117.25
X115.75Y-119.6
X115.75Y-122.0
X115.75Y-124.25
X116.12Y-100.08
X116.5Y-129.25
X116.5Y-131.5
X116.5Y-133.5
X116.5Y-135.75
X117.25Y-128.25
X117.5Y-65.83
X117.5Y-144.75
X117.5Y-147.25
X118.75Y-117.25
X118.75Y-120.25
X118.75Y-133.5
X118.75Y-135.75
X119.0Y-69.5
X119.0Y-70.25
X119.0Y-71.0
X119.0Y-71.75
X119.0Y-72.5
X119.0Y-73.25
X119.0Y-74.0
X119.0Y-74.75
X119.75Y-69.5
X119.75Y-70.25
X119.75Y-71.0
X119.75Y-71.75
X119.75Y-72.5
X119.75Y-73.25
X119.75Y-74.0
X119.75Y-74.75
X119.75Y-75.5
X119.75Y-126.5
X119.75Y-128.25
X120.0Y-117.5
X120.0Y-125.5
X120.5Y-69.5
X120.5Y-70.25
X120.5Y-71.0
X120.5Y-71.75
X120.5Y-72.5
X120.5Y-73.25
X120.5Y-74.0
X120.5Y-74.75
X120.5Y-75.5
X120.5Y-76.25
X120.5Y-133.963
X120.58Y-100.08
X121.0Y-87.0
X121.0Y-132.75
X121.25Y-69.5
X121.25Y-70.25
X121.25Y-71.0
X121.25Y-71.75
X121.25Y-72.5
X121.25Y-73.25
X121.25Y-74.0
X121.25Y-74.75
X121.25Y-75.5
X121.25Y-76.25
X122.0Y-69.5
X122.0Y-70.25
X122.0Y-71.0
X122.0Y-71.75
X122.0Y-72.5
X122.0Y-73.25
X122.0Y-74.0
X122.0Y-74.75
X122.0Y-75.5
X122.0Y-76.25
X122.75Y-69.5
X122.75Y-70.25
X122.75Y-71.0
X122.75Y-71.75
X122.75Y-72.5
X122.75Y-73.25
X122.75Y-74.0
X122.75Y-74.75
X122.75Y-75.5
X122.75Y-76.25
X123.0Y-147.25
X123.5Y-69.5
X123.5Y-70.25
X123.5Y-71.0
X123.5Y-71.75
X123.5Y-72.5
X123.5Y-73.25
X123.5Y-74.0
X123.5Y-74.75
X123.5Y-75.5
X123.5Y-76.25
X123.5Y-133.963
X124.25Y-69.5
X124.25Y-70.25
X124.25Y-71.0
X124.25Y-71.75
X124.25Y-72.5
X124.25Y-73.25
X124.25Y-74.0
X124.25Y-74.75
X124.25Y-75.5
X124.25Y-76.25
X124.5Y-102.0
X125.0Y-69.5
X125.0Y-70.25
X125.0Y-71.0
X125.0Y-71.75
X125.0Y-72.5
X125.0Y-73.25
X125.0Y-74.0
X125.0Y-74.75
X125.0Y-75.5
X125.0Y-76.25
X125.065Y-101.025
X125.75Y-69.5
X125.75Y-70.25
X125.75Y-71.0
X125.75Y-71.75
X125.75Y-72.5
X125.75Y-73.25
X125.75Y-74.0
X125.75Y-74.75
X125.75Y-75.5
X125.75Y-76.25
X125.75Y-130.25
X125.75Y-144.75
X125.75Y-147.25
X126.0Y-112.25
X126.0Y-117.5
X126.0Y-119.0
X126.287Y-127.75
X126.5Y-138.0
X126.5Y-140.75
X127.5Y-119.75
X127.75Y-138.0
X127.75Y-140.75
X128.25Y-69.5
X128.25Y-70.25
X128.25Y-71.0
X128.25Y-71.75
X128.25Y-72.5
X128.25Y-73.25
X128.25Y-74.0
X128.25Y-74.75
X128.25Y-75.5
X128.25Y-76.25
X128.25Y-100.02
X128.25Y-126.75
X129.0Y-69.5
X129.0Y-70.25
X129.0Y-71.0
X129.0Y-71.75
X129.0Y-72.5
X129.0Y-73.25
X129.0Y-74.0
X129.0Y-74.75
X129.0Y-75.5
X129.0Y-76.25
X129.0Y-144.75
X129.0Y-147.25
X129.75Y-69.5
X129.75Y-70.25
X129.75Y-71.0
X129.75Y-71.75
X129.75Y-72.5
X129.75Y-73.25
X129.75Y-74.0
X129.75Y-74.75
X129.75Y-75.5
X129.75Y-76.25
X129.75Y-120.25
X129.75Y-122.5
X130.5Y-69.5
X130.5Y-70.25
X130.5Y-71.0
X130.5Y-71.75
X130.5Y-72.5
X130.5Y-73.25
X130.5Y-74.0
X130.5Y-74.75
X130.5Y-75.5
X130.5Y-76.25
X130.75Y-116.75
X131.25Y-70.25
X131.25Y-71.0
X131.25Y-71.75
X131.25Y-72.5
X131.25Y-73.25
X131.25Y-74.0
X131.25Y-74.75
X131.25Y-75.5
X131.25Y-76.25
X131.75Y-122.5
X131.99Y-100.02
X132.0Y-70.25
X132.0Y-71.0
X132.0Y-71.75
X132.0Y-72.5
X132.0Y-73.25
X132.0Y-74.0
X132.0Y-74.75
X132.0Y-75.5
X132.0Y-76.25
X132.0Y-147.25
X132.25Y-64.75
X132.25Y-68.25
X132.75Y-70.25
X132.75Y-71.0
X132.75Y-71.75
X132.75Y-72.5
X132.75Y-73.25
X132.75Y-74.0
X132.75Y-74.75
X132.75Y-75.5
X132.75Y-76.25
X133.5Y-73.25
X133.5Y-74.0
X133.5Y-74.75
X133.5Y-75.5
X133.5Y-76.25
X134.25Y-73.25
X134.25Y-74.0
X134.25Y-74.75
X134.25Y-75.5
X134.25Y-76.25
X134.5Y-130.5
X135.0Y-73.25
X135.0Y-74.0
X135.0Y-74.75
X135.0Y-75.5
X135.0Y-76.25
X135.29Y-82.15
X135.5Y-147.25
X135.75Y-73.25
X135.75Y-74.0
X135.75Y-74.75
X135.75Y-75.5
X135.75Y-76.25
X135.75Y-126.5
X136.25Y-134.0
X136.5Y-73.25
X136.5Y-74.0
X136.5Y-74.75
X136.5Y-75.5
X136.5Y-76.25
X136.5Y-77.0
X136.5Y-102.0
X136.7Y-78.28
X137.04Y-101.04
X137.25Y-73.25
X137.25Y-74.0
X137.25Y-74.75
X137.25Y-75.5
X137.25Y-76.25
X137.25Y-77.0
X138.5Y-125.5
X138.5Y-144.75
X138.5Y-147.25
X138.905Y-65.525
X139.25Y-131.75
X139.25Y-134.0
X139.75Y-138.0
X139.75Y-140.75
X140.071Y-100.185
X140.5Y-115.25
X141.0Y-124.25
X141.0Y-138.0
X141.0Y-140.75
X141.5Y-144.75
X141.5Y-147.25
X143.5Y-69.5
X143.5Y-70.25
X143.5Y-71.0
X143.5Y-71.75
X143.5Y-72.5
X143.5Y-73.25
X144.25Y-69.5
X144.25Y-70.25
X144.25Y-71.0
X144.25Y-71.75
X144.25Y-72.5
X144.25Y-73.25
X144.25Y-74.0
X144.29Y-100.14
X144.5Y-147.25
X145.0Y-69.5
X145.0Y-70.25
X145.0Y-71.0
X145.0Y-71.75
X145.0Y-72.5
X145.0Y-73.25
X145.0Y-74.0
X145.0Y-74.75
X145.0Y-87.0
X145.5Y-116.25
X145.75Y-69.5
X145.75Y-70.25
X145.75Y-71.0
X145.75Y-71.75
X145.75Y-72.5
X145.75Y-73.25
X145.75Y-74.0
X145.75Y-74.75
X146.5Y-69.5
X146.5Y-70.25
X146.5Y-71.0
X146.5Y-71.75
X146.5Y-72.5
X146.5Y-73.25
X146.5Y-74.0
X146.5Y-74.75
X146.75Y-130.0
X147.25Y-69.5
X147.25Y-70.25
X147.25Y-71.0
X147.25Y-71.75
X147.25Y-72.5
X147.25Y-73.25
X147.25Y-74.0
X147.25Y-74.75
X147.535Y-78.285
X148.0Y-69.5
X148.0Y-70.25
X148.0Y-71.0
X148.0Y-71.75
X148.0Y-72.5
X148.0Y-73.25
X148.0Y-74.0
X148.0Y-74.75
X148.25Y-133.25
X148.25Y-135.0
X148.25Y-137.0
X148.25Y-147.25
X148.5Y-102.0
X149.0Y-101.0
X149.75Y-122.25
X149.75Y-124.25
X149.75Y-126.75
X149.75Y-128.75
X149.8Y-106.8
X150.0Y-115.5
X150.0Y-118.0
X150.18Y-67.45
X150.25Y-90.5
X150.25Y-95.037
X150.25Y-96.462
X150.5Y-64.5
X150.5Y-132.75
X150.94Y-142.29
X151.0Y-87.5
X151.5Y-103.0
X151.5Y-144.75
X151.5Y-147.25
X151.873Y-136.347
X152.0Y-102.0
X152.0Y-126.75
X152.0Y-128.75
X152.0Y-131.2
X152.0Y-134.25
X152.5Y-118.0
X153.213Y-73.25
X153.5Y-103.0
X153.5Y-122.25
X153.5Y-124.25
X153.713Y-76.75
X154.25Y-141.75
X154.25Y-144.75
X154.25Y-147.25
X154.6Y-133.75
X154.75Y-73.462
X155.287Y-76.75
X155.4Y-78.75
X155.5Y-103.9
X155.95Y-86.65
X156.93Y-90.81
X157.0Y-119.25
X157.0Y-124.5
X157.0Y-126.75
X157.0Y-129.0
X157.0Y-131.75
X157.0Y-133.75
X157.0Y-141.75
X157.0Y-147.25
X157.5Y-103.0
X158.0Y-112.5
X159.438Y-80.5
X159.5Y-103.0
X159.75Y-119.25
X159.75Y-126.75
X159.75Y-129.0
X159.75Y-131.75
X159.75Y-134.25
X160.0Y-96.5
X160.5Y-101.0
X162.0Y-102.0
X162.25Y-112.25
X162.25Y-114.25
X162.25Y-116.5
X162.25Y-119.25
X162.25Y-121.75
X162.25Y-124.25
X162.25Y-134.25
X162.25Y-139.25
X162.25Y-141.75
T3
X154.0Y-136.25
X155.5Y-136.25
X157.0Y-136.25
X158.5Y-136.25
X160.0Y-136.25
X161.5Y-136.25
T4
X90.0Y-68.75
X90.0Y-70.25
X90.0Y-77.25
X90.0Y-78.75
X90.0Y-85.0
X90.0Y-86.5
X90.0Y-88.0
X91.5Y-68.75
X91.5Y-70.25
X91.5Y-77.25
X91.5Y-78.75
X91.5Y-85.0
X91.5Y-86.5
X91.5Y-88.0
X93.0Y-68.75
X93.0Y-70.25
X93.0Y-77.25
X93.0Y-78.75
X93.0Y-85.0
X93.0Y-86.5
X93.0Y-88.0
X94.5Y-68.75
X94.5Y-70.25
X94.5Y-77.25
X94.5Y-78.75
X94.5Y-85.0
X94.5Y-86.5
X94.5Y-88.0
X97.0Y-68.75
X97.0Y-70.25
X97.0Y-77.25
X97.0Y-78.75
X97.0Y-85.0
X97.0Y-86.5
X98.5Y-68.75
X98.5Y-70.25
X98.5Y-77.25
X98.5Y-78.75
X98.5Y-85.0
X98.5Y-86.5
X100.0Y-68.75
X100.0Y-70.25
X100.0Y-77.25
X100.0Y-78.75
X100.0Y-85.0
X100.0Y-86.5
X101.5Y-68.75
X101.5Y-70.25
X101.5Y-77.25
X101.5Y-78.75
X101.5Y-85.0
X101.5Y-86.5
X105.25Y-84.5
X105.25Y-86.0
X105.25Y-87.5
X105.25Y-89.0
X105.25Y-90.5
X105.25Y-92.0
X105.25Y-93.5
X105.25Y-95.0
X106.688Y-95.0
X106.7Y-92.0
X106.7Y-93.5
X106.7Y-96.5
X106.75Y-89.0
X106.75Y-90.5
X108.2Y-90.5
X108.2Y-92.0
X108.2Y-93.5
X108.2Y-95.0
X108.2Y-96.5
X109.7Y-90.5
X109.7Y-92.0
X109.7Y-93.5
X109.7Y-95.0
X115.0Y-139.0
X115.25Y-90.5
X115.25Y-92.0
X115.25Y-93.5
X115.25Y-95.0
X115.25Y-96.5
X116.75Y-90.5
X116.75Y-92.0
X116.75Y-93.5
X116.75Y-95.0
X116.75Y-96.5
X118.25Y-89.0
X118.25Y-90.5
X118.25Y-92.0
X118.25Y-93.5
X118.25Y-95.0
X128.5Y-84.5
X128.5Y-86.0
X128.5Y-87.5
X128.5Y-89.0
X128.5Y-90.5
X128.5Y-92.0
X128.5Y-93.5
X128.5Y-95.0
X130.0Y-89.0
X130.0Y-90.5
X130.0Y-92.0
X130.0Y-93.5
X130.0Y-95.0
X130.0Y-96.5
X131.5Y-90.5
X131.5Y-92.0
X131.5Y-93.5
X131.5Y-95.0
X131.5Y-96.5
X133.0Y-90.5
X133.0Y-92.0
X133.0Y-93.5
X133.0Y-95.0
X139.0Y-90.5
X139.0Y-92.0
X139.0Y-93.5
X139.0Y-95.0
X139.0Y-96.5
X140.5Y-89.0
X140.5Y-90.5
X140.5Y-92.0
X140.5Y-93.5
X140.5Y-95.0
X140.5Y-96.5
X142.0Y-89.0
X142.0Y-90.5
X142.0Y-92.0
X142.0Y-93.5
X142.0Y-95.0
T5
X154.19Y-126.46
X154.19Y-129.0
X154.19Y-131.54
X161.81Y-126.46
X161.81Y-129.0
X161.81Y-131.54
T6
X106.5Y-117.0
X106.5Y-119.5
X153.0Y-68.75
X155.5Y-68.75
X92.75Y-98.25
X97.75Y-98.25
T7
X113.0Y-117.88
X113.0Y-120.42
X113.0Y-122.96
X113.0Y-125.5
X89.5Y-139.5
X92.04Y-139.5
X105.0Y-139.0
X107.5Y-139.0
X110.0Y-139.0
X112.5Y-139.0
X160.0Y-90.0
X160.0Y-92.5
X97.25Y-115.0
X97.25Y-117.5
X97.25Y-120.0
X97.25Y-122.5
X97.25Y-127.5
X97.25Y-130.0
X97.25Y-132.5
X97.25Y-135.0
X117.5Y-139.0
X120.0Y-139.0
X122.5Y-139.0
X125.0Y-139.0
X142.5Y-139.0
X145.0Y-139.0
X147.5Y-139.0
X150.0Y-139.0
X130.0Y-139.0
X132.5Y-139.0
X135.0Y-139.0
X137.5Y-139.0
T8
X91.0Y-63.75
X91.0Y-145.0
X160.0Y-63.75
X160.0Y-145.0
X90.75Y-118.75
X90.75Y-131.25
X146.25Y-145.5
X133.75Y-145.5
X108.75Y-145.5
X121.25Y-145.5
T9
X131.75Y-86.5
X138.75Y-86.5
X92.0Y-82.0
X99.0Y-82.0
X108.75Y-86.5
X115.75Y-86.5
X92.0Y-73.75
X99.0Y-73.75
T0
M30
