G04 #@! TF.GenerationSoftware,KiCad,Pcbnew,(5.1.4)-1*
G04 #@! TF.CreationDate,2020-02-28T05:18:07+09:00*
G04 #@! TF.ProjectId,Buzzer_Test_UM1515IA,42757a7a-6572-45f5-9465-73745f554d31,rev?*
G04 #@! TF.SameCoordinates,Original*
G04 #@! TF.FileFunction,Copper,L2,Bot*
G04 #@! TF.FilePolarity,Positive*
%FSLAX46Y46*%
G04 Gerber Fmt 4.6, Leading zero omitted, Abs format (unit mm)*
G04 Created by KiCad (PCBNEW (5.1.4)-1) date 2020-02-28 05:18:07*
%MOMM*%
%LPD*%
G04 APERTURE LIST*
%ADD10R,1.800000X4.000000*%
%ADD11R,2.300000X2.300000*%
%ADD12R,4.000000X6.000000*%
%ADD13R,0.900000X1.200000*%
%ADD14R,1.700000X1.700000*%
%ADD15O,1.700000X1.700000*%
%ADD16R,1.000000X0.700000*%
%ADD17C,0.100000*%
%ADD18C,0.875000*%
%ADD19C,1.000000*%
%ADD20C,0.500000*%
%ADD21C,0.254000*%
G04 APERTURE END LIST*
D10*
X95900000Y-91500000D03*
X109600000Y-91500000D03*
X109600000Y-101500000D03*
X95900000Y-101500000D03*
D11*
X146100000Y-101600000D03*
X146100000Y-95000000D03*
X139500000Y-95000000D03*
D12*
X120000000Y-97750000D03*
X130000000Y-97750000D03*
D13*
X101100000Y-90250000D03*
X104400000Y-90250000D03*
X142900000Y-91500000D03*
X139600000Y-91500000D03*
X123350000Y-90500000D03*
X126650000Y-90500000D03*
D14*
X97250000Y-87500000D03*
D15*
X99790000Y-87500000D03*
X102330000Y-87500000D03*
X144580000Y-87500000D03*
X142040000Y-87500000D03*
D14*
X139500000Y-87500000D03*
X119960000Y-87500000D03*
D15*
X122500000Y-87500000D03*
X125040000Y-87500000D03*
D16*
X107700000Y-87050000D03*
X107700000Y-88950000D03*
X105300000Y-88000000D03*
X144550000Y-91500000D03*
X146950000Y-92450000D03*
X146950000Y-90550000D03*
X130950000Y-88800000D03*
X130950000Y-90700000D03*
X128550000Y-89750000D03*
D17*
G36*
X106627691Y-85226053D02*
G01*
X106648926Y-85229203D01*
X106669750Y-85234419D01*
X106689962Y-85241651D01*
X106709368Y-85250830D01*
X106727781Y-85261866D01*
X106745024Y-85274654D01*
X106760930Y-85289070D01*
X106775346Y-85304976D01*
X106788134Y-85322219D01*
X106799170Y-85340632D01*
X106808349Y-85360038D01*
X106815581Y-85380250D01*
X106820797Y-85401074D01*
X106823947Y-85422309D01*
X106825000Y-85443750D01*
X106825000Y-85956250D01*
X106823947Y-85977691D01*
X106820797Y-85998926D01*
X106815581Y-86019750D01*
X106808349Y-86039962D01*
X106799170Y-86059368D01*
X106788134Y-86077781D01*
X106775346Y-86095024D01*
X106760930Y-86110930D01*
X106745024Y-86125346D01*
X106727781Y-86138134D01*
X106709368Y-86149170D01*
X106689962Y-86158349D01*
X106669750Y-86165581D01*
X106648926Y-86170797D01*
X106627691Y-86173947D01*
X106606250Y-86175000D01*
X106168750Y-86175000D01*
X106147309Y-86173947D01*
X106126074Y-86170797D01*
X106105250Y-86165581D01*
X106085038Y-86158349D01*
X106065632Y-86149170D01*
X106047219Y-86138134D01*
X106029976Y-86125346D01*
X106014070Y-86110930D01*
X105999654Y-86095024D01*
X105986866Y-86077781D01*
X105975830Y-86059368D01*
X105966651Y-86039962D01*
X105959419Y-86019750D01*
X105954203Y-85998926D01*
X105951053Y-85977691D01*
X105950000Y-85956250D01*
X105950000Y-85443750D01*
X105951053Y-85422309D01*
X105954203Y-85401074D01*
X105959419Y-85380250D01*
X105966651Y-85360038D01*
X105975830Y-85340632D01*
X105986866Y-85322219D01*
X105999654Y-85304976D01*
X106014070Y-85289070D01*
X106029976Y-85274654D01*
X106047219Y-85261866D01*
X106065632Y-85250830D01*
X106085038Y-85241651D01*
X106105250Y-85234419D01*
X106126074Y-85229203D01*
X106147309Y-85226053D01*
X106168750Y-85225000D01*
X106606250Y-85225000D01*
X106627691Y-85226053D01*
X106627691Y-85226053D01*
G37*
D18*
X106387500Y-85700000D03*
D17*
G36*
X105052691Y-85226053D02*
G01*
X105073926Y-85229203D01*
X105094750Y-85234419D01*
X105114962Y-85241651D01*
X105134368Y-85250830D01*
X105152781Y-85261866D01*
X105170024Y-85274654D01*
X105185930Y-85289070D01*
X105200346Y-85304976D01*
X105213134Y-85322219D01*
X105224170Y-85340632D01*
X105233349Y-85360038D01*
X105240581Y-85380250D01*
X105245797Y-85401074D01*
X105248947Y-85422309D01*
X105250000Y-85443750D01*
X105250000Y-85956250D01*
X105248947Y-85977691D01*
X105245797Y-85998926D01*
X105240581Y-86019750D01*
X105233349Y-86039962D01*
X105224170Y-86059368D01*
X105213134Y-86077781D01*
X105200346Y-86095024D01*
X105185930Y-86110930D01*
X105170024Y-86125346D01*
X105152781Y-86138134D01*
X105134368Y-86149170D01*
X105114962Y-86158349D01*
X105094750Y-86165581D01*
X105073926Y-86170797D01*
X105052691Y-86173947D01*
X105031250Y-86175000D01*
X104593750Y-86175000D01*
X104572309Y-86173947D01*
X104551074Y-86170797D01*
X104530250Y-86165581D01*
X104510038Y-86158349D01*
X104490632Y-86149170D01*
X104472219Y-86138134D01*
X104454976Y-86125346D01*
X104439070Y-86110930D01*
X104424654Y-86095024D01*
X104411866Y-86077781D01*
X104400830Y-86059368D01*
X104391651Y-86039962D01*
X104384419Y-86019750D01*
X104379203Y-85998926D01*
X104376053Y-85977691D01*
X104375000Y-85956250D01*
X104375000Y-85443750D01*
X104376053Y-85422309D01*
X104379203Y-85401074D01*
X104384419Y-85380250D01*
X104391651Y-85360038D01*
X104400830Y-85340632D01*
X104411866Y-85322219D01*
X104424654Y-85304976D01*
X104439070Y-85289070D01*
X104454976Y-85274654D01*
X104472219Y-85261866D01*
X104490632Y-85250830D01*
X104510038Y-85241651D01*
X104530250Y-85234419D01*
X104551074Y-85229203D01*
X104572309Y-85226053D01*
X104593750Y-85225000D01*
X105031250Y-85225000D01*
X105052691Y-85226053D01*
X105052691Y-85226053D01*
G37*
D18*
X104812500Y-85700000D03*
D17*
G36*
X147277691Y-87026053D02*
G01*
X147298926Y-87029203D01*
X147319750Y-87034419D01*
X147339962Y-87041651D01*
X147359368Y-87050830D01*
X147377781Y-87061866D01*
X147395024Y-87074654D01*
X147410930Y-87089070D01*
X147425346Y-87104976D01*
X147438134Y-87122219D01*
X147449170Y-87140632D01*
X147458349Y-87160038D01*
X147465581Y-87180250D01*
X147470797Y-87201074D01*
X147473947Y-87222309D01*
X147475000Y-87243750D01*
X147475000Y-87681250D01*
X147473947Y-87702691D01*
X147470797Y-87723926D01*
X147465581Y-87744750D01*
X147458349Y-87764962D01*
X147449170Y-87784368D01*
X147438134Y-87802781D01*
X147425346Y-87820024D01*
X147410930Y-87835930D01*
X147395024Y-87850346D01*
X147377781Y-87863134D01*
X147359368Y-87874170D01*
X147339962Y-87883349D01*
X147319750Y-87890581D01*
X147298926Y-87895797D01*
X147277691Y-87898947D01*
X147256250Y-87900000D01*
X146743750Y-87900000D01*
X146722309Y-87898947D01*
X146701074Y-87895797D01*
X146680250Y-87890581D01*
X146660038Y-87883349D01*
X146640632Y-87874170D01*
X146622219Y-87863134D01*
X146604976Y-87850346D01*
X146589070Y-87835930D01*
X146574654Y-87820024D01*
X146561866Y-87802781D01*
X146550830Y-87784368D01*
X146541651Y-87764962D01*
X146534419Y-87744750D01*
X146529203Y-87723926D01*
X146526053Y-87702691D01*
X146525000Y-87681250D01*
X146525000Y-87243750D01*
X146526053Y-87222309D01*
X146529203Y-87201074D01*
X146534419Y-87180250D01*
X146541651Y-87160038D01*
X146550830Y-87140632D01*
X146561866Y-87122219D01*
X146574654Y-87104976D01*
X146589070Y-87089070D01*
X146604976Y-87074654D01*
X146622219Y-87061866D01*
X146640632Y-87050830D01*
X146660038Y-87041651D01*
X146680250Y-87034419D01*
X146701074Y-87029203D01*
X146722309Y-87026053D01*
X146743750Y-87025000D01*
X147256250Y-87025000D01*
X147277691Y-87026053D01*
X147277691Y-87026053D01*
G37*
D18*
X147000000Y-87462500D03*
D17*
G36*
X147277691Y-88601053D02*
G01*
X147298926Y-88604203D01*
X147319750Y-88609419D01*
X147339962Y-88616651D01*
X147359368Y-88625830D01*
X147377781Y-88636866D01*
X147395024Y-88649654D01*
X147410930Y-88664070D01*
X147425346Y-88679976D01*
X147438134Y-88697219D01*
X147449170Y-88715632D01*
X147458349Y-88735038D01*
X147465581Y-88755250D01*
X147470797Y-88776074D01*
X147473947Y-88797309D01*
X147475000Y-88818750D01*
X147475000Y-89256250D01*
X147473947Y-89277691D01*
X147470797Y-89298926D01*
X147465581Y-89319750D01*
X147458349Y-89339962D01*
X147449170Y-89359368D01*
X147438134Y-89377781D01*
X147425346Y-89395024D01*
X147410930Y-89410930D01*
X147395024Y-89425346D01*
X147377781Y-89438134D01*
X147359368Y-89449170D01*
X147339962Y-89458349D01*
X147319750Y-89465581D01*
X147298926Y-89470797D01*
X147277691Y-89473947D01*
X147256250Y-89475000D01*
X146743750Y-89475000D01*
X146722309Y-89473947D01*
X146701074Y-89470797D01*
X146680250Y-89465581D01*
X146660038Y-89458349D01*
X146640632Y-89449170D01*
X146622219Y-89438134D01*
X146604976Y-89425346D01*
X146589070Y-89410930D01*
X146574654Y-89395024D01*
X146561866Y-89377781D01*
X146550830Y-89359368D01*
X146541651Y-89339962D01*
X146534419Y-89319750D01*
X146529203Y-89298926D01*
X146526053Y-89277691D01*
X146525000Y-89256250D01*
X146525000Y-88818750D01*
X146526053Y-88797309D01*
X146529203Y-88776074D01*
X146534419Y-88755250D01*
X146541651Y-88735038D01*
X146550830Y-88715632D01*
X146561866Y-88697219D01*
X146574654Y-88679976D01*
X146589070Y-88664070D01*
X146604976Y-88649654D01*
X146622219Y-88636866D01*
X146640632Y-88625830D01*
X146660038Y-88616651D01*
X146680250Y-88609419D01*
X146701074Y-88604203D01*
X146722309Y-88601053D01*
X146743750Y-88600000D01*
X147256250Y-88600000D01*
X147277691Y-88601053D01*
X147277691Y-88601053D01*
G37*
D18*
X147000000Y-89037500D03*
D17*
G36*
X128777691Y-87026053D02*
G01*
X128798926Y-87029203D01*
X128819750Y-87034419D01*
X128839962Y-87041651D01*
X128859368Y-87050830D01*
X128877781Y-87061866D01*
X128895024Y-87074654D01*
X128910930Y-87089070D01*
X128925346Y-87104976D01*
X128938134Y-87122219D01*
X128949170Y-87140632D01*
X128958349Y-87160038D01*
X128965581Y-87180250D01*
X128970797Y-87201074D01*
X128973947Y-87222309D01*
X128975000Y-87243750D01*
X128975000Y-87756250D01*
X128973947Y-87777691D01*
X128970797Y-87798926D01*
X128965581Y-87819750D01*
X128958349Y-87839962D01*
X128949170Y-87859368D01*
X128938134Y-87877781D01*
X128925346Y-87895024D01*
X128910930Y-87910930D01*
X128895024Y-87925346D01*
X128877781Y-87938134D01*
X128859368Y-87949170D01*
X128839962Y-87958349D01*
X128819750Y-87965581D01*
X128798926Y-87970797D01*
X128777691Y-87973947D01*
X128756250Y-87975000D01*
X128318750Y-87975000D01*
X128297309Y-87973947D01*
X128276074Y-87970797D01*
X128255250Y-87965581D01*
X128235038Y-87958349D01*
X128215632Y-87949170D01*
X128197219Y-87938134D01*
X128179976Y-87925346D01*
X128164070Y-87910930D01*
X128149654Y-87895024D01*
X128136866Y-87877781D01*
X128125830Y-87859368D01*
X128116651Y-87839962D01*
X128109419Y-87819750D01*
X128104203Y-87798926D01*
X128101053Y-87777691D01*
X128100000Y-87756250D01*
X128100000Y-87243750D01*
X128101053Y-87222309D01*
X128104203Y-87201074D01*
X128109419Y-87180250D01*
X128116651Y-87160038D01*
X128125830Y-87140632D01*
X128136866Y-87122219D01*
X128149654Y-87104976D01*
X128164070Y-87089070D01*
X128179976Y-87074654D01*
X128197219Y-87061866D01*
X128215632Y-87050830D01*
X128235038Y-87041651D01*
X128255250Y-87034419D01*
X128276074Y-87029203D01*
X128297309Y-87026053D01*
X128318750Y-87025000D01*
X128756250Y-87025000D01*
X128777691Y-87026053D01*
X128777691Y-87026053D01*
G37*
D18*
X128537500Y-87500000D03*
D17*
G36*
X127202691Y-87026053D02*
G01*
X127223926Y-87029203D01*
X127244750Y-87034419D01*
X127264962Y-87041651D01*
X127284368Y-87050830D01*
X127302781Y-87061866D01*
X127320024Y-87074654D01*
X127335930Y-87089070D01*
X127350346Y-87104976D01*
X127363134Y-87122219D01*
X127374170Y-87140632D01*
X127383349Y-87160038D01*
X127390581Y-87180250D01*
X127395797Y-87201074D01*
X127398947Y-87222309D01*
X127400000Y-87243750D01*
X127400000Y-87756250D01*
X127398947Y-87777691D01*
X127395797Y-87798926D01*
X127390581Y-87819750D01*
X127383349Y-87839962D01*
X127374170Y-87859368D01*
X127363134Y-87877781D01*
X127350346Y-87895024D01*
X127335930Y-87910930D01*
X127320024Y-87925346D01*
X127302781Y-87938134D01*
X127284368Y-87949170D01*
X127264962Y-87958349D01*
X127244750Y-87965581D01*
X127223926Y-87970797D01*
X127202691Y-87973947D01*
X127181250Y-87975000D01*
X126743750Y-87975000D01*
X126722309Y-87973947D01*
X126701074Y-87970797D01*
X126680250Y-87965581D01*
X126660038Y-87958349D01*
X126640632Y-87949170D01*
X126622219Y-87938134D01*
X126604976Y-87925346D01*
X126589070Y-87910930D01*
X126574654Y-87895024D01*
X126561866Y-87877781D01*
X126550830Y-87859368D01*
X126541651Y-87839962D01*
X126534419Y-87819750D01*
X126529203Y-87798926D01*
X126526053Y-87777691D01*
X126525000Y-87756250D01*
X126525000Y-87243750D01*
X126526053Y-87222309D01*
X126529203Y-87201074D01*
X126534419Y-87180250D01*
X126541651Y-87160038D01*
X126550830Y-87140632D01*
X126561866Y-87122219D01*
X126574654Y-87104976D01*
X126589070Y-87089070D01*
X126604976Y-87074654D01*
X126622219Y-87061866D01*
X126640632Y-87050830D01*
X126660038Y-87041651D01*
X126680250Y-87034419D01*
X126701074Y-87029203D01*
X126722309Y-87026053D01*
X126743750Y-87025000D01*
X127181250Y-87025000D01*
X127202691Y-87026053D01*
X127202691Y-87026053D01*
G37*
D18*
X126962500Y-87500000D03*
D19*
X99850000Y-91500000D02*
X101100000Y-90250000D01*
X95900000Y-91500000D02*
X99850000Y-91500000D01*
X101100000Y-88810000D02*
X99790000Y-87500000D01*
X101100000Y-90250000D02*
X101100000Y-88810000D01*
X105300000Y-89350000D02*
X104400000Y-90250000D01*
X105300000Y-88000000D02*
X105300000Y-89350000D01*
X108350000Y-90250000D02*
X109600000Y-91500000D01*
X104400000Y-90250000D02*
X108350000Y-90250000D01*
X142900000Y-91500000D02*
X144550000Y-91500000D01*
X145500000Y-94400000D02*
X146100000Y-95000000D01*
X145500000Y-92250000D02*
X145500000Y-94400000D01*
X144550000Y-91500000D02*
X144750000Y-91500000D01*
X144750000Y-91500000D02*
X145500000Y-92250000D01*
X139500000Y-91600000D02*
X139600000Y-91500000D01*
X139500000Y-95000000D02*
X139500000Y-91600000D01*
X142040000Y-89060000D02*
X139600000Y-91500000D01*
X142040000Y-87500000D02*
X142040000Y-89060000D01*
X123350000Y-90500000D02*
X123350000Y-93400000D01*
X120000000Y-96750000D02*
X120000000Y-97750000D01*
X123350000Y-93400000D02*
X120000000Y-96750000D01*
X122500000Y-89650000D02*
X123350000Y-90500000D01*
X122500000Y-87500000D02*
X122500000Y-89650000D01*
X127400000Y-89750000D02*
X126650000Y-90500000D01*
X128550000Y-89750000D02*
X127400000Y-89750000D01*
X130000000Y-96750000D02*
X130000000Y-97750000D01*
X126650000Y-93400000D02*
X130000000Y-96750000D01*
X126650000Y-90500000D02*
X126650000Y-93400000D01*
D20*
X146950000Y-92450000D02*
X146950000Y-92150000D01*
X146950000Y-92150000D02*
X143900000Y-89100000D01*
D19*
X104130000Y-85700000D02*
X102330000Y-87500000D01*
X104812500Y-85700000D02*
X104130000Y-85700000D01*
X146962500Y-87500000D02*
X147000000Y-87462500D01*
X144580000Y-87500000D02*
X146962500Y-87500000D01*
X126962500Y-87500000D02*
X125040000Y-87500000D01*
X106387500Y-85737500D02*
X107700000Y-87050000D01*
X106387500Y-85700000D02*
X106387500Y-85737500D01*
X146950000Y-89087500D02*
X147000000Y-89037500D01*
X146950000Y-90550000D02*
X146950000Y-89087500D01*
X129650000Y-87500000D02*
X130950000Y-88800000D01*
X128537500Y-87500000D02*
X129650000Y-87500000D01*
D21*
G36*
X147548000Y-86668680D02*
G01*
X147504158Y-86645246D01*
X147382633Y-86608382D01*
X147365372Y-86606682D01*
X147356463Y-86601920D01*
X147181723Y-86548914D01*
X146999999Y-86531016D01*
X146818277Y-86548914D01*
X146738875Y-86573000D01*
X145463393Y-86573000D01*
X145292896Y-86433076D01*
X145071051Y-86314498D01*
X144830336Y-86241478D01*
X144642726Y-86223000D01*
X144517274Y-86223000D01*
X144329664Y-86241478D01*
X144088949Y-86314498D01*
X143867104Y-86433076D01*
X143672656Y-86592656D01*
X143513076Y-86787104D01*
X143394498Y-87008949D01*
X143321478Y-87249664D01*
X143310000Y-87366202D01*
X143298522Y-87249664D01*
X143225502Y-87008949D01*
X143106924Y-86787104D01*
X142947344Y-86592656D01*
X142752896Y-86433076D01*
X142531051Y-86314498D01*
X142290336Y-86241478D01*
X142102726Y-86223000D01*
X141977274Y-86223000D01*
X141789664Y-86241478D01*
X141548949Y-86314498D01*
X141327104Y-86433076D01*
X141132656Y-86592656D01*
X140987421Y-86769625D01*
X140988072Y-86650000D01*
X140975812Y-86525518D01*
X140939502Y-86405820D01*
X140880537Y-86295506D01*
X140801185Y-86198815D01*
X140704494Y-86119463D01*
X140594180Y-86060498D01*
X140474482Y-86024188D01*
X140350000Y-86011928D01*
X139785750Y-86015000D01*
X139627000Y-86173750D01*
X139627000Y-87373000D01*
X139647000Y-87373000D01*
X139647000Y-87627000D01*
X139627000Y-87627000D01*
X139627000Y-88826250D01*
X139785750Y-88985000D01*
X140350000Y-88988072D01*
X140474482Y-88975812D01*
X140594180Y-88939502D01*
X140704494Y-88880537D01*
X140801185Y-88801185D01*
X140880537Y-88704494D01*
X140939502Y-88594180D01*
X140975812Y-88474482D01*
X140988072Y-88350000D01*
X140987421Y-88230375D01*
X141113001Y-88383394D01*
X141113001Y-88676023D01*
X139318091Y-90470934D01*
X139150000Y-90470934D01*
X139066293Y-90479178D01*
X138985804Y-90503595D01*
X138911624Y-90543245D01*
X138846605Y-90596605D01*
X138793245Y-90661624D01*
X138753595Y-90735804D01*
X138729178Y-90816293D01*
X138720934Y-90900000D01*
X138720934Y-91091035D01*
X138639420Y-91243537D01*
X138611247Y-91336413D01*
X138595168Y-91389420D01*
X138586414Y-91418277D01*
X138568516Y-91600000D01*
X138573001Y-91645537D01*
X138573000Y-93420934D01*
X138350000Y-93420934D01*
X138266293Y-93429178D01*
X138185804Y-93453595D01*
X138111624Y-93493245D01*
X138046605Y-93546605D01*
X137993245Y-93611624D01*
X137953595Y-93685804D01*
X137929178Y-93766293D01*
X137920934Y-93850000D01*
X137920934Y-96150000D01*
X137929178Y-96233707D01*
X137953595Y-96314196D01*
X137993245Y-96388376D01*
X138046605Y-96453395D01*
X138111624Y-96506755D01*
X138185804Y-96546405D01*
X138266293Y-96570822D01*
X138350000Y-96579066D01*
X140650000Y-96579066D01*
X140733707Y-96570822D01*
X140814196Y-96546405D01*
X140888376Y-96506755D01*
X140953395Y-96453395D01*
X141006755Y-96388376D01*
X141046405Y-96314196D01*
X141070822Y-96233707D01*
X141079066Y-96150000D01*
X141079066Y-93850000D01*
X141070822Y-93766293D01*
X141046405Y-93685804D01*
X141006755Y-93611624D01*
X140953395Y-93546605D01*
X140888376Y-93493245D01*
X140814196Y-93453595D01*
X140733707Y-93429178D01*
X140650000Y-93420934D01*
X140427000Y-93420934D01*
X140427000Y-92300500D01*
X140446405Y-92264196D01*
X140470822Y-92183707D01*
X140479066Y-92100000D01*
X140479066Y-91931909D01*
X142663292Y-89747684D01*
X142698659Y-89718659D01*
X142727684Y-89683292D01*
X142727688Y-89683288D01*
X142814501Y-89577506D01*
X142900580Y-89416464D01*
X142909100Y-89388376D01*
X142953587Y-89241724D01*
X142967000Y-89105538D01*
X142967000Y-89105528D01*
X142971484Y-89060001D01*
X142967000Y-89014474D01*
X142967000Y-88383393D01*
X143106924Y-88212896D01*
X143225502Y-87991051D01*
X143298522Y-87750336D01*
X143310000Y-87633798D01*
X143321478Y-87750336D01*
X143394498Y-87991051D01*
X143513076Y-88212896D01*
X143672656Y-88407344D01*
X143867104Y-88566924D01*
X144088949Y-88685502D01*
X144329664Y-88758522D01*
X144517274Y-88777000D01*
X144642726Y-88777000D01*
X144830336Y-88758522D01*
X145071051Y-88685502D01*
X145292896Y-88566924D01*
X145463393Y-88427000D01*
X146231244Y-88427000D01*
X146205111Y-88458843D01*
X146145246Y-88570842D01*
X146108382Y-88692367D01*
X146107996Y-88696283D01*
X146089420Y-88731037D01*
X146074851Y-88779066D01*
X146036414Y-88905776D01*
X146023001Y-89041962D01*
X146018516Y-89087500D01*
X146023001Y-89133037D01*
X146023000Y-90179020D01*
X146020934Y-90200000D01*
X146020934Y-90900000D01*
X146029178Y-90983707D01*
X146053595Y-91064196D01*
X146093245Y-91138376D01*
X146146605Y-91203395D01*
X146211624Y-91256755D01*
X146285804Y-91296405D01*
X146366293Y-91320822D01*
X146439011Y-91327984D01*
X146593536Y-91410580D01*
X146768276Y-91463587D01*
X146822998Y-91468977D01*
X146822998Y-91623748D01*
X146664250Y-91465000D01*
X146450000Y-91461928D01*
X146325518Y-91474188D01*
X146205820Y-91510498D01*
X146118271Y-91557295D01*
X145437687Y-90876712D01*
X145408659Y-90841341D01*
X145267505Y-90725499D01*
X145106464Y-90639420D01*
X144931724Y-90586413D01*
X144795538Y-90573000D01*
X144795527Y-90573000D01*
X144750000Y-90568516D01*
X144704473Y-90573000D01*
X143624632Y-90573000D01*
X143588376Y-90543245D01*
X143514196Y-90503595D01*
X143433707Y-90479178D01*
X143350000Y-90470934D01*
X142450000Y-90470934D01*
X142366293Y-90479178D01*
X142285804Y-90503595D01*
X142211624Y-90543245D01*
X142146605Y-90596605D01*
X142093245Y-90661624D01*
X142053595Y-90735804D01*
X142029178Y-90816293D01*
X142020934Y-90900000D01*
X142020934Y-91204476D01*
X141986413Y-91318276D01*
X141968515Y-91500000D01*
X141986413Y-91681724D01*
X142020934Y-91795524D01*
X142020934Y-92100000D01*
X142029178Y-92183707D01*
X142053595Y-92264196D01*
X142093245Y-92338376D01*
X142146605Y-92403395D01*
X142211624Y-92456755D01*
X142285804Y-92496405D01*
X142366293Y-92520822D01*
X142450000Y-92529066D01*
X143350000Y-92529066D01*
X143433707Y-92520822D01*
X143514196Y-92496405D01*
X143588376Y-92456755D01*
X143624632Y-92427000D01*
X144366025Y-92427000D01*
X144573000Y-92633976D01*
X144573001Y-93649499D01*
X144553595Y-93685804D01*
X144529178Y-93766293D01*
X144520934Y-93850000D01*
X144520934Y-96150000D01*
X144529178Y-96233707D01*
X144553595Y-96314196D01*
X144593245Y-96388376D01*
X144646605Y-96453395D01*
X144711624Y-96506755D01*
X144785804Y-96546405D01*
X144866293Y-96570822D01*
X144950000Y-96579066D01*
X147250000Y-96579066D01*
X147333707Y-96570822D01*
X147414196Y-96546405D01*
X147488376Y-96506755D01*
X147548001Y-96457822D01*
X147548001Y-100142178D01*
X147488376Y-100093245D01*
X147414196Y-100053595D01*
X147333707Y-100029178D01*
X147250000Y-100020934D01*
X144950000Y-100020934D01*
X144866293Y-100029178D01*
X144785804Y-100053595D01*
X144711624Y-100093245D01*
X144646605Y-100146605D01*
X144593245Y-100211624D01*
X144553595Y-100285804D01*
X144529178Y-100366293D01*
X144520934Y-100450000D01*
X144520934Y-102750000D01*
X144529178Y-102833707D01*
X144553595Y-102914196D01*
X144593245Y-102988376D01*
X144646605Y-103053395D01*
X144711624Y-103106755D01*
X144785804Y-103146405D01*
X144866293Y-103170822D01*
X144950000Y-103179066D01*
X147250000Y-103179066D01*
X147333707Y-103170822D01*
X147414196Y-103146405D01*
X147488376Y-103106755D01*
X147548001Y-103057822D01*
X147548001Y-103548000D01*
X110924339Y-103548000D01*
X110929066Y-103500000D01*
X110929066Y-99500000D01*
X110920822Y-99416293D01*
X110896405Y-99335804D01*
X110856755Y-99261624D01*
X110803395Y-99196605D01*
X110738376Y-99143245D01*
X110664196Y-99103595D01*
X110583707Y-99079178D01*
X110500000Y-99070934D01*
X108700000Y-99070934D01*
X108616293Y-99079178D01*
X108535804Y-99103595D01*
X108461624Y-99143245D01*
X108396605Y-99196605D01*
X108343245Y-99261624D01*
X108303595Y-99335804D01*
X108279178Y-99416293D01*
X108270934Y-99500000D01*
X108270934Y-103500000D01*
X108275661Y-103548000D01*
X97224339Y-103548000D01*
X97229066Y-103500000D01*
X97229066Y-99500000D01*
X97220822Y-99416293D01*
X97196405Y-99335804D01*
X97156755Y-99261624D01*
X97103395Y-99196605D01*
X97038376Y-99143245D01*
X96964196Y-99103595D01*
X96883707Y-99079178D01*
X96800000Y-99070934D01*
X95000000Y-99070934D01*
X94916293Y-99079178D01*
X94835804Y-99103595D01*
X94761624Y-99143245D01*
X94696605Y-99196605D01*
X94643245Y-99261624D01*
X94603595Y-99335804D01*
X94579178Y-99416293D01*
X94570934Y-99500000D01*
X94570934Y-103500000D01*
X94575661Y-103548000D01*
X94452000Y-103548000D01*
X94452000Y-94750000D01*
X117570934Y-94750000D01*
X117570934Y-100750000D01*
X117579178Y-100833707D01*
X117603595Y-100914196D01*
X117643245Y-100988376D01*
X117696605Y-101053395D01*
X117761624Y-101106755D01*
X117835804Y-101146405D01*
X117916293Y-101170822D01*
X118000000Y-101179066D01*
X122000000Y-101179066D01*
X122083707Y-101170822D01*
X122164196Y-101146405D01*
X122238376Y-101106755D01*
X122303395Y-101053395D01*
X122356755Y-100988376D01*
X122396405Y-100914196D01*
X122420822Y-100833707D01*
X122429066Y-100750000D01*
X122429066Y-95631910D01*
X123973292Y-94087684D01*
X124008659Y-94058659D01*
X124037684Y-94023292D01*
X124037687Y-94023289D01*
X124124501Y-93917506D01*
X124170511Y-93831427D01*
X124210580Y-93756464D01*
X124263587Y-93581724D01*
X124277000Y-93445538D01*
X124277000Y-93445526D01*
X124281484Y-93400001D01*
X124277000Y-93354476D01*
X124277000Y-90545527D01*
X124281484Y-90500000D01*
X125718516Y-90500000D01*
X125723000Y-90545528D01*
X125723001Y-93354463D01*
X125718516Y-93400000D01*
X125723001Y-93445537D01*
X125723001Y-93445538D01*
X125732248Y-93539420D01*
X125736414Y-93581723D01*
X125789420Y-93756463D01*
X125875499Y-93917505D01*
X125962312Y-94023287D01*
X125962317Y-94023292D01*
X125991342Y-94058659D01*
X126026708Y-94087683D01*
X127570934Y-95631909D01*
X127570934Y-100750000D01*
X127579178Y-100833707D01*
X127603595Y-100914196D01*
X127643245Y-100988376D01*
X127696605Y-101053395D01*
X127761624Y-101106755D01*
X127835804Y-101146405D01*
X127916293Y-101170822D01*
X128000000Y-101179066D01*
X132000000Y-101179066D01*
X132083707Y-101170822D01*
X132164196Y-101146405D01*
X132238376Y-101106755D01*
X132303395Y-101053395D01*
X132356755Y-100988376D01*
X132396405Y-100914196D01*
X132420822Y-100833707D01*
X132429066Y-100750000D01*
X132429066Y-94750000D01*
X132420822Y-94666293D01*
X132396405Y-94585804D01*
X132356755Y-94511624D01*
X132303395Y-94446605D01*
X132238376Y-94393245D01*
X132164196Y-94353595D01*
X132083707Y-94329178D01*
X132000000Y-94320934D01*
X128881909Y-94320934D01*
X127577000Y-93016025D01*
X127577000Y-91050000D01*
X129811928Y-91050000D01*
X129824188Y-91174482D01*
X129860498Y-91294180D01*
X129919463Y-91404494D01*
X129998815Y-91501185D01*
X130095506Y-91580537D01*
X130205820Y-91639502D01*
X130325518Y-91675812D01*
X130450000Y-91688072D01*
X130664250Y-91685000D01*
X130823000Y-91526250D01*
X130823000Y-90827000D01*
X131077000Y-90827000D01*
X131077000Y-91526250D01*
X131235750Y-91685000D01*
X131450000Y-91688072D01*
X131574482Y-91675812D01*
X131694180Y-91639502D01*
X131804494Y-91580537D01*
X131901185Y-91501185D01*
X131980537Y-91404494D01*
X132039502Y-91294180D01*
X132075812Y-91174482D01*
X132088072Y-91050000D01*
X132085000Y-90985750D01*
X131926250Y-90827000D01*
X131077000Y-90827000D01*
X130823000Y-90827000D01*
X129973750Y-90827000D01*
X129815000Y-90985750D01*
X129811928Y-91050000D01*
X127577000Y-91050000D01*
X127577000Y-90883975D01*
X127783976Y-90677000D01*
X128595538Y-90677000D01*
X128731724Y-90663587D01*
X128906464Y-90610580D01*
X129060989Y-90527984D01*
X129133707Y-90520822D01*
X129214196Y-90496405D01*
X129288376Y-90456755D01*
X129353395Y-90403395D01*
X129406755Y-90338376D01*
X129446405Y-90264196D01*
X129470822Y-90183707D01*
X129479066Y-90100000D01*
X129479066Y-89774561D01*
X129481485Y-89750000D01*
X129479066Y-89725439D01*
X129479066Y-89400000D01*
X129470822Y-89316293D01*
X129446405Y-89235804D01*
X129406755Y-89161624D01*
X129353395Y-89096605D01*
X129288376Y-89043245D01*
X129214196Y-89003595D01*
X129133707Y-88979178D01*
X129060989Y-88972016D01*
X128906464Y-88889420D01*
X128731724Y-88836413D01*
X128595538Y-88823000D01*
X127445526Y-88823000D01*
X127399999Y-88818516D01*
X127354472Y-88823000D01*
X127354462Y-88823000D01*
X127218276Y-88836413D01*
X127043536Y-88889420D01*
X126949840Y-88939502D01*
X126882494Y-88975499D01*
X126776712Y-89062312D01*
X126776708Y-89062316D01*
X126741341Y-89091341D01*
X126712316Y-89126708D01*
X126368091Y-89470934D01*
X126200000Y-89470934D01*
X126116293Y-89479178D01*
X126035804Y-89503595D01*
X125961624Y-89543245D01*
X125896605Y-89596605D01*
X125843245Y-89661624D01*
X125803595Y-89735804D01*
X125779178Y-89816293D01*
X125770934Y-89900000D01*
X125770934Y-90204477D01*
X125736413Y-90318277D01*
X125723000Y-90454463D01*
X125723000Y-90454473D01*
X125718516Y-90500000D01*
X124281484Y-90500000D01*
X124277000Y-90454473D01*
X124277000Y-90454462D01*
X124263587Y-90318276D01*
X124229066Y-90204476D01*
X124229066Y-89900000D01*
X124220822Y-89816293D01*
X124196405Y-89735804D01*
X124156755Y-89661624D01*
X124103395Y-89596605D01*
X124038376Y-89543245D01*
X123964196Y-89503595D01*
X123883707Y-89479178D01*
X123800000Y-89470934D01*
X123631910Y-89470934D01*
X123427000Y-89266025D01*
X123427000Y-88383393D01*
X123566924Y-88212896D01*
X123685502Y-87991051D01*
X123758522Y-87750336D01*
X123770000Y-87633798D01*
X123781478Y-87750336D01*
X123854498Y-87991051D01*
X123973076Y-88212896D01*
X124132656Y-88407344D01*
X124327104Y-88566924D01*
X124548949Y-88685502D01*
X124789664Y-88758522D01*
X124977274Y-88777000D01*
X125102726Y-88777000D01*
X125290336Y-88758522D01*
X125531051Y-88685502D01*
X125752896Y-88566924D01*
X125923393Y-88427000D01*
X127008038Y-88427000D01*
X127144224Y-88413587D01*
X127175610Y-88404066D01*
X127181250Y-88404066D01*
X127307633Y-88391618D01*
X127429158Y-88354754D01*
X127541157Y-88294889D01*
X127639325Y-88214325D01*
X127719889Y-88116157D01*
X127750000Y-88059824D01*
X127780111Y-88116157D01*
X127860675Y-88214325D01*
X127958843Y-88294889D01*
X128070842Y-88354754D01*
X128192367Y-88391618D01*
X128318750Y-88404066D01*
X128324390Y-88404066D01*
X128355776Y-88413587D01*
X128491962Y-88427000D01*
X129266025Y-88427000D01*
X130024420Y-89185396D01*
X130029178Y-89233707D01*
X130053595Y-89314196D01*
X130093245Y-89388376D01*
X130146605Y-89453395D01*
X130211624Y-89506755D01*
X130285804Y-89546405D01*
X130366293Y-89570822D01*
X130439007Y-89577983D01*
X130593536Y-89660580D01*
X130768276Y-89713586D01*
X130822998Y-89718976D01*
X130822998Y-89873748D01*
X130664250Y-89715000D01*
X130450000Y-89711928D01*
X130325518Y-89724188D01*
X130205820Y-89760498D01*
X130095506Y-89819463D01*
X129998815Y-89898815D01*
X129919463Y-89995506D01*
X129860498Y-90105820D01*
X129824188Y-90225518D01*
X129811928Y-90350000D01*
X129815000Y-90414250D01*
X129973750Y-90573000D01*
X130823000Y-90573000D01*
X130823000Y-90553000D01*
X131077000Y-90553000D01*
X131077000Y-90573000D01*
X131926250Y-90573000D01*
X132085000Y-90414250D01*
X132088072Y-90350000D01*
X132075812Y-90225518D01*
X132039502Y-90105820D01*
X131980537Y-89995506D01*
X131901185Y-89898815D01*
X131804494Y-89819463D01*
X131694180Y-89760498D01*
X131574482Y-89724188D01*
X131450000Y-89711928D01*
X131235750Y-89715000D01*
X131077002Y-89873748D01*
X131077002Y-89718976D01*
X131131723Y-89713586D01*
X131306464Y-89660580D01*
X131460992Y-89577983D01*
X131533707Y-89570822D01*
X131614196Y-89546405D01*
X131688376Y-89506755D01*
X131753395Y-89453395D01*
X131806755Y-89388376D01*
X131846405Y-89314196D01*
X131870822Y-89233707D01*
X131879066Y-89150000D01*
X131879066Y-88824551D01*
X131881484Y-88800000D01*
X131879066Y-88775449D01*
X131879066Y-88450000D01*
X131870822Y-88366293D01*
X131865880Y-88350000D01*
X138011928Y-88350000D01*
X138024188Y-88474482D01*
X138060498Y-88594180D01*
X138119463Y-88704494D01*
X138198815Y-88801185D01*
X138295506Y-88880537D01*
X138405820Y-88939502D01*
X138525518Y-88975812D01*
X138650000Y-88988072D01*
X139214250Y-88985000D01*
X139373000Y-88826250D01*
X139373000Y-87627000D01*
X138173750Y-87627000D01*
X138015000Y-87785750D01*
X138011928Y-88350000D01*
X131865880Y-88350000D01*
X131846405Y-88285804D01*
X131806755Y-88211624D01*
X131753395Y-88146605D01*
X131688376Y-88093245D01*
X131614196Y-88053595D01*
X131533707Y-88029178D01*
X131485396Y-88024420D01*
X130337688Y-86876713D01*
X130308659Y-86841341D01*
X130167505Y-86725499D01*
X130026258Y-86650000D01*
X138011928Y-86650000D01*
X138015000Y-87214250D01*
X138173750Y-87373000D01*
X139373000Y-87373000D01*
X139373000Y-86173750D01*
X139214250Y-86015000D01*
X138650000Y-86011928D01*
X138525518Y-86024188D01*
X138405820Y-86060498D01*
X138295506Y-86119463D01*
X138198815Y-86198815D01*
X138119463Y-86295506D01*
X138060498Y-86405820D01*
X138024188Y-86525518D01*
X138011928Y-86650000D01*
X130026258Y-86650000D01*
X130006464Y-86639420D01*
X129831724Y-86586413D01*
X129695538Y-86573000D01*
X129695527Y-86573000D01*
X129650000Y-86568516D01*
X129604473Y-86573000D01*
X128491962Y-86573000D01*
X128355776Y-86586413D01*
X128324390Y-86595934D01*
X128318750Y-86595934D01*
X128192367Y-86608382D01*
X128070842Y-86645246D01*
X127958843Y-86705111D01*
X127860675Y-86785675D01*
X127780111Y-86883843D01*
X127750000Y-86940176D01*
X127719889Y-86883843D01*
X127639325Y-86785675D01*
X127541157Y-86705111D01*
X127429158Y-86645246D01*
X127307633Y-86608382D01*
X127181250Y-86595934D01*
X127175610Y-86595934D01*
X127144224Y-86586413D01*
X127008038Y-86573000D01*
X125923393Y-86573000D01*
X125752896Y-86433076D01*
X125531051Y-86314498D01*
X125290336Y-86241478D01*
X125102726Y-86223000D01*
X124977274Y-86223000D01*
X124789664Y-86241478D01*
X124548949Y-86314498D01*
X124327104Y-86433076D01*
X124132656Y-86592656D01*
X123973076Y-86787104D01*
X123854498Y-87008949D01*
X123781478Y-87249664D01*
X123770000Y-87366202D01*
X123758522Y-87249664D01*
X123685502Y-87008949D01*
X123566924Y-86787104D01*
X123407344Y-86592656D01*
X123212896Y-86433076D01*
X122991051Y-86314498D01*
X122750336Y-86241478D01*
X122562726Y-86223000D01*
X122437274Y-86223000D01*
X122249664Y-86241478D01*
X122008949Y-86314498D01*
X121787104Y-86433076D01*
X121592656Y-86592656D01*
X121447421Y-86769625D01*
X121448072Y-86650000D01*
X121435812Y-86525518D01*
X121399502Y-86405820D01*
X121340537Y-86295506D01*
X121261185Y-86198815D01*
X121164494Y-86119463D01*
X121054180Y-86060498D01*
X120934482Y-86024188D01*
X120810000Y-86011928D01*
X120245750Y-86015000D01*
X120087000Y-86173750D01*
X120087000Y-87373000D01*
X120107000Y-87373000D01*
X120107000Y-87627000D01*
X120087000Y-87627000D01*
X120087000Y-88826250D01*
X120245750Y-88985000D01*
X120810000Y-88988072D01*
X120934482Y-88975812D01*
X121054180Y-88939502D01*
X121164494Y-88880537D01*
X121261185Y-88801185D01*
X121340537Y-88704494D01*
X121399502Y-88594180D01*
X121435812Y-88474482D01*
X121448072Y-88350000D01*
X121447421Y-88230375D01*
X121573000Y-88383394D01*
X121573001Y-89604463D01*
X121568516Y-89650000D01*
X121573001Y-89695537D01*
X121573001Y-89695538D01*
X121586414Y-89831724D01*
X121600061Y-89876712D01*
X121639420Y-90006463D01*
X121725499Y-90167505D01*
X121812312Y-90273287D01*
X121812317Y-90273292D01*
X121841342Y-90308659D01*
X121876708Y-90337683D01*
X122423000Y-90883976D01*
X122423001Y-93016023D01*
X121118090Y-94320934D01*
X118000000Y-94320934D01*
X117916293Y-94329178D01*
X117835804Y-94353595D01*
X117761624Y-94393245D01*
X117696605Y-94446605D01*
X117643245Y-94511624D01*
X117603595Y-94585804D01*
X117579178Y-94666293D01*
X117570934Y-94750000D01*
X94452000Y-94750000D01*
X94452000Y-89500000D01*
X94570934Y-89500000D01*
X94570934Y-93500000D01*
X94579178Y-93583707D01*
X94603595Y-93664196D01*
X94643245Y-93738376D01*
X94696605Y-93803395D01*
X94761624Y-93856755D01*
X94835804Y-93896405D01*
X94916293Y-93920822D01*
X95000000Y-93929066D01*
X96800000Y-93929066D01*
X96883707Y-93920822D01*
X96964196Y-93896405D01*
X97038376Y-93856755D01*
X97103395Y-93803395D01*
X97156755Y-93738376D01*
X97196405Y-93664196D01*
X97220822Y-93583707D01*
X97229066Y-93500000D01*
X97229066Y-92427000D01*
X99804473Y-92427000D01*
X99850000Y-92431484D01*
X99895527Y-92427000D01*
X99895538Y-92427000D01*
X100031724Y-92413587D01*
X100206464Y-92360580D01*
X100367505Y-92274501D01*
X100508659Y-92158659D01*
X100537688Y-92123287D01*
X101381910Y-91279066D01*
X101550000Y-91279066D01*
X101633707Y-91270822D01*
X101714196Y-91246405D01*
X101788376Y-91206755D01*
X101853395Y-91153395D01*
X101906755Y-91088376D01*
X101946405Y-91014196D01*
X101970822Y-90933707D01*
X101979066Y-90850000D01*
X101979066Y-90545524D01*
X102013587Y-90431724D01*
X102027000Y-90295538D01*
X102027000Y-90295527D01*
X102031484Y-90250000D01*
X103468515Y-90250000D01*
X103486413Y-90431724D01*
X103520934Y-90545524D01*
X103520934Y-90850000D01*
X103529178Y-90933707D01*
X103553595Y-91014196D01*
X103593245Y-91088376D01*
X103646605Y-91153395D01*
X103711624Y-91206755D01*
X103785804Y-91246405D01*
X103866293Y-91270822D01*
X103950000Y-91279066D01*
X104850000Y-91279066D01*
X104933707Y-91270822D01*
X105014196Y-91246405D01*
X105088376Y-91206755D01*
X105124632Y-91177000D01*
X107966025Y-91177000D01*
X108270934Y-91481909D01*
X108270934Y-93500000D01*
X108279178Y-93583707D01*
X108303595Y-93664196D01*
X108343245Y-93738376D01*
X108396605Y-93803395D01*
X108461624Y-93856755D01*
X108535804Y-93896405D01*
X108616293Y-93920822D01*
X108700000Y-93929066D01*
X110500000Y-93929066D01*
X110583707Y-93920822D01*
X110664196Y-93896405D01*
X110738376Y-93856755D01*
X110803395Y-93803395D01*
X110856755Y-93738376D01*
X110896405Y-93664196D01*
X110920822Y-93583707D01*
X110929066Y-93500000D01*
X110929066Y-89500000D01*
X110920822Y-89416293D01*
X110896405Y-89335804D01*
X110856755Y-89261624D01*
X110803395Y-89196605D01*
X110738376Y-89143245D01*
X110664196Y-89103595D01*
X110583707Y-89079178D01*
X110500000Y-89070934D01*
X108700000Y-89070934D01*
X108638408Y-89077000D01*
X107827000Y-89077000D01*
X107827000Y-89097000D01*
X107573000Y-89097000D01*
X107573000Y-89077000D01*
X106723750Y-89077000D01*
X106565000Y-89235750D01*
X106561928Y-89300000D01*
X106564193Y-89323000D01*
X106228825Y-89323000D01*
X106227000Y-89304474D01*
X106227000Y-88370978D01*
X106229066Y-88350000D01*
X106229066Y-87650000D01*
X106220822Y-87566293D01*
X106196405Y-87485804D01*
X106156755Y-87411624D01*
X106103395Y-87346605D01*
X106038376Y-87293245D01*
X105964196Y-87253595D01*
X105883707Y-87229178D01*
X105810988Y-87222016D01*
X105656463Y-87139420D01*
X105481723Y-87086413D01*
X105300000Y-87068515D01*
X105118276Y-87086413D01*
X104943536Y-87139420D01*
X104789011Y-87222016D01*
X104716293Y-87229178D01*
X104635804Y-87253595D01*
X104561624Y-87293245D01*
X104496605Y-87346605D01*
X104443245Y-87411624D01*
X104403595Y-87485804D01*
X104379178Y-87566293D01*
X104370934Y-87650000D01*
X104370934Y-88350000D01*
X104373000Y-88370980D01*
X104373001Y-88966024D01*
X104118091Y-89220934D01*
X103950000Y-89220934D01*
X103866293Y-89229178D01*
X103785804Y-89253595D01*
X103711624Y-89293245D01*
X103646605Y-89346605D01*
X103593245Y-89411624D01*
X103553595Y-89485804D01*
X103529178Y-89566293D01*
X103520934Y-89650000D01*
X103520934Y-89954476D01*
X103486413Y-90068276D01*
X103468515Y-90250000D01*
X102031484Y-90250000D01*
X102027000Y-90204473D01*
X102027000Y-88855527D01*
X102031484Y-88810000D01*
X102027000Y-88764473D01*
X102027000Y-88764462D01*
X102024775Y-88741872D01*
X102079664Y-88758522D01*
X102267274Y-88777000D01*
X102392726Y-88777000D01*
X102580336Y-88758522D01*
X102821051Y-88685502D01*
X103042896Y-88566924D01*
X103237344Y-88407344D01*
X103396924Y-88212896D01*
X103515502Y-87991051D01*
X103588522Y-87750336D01*
X103610141Y-87530834D01*
X104513976Y-86627000D01*
X104858038Y-86627000D01*
X104994224Y-86613587D01*
X105025610Y-86604066D01*
X105031250Y-86604066D01*
X105157633Y-86591618D01*
X105279158Y-86554754D01*
X105391157Y-86494889D01*
X105489325Y-86414325D01*
X105569889Y-86316157D01*
X105600000Y-86259824D01*
X105630111Y-86316157D01*
X105710675Y-86414325D01*
X105808843Y-86494889D01*
X105862703Y-86523678D01*
X106774420Y-87435396D01*
X106779178Y-87483707D01*
X106803595Y-87564196D01*
X106843245Y-87638376D01*
X106896605Y-87703395D01*
X106961624Y-87756755D01*
X107035804Y-87796405D01*
X107116293Y-87820822D01*
X107189009Y-87827984D01*
X107343535Y-87910579D01*
X107518276Y-87963585D01*
X107572998Y-87968975D01*
X107572998Y-88123748D01*
X107414250Y-87965000D01*
X107200000Y-87961928D01*
X107075518Y-87974188D01*
X106955820Y-88010498D01*
X106845506Y-88069463D01*
X106748815Y-88148815D01*
X106669463Y-88245506D01*
X106610498Y-88355820D01*
X106574188Y-88475518D01*
X106561928Y-88600000D01*
X106565000Y-88664250D01*
X106723750Y-88823000D01*
X107573000Y-88823000D01*
X107573000Y-88803000D01*
X107827000Y-88803000D01*
X107827000Y-88823000D01*
X108676250Y-88823000D01*
X108835000Y-88664250D01*
X108838072Y-88600000D01*
X108825812Y-88475518D01*
X108789502Y-88355820D01*
X108786392Y-88350000D01*
X118471928Y-88350000D01*
X118484188Y-88474482D01*
X118520498Y-88594180D01*
X118579463Y-88704494D01*
X118658815Y-88801185D01*
X118755506Y-88880537D01*
X118865820Y-88939502D01*
X118985518Y-88975812D01*
X119110000Y-88988072D01*
X119674250Y-88985000D01*
X119833000Y-88826250D01*
X119833000Y-87627000D01*
X118633750Y-87627000D01*
X118475000Y-87785750D01*
X118471928Y-88350000D01*
X108786392Y-88350000D01*
X108730537Y-88245506D01*
X108651185Y-88148815D01*
X108554494Y-88069463D01*
X108444180Y-88010498D01*
X108324482Y-87974188D01*
X108200000Y-87961928D01*
X107985750Y-87965000D01*
X107827002Y-88123748D01*
X107827002Y-87968975D01*
X107881723Y-87963585D01*
X108056463Y-87910579D01*
X108210989Y-87827984D01*
X108283707Y-87820822D01*
X108364196Y-87796405D01*
X108438376Y-87756755D01*
X108503395Y-87703395D01*
X108556755Y-87638376D01*
X108596405Y-87564196D01*
X108620822Y-87483707D01*
X108629066Y-87400000D01*
X108629066Y-87074548D01*
X108631484Y-87049999D01*
X108629066Y-87025450D01*
X108629066Y-86700000D01*
X108624142Y-86650000D01*
X118471928Y-86650000D01*
X118475000Y-87214250D01*
X118633750Y-87373000D01*
X119833000Y-87373000D01*
X119833000Y-86173750D01*
X119674250Y-86015000D01*
X119110000Y-86011928D01*
X118985518Y-86024188D01*
X118865820Y-86060498D01*
X118755506Y-86119463D01*
X118658815Y-86198815D01*
X118579463Y-86295506D01*
X118520498Y-86405820D01*
X118484188Y-86525518D01*
X118471928Y-86650000D01*
X108624142Y-86650000D01*
X108620822Y-86616293D01*
X108596405Y-86535804D01*
X108556755Y-86461624D01*
X108503395Y-86396605D01*
X108438376Y-86343245D01*
X108364196Y-86303595D01*
X108283707Y-86279178D01*
X108235396Y-86274420D01*
X107225627Y-85264652D01*
X107204754Y-85195842D01*
X107144889Y-85083843D01*
X107064325Y-84985675D01*
X106966157Y-84905111D01*
X106854158Y-84845246D01*
X106732633Y-84808382D01*
X106606250Y-84795934D01*
X106600609Y-84795934D01*
X106569223Y-84786413D01*
X106387500Y-84768515D01*
X106205776Y-84786413D01*
X106174390Y-84795934D01*
X106168750Y-84795934D01*
X106042367Y-84808382D01*
X105920842Y-84845246D01*
X105808843Y-84905111D01*
X105710675Y-84985675D01*
X105630111Y-85083843D01*
X105600000Y-85140176D01*
X105569889Y-85083843D01*
X105489325Y-84985675D01*
X105391157Y-84905111D01*
X105279158Y-84845246D01*
X105157633Y-84808382D01*
X105031250Y-84795934D01*
X105025610Y-84795934D01*
X104994224Y-84786413D01*
X104858038Y-84773000D01*
X104175524Y-84773000D01*
X104129999Y-84768516D01*
X104084474Y-84773000D01*
X104084462Y-84773000D01*
X103948276Y-84786413D01*
X103773536Y-84839420D01*
X103703379Y-84876920D01*
X103612494Y-84925499D01*
X103506711Y-85012313D01*
X103506708Y-85012316D01*
X103471341Y-85041341D01*
X103442316Y-85076708D01*
X102296025Y-86223000D01*
X102267274Y-86223000D01*
X102079664Y-86241478D01*
X101838949Y-86314498D01*
X101617104Y-86433076D01*
X101422656Y-86592656D01*
X101263076Y-86787104D01*
X101144498Y-87008949D01*
X101071478Y-87249664D01*
X101060000Y-87366202D01*
X101048522Y-87249664D01*
X100975502Y-87008949D01*
X100856924Y-86787104D01*
X100697344Y-86592656D01*
X100502896Y-86433076D01*
X100281051Y-86314498D01*
X100040336Y-86241478D01*
X99852726Y-86223000D01*
X99727274Y-86223000D01*
X99539664Y-86241478D01*
X99298949Y-86314498D01*
X99077104Y-86433076D01*
X98882656Y-86592656D01*
X98737421Y-86769625D01*
X98738072Y-86650000D01*
X98725812Y-86525518D01*
X98689502Y-86405820D01*
X98630537Y-86295506D01*
X98551185Y-86198815D01*
X98454494Y-86119463D01*
X98344180Y-86060498D01*
X98224482Y-86024188D01*
X98100000Y-86011928D01*
X97535750Y-86015000D01*
X97377000Y-86173750D01*
X97377000Y-87373000D01*
X97397000Y-87373000D01*
X97397000Y-87627000D01*
X97377000Y-87627000D01*
X97377000Y-88826250D01*
X97535750Y-88985000D01*
X98100000Y-88988072D01*
X98224482Y-88975812D01*
X98344180Y-88939502D01*
X98454494Y-88880537D01*
X98551185Y-88801185D01*
X98630537Y-88704494D01*
X98689502Y-88594180D01*
X98725812Y-88474482D01*
X98738072Y-88350000D01*
X98737421Y-88230375D01*
X98882656Y-88407344D01*
X99077104Y-88566924D01*
X99298949Y-88685502D01*
X99539664Y-88758522D01*
X99727274Y-88777000D01*
X99756025Y-88777000D01*
X100173001Y-89193976D01*
X100173000Y-89866024D01*
X99466025Y-90573000D01*
X97229066Y-90573000D01*
X97229066Y-89500000D01*
X97220822Y-89416293D01*
X97196405Y-89335804D01*
X97156755Y-89261624D01*
X97103395Y-89196605D01*
X97038376Y-89143245D01*
X96964196Y-89103595D01*
X96883707Y-89079178D01*
X96800000Y-89070934D01*
X95000000Y-89070934D01*
X94916293Y-89079178D01*
X94835804Y-89103595D01*
X94761624Y-89143245D01*
X94696605Y-89196605D01*
X94643245Y-89261624D01*
X94603595Y-89335804D01*
X94579178Y-89416293D01*
X94570934Y-89500000D01*
X94452000Y-89500000D01*
X94452000Y-88350000D01*
X95761928Y-88350000D01*
X95774188Y-88474482D01*
X95810498Y-88594180D01*
X95869463Y-88704494D01*
X95948815Y-88801185D01*
X96045506Y-88880537D01*
X96155820Y-88939502D01*
X96275518Y-88975812D01*
X96400000Y-88988072D01*
X96964250Y-88985000D01*
X97123000Y-88826250D01*
X97123000Y-87627000D01*
X95923750Y-87627000D01*
X95765000Y-87785750D01*
X95761928Y-88350000D01*
X94452000Y-88350000D01*
X94452000Y-86650000D01*
X95761928Y-86650000D01*
X95765000Y-87214250D01*
X95923750Y-87373000D01*
X97123000Y-87373000D01*
X97123000Y-86173750D01*
X96964250Y-86015000D01*
X96400000Y-86011928D01*
X96275518Y-86024188D01*
X96155820Y-86060498D01*
X96045506Y-86119463D01*
X95948815Y-86198815D01*
X95869463Y-86295506D01*
X95810498Y-86405820D01*
X95774188Y-86525518D01*
X95761928Y-86650000D01*
X94452000Y-86650000D01*
X94452000Y-84452000D01*
X147548000Y-84452000D01*
X147548000Y-86668680D01*
X147548000Y-86668680D01*
G37*
X147548000Y-86668680D02*
X147504158Y-86645246D01*
X147382633Y-86608382D01*
X147365372Y-86606682D01*
X147356463Y-86601920D01*
X147181723Y-86548914D01*
X146999999Y-86531016D01*
X146818277Y-86548914D01*
X146738875Y-86573000D01*
X145463393Y-86573000D01*
X145292896Y-86433076D01*
X145071051Y-86314498D01*
X144830336Y-86241478D01*
X144642726Y-86223000D01*
X144517274Y-86223000D01*
X144329664Y-86241478D01*
X144088949Y-86314498D01*
X143867104Y-86433076D01*
X143672656Y-86592656D01*
X143513076Y-86787104D01*
X143394498Y-87008949D01*
X143321478Y-87249664D01*
X143310000Y-87366202D01*
X143298522Y-87249664D01*
X143225502Y-87008949D01*
X143106924Y-86787104D01*
X142947344Y-86592656D01*
X142752896Y-86433076D01*
X142531051Y-86314498D01*
X142290336Y-86241478D01*
X142102726Y-86223000D01*
X141977274Y-86223000D01*
X141789664Y-86241478D01*
X141548949Y-86314498D01*
X141327104Y-86433076D01*
X141132656Y-86592656D01*
X140987421Y-86769625D01*
X140988072Y-86650000D01*
X140975812Y-86525518D01*
X140939502Y-86405820D01*
X140880537Y-86295506D01*
X140801185Y-86198815D01*
X140704494Y-86119463D01*
X140594180Y-86060498D01*
X140474482Y-86024188D01*
X140350000Y-86011928D01*
X139785750Y-86015000D01*
X139627000Y-86173750D01*
X139627000Y-87373000D01*
X139647000Y-87373000D01*
X139647000Y-87627000D01*
X139627000Y-87627000D01*
X139627000Y-88826250D01*
X139785750Y-88985000D01*
X140350000Y-88988072D01*
X140474482Y-88975812D01*
X140594180Y-88939502D01*
X140704494Y-88880537D01*
X140801185Y-88801185D01*
X140880537Y-88704494D01*
X140939502Y-88594180D01*
X140975812Y-88474482D01*
X140988072Y-88350000D01*
X140987421Y-88230375D01*
X141113001Y-88383394D01*
X141113001Y-88676023D01*
X139318091Y-90470934D01*
X139150000Y-90470934D01*
X139066293Y-90479178D01*
X138985804Y-90503595D01*
X138911624Y-90543245D01*
X138846605Y-90596605D01*
X138793245Y-90661624D01*
X138753595Y-90735804D01*
X138729178Y-90816293D01*
X138720934Y-90900000D01*
X138720934Y-91091035D01*
X138639420Y-91243537D01*
X138611247Y-91336413D01*
X138595168Y-91389420D01*
X138586414Y-91418277D01*
X138568516Y-91600000D01*
X138573001Y-91645537D01*
X138573000Y-93420934D01*
X138350000Y-93420934D01*
X138266293Y-93429178D01*
X138185804Y-93453595D01*
X138111624Y-93493245D01*
X138046605Y-93546605D01*
X137993245Y-93611624D01*
X137953595Y-93685804D01*
X137929178Y-93766293D01*
X137920934Y-93850000D01*
X137920934Y-96150000D01*
X137929178Y-96233707D01*
X137953595Y-96314196D01*
X137993245Y-96388376D01*
X138046605Y-96453395D01*
X138111624Y-96506755D01*
X138185804Y-96546405D01*
X138266293Y-96570822D01*
X138350000Y-96579066D01*
X140650000Y-96579066D01*
X140733707Y-96570822D01*
X140814196Y-96546405D01*
X140888376Y-96506755D01*
X140953395Y-96453395D01*
X141006755Y-96388376D01*
X141046405Y-96314196D01*
X141070822Y-96233707D01*
X141079066Y-96150000D01*
X141079066Y-93850000D01*
X141070822Y-93766293D01*
X141046405Y-93685804D01*
X141006755Y-93611624D01*
X140953395Y-93546605D01*
X140888376Y-93493245D01*
X140814196Y-93453595D01*
X140733707Y-93429178D01*
X140650000Y-93420934D01*
X140427000Y-93420934D01*
X140427000Y-92300500D01*
X140446405Y-92264196D01*
X140470822Y-92183707D01*
X140479066Y-92100000D01*
X140479066Y-91931909D01*
X142663292Y-89747684D01*
X142698659Y-89718659D01*
X142727684Y-89683292D01*
X142727688Y-89683288D01*
X142814501Y-89577506D01*
X142900580Y-89416464D01*
X142909100Y-89388376D01*
X142953587Y-89241724D01*
X142967000Y-89105538D01*
X142967000Y-89105528D01*
X142971484Y-89060001D01*
X142967000Y-89014474D01*
X142967000Y-88383393D01*
X143106924Y-88212896D01*
X143225502Y-87991051D01*
X143298522Y-87750336D01*
X143310000Y-87633798D01*
X143321478Y-87750336D01*
X143394498Y-87991051D01*
X143513076Y-88212896D01*
X143672656Y-88407344D01*
X143867104Y-88566924D01*
X144088949Y-88685502D01*
X144329664Y-88758522D01*
X144517274Y-88777000D01*
X144642726Y-88777000D01*
X144830336Y-88758522D01*
X145071051Y-88685502D01*
X145292896Y-88566924D01*
X145463393Y-88427000D01*
X146231244Y-88427000D01*
X146205111Y-88458843D01*
X146145246Y-88570842D01*
X146108382Y-88692367D01*
X146107996Y-88696283D01*
X146089420Y-88731037D01*
X146074851Y-88779066D01*
X146036414Y-88905776D01*
X146023001Y-89041962D01*
X146018516Y-89087500D01*
X146023001Y-89133037D01*
X146023000Y-90179020D01*
X146020934Y-90200000D01*
X146020934Y-90900000D01*
X146029178Y-90983707D01*
X146053595Y-91064196D01*
X146093245Y-91138376D01*
X146146605Y-91203395D01*
X146211624Y-91256755D01*
X146285804Y-91296405D01*
X146366293Y-91320822D01*
X146439011Y-91327984D01*
X146593536Y-91410580D01*
X146768276Y-91463587D01*
X146822998Y-91468977D01*
X146822998Y-91623748D01*
X146664250Y-91465000D01*
X146450000Y-91461928D01*
X146325518Y-91474188D01*
X146205820Y-91510498D01*
X146118271Y-91557295D01*
X145437687Y-90876712D01*
X145408659Y-90841341D01*
X145267505Y-90725499D01*
X145106464Y-90639420D01*
X144931724Y-90586413D01*
X144795538Y-90573000D01*
X144795527Y-90573000D01*
X144750000Y-90568516D01*
X144704473Y-90573000D01*
X143624632Y-90573000D01*
X143588376Y-90543245D01*
X143514196Y-90503595D01*
X143433707Y-90479178D01*
X143350000Y-90470934D01*
X142450000Y-90470934D01*
X142366293Y-90479178D01*
X142285804Y-90503595D01*
X142211624Y-90543245D01*
X142146605Y-90596605D01*
X142093245Y-90661624D01*
X142053595Y-90735804D01*
X142029178Y-90816293D01*
X142020934Y-90900000D01*
X142020934Y-91204476D01*
X141986413Y-91318276D01*
X141968515Y-91500000D01*
X141986413Y-91681724D01*
X142020934Y-91795524D01*
X142020934Y-92100000D01*
X142029178Y-92183707D01*
X142053595Y-92264196D01*
X142093245Y-92338376D01*
X142146605Y-92403395D01*
X142211624Y-92456755D01*
X142285804Y-92496405D01*
X142366293Y-92520822D01*
X142450000Y-92529066D01*
X143350000Y-92529066D01*
X143433707Y-92520822D01*
X143514196Y-92496405D01*
X143588376Y-92456755D01*
X143624632Y-92427000D01*
X144366025Y-92427000D01*
X144573000Y-92633976D01*
X144573001Y-93649499D01*
X144553595Y-93685804D01*
X144529178Y-93766293D01*
X144520934Y-93850000D01*
X144520934Y-96150000D01*
X144529178Y-96233707D01*
X144553595Y-96314196D01*
X144593245Y-96388376D01*
X144646605Y-96453395D01*
X144711624Y-96506755D01*
X144785804Y-96546405D01*
X144866293Y-96570822D01*
X144950000Y-96579066D01*
X147250000Y-96579066D01*
X147333707Y-96570822D01*
X147414196Y-96546405D01*
X147488376Y-96506755D01*
X147548001Y-96457822D01*
X147548001Y-100142178D01*
X147488376Y-100093245D01*
X147414196Y-100053595D01*
X147333707Y-100029178D01*
X147250000Y-100020934D01*
X144950000Y-100020934D01*
X144866293Y-100029178D01*
X144785804Y-100053595D01*
X144711624Y-100093245D01*
X144646605Y-100146605D01*
X144593245Y-100211624D01*
X144553595Y-100285804D01*
X144529178Y-100366293D01*
X144520934Y-100450000D01*
X144520934Y-102750000D01*
X144529178Y-102833707D01*
X144553595Y-102914196D01*
X144593245Y-102988376D01*
X144646605Y-103053395D01*
X144711624Y-103106755D01*
X144785804Y-103146405D01*
X144866293Y-103170822D01*
X144950000Y-103179066D01*
X147250000Y-103179066D01*
X147333707Y-103170822D01*
X147414196Y-103146405D01*
X147488376Y-103106755D01*
X147548001Y-103057822D01*
X147548001Y-103548000D01*
X110924339Y-103548000D01*
X110929066Y-103500000D01*
X110929066Y-99500000D01*
X110920822Y-99416293D01*
X110896405Y-99335804D01*
X110856755Y-99261624D01*
X110803395Y-99196605D01*
X110738376Y-99143245D01*
X110664196Y-99103595D01*
X110583707Y-99079178D01*
X110500000Y-99070934D01*
X108700000Y-99070934D01*
X108616293Y-99079178D01*
X108535804Y-99103595D01*
X108461624Y-99143245D01*
X108396605Y-99196605D01*
X108343245Y-99261624D01*
X108303595Y-99335804D01*
X108279178Y-99416293D01*
X108270934Y-99500000D01*
X108270934Y-103500000D01*
X108275661Y-103548000D01*
X97224339Y-103548000D01*
X97229066Y-103500000D01*
X97229066Y-99500000D01*
X97220822Y-99416293D01*
X97196405Y-99335804D01*
X97156755Y-99261624D01*
X97103395Y-99196605D01*
X97038376Y-99143245D01*
X96964196Y-99103595D01*
X96883707Y-99079178D01*
X96800000Y-99070934D01*
X95000000Y-99070934D01*
X94916293Y-99079178D01*
X94835804Y-99103595D01*
X94761624Y-99143245D01*
X94696605Y-99196605D01*
X94643245Y-99261624D01*
X94603595Y-99335804D01*
X94579178Y-99416293D01*
X94570934Y-99500000D01*
X94570934Y-103500000D01*
X94575661Y-103548000D01*
X94452000Y-103548000D01*
X94452000Y-94750000D01*
X117570934Y-94750000D01*
X117570934Y-100750000D01*
X117579178Y-100833707D01*
X117603595Y-100914196D01*
X117643245Y-100988376D01*
X117696605Y-101053395D01*
X117761624Y-101106755D01*
X117835804Y-101146405D01*
X117916293Y-101170822D01*
X118000000Y-101179066D01*
X122000000Y-101179066D01*
X122083707Y-101170822D01*
X122164196Y-101146405D01*
X122238376Y-101106755D01*
X122303395Y-101053395D01*
X122356755Y-100988376D01*
X122396405Y-100914196D01*
X122420822Y-100833707D01*
X122429066Y-100750000D01*
X122429066Y-95631910D01*
X123973292Y-94087684D01*
X124008659Y-94058659D01*
X124037684Y-94023292D01*
X124037687Y-94023289D01*
X124124501Y-93917506D01*
X124170511Y-93831427D01*
X124210580Y-93756464D01*
X124263587Y-93581724D01*
X124277000Y-93445538D01*
X124277000Y-93445526D01*
X124281484Y-93400001D01*
X124277000Y-93354476D01*
X124277000Y-90545527D01*
X124281484Y-90500000D01*
X125718516Y-90500000D01*
X125723000Y-90545528D01*
X125723001Y-93354463D01*
X125718516Y-93400000D01*
X125723001Y-93445537D01*
X125723001Y-93445538D01*
X125732248Y-93539420D01*
X125736414Y-93581723D01*
X125789420Y-93756463D01*
X125875499Y-93917505D01*
X125962312Y-94023287D01*
X125962317Y-94023292D01*
X125991342Y-94058659D01*
X126026708Y-94087683D01*
X127570934Y-95631909D01*
X127570934Y-100750000D01*
X127579178Y-100833707D01*
X127603595Y-100914196D01*
X127643245Y-100988376D01*
X127696605Y-101053395D01*
X127761624Y-101106755D01*
X127835804Y-101146405D01*
X127916293Y-101170822D01*
X128000000Y-101179066D01*
X132000000Y-101179066D01*
X132083707Y-101170822D01*
X132164196Y-101146405D01*
X132238376Y-101106755D01*
X132303395Y-101053395D01*
X132356755Y-100988376D01*
X132396405Y-100914196D01*
X132420822Y-100833707D01*
X132429066Y-100750000D01*
X132429066Y-94750000D01*
X132420822Y-94666293D01*
X132396405Y-94585804D01*
X132356755Y-94511624D01*
X132303395Y-94446605D01*
X132238376Y-94393245D01*
X132164196Y-94353595D01*
X132083707Y-94329178D01*
X132000000Y-94320934D01*
X128881909Y-94320934D01*
X127577000Y-93016025D01*
X127577000Y-91050000D01*
X129811928Y-91050000D01*
X129824188Y-91174482D01*
X129860498Y-91294180D01*
X129919463Y-91404494D01*
X129998815Y-91501185D01*
X130095506Y-91580537D01*
X130205820Y-91639502D01*
X130325518Y-91675812D01*
X130450000Y-91688072D01*
X130664250Y-91685000D01*
X130823000Y-91526250D01*
X130823000Y-90827000D01*
X131077000Y-90827000D01*
X131077000Y-91526250D01*
X131235750Y-91685000D01*
X131450000Y-91688072D01*
X131574482Y-91675812D01*
X131694180Y-91639502D01*
X131804494Y-91580537D01*
X131901185Y-91501185D01*
X131980537Y-91404494D01*
X132039502Y-91294180D01*
X132075812Y-91174482D01*
X132088072Y-91050000D01*
X132085000Y-90985750D01*
X131926250Y-90827000D01*
X131077000Y-90827000D01*
X130823000Y-90827000D01*
X129973750Y-90827000D01*
X129815000Y-90985750D01*
X129811928Y-91050000D01*
X127577000Y-91050000D01*
X127577000Y-90883975D01*
X127783976Y-90677000D01*
X128595538Y-90677000D01*
X128731724Y-90663587D01*
X128906464Y-90610580D01*
X129060989Y-90527984D01*
X129133707Y-90520822D01*
X129214196Y-90496405D01*
X129288376Y-90456755D01*
X129353395Y-90403395D01*
X129406755Y-90338376D01*
X129446405Y-90264196D01*
X129470822Y-90183707D01*
X129479066Y-90100000D01*
X129479066Y-89774561D01*
X129481485Y-89750000D01*
X129479066Y-89725439D01*
X129479066Y-89400000D01*
X129470822Y-89316293D01*
X129446405Y-89235804D01*
X129406755Y-89161624D01*
X129353395Y-89096605D01*
X129288376Y-89043245D01*
X129214196Y-89003595D01*
X129133707Y-88979178D01*
X129060989Y-88972016D01*
X128906464Y-88889420D01*
X128731724Y-88836413D01*
X128595538Y-88823000D01*
X127445526Y-88823000D01*
X127399999Y-88818516D01*
X127354472Y-88823000D01*
X127354462Y-88823000D01*
X127218276Y-88836413D01*
X127043536Y-88889420D01*
X126949840Y-88939502D01*
X126882494Y-88975499D01*
X126776712Y-89062312D01*
X126776708Y-89062316D01*
X126741341Y-89091341D01*
X126712316Y-89126708D01*
X126368091Y-89470934D01*
X126200000Y-89470934D01*
X126116293Y-89479178D01*
X126035804Y-89503595D01*
X125961624Y-89543245D01*
X125896605Y-89596605D01*
X125843245Y-89661624D01*
X125803595Y-89735804D01*
X125779178Y-89816293D01*
X125770934Y-89900000D01*
X125770934Y-90204477D01*
X125736413Y-90318277D01*
X125723000Y-90454463D01*
X125723000Y-90454473D01*
X125718516Y-90500000D01*
X124281484Y-90500000D01*
X124277000Y-90454473D01*
X124277000Y-90454462D01*
X124263587Y-90318276D01*
X124229066Y-90204476D01*
X124229066Y-89900000D01*
X124220822Y-89816293D01*
X124196405Y-89735804D01*
X124156755Y-89661624D01*
X124103395Y-89596605D01*
X124038376Y-89543245D01*
X123964196Y-89503595D01*
X123883707Y-89479178D01*
X123800000Y-89470934D01*
X123631910Y-89470934D01*
X123427000Y-89266025D01*
X123427000Y-88383393D01*
X123566924Y-88212896D01*
X123685502Y-87991051D01*
X123758522Y-87750336D01*
X123770000Y-87633798D01*
X123781478Y-87750336D01*
X123854498Y-87991051D01*
X123973076Y-88212896D01*
X124132656Y-88407344D01*
X124327104Y-88566924D01*
X124548949Y-88685502D01*
X124789664Y-88758522D01*
X124977274Y-88777000D01*
X125102726Y-88777000D01*
X125290336Y-88758522D01*
X125531051Y-88685502D01*
X125752896Y-88566924D01*
X125923393Y-88427000D01*
X127008038Y-88427000D01*
X127144224Y-88413587D01*
X127175610Y-88404066D01*
X127181250Y-88404066D01*
X127307633Y-88391618D01*
X127429158Y-88354754D01*
X127541157Y-88294889D01*
X127639325Y-88214325D01*
X127719889Y-88116157D01*
X127750000Y-88059824D01*
X127780111Y-88116157D01*
X127860675Y-88214325D01*
X127958843Y-88294889D01*
X128070842Y-88354754D01*
X128192367Y-88391618D01*
X128318750Y-88404066D01*
X128324390Y-88404066D01*
X128355776Y-88413587D01*
X128491962Y-88427000D01*
X129266025Y-88427000D01*
X130024420Y-89185396D01*
X130029178Y-89233707D01*
X130053595Y-89314196D01*
X130093245Y-89388376D01*
X130146605Y-89453395D01*
X130211624Y-89506755D01*
X130285804Y-89546405D01*
X130366293Y-89570822D01*
X130439007Y-89577983D01*
X130593536Y-89660580D01*
X130768276Y-89713586D01*
X130822998Y-89718976D01*
X130822998Y-89873748D01*
X130664250Y-89715000D01*
X130450000Y-89711928D01*
X130325518Y-89724188D01*
X130205820Y-89760498D01*
X130095506Y-89819463D01*
X129998815Y-89898815D01*
X129919463Y-89995506D01*
X129860498Y-90105820D01*
X129824188Y-90225518D01*
X129811928Y-90350000D01*
X129815000Y-90414250D01*
X129973750Y-90573000D01*
X130823000Y-90573000D01*
X130823000Y-90553000D01*
X131077000Y-90553000D01*
X131077000Y-90573000D01*
X131926250Y-90573000D01*
X132085000Y-90414250D01*
X132088072Y-90350000D01*
X132075812Y-90225518D01*
X132039502Y-90105820D01*
X131980537Y-89995506D01*
X131901185Y-89898815D01*
X131804494Y-89819463D01*
X131694180Y-89760498D01*
X131574482Y-89724188D01*
X131450000Y-89711928D01*
X131235750Y-89715000D01*
X131077002Y-89873748D01*
X131077002Y-89718976D01*
X131131723Y-89713586D01*
X131306464Y-89660580D01*
X131460992Y-89577983D01*
X131533707Y-89570822D01*
X131614196Y-89546405D01*
X131688376Y-89506755D01*
X131753395Y-89453395D01*
X131806755Y-89388376D01*
X131846405Y-89314196D01*
X131870822Y-89233707D01*
X131879066Y-89150000D01*
X131879066Y-88824551D01*
X131881484Y-88800000D01*
X131879066Y-88775449D01*
X131879066Y-88450000D01*
X131870822Y-88366293D01*
X131865880Y-88350000D01*
X138011928Y-88350000D01*
X138024188Y-88474482D01*
X138060498Y-88594180D01*
X138119463Y-88704494D01*
X138198815Y-88801185D01*
X138295506Y-88880537D01*
X138405820Y-88939502D01*
X138525518Y-88975812D01*
X138650000Y-88988072D01*
X139214250Y-88985000D01*
X139373000Y-88826250D01*
X139373000Y-87627000D01*
X138173750Y-87627000D01*
X138015000Y-87785750D01*
X138011928Y-88350000D01*
X131865880Y-88350000D01*
X131846405Y-88285804D01*
X131806755Y-88211624D01*
X131753395Y-88146605D01*
X131688376Y-88093245D01*
X131614196Y-88053595D01*
X131533707Y-88029178D01*
X131485396Y-88024420D01*
X130337688Y-86876713D01*
X130308659Y-86841341D01*
X130167505Y-86725499D01*
X130026258Y-86650000D01*
X138011928Y-86650000D01*
X138015000Y-87214250D01*
X138173750Y-87373000D01*
X139373000Y-87373000D01*
X139373000Y-86173750D01*
X139214250Y-86015000D01*
X138650000Y-86011928D01*
X138525518Y-86024188D01*
X138405820Y-86060498D01*
X138295506Y-86119463D01*
X138198815Y-86198815D01*
X138119463Y-86295506D01*
X138060498Y-86405820D01*
X138024188Y-86525518D01*
X138011928Y-86650000D01*
X130026258Y-86650000D01*
X130006464Y-86639420D01*
X129831724Y-86586413D01*
X129695538Y-86573000D01*
X129695527Y-86573000D01*
X129650000Y-86568516D01*
X129604473Y-86573000D01*
X128491962Y-86573000D01*
X128355776Y-86586413D01*
X128324390Y-86595934D01*
X128318750Y-86595934D01*
X128192367Y-86608382D01*
X128070842Y-86645246D01*
X127958843Y-86705111D01*
X127860675Y-86785675D01*
X127780111Y-86883843D01*
X127750000Y-86940176D01*
X127719889Y-86883843D01*
X127639325Y-86785675D01*
X127541157Y-86705111D01*
X127429158Y-86645246D01*
X127307633Y-86608382D01*
X127181250Y-86595934D01*
X127175610Y-86595934D01*
X127144224Y-86586413D01*
X127008038Y-86573000D01*
X125923393Y-86573000D01*
X125752896Y-86433076D01*
X125531051Y-86314498D01*
X125290336Y-86241478D01*
X125102726Y-86223000D01*
X124977274Y-86223000D01*
X124789664Y-86241478D01*
X124548949Y-86314498D01*
X124327104Y-86433076D01*
X124132656Y-86592656D01*
X123973076Y-86787104D01*
X123854498Y-87008949D01*
X123781478Y-87249664D01*
X123770000Y-87366202D01*
X123758522Y-87249664D01*
X123685502Y-87008949D01*
X123566924Y-86787104D01*
X123407344Y-86592656D01*
X123212896Y-86433076D01*
X122991051Y-86314498D01*
X122750336Y-86241478D01*
X122562726Y-86223000D01*
X122437274Y-86223000D01*
X122249664Y-86241478D01*
X122008949Y-86314498D01*
X121787104Y-86433076D01*
X121592656Y-86592656D01*
X121447421Y-86769625D01*
X121448072Y-86650000D01*
X121435812Y-86525518D01*
X121399502Y-86405820D01*
X121340537Y-86295506D01*
X121261185Y-86198815D01*
X121164494Y-86119463D01*
X121054180Y-86060498D01*
X120934482Y-86024188D01*
X120810000Y-86011928D01*
X120245750Y-86015000D01*
X120087000Y-86173750D01*
X120087000Y-87373000D01*
X120107000Y-87373000D01*
X120107000Y-87627000D01*
X120087000Y-87627000D01*
X120087000Y-88826250D01*
X120245750Y-88985000D01*
X120810000Y-88988072D01*
X120934482Y-88975812D01*
X121054180Y-88939502D01*
X121164494Y-88880537D01*
X121261185Y-88801185D01*
X121340537Y-88704494D01*
X121399502Y-88594180D01*
X121435812Y-88474482D01*
X121448072Y-88350000D01*
X121447421Y-88230375D01*
X121573000Y-88383394D01*
X121573001Y-89604463D01*
X121568516Y-89650000D01*
X121573001Y-89695537D01*
X121573001Y-89695538D01*
X121586414Y-89831724D01*
X121600061Y-89876712D01*
X121639420Y-90006463D01*
X121725499Y-90167505D01*
X121812312Y-90273287D01*
X121812317Y-90273292D01*
X121841342Y-90308659D01*
X121876708Y-90337683D01*
X122423000Y-90883976D01*
X122423001Y-93016023D01*
X121118090Y-94320934D01*
X118000000Y-94320934D01*
X117916293Y-94329178D01*
X117835804Y-94353595D01*
X117761624Y-94393245D01*
X117696605Y-94446605D01*
X117643245Y-94511624D01*
X117603595Y-94585804D01*
X117579178Y-94666293D01*
X117570934Y-94750000D01*
X94452000Y-94750000D01*
X94452000Y-89500000D01*
X94570934Y-89500000D01*
X94570934Y-93500000D01*
X94579178Y-93583707D01*
X94603595Y-93664196D01*
X94643245Y-93738376D01*
X94696605Y-93803395D01*
X94761624Y-93856755D01*
X94835804Y-93896405D01*
X94916293Y-93920822D01*
X95000000Y-93929066D01*
X96800000Y-93929066D01*
X96883707Y-93920822D01*
X96964196Y-93896405D01*
X97038376Y-93856755D01*
X97103395Y-93803395D01*
X97156755Y-93738376D01*
X97196405Y-93664196D01*
X97220822Y-93583707D01*
X97229066Y-93500000D01*
X97229066Y-92427000D01*
X99804473Y-92427000D01*
X99850000Y-92431484D01*
X99895527Y-92427000D01*
X99895538Y-92427000D01*
X100031724Y-92413587D01*
X100206464Y-92360580D01*
X100367505Y-92274501D01*
X100508659Y-92158659D01*
X100537688Y-92123287D01*
X101381910Y-91279066D01*
X101550000Y-91279066D01*
X101633707Y-91270822D01*
X101714196Y-91246405D01*
X101788376Y-91206755D01*
X101853395Y-91153395D01*
X101906755Y-91088376D01*
X101946405Y-91014196D01*
X101970822Y-90933707D01*
X101979066Y-90850000D01*
X101979066Y-90545524D01*
X102013587Y-90431724D01*
X102027000Y-90295538D01*
X102027000Y-90295527D01*
X102031484Y-90250000D01*
X103468515Y-90250000D01*
X103486413Y-90431724D01*
X103520934Y-90545524D01*
X103520934Y-90850000D01*
X103529178Y-90933707D01*
X103553595Y-91014196D01*
X103593245Y-91088376D01*
X103646605Y-91153395D01*
X103711624Y-91206755D01*
X103785804Y-91246405D01*
X103866293Y-91270822D01*
X103950000Y-91279066D01*
X104850000Y-91279066D01*
X104933707Y-91270822D01*
X105014196Y-91246405D01*
X105088376Y-91206755D01*
X105124632Y-91177000D01*
X107966025Y-91177000D01*
X108270934Y-91481909D01*
X108270934Y-93500000D01*
X108279178Y-93583707D01*
X108303595Y-93664196D01*
X108343245Y-93738376D01*
X108396605Y-93803395D01*
X108461624Y-93856755D01*
X108535804Y-93896405D01*
X108616293Y-93920822D01*
X108700000Y-93929066D01*
X110500000Y-93929066D01*
X110583707Y-93920822D01*
X110664196Y-93896405D01*
X110738376Y-93856755D01*
X110803395Y-93803395D01*
X110856755Y-93738376D01*
X110896405Y-93664196D01*
X110920822Y-93583707D01*
X110929066Y-93500000D01*
X110929066Y-89500000D01*
X110920822Y-89416293D01*
X110896405Y-89335804D01*
X110856755Y-89261624D01*
X110803395Y-89196605D01*
X110738376Y-89143245D01*
X110664196Y-89103595D01*
X110583707Y-89079178D01*
X110500000Y-89070934D01*
X108700000Y-89070934D01*
X108638408Y-89077000D01*
X107827000Y-89077000D01*
X107827000Y-89097000D01*
X107573000Y-89097000D01*
X107573000Y-89077000D01*
X106723750Y-89077000D01*
X106565000Y-89235750D01*
X106561928Y-89300000D01*
X106564193Y-89323000D01*
X106228825Y-89323000D01*
X106227000Y-89304474D01*
X106227000Y-88370978D01*
X106229066Y-88350000D01*
X106229066Y-87650000D01*
X106220822Y-87566293D01*
X106196405Y-87485804D01*
X106156755Y-87411624D01*
X106103395Y-87346605D01*
X106038376Y-87293245D01*
X105964196Y-87253595D01*
X105883707Y-87229178D01*
X105810988Y-87222016D01*
X105656463Y-87139420D01*
X105481723Y-87086413D01*
X105300000Y-87068515D01*
X105118276Y-87086413D01*
X104943536Y-87139420D01*
X104789011Y-87222016D01*
X104716293Y-87229178D01*
X104635804Y-87253595D01*
X104561624Y-87293245D01*
X104496605Y-87346605D01*
X104443245Y-87411624D01*
X104403595Y-87485804D01*
X104379178Y-87566293D01*
X104370934Y-87650000D01*
X104370934Y-88350000D01*
X104373000Y-88370980D01*
X104373001Y-88966024D01*
X104118091Y-89220934D01*
X103950000Y-89220934D01*
X103866293Y-89229178D01*
X103785804Y-89253595D01*
X103711624Y-89293245D01*
X103646605Y-89346605D01*
X103593245Y-89411624D01*
X103553595Y-89485804D01*
X103529178Y-89566293D01*
X103520934Y-89650000D01*
X103520934Y-89954476D01*
X103486413Y-90068276D01*
X103468515Y-90250000D01*
X102031484Y-90250000D01*
X102027000Y-90204473D01*
X102027000Y-88855527D01*
X102031484Y-88810000D01*
X102027000Y-88764473D01*
X102027000Y-88764462D01*
X102024775Y-88741872D01*
X102079664Y-88758522D01*
X102267274Y-88777000D01*
X102392726Y-88777000D01*
X102580336Y-88758522D01*
X102821051Y-88685502D01*
X103042896Y-88566924D01*
X103237344Y-88407344D01*
X103396924Y-88212896D01*
X103515502Y-87991051D01*
X103588522Y-87750336D01*
X103610141Y-87530834D01*
X104513976Y-86627000D01*
X104858038Y-86627000D01*
X104994224Y-86613587D01*
X105025610Y-86604066D01*
X105031250Y-86604066D01*
X105157633Y-86591618D01*
X105279158Y-86554754D01*
X105391157Y-86494889D01*
X105489325Y-86414325D01*
X105569889Y-86316157D01*
X105600000Y-86259824D01*
X105630111Y-86316157D01*
X105710675Y-86414325D01*
X105808843Y-86494889D01*
X105862703Y-86523678D01*
X106774420Y-87435396D01*
X106779178Y-87483707D01*
X106803595Y-87564196D01*
X106843245Y-87638376D01*
X106896605Y-87703395D01*
X106961624Y-87756755D01*
X107035804Y-87796405D01*
X107116293Y-87820822D01*
X107189009Y-87827984D01*
X107343535Y-87910579D01*
X107518276Y-87963585D01*
X107572998Y-87968975D01*
X107572998Y-88123748D01*
X107414250Y-87965000D01*
X107200000Y-87961928D01*
X107075518Y-87974188D01*
X106955820Y-88010498D01*
X106845506Y-88069463D01*
X106748815Y-88148815D01*
X106669463Y-88245506D01*
X106610498Y-88355820D01*
X106574188Y-88475518D01*
X106561928Y-88600000D01*
X106565000Y-88664250D01*
X106723750Y-88823000D01*
X107573000Y-88823000D01*
X107573000Y-88803000D01*
X107827000Y-88803000D01*
X107827000Y-88823000D01*
X108676250Y-88823000D01*
X108835000Y-88664250D01*
X108838072Y-88600000D01*
X108825812Y-88475518D01*
X108789502Y-88355820D01*
X108786392Y-88350000D01*
X118471928Y-88350000D01*
X118484188Y-88474482D01*
X118520498Y-88594180D01*
X118579463Y-88704494D01*
X118658815Y-88801185D01*
X118755506Y-88880537D01*
X118865820Y-88939502D01*
X118985518Y-88975812D01*
X119110000Y-88988072D01*
X119674250Y-88985000D01*
X119833000Y-88826250D01*
X119833000Y-87627000D01*
X118633750Y-87627000D01*
X118475000Y-87785750D01*
X118471928Y-88350000D01*
X108786392Y-88350000D01*
X108730537Y-88245506D01*
X108651185Y-88148815D01*
X108554494Y-88069463D01*
X108444180Y-88010498D01*
X108324482Y-87974188D01*
X108200000Y-87961928D01*
X107985750Y-87965000D01*
X107827002Y-88123748D01*
X107827002Y-87968975D01*
X107881723Y-87963585D01*
X108056463Y-87910579D01*
X108210989Y-87827984D01*
X108283707Y-87820822D01*
X108364196Y-87796405D01*
X108438376Y-87756755D01*
X108503395Y-87703395D01*
X108556755Y-87638376D01*
X108596405Y-87564196D01*
X108620822Y-87483707D01*
X108629066Y-87400000D01*
X108629066Y-87074548D01*
X108631484Y-87049999D01*
X108629066Y-87025450D01*
X108629066Y-86700000D01*
X108624142Y-86650000D01*
X118471928Y-86650000D01*
X118475000Y-87214250D01*
X118633750Y-87373000D01*
X119833000Y-87373000D01*
X119833000Y-86173750D01*
X119674250Y-86015000D01*
X119110000Y-86011928D01*
X118985518Y-86024188D01*
X118865820Y-86060498D01*
X118755506Y-86119463D01*
X118658815Y-86198815D01*
X118579463Y-86295506D01*
X118520498Y-86405820D01*
X118484188Y-86525518D01*
X118471928Y-86650000D01*
X108624142Y-86650000D01*
X108620822Y-86616293D01*
X108596405Y-86535804D01*
X108556755Y-86461624D01*
X108503395Y-86396605D01*
X108438376Y-86343245D01*
X108364196Y-86303595D01*
X108283707Y-86279178D01*
X108235396Y-86274420D01*
X107225627Y-85264652D01*
X107204754Y-85195842D01*
X107144889Y-85083843D01*
X107064325Y-84985675D01*
X106966157Y-84905111D01*
X106854158Y-84845246D01*
X106732633Y-84808382D01*
X106606250Y-84795934D01*
X106600609Y-84795934D01*
X106569223Y-84786413D01*
X106387500Y-84768515D01*
X106205776Y-84786413D01*
X106174390Y-84795934D01*
X106168750Y-84795934D01*
X106042367Y-84808382D01*
X105920842Y-84845246D01*
X105808843Y-84905111D01*
X105710675Y-84985675D01*
X105630111Y-85083843D01*
X105600000Y-85140176D01*
X105569889Y-85083843D01*
X105489325Y-84985675D01*
X105391157Y-84905111D01*
X105279158Y-84845246D01*
X105157633Y-84808382D01*
X105031250Y-84795934D01*
X105025610Y-84795934D01*
X104994224Y-84786413D01*
X104858038Y-84773000D01*
X104175524Y-84773000D01*
X104129999Y-84768516D01*
X104084474Y-84773000D01*
X104084462Y-84773000D01*
X103948276Y-84786413D01*
X103773536Y-84839420D01*
X103703379Y-84876920D01*
X103612494Y-84925499D01*
X103506711Y-85012313D01*
X103506708Y-85012316D01*
X103471341Y-85041341D01*
X103442316Y-85076708D01*
X102296025Y-86223000D01*
X102267274Y-86223000D01*
X102079664Y-86241478D01*
X101838949Y-86314498D01*
X101617104Y-86433076D01*
X101422656Y-86592656D01*
X101263076Y-86787104D01*
X101144498Y-87008949D01*
X101071478Y-87249664D01*
X101060000Y-87366202D01*
X101048522Y-87249664D01*
X100975502Y-87008949D01*
X100856924Y-86787104D01*
X100697344Y-86592656D01*
X100502896Y-86433076D01*
X100281051Y-86314498D01*
X100040336Y-86241478D01*
X99852726Y-86223000D01*
X99727274Y-86223000D01*
X99539664Y-86241478D01*
X99298949Y-86314498D01*
X99077104Y-86433076D01*
X98882656Y-86592656D01*
X98737421Y-86769625D01*
X98738072Y-86650000D01*
X98725812Y-86525518D01*
X98689502Y-86405820D01*
X98630537Y-86295506D01*
X98551185Y-86198815D01*
X98454494Y-86119463D01*
X98344180Y-86060498D01*
X98224482Y-86024188D01*
X98100000Y-86011928D01*
X97535750Y-86015000D01*
X97377000Y-86173750D01*
X97377000Y-87373000D01*
X97397000Y-87373000D01*
X97397000Y-87627000D01*
X97377000Y-87627000D01*
X97377000Y-88826250D01*
X97535750Y-88985000D01*
X98100000Y-88988072D01*
X98224482Y-88975812D01*
X98344180Y-88939502D01*
X98454494Y-88880537D01*
X98551185Y-88801185D01*
X98630537Y-88704494D01*
X98689502Y-88594180D01*
X98725812Y-88474482D01*
X98738072Y-88350000D01*
X98737421Y-88230375D01*
X98882656Y-88407344D01*
X99077104Y-88566924D01*
X99298949Y-88685502D01*
X99539664Y-88758522D01*
X99727274Y-88777000D01*
X99756025Y-88777000D01*
X100173001Y-89193976D01*
X100173000Y-89866024D01*
X99466025Y-90573000D01*
X97229066Y-90573000D01*
X97229066Y-89500000D01*
X97220822Y-89416293D01*
X97196405Y-89335804D01*
X97156755Y-89261624D01*
X97103395Y-89196605D01*
X97038376Y-89143245D01*
X96964196Y-89103595D01*
X96883707Y-89079178D01*
X96800000Y-89070934D01*
X95000000Y-89070934D01*
X94916293Y-89079178D01*
X94835804Y-89103595D01*
X94761624Y-89143245D01*
X94696605Y-89196605D01*
X94643245Y-89261624D01*
X94603595Y-89335804D01*
X94579178Y-89416293D01*
X94570934Y-89500000D01*
X94452000Y-89500000D01*
X94452000Y-88350000D01*
X95761928Y-88350000D01*
X95774188Y-88474482D01*
X95810498Y-88594180D01*
X95869463Y-88704494D01*
X95948815Y-88801185D01*
X96045506Y-88880537D01*
X96155820Y-88939502D01*
X96275518Y-88975812D01*
X96400000Y-88988072D01*
X96964250Y-88985000D01*
X97123000Y-88826250D01*
X97123000Y-87627000D01*
X95923750Y-87627000D01*
X95765000Y-87785750D01*
X95761928Y-88350000D01*
X94452000Y-88350000D01*
X94452000Y-86650000D01*
X95761928Y-86650000D01*
X95765000Y-87214250D01*
X95923750Y-87373000D01*
X97123000Y-87373000D01*
X97123000Y-86173750D01*
X96964250Y-86015000D01*
X96400000Y-86011928D01*
X96275518Y-86024188D01*
X96155820Y-86060498D01*
X96045506Y-86119463D01*
X95948815Y-86198815D01*
X95869463Y-86295506D01*
X95810498Y-86405820D01*
X95774188Y-86525518D01*
X95761928Y-86650000D01*
X94452000Y-86650000D01*
X94452000Y-84452000D01*
X147548000Y-84452000D01*
X147548000Y-86668680D01*
G36*
X147077000Y-92323000D02*
G01*
X147097000Y-92323000D01*
X147097000Y-92577000D01*
X147077000Y-92577000D01*
X147077000Y-92597000D01*
X146823000Y-92597000D01*
X146823000Y-92577000D01*
X146803000Y-92577000D01*
X146803000Y-92323000D01*
X146823000Y-92323000D01*
X146823000Y-92303000D01*
X147077000Y-92303000D01*
X147077000Y-92323000D01*
X147077000Y-92323000D01*
G37*
X147077000Y-92323000D02*
X147097000Y-92323000D01*
X147097000Y-92577000D01*
X147077000Y-92577000D01*
X147077000Y-92597000D01*
X146823000Y-92597000D01*
X146823000Y-92577000D01*
X146803000Y-92577000D01*
X146803000Y-92323000D01*
X146823000Y-92323000D01*
X146823000Y-92303000D01*
X147077000Y-92303000D01*
X147077000Y-92323000D01*
M02*
