M48
; DRILL file {KiCad (5.1.5)-3} date 2020/03/11 10:02:15
; FORMAT={-:-/ absolute / metric / decimal}
; #@! TF.CreationDate,2020-03-11T10:02:15+09:00
; #@! TF.GenerationSoftware,Kicad,Pcbnew,(5.1.5)-3
; #@! TF.FileFunction,Plated,1,2,PTH
FMAT,2
METRIC
T1C0.300
T2C0.400
T3C0.700
T4C0.750
T5C0.762
T6C0.800
T7C0.813
T8C1.000
T9C1.600
T10C2.000
T11C2.499
T12C2.500
T13C3.000
T14C4.500
%
G90
G05
T1
X184.1Y-83.975
X186.1Y-116.0
X186.1Y-120.8
X187.175Y-104.85
X188.15Y-132.5
X188.425Y-104.85
X188.5Y-109.9
X189.05Y-128.95
X189.5Y-110.1
X189.75Y-130.71
X190.75Y-128.3
X191.5Y-128.95
X192.15Y-84.2
X193.15Y-132.5
X193.25Y-114.65
X193.35Y-107.25
X193.875Y-111.05
X194.35Y-107.65
X194.9Y-129.8
X196.65Y-126.75
X196.7Y-83.678
X197.4Y-127.7
X198.6Y-129.8
X199.425Y-104.85
X200.29Y-117.0
X200.7Y-104.85
X201.1Y-129.15
X201.35Y-122.15
X201.35Y-123.35
X201.9Y-128.6
X202.4Y-127.7
X203.1Y-120.564
X203.14Y-118.35
X203.15Y-121.3
X204.55Y-84.278
X204.764Y-127.164
X204.95Y-118.55
X204.95Y-120.564
X205.0Y-116.55
X205.238Y-117.462
X205.25Y-81.975
X205.942Y-108.064
X206.6Y-107.75
X207.9Y-121.2
X208.055Y-118.611
X208.489Y-114.493
X208.95Y-110.2
X209.325Y-83.75
X209.5Y-109.6
X209.862Y-127.65
X210.8Y-108.95
X211.1Y-122.2
X211.1Y-124.3
X211.7Y-104.9
X212.2Y-125.35
X212.5Y-114.1
X212.95Y-104.9
X213.3Y-121.4
X214.55Y-83.2
X215.0Y-115.5
X215.7Y-109.6
X215.719Y-116.541
X216.3Y-110.2
X216.55Y-118.15
X216.96Y-113.38
X217.0Y-84.25
X218.2Y-121.1
X218.3Y-84.55
X218.382Y-83.182
X218.775Y-78.7
X218.835Y-120.374
X219.4Y-131.85
X220.85Y-85.2
X221.35Y-118.05
X222.1Y-128.5
X222.65Y-129.05
X223.2Y-114.1
X223.2Y-130.15
X223.575Y-84.575
X223.75Y-114.65
X223.782Y-129.6
X223.9Y-85.2
X226.1Y-124.275
X232.0Y-131.85
X233.85Y-116.25
X234.05Y-132.45
X239.45Y-111.75
X239.45Y-115.2
X241.6Y-109.2
T2
X174.5Y-105.75
X174.5Y-109.25
X174.5Y-112.75
X174.5Y-117.25
X174.5Y-122.25
X174.5Y-125.75
X174.5Y-129.5
X174.5Y-134.25
X174.5Y-137.75
X177.5Y-105.75
X177.5Y-112.75
X178.2Y-122.25
X178.2Y-125.75
X178.2Y-129.5
X178.4Y-117.3
X178.6Y-108.8
X179.25Y-138.25
X179.65Y-101.85
X179.65Y-133.7
X180.0Y-143.0
X180.25Y-105.75
X180.356Y-121.25
X180.9Y-101.85
X181.25Y-109.0
X182.1Y-94.05
X182.15Y-136.65
X182.15Y-138.35
X182.25Y-124.5
X182.45Y-112.75
X183.0Y-108.0
X183.0Y-110.25
X183.25Y-143.0
X184.5Y-134.0
X184.5Y-137.5
X184.65Y-104.5
X185.75Y-124.5
X186.25Y-108.0
X186.3Y-131.95
X186.75Y-134.0
X186.75Y-138.75
X186.75Y-143.0
X187.25Y-94.05
X187.25Y-128.25
X187.6Y-121.55
X187.6Y-125.95
X188.25Y-115.25
X190.45Y-73.55
X190.5Y-138.75
X190.5Y-143.0
X190.85Y-121.5
X191.25Y-109.25
X191.3Y-82.5
X191.6Y-106.25
X191.9Y-101.8
X191.95Y-86.3
X192.2Y-126.85
X193.7Y-122.9
X193.75Y-109.25
X193.85Y-94.05
X194.35Y-117.25
X194.5Y-138.75
X194.5Y-143.0
X195.25Y-111.25
X195.37Y-116.98
X196.1Y-119.4
X196.5Y-109.5
X196.9Y-104.15
X197.75Y-130.65
X197.75Y-138.75
X197.75Y-143.0
X198.15Y-106.2
X198.25Y-126.3
X198.35Y-122.3
X198.55Y-134.7
X199.31Y-119.49
X200.15Y-94.05
X200.4Y-122.75
X201.3Y-130.3
X201.5Y-137.75
X201.5Y-143.0
X202.0Y-109.25
X202.41Y-118.96
X202.85Y-73.5
X203.6Y-126.25
X203.65Y-106.25
X203.7Y-81.975
X204.0Y-118.4
X204.25Y-101.75
X204.3Y-86.3
X205.5Y-139.0
X205.5Y-143.0
X205.75Y-119.0
X205.8Y-120.75
X205.9Y-124.1
X206.1Y-94.05
X207.809Y-119.864
X208.85Y-108.1
X208.9Y-112.0
X209.0Y-139.0
X209.0Y-143.0
X209.05Y-133.7
X209.05Y-135.7
X209.15Y-104.2
X209.966Y-120.746
X210.5Y-118.6
X212.05Y-111.1
X212.45Y-94.05
X212.5Y-120.55
X212.9Y-126.1
X213.1Y-115.9
X213.5Y-113.1
X213.7Y-124.1
X213.75Y-139.0
X213.75Y-143.0
X214.85Y-111.05
X215.1Y-118.35
X215.25Y-73.5
X215.65Y-120.55
X215.65Y-123.25
X215.85Y-133.1
X216.05Y-106.25
X216.1Y-82.2
X216.5Y-101.75
X216.75Y-86.25
X217.0Y-98.25
X217.25Y-121.15
X217.45Y-109.95
X217.55Y-118.6
X217.6Y-107.3
X217.6Y-126.15
X218.0Y-101.75
X218.5Y-139.0
X218.5Y-143.0
X218.9Y-133.5
X218.9Y-135.7
X219.0Y-98.25
X219.67Y-109.95
X219.85Y-80.35
X220.05Y-119.85
X220.05Y-128.3
X220.05Y-131.0
X220.9Y-126.15
X220.95Y-81.2
X220.95Y-83.9
X221.9Y-119.85
X222.45Y-118.05
X222.5Y-83.56
X222.75Y-139.0
X222.75Y-143.0
X223.75Y-108.0
X223.95Y-99.1
X223.95Y-109.9
X224.6Y-121.4
X224.6Y-123.45
X224.6Y-126.15
X224.95Y-88.7
X225.1Y-131.0
X225.66Y-136.725
X226.0Y-108.0
X226.05Y-138.5
X227.25Y-143.0
X227.5Y-111.95
X227.7Y-109.8
X228.325Y-106.225
X229.05Y-101.75
X229.8Y-139.6
X230.45Y-100.85
X230.6Y-96.237
X230.625Y-126.449
X230.75Y-108.0
X231.272Y-86.617
X231.45Y-136.15
X231.5Y-122.8
X231.65Y-133.1
X232.05Y-101.85
X232.4Y-139.05
X232.55Y-90.9
X232.55Y-119.3
X232.75Y-143.0
X233.05Y-125.1
X233.25Y-105.75
X234.85Y-135.25
X236.2Y-108.8
X236.25Y-105.75
X236.35Y-110.3
X236.75Y-140.0
X237.0Y-111.95
X237.15Y-114.0
X237.25Y-143.0
X237.276Y-100.674
X237.6Y-101.85
X237.65Y-122.1
X237.65Y-125.15
X238.25Y-138.0
X238.35Y-85.0
X238.8Y-95.25
X238.9Y-108.8
X239.05Y-132.8
X239.15Y-116.1
X239.25Y-105.75
X240.175Y-96.15
X240.5Y-137.25
X240.9Y-114.0
X241.25Y-101.85
X241.85Y-110.575
X242.75Y-105.75
X242.75Y-109.75
X242.75Y-113.0
X242.75Y-116.5
X242.75Y-119.25
X242.75Y-121.75
X242.75Y-124.0
X242.75Y-126.25
X242.75Y-128.25
X242.75Y-130.75
X242.75Y-132.75
X242.75Y-135.5
X242.75Y-137.75
T3
X227.15Y-115.1
X228.65Y-115.1
X230.15Y-115.1
X231.65Y-115.1
X233.15Y-115.1
X234.65Y-115.1
X234.55Y-129.55
X236.05Y-129.55
X237.55Y-129.55
X239.05Y-129.55
X240.55Y-129.55
X242.05Y-129.55
T4
X182.0Y-70.0
X182.0Y-71.5
X182.0Y-73.0
X182.0Y-74.5
X182.0Y-76.0
X182.0Y-77.5
X182.0Y-79.0
X182.0Y-80.5
X182.0Y-82.0
X182.5Y-60.5
X182.5Y-62.0
X182.5Y-63.5
X182.5Y-65.0
X182.5Y-66.5
X183.5Y-70.0
X183.5Y-71.5
X183.5Y-73.0
X183.5Y-74.5
X183.5Y-76.0
X183.5Y-77.5
X183.5Y-79.0
X183.5Y-80.5
X183.5Y-82.0
X184.0Y-60.5
X184.0Y-62.0
X184.0Y-63.5
X184.0Y-65.0
X184.0Y-66.5
X185.0Y-70.0
X185.0Y-71.5
X185.0Y-76.0
X185.0Y-77.5
X185.0Y-79.0
X185.0Y-80.5
X185.0Y-82.0
X185.5Y-60.5
X185.5Y-62.0
X185.5Y-63.5
X185.5Y-65.0
X185.5Y-66.5
X186.5Y-70.0
X186.5Y-71.5
X186.5Y-76.0
X186.5Y-77.5
X186.5Y-79.0
X186.5Y-80.5
X186.5Y-82.0
X187.0Y-60.5
X187.0Y-62.0
X187.0Y-63.5
X187.0Y-65.0
X187.0Y-66.5
X188.0Y-70.0
X188.0Y-71.5
X188.0Y-73.0
X188.0Y-74.5
X188.0Y-76.0
X188.0Y-77.5
X188.0Y-79.0
X188.0Y-80.5
X188.0Y-82.0
X188.5Y-60.5
X188.5Y-62.0
X188.5Y-63.5
X188.5Y-65.0
X188.5Y-66.5
X190.0Y-60.5
X190.0Y-62.0
X190.0Y-63.5
X190.0Y-65.0
X190.0Y-66.5
X194.5Y-70.0
X194.5Y-71.5
X194.5Y-73.0
X194.5Y-74.5
X194.5Y-76.0
X194.5Y-77.5
X194.5Y-79.0
X194.5Y-80.5
X194.5Y-82.0
X195.0Y-60.5
X195.0Y-62.0
X195.0Y-63.5
X195.0Y-65.0
X195.0Y-66.5
X196.0Y-70.0
X196.0Y-71.5
X196.0Y-73.0
X196.0Y-74.5
X196.0Y-76.0
X196.0Y-77.5
X196.0Y-79.0
X196.0Y-80.5
X196.0Y-82.0
X196.5Y-60.5
X196.5Y-62.0
X196.5Y-63.5
X196.5Y-65.0
X196.5Y-66.5
X197.5Y-70.0
X197.5Y-71.5
X197.5Y-76.0
X197.5Y-77.5
X197.5Y-79.0
X197.5Y-80.5
X197.5Y-82.0
X198.0Y-60.5
X198.0Y-62.0
X198.0Y-63.5
X198.0Y-65.0
X198.0Y-66.5
X199.0Y-70.0
X199.0Y-71.5
X199.0Y-76.0
X199.0Y-77.5
X199.0Y-79.0
X199.0Y-80.5
X199.0Y-82.0
X199.5Y-60.5
X199.5Y-62.0
X199.5Y-63.5
X199.5Y-65.0
X199.5Y-66.5
X200.5Y-70.0
X200.5Y-71.5
X200.5Y-73.0
X200.5Y-74.5
X200.5Y-76.0
X200.5Y-77.5
X200.5Y-79.0
X200.5Y-80.5
X200.5Y-82.0
X201.0Y-60.5
X201.0Y-62.0
X201.0Y-63.5
X201.0Y-65.0
X201.0Y-66.5
X202.5Y-60.5
X202.5Y-62.0
X202.5Y-63.5
X202.5Y-65.0
X202.5Y-66.5
X206.75Y-70.0
X206.75Y-71.5
X206.75Y-73.0
X206.75Y-74.5
X206.75Y-76.0
X206.75Y-77.5
X206.75Y-79.0
X206.75Y-80.5
X207.25Y-60.5
X207.25Y-62.0
X207.25Y-63.5
X207.25Y-65.0
X207.25Y-66.5
X208.25Y-70.0
X208.25Y-71.5
X208.25Y-73.0
X208.25Y-74.5
X208.25Y-76.0
X208.25Y-77.5
X208.25Y-79.0
X208.25Y-80.5
X208.75Y-60.5
X208.75Y-62.0
X208.75Y-63.5
X208.75Y-65.0
X208.75Y-66.5
X209.75Y-70.0
X209.75Y-71.5
X209.75Y-76.0
X209.75Y-77.5
X209.75Y-79.0
X209.75Y-80.5
X210.25Y-60.5
X210.25Y-62.0
X210.25Y-63.5
X210.25Y-65.0
X210.25Y-66.5
X211.25Y-70.0
X211.25Y-71.5
X211.25Y-76.0
X211.25Y-77.5
X211.25Y-79.0
X211.25Y-80.5
X211.75Y-60.5
X211.75Y-62.0
X211.75Y-63.5
X211.75Y-65.0
X211.75Y-66.5
X212.75Y-70.0
X212.75Y-71.5
X212.75Y-73.0
X212.75Y-74.5
X212.75Y-76.0
X212.75Y-77.5
X212.75Y-79.0
X212.75Y-80.5
X213.25Y-60.5
X213.25Y-62.0
X213.25Y-63.5
X213.25Y-65.0
X213.25Y-66.5
X214.75Y-60.5
X214.75Y-62.0
X214.75Y-63.5
X214.75Y-65.0
X214.75Y-66.5
X231.75Y-66.55
X231.75Y-68.05
X231.75Y-74.55
X231.75Y-76.3
X233.25Y-66.55
X233.25Y-68.05
X233.25Y-74.55
X233.25Y-76.3
X234.75Y-73.05
X234.75Y-74.55
X234.75Y-76.3
X234.75Y-77.8
X239.25Y-74.55
X239.25Y-76.3
X239.25Y-82.3
X239.25Y-83.8
X240.75Y-74.55
X240.75Y-76.3
X240.75Y-82.3
X240.75Y-83.8
X242.25Y-73.05
X242.25Y-74.55
X242.25Y-76.3
X242.25Y-77.8
X242.25Y-79.3
X242.25Y-80.8
X242.25Y-82.3
X242.25Y-83.8
T5
X221.09Y-112.5
X223.0Y-112.5
X224.91Y-112.5
X236.01Y-119.34
X236.01Y-126.96
X238.55Y-119.34
X238.55Y-126.96
X241.09Y-119.34
X241.09Y-126.96
T6
X229.05Y-60.5
X234.05Y-60.5
X233.125Y-93.675
X235.625Y-93.675
X203.3Y-130.05
X204.8Y-130.05
X206.3Y-130.05
X207.8Y-130.05
X209.3Y-130.05
X210.8Y-130.05
X212.3Y-130.05
X213.8Y-130.05
X215.3Y-130.05
X189.15Y-122.75
X189.15Y-125.25
X238.7Y-100.8
X238.7Y-103.3
T7
X229.285Y-109.475
X231.825Y-109.475
X234.365Y-109.475
T8
X239.65Y-86.6
X239.65Y-89.1
X182.75Y-115.15
X182.75Y-117.65
X182.75Y-120.15
X182.75Y-122.65
X227.925Y-118.875
X227.925Y-121.375
X227.925Y-123.875
X227.925Y-126.375
X189.65Y-134.75
X192.15Y-134.75
X194.65Y-134.75
X197.15Y-134.75
X182.75Y-127.65
X182.75Y-130.15
X182.75Y-132.65
X182.75Y-135.15
X202.15Y-134.75
X204.65Y-134.75
X207.15Y-134.75
X222.15Y-134.75
X224.65Y-134.75
X227.15Y-134.75
X229.65Y-134.75
X234.875Y-136.91
X234.875Y-139.45
X234.875Y-141.99
X212.15Y-134.75
X214.65Y-134.75
X217.15Y-134.75
X180.75Y-139.7
X183.29Y-139.7
T10
X204.65Y-141.25
X214.65Y-141.25
T11
X198.65Y-73.75
X186.5Y-73.7
X211.05Y-73.75
T12
X176.25Y-118.9
X193.4Y-141.25
X176.25Y-131.4
X225.9Y-141.25
T13
X176.5Y-57.0
X176.5Y-141.0
X240.5Y-57.0
X240.5Y-141.0
T14
X232.05Y-71.3
X239.05Y-71.3
X232.05Y-79.55
X239.05Y-79.55
T9
G00X220.0Y-91.1
M15
G01X216.0Y-91.1
M16
G05
G00X230.0Y-91.1
M15
G01X226.0Y-91.1
M16
G05
T0
M30
