G04 #@! TF.GenerationSoftware,KiCad,Pcbnew,(5.1.4)-1*
G04 #@! TF.CreationDate,2020-01-28T02:16:23+09:00*
G04 #@! TF.ProjectId,Electricity_Manager,456c6563-7472-4696-9369-74795f4d616e,rev?*
G04 #@! TF.SameCoordinates,Original*
G04 #@! TF.FileFunction,Soldermask,Top*
G04 #@! TF.FilePolarity,Negative*
%FSLAX46Y46*%
G04 Gerber Fmt 4.6, Leading zero omitted, Abs format (unit mm)*
G04 Created by KiCad (PCBNEW (5.1.4)-1) date 2020-01-28 02:16:23*
%MOMM*%
%LPD*%
G04 APERTURE LIST*
%ADD10C,0.100000*%
G04 APERTURE END LIST*
D10*
G36*
X118489487Y-170908996D02*
G01*
X118726253Y-171007068D01*
X118726255Y-171007069D01*
X118854830Y-171092980D01*
X118939339Y-171149447D01*
X119120553Y-171330661D01*
X119262932Y-171543747D01*
X119361004Y-171780513D01*
X119411000Y-172031861D01*
X119411000Y-172288139D01*
X119361004Y-172539487D01*
X119295692Y-172697164D01*
X119262931Y-172776255D01*
X119120553Y-172989339D01*
X118939339Y-173170553D01*
X118726255Y-173312931D01*
X118726254Y-173312932D01*
X118726253Y-173312932D01*
X118489487Y-173411004D01*
X118238139Y-173461000D01*
X117981861Y-173461000D01*
X117730513Y-173411004D01*
X117493747Y-173312932D01*
X117493746Y-173312932D01*
X117493745Y-173312931D01*
X117280661Y-173170553D01*
X117099447Y-172989339D01*
X116957069Y-172776255D01*
X116924308Y-172697164D01*
X116858996Y-172539487D01*
X116809000Y-172288139D01*
X116809000Y-172031861D01*
X116858996Y-171780513D01*
X116957068Y-171543747D01*
X117099447Y-171330661D01*
X117280661Y-171149447D01*
X117365170Y-171092980D01*
X117493745Y-171007069D01*
X117493747Y-171007068D01*
X117730513Y-170908996D01*
X117981861Y-170859000D01*
X118238139Y-170859000D01*
X118489487Y-170908996D01*
X118489487Y-170908996D01*
G37*
G36*
X124204473Y-172075938D02*
G01*
X124332049Y-172128782D01*
X124446859Y-172205495D01*
X124544505Y-172303141D01*
X124621218Y-172417951D01*
X124674062Y-172545527D01*
X124701000Y-172680956D01*
X124701000Y-172819044D01*
X124674062Y-172954473D01*
X124621218Y-173082049D01*
X124544505Y-173196859D01*
X124446859Y-173294505D01*
X124332049Y-173371218D01*
X124204473Y-173424062D01*
X124069044Y-173451000D01*
X123930956Y-173451000D01*
X123795527Y-173424062D01*
X123667951Y-173371218D01*
X123553141Y-173294505D01*
X123455495Y-173196859D01*
X123378782Y-173082049D01*
X123325938Y-172954473D01*
X123299000Y-172819044D01*
X123299000Y-172680956D01*
X123325938Y-172545527D01*
X123378782Y-172417951D01*
X123455495Y-172303141D01*
X123553141Y-172205495D01*
X123667951Y-172128782D01*
X123795527Y-172075938D01*
X123930956Y-172049000D01*
X124069044Y-172049000D01*
X124204473Y-172075938D01*
X124204473Y-172075938D01*
G37*
G36*
X66454473Y-172075938D02*
G01*
X66582049Y-172128782D01*
X66696859Y-172205495D01*
X66794505Y-172303141D01*
X66871218Y-172417951D01*
X66924062Y-172545527D01*
X66951000Y-172680956D01*
X66951000Y-172819044D01*
X66924062Y-172954473D01*
X66871218Y-173082049D01*
X66794505Y-173196859D01*
X66696859Y-173294505D01*
X66582049Y-173371218D01*
X66454473Y-173424062D01*
X66319044Y-173451000D01*
X66180956Y-173451000D01*
X66045527Y-173424062D01*
X65917951Y-173371218D01*
X65803141Y-173294505D01*
X65705495Y-173196859D01*
X65628782Y-173082049D01*
X65575938Y-172954473D01*
X65549000Y-172819044D01*
X65549000Y-172680956D01*
X65575938Y-172545527D01*
X65628782Y-172417951D01*
X65705495Y-172303141D01*
X65803141Y-172205495D01*
X65917951Y-172128782D01*
X66045527Y-172075938D01*
X66180956Y-172049000D01*
X66319044Y-172049000D01*
X66454473Y-172075938D01*
X66454473Y-172075938D01*
G37*
G36*
X137657022Y-170460590D02*
G01*
X137757681Y-170491125D01*
X137808012Y-170506392D01*
X137947164Y-170580771D01*
X138069133Y-170680867D01*
X138144688Y-170772932D01*
X138169229Y-170802835D01*
X138243608Y-170941987D01*
X138246342Y-170951000D01*
X138289410Y-171092977D01*
X138301000Y-171210655D01*
X138301000Y-172289345D01*
X138289410Y-172407023D01*
X138258875Y-172507682D01*
X138243608Y-172558013D01*
X138169229Y-172697165D01*
X138069133Y-172819133D01*
X137947165Y-172919229D01*
X137808013Y-172993608D01*
X137757682Y-173008875D01*
X137657023Y-173039410D01*
X137500000Y-173054875D01*
X137342978Y-173039410D01*
X137242319Y-173008875D01*
X137191988Y-172993608D01*
X137052836Y-172919229D01*
X136930868Y-172819133D01*
X136830772Y-172697165D01*
X136756393Y-172558013D01*
X136741126Y-172507682D01*
X136710591Y-172407023D01*
X136699001Y-172289345D01*
X136699000Y-171210656D01*
X136710590Y-171092978D01*
X136741125Y-170992319D01*
X136756392Y-170941988D01*
X136830771Y-170802836D01*
X136855313Y-170772931D01*
X136930867Y-170680867D01*
X137052835Y-170580771D01*
X137191987Y-170506392D01*
X137242318Y-170491125D01*
X137342977Y-170460590D01*
X137500000Y-170445125D01*
X137657022Y-170460590D01*
X137657022Y-170460590D01*
G37*
G36*
X56907023Y-170460590D02*
G01*
X57007682Y-170491125D01*
X57058013Y-170506392D01*
X57197165Y-170580771D01*
X57319133Y-170680867D01*
X57419229Y-170802835D01*
X57493608Y-170941987D01*
X57496342Y-170951000D01*
X57539410Y-171092977D01*
X57551000Y-171210655D01*
X57551000Y-172289345D01*
X57539410Y-172407023D01*
X57508875Y-172507682D01*
X57493608Y-172558013D01*
X57427893Y-172680956D01*
X57419229Y-172697165D01*
X57319133Y-172819133D01*
X57197164Y-172919229D01*
X57058012Y-172993608D01*
X57007681Y-173008875D01*
X56907022Y-173039410D01*
X56750000Y-173054875D01*
X56592977Y-173039410D01*
X56492318Y-173008875D01*
X56441987Y-172993608D01*
X56302835Y-172919229D01*
X56180867Y-172819133D01*
X56080771Y-172697164D01*
X56006393Y-172558013D01*
X56006392Y-172558012D01*
X55963906Y-172417952D01*
X55960590Y-172407022D01*
X55950359Y-172303141D01*
X55949000Y-172289345D01*
X55949001Y-171210654D01*
X55960591Y-171092979D01*
X55960591Y-171092977D01*
X56003659Y-170951000D01*
X56006393Y-170941987D01*
X56080772Y-170802835D01*
X56180868Y-170680867D01*
X56302836Y-170580771D01*
X56441988Y-170506392D01*
X56492319Y-170491125D01*
X56592978Y-170460590D01*
X56750000Y-170445125D01*
X56907023Y-170460590D01*
X56907023Y-170460590D01*
G37*
G36*
X59407023Y-170460590D02*
G01*
X59507682Y-170491125D01*
X59558013Y-170506392D01*
X59697165Y-170580771D01*
X59819133Y-170680867D01*
X59919229Y-170802835D01*
X59993608Y-170941987D01*
X59996342Y-170951000D01*
X60039410Y-171092977D01*
X60051000Y-171210655D01*
X60051000Y-172289345D01*
X60039410Y-172407023D01*
X60008875Y-172507682D01*
X59993608Y-172558013D01*
X59927893Y-172680956D01*
X59919229Y-172697165D01*
X59819133Y-172819133D01*
X59697164Y-172919229D01*
X59558012Y-172993608D01*
X59507681Y-173008875D01*
X59407022Y-173039410D01*
X59250000Y-173054875D01*
X59092977Y-173039410D01*
X58992318Y-173008875D01*
X58941987Y-172993608D01*
X58802835Y-172919229D01*
X58680867Y-172819133D01*
X58580771Y-172697164D01*
X58506393Y-172558013D01*
X58506392Y-172558012D01*
X58463906Y-172417952D01*
X58460590Y-172407022D01*
X58450359Y-172303141D01*
X58449000Y-172289345D01*
X58449001Y-171210654D01*
X58460591Y-171092979D01*
X58460591Y-171092977D01*
X58503659Y-170951000D01*
X58506393Y-170941987D01*
X58580772Y-170802835D01*
X58680868Y-170680867D01*
X58802836Y-170580771D01*
X58941988Y-170506392D01*
X58992319Y-170491125D01*
X59092978Y-170460590D01*
X59250000Y-170445125D01*
X59407023Y-170460590D01*
X59407023Y-170460590D01*
G37*
G36*
X132657022Y-170460590D02*
G01*
X132757681Y-170491125D01*
X132808012Y-170506392D01*
X132947164Y-170580771D01*
X133069133Y-170680867D01*
X133144688Y-170772932D01*
X133169229Y-170802835D01*
X133243608Y-170941987D01*
X133246342Y-170951000D01*
X133289410Y-171092977D01*
X133301000Y-171210655D01*
X133301000Y-172289345D01*
X133289410Y-172407023D01*
X133258875Y-172507682D01*
X133243608Y-172558013D01*
X133169229Y-172697165D01*
X133069133Y-172819133D01*
X132947165Y-172919229D01*
X132808013Y-172993608D01*
X132757682Y-173008875D01*
X132657023Y-173039410D01*
X132500000Y-173054875D01*
X132342978Y-173039410D01*
X132242319Y-173008875D01*
X132191988Y-172993608D01*
X132052836Y-172919229D01*
X131930868Y-172819133D01*
X131830772Y-172697165D01*
X131756393Y-172558013D01*
X131741126Y-172507682D01*
X131710591Y-172407023D01*
X131699001Y-172289345D01*
X131699000Y-171210656D01*
X131710590Y-171092978D01*
X131741125Y-170992319D01*
X131756392Y-170941988D01*
X131830771Y-170802836D01*
X131855313Y-170772931D01*
X131930867Y-170680867D01*
X132052835Y-170580771D01*
X132191987Y-170506392D01*
X132242318Y-170491125D01*
X132342977Y-170460590D01*
X132500000Y-170445125D01*
X132657022Y-170460590D01*
X132657022Y-170460590D01*
G37*
G36*
X130157022Y-170460590D02*
G01*
X130257681Y-170491125D01*
X130308012Y-170506392D01*
X130447164Y-170580771D01*
X130569133Y-170680867D01*
X130644688Y-170772932D01*
X130669229Y-170802835D01*
X130743608Y-170941987D01*
X130746342Y-170951000D01*
X130789410Y-171092977D01*
X130801000Y-171210655D01*
X130801000Y-172289345D01*
X130789410Y-172407023D01*
X130758875Y-172507682D01*
X130743608Y-172558013D01*
X130669229Y-172697165D01*
X130569133Y-172819133D01*
X130447165Y-172919229D01*
X130308013Y-172993608D01*
X130257682Y-173008875D01*
X130157023Y-173039410D01*
X130000000Y-173054875D01*
X129842978Y-173039410D01*
X129742319Y-173008875D01*
X129691988Y-172993608D01*
X129552836Y-172919229D01*
X129430868Y-172819133D01*
X129330772Y-172697165D01*
X129256393Y-172558013D01*
X129241126Y-172507682D01*
X129210591Y-172407023D01*
X129199001Y-172289345D01*
X129199000Y-171210656D01*
X129210590Y-171092978D01*
X129241125Y-170992319D01*
X129256392Y-170941988D01*
X129330771Y-170802836D01*
X129355313Y-170772931D01*
X129430867Y-170680867D01*
X129552835Y-170580771D01*
X129691987Y-170506392D01*
X129742318Y-170491125D01*
X129842977Y-170460590D01*
X130000000Y-170445125D01*
X130157022Y-170460590D01*
X130157022Y-170460590D01*
G37*
G36*
X135157022Y-170460590D02*
G01*
X135257681Y-170491125D01*
X135308012Y-170506392D01*
X135447164Y-170580771D01*
X135569133Y-170680867D01*
X135644688Y-170772932D01*
X135669229Y-170802835D01*
X135743608Y-170941987D01*
X135746342Y-170951000D01*
X135789410Y-171092977D01*
X135801000Y-171210655D01*
X135801000Y-172289345D01*
X135789410Y-172407023D01*
X135758875Y-172507682D01*
X135743608Y-172558013D01*
X135669229Y-172697165D01*
X135569133Y-172819133D01*
X135447165Y-172919229D01*
X135308013Y-172993608D01*
X135257682Y-173008875D01*
X135157023Y-173039410D01*
X135000000Y-173054875D01*
X134842978Y-173039410D01*
X134742319Y-173008875D01*
X134691988Y-172993608D01*
X134552836Y-172919229D01*
X134430868Y-172819133D01*
X134330772Y-172697165D01*
X134256393Y-172558013D01*
X134241126Y-172507682D01*
X134210591Y-172407023D01*
X134199001Y-172289345D01*
X134199000Y-171210656D01*
X134210590Y-171092978D01*
X134241125Y-170992319D01*
X134256392Y-170941988D01*
X134330771Y-170802836D01*
X134355313Y-170772931D01*
X134430867Y-170680867D01*
X134552835Y-170580771D01*
X134691987Y-170506392D01*
X134742318Y-170491125D01*
X134842977Y-170460590D01*
X135000000Y-170445125D01*
X135157022Y-170460590D01*
X135157022Y-170460590D01*
G37*
G36*
X66951000Y-170951000D02*
G01*
X65549000Y-170951000D01*
X65549000Y-169549000D01*
X66951000Y-169549000D01*
X66951000Y-170951000D01*
X66951000Y-170951000D01*
G37*
G36*
X124701000Y-170951000D02*
G01*
X123299000Y-170951000D01*
X123299000Y-169549000D01*
X124701000Y-169549000D01*
X124701000Y-170951000D01*
X124701000Y-170951000D01*
G37*
G36*
X72769487Y-168368996D02*
G01*
X73006253Y-168467068D01*
X73006255Y-168467069D01*
X73219339Y-168609447D01*
X73400553Y-168790661D01*
X73542932Y-169003747D01*
X73641004Y-169240513D01*
X73691000Y-169491861D01*
X73691000Y-169748139D01*
X73641004Y-169999487D01*
X73542932Y-170236253D01*
X73542931Y-170236255D01*
X73400553Y-170449339D01*
X73219339Y-170630553D01*
X73006255Y-170772931D01*
X73006254Y-170772932D01*
X73006253Y-170772932D01*
X72769487Y-170871004D01*
X72518139Y-170921000D01*
X72261861Y-170921000D01*
X72010513Y-170871004D01*
X71773747Y-170772932D01*
X71773746Y-170772932D01*
X71773745Y-170772931D01*
X71560661Y-170630553D01*
X71379447Y-170449339D01*
X71237069Y-170236255D01*
X71237068Y-170236253D01*
X71138996Y-169999487D01*
X71089000Y-169748139D01*
X71089000Y-169491861D01*
X71138996Y-169240513D01*
X71237068Y-169003747D01*
X71379447Y-168790661D01*
X71560661Y-168609447D01*
X71773745Y-168467069D01*
X71773747Y-168467068D01*
X72010513Y-168368996D01*
X72261861Y-168319000D01*
X72518139Y-168319000D01*
X72769487Y-168368996D01*
X72769487Y-168368996D01*
G37*
G36*
X146801000Y-168651000D02*
G01*
X145199000Y-168651000D01*
X145199000Y-165949000D01*
X146801000Y-165949000D01*
X146801000Y-168651000D01*
X146801000Y-168651000D01*
G37*
G36*
X125951000Y-168051000D02*
G01*
X124049000Y-168051000D01*
X124049000Y-166649000D01*
X125951000Y-166649000D01*
X125951000Y-168051000D01*
X125951000Y-168051000D01*
G37*
G36*
X142870015Y-166956973D02*
G01*
X142973879Y-166988479D01*
X143001055Y-167003005D01*
X143069600Y-167039643D01*
X143153501Y-167108499D01*
X143222357Y-167192400D01*
X143258995Y-167260945D01*
X143273521Y-167288121D01*
X143305027Y-167391985D01*
X143315666Y-167500000D01*
X143305027Y-167608015D01*
X143273521Y-167711879D01*
X143273519Y-167711882D01*
X143222357Y-167807600D01*
X143153501Y-167891501D01*
X143069600Y-167960357D01*
X143001055Y-167996995D01*
X142973879Y-168011521D01*
X142870015Y-168043027D01*
X142789067Y-168051000D01*
X142210933Y-168051000D01*
X142129985Y-168043027D01*
X142026121Y-168011521D01*
X141998945Y-167996995D01*
X141930400Y-167960357D01*
X141846499Y-167891501D01*
X141777643Y-167807600D01*
X141726481Y-167711882D01*
X141726479Y-167711879D01*
X141694973Y-167608015D01*
X141684334Y-167500000D01*
X141694973Y-167391985D01*
X141726479Y-167288121D01*
X141741005Y-167260945D01*
X141777643Y-167192400D01*
X141846499Y-167108499D01*
X141930400Y-167039643D01*
X141998945Y-167003005D01*
X142026121Y-166988479D01*
X142129985Y-166956973D01*
X142210933Y-166949000D01*
X142789067Y-166949000D01*
X142870015Y-166956973D01*
X142870015Y-166956973D01*
G37*
G36*
X67421000Y-167901000D02*
G01*
X65479000Y-167901000D01*
X65479000Y-166599000D01*
X67421000Y-166599000D01*
X67421000Y-167901000D01*
X67421000Y-167901000D01*
G37*
G36*
X65021000Y-167901000D02*
G01*
X63919000Y-167901000D01*
X63919000Y-166599000D01*
X65021000Y-166599000D01*
X65021000Y-167901000D01*
X65021000Y-167901000D01*
G37*
G36*
X69181000Y-167901000D02*
G01*
X68079000Y-167901000D01*
X68079000Y-166599000D01*
X69181000Y-166599000D01*
X69181000Y-167901000D01*
X69181000Y-167901000D01*
G37*
G36*
X52771000Y-167401000D02*
G01*
X50829000Y-167401000D01*
X50829000Y-166099000D01*
X52771000Y-166099000D01*
X52771000Y-167401000D01*
X52771000Y-167401000D01*
G37*
G36*
X50171000Y-167401000D02*
G01*
X49069000Y-167401000D01*
X49069000Y-166099000D01*
X50171000Y-166099000D01*
X50171000Y-167401000D01*
X50171000Y-167401000D01*
G37*
G36*
X54331000Y-167401000D02*
G01*
X53229000Y-167401000D01*
X53229000Y-166099000D01*
X54331000Y-166099000D01*
X54331000Y-167401000D01*
X54331000Y-167401000D01*
G37*
G36*
X130157023Y-163960590D02*
G01*
X130248961Y-163988479D01*
X130308013Y-164006392D01*
X130447165Y-164080771D01*
X130569133Y-164180867D01*
X130669229Y-164302835D01*
X130743608Y-164441987D01*
X130743608Y-164441988D01*
X130789410Y-164592977D01*
X130801000Y-164710655D01*
X130801000Y-165789345D01*
X130789410Y-165907023D01*
X130776676Y-165949000D01*
X130743608Y-166058013D01*
X130716882Y-166108013D01*
X130669229Y-166197165D01*
X130569133Y-166319133D01*
X130480951Y-166391501D01*
X130447164Y-166419229D01*
X130308012Y-166493608D01*
X130257681Y-166508875D01*
X130157022Y-166539410D01*
X130000000Y-166554875D01*
X129842977Y-166539410D01*
X129742318Y-166508875D01*
X129691987Y-166493608D01*
X129552835Y-166419229D01*
X129519048Y-166391501D01*
X129430867Y-166319133D01*
X129330771Y-166197164D01*
X129256392Y-166058012D01*
X129223324Y-165949000D01*
X129210590Y-165907022D01*
X129199000Y-165789344D01*
X129199001Y-164710655D01*
X129210591Y-164592977D01*
X129256393Y-164441988D01*
X129256393Y-164441987D01*
X129330772Y-164302835D01*
X129430868Y-164180867D01*
X129552836Y-164080771D01*
X129691988Y-164006392D01*
X129751040Y-163988479D01*
X129842978Y-163960590D01*
X130000000Y-163945125D01*
X130157023Y-163960590D01*
X130157023Y-163960590D01*
G37*
G36*
X132657023Y-163960590D02*
G01*
X132748961Y-163988479D01*
X132808013Y-164006392D01*
X132947165Y-164080771D01*
X133069133Y-164180867D01*
X133169229Y-164302835D01*
X133243608Y-164441987D01*
X133243608Y-164441988D01*
X133289410Y-164592977D01*
X133301000Y-164710655D01*
X133301000Y-165789345D01*
X133289410Y-165907023D01*
X133276676Y-165949000D01*
X133243608Y-166058013D01*
X133216882Y-166108013D01*
X133169229Y-166197165D01*
X133069133Y-166319133D01*
X132980951Y-166391501D01*
X132947164Y-166419229D01*
X132808012Y-166493608D01*
X132757681Y-166508875D01*
X132657022Y-166539410D01*
X132500000Y-166554875D01*
X132342977Y-166539410D01*
X132242318Y-166508875D01*
X132191987Y-166493608D01*
X132052835Y-166419229D01*
X132019048Y-166391501D01*
X131930867Y-166319133D01*
X131830771Y-166197164D01*
X131756392Y-166058012D01*
X131723324Y-165949000D01*
X131710590Y-165907022D01*
X131699000Y-165789344D01*
X131699001Y-164710655D01*
X131710591Y-164592977D01*
X131756393Y-164441988D01*
X131756393Y-164441987D01*
X131830772Y-164302835D01*
X131930868Y-164180867D01*
X132052836Y-164080771D01*
X132191988Y-164006392D01*
X132251040Y-163988479D01*
X132342978Y-163960590D01*
X132500000Y-163945125D01*
X132657023Y-163960590D01*
X132657023Y-163960590D01*
G37*
G36*
X135157023Y-163960590D02*
G01*
X135248961Y-163988479D01*
X135308013Y-164006392D01*
X135447165Y-164080771D01*
X135569133Y-164180867D01*
X135669229Y-164302835D01*
X135743608Y-164441987D01*
X135743608Y-164441988D01*
X135789410Y-164592977D01*
X135801000Y-164710655D01*
X135801000Y-165789345D01*
X135789410Y-165907023D01*
X135776676Y-165949000D01*
X135743608Y-166058013D01*
X135716882Y-166108013D01*
X135669229Y-166197165D01*
X135569133Y-166319133D01*
X135480951Y-166391501D01*
X135447164Y-166419229D01*
X135308012Y-166493608D01*
X135257681Y-166508875D01*
X135157022Y-166539410D01*
X135000000Y-166554875D01*
X134842977Y-166539410D01*
X134742318Y-166508875D01*
X134691987Y-166493608D01*
X134552835Y-166419229D01*
X134519048Y-166391501D01*
X134430867Y-166319133D01*
X134330771Y-166197164D01*
X134256392Y-166058012D01*
X134223324Y-165949000D01*
X134210590Y-165907022D01*
X134199000Y-165789344D01*
X134199001Y-164710655D01*
X134210591Y-164592977D01*
X134256393Y-164441988D01*
X134256393Y-164441987D01*
X134330772Y-164302835D01*
X134430868Y-164180867D01*
X134552836Y-164080771D01*
X134691988Y-164006392D01*
X134751040Y-163988479D01*
X134842978Y-163960590D01*
X135000000Y-163945125D01*
X135157023Y-163960590D01*
X135157023Y-163960590D01*
G37*
G36*
X137657023Y-163960590D02*
G01*
X137748961Y-163988479D01*
X137808013Y-164006392D01*
X137947165Y-164080771D01*
X138069133Y-164180867D01*
X138169229Y-164302835D01*
X138243608Y-164441987D01*
X138243608Y-164441988D01*
X138289410Y-164592977D01*
X138301000Y-164710655D01*
X138301000Y-165789345D01*
X138289410Y-165907023D01*
X138276676Y-165949000D01*
X138243608Y-166058013D01*
X138216882Y-166108013D01*
X138169229Y-166197165D01*
X138069133Y-166319133D01*
X137980951Y-166391501D01*
X137947164Y-166419229D01*
X137808012Y-166493608D01*
X137757681Y-166508875D01*
X137657022Y-166539410D01*
X137500000Y-166554875D01*
X137342977Y-166539410D01*
X137242318Y-166508875D01*
X137191987Y-166493608D01*
X137052835Y-166419229D01*
X137019048Y-166391501D01*
X136930867Y-166319133D01*
X136830771Y-166197164D01*
X136756392Y-166058012D01*
X136723324Y-165949000D01*
X136710590Y-165907022D01*
X136699000Y-165789344D01*
X136699001Y-164710655D01*
X136710591Y-164592977D01*
X136756393Y-164441988D01*
X136756393Y-164441987D01*
X136830772Y-164302835D01*
X136930868Y-164180867D01*
X137052836Y-164080771D01*
X137191988Y-164006392D01*
X137251040Y-163988479D01*
X137342978Y-163960590D01*
X137500000Y-163945125D01*
X137657023Y-163960590D01*
X137657023Y-163960590D01*
G37*
G36*
X142870015Y-165456973D02*
G01*
X142973879Y-165488479D01*
X143001055Y-165503005D01*
X143069600Y-165539643D01*
X143153501Y-165608499D01*
X143222357Y-165692400D01*
X143258995Y-165760945D01*
X143273521Y-165788121D01*
X143305027Y-165891985D01*
X143315666Y-166000000D01*
X143305027Y-166108015D01*
X143273521Y-166211879D01*
X143273519Y-166211882D01*
X143222357Y-166307600D01*
X143153501Y-166391501D01*
X143069600Y-166460357D01*
X143007391Y-166493608D01*
X142973879Y-166511521D01*
X142870015Y-166543027D01*
X142789067Y-166551000D01*
X142210933Y-166551000D01*
X142129985Y-166543027D01*
X142026121Y-166511521D01*
X141992609Y-166493608D01*
X141930400Y-166460357D01*
X141846499Y-166391501D01*
X141777643Y-166307600D01*
X141726481Y-166211882D01*
X141726479Y-166211879D01*
X141694973Y-166108015D01*
X141684334Y-166000000D01*
X141694973Y-165891985D01*
X141726479Y-165788121D01*
X141741005Y-165760945D01*
X141777643Y-165692400D01*
X141846499Y-165608499D01*
X141930400Y-165539643D01*
X141998945Y-165503005D01*
X142026121Y-165488479D01*
X142129985Y-165456973D01*
X142210933Y-165449000D01*
X142789067Y-165449000D01*
X142870015Y-165456973D01*
X142870015Y-165456973D01*
G37*
G36*
X125951000Y-165024001D02*
G01*
X125953402Y-165048387D01*
X125960515Y-165071836D01*
X125972066Y-165093447D01*
X125987611Y-165112389D01*
X126006553Y-165127934D01*
X126028164Y-165139485D01*
X126051613Y-165146598D01*
X126075999Y-165149000D01*
X126926000Y-165149000D01*
X126926000Y-166051000D01*
X125974000Y-166051000D01*
X125974000Y-165250999D01*
X125971598Y-165226613D01*
X125964485Y-165203164D01*
X125952934Y-165181553D01*
X125937389Y-165162611D01*
X125918447Y-165147066D01*
X125896836Y-165135515D01*
X125873387Y-165128402D01*
X125849001Y-165126000D01*
X124150999Y-165126000D01*
X124126613Y-165128402D01*
X124103164Y-165135515D01*
X124081553Y-165147066D01*
X124062611Y-165162611D01*
X124047066Y-165181553D01*
X124035515Y-165203164D01*
X124028402Y-165226613D01*
X124026000Y-165250999D01*
X124026000Y-166051000D01*
X123074000Y-166051000D01*
X123074000Y-165149000D01*
X123924001Y-165149000D01*
X123948387Y-165146598D01*
X123971836Y-165139485D01*
X123993447Y-165127934D01*
X124012389Y-165112389D01*
X124027934Y-165093447D01*
X124039485Y-165071836D01*
X124046598Y-165048387D01*
X124049000Y-165024001D01*
X124049000Y-164174000D01*
X125951000Y-164174000D01*
X125951000Y-165024001D01*
X125951000Y-165024001D01*
G37*
G36*
X72769487Y-163288996D02*
G01*
X73006253Y-163387068D01*
X73006255Y-163387069D01*
X73115937Y-163460356D01*
X73219339Y-163529447D01*
X73400553Y-163710661D01*
X73542932Y-163923747D01*
X73641004Y-164160513D01*
X73691000Y-164411861D01*
X73691000Y-164668139D01*
X73641004Y-164919487D01*
X73546931Y-165146598D01*
X73542931Y-165156255D01*
X73400553Y-165369339D01*
X73219339Y-165550553D01*
X73006255Y-165692931D01*
X73006254Y-165692932D01*
X73006253Y-165692932D01*
X72769487Y-165791004D01*
X72518139Y-165841000D01*
X72261861Y-165841000D01*
X72010513Y-165791004D01*
X71773747Y-165692932D01*
X71773746Y-165692932D01*
X71773745Y-165692931D01*
X71560661Y-165550553D01*
X71379447Y-165369339D01*
X71237069Y-165156255D01*
X71233069Y-165146598D01*
X71138996Y-164919487D01*
X71089000Y-164668139D01*
X71089000Y-164411861D01*
X71138996Y-164160513D01*
X71237068Y-163923747D01*
X71379447Y-163710661D01*
X71560661Y-163529447D01*
X71664063Y-163460356D01*
X71773745Y-163387069D01*
X71773747Y-163387068D01*
X72010513Y-163288996D01*
X72261861Y-163239000D01*
X72518139Y-163239000D01*
X72769487Y-163288996D01*
X72769487Y-163288996D01*
G37*
G36*
X142870015Y-163956973D02*
G01*
X142973879Y-163988479D01*
X143001055Y-164003005D01*
X143069600Y-164039643D01*
X143153501Y-164108499D01*
X143222357Y-164192400D01*
X143258995Y-164260945D01*
X143273521Y-164288121D01*
X143305027Y-164391985D01*
X143315666Y-164500000D01*
X143305027Y-164608015D01*
X143273521Y-164711879D01*
X143273519Y-164711882D01*
X143222357Y-164807600D01*
X143153501Y-164891501D01*
X143069600Y-164960357D01*
X143001055Y-164996995D01*
X142973879Y-165011521D01*
X142870015Y-165043027D01*
X142789067Y-165051000D01*
X142210933Y-165051000D01*
X142129985Y-165043027D01*
X142026121Y-165011521D01*
X141998945Y-164996995D01*
X141930400Y-164960357D01*
X141846499Y-164891501D01*
X141777643Y-164807600D01*
X141726481Y-164711882D01*
X141726479Y-164711879D01*
X141694973Y-164608015D01*
X141684334Y-164500000D01*
X141694973Y-164391985D01*
X141726479Y-164288121D01*
X141741005Y-164260945D01*
X141777643Y-164192400D01*
X141846499Y-164108499D01*
X141930400Y-164039643D01*
X141998945Y-164003005D01*
X142026121Y-163988479D01*
X142129985Y-163956973D01*
X142210933Y-163949000D01*
X142789067Y-163949000D01*
X142870015Y-163956973D01*
X142870015Y-163956973D01*
G37*
G36*
X65504554Y-155864284D02*
G01*
X66287286Y-156188502D01*
X66287288Y-156188503D01*
X66991728Y-156659195D01*
X67590805Y-157258272D01*
X68061497Y-157962712D01*
X68061498Y-157962714D01*
X68385716Y-158745446D01*
X68551000Y-159576387D01*
X68551000Y-160423613D01*
X68385716Y-161254554D01*
X68156637Y-161807600D01*
X68061497Y-162037288D01*
X67590805Y-162741728D01*
X66991728Y-163340805D01*
X66287288Y-163811497D01*
X66287287Y-163811498D01*
X66287286Y-163811498D01*
X65504554Y-164135716D01*
X64673613Y-164301000D01*
X63826387Y-164301000D01*
X62995446Y-164135716D01*
X62212714Y-163811498D01*
X62212713Y-163811498D01*
X62212712Y-163811497D01*
X61508272Y-163340805D01*
X60909195Y-162741728D01*
X60438503Y-162037288D01*
X60343363Y-161807600D01*
X60114284Y-161254554D01*
X59949000Y-160423613D01*
X59949000Y-159576387D01*
X60114284Y-158745446D01*
X60438502Y-157962714D01*
X60438503Y-157962712D01*
X60909195Y-157258272D01*
X61508272Y-156659195D01*
X62212712Y-156188503D01*
X62212714Y-156188502D01*
X62995446Y-155864284D01*
X63826387Y-155699000D01*
X64673613Y-155699000D01*
X65504554Y-155864284D01*
X65504554Y-155864284D01*
G37*
G36*
X54504554Y-155864284D02*
G01*
X55287286Y-156188502D01*
X55287288Y-156188503D01*
X55991728Y-156659195D01*
X56590805Y-157258272D01*
X57061497Y-157962712D01*
X57061498Y-157962714D01*
X57385716Y-158745446D01*
X57551000Y-159576387D01*
X57551000Y-160423613D01*
X57385716Y-161254554D01*
X57156637Y-161807600D01*
X57061497Y-162037288D01*
X56590805Y-162741728D01*
X55991728Y-163340805D01*
X55287288Y-163811497D01*
X55287287Y-163811498D01*
X55287286Y-163811498D01*
X54504554Y-164135716D01*
X53673613Y-164301000D01*
X52826387Y-164301000D01*
X51995446Y-164135716D01*
X51212714Y-163811498D01*
X51212713Y-163811498D01*
X51212712Y-163811497D01*
X50508272Y-163340805D01*
X49909195Y-162741728D01*
X49438503Y-162037288D01*
X49343363Y-161807600D01*
X49114284Y-161254554D01*
X48949000Y-160423613D01*
X48949000Y-159576387D01*
X49114284Y-158745446D01*
X49438502Y-157962714D01*
X49438503Y-157962712D01*
X49909195Y-157258272D01*
X50508272Y-156659195D01*
X51212712Y-156188503D01*
X51212714Y-156188502D01*
X51995446Y-155864284D01*
X52826387Y-155699000D01*
X53673613Y-155699000D01*
X54504554Y-155864284D01*
X54504554Y-155864284D01*
G37*
G36*
X142870015Y-162456973D02*
G01*
X142973879Y-162488479D01*
X143001055Y-162503005D01*
X143069600Y-162539643D01*
X143153501Y-162608499D01*
X143222357Y-162692400D01*
X143248723Y-162741728D01*
X143273521Y-162788121D01*
X143305027Y-162891985D01*
X143315666Y-163000000D01*
X143305027Y-163108015D01*
X143273521Y-163211879D01*
X143273519Y-163211882D01*
X143222357Y-163307600D01*
X143153501Y-163391501D01*
X143069600Y-163460357D01*
X143001055Y-163496995D01*
X142973879Y-163511521D01*
X142870015Y-163543027D01*
X142789067Y-163551000D01*
X142210933Y-163551000D01*
X142129985Y-163543027D01*
X142026121Y-163511521D01*
X141998945Y-163496995D01*
X141930400Y-163460357D01*
X141846499Y-163391501D01*
X141777643Y-163307600D01*
X141726481Y-163211882D01*
X141726479Y-163211879D01*
X141694973Y-163108015D01*
X141684334Y-163000000D01*
X141694973Y-162891985D01*
X141726479Y-162788121D01*
X141751277Y-162741728D01*
X141777643Y-162692400D01*
X141846499Y-162608499D01*
X141930400Y-162539643D01*
X141998945Y-162503005D01*
X142026121Y-162488479D01*
X142129985Y-162456973D01*
X142210933Y-162449000D01*
X142789067Y-162449000D01*
X142870015Y-162456973D01*
X142870015Y-162456973D01*
G37*
G36*
X118489487Y-160748996D02*
G01*
X118726253Y-160847068D01*
X118726255Y-160847069D01*
X118939339Y-160989447D01*
X119120553Y-161170661D01*
X119135079Y-161192400D01*
X119262932Y-161383747D01*
X119361004Y-161620513D01*
X119411000Y-161871861D01*
X119411000Y-162128139D01*
X119361004Y-162379487D01*
X119266144Y-162608499D01*
X119262931Y-162616255D01*
X119120553Y-162829339D01*
X118939339Y-163010553D01*
X118726255Y-163152931D01*
X118726254Y-163152932D01*
X118726253Y-163152932D01*
X118489487Y-163251004D01*
X118238139Y-163301000D01*
X117981861Y-163301000D01*
X117730513Y-163251004D01*
X117493747Y-163152932D01*
X117493746Y-163152932D01*
X117493745Y-163152931D01*
X117280661Y-163010553D01*
X117099447Y-162829339D01*
X116957069Y-162616255D01*
X116953856Y-162608499D01*
X116858996Y-162379487D01*
X116809000Y-162128139D01*
X116809000Y-161871861D01*
X116858996Y-161620513D01*
X116957068Y-161383747D01*
X117084922Y-161192400D01*
X117099447Y-161170661D01*
X117280661Y-160989447D01*
X117493745Y-160847069D01*
X117493747Y-160847068D01*
X117730513Y-160748996D01*
X117981861Y-160699000D01*
X118238139Y-160699000D01*
X118489487Y-160748996D01*
X118489487Y-160748996D01*
G37*
G36*
X146801000Y-163051000D02*
G01*
X145199000Y-163051000D01*
X145199000Y-160349000D01*
X146801000Y-160349000D01*
X146801000Y-163051000D01*
X146801000Y-163051000D01*
G37*
G36*
X142870015Y-160956973D02*
G01*
X142973879Y-160988479D01*
X143001055Y-161003005D01*
X143069600Y-161039643D01*
X143153501Y-161108499D01*
X143222357Y-161192400D01*
X143255579Y-161254554D01*
X143273521Y-161288121D01*
X143305027Y-161391985D01*
X143315666Y-161500000D01*
X143305027Y-161608015D01*
X143273521Y-161711879D01*
X143273519Y-161711882D01*
X143222357Y-161807600D01*
X143153501Y-161891501D01*
X143069600Y-161960357D01*
X143001055Y-161996995D01*
X142973879Y-162011521D01*
X142870015Y-162043027D01*
X142789067Y-162051000D01*
X142210933Y-162051000D01*
X142129985Y-162043027D01*
X142026121Y-162011521D01*
X141998945Y-161996995D01*
X141930400Y-161960357D01*
X141846499Y-161891501D01*
X141777643Y-161807600D01*
X141726481Y-161711882D01*
X141726479Y-161711879D01*
X141694973Y-161608015D01*
X141684334Y-161500000D01*
X141694973Y-161391985D01*
X141726479Y-161288121D01*
X141744421Y-161254554D01*
X141777643Y-161192400D01*
X141846499Y-161108499D01*
X141930400Y-161039643D01*
X141998945Y-161003005D01*
X142026121Y-160988479D01*
X142129985Y-160956973D01*
X142210933Y-160949000D01*
X142789067Y-160949000D01*
X142870015Y-160956973D01*
X142870015Y-160956973D01*
G37*
G36*
X142870015Y-159456973D02*
G01*
X142973879Y-159488479D01*
X143001055Y-159503005D01*
X143069600Y-159539643D01*
X143153501Y-159608499D01*
X143222357Y-159692400D01*
X143258995Y-159760945D01*
X143273521Y-159788121D01*
X143305027Y-159891985D01*
X143315666Y-160000000D01*
X143305027Y-160108015D01*
X143273521Y-160211879D01*
X143273519Y-160211882D01*
X143222357Y-160307600D01*
X143153501Y-160391501D01*
X143069600Y-160460357D01*
X143001055Y-160496995D01*
X142973879Y-160511521D01*
X142870015Y-160543027D01*
X142789067Y-160551000D01*
X142210933Y-160551000D01*
X142129985Y-160543027D01*
X142026121Y-160511521D01*
X141998945Y-160496995D01*
X141930400Y-160460357D01*
X141846499Y-160391501D01*
X141777643Y-160307600D01*
X141726481Y-160211882D01*
X141726479Y-160211879D01*
X141694973Y-160108015D01*
X141684334Y-160000000D01*
X141694973Y-159891985D01*
X141726479Y-159788121D01*
X141741005Y-159760945D01*
X141777643Y-159692400D01*
X141846499Y-159608499D01*
X141930400Y-159539643D01*
X141998945Y-159503005D01*
X142026121Y-159488479D01*
X142129985Y-159456973D01*
X142210933Y-159449000D01*
X142789067Y-159449000D01*
X142870015Y-159456973D01*
X142870015Y-159456973D01*
G37*
G36*
X122151000Y-159461000D02*
G01*
X120849000Y-159461000D01*
X120849000Y-158359000D01*
X122151000Y-158359000D01*
X122151000Y-159461000D01*
X122151000Y-159461000D01*
G37*
G36*
X125651000Y-159461000D02*
G01*
X124349000Y-159461000D01*
X124349000Y-158359000D01*
X125651000Y-158359000D01*
X125651000Y-159461000D01*
X125651000Y-159461000D01*
G37*
G36*
X127401000Y-159461000D02*
G01*
X126099000Y-159461000D01*
X126099000Y-158359000D01*
X127401000Y-158359000D01*
X127401000Y-159461000D01*
X127401000Y-159461000D01*
G37*
G36*
X123901000Y-159461000D02*
G01*
X122599000Y-159461000D01*
X122599000Y-158359000D01*
X123901000Y-158359000D01*
X123901000Y-159461000D01*
X123901000Y-159461000D01*
G37*
G36*
X134201000Y-158651000D02*
G01*
X133425999Y-158651000D01*
X133401613Y-158653402D01*
X133378164Y-158660515D01*
X133356553Y-158672066D01*
X133337611Y-158687611D01*
X133322066Y-158706553D01*
X133310515Y-158728164D01*
X133303402Y-158751613D01*
X133301000Y-158775999D01*
X133301000Y-158901000D01*
X132199000Y-158901000D01*
X132199000Y-157599000D01*
X132474001Y-157599000D01*
X132498387Y-157596598D01*
X132521836Y-157589485D01*
X132543447Y-157577934D01*
X132562389Y-157562389D01*
X132573377Y-157549000D01*
X134201000Y-157549000D01*
X134201000Y-158651000D01*
X134201000Y-158651000D01*
G37*
G36*
X131741000Y-158901000D02*
G01*
X130639000Y-158901000D01*
X130639000Y-157599000D01*
X131741000Y-157599000D01*
X131741000Y-158901000D01*
X131741000Y-158901000D01*
G37*
G36*
X139201000Y-158651000D02*
G01*
X137599000Y-158651000D01*
X137599000Y-157549000D01*
X139201000Y-157549000D01*
X139201000Y-158651000D01*
X139201000Y-158651000D01*
G37*
G36*
X122151000Y-157701000D02*
G01*
X120849000Y-157701000D01*
X120849000Y-156009000D01*
X122151000Y-156009000D01*
X122151000Y-157701000D01*
X122151000Y-157701000D01*
G37*
G36*
X123901000Y-157701000D02*
G01*
X122599000Y-157701000D01*
X122599000Y-156009000D01*
X123901000Y-156009000D01*
X123901000Y-157701000D01*
X123901000Y-157701000D01*
G37*
G36*
X127401000Y-157701000D02*
G01*
X126099000Y-157701000D01*
X126099000Y-156009000D01*
X127401000Y-156009000D01*
X127401000Y-157701000D01*
X127401000Y-157701000D01*
G37*
G36*
X125651000Y-157701000D02*
G01*
X124349000Y-157701000D01*
X124349000Y-156009000D01*
X125651000Y-156009000D01*
X125651000Y-157701000D01*
X125651000Y-157701000D01*
G37*
G36*
X133340515Y-155871836D02*
G01*
X133352066Y-155893447D01*
X133367611Y-155912389D01*
X133386553Y-155927934D01*
X133408164Y-155939485D01*
X133431613Y-155946598D01*
X133455999Y-155949000D01*
X134201000Y-155949000D01*
X134201000Y-157051000D01*
X133455999Y-157051000D01*
X133431613Y-157053402D01*
X133408164Y-157060515D01*
X133386553Y-157072066D01*
X133367611Y-157087611D01*
X133352066Y-157106553D01*
X133340515Y-157128164D01*
X133333588Y-157151000D01*
X132229000Y-157151000D01*
X132229000Y-155849000D01*
X133333588Y-155849000D01*
X133340515Y-155871836D01*
X133340515Y-155871836D01*
G37*
G36*
X131771000Y-157151000D02*
G01*
X130669000Y-157151000D01*
X130669000Y-155849000D01*
X131771000Y-155849000D01*
X131771000Y-157151000D01*
X131771000Y-157151000D01*
G37*
G36*
X129151000Y-157081000D02*
G01*
X127849000Y-157081000D01*
X127849000Y-155979000D01*
X129151000Y-155979000D01*
X129151000Y-157081000D01*
X129151000Y-157081000D01*
G37*
G36*
X139201000Y-157051000D02*
G01*
X137599000Y-157051000D01*
X137599000Y-155949000D01*
X139201000Y-155949000D01*
X139201000Y-157051000D01*
X139201000Y-157051000D01*
G37*
G36*
X145328571Y-154702863D02*
G01*
X145407023Y-154710590D01*
X145507682Y-154741125D01*
X145558013Y-154756392D01*
X145697165Y-154830771D01*
X145819133Y-154930867D01*
X145919229Y-155052835D01*
X145993608Y-155191987D01*
X146008875Y-155242318D01*
X146039410Y-155342977D01*
X146054875Y-155500000D01*
X146039410Y-155657023D01*
X146026676Y-155699000D01*
X145993608Y-155808013D01*
X145919229Y-155947165D01*
X145819133Y-156069133D01*
X145697165Y-156169229D01*
X145558013Y-156243608D01*
X145507682Y-156258875D01*
X145407023Y-156289410D01*
X145328571Y-156297137D01*
X145289346Y-156301000D01*
X144210654Y-156301000D01*
X144171429Y-156297137D01*
X144092977Y-156289410D01*
X143992318Y-156258875D01*
X143941987Y-156243608D01*
X143802835Y-156169229D01*
X143680867Y-156069133D01*
X143580771Y-155947165D01*
X143506392Y-155808013D01*
X143473324Y-155699000D01*
X143460590Y-155657023D01*
X143445125Y-155500000D01*
X143460590Y-155342977D01*
X143491125Y-155242318D01*
X143506392Y-155191987D01*
X143580771Y-155052835D01*
X143680867Y-154930867D01*
X143802835Y-154830771D01*
X143941987Y-154756392D01*
X143992318Y-154741125D01*
X144092977Y-154710590D01*
X144171429Y-154702863D01*
X144210654Y-154699000D01*
X145289346Y-154699000D01*
X145328571Y-154702863D01*
X145328571Y-154702863D01*
G37*
G36*
X72769487Y-153128996D02*
G01*
X73006253Y-153227068D01*
X73006255Y-153227069D01*
X73219339Y-153369447D01*
X73400553Y-153550661D01*
X73479778Y-153669229D01*
X73542932Y-153763747D01*
X73641004Y-154000513D01*
X73691000Y-154251861D01*
X73691000Y-154508139D01*
X73641004Y-154759487D01*
X73611477Y-154830771D01*
X73542931Y-154996255D01*
X73400553Y-155209339D01*
X73219339Y-155390553D01*
X73006255Y-155532931D01*
X73006254Y-155532932D01*
X73006253Y-155532932D01*
X72769487Y-155631004D01*
X72518139Y-155681000D01*
X72261861Y-155681000D01*
X72010513Y-155631004D01*
X71773747Y-155532932D01*
X71773746Y-155532932D01*
X71773745Y-155532931D01*
X71560661Y-155390553D01*
X71379447Y-155209339D01*
X71237069Y-154996255D01*
X71168523Y-154830771D01*
X71138996Y-154759487D01*
X71089000Y-154508139D01*
X71089000Y-154251861D01*
X71138996Y-154000513D01*
X71237068Y-153763747D01*
X71300223Y-153669229D01*
X71379447Y-153550661D01*
X71560661Y-153369447D01*
X71773745Y-153227069D01*
X71773747Y-153227068D01*
X72010513Y-153128996D01*
X72261861Y-153079000D01*
X72518139Y-153079000D01*
X72769487Y-153128996D01*
X72769487Y-153128996D01*
G37*
G36*
X127401000Y-155551000D02*
G01*
X126099000Y-155551000D01*
X126099000Y-154449000D01*
X127401000Y-154449000D01*
X127401000Y-155551000D01*
X127401000Y-155551000D01*
G37*
G36*
X125651000Y-155551000D02*
G01*
X124349000Y-155551000D01*
X124349000Y-154449000D01*
X125651000Y-154449000D01*
X125651000Y-155551000D01*
X125651000Y-155551000D01*
G37*
G36*
X122151000Y-155551000D02*
G01*
X120849000Y-155551000D01*
X120849000Y-154449000D01*
X122151000Y-154449000D01*
X122151000Y-155551000D01*
X122151000Y-155551000D01*
G37*
G36*
X123901000Y-155551000D02*
G01*
X122599000Y-155551000D01*
X122599000Y-154449000D01*
X123901000Y-154449000D01*
X123901000Y-155551000D01*
X123901000Y-155551000D01*
G37*
G36*
X129151000Y-155521000D02*
G01*
X127849000Y-155521000D01*
X127849000Y-154419000D01*
X129151000Y-154419000D01*
X129151000Y-155521000D01*
X129151000Y-155521000D01*
G37*
G36*
X133331000Y-154224001D02*
G01*
X133333402Y-154248387D01*
X133340515Y-154271836D01*
X133352066Y-154293447D01*
X133367611Y-154312389D01*
X133386553Y-154327934D01*
X133408164Y-154339485D01*
X133431613Y-154346598D01*
X133455999Y-154349000D01*
X134201000Y-154349000D01*
X134201000Y-155451000D01*
X132573377Y-155451000D01*
X132562389Y-155437611D01*
X132543447Y-155422066D01*
X132521836Y-155410515D01*
X132498387Y-155403402D01*
X132474001Y-155401000D01*
X132229000Y-155401000D01*
X132229000Y-154099000D01*
X133331000Y-154099000D01*
X133331000Y-154224001D01*
X133331000Y-154224001D01*
G37*
G36*
X139201000Y-155451000D02*
G01*
X137599000Y-155451000D01*
X137599000Y-154349000D01*
X139201000Y-154349000D01*
X139201000Y-155451000D01*
X139201000Y-155451000D01*
G37*
G36*
X131771000Y-155401000D02*
G01*
X130669000Y-155401000D01*
X130669000Y-154099000D01*
X131771000Y-154099000D01*
X131771000Y-155401000D01*
X131771000Y-155401000D01*
G37*
G36*
X54504554Y-145614284D02*
G01*
X55287286Y-145938502D01*
X55287288Y-145938503D01*
X55991728Y-146409195D01*
X56590805Y-147008272D01*
X57061497Y-147712712D01*
X57061498Y-147712714D01*
X57385716Y-148495446D01*
X57551000Y-149326387D01*
X57551000Y-150173613D01*
X57385716Y-151004554D01*
X57385715Y-151004556D01*
X57061497Y-151787288D01*
X56590805Y-152491728D01*
X55991728Y-153090805D01*
X55287288Y-153561497D01*
X55287287Y-153561498D01*
X55287286Y-153561498D01*
X54504554Y-153885716D01*
X53673613Y-154051000D01*
X52826387Y-154051000D01*
X51995446Y-153885716D01*
X51212714Y-153561498D01*
X51212713Y-153561498D01*
X51212712Y-153561497D01*
X50508272Y-153090805D01*
X49909195Y-152491728D01*
X49438503Y-151787288D01*
X49114285Y-151004556D01*
X49114284Y-151004554D01*
X48949000Y-150173613D01*
X48949000Y-149326387D01*
X49114284Y-148495446D01*
X49438502Y-147712714D01*
X49438503Y-147712712D01*
X49909195Y-147008272D01*
X50508272Y-146409195D01*
X51212712Y-145938503D01*
X51212714Y-145938502D01*
X51995446Y-145614284D01*
X52826387Y-145449000D01*
X53673613Y-145449000D01*
X54504554Y-145614284D01*
X54504554Y-145614284D01*
G37*
G36*
X65504554Y-145614284D02*
G01*
X66287286Y-145938502D01*
X66287288Y-145938503D01*
X66991728Y-146409195D01*
X67590805Y-147008272D01*
X68061497Y-147712712D01*
X68061498Y-147712714D01*
X68385716Y-148495446D01*
X68551000Y-149326387D01*
X68551000Y-150173613D01*
X68385716Y-151004554D01*
X68385715Y-151004556D01*
X68061497Y-151787288D01*
X67590805Y-152491728D01*
X66991728Y-153090805D01*
X66287288Y-153561497D01*
X66287287Y-153561498D01*
X66287286Y-153561498D01*
X65504554Y-153885716D01*
X64673613Y-154051000D01*
X63826387Y-154051000D01*
X62995446Y-153885716D01*
X62212714Y-153561498D01*
X62212713Y-153561498D01*
X62212712Y-153561497D01*
X61508272Y-153090805D01*
X60909195Y-152491728D01*
X60438503Y-151787288D01*
X60114285Y-151004556D01*
X60114284Y-151004554D01*
X59949000Y-150173613D01*
X59949000Y-149326387D01*
X60114284Y-148495446D01*
X60438502Y-147712714D01*
X60438503Y-147712712D01*
X60909195Y-147008272D01*
X61508272Y-146409195D01*
X62212712Y-145938503D01*
X62212714Y-145938502D01*
X62995446Y-145614284D01*
X63826387Y-145449000D01*
X64673613Y-145449000D01*
X65504554Y-145614284D01*
X65504554Y-145614284D01*
G37*
G36*
X145328571Y-152202863D02*
G01*
X145407023Y-152210590D01*
X145507682Y-152241125D01*
X145558013Y-152256392D01*
X145697165Y-152330771D01*
X145819133Y-152430867D01*
X145919229Y-152552835D01*
X145993608Y-152691987D01*
X145993608Y-152691988D01*
X146039410Y-152842977D01*
X146054875Y-153000000D01*
X146039410Y-153157023D01*
X146018162Y-153227068D01*
X145993608Y-153308013D01*
X145919229Y-153447165D01*
X145819133Y-153569133D01*
X145697165Y-153669229D01*
X145558013Y-153743608D01*
X145507682Y-153758875D01*
X145407023Y-153789410D01*
X145328571Y-153797137D01*
X145289346Y-153801000D01*
X144210654Y-153801000D01*
X144171429Y-153797137D01*
X144092977Y-153789410D01*
X143992318Y-153758875D01*
X143941987Y-153743608D01*
X143802835Y-153669229D01*
X143680867Y-153569133D01*
X143580771Y-153447165D01*
X143506392Y-153308013D01*
X143481838Y-153227068D01*
X143460590Y-153157023D01*
X143445125Y-153000000D01*
X143460590Y-152842977D01*
X143506392Y-152691988D01*
X143506392Y-152691987D01*
X143580771Y-152552835D01*
X143680867Y-152430867D01*
X143802835Y-152330771D01*
X143941987Y-152256392D01*
X143992318Y-152241125D01*
X144092977Y-152210590D01*
X144171429Y-152202863D01*
X144210654Y-152199000D01*
X145289346Y-152199000D01*
X145328571Y-152202863D01*
X145328571Y-152202863D01*
G37*
G36*
X118489487Y-150588996D02*
G01*
X118726253Y-150687068D01*
X118726255Y-150687069D01*
X118939339Y-150829447D01*
X119120553Y-151010661D01*
X119262932Y-151223747D01*
X119361004Y-151460513D01*
X119411000Y-151711861D01*
X119411000Y-151968139D01*
X119361004Y-152219487D01*
X119273447Y-152430867D01*
X119262931Y-152456255D01*
X119120553Y-152669339D01*
X118939339Y-152850553D01*
X118726255Y-152992931D01*
X118726254Y-152992932D01*
X118726253Y-152992932D01*
X118489487Y-153091004D01*
X118238139Y-153141000D01*
X117981861Y-153141000D01*
X117730513Y-153091004D01*
X117493747Y-152992932D01*
X117493746Y-152992932D01*
X117493745Y-152992931D01*
X117280661Y-152850553D01*
X117099447Y-152669339D01*
X116957069Y-152456255D01*
X116946553Y-152430867D01*
X116858996Y-152219487D01*
X116809000Y-151968139D01*
X116809000Y-151711861D01*
X116858996Y-151460513D01*
X116957068Y-151223747D01*
X117099447Y-151010661D01*
X117280661Y-150829447D01*
X117493745Y-150687069D01*
X117493747Y-150687068D01*
X117730513Y-150588996D01*
X117981861Y-150539000D01*
X118238139Y-150539000D01*
X118489487Y-150588996D01*
X118489487Y-150588996D01*
G37*
G36*
X131479834Y-142152045D02*
G01*
X131486849Y-142154173D01*
X131493315Y-142157630D01*
X131503749Y-142166192D01*
X132609470Y-143271913D01*
X132618032Y-143282347D01*
X132621489Y-143288813D01*
X132623617Y-143295828D01*
X132624335Y-143303123D01*
X132623617Y-143310418D01*
X132621489Y-143317433D01*
X132618032Y-143323899D01*
X132609470Y-143334333D01*
X132387633Y-143556170D01*
X132377199Y-143564732D01*
X132370733Y-143568189D01*
X132355796Y-143572720D01*
X132333157Y-143582098D01*
X132312783Y-143595712D01*
X132295456Y-143613039D01*
X132281843Y-143633414D01*
X132272467Y-143656049D01*
X132267936Y-143670986D01*
X132264479Y-143677452D01*
X132255917Y-143687886D01*
X132034080Y-143909723D01*
X132023646Y-143918285D01*
X132017180Y-143921742D01*
X132002243Y-143926273D01*
X131979604Y-143935651D01*
X131959230Y-143949265D01*
X131941903Y-143966592D01*
X131928290Y-143986967D01*
X131918914Y-144009602D01*
X131914383Y-144024539D01*
X131910926Y-144031005D01*
X131902364Y-144041439D01*
X131680527Y-144263276D01*
X131670093Y-144271838D01*
X131663626Y-144275295D01*
X131648690Y-144279826D01*
X131626051Y-144289203D01*
X131605677Y-144302817D01*
X131588350Y-144320144D01*
X131574736Y-144340519D01*
X131565360Y-144363156D01*
X131560829Y-144378092D01*
X131557372Y-144384559D01*
X131548810Y-144394993D01*
X131326973Y-144616830D01*
X131316539Y-144625392D01*
X131310073Y-144628849D01*
X131295136Y-144633380D01*
X131272497Y-144642758D01*
X131252123Y-144656372D01*
X131234796Y-144673699D01*
X131221183Y-144694074D01*
X131211807Y-144716709D01*
X131207276Y-144731646D01*
X131203819Y-144738112D01*
X131195257Y-144748546D01*
X130973420Y-144970383D01*
X130962986Y-144978945D01*
X130956519Y-144982402D01*
X130941583Y-144986933D01*
X130918944Y-144996310D01*
X130898570Y-145009924D01*
X130881243Y-145027251D01*
X130867629Y-145047626D01*
X130858253Y-145070263D01*
X130853722Y-145085199D01*
X130850265Y-145091666D01*
X130841703Y-145102100D01*
X130619866Y-145323937D01*
X130609432Y-145332499D01*
X130602966Y-145335956D01*
X130588029Y-145340487D01*
X130565390Y-145349865D01*
X130545016Y-145363479D01*
X130527689Y-145380806D01*
X130514076Y-145401181D01*
X130504700Y-145423816D01*
X130500169Y-145438753D01*
X130496712Y-145445219D01*
X130488150Y-145455653D01*
X130266313Y-145677490D01*
X130255879Y-145686052D01*
X130249413Y-145689509D01*
X130234476Y-145694040D01*
X130211837Y-145703418D01*
X130191463Y-145717032D01*
X130174136Y-145734359D01*
X130160523Y-145754734D01*
X130151147Y-145777369D01*
X130146616Y-145792306D01*
X130143159Y-145798772D01*
X130134597Y-145809206D01*
X129912760Y-146031043D01*
X129902326Y-146039605D01*
X129895859Y-146043062D01*
X129880923Y-146047593D01*
X129858284Y-146056970D01*
X129837910Y-146070584D01*
X129820583Y-146087911D01*
X129806969Y-146108286D01*
X129797593Y-146130923D01*
X129793062Y-146145859D01*
X129789605Y-146152326D01*
X129781043Y-146162760D01*
X129559206Y-146384597D01*
X129548772Y-146393159D01*
X129542306Y-146396616D01*
X129527369Y-146401147D01*
X129504730Y-146410525D01*
X129484356Y-146424139D01*
X129467029Y-146441466D01*
X129453416Y-146461841D01*
X129444040Y-146484476D01*
X129439509Y-146499413D01*
X129436052Y-146505879D01*
X129427490Y-146516313D01*
X129205653Y-146738150D01*
X129195219Y-146746712D01*
X129188753Y-146750169D01*
X129173816Y-146754700D01*
X129151177Y-146764078D01*
X129130803Y-146777692D01*
X129113476Y-146795019D01*
X129099863Y-146815394D01*
X129090487Y-146838029D01*
X129085956Y-146852966D01*
X129082499Y-146859432D01*
X129073937Y-146869866D01*
X128852100Y-147091703D01*
X128841666Y-147100265D01*
X128835199Y-147103722D01*
X128820263Y-147108253D01*
X128797624Y-147117630D01*
X128777250Y-147131244D01*
X128759923Y-147148571D01*
X128746309Y-147168946D01*
X128736933Y-147191583D01*
X128732402Y-147206519D01*
X128728945Y-147212986D01*
X128720383Y-147223420D01*
X128498546Y-147445257D01*
X128488112Y-147453819D01*
X128481646Y-147457276D01*
X128466709Y-147461807D01*
X128444070Y-147471185D01*
X128423696Y-147484799D01*
X128406369Y-147502126D01*
X128392756Y-147522501D01*
X128383380Y-147545136D01*
X128378849Y-147560073D01*
X128375392Y-147566539D01*
X128366830Y-147576973D01*
X128144993Y-147798810D01*
X128134559Y-147807372D01*
X128128092Y-147810829D01*
X128113156Y-147815360D01*
X128090517Y-147824737D01*
X128070143Y-147838351D01*
X128052816Y-147855678D01*
X128039202Y-147876053D01*
X128029826Y-147898690D01*
X128025295Y-147913626D01*
X128021838Y-147920093D01*
X128013276Y-147930527D01*
X127791439Y-148152364D01*
X127781005Y-148160926D01*
X127774539Y-148164383D01*
X127759602Y-148168914D01*
X127736963Y-148178292D01*
X127716589Y-148191906D01*
X127699262Y-148209233D01*
X127685649Y-148229608D01*
X127676273Y-148252243D01*
X127671742Y-148267180D01*
X127668285Y-148273646D01*
X127659723Y-148284080D01*
X127437886Y-148505917D01*
X127427452Y-148514479D01*
X127420986Y-148517936D01*
X127406049Y-148522467D01*
X127383410Y-148531845D01*
X127363036Y-148545459D01*
X127345709Y-148562786D01*
X127332096Y-148583161D01*
X127322720Y-148605796D01*
X127318189Y-148620733D01*
X127314732Y-148627199D01*
X127306170Y-148637633D01*
X127084333Y-148859470D01*
X127073899Y-148868032D01*
X127067433Y-148871489D01*
X127060418Y-148873617D01*
X127053123Y-148874335D01*
X127045828Y-148873617D01*
X127038813Y-148871489D01*
X127032347Y-148868032D01*
X127021913Y-148859470D01*
X125916192Y-147753749D01*
X125907630Y-147743315D01*
X125904173Y-147736849D01*
X125902045Y-147729834D01*
X125901327Y-147722539D01*
X125902045Y-147715244D01*
X125904173Y-147708229D01*
X125907630Y-147701763D01*
X125916192Y-147691329D01*
X126138029Y-147469492D01*
X126148463Y-147460930D01*
X126154929Y-147457473D01*
X126169866Y-147452942D01*
X126192505Y-147443564D01*
X126212879Y-147429950D01*
X126230206Y-147412623D01*
X126243819Y-147392248D01*
X126253195Y-147369613D01*
X126257726Y-147354676D01*
X126261183Y-147348210D01*
X126269745Y-147337776D01*
X126491582Y-147115939D01*
X126502016Y-147107377D01*
X126508482Y-147103920D01*
X126523419Y-147099389D01*
X126546058Y-147090011D01*
X126566432Y-147076397D01*
X126583759Y-147059070D01*
X126597372Y-147038695D01*
X126606748Y-147016060D01*
X126611279Y-147001123D01*
X126614736Y-146994657D01*
X126623298Y-146984223D01*
X126845135Y-146762386D01*
X126855569Y-146753824D01*
X126862036Y-146750367D01*
X126876972Y-146745836D01*
X126899611Y-146736459D01*
X126919985Y-146722845D01*
X126937312Y-146705518D01*
X126950926Y-146685143D01*
X126960302Y-146662506D01*
X126964833Y-146647570D01*
X126968290Y-146641103D01*
X126976852Y-146630669D01*
X127198689Y-146408832D01*
X127209123Y-146400270D01*
X127215589Y-146396813D01*
X127230526Y-146392282D01*
X127253165Y-146382904D01*
X127273539Y-146369290D01*
X127290866Y-146351963D01*
X127304479Y-146331588D01*
X127313855Y-146308953D01*
X127318386Y-146294016D01*
X127321843Y-146287550D01*
X127330405Y-146277116D01*
X127552242Y-146055279D01*
X127562676Y-146046717D01*
X127569143Y-146043260D01*
X127584079Y-146038729D01*
X127606718Y-146029352D01*
X127627092Y-146015738D01*
X127644419Y-145998411D01*
X127658033Y-145978036D01*
X127667409Y-145955399D01*
X127671940Y-145940463D01*
X127675397Y-145933996D01*
X127683959Y-145923562D01*
X127905796Y-145701725D01*
X127916230Y-145693163D01*
X127922696Y-145689706D01*
X127937633Y-145685175D01*
X127960272Y-145675797D01*
X127980646Y-145662183D01*
X127997973Y-145644856D01*
X128011586Y-145624481D01*
X128020962Y-145601846D01*
X128025493Y-145586909D01*
X128028950Y-145580443D01*
X128037512Y-145570009D01*
X128259349Y-145348172D01*
X128269783Y-145339610D01*
X128276249Y-145336153D01*
X128291186Y-145331622D01*
X128313825Y-145322244D01*
X128334199Y-145308630D01*
X128351526Y-145291303D01*
X128365139Y-145270928D01*
X128374515Y-145248293D01*
X128379046Y-145233356D01*
X128382503Y-145226890D01*
X128391065Y-145216456D01*
X128612902Y-144994619D01*
X128623336Y-144986057D01*
X128629803Y-144982600D01*
X128644739Y-144978069D01*
X128667378Y-144968692D01*
X128687752Y-144955078D01*
X128705079Y-144937751D01*
X128718693Y-144917376D01*
X128728069Y-144894739D01*
X128732600Y-144879803D01*
X128736057Y-144873336D01*
X128744619Y-144862902D01*
X128966456Y-144641065D01*
X128976890Y-144632503D01*
X128983356Y-144629046D01*
X128998293Y-144624515D01*
X129020932Y-144615137D01*
X129041306Y-144601523D01*
X129058633Y-144584196D01*
X129072246Y-144563821D01*
X129081622Y-144541186D01*
X129086153Y-144526249D01*
X129089610Y-144519783D01*
X129098172Y-144509349D01*
X129320009Y-144287512D01*
X129330443Y-144278950D01*
X129336909Y-144275493D01*
X129351846Y-144270962D01*
X129374485Y-144261584D01*
X129394859Y-144247970D01*
X129412186Y-144230643D01*
X129425799Y-144210268D01*
X129435175Y-144187633D01*
X129439706Y-144172696D01*
X129443163Y-144166230D01*
X129451725Y-144155796D01*
X129673562Y-143933959D01*
X129683996Y-143925397D01*
X129690463Y-143921940D01*
X129705399Y-143917409D01*
X129728038Y-143908032D01*
X129748412Y-143894418D01*
X129765739Y-143877091D01*
X129779353Y-143856716D01*
X129788729Y-143834079D01*
X129793260Y-143819143D01*
X129796717Y-143812676D01*
X129805279Y-143802242D01*
X130027116Y-143580405D01*
X130037550Y-143571843D01*
X130044016Y-143568386D01*
X130058953Y-143563855D01*
X130081592Y-143554477D01*
X130101966Y-143540863D01*
X130119293Y-143523536D01*
X130132906Y-143503161D01*
X130142282Y-143480526D01*
X130146813Y-143465589D01*
X130150270Y-143459123D01*
X130158832Y-143448689D01*
X130380669Y-143226852D01*
X130391103Y-143218290D01*
X130397570Y-143214833D01*
X130412506Y-143210302D01*
X130435145Y-143200925D01*
X130455519Y-143187311D01*
X130472846Y-143169984D01*
X130486460Y-143149609D01*
X130495836Y-143126972D01*
X130500367Y-143112036D01*
X130503824Y-143105569D01*
X130512386Y-143095135D01*
X130734223Y-142873298D01*
X130744657Y-142864736D01*
X130751123Y-142861279D01*
X130766060Y-142856748D01*
X130788699Y-142847370D01*
X130809073Y-142833756D01*
X130826400Y-142816429D01*
X130840013Y-142796054D01*
X130849389Y-142773419D01*
X130853920Y-142758482D01*
X130857377Y-142752016D01*
X130865939Y-142741582D01*
X131087776Y-142519745D01*
X131098210Y-142511183D01*
X131104676Y-142507726D01*
X131119613Y-142503195D01*
X131142252Y-142493817D01*
X131162626Y-142480203D01*
X131179953Y-142462876D01*
X131193566Y-142442501D01*
X131202942Y-142419866D01*
X131207473Y-142404929D01*
X131210930Y-142398463D01*
X131219492Y-142388029D01*
X131441329Y-142166192D01*
X131451763Y-142157630D01*
X131458229Y-142154173D01*
X131465244Y-142152045D01*
X131472539Y-142151327D01*
X131479834Y-142152045D01*
X131479834Y-142152045D01*
G37*
G36*
X119034756Y-142152045D02*
G01*
X119041771Y-142154173D01*
X119048237Y-142157630D01*
X119058671Y-142166192D01*
X119280508Y-142388029D01*
X119289070Y-142398463D01*
X119292527Y-142404929D01*
X119297058Y-142419866D01*
X119306436Y-142442505D01*
X119320050Y-142462879D01*
X119337377Y-142480206D01*
X119357752Y-142493819D01*
X119380387Y-142503195D01*
X119395324Y-142507726D01*
X119401790Y-142511183D01*
X119412224Y-142519745D01*
X119634061Y-142741582D01*
X119642623Y-142752016D01*
X119646080Y-142758482D01*
X119650611Y-142773419D01*
X119659989Y-142796058D01*
X119673603Y-142816432D01*
X119690930Y-142833759D01*
X119711305Y-142847372D01*
X119733940Y-142856748D01*
X119748877Y-142861279D01*
X119755343Y-142864736D01*
X119765777Y-142873298D01*
X119987614Y-143095135D01*
X119996176Y-143105569D01*
X119999633Y-143112036D01*
X120004164Y-143126972D01*
X120013541Y-143149611D01*
X120027155Y-143169985D01*
X120044482Y-143187312D01*
X120064857Y-143200926D01*
X120087494Y-143210302D01*
X120102430Y-143214833D01*
X120108897Y-143218290D01*
X120119331Y-143226852D01*
X120341168Y-143448689D01*
X120349730Y-143459123D01*
X120353187Y-143465589D01*
X120357718Y-143480526D01*
X120367096Y-143503165D01*
X120380710Y-143523539D01*
X120398037Y-143540866D01*
X120418412Y-143554479D01*
X120441047Y-143563855D01*
X120455984Y-143568386D01*
X120462450Y-143571843D01*
X120472884Y-143580405D01*
X120694721Y-143802242D01*
X120703283Y-143812676D01*
X120706740Y-143819143D01*
X120711271Y-143834079D01*
X120720648Y-143856718D01*
X120734262Y-143877092D01*
X120751589Y-143894419D01*
X120771964Y-143908033D01*
X120794601Y-143917409D01*
X120809537Y-143921940D01*
X120816004Y-143925397D01*
X120826438Y-143933959D01*
X121048275Y-144155796D01*
X121056837Y-144166230D01*
X121060294Y-144172696D01*
X121064825Y-144187633D01*
X121074203Y-144210272D01*
X121087817Y-144230646D01*
X121105144Y-144247973D01*
X121125519Y-144261586D01*
X121148154Y-144270962D01*
X121163091Y-144275493D01*
X121169557Y-144278950D01*
X121179991Y-144287512D01*
X121401828Y-144509349D01*
X121410390Y-144519783D01*
X121413847Y-144526249D01*
X121418378Y-144541186D01*
X121427756Y-144563825D01*
X121441370Y-144584199D01*
X121458697Y-144601526D01*
X121479072Y-144615139D01*
X121501707Y-144624515D01*
X121516644Y-144629046D01*
X121523110Y-144632503D01*
X121533544Y-144641065D01*
X121755381Y-144862902D01*
X121763943Y-144873336D01*
X121767400Y-144879803D01*
X121771931Y-144894739D01*
X121781308Y-144917378D01*
X121794922Y-144937752D01*
X121812249Y-144955079D01*
X121832624Y-144968693D01*
X121855261Y-144978069D01*
X121870197Y-144982600D01*
X121876664Y-144986057D01*
X121887098Y-144994619D01*
X122108935Y-145216456D01*
X122117497Y-145226890D01*
X122120954Y-145233356D01*
X122125485Y-145248293D01*
X122134863Y-145270932D01*
X122148477Y-145291306D01*
X122165804Y-145308633D01*
X122186179Y-145322246D01*
X122208814Y-145331622D01*
X122223751Y-145336153D01*
X122230217Y-145339610D01*
X122240651Y-145348172D01*
X122462488Y-145570009D01*
X122471050Y-145580443D01*
X122474507Y-145586909D01*
X122479038Y-145601846D01*
X122488416Y-145624485D01*
X122502030Y-145644859D01*
X122519357Y-145662186D01*
X122539732Y-145675799D01*
X122562367Y-145685175D01*
X122577304Y-145689706D01*
X122583770Y-145693163D01*
X122594204Y-145701725D01*
X122816041Y-145923562D01*
X122824603Y-145933996D01*
X122828060Y-145940463D01*
X122832591Y-145955399D01*
X122841968Y-145978038D01*
X122855582Y-145998412D01*
X122872909Y-146015739D01*
X122893284Y-146029353D01*
X122915921Y-146038729D01*
X122930857Y-146043260D01*
X122937324Y-146046717D01*
X122947758Y-146055279D01*
X123169595Y-146277116D01*
X123178157Y-146287550D01*
X123181614Y-146294016D01*
X123186145Y-146308953D01*
X123195523Y-146331592D01*
X123209137Y-146351966D01*
X123226464Y-146369293D01*
X123246839Y-146382906D01*
X123269474Y-146392282D01*
X123284411Y-146396813D01*
X123290877Y-146400270D01*
X123301311Y-146408832D01*
X123523148Y-146630669D01*
X123531710Y-146641103D01*
X123535167Y-146647570D01*
X123539698Y-146662506D01*
X123549075Y-146685145D01*
X123562689Y-146705519D01*
X123580016Y-146722846D01*
X123600391Y-146736460D01*
X123623028Y-146745836D01*
X123637964Y-146750367D01*
X123644431Y-146753824D01*
X123654865Y-146762386D01*
X123876702Y-146984223D01*
X123885264Y-146994657D01*
X123888721Y-147001123D01*
X123893252Y-147016060D01*
X123902630Y-147038699D01*
X123916244Y-147059073D01*
X123933571Y-147076400D01*
X123953946Y-147090013D01*
X123976581Y-147099389D01*
X123991518Y-147103920D01*
X123997984Y-147107377D01*
X124008418Y-147115939D01*
X124230255Y-147337776D01*
X124238817Y-147348210D01*
X124242274Y-147354676D01*
X124246805Y-147369613D01*
X124256183Y-147392252D01*
X124269797Y-147412626D01*
X124287124Y-147429953D01*
X124307499Y-147443566D01*
X124330134Y-147452942D01*
X124345071Y-147457473D01*
X124351537Y-147460930D01*
X124361971Y-147469492D01*
X124583808Y-147691329D01*
X124592370Y-147701763D01*
X124595827Y-147708229D01*
X124597955Y-147715244D01*
X124598673Y-147722539D01*
X124597955Y-147729834D01*
X124595827Y-147736849D01*
X124592370Y-147743315D01*
X124583808Y-147753749D01*
X123478087Y-148859470D01*
X123467653Y-148868032D01*
X123461187Y-148871489D01*
X123454172Y-148873617D01*
X123446877Y-148874335D01*
X123439582Y-148873617D01*
X123432567Y-148871489D01*
X123426101Y-148868032D01*
X123415667Y-148859470D01*
X123193830Y-148637633D01*
X123185268Y-148627199D01*
X123181811Y-148620733D01*
X123177280Y-148605796D01*
X123167902Y-148583157D01*
X123154288Y-148562783D01*
X123136961Y-148545456D01*
X123116586Y-148531843D01*
X123093951Y-148522467D01*
X123079014Y-148517936D01*
X123072548Y-148514479D01*
X123062114Y-148505917D01*
X122840277Y-148284080D01*
X122831715Y-148273646D01*
X122828258Y-148267180D01*
X122823727Y-148252243D01*
X122814349Y-148229604D01*
X122800735Y-148209230D01*
X122783408Y-148191903D01*
X122763033Y-148178290D01*
X122740398Y-148168914D01*
X122725461Y-148164383D01*
X122718995Y-148160926D01*
X122708561Y-148152364D01*
X122486724Y-147930527D01*
X122478162Y-147920093D01*
X122474705Y-147913626D01*
X122470174Y-147898690D01*
X122460797Y-147876051D01*
X122447183Y-147855677D01*
X122429856Y-147838350D01*
X122409481Y-147824736D01*
X122386844Y-147815360D01*
X122371908Y-147810829D01*
X122365441Y-147807372D01*
X122355007Y-147798810D01*
X122133170Y-147576973D01*
X122124608Y-147566539D01*
X122121151Y-147560073D01*
X122116620Y-147545136D01*
X122107242Y-147522497D01*
X122093628Y-147502123D01*
X122076301Y-147484796D01*
X122055926Y-147471183D01*
X122033291Y-147461807D01*
X122018354Y-147457276D01*
X122011888Y-147453819D01*
X122001454Y-147445257D01*
X121779617Y-147223420D01*
X121771055Y-147212986D01*
X121767598Y-147206519D01*
X121763067Y-147191583D01*
X121753690Y-147168944D01*
X121740076Y-147148570D01*
X121722749Y-147131243D01*
X121702374Y-147117629D01*
X121679737Y-147108253D01*
X121664801Y-147103722D01*
X121658334Y-147100265D01*
X121647900Y-147091703D01*
X121426063Y-146869866D01*
X121417501Y-146859432D01*
X121414044Y-146852966D01*
X121409513Y-146838029D01*
X121400135Y-146815390D01*
X121386521Y-146795016D01*
X121369194Y-146777689D01*
X121348819Y-146764076D01*
X121326184Y-146754700D01*
X121311247Y-146750169D01*
X121304781Y-146746712D01*
X121294347Y-146738150D01*
X121072510Y-146516313D01*
X121063948Y-146505879D01*
X121060491Y-146499413D01*
X121055960Y-146484476D01*
X121046582Y-146461837D01*
X121032968Y-146441463D01*
X121015641Y-146424136D01*
X120995266Y-146410523D01*
X120972631Y-146401147D01*
X120957694Y-146396616D01*
X120951228Y-146393159D01*
X120940794Y-146384597D01*
X120718957Y-146162760D01*
X120710395Y-146152326D01*
X120706938Y-146145859D01*
X120702407Y-146130923D01*
X120693030Y-146108284D01*
X120679416Y-146087910D01*
X120662089Y-146070583D01*
X120641714Y-146056969D01*
X120619077Y-146047593D01*
X120604141Y-146043062D01*
X120597674Y-146039605D01*
X120587240Y-146031043D01*
X120365403Y-145809206D01*
X120356841Y-145798772D01*
X120353384Y-145792306D01*
X120348853Y-145777369D01*
X120339475Y-145754730D01*
X120325861Y-145734356D01*
X120308534Y-145717029D01*
X120288159Y-145703416D01*
X120265524Y-145694040D01*
X120250587Y-145689509D01*
X120244121Y-145686052D01*
X120233687Y-145677490D01*
X120011850Y-145455653D01*
X120003288Y-145445219D01*
X119999831Y-145438753D01*
X119995300Y-145423816D01*
X119985922Y-145401177D01*
X119972308Y-145380803D01*
X119954981Y-145363476D01*
X119934606Y-145349863D01*
X119911971Y-145340487D01*
X119897034Y-145335956D01*
X119890568Y-145332499D01*
X119880134Y-145323937D01*
X119658297Y-145102100D01*
X119649735Y-145091666D01*
X119646278Y-145085199D01*
X119641747Y-145070263D01*
X119632370Y-145047624D01*
X119618756Y-145027250D01*
X119601429Y-145009923D01*
X119581054Y-144996309D01*
X119558417Y-144986933D01*
X119543481Y-144982402D01*
X119537014Y-144978945D01*
X119526580Y-144970383D01*
X119304743Y-144748546D01*
X119296181Y-144738112D01*
X119292724Y-144731646D01*
X119288193Y-144716709D01*
X119278815Y-144694070D01*
X119265201Y-144673696D01*
X119247874Y-144656369D01*
X119227499Y-144642756D01*
X119204864Y-144633380D01*
X119189927Y-144628849D01*
X119183461Y-144625392D01*
X119173027Y-144616830D01*
X118951190Y-144394993D01*
X118942628Y-144384559D01*
X118939171Y-144378092D01*
X118934640Y-144363156D01*
X118925263Y-144340517D01*
X118911649Y-144320143D01*
X118894322Y-144302816D01*
X118873947Y-144289202D01*
X118851310Y-144279826D01*
X118836374Y-144275295D01*
X118829907Y-144271838D01*
X118819473Y-144263276D01*
X118597636Y-144041439D01*
X118589074Y-144031005D01*
X118585617Y-144024539D01*
X118581086Y-144009602D01*
X118571708Y-143986963D01*
X118558094Y-143966589D01*
X118540767Y-143949262D01*
X118520392Y-143935649D01*
X118497757Y-143926273D01*
X118482820Y-143921742D01*
X118476354Y-143918285D01*
X118465920Y-143909723D01*
X118244083Y-143687886D01*
X118235521Y-143677452D01*
X118232064Y-143670986D01*
X118227533Y-143656049D01*
X118218155Y-143633410D01*
X118204541Y-143613036D01*
X118187214Y-143595709D01*
X118166839Y-143582096D01*
X118144204Y-143572720D01*
X118129267Y-143568189D01*
X118122801Y-143564732D01*
X118112367Y-143556170D01*
X117890530Y-143334333D01*
X117881968Y-143323899D01*
X117878511Y-143317433D01*
X117876383Y-143310418D01*
X117875665Y-143303123D01*
X117876383Y-143295828D01*
X117878511Y-143288813D01*
X117881968Y-143282347D01*
X117890530Y-143271913D01*
X118996251Y-142166192D01*
X119006685Y-142157630D01*
X119013151Y-142154173D01*
X119020166Y-142152045D01*
X119027461Y-142151327D01*
X119034756Y-142152045D01*
X119034756Y-142152045D01*
G37*
G36*
X145328571Y-147202863D02*
G01*
X145407023Y-147210590D01*
X145507682Y-147241125D01*
X145558013Y-147256392D01*
X145697165Y-147330771D01*
X145819133Y-147430867D01*
X145919229Y-147552835D01*
X145993608Y-147691987D01*
X146007216Y-147736849D01*
X146039410Y-147842977D01*
X146054875Y-148000000D01*
X146039410Y-148157023D01*
X146016283Y-148233263D01*
X145993608Y-148308013D01*
X145919229Y-148447165D01*
X145819133Y-148569133D01*
X145697165Y-148669229D01*
X145558013Y-148743608D01*
X145507682Y-148758875D01*
X145407023Y-148789410D01*
X145340112Y-148796000D01*
X145289346Y-148801000D01*
X144210654Y-148801000D01*
X144159888Y-148796000D01*
X144092977Y-148789410D01*
X143992318Y-148758875D01*
X143941987Y-148743608D01*
X143802835Y-148669229D01*
X143680867Y-148569133D01*
X143580771Y-148447165D01*
X143506392Y-148308013D01*
X143483717Y-148233263D01*
X143460590Y-148157023D01*
X143445125Y-148000000D01*
X143460590Y-147842977D01*
X143492784Y-147736849D01*
X143506392Y-147691987D01*
X143580771Y-147552835D01*
X143680867Y-147430867D01*
X143802835Y-147330771D01*
X143941987Y-147256392D01*
X143992318Y-147241125D01*
X144092977Y-147210590D01*
X144171429Y-147202863D01*
X144210654Y-147199000D01*
X145289346Y-147199000D01*
X145328571Y-147202863D01*
X145328571Y-147202863D01*
G37*
G36*
X113451000Y-148796000D02*
G01*
X111849000Y-148796000D01*
X111849000Y-148094000D01*
X113451000Y-148094000D01*
X113451000Y-148796000D01*
X113451000Y-148796000D01*
G37*
G36*
X104151000Y-148796000D02*
G01*
X102549000Y-148796000D01*
X102549000Y-148094000D01*
X104151000Y-148094000D01*
X104151000Y-148796000D01*
X104151000Y-148796000D01*
G37*
G36*
X116981000Y-147901000D02*
G01*
X115879000Y-147901000D01*
X115879000Y-146599000D01*
X116981000Y-146599000D01*
X116981000Y-147901000D01*
X116981000Y-147901000D01*
G37*
G36*
X115101000Y-147901000D02*
G01*
X113999000Y-147901000D01*
X113999000Y-146599000D01*
X115101000Y-146599000D01*
X115101000Y-147901000D01*
X115101000Y-147901000D01*
G37*
G36*
X100521000Y-147901000D02*
G01*
X99419000Y-147901000D01*
X99419000Y-146599000D01*
X100521000Y-146599000D01*
X100521000Y-147901000D01*
X100521000Y-147901000D01*
G37*
G36*
X102081000Y-147901000D02*
G01*
X100979000Y-147901000D01*
X100979000Y-146599000D01*
X102081000Y-146599000D01*
X102081000Y-147901000D01*
X102081000Y-147901000D01*
G37*
G36*
X113451000Y-147526000D02*
G01*
X111849000Y-147526000D01*
X111849000Y-146824000D01*
X113451000Y-146824000D01*
X113451000Y-147526000D01*
X113451000Y-147526000D01*
G37*
G36*
X104151000Y-147526000D02*
G01*
X102549000Y-147526000D01*
X102549000Y-146824000D01*
X104151000Y-146824000D01*
X104151000Y-147526000D01*
X104151000Y-147526000D01*
G37*
G36*
X145328571Y-144702863D02*
G01*
X145407023Y-144710590D01*
X145476435Y-144731646D01*
X145558013Y-144756392D01*
X145697165Y-144830771D01*
X145819133Y-144930867D01*
X145919229Y-145052835D01*
X145993608Y-145191987D01*
X145993608Y-145191988D01*
X146039410Y-145342977D01*
X146054875Y-145500000D01*
X146039410Y-145657023D01*
X146017551Y-145729081D01*
X145993608Y-145808013D01*
X145919229Y-145947165D01*
X145819133Y-146069133D01*
X145697165Y-146169229D01*
X145558013Y-146243608D01*
X145528729Y-146252491D01*
X145407023Y-146289410D01*
X145360256Y-146294016D01*
X145289346Y-146301000D01*
X144210654Y-146301000D01*
X144139744Y-146294016D01*
X144092977Y-146289410D01*
X143971271Y-146252491D01*
X143941987Y-146243608D01*
X143802835Y-146169229D01*
X143680867Y-146069133D01*
X143580771Y-145947165D01*
X143506392Y-145808013D01*
X143482449Y-145729081D01*
X143460590Y-145657023D01*
X143445125Y-145500000D01*
X143460590Y-145342977D01*
X143506392Y-145191988D01*
X143506392Y-145191987D01*
X143580771Y-145052835D01*
X143680867Y-144930867D01*
X143802835Y-144830771D01*
X143941987Y-144756392D01*
X144023565Y-144731646D01*
X144092977Y-144710590D01*
X144171429Y-144702863D01*
X144210654Y-144699000D01*
X145289346Y-144699000D01*
X145328571Y-144702863D01*
X145328571Y-144702863D01*
G37*
G36*
X104151000Y-146256000D02*
G01*
X102549000Y-146256000D01*
X102549000Y-145554000D01*
X104151000Y-145554000D01*
X104151000Y-146256000D01*
X104151000Y-146256000D01*
G37*
G36*
X113451000Y-146256000D02*
G01*
X111849000Y-146256000D01*
X111849000Y-145554000D01*
X113451000Y-145554000D01*
X113451000Y-146256000D01*
X113451000Y-146256000D01*
G37*
G36*
X104151000Y-144986000D02*
G01*
X102549000Y-144986000D01*
X102549000Y-144284000D01*
X104151000Y-144284000D01*
X104151000Y-144986000D01*
X104151000Y-144986000D01*
G37*
G36*
X113451000Y-144986000D02*
G01*
X111849000Y-144986000D01*
X111849000Y-144284000D01*
X113451000Y-144284000D01*
X113451000Y-144986000D01*
X113451000Y-144986000D01*
G37*
G36*
X113451000Y-143716000D02*
G01*
X111849000Y-143716000D01*
X111849000Y-143014000D01*
X113451000Y-143014000D01*
X113451000Y-143716000D01*
X113451000Y-143716000D01*
G37*
G36*
X104151000Y-143716000D02*
G01*
X102549000Y-143716000D01*
X102549000Y-143014000D01*
X104151000Y-143014000D01*
X104151000Y-143716000D01*
X104151000Y-143716000D01*
G37*
G36*
X113451000Y-142446000D02*
G01*
X111849000Y-142446000D01*
X111849000Y-141744000D01*
X113451000Y-141744000D01*
X113451000Y-142446000D01*
X113451000Y-142446000D01*
G37*
G36*
X104151000Y-142446000D02*
G01*
X102549000Y-142446000D01*
X102549000Y-141744000D01*
X104151000Y-141744000D01*
X104151000Y-142446000D01*
X104151000Y-142446000D01*
G37*
G36*
X90801000Y-141801000D02*
G01*
X87699000Y-141801000D01*
X87699000Y-128699000D01*
X90801000Y-128699000D01*
X90801000Y-141801000D01*
X90801000Y-141801000D01*
G37*
G36*
X64051000Y-141801000D02*
G01*
X60949000Y-141801000D01*
X60949000Y-128699000D01*
X64051000Y-128699000D01*
X64051000Y-141801000D01*
X64051000Y-141801000D01*
G37*
G36*
X145328571Y-139702863D02*
G01*
X145407023Y-139710590D01*
X145488603Y-139735337D01*
X145558013Y-139756392D01*
X145697165Y-139830771D01*
X145819133Y-139930867D01*
X145919229Y-140052835D01*
X145993608Y-140191987D01*
X145998344Y-140207601D01*
X146039410Y-140342977D01*
X146054875Y-140500000D01*
X146039410Y-140657023D01*
X146008875Y-140757682D01*
X145993608Y-140808013D01*
X145919229Y-140947165D01*
X145819133Y-141069133D01*
X145697165Y-141169229D01*
X145558013Y-141243608D01*
X145507682Y-141258875D01*
X145407023Y-141289410D01*
X145328571Y-141297137D01*
X145289346Y-141301000D01*
X144210654Y-141301000D01*
X144171429Y-141297137D01*
X144092977Y-141289410D01*
X143992318Y-141258875D01*
X143941987Y-141243608D01*
X143802835Y-141169229D01*
X143680867Y-141069133D01*
X143580771Y-140947165D01*
X143506392Y-140808013D01*
X143491125Y-140757682D01*
X143460590Y-140657023D01*
X143445125Y-140500000D01*
X143460590Y-140342977D01*
X143501656Y-140207601D01*
X143506392Y-140191987D01*
X143580771Y-140052835D01*
X143680867Y-139930867D01*
X143802835Y-139830771D01*
X143941987Y-139756392D01*
X144011397Y-139735337D01*
X144092977Y-139710590D01*
X144171429Y-139702863D01*
X144210654Y-139699000D01*
X145289346Y-139699000D01*
X145328571Y-139702863D01*
X145328571Y-139702863D01*
G37*
G36*
X104151000Y-141176000D02*
G01*
X102549000Y-141176000D01*
X102549000Y-140474000D01*
X104151000Y-140474000D01*
X104151000Y-141176000D01*
X104151000Y-141176000D01*
G37*
G36*
X113451000Y-141176000D02*
G01*
X111849000Y-141176000D01*
X111849000Y-140474000D01*
X113451000Y-140474000D01*
X113451000Y-141176000D01*
X113451000Y-141176000D01*
G37*
G36*
X123454172Y-134126383D02*
G01*
X123461187Y-134128511D01*
X123467653Y-134131968D01*
X123478087Y-134140530D01*
X124583808Y-135246251D01*
X124592370Y-135256685D01*
X124595827Y-135263151D01*
X124597955Y-135270166D01*
X124598673Y-135277461D01*
X124597955Y-135284756D01*
X124595827Y-135291771D01*
X124592370Y-135298237D01*
X124583808Y-135308671D01*
X124361971Y-135530508D01*
X124351537Y-135539070D01*
X124345071Y-135542527D01*
X124330134Y-135547058D01*
X124307495Y-135556436D01*
X124287121Y-135570050D01*
X124269794Y-135587377D01*
X124256181Y-135607752D01*
X124246805Y-135630387D01*
X124242274Y-135645324D01*
X124238817Y-135651790D01*
X124230255Y-135662224D01*
X124008418Y-135884061D01*
X123997984Y-135892623D01*
X123991518Y-135896080D01*
X123976581Y-135900611D01*
X123953942Y-135909989D01*
X123933568Y-135923603D01*
X123916241Y-135940930D01*
X123902628Y-135961305D01*
X123893252Y-135983940D01*
X123888721Y-135998877D01*
X123885264Y-136005343D01*
X123876702Y-136015777D01*
X123654865Y-136237614D01*
X123644431Y-136246176D01*
X123637964Y-136249633D01*
X123623028Y-136254164D01*
X123600389Y-136263541D01*
X123580015Y-136277155D01*
X123562688Y-136294482D01*
X123549074Y-136314857D01*
X123539698Y-136337494D01*
X123535167Y-136352430D01*
X123531710Y-136358897D01*
X123523148Y-136369331D01*
X123301311Y-136591168D01*
X123290877Y-136599730D01*
X123284411Y-136603187D01*
X123269474Y-136607718D01*
X123246835Y-136617096D01*
X123226461Y-136630710D01*
X123209134Y-136648037D01*
X123195521Y-136668412D01*
X123186145Y-136691047D01*
X123181614Y-136705984D01*
X123178157Y-136712450D01*
X123169595Y-136722884D01*
X122947758Y-136944721D01*
X122937324Y-136953283D01*
X122930857Y-136956740D01*
X122915921Y-136961271D01*
X122893282Y-136970648D01*
X122872908Y-136984262D01*
X122855581Y-137001589D01*
X122841967Y-137021964D01*
X122832591Y-137044601D01*
X122828060Y-137059537D01*
X122824603Y-137066004D01*
X122816041Y-137076438D01*
X122594204Y-137298275D01*
X122583770Y-137306837D01*
X122577304Y-137310294D01*
X122562367Y-137314825D01*
X122539728Y-137324203D01*
X122519354Y-137337817D01*
X122502027Y-137355144D01*
X122488414Y-137375519D01*
X122479038Y-137398154D01*
X122474507Y-137413091D01*
X122471050Y-137419557D01*
X122462488Y-137429991D01*
X122240651Y-137651828D01*
X122230217Y-137660390D01*
X122223751Y-137663847D01*
X122208814Y-137668378D01*
X122186175Y-137677756D01*
X122165801Y-137691370D01*
X122148474Y-137708697D01*
X122134861Y-137729072D01*
X122125485Y-137751707D01*
X122120954Y-137766644D01*
X122117497Y-137773110D01*
X122108935Y-137783544D01*
X121887098Y-138005381D01*
X121876664Y-138013943D01*
X121870197Y-138017400D01*
X121855261Y-138021931D01*
X121832622Y-138031308D01*
X121812248Y-138044922D01*
X121794921Y-138062249D01*
X121781307Y-138082624D01*
X121771931Y-138105261D01*
X121767400Y-138120197D01*
X121763943Y-138126664D01*
X121755381Y-138137098D01*
X121533544Y-138358935D01*
X121523110Y-138367497D01*
X121516644Y-138370954D01*
X121501707Y-138375485D01*
X121479068Y-138384863D01*
X121458694Y-138398477D01*
X121441367Y-138415804D01*
X121427754Y-138436179D01*
X121418378Y-138458814D01*
X121413847Y-138473751D01*
X121410390Y-138480217D01*
X121401828Y-138490651D01*
X121179991Y-138712488D01*
X121169557Y-138721050D01*
X121163091Y-138724507D01*
X121148154Y-138729038D01*
X121125515Y-138738416D01*
X121105141Y-138752030D01*
X121087814Y-138769357D01*
X121074201Y-138789732D01*
X121064825Y-138812367D01*
X121060294Y-138827304D01*
X121056837Y-138833770D01*
X121048275Y-138844204D01*
X120826438Y-139066041D01*
X120816004Y-139074603D01*
X120809537Y-139078060D01*
X120794601Y-139082591D01*
X120771962Y-139091968D01*
X120751588Y-139105582D01*
X120734261Y-139122909D01*
X120720647Y-139143284D01*
X120711271Y-139165921D01*
X120706740Y-139180857D01*
X120703283Y-139187324D01*
X120694721Y-139197758D01*
X120472884Y-139419595D01*
X120462450Y-139428157D01*
X120455984Y-139431614D01*
X120441047Y-139436145D01*
X120418408Y-139445523D01*
X120398034Y-139459137D01*
X120380707Y-139476464D01*
X120367094Y-139496839D01*
X120357718Y-139519474D01*
X120353187Y-139534411D01*
X120349730Y-139540877D01*
X120341168Y-139551311D01*
X120119331Y-139773148D01*
X120108897Y-139781710D01*
X120102430Y-139785167D01*
X120087494Y-139789698D01*
X120064855Y-139799075D01*
X120044481Y-139812689D01*
X120027154Y-139830016D01*
X120013540Y-139850391D01*
X120004164Y-139873028D01*
X119999633Y-139887964D01*
X119996176Y-139894431D01*
X119987614Y-139904865D01*
X119765777Y-140126702D01*
X119755343Y-140135264D01*
X119748877Y-140138721D01*
X119733940Y-140143252D01*
X119711301Y-140152630D01*
X119690927Y-140166244D01*
X119673600Y-140183571D01*
X119659987Y-140203946D01*
X119650611Y-140226581D01*
X119646080Y-140241518D01*
X119642623Y-140247984D01*
X119634061Y-140258418D01*
X119412224Y-140480255D01*
X119401790Y-140488817D01*
X119395324Y-140492274D01*
X119380387Y-140496805D01*
X119357748Y-140506183D01*
X119337374Y-140519797D01*
X119320047Y-140537124D01*
X119306434Y-140557499D01*
X119297058Y-140580134D01*
X119292527Y-140595071D01*
X119289070Y-140601537D01*
X119280508Y-140611971D01*
X119058671Y-140833808D01*
X119048237Y-140842370D01*
X119041771Y-140845827D01*
X119034756Y-140847955D01*
X119027461Y-140848673D01*
X119020166Y-140847955D01*
X119013151Y-140845827D01*
X119006685Y-140842370D01*
X118996251Y-140833808D01*
X117890530Y-139728087D01*
X117881968Y-139717653D01*
X117878511Y-139711187D01*
X117876383Y-139704172D01*
X117875665Y-139696877D01*
X117876383Y-139689582D01*
X117878511Y-139682567D01*
X117881968Y-139676101D01*
X117890530Y-139665667D01*
X118112367Y-139443830D01*
X118122801Y-139435268D01*
X118129267Y-139431811D01*
X118144204Y-139427280D01*
X118166843Y-139417902D01*
X118187217Y-139404288D01*
X118204544Y-139386961D01*
X118218157Y-139366586D01*
X118227533Y-139343951D01*
X118232064Y-139329014D01*
X118235521Y-139322548D01*
X118244083Y-139312114D01*
X118465920Y-139090277D01*
X118476354Y-139081715D01*
X118482820Y-139078258D01*
X118497757Y-139073727D01*
X118520396Y-139064349D01*
X118540770Y-139050735D01*
X118558097Y-139033408D01*
X118571710Y-139013033D01*
X118581086Y-138990398D01*
X118585617Y-138975461D01*
X118589074Y-138968995D01*
X118597636Y-138958561D01*
X118819473Y-138736724D01*
X118829907Y-138728162D01*
X118836374Y-138724705D01*
X118851310Y-138720174D01*
X118873949Y-138710797D01*
X118894323Y-138697183D01*
X118911650Y-138679856D01*
X118925264Y-138659481D01*
X118934640Y-138636844D01*
X118939171Y-138621908D01*
X118942628Y-138615441D01*
X118951190Y-138605007D01*
X119173027Y-138383170D01*
X119183461Y-138374608D01*
X119189927Y-138371151D01*
X119204864Y-138366620D01*
X119227503Y-138357242D01*
X119247877Y-138343628D01*
X119265204Y-138326301D01*
X119278817Y-138305926D01*
X119288193Y-138283291D01*
X119292724Y-138268354D01*
X119296181Y-138261888D01*
X119304743Y-138251454D01*
X119526580Y-138029617D01*
X119537014Y-138021055D01*
X119543481Y-138017598D01*
X119558417Y-138013067D01*
X119581056Y-138003690D01*
X119601430Y-137990076D01*
X119618757Y-137972749D01*
X119632371Y-137952374D01*
X119641747Y-137929737D01*
X119646278Y-137914801D01*
X119649735Y-137908334D01*
X119658297Y-137897900D01*
X119880134Y-137676063D01*
X119890568Y-137667501D01*
X119897034Y-137664044D01*
X119911971Y-137659513D01*
X119934610Y-137650135D01*
X119954984Y-137636521D01*
X119972311Y-137619194D01*
X119985924Y-137598819D01*
X119995300Y-137576184D01*
X119999831Y-137561247D01*
X120003288Y-137554781D01*
X120011850Y-137544347D01*
X120233687Y-137322510D01*
X120244121Y-137313948D01*
X120250587Y-137310491D01*
X120265524Y-137305960D01*
X120288163Y-137296582D01*
X120308537Y-137282968D01*
X120325864Y-137265641D01*
X120339477Y-137245266D01*
X120348853Y-137222631D01*
X120353384Y-137207694D01*
X120356841Y-137201228D01*
X120365403Y-137190794D01*
X120587240Y-136968957D01*
X120597674Y-136960395D01*
X120604141Y-136956938D01*
X120619077Y-136952407D01*
X120641716Y-136943030D01*
X120662090Y-136929416D01*
X120679417Y-136912089D01*
X120693031Y-136891714D01*
X120702407Y-136869077D01*
X120706938Y-136854141D01*
X120710395Y-136847674D01*
X120718957Y-136837240D01*
X120940794Y-136615403D01*
X120951228Y-136606841D01*
X120957694Y-136603384D01*
X120972631Y-136598853D01*
X120995270Y-136589475D01*
X121015644Y-136575861D01*
X121032971Y-136558534D01*
X121046584Y-136538159D01*
X121055960Y-136515524D01*
X121060491Y-136500587D01*
X121063948Y-136494121D01*
X121072510Y-136483687D01*
X121294347Y-136261850D01*
X121304781Y-136253288D01*
X121311247Y-136249831D01*
X121326184Y-136245300D01*
X121348823Y-136235922D01*
X121369197Y-136222308D01*
X121386524Y-136204981D01*
X121400137Y-136184606D01*
X121409513Y-136161971D01*
X121414044Y-136147034D01*
X121417501Y-136140568D01*
X121426063Y-136130134D01*
X121647900Y-135908297D01*
X121658334Y-135899735D01*
X121664801Y-135896278D01*
X121679737Y-135891747D01*
X121702376Y-135882370D01*
X121722750Y-135868756D01*
X121740077Y-135851429D01*
X121753691Y-135831054D01*
X121763067Y-135808417D01*
X121767598Y-135793481D01*
X121771055Y-135787014D01*
X121779617Y-135776580D01*
X122001454Y-135554743D01*
X122011888Y-135546181D01*
X122018354Y-135542724D01*
X122033291Y-135538193D01*
X122055930Y-135528815D01*
X122076304Y-135515201D01*
X122093631Y-135497874D01*
X122107244Y-135477499D01*
X122116620Y-135454864D01*
X122121151Y-135439927D01*
X122124608Y-135433461D01*
X122133170Y-135423027D01*
X122355007Y-135201190D01*
X122365441Y-135192628D01*
X122371908Y-135189171D01*
X122386844Y-135184640D01*
X122409483Y-135175263D01*
X122429857Y-135161649D01*
X122447184Y-135144322D01*
X122460798Y-135123947D01*
X122470174Y-135101310D01*
X122474705Y-135086374D01*
X122478162Y-135079907D01*
X122486724Y-135069473D01*
X122708561Y-134847636D01*
X122718995Y-134839074D01*
X122725461Y-134835617D01*
X122740398Y-134831086D01*
X122763037Y-134821708D01*
X122783411Y-134808094D01*
X122800738Y-134790767D01*
X122814351Y-134770392D01*
X122823727Y-134747757D01*
X122828258Y-134732820D01*
X122831715Y-134726354D01*
X122840277Y-134715920D01*
X123062114Y-134494083D01*
X123072548Y-134485521D01*
X123079014Y-134482064D01*
X123093951Y-134477533D01*
X123116590Y-134468155D01*
X123136964Y-134454541D01*
X123154291Y-134437214D01*
X123167904Y-134416839D01*
X123177280Y-134394204D01*
X123181811Y-134379267D01*
X123185268Y-134372801D01*
X123193830Y-134362367D01*
X123415667Y-134140530D01*
X123426101Y-134131968D01*
X123432567Y-134128511D01*
X123439582Y-134126383D01*
X123446877Y-134125665D01*
X123454172Y-134126383D01*
X123454172Y-134126383D01*
G37*
G36*
X127060418Y-134126383D02*
G01*
X127067433Y-134128511D01*
X127073899Y-134131968D01*
X127084333Y-134140530D01*
X127306170Y-134362367D01*
X127314732Y-134372801D01*
X127318189Y-134379267D01*
X127322720Y-134394204D01*
X127332098Y-134416843D01*
X127345712Y-134437217D01*
X127363039Y-134454544D01*
X127383414Y-134468157D01*
X127406049Y-134477533D01*
X127420986Y-134482064D01*
X127427452Y-134485521D01*
X127437886Y-134494083D01*
X127659723Y-134715920D01*
X127668285Y-134726354D01*
X127671742Y-134732820D01*
X127676273Y-134747757D01*
X127685651Y-134770396D01*
X127699265Y-134790770D01*
X127716592Y-134808097D01*
X127736967Y-134821710D01*
X127759602Y-134831086D01*
X127774539Y-134835617D01*
X127781005Y-134839074D01*
X127791439Y-134847636D01*
X128013276Y-135069473D01*
X128021838Y-135079907D01*
X128025295Y-135086374D01*
X128029826Y-135101310D01*
X128039203Y-135123949D01*
X128052817Y-135144323D01*
X128070144Y-135161650D01*
X128090519Y-135175264D01*
X128113156Y-135184640D01*
X128128092Y-135189171D01*
X128134559Y-135192628D01*
X128144993Y-135201190D01*
X128366830Y-135423027D01*
X128375392Y-135433461D01*
X128378849Y-135439927D01*
X128383380Y-135454864D01*
X128392758Y-135477503D01*
X128406372Y-135497877D01*
X128423699Y-135515204D01*
X128444074Y-135528817D01*
X128466709Y-135538193D01*
X128481646Y-135542724D01*
X128488112Y-135546181D01*
X128498546Y-135554743D01*
X128720383Y-135776580D01*
X128728945Y-135787014D01*
X128732402Y-135793481D01*
X128736933Y-135808417D01*
X128746310Y-135831056D01*
X128759924Y-135851430D01*
X128777251Y-135868757D01*
X128797626Y-135882371D01*
X128820263Y-135891747D01*
X128835199Y-135896278D01*
X128841666Y-135899735D01*
X128852100Y-135908297D01*
X129073937Y-136130134D01*
X129082499Y-136140568D01*
X129085956Y-136147034D01*
X129090487Y-136161971D01*
X129099865Y-136184610D01*
X129113479Y-136204984D01*
X129130806Y-136222311D01*
X129151181Y-136235924D01*
X129173816Y-136245300D01*
X129188753Y-136249831D01*
X129195219Y-136253288D01*
X129205653Y-136261850D01*
X129427490Y-136483687D01*
X129436052Y-136494121D01*
X129439509Y-136500587D01*
X129444040Y-136515524D01*
X129453418Y-136538163D01*
X129467032Y-136558537D01*
X129484359Y-136575864D01*
X129504734Y-136589477D01*
X129527369Y-136598853D01*
X129542306Y-136603384D01*
X129548772Y-136606841D01*
X129559206Y-136615403D01*
X129781043Y-136837240D01*
X129789605Y-136847674D01*
X129793062Y-136854141D01*
X129797593Y-136869077D01*
X129806970Y-136891716D01*
X129820584Y-136912090D01*
X129837911Y-136929417D01*
X129858286Y-136943031D01*
X129880923Y-136952407D01*
X129895859Y-136956938D01*
X129902326Y-136960395D01*
X129912760Y-136968957D01*
X130134597Y-137190794D01*
X130143159Y-137201228D01*
X130146616Y-137207694D01*
X130151147Y-137222631D01*
X130160525Y-137245270D01*
X130174139Y-137265644D01*
X130191466Y-137282971D01*
X130211841Y-137296584D01*
X130234476Y-137305960D01*
X130249413Y-137310491D01*
X130255879Y-137313948D01*
X130266313Y-137322510D01*
X130488150Y-137544347D01*
X130496712Y-137554781D01*
X130500169Y-137561247D01*
X130504700Y-137576184D01*
X130514078Y-137598823D01*
X130527692Y-137619197D01*
X130545019Y-137636524D01*
X130565394Y-137650137D01*
X130588029Y-137659513D01*
X130602966Y-137664044D01*
X130609432Y-137667501D01*
X130619866Y-137676063D01*
X130841703Y-137897900D01*
X130850265Y-137908334D01*
X130853722Y-137914801D01*
X130858253Y-137929737D01*
X130867630Y-137952376D01*
X130881244Y-137972750D01*
X130898571Y-137990077D01*
X130918946Y-138003691D01*
X130941583Y-138013067D01*
X130956519Y-138017598D01*
X130962986Y-138021055D01*
X130973420Y-138029617D01*
X131195257Y-138251454D01*
X131203819Y-138261888D01*
X131207276Y-138268354D01*
X131211807Y-138283291D01*
X131221185Y-138305930D01*
X131234799Y-138326304D01*
X131252126Y-138343631D01*
X131272501Y-138357244D01*
X131295136Y-138366620D01*
X131310073Y-138371151D01*
X131316539Y-138374608D01*
X131326973Y-138383170D01*
X131548810Y-138605007D01*
X131557372Y-138615441D01*
X131560829Y-138621908D01*
X131565360Y-138636844D01*
X131574737Y-138659483D01*
X131588351Y-138679857D01*
X131605678Y-138697184D01*
X131626053Y-138710798D01*
X131648690Y-138720174D01*
X131663626Y-138724705D01*
X131670093Y-138728162D01*
X131680527Y-138736724D01*
X131902364Y-138958561D01*
X131910926Y-138968995D01*
X131914383Y-138975461D01*
X131918914Y-138990398D01*
X131928292Y-139013037D01*
X131941906Y-139033411D01*
X131959233Y-139050738D01*
X131979608Y-139064351D01*
X132002243Y-139073727D01*
X132017180Y-139078258D01*
X132023646Y-139081715D01*
X132034080Y-139090277D01*
X132255917Y-139312114D01*
X132264479Y-139322548D01*
X132267936Y-139329014D01*
X132272467Y-139343951D01*
X132281845Y-139366590D01*
X132295459Y-139386964D01*
X132312786Y-139404291D01*
X132333161Y-139417904D01*
X132355796Y-139427280D01*
X132370733Y-139431811D01*
X132377199Y-139435268D01*
X132387633Y-139443830D01*
X132609470Y-139665667D01*
X132618032Y-139676101D01*
X132621489Y-139682567D01*
X132623617Y-139689582D01*
X132624335Y-139696877D01*
X132623617Y-139704172D01*
X132621489Y-139711187D01*
X132618032Y-139717653D01*
X132609470Y-139728087D01*
X131503749Y-140833808D01*
X131493315Y-140842370D01*
X131486849Y-140845827D01*
X131479834Y-140847955D01*
X131472539Y-140848673D01*
X131465244Y-140847955D01*
X131458229Y-140845827D01*
X131451763Y-140842370D01*
X131441329Y-140833808D01*
X131219492Y-140611971D01*
X131210930Y-140601537D01*
X131207473Y-140595071D01*
X131202942Y-140580134D01*
X131193564Y-140557495D01*
X131179950Y-140537121D01*
X131162623Y-140519794D01*
X131142248Y-140506181D01*
X131119613Y-140496805D01*
X131104676Y-140492274D01*
X131098210Y-140488817D01*
X131087776Y-140480255D01*
X130865939Y-140258418D01*
X130857377Y-140247984D01*
X130853920Y-140241518D01*
X130849389Y-140226581D01*
X130840011Y-140203942D01*
X130826397Y-140183568D01*
X130809070Y-140166241D01*
X130788695Y-140152628D01*
X130766060Y-140143252D01*
X130751123Y-140138721D01*
X130744657Y-140135264D01*
X130734223Y-140126702D01*
X130512386Y-139904865D01*
X130503824Y-139894431D01*
X130500367Y-139887964D01*
X130495836Y-139873028D01*
X130486459Y-139850389D01*
X130472845Y-139830015D01*
X130455518Y-139812688D01*
X130435143Y-139799074D01*
X130412506Y-139789698D01*
X130397570Y-139785167D01*
X130391103Y-139781710D01*
X130380669Y-139773148D01*
X130158832Y-139551311D01*
X130150270Y-139540877D01*
X130146813Y-139534411D01*
X130142282Y-139519474D01*
X130132904Y-139496835D01*
X130119290Y-139476461D01*
X130101963Y-139459134D01*
X130081588Y-139445521D01*
X130058953Y-139436145D01*
X130044016Y-139431614D01*
X130037550Y-139428157D01*
X130027116Y-139419595D01*
X129805279Y-139197758D01*
X129796717Y-139187324D01*
X129793260Y-139180857D01*
X129788729Y-139165921D01*
X129779352Y-139143282D01*
X129765738Y-139122908D01*
X129748411Y-139105581D01*
X129728036Y-139091967D01*
X129705399Y-139082591D01*
X129690463Y-139078060D01*
X129683996Y-139074603D01*
X129673562Y-139066041D01*
X129451725Y-138844204D01*
X129443163Y-138833770D01*
X129439706Y-138827304D01*
X129435175Y-138812367D01*
X129425797Y-138789728D01*
X129412183Y-138769354D01*
X129394856Y-138752027D01*
X129374481Y-138738414D01*
X129351846Y-138729038D01*
X129336909Y-138724507D01*
X129330443Y-138721050D01*
X129320009Y-138712488D01*
X129098172Y-138490651D01*
X129089610Y-138480217D01*
X129086153Y-138473751D01*
X129081622Y-138458814D01*
X129072244Y-138436175D01*
X129058630Y-138415801D01*
X129041303Y-138398474D01*
X129020928Y-138384861D01*
X128998293Y-138375485D01*
X128983356Y-138370954D01*
X128976890Y-138367497D01*
X128966456Y-138358935D01*
X128744619Y-138137098D01*
X128736057Y-138126664D01*
X128732600Y-138120197D01*
X128728069Y-138105261D01*
X128718692Y-138082622D01*
X128705078Y-138062248D01*
X128687751Y-138044921D01*
X128667376Y-138031307D01*
X128644739Y-138021931D01*
X128629803Y-138017400D01*
X128623336Y-138013943D01*
X128612902Y-138005381D01*
X128391065Y-137783544D01*
X128382503Y-137773110D01*
X128379046Y-137766644D01*
X128374515Y-137751707D01*
X128365137Y-137729068D01*
X128351523Y-137708694D01*
X128334196Y-137691367D01*
X128313821Y-137677754D01*
X128291186Y-137668378D01*
X128276249Y-137663847D01*
X128269783Y-137660390D01*
X128259349Y-137651828D01*
X128037512Y-137429991D01*
X128028950Y-137419557D01*
X128025493Y-137413091D01*
X128020962Y-137398154D01*
X128011584Y-137375515D01*
X127997970Y-137355141D01*
X127980643Y-137337814D01*
X127960268Y-137324201D01*
X127937633Y-137314825D01*
X127922696Y-137310294D01*
X127916230Y-137306837D01*
X127905796Y-137298275D01*
X127683959Y-137076438D01*
X127675397Y-137066004D01*
X127671940Y-137059537D01*
X127667409Y-137044601D01*
X127658032Y-137021962D01*
X127644418Y-137001588D01*
X127627091Y-136984261D01*
X127606716Y-136970647D01*
X127584079Y-136961271D01*
X127569143Y-136956740D01*
X127562676Y-136953283D01*
X127552242Y-136944721D01*
X127330405Y-136722884D01*
X127321843Y-136712450D01*
X127318386Y-136705984D01*
X127313855Y-136691047D01*
X127304477Y-136668408D01*
X127290863Y-136648034D01*
X127273536Y-136630707D01*
X127253161Y-136617094D01*
X127230526Y-136607718D01*
X127215589Y-136603187D01*
X127209123Y-136599730D01*
X127198689Y-136591168D01*
X126976852Y-136369331D01*
X126968290Y-136358897D01*
X126964833Y-136352430D01*
X126960302Y-136337494D01*
X126950925Y-136314855D01*
X126937311Y-136294481D01*
X126919984Y-136277154D01*
X126899609Y-136263540D01*
X126876972Y-136254164D01*
X126862036Y-136249633D01*
X126855569Y-136246176D01*
X126845135Y-136237614D01*
X126623298Y-136015777D01*
X126614736Y-136005343D01*
X126611279Y-135998877D01*
X126606748Y-135983940D01*
X126597370Y-135961301D01*
X126583756Y-135940927D01*
X126566429Y-135923600D01*
X126546054Y-135909987D01*
X126523419Y-135900611D01*
X126508482Y-135896080D01*
X126502016Y-135892623D01*
X126491582Y-135884061D01*
X126269745Y-135662224D01*
X126261183Y-135651790D01*
X126257726Y-135645324D01*
X126253195Y-135630387D01*
X126243817Y-135607748D01*
X126230203Y-135587374D01*
X126212876Y-135570047D01*
X126192501Y-135556434D01*
X126169866Y-135547058D01*
X126154929Y-135542527D01*
X126148463Y-135539070D01*
X126138029Y-135530508D01*
X125916192Y-135308671D01*
X125907630Y-135298237D01*
X125904173Y-135291771D01*
X125902045Y-135284756D01*
X125901327Y-135277461D01*
X125902045Y-135270166D01*
X125904173Y-135263151D01*
X125907630Y-135256685D01*
X125916192Y-135246251D01*
X127021913Y-134140530D01*
X127032347Y-134131968D01*
X127038813Y-134128511D01*
X127045828Y-134126383D01*
X127053123Y-134125665D01*
X127060418Y-134126383D01*
X127060418Y-134126383D01*
G37*
G36*
X113451000Y-139906000D02*
G01*
X111849000Y-139906000D01*
X111849000Y-139204000D01*
X113451000Y-139204000D01*
X113451000Y-139906000D01*
X113451000Y-139906000D01*
G37*
G36*
X104151000Y-139906000D02*
G01*
X102549000Y-139906000D01*
X102549000Y-139204000D01*
X104151000Y-139204000D01*
X104151000Y-139906000D01*
X104151000Y-139906000D01*
G37*
G36*
X137327329Y-137558148D02*
G01*
X135558148Y-139327329D01*
X134071809Y-137840990D01*
X135840990Y-136071809D01*
X137327329Y-137558148D01*
X137327329Y-137558148D01*
G37*
G36*
X145311967Y-137201228D02*
G01*
X145407023Y-137210590D01*
X145507682Y-137241125D01*
X145558013Y-137256392D01*
X145697165Y-137330771D01*
X145819133Y-137430867D01*
X145919229Y-137552835D01*
X145993608Y-137691987D01*
X145997076Y-137703419D01*
X146039410Y-137842977D01*
X146054875Y-138000000D01*
X146039410Y-138157023D01*
X146012964Y-138244204D01*
X145993608Y-138308013D01*
X145919229Y-138447165D01*
X145819133Y-138569133D01*
X145697165Y-138669229D01*
X145558013Y-138743608D01*
X145521140Y-138754793D01*
X145407023Y-138789410D01*
X145328571Y-138797137D01*
X145289346Y-138801000D01*
X144210654Y-138801000D01*
X144171429Y-138797137D01*
X144092977Y-138789410D01*
X143978860Y-138754793D01*
X143941987Y-138743608D01*
X143802835Y-138669229D01*
X143680867Y-138569133D01*
X143580771Y-138447165D01*
X143506392Y-138308013D01*
X143487036Y-138244204D01*
X143460590Y-138157023D01*
X143445125Y-138000000D01*
X143460590Y-137842977D01*
X143502924Y-137703419D01*
X143506392Y-137691987D01*
X143580771Y-137552835D01*
X143680867Y-137430867D01*
X143802835Y-137330771D01*
X143941987Y-137256392D01*
X143992318Y-137241125D01*
X144092977Y-137210590D01*
X144188033Y-137201228D01*
X144210654Y-137199000D01*
X145289346Y-137199000D01*
X145311967Y-137201228D01*
X145311967Y-137201228D01*
G37*
G36*
X138521693Y-135601040D02*
G01*
X137601040Y-136521693D01*
X136821809Y-135742462D01*
X137742462Y-134821809D01*
X138521693Y-135601040D01*
X138521693Y-135601040D01*
G37*
G36*
X134428191Y-134659010D02*
G01*
X132659010Y-136428191D01*
X131172671Y-134941852D01*
X132941852Y-133172671D01*
X134428191Y-134659010D01*
X134428191Y-134659010D01*
G37*
G36*
X145328571Y-134702863D02*
G01*
X145407023Y-134710590D01*
X145507682Y-134741125D01*
X145558013Y-134756392D01*
X145697165Y-134830771D01*
X145819133Y-134930867D01*
X145919229Y-135052835D01*
X145993608Y-135191987D01*
X145997979Y-135206397D01*
X146039410Y-135342977D01*
X146054875Y-135500000D01*
X146039410Y-135657023D01*
X146015232Y-135736726D01*
X145993608Y-135808013D01*
X145919229Y-135947165D01*
X145819133Y-136069133D01*
X145697165Y-136169229D01*
X145558013Y-136243608D01*
X145523214Y-136254164D01*
X145407023Y-136289410D01*
X145328571Y-136297137D01*
X145289346Y-136301000D01*
X144210654Y-136301000D01*
X144171429Y-136297137D01*
X144092977Y-136289410D01*
X143976786Y-136254164D01*
X143941987Y-136243608D01*
X143802835Y-136169229D01*
X143680867Y-136069133D01*
X143580771Y-135947165D01*
X143506392Y-135808013D01*
X143484768Y-135736726D01*
X143460590Y-135657023D01*
X143445125Y-135500000D01*
X143460590Y-135342977D01*
X143502021Y-135206397D01*
X143506392Y-135191987D01*
X143580771Y-135052835D01*
X143680867Y-134930867D01*
X143802835Y-134830771D01*
X143941987Y-134756392D01*
X143992318Y-134741125D01*
X144092977Y-134710590D01*
X144171429Y-134702863D01*
X144210654Y-134699000D01*
X145289346Y-134699000D01*
X145328571Y-134702863D01*
X145328571Y-134702863D01*
G37*
G36*
X119301000Y-135651000D02*
G01*
X117699000Y-135651000D01*
X117699000Y-132949000D01*
X119301000Y-132949000D01*
X119301000Y-135651000D01*
X119301000Y-135651000D01*
G37*
G36*
X115551000Y-135651000D02*
G01*
X113949000Y-135651000D01*
X113949000Y-132949000D01*
X115551000Y-132949000D01*
X115551000Y-135651000D01*
X115551000Y-135651000D01*
G37*
G36*
X137192333Y-134271680D02*
G01*
X136271680Y-135192333D01*
X135057667Y-133978320D01*
X135978320Y-133057667D01*
X137192333Y-134271680D01*
X137192333Y-134271680D01*
G37*
G36*
X145327826Y-132202790D02*
G01*
X145407023Y-132210590D01*
X145507682Y-132241125D01*
X145558013Y-132256392D01*
X145697165Y-132330771D01*
X145819133Y-132430867D01*
X145919229Y-132552835D01*
X145993608Y-132691987D01*
X145993608Y-132691988D01*
X146039410Y-132842977D01*
X146054875Y-133000000D01*
X146039410Y-133157023D01*
X146008875Y-133257682D01*
X145993608Y-133308013D01*
X145919229Y-133447165D01*
X145819133Y-133569133D01*
X145697165Y-133669229D01*
X145558013Y-133743608D01*
X145507682Y-133758875D01*
X145407023Y-133789410D01*
X145328571Y-133797137D01*
X145289346Y-133801000D01*
X144210654Y-133801000D01*
X144171429Y-133797137D01*
X144092977Y-133789410D01*
X143992318Y-133758875D01*
X143941987Y-133743608D01*
X143802835Y-133669229D01*
X143680867Y-133569133D01*
X143580771Y-133447165D01*
X143506392Y-133308013D01*
X143491125Y-133257682D01*
X143460590Y-133157023D01*
X143445125Y-133000000D01*
X143460590Y-132842977D01*
X143506392Y-132691988D01*
X143506392Y-132691987D01*
X143580771Y-132552835D01*
X143680867Y-132430867D01*
X143802835Y-132330771D01*
X143941987Y-132256392D01*
X143992318Y-132241125D01*
X144092977Y-132210590D01*
X144172174Y-132202790D01*
X144210654Y-132199000D01*
X145289346Y-132199000D01*
X145327826Y-132202790D01*
X145327826Y-132202790D01*
G37*
G36*
X135428191Y-132507538D02*
G01*
X134507538Y-133428191D01*
X133728307Y-132648960D01*
X134648960Y-131728307D01*
X135428191Y-132507538D01*
X135428191Y-132507538D01*
G37*
G36*
X112019987Y-131561524D02*
G01*
X112038730Y-131567210D01*
X112055997Y-131576439D01*
X112071136Y-131588864D01*
X112083561Y-131604003D01*
X112092790Y-131621270D01*
X112098476Y-131640013D01*
X112101000Y-131665640D01*
X112101000Y-132104360D01*
X112098476Y-132129987D01*
X112092790Y-132148730D01*
X112083561Y-132165997D01*
X112071136Y-132181136D01*
X112055997Y-132193561D01*
X112038730Y-132202790D01*
X112019987Y-132208476D01*
X111994360Y-132211000D01*
X110505640Y-132211000D01*
X110480013Y-132208476D01*
X110461270Y-132202790D01*
X110444003Y-132193561D01*
X110428864Y-132181136D01*
X110416439Y-132165997D01*
X110407210Y-132148730D01*
X110401524Y-132129987D01*
X110399000Y-132104360D01*
X110399000Y-131665640D01*
X110401524Y-131640013D01*
X110407210Y-131621270D01*
X110416439Y-131604003D01*
X110428864Y-131588864D01*
X110444003Y-131576439D01*
X110461270Y-131567210D01*
X110480013Y-131561524D01*
X110505640Y-131559000D01*
X111994360Y-131559000D01*
X112019987Y-131561524D01*
X112019987Y-131561524D01*
G37*
G36*
X105519987Y-131561524D02*
G01*
X105538730Y-131567210D01*
X105555997Y-131576439D01*
X105571136Y-131588864D01*
X105583561Y-131604003D01*
X105592790Y-131621270D01*
X105598476Y-131640013D01*
X105601000Y-131665640D01*
X105601000Y-132104360D01*
X105598476Y-132129987D01*
X105592790Y-132148730D01*
X105583561Y-132165997D01*
X105571136Y-132181136D01*
X105555997Y-132193561D01*
X105538730Y-132202790D01*
X105519987Y-132208476D01*
X105494360Y-132211000D01*
X104005640Y-132211000D01*
X103980013Y-132208476D01*
X103961270Y-132202790D01*
X103944003Y-132193561D01*
X103928864Y-132181136D01*
X103916439Y-132165997D01*
X103907210Y-132148730D01*
X103901524Y-132129987D01*
X103899000Y-132104360D01*
X103899000Y-131665640D01*
X103901524Y-131640013D01*
X103907210Y-131621270D01*
X103916439Y-131604003D01*
X103928864Y-131588864D01*
X103944003Y-131576439D01*
X103961270Y-131567210D01*
X103980013Y-131561524D01*
X104005640Y-131559000D01*
X105494360Y-131559000D01*
X105519987Y-131561524D01*
X105519987Y-131561524D01*
G37*
G36*
X132027142Y-130218242D02*
G01*
X132175101Y-130279529D01*
X132308255Y-130368499D01*
X132421501Y-130481745D01*
X132510471Y-130614899D01*
X132571758Y-130762858D01*
X132603000Y-130919925D01*
X132603000Y-131080075D01*
X132571758Y-131237142D01*
X132510471Y-131385101D01*
X132421501Y-131518255D01*
X132308255Y-131631501D01*
X132175101Y-131720471D01*
X132027142Y-131781758D01*
X131870075Y-131813000D01*
X131709925Y-131813000D01*
X131552858Y-131781758D01*
X131404899Y-131720471D01*
X131271745Y-131631501D01*
X131158499Y-131518255D01*
X131069529Y-131385101D01*
X131008242Y-131237142D01*
X130977000Y-131080075D01*
X130977000Y-130919925D01*
X131008242Y-130762858D01*
X131069529Y-130614899D01*
X131158499Y-130481745D01*
X131271745Y-130368499D01*
X131404899Y-130279529D01*
X131552858Y-130218242D01*
X131709925Y-130187000D01*
X131870075Y-130187000D01*
X132027142Y-130218242D01*
X132027142Y-130218242D01*
G37*
G36*
X129487142Y-130218242D02*
G01*
X129635101Y-130279529D01*
X129768255Y-130368499D01*
X129881501Y-130481745D01*
X129970471Y-130614899D01*
X130031758Y-130762858D01*
X130063000Y-130919925D01*
X130063000Y-131080075D01*
X130031758Y-131237142D01*
X129970471Y-131385101D01*
X129881501Y-131518255D01*
X129768255Y-131631501D01*
X129635101Y-131720471D01*
X129487142Y-131781758D01*
X129330075Y-131813000D01*
X129169925Y-131813000D01*
X129012858Y-131781758D01*
X128864899Y-131720471D01*
X128731745Y-131631501D01*
X128618499Y-131518255D01*
X128529529Y-131385101D01*
X128468242Y-131237142D01*
X128437000Y-131080075D01*
X128437000Y-130919925D01*
X128468242Y-130762858D01*
X128529529Y-130614899D01*
X128618499Y-130481745D01*
X128731745Y-130368499D01*
X128864899Y-130279529D01*
X129012858Y-130218242D01*
X129169925Y-130187000D01*
X129330075Y-130187000D01*
X129487142Y-130218242D01*
X129487142Y-130218242D01*
G37*
G36*
X126947142Y-130218242D02*
G01*
X127095101Y-130279529D01*
X127228255Y-130368499D01*
X127341501Y-130481745D01*
X127430471Y-130614899D01*
X127491758Y-130762858D01*
X127523000Y-130919925D01*
X127523000Y-131080075D01*
X127491758Y-131237142D01*
X127430471Y-131385101D01*
X127341501Y-131518255D01*
X127228255Y-131631501D01*
X127095101Y-131720471D01*
X126947142Y-131781758D01*
X126790075Y-131813000D01*
X126629925Y-131813000D01*
X126472858Y-131781758D01*
X126324899Y-131720471D01*
X126191745Y-131631501D01*
X126078499Y-131518255D01*
X125989529Y-131385101D01*
X125928242Y-131237142D01*
X125897000Y-131080075D01*
X125897000Y-130919925D01*
X125928242Y-130762858D01*
X125989529Y-130614899D01*
X126078499Y-130481745D01*
X126191745Y-130368499D01*
X126324899Y-130279529D01*
X126472858Y-130218242D01*
X126629925Y-130187000D01*
X126790075Y-130187000D01*
X126947142Y-130218242D01*
X126947142Y-130218242D01*
G37*
G36*
X112019987Y-130291524D02*
G01*
X112038730Y-130297210D01*
X112055997Y-130306439D01*
X112071136Y-130318864D01*
X112083561Y-130334003D01*
X112092790Y-130351270D01*
X112098476Y-130370013D01*
X112101000Y-130395640D01*
X112101000Y-130834360D01*
X112098476Y-130859987D01*
X112092790Y-130878730D01*
X112083561Y-130895997D01*
X112071136Y-130911136D01*
X112055997Y-130923561D01*
X112038730Y-130932790D01*
X112019987Y-130938476D01*
X111994360Y-130941000D01*
X110505640Y-130941000D01*
X110480013Y-130938476D01*
X110461270Y-130932790D01*
X110444003Y-130923561D01*
X110428864Y-130911136D01*
X110416439Y-130895997D01*
X110407210Y-130878730D01*
X110401524Y-130859987D01*
X110399000Y-130834360D01*
X110399000Y-130395640D01*
X110401524Y-130370013D01*
X110407210Y-130351270D01*
X110416439Y-130334003D01*
X110428864Y-130318864D01*
X110444003Y-130306439D01*
X110461270Y-130297210D01*
X110480013Y-130291524D01*
X110505640Y-130289000D01*
X111994360Y-130289000D01*
X112019987Y-130291524D01*
X112019987Y-130291524D01*
G37*
G36*
X105519987Y-130291524D02*
G01*
X105538730Y-130297210D01*
X105555997Y-130306439D01*
X105571136Y-130318864D01*
X105583561Y-130334003D01*
X105592790Y-130351270D01*
X105598476Y-130370013D01*
X105601000Y-130395640D01*
X105601000Y-130834360D01*
X105598476Y-130859987D01*
X105592790Y-130878730D01*
X105583561Y-130895997D01*
X105571136Y-130911136D01*
X105555997Y-130923561D01*
X105538730Y-130932790D01*
X105519987Y-130938476D01*
X105494360Y-130941000D01*
X104005640Y-130941000D01*
X103980013Y-130938476D01*
X103961270Y-130932790D01*
X103944003Y-130923561D01*
X103928864Y-130911136D01*
X103916439Y-130895997D01*
X103907210Y-130878730D01*
X103901524Y-130859987D01*
X103899000Y-130834360D01*
X103899000Y-130395640D01*
X103901524Y-130370013D01*
X103907210Y-130351270D01*
X103916439Y-130334003D01*
X103928864Y-130318864D01*
X103944003Y-130306439D01*
X103961270Y-130297210D01*
X103980013Y-130291524D01*
X104005640Y-130289000D01*
X105494360Y-130289000D01*
X105519987Y-130291524D01*
X105519987Y-130291524D01*
G37*
G36*
X98751000Y-130451000D02*
G01*
X96649000Y-130451000D01*
X96649000Y-121349000D01*
X98751000Y-121349000D01*
X98751000Y-130451000D01*
X98751000Y-130451000D01*
G37*
G36*
X55101000Y-130451000D02*
G01*
X52999000Y-130451000D01*
X52999000Y-121349000D01*
X55101000Y-121349000D01*
X55101000Y-130451000D01*
X55101000Y-130451000D01*
G37*
G36*
X72001000Y-130451000D02*
G01*
X69899000Y-130451000D01*
X69899000Y-121349000D01*
X72001000Y-121349000D01*
X72001000Y-130451000D01*
X72001000Y-130451000D01*
G37*
G36*
X81851000Y-130451000D02*
G01*
X79749000Y-130451000D01*
X79749000Y-121349000D01*
X81851000Y-121349000D01*
X81851000Y-130451000D01*
X81851000Y-130451000D01*
G37*
G36*
X119301000Y-130051000D02*
G01*
X117699000Y-130051000D01*
X117699000Y-127349000D01*
X119301000Y-127349000D01*
X119301000Y-130051000D01*
X119301000Y-130051000D01*
G37*
G36*
X115551000Y-130051000D02*
G01*
X113949000Y-130051000D01*
X113949000Y-127349000D01*
X115551000Y-127349000D01*
X115551000Y-130051000D01*
X115551000Y-130051000D01*
G37*
G36*
X145327826Y-127202790D02*
G01*
X145407023Y-127210590D01*
X145507682Y-127241125D01*
X145558013Y-127256392D01*
X145697165Y-127330771D01*
X145819133Y-127430867D01*
X145919229Y-127552835D01*
X145993608Y-127691987D01*
X145993608Y-127691988D01*
X146039410Y-127842977D01*
X146054875Y-128000000D01*
X146039410Y-128157023D01*
X146008875Y-128257682D01*
X145993608Y-128308013D01*
X145919229Y-128447165D01*
X145819133Y-128569133D01*
X145697165Y-128669229D01*
X145558013Y-128743608D01*
X145507682Y-128758875D01*
X145407023Y-128789410D01*
X145328571Y-128797137D01*
X145289346Y-128801000D01*
X144210654Y-128801000D01*
X144171429Y-128797137D01*
X144092977Y-128789410D01*
X143992318Y-128758875D01*
X143941987Y-128743608D01*
X143802835Y-128669229D01*
X143680867Y-128569133D01*
X143580771Y-128447165D01*
X143506392Y-128308013D01*
X143491125Y-128257682D01*
X143460590Y-128157023D01*
X143445125Y-128000000D01*
X143460590Y-127842977D01*
X143506392Y-127691988D01*
X143506392Y-127691987D01*
X143580771Y-127552835D01*
X143680867Y-127430867D01*
X143802835Y-127330771D01*
X143941987Y-127256392D01*
X143992318Y-127241125D01*
X144092977Y-127210590D01*
X144172174Y-127202790D01*
X144210654Y-127199000D01*
X145289346Y-127199000D01*
X145327826Y-127202790D01*
X145327826Y-127202790D01*
G37*
G36*
X126947142Y-126618242D02*
G01*
X127095101Y-126679529D01*
X127228255Y-126768499D01*
X127341501Y-126881745D01*
X127430471Y-127014899D01*
X127491758Y-127162858D01*
X127523000Y-127319925D01*
X127523000Y-127480075D01*
X127491758Y-127637142D01*
X127430471Y-127785101D01*
X127341501Y-127918255D01*
X127228255Y-128031501D01*
X127095101Y-128120471D01*
X126947142Y-128181758D01*
X126790075Y-128213000D01*
X126629925Y-128213000D01*
X126472858Y-128181758D01*
X126324899Y-128120471D01*
X126191745Y-128031501D01*
X126078499Y-127918255D01*
X125989529Y-127785101D01*
X125928242Y-127637142D01*
X125897000Y-127480075D01*
X125897000Y-127319925D01*
X125928242Y-127162858D01*
X125989529Y-127014899D01*
X126078499Y-126881745D01*
X126191745Y-126768499D01*
X126324899Y-126679529D01*
X126472858Y-126618242D01*
X126629925Y-126587000D01*
X126790075Y-126587000D01*
X126947142Y-126618242D01*
X126947142Y-126618242D01*
G37*
G36*
X129487142Y-126618242D02*
G01*
X129635101Y-126679529D01*
X129768255Y-126768499D01*
X129881501Y-126881745D01*
X129970471Y-127014899D01*
X130031758Y-127162858D01*
X130063000Y-127319925D01*
X130063000Y-127480075D01*
X130031758Y-127637142D01*
X129970471Y-127785101D01*
X129881501Y-127918255D01*
X129768255Y-128031501D01*
X129635101Y-128120471D01*
X129487142Y-128181758D01*
X129330075Y-128213000D01*
X129169925Y-128213000D01*
X129012858Y-128181758D01*
X128864899Y-128120471D01*
X128731745Y-128031501D01*
X128618499Y-127918255D01*
X128529529Y-127785101D01*
X128468242Y-127637142D01*
X128437000Y-127480075D01*
X128437000Y-127319925D01*
X128468242Y-127162858D01*
X128529529Y-127014899D01*
X128618499Y-126881745D01*
X128731745Y-126768499D01*
X128864899Y-126679529D01*
X129012858Y-126618242D01*
X129169925Y-126587000D01*
X129330075Y-126587000D01*
X129487142Y-126618242D01*
X129487142Y-126618242D01*
G37*
G36*
X132027142Y-126618242D02*
G01*
X132175101Y-126679529D01*
X132308255Y-126768499D01*
X132421501Y-126881745D01*
X132510471Y-127014899D01*
X132571758Y-127162858D01*
X132603000Y-127319925D01*
X132603000Y-127480075D01*
X132571758Y-127637142D01*
X132510471Y-127785101D01*
X132421501Y-127918255D01*
X132308255Y-128031501D01*
X132175101Y-128120471D01*
X132027142Y-128181758D01*
X131870075Y-128213000D01*
X131709925Y-128213000D01*
X131552858Y-128181758D01*
X131404899Y-128120471D01*
X131271745Y-128031501D01*
X131158499Y-127918255D01*
X131069529Y-127785101D01*
X131008242Y-127637142D01*
X130977000Y-127480075D01*
X130977000Y-127319925D01*
X131008242Y-127162858D01*
X131069529Y-127014899D01*
X131158499Y-126881745D01*
X131271745Y-126768499D01*
X131404899Y-126679529D01*
X131552858Y-126618242D01*
X131709925Y-126587000D01*
X131870075Y-126587000D01*
X132027142Y-126618242D01*
X132027142Y-126618242D01*
G37*
G36*
X112019987Y-126561524D02*
G01*
X112038730Y-126567210D01*
X112055997Y-126576439D01*
X112071136Y-126588864D01*
X112083561Y-126604003D01*
X112092790Y-126621270D01*
X112098476Y-126640013D01*
X112101000Y-126665640D01*
X112101000Y-127104360D01*
X112098476Y-127129987D01*
X112092790Y-127148730D01*
X112083561Y-127165997D01*
X112071136Y-127181136D01*
X112055997Y-127193561D01*
X112038730Y-127202790D01*
X112019987Y-127208476D01*
X111994360Y-127211000D01*
X110505640Y-127211000D01*
X110480013Y-127208476D01*
X110461270Y-127202790D01*
X110444003Y-127193561D01*
X110428864Y-127181136D01*
X110416439Y-127165997D01*
X110407210Y-127148730D01*
X110401524Y-127129987D01*
X110399000Y-127104360D01*
X110399000Y-126665640D01*
X110401524Y-126640013D01*
X110407210Y-126621270D01*
X110416439Y-126604003D01*
X110428864Y-126588864D01*
X110444003Y-126576439D01*
X110461270Y-126567210D01*
X110480013Y-126561524D01*
X110505640Y-126559000D01*
X111994360Y-126559000D01*
X112019987Y-126561524D01*
X112019987Y-126561524D01*
G37*
G36*
X105519987Y-126561524D02*
G01*
X105538730Y-126567210D01*
X105555997Y-126576439D01*
X105571136Y-126588864D01*
X105583561Y-126604003D01*
X105592790Y-126621270D01*
X105598476Y-126640013D01*
X105601000Y-126665640D01*
X105601000Y-127104360D01*
X105598476Y-127129987D01*
X105592790Y-127148730D01*
X105583561Y-127165997D01*
X105571136Y-127181136D01*
X105555997Y-127193561D01*
X105538730Y-127202790D01*
X105519987Y-127208476D01*
X105494360Y-127211000D01*
X104005640Y-127211000D01*
X103980013Y-127208476D01*
X103961270Y-127202790D01*
X103944003Y-127193561D01*
X103928864Y-127181136D01*
X103916439Y-127165997D01*
X103907210Y-127148730D01*
X103901524Y-127129987D01*
X103899000Y-127104360D01*
X103899000Y-126665640D01*
X103901524Y-126640013D01*
X103907210Y-126621270D01*
X103916439Y-126604003D01*
X103928864Y-126588864D01*
X103944003Y-126576439D01*
X103961270Y-126567210D01*
X103980013Y-126561524D01*
X104005640Y-126559000D01*
X105494360Y-126559000D01*
X105519987Y-126561524D01*
X105519987Y-126561524D01*
G37*
G36*
X145328571Y-124702863D02*
G01*
X145407023Y-124710590D01*
X145507682Y-124741125D01*
X145558013Y-124756392D01*
X145697165Y-124830771D01*
X145819133Y-124930867D01*
X145919229Y-125052835D01*
X145993608Y-125191987D01*
X145993608Y-125191988D01*
X146039410Y-125342977D01*
X146054875Y-125500000D01*
X146039410Y-125657023D01*
X146008875Y-125757682D01*
X145993608Y-125808013D01*
X145919229Y-125947165D01*
X145819133Y-126069133D01*
X145697165Y-126169229D01*
X145558013Y-126243608D01*
X145507682Y-126258875D01*
X145407023Y-126289410D01*
X145328571Y-126297137D01*
X145289346Y-126301000D01*
X144210654Y-126301000D01*
X144171429Y-126297137D01*
X144092977Y-126289410D01*
X143992318Y-126258875D01*
X143941987Y-126243608D01*
X143802835Y-126169229D01*
X143680867Y-126069133D01*
X143580771Y-125947165D01*
X143506392Y-125808013D01*
X143491125Y-125757682D01*
X143460590Y-125657023D01*
X143445125Y-125500000D01*
X143460590Y-125342977D01*
X143506392Y-125191988D01*
X143506392Y-125191987D01*
X143580771Y-125052835D01*
X143680867Y-124930867D01*
X143802835Y-124830771D01*
X143941987Y-124756392D01*
X143992318Y-124741125D01*
X144092977Y-124710590D01*
X144171429Y-124702863D01*
X144210654Y-124699000D01*
X145289346Y-124699000D01*
X145328571Y-124702863D01*
X145328571Y-124702863D01*
G37*
G36*
X112019987Y-125291524D02*
G01*
X112038730Y-125297210D01*
X112055997Y-125306439D01*
X112071136Y-125318864D01*
X112083561Y-125334003D01*
X112092790Y-125351270D01*
X112098476Y-125370013D01*
X112101000Y-125395640D01*
X112101000Y-125834360D01*
X112098476Y-125859987D01*
X112092790Y-125878730D01*
X112083561Y-125895997D01*
X112071136Y-125911136D01*
X112055997Y-125923561D01*
X112038730Y-125932790D01*
X112019987Y-125938476D01*
X111994360Y-125941000D01*
X110505640Y-125941000D01*
X110480013Y-125938476D01*
X110461270Y-125932790D01*
X110444003Y-125923561D01*
X110428864Y-125911136D01*
X110416439Y-125895997D01*
X110407210Y-125878730D01*
X110401524Y-125859987D01*
X110399000Y-125834360D01*
X110399000Y-125395640D01*
X110401524Y-125370013D01*
X110407210Y-125351270D01*
X110416439Y-125334003D01*
X110428864Y-125318864D01*
X110444003Y-125306439D01*
X110461270Y-125297210D01*
X110480013Y-125291524D01*
X110505640Y-125289000D01*
X111994360Y-125289000D01*
X112019987Y-125291524D01*
X112019987Y-125291524D01*
G37*
G36*
X105519987Y-125291524D02*
G01*
X105538730Y-125297210D01*
X105555997Y-125306439D01*
X105571136Y-125318864D01*
X105583561Y-125334003D01*
X105592790Y-125351270D01*
X105598476Y-125370013D01*
X105601000Y-125395640D01*
X105601000Y-125834360D01*
X105598476Y-125859987D01*
X105592790Y-125878730D01*
X105583561Y-125895997D01*
X105571136Y-125911136D01*
X105555997Y-125923561D01*
X105538730Y-125932790D01*
X105519987Y-125938476D01*
X105494360Y-125941000D01*
X104005640Y-125941000D01*
X103980013Y-125938476D01*
X103961270Y-125932790D01*
X103944003Y-125923561D01*
X103928864Y-125911136D01*
X103916439Y-125895997D01*
X103907210Y-125878730D01*
X103901524Y-125859987D01*
X103899000Y-125834360D01*
X103899000Y-125395640D01*
X103901524Y-125370013D01*
X103907210Y-125351270D01*
X103916439Y-125334003D01*
X103928864Y-125318864D01*
X103944003Y-125306439D01*
X103961270Y-125297210D01*
X103980013Y-125291524D01*
X104005640Y-125289000D01*
X105494360Y-125289000D01*
X105519987Y-125291524D01*
X105519987Y-125291524D01*
G37*
G36*
X132127617Y-123458420D02*
G01*
X132218403Y-123485960D01*
X132250335Y-123495646D01*
X132363424Y-123556094D01*
X132462554Y-123637447D01*
X132543906Y-123736575D01*
X132604354Y-123849664D01*
X132614040Y-123881596D01*
X132641580Y-123972382D01*
X132651000Y-124068027D01*
X132651000Y-124931973D01*
X132641580Y-125027618D01*
X132614040Y-125118404D01*
X132604354Y-125150336D01*
X132543906Y-125263425D01*
X132462554Y-125362554D01*
X132363425Y-125443906D01*
X132250336Y-125504354D01*
X132218404Y-125514040D01*
X132127618Y-125541580D01*
X132000000Y-125554149D01*
X131872383Y-125541580D01*
X131781597Y-125514040D01*
X131749665Y-125504354D01*
X131636576Y-125443906D01*
X131537447Y-125362554D01*
X131456095Y-125263425D01*
X131395647Y-125150335D01*
X131395646Y-125150332D01*
X131369613Y-125064514D01*
X131360241Y-125041888D01*
X131346627Y-125021513D01*
X131329300Y-125004186D01*
X131308926Y-124990572D01*
X131286287Y-124981195D01*
X131262254Y-124976414D01*
X131237750Y-124976414D01*
X131213717Y-124981194D01*
X131191078Y-124990571D01*
X131170703Y-125004185D01*
X131153376Y-125021512D01*
X131139762Y-125041886D01*
X131130384Y-125064526D01*
X131104354Y-125150335D01*
X131043906Y-125263425D01*
X130962554Y-125362554D01*
X130863425Y-125443906D01*
X130750336Y-125504354D01*
X130718404Y-125514040D01*
X130627618Y-125541580D01*
X130500000Y-125554149D01*
X130372383Y-125541580D01*
X130281597Y-125514040D01*
X130249665Y-125504354D01*
X130136576Y-125443906D01*
X130037447Y-125362554D01*
X129956095Y-125263425D01*
X129895647Y-125150335D01*
X129895646Y-125150332D01*
X129869613Y-125064514D01*
X129860241Y-125041888D01*
X129846627Y-125021513D01*
X129829300Y-125004186D01*
X129808926Y-124990572D01*
X129786287Y-124981195D01*
X129762254Y-124976414D01*
X129737750Y-124976414D01*
X129713717Y-124981194D01*
X129691078Y-124990571D01*
X129670703Y-125004185D01*
X129653376Y-125021512D01*
X129639762Y-125041886D01*
X129630384Y-125064526D01*
X129604354Y-125150335D01*
X129543906Y-125263425D01*
X129462554Y-125362554D01*
X129363425Y-125443906D01*
X129250336Y-125504354D01*
X129218404Y-125514040D01*
X129127618Y-125541580D01*
X129000000Y-125554149D01*
X128872383Y-125541580D01*
X128781597Y-125514040D01*
X128749665Y-125504354D01*
X128636576Y-125443906D01*
X128537447Y-125362554D01*
X128456095Y-125263425D01*
X128395647Y-125150335D01*
X128395646Y-125150332D01*
X128369613Y-125064514D01*
X128360241Y-125041888D01*
X128346627Y-125021513D01*
X128329300Y-125004186D01*
X128308926Y-124990572D01*
X128286287Y-124981195D01*
X128262254Y-124976414D01*
X128237750Y-124976414D01*
X128213717Y-124981194D01*
X128191078Y-124990571D01*
X128170703Y-125004185D01*
X128153376Y-125021512D01*
X128139762Y-125041886D01*
X128130384Y-125064526D01*
X128104354Y-125150335D01*
X128043906Y-125263425D01*
X127962554Y-125362554D01*
X127863425Y-125443906D01*
X127750336Y-125504354D01*
X127718404Y-125514040D01*
X127627618Y-125541580D01*
X127500000Y-125554149D01*
X127372383Y-125541580D01*
X127281597Y-125514040D01*
X127249665Y-125504354D01*
X127136576Y-125443906D01*
X127037447Y-125362554D01*
X126956095Y-125263425D01*
X126895647Y-125150335D01*
X126895646Y-125150332D01*
X126869613Y-125064514D01*
X126860241Y-125041888D01*
X126846627Y-125021513D01*
X126829300Y-125004186D01*
X126808926Y-124990572D01*
X126786287Y-124981195D01*
X126762254Y-124976414D01*
X126737750Y-124976414D01*
X126713717Y-124981194D01*
X126691078Y-124990571D01*
X126670703Y-125004185D01*
X126653376Y-125021512D01*
X126639762Y-125041886D01*
X126630384Y-125064526D01*
X126604354Y-125150335D01*
X126543906Y-125263425D01*
X126462554Y-125362554D01*
X126363425Y-125443906D01*
X126250336Y-125504354D01*
X126218404Y-125514040D01*
X126127618Y-125541580D01*
X126000000Y-125554149D01*
X125872383Y-125541580D01*
X125781597Y-125514040D01*
X125749665Y-125504354D01*
X125636576Y-125443906D01*
X125537447Y-125362554D01*
X125456095Y-125263425D01*
X125395647Y-125150335D01*
X125395646Y-125150332D01*
X125369613Y-125064514D01*
X125360241Y-125041888D01*
X125346627Y-125021513D01*
X125329300Y-125004186D01*
X125308926Y-124990572D01*
X125286287Y-124981195D01*
X125262254Y-124976414D01*
X125237750Y-124976414D01*
X125213717Y-124981194D01*
X125191078Y-124990571D01*
X125170703Y-125004185D01*
X125153376Y-125021512D01*
X125139762Y-125041886D01*
X125130384Y-125064526D01*
X125104354Y-125150335D01*
X125043906Y-125263425D01*
X124962554Y-125362554D01*
X124863425Y-125443906D01*
X124750336Y-125504354D01*
X124718404Y-125514040D01*
X124627618Y-125541580D01*
X124500000Y-125554149D01*
X124372383Y-125541580D01*
X124281597Y-125514040D01*
X124249665Y-125504354D01*
X124136576Y-125443906D01*
X124037447Y-125362554D01*
X123956095Y-125263425D01*
X123895647Y-125150335D01*
X123895646Y-125150332D01*
X123869613Y-125064514D01*
X123860241Y-125041888D01*
X123846627Y-125021513D01*
X123829300Y-125004186D01*
X123808926Y-124990572D01*
X123786287Y-124981195D01*
X123762254Y-124976414D01*
X123737750Y-124976414D01*
X123713717Y-124981194D01*
X123691078Y-124990571D01*
X123670703Y-125004185D01*
X123653376Y-125021512D01*
X123639762Y-125041886D01*
X123630384Y-125064526D01*
X123604354Y-125150335D01*
X123543906Y-125263425D01*
X123462554Y-125362554D01*
X123363425Y-125443906D01*
X123250336Y-125504354D01*
X123218404Y-125514040D01*
X123127618Y-125541580D01*
X123000000Y-125554149D01*
X122872383Y-125541580D01*
X122781597Y-125514040D01*
X122749665Y-125504354D01*
X122636576Y-125443906D01*
X122537447Y-125362554D01*
X122456095Y-125263425D01*
X122395647Y-125150335D01*
X122395646Y-125150332D01*
X122369613Y-125064514D01*
X122360241Y-125041888D01*
X122346627Y-125021513D01*
X122329300Y-125004186D01*
X122308926Y-124990572D01*
X122286287Y-124981195D01*
X122262254Y-124976414D01*
X122237750Y-124976414D01*
X122213717Y-124981194D01*
X122191078Y-124990571D01*
X122170703Y-125004185D01*
X122153376Y-125021512D01*
X122139762Y-125041886D01*
X122130384Y-125064526D01*
X122104354Y-125150335D01*
X122043906Y-125263425D01*
X121962554Y-125362554D01*
X121863425Y-125443906D01*
X121750336Y-125504354D01*
X121718404Y-125514040D01*
X121627618Y-125541580D01*
X121500000Y-125554149D01*
X121372383Y-125541580D01*
X121281597Y-125514040D01*
X121249665Y-125504354D01*
X121136576Y-125443906D01*
X121037447Y-125362554D01*
X120956095Y-125263425D01*
X120895647Y-125150335D01*
X120895646Y-125150332D01*
X120869613Y-125064514D01*
X120860241Y-125041888D01*
X120846627Y-125021513D01*
X120829300Y-125004186D01*
X120808926Y-124990572D01*
X120786287Y-124981195D01*
X120762254Y-124976414D01*
X120737750Y-124976414D01*
X120713717Y-124981194D01*
X120691078Y-124990571D01*
X120670703Y-125004185D01*
X120653376Y-125021512D01*
X120639762Y-125041886D01*
X120630384Y-125064526D01*
X120604354Y-125150335D01*
X120543906Y-125263425D01*
X120462554Y-125362554D01*
X120363425Y-125443906D01*
X120250336Y-125504354D01*
X120218404Y-125514040D01*
X120127618Y-125541580D01*
X120000000Y-125554149D01*
X119872383Y-125541580D01*
X119781597Y-125514040D01*
X119749665Y-125504354D01*
X119636576Y-125443906D01*
X119537447Y-125362554D01*
X119456095Y-125263425D01*
X119395647Y-125150336D01*
X119391282Y-125135946D01*
X119358420Y-125027618D01*
X119349000Y-124931973D01*
X119349000Y-124068028D01*
X119358420Y-123972383D01*
X119395645Y-123849669D01*
X119395646Y-123849665D01*
X119456094Y-123736576D01*
X119537447Y-123637446D01*
X119636575Y-123556094D01*
X119749664Y-123495646D01*
X119781596Y-123485960D01*
X119872382Y-123458420D01*
X120000000Y-123445851D01*
X120127617Y-123458420D01*
X120218403Y-123485960D01*
X120250335Y-123495646D01*
X120363424Y-123556094D01*
X120462554Y-123637447D01*
X120543906Y-123736575D01*
X120604354Y-123849664D01*
X120610164Y-123868817D01*
X120630386Y-123935480D01*
X120639760Y-123958111D01*
X120653374Y-123978486D01*
X120670701Y-123995813D01*
X120691075Y-124009427D01*
X120713714Y-124018804D01*
X120737747Y-124023585D01*
X120762251Y-124023585D01*
X120786285Y-124018805D01*
X120808923Y-124009428D01*
X120829298Y-123995814D01*
X120846625Y-123978487D01*
X120860239Y-123958113D01*
X120869617Y-123935473D01*
X120895646Y-123849665D01*
X120956094Y-123736576D01*
X121037447Y-123637446D01*
X121136575Y-123556094D01*
X121249664Y-123495646D01*
X121281596Y-123485960D01*
X121372382Y-123458420D01*
X121500000Y-123445851D01*
X121627617Y-123458420D01*
X121718403Y-123485960D01*
X121750335Y-123495646D01*
X121863424Y-123556094D01*
X121962554Y-123637447D01*
X122043906Y-123736575D01*
X122104354Y-123849664D01*
X122110164Y-123868817D01*
X122130386Y-123935480D01*
X122139760Y-123958111D01*
X122153374Y-123978486D01*
X122170701Y-123995813D01*
X122191075Y-124009427D01*
X122213714Y-124018804D01*
X122237747Y-124023585D01*
X122262251Y-124023585D01*
X122286285Y-124018805D01*
X122308923Y-124009428D01*
X122329298Y-123995814D01*
X122346625Y-123978487D01*
X122360239Y-123958113D01*
X122369617Y-123935473D01*
X122395646Y-123849665D01*
X122456094Y-123736576D01*
X122537447Y-123637446D01*
X122636575Y-123556094D01*
X122749664Y-123495646D01*
X122781596Y-123485960D01*
X122872382Y-123458420D01*
X123000000Y-123445851D01*
X123127617Y-123458420D01*
X123218403Y-123485960D01*
X123250335Y-123495646D01*
X123363424Y-123556094D01*
X123462554Y-123637447D01*
X123543906Y-123736575D01*
X123604354Y-123849664D01*
X123610164Y-123868817D01*
X123630386Y-123935480D01*
X123639760Y-123958111D01*
X123653374Y-123978486D01*
X123670701Y-123995813D01*
X123691075Y-124009427D01*
X123713714Y-124018804D01*
X123737747Y-124023585D01*
X123762251Y-124023585D01*
X123786285Y-124018805D01*
X123808923Y-124009428D01*
X123829298Y-123995814D01*
X123846625Y-123978487D01*
X123860239Y-123958113D01*
X123869617Y-123935473D01*
X123895646Y-123849665D01*
X123956094Y-123736576D01*
X124037447Y-123637446D01*
X124136575Y-123556094D01*
X124249664Y-123495646D01*
X124281596Y-123485960D01*
X124372382Y-123458420D01*
X124500000Y-123445851D01*
X124627617Y-123458420D01*
X124718403Y-123485960D01*
X124750335Y-123495646D01*
X124863424Y-123556094D01*
X124962554Y-123637447D01*
X125043906Y-123736575D01*
X125104354Y-123849664D01*
X125110164Y-123868817D01*
X125130386Y-123935480D01*
X125139760Y-123958111D01*
X125153374Y-123978486D01*
X125170701Y-123995813D01*
X125191075Y-124009427D01*
X125213714Y-124018804D01*
X125237747Y-124023585D01*
X125262251Y-124023585D01*
X125286285Y-124018805D01*
X125308923Y-124009428D01*
X125329298Y-123995814D01*
X125346625Y-123978487D01*
X125360239Y-123958113D01*
X125369617Y-123935473D01*
X125395646Y-123849665D01*
X125456094Y-123736576D01*
X125537447Y-123637446D01*
X125636575Y-123556094D01*
X125749664Y-123495646D01*
X125781596Y-123485960D01*
X125872382Y-123458420D01*
X126000000Y-123445851D01*
X126127617Y-123458420D01*
X126218403Y-123485960D01*
X126250335Y-123495646D01*
X126363424Y-123556094D01*
X126462554Y-123637447D01*
X126543906Y-123736575D01*
X126604354Y-123849664D01*
X126610164Y-123868817D01*
X126630386Y-123935480D01*
X126639760Y-123958111D01*
X126653374Y-123978486D01*
X126670701Y-123995813D01*
X126691075Y-124009427D01*
X126713714Y-124018804D01*
X126737747Y-124023585D01*
X126762251Y-124023585D01*
X126786285Y-124018805D01*
X126808923Y-124009428D01*
X126829298Y-123995814D01*
X126846625Y-123978487D01*
X126860239Y-123958113D01*
X126869617Y-123935473D01*
X126895646Y-123849665D01*
X126956094Y-123736576D01*
X127037447Y-123637446D01*
X127136575Y-123556094D01*
X127249664Y-123495646D01*
X127281596Y-123485960D01*
X127372382Y-123458420D01*
X127500000Y-123445851D01*
X127627617Y-123458420D01*
X127718403Y-123485960D01*
X127750335Y-123495646D01*
X127863424Y-123556094D01*
X127962554Y-123637447D01*
X128043906Y-123736575D01*
X128104354Y-123849664D01*
X128110164Y-123868817D01*
X128130386Y-123935480D01*
X128139760Y-123958111D01*
X128153374Y-123978486D01*
X128170701Y-123995813D01*
X128191075Y-124009427D01*
X128213714Y-124018804D01*
X128237747Y-124023585D01*
X128262251Y-124023585D01*
X128286285Y-124018805D01*
X128308923Y-124009428D01*
X128329298Y-123995814D01*
X128346625Y-123978487D01*
X128360239Y-123958113D01*
X128369617Y-123935473D01*
X128395646Y-123849665D01*
X128456094Y-123736576D01*
X128537447Y-123637446D01*
X128636575Y-123556094D01*
X128749664Y-123495646D01*
X128781596Y-123485960D01*
X128872382Y-123458420D01*
X129000000Y-123445851D01*
X129127617Y-123458420D01*
X129218403Y-123485960D01*
X129250335Y-123495646D01*
X129363424Y-123556094D01*
X129462554Y-123637447D01*
X129543906Y-123736575D01*
X129604354Y-123849664D01*
X129610164Y-123868817D01*
X129630386Y-123935480D01*
X129639760Y-123958111D01*
X129653374Y-123978486D01*
X129670701Y-123995813D01*
X129691075Y-124009427D01*
X129713714Y-124018804D01*
X129737747Y-124023585D01*
X129762251Y-124023585D01*
X129786285Y-124018805D01*
X129808923Y-124009428D01*
X129829298Y-123995814D01*
X129846625Y-123978487D01*
X129860239Y-123958113D01*
X129869617Y-123935473D01*
X129895646Y-123849665D01*
X129956094Y-123736576D01*
X130037447Y-123637446D01*
X130136575Y-123556094D01*
X130249664Y-123495646D01*
X130281596Y-123485960D01*
X130372382Y-123458420D01*
X130500000Y-123445851D01*
X130627617Y-123458420D01*
X130718403Y-123485960D01*
X130750335Y-123495646D01*
X130863424Y-123556094D01*
X130962554Y-123637447D01*
X131043906Y-123736575D01*
X131104354Y-123849664D01*
X131110164Y-123868817D01*
X131130386Y-123935480D01*
X131139760Y-123958111D01*
X131153374Y-123978486D01*
X131170701Y-123995813D01*
X131191075Y-124009427D01*
X131213714Y-124018804D01*
X131237747Y-124023585D01*
X131262251Y-124023585D01*
X131286285Y-124018805D01*
X131308923Y-124009428D01*
X131329298Y-123995814D01*
X131346625Y-123978487D01*
X131360239Y-123958113D01*
X131369617Y-123935473D01*
X131395646Y-123849665D01*
X131456094Y-123736576D01*
X131537447Y-123637446D01*
X131636575Y-123556094D01*
X131749664Y-123495646D01*
X131781596Y-123485960D01*
X131872382Y-123458420D01*
X132000000Y-123445851D01*
X132127617Y-123458420D01*
X132127617Y-123458420D01*
G37*
G36*
X145328571Y-122202863D02*
G01*
X145407023Y-122210590D01*
X145507682Y-122241125D01*
X145558013Y-122256392D01*
X145697165Y-122330771D01*
X145819133Y-122430867D01*
X145919229Y-122552835D01*
X145993608Y-122691987D01*
X145993608Y-122691988D01*
X146039410Y-122842977D01*
X146054875Y-123000000D01*
X146039410Y-123157023D01*
X146008875Y-123257682D01*
X145993608Y-123308013D01*
X145919229Y-123447165D01*
X145819133Y-123569133D01*
X145697165Y-123669229D01*
X145558013Y-123743608D01*
X145507682Y-123758875D01*
X145407023Y-123789410D01*
X145328571Y-123797137D01*
X145289346Y-123801000D01*
X144210654Y-123801000D01*
X144171429Y-123797137D01*
X144092977Y-123789410D01*
X143992318Y-123758875D01*
X143941987Y-123743608D01*
X143802835Y-123669229D01*
X143680867Y-123569133D01*
X143580771Y-123447165D01*
X143506392Y-123308013D01*
X143491125Y-123257682D01*
X143460590Y-123157023D01*
X143445125Y-123000000D01*
X143460590Y-122842977D01*
X143506392Y-122691988D01*
X143506392Y-122691987D01*
X143580771Y-122552835D01*
X143680867Y-122430867D01*
X143802835Y-122330771D01*
X143941987Y-122256392D01*
X143992318Y-122241125D01*
X144092977Y-122210590D01*
X144171429Y-122202863D01*
X144210654Y-122199000D01*
X145289346Y-122199000D01*
X145328571Y-122202863D01*
X145328571Y-122202863D01*
G37*
G36*
X119351000Y-123301000D02*
G01*
X116649000Y-123301000D01*
X116649000Y-121499000D01*
X119351000Y-121499000D01*
X119351000Y-123301000D01*
X119351000Y-123301000D01*
G37*
G36*
X135351000Y-123301000D02*
G01*
X132649000Y-123301000D01*
X132649000Y-121499000D01*
X135351000Y-121499000D01*
X135351000Y-123301000D01*
X135351000Y-123301000D01*
G37*
G36*
X145328571Y-119702863D02*
G01*
X145407023Y-119710590D01*
X145507682Y-119741125D01*
X145558013Y-119756392D01*
X145697165Y-119830771D01*
X145819133Y-119930867D01*
X145919229Y-120052835D01*
X145993608Y-120191987D01*
X145993608Y-120191988D01*
X146039410Y-120342977D01*
X146054875Y-120500000D01*
X146039410Y-120657023D01*
X146008875Y-120757682D01*
X145993608Y-120808013D01*
X145919229Y-120947165D01*
X145819133Y-121069133D01*
X145697165Y-121169229D01*
X145558013Y-121243608D01*
X145507682Y-121258875D01*
X145407023Y-121289410D01*
X145328571Y-121297137D01*
X145289346Y-121301000D01*
X144210654Y-121301000D01*
X144171429Y-121297137D01*
X144092977Y-121289410D01*
X143992318Y-121258875D01*
X143941987Y-121243608D01*
X143802835Y-121169229D01*
X143680867Y-121069133D01*
X143580771Y-120947165D01*
X143506392Y-120808013D01*
X143491125Y-120757682D01*
X143460590Y-120657023D01*
X143445125Y-120500000D01*
X143460590Y-120342977D01*
X143506392Y-120191988D01*
X143506392Y-120191987D01*
X143580771Y-120052835D01*
X143680867Y-119930867D01*
X143802835Y-119830771D01*
X143941987Y-119756392D01*
X143992318Y-119741125D01*
X144092977Y-119710590D01*
X144171429Y-119702863D01*
X144210654Y-119699000D01*
X145289346Y-119699000D01*
X145328571Y-119702863D01*
X145328571Y-119702863D01*
G37*
G36*
X95801000Y-119051000D02*
G01*
X82699000Y-119051000D01*
X82699000Y-115949000D01*
X95801000Y-115949000D01*
X95801000Y-119051000D01*
X95801000Y-119051000D01*
G37*
G36*
X69051000Y-119051000D02*
G01*
X55949000Y-119051000D01*
X55949000Y-115949000D01*
X69051000Y-115949000D01*
X69051000Y-119051000D01*
X69051000Y-119051000D01*
G37*
G36*
X146817000Y-116817000D02*
G01*
X144683000Y-116817000D01*
X144683000Y-114683000D01*
X146817000Y-114683000D01*
X146817000Y-116817000D01*
X146817000Y-116817000D01*
G37*
G36*
X143325114Y-114689176D02*
G01*
X143419168Y-114698439D01*
X143620299Y-114759451D01*
X143706110Y-114805318D01*
X143805661Y-114858529D01*
X143968133Y-114991867D01*
X144101471Y-115154339D01*
X144154682Y-115253890D01*
X144200549Y-115339701D01*
X144261561Y-115540832D01*
X144282162Y-115750000D01*
X144261561Y-115959168D01*
X144200549Y-116160299D01*
X144154682Y-116246110D01*
X144101471Y-116345661D01*
X143968133Y-116508133D01*
X143805661Y-116641471D01*
X143706110Y-116694682D01*
X143620299Y-116740549D01*
X143419168Y-116801561D01*
X143325114Y-116810824D01*
X143262413Y-116817000D01*
X143157587Y-116817000D01*
X143094886Y-116810824D01*
X143000832Y-116801561D01*
X142799701Y-116740549D01*
X142713890Y-116694682D01*
X142614339Y-116641471D01*
X142451867Y-116508133D01*
X142318529Y-116345661D01*
X142265318Y-116246110D01*
X142219451Y-116160299D01*
X142158439Y-115959168D01*
X142137838Y-115750000D01*
X142158439Y-115540832D01*
X142219451Y-115339701D01*
X142265318Y-115253890D01*
X142318529Y-115154339D01*
X142451867Y-114991867D01*
X142614339Y-114858529D01*
X142713890Y-114805318D01*
X142799701Y-114759451D01*
X143000832Y-114698439D01*
X143094886Y-114689176D01*
X143157587Y-114683000D01*
X143262413Y-114683000D01*
X143325114Y-114689176D01*
X143325114Y-114689176D01*
G37*
G36*
X51317000Y-113567000D02*
G01*
X49183000Y-113567000D01*
X49183000Y-111433000D01*
X51317000Y-111433000D01*
X51317000Y-113567000D01*
X51317000Y-113567000D01*
G37*
G36*
X52905114Y-111439176D02*
G01*
X52999168Y-111448439D01*
X53200299Y-111509451D01*
X53286110Y-111555318D01*
X53385661Y-111608529D01*
X53548133Y-111741867D01*
X53681471Y-111904339D01*
X53721645Y-111979500D01*
X53780549Y-112089701D01*
X53841561Y-112290832D01*
X53862162Y-112500000D01*
X53841561Y-112709168D01*
X53780549Y-112910299D01*
X53734682Y-112996110D01*
X53681471Y-113095661D01*
X53548133Y-113258133D01*
X53385661Y-113391471D01*
X53286110Y-113444682D01*
X53200299Y-113490549D01*
X52999168Y-113551561D01*
X52905114Y-113560824D01*
X52842413Y-113567000D01*
X52737587Y-113567000D01*
X52674886Y-113560824D01*
X52580832Y-113551561D01*
X52379701Y-113490549D01*
X52293890Y-113444682D01*
X52194339Y-113391471D01*
X52031867Y-113258133D01*
X51898529Y-113095661D01*
X51845318Y-112996110D01*
X51799451Y-112910299D01*
X51738439Y-112709168D01*
X51717838Y-112500000D01*
X51738439Y-112290832D01*
X51799451Y-112089701D01*
X51858355Y-111979500D01*
X51898529Y-111904339D01*
X52031867Y-111741867D01*
X52194339Y-111608529D01*
X52293890Y-111555318D01*
X52379701Y-111509451D01*
X52580832Y-111448439D01*
X52674886Y-111439176D01*
X52737587Y-111433000D01*
X52842413Y-111433000D01*
X52905114Y-111439176D01*
X52905114Y-111439176D01*
G37*
G36*
X60962865Y-106325855D02*
G01*
X61563608Y-106574691D01*
X61563610Y-106574692D01*
X62104265Y-106935946D01*
X62564054Y-107395735D01*
X62587617Y-107431000D01*
X62925309Y-107936392D01*
X63174145Y-108537135D01*
X63301000Y-109174879D01*
X63301000Y-109825121D01*
X63174145Y-110462865D01*
X62926596Y-111060500D01*
X62925308Y-111063610D01*
X62564054Y-111604265D01*
X62104265Y-112064054D01*
X61563610Y-112425308D01*
X61563609Y-112425309D01*
X61563608Y-112425309D01*
X60962865Y-112674145D01*
X60325121Y-112801000D01*
X59674879Y-112801000D01*
X59037135Y-112674145D01*
X58436392Y-112425309D01*
X58436391Y-112425309D01*
X58436390Y-112425308D01*
X57895735Y-112064054D01*
X57435946Y-111604265D01*
X57074692Y-111063610D01*
X57073404Y-111060500D01*
X56825855Y-110462865D01*
X56699000Y-109825121D01*
X56699000Y-109174879D01*
X56825855Y-108537135D01*
X57074691Y-107936392D01*
X57412383Y-107431000D01*
X57435946Y-107395735D01*
X57895735Y-106935946D01*
X58436390Y-106574692D01*
X58436392Y-106574691D01*
X59037135Y-106325855D01*
X59674879Y-106199000D01*
X60325121Y-106199000D01*
X60962865Y-106325855D01*
X60962865Y-106325855D01*
G37*
G36*
X83712865Y-106325855D02*
G01*
X84313608Y-106574691D01*
X84313610Y-106574692D01*
X84854265Y-106935946D01*
X85314054Y-107395735D01*
X85337617Y-107431000D01*
X85675309Y-107936392D01*
X85924145Y-108537135D01*
X86051000Y-109174879D01*
X86051000Y-109825121D01*
X85924145Y-110462865D01*
X85676596Y-111060500D01*
X85675308Y-111063610D01*
X85314054Y-111604265D01*
X84854265Y-112064054D01*
X84313610Y-112425308D01*
X84313609Y-112425309D01*
X84313608Y-112425309D01*
X83712865Y-112674145D01*
X83075121Y-112801000D01*
X82424879Y-112801000D01*
X81787135Y-112674145D01*
X81186392Y-112425309D01*
X81186391Y-112425309D01*
X81186390Y-112425308D01*
X80645735Y-112064054D01*
X80185946Y-111604265D01*
X79824692Y-111063610D01*
X79823404Y-111060500D01*
X79575855Y-110462865D01*
X79449000Y-109825121D01*
X79449000Y-109174879D01*
X79575855Y-108537135D01*
X79824691Y-107936392D01*
X80162383Y-107431000D01*
X80185946Y-107395735D01*
X80645735Y-106935946D01*
X81186390Y-106574692D01*
X81186392Y-106574691D01*
X81787135Y-106325855D01*
X82424879Y-106199000D01*
X83075121Y-106199000D01*
X83712865Y-106325855D01*
X83712865Y-106325855D01*
G37*
G36*
X95509928Y-111806764D02*
G01*
X95531009Y-111813160D01*
X95550445Y-111823548D01*
X95567476Y-111837524D01*
X95581452Y-111854555D01*
X95591840Y-111873991D01*
X95598236Y-111895072D01*
X95601000Y-111923140D01*
X95601000Y-112386860D01*
X95598236Y-112414928D01*
X95591840Y-112436009D01*
X95581452Y-112455445D01*
X95567476Y-112472476D01*
X95550445Y-112486452D01*
X95531009Y-112496840D01*
X95509928Y-112503236D01*
X95481860Y-112506000D01*
X93868140Y-112506000D01*
X93840072Y-112503236D01*
X93818991Y-112496840D01*
X93799555Y-112486452D01*
X93782524Y-112472476D01*
X93768548Y-112455445D01*
X93758160Y-112436009D01*
X93751764Y-112414928D01*
X93749000Y-112386860D01*
X93749000Y-111923140D01*
X93751764Y-111895072D01*
X93758160Y-111873991D01*
X93768548Y-111854555D01*
X93782524Y-111837524D01*
X93799555Y-111823548D01*
X93818991Y-111813160D01*
X93840072Y-111806764D01*
X93868140Y-111804000D01*
X95481860Y-111804000D01*
X95509928Y-111806764D01*
X95509928Y-111806764D01*
G37*
G36*
X72259928Y-111806764D02*
G01*
X72281009Y-111813160D01*
X72300445Y-111823548D01*
X72317476Y-111837524D01*
X72331452Y-111854555D01*
X72341840Y-111873991D01*
X72348236Y-111895072D01*
X72351000Y-111923140D01*
X72351000Y-112386860D01*
X72348236Y-112414928D01*
X72341840Y-112436009D01*
X72331452Y-112455445D01*
X72317476Y-112472476D01*
X72300445Y-112486452D01*
X72281009Y-112496840D01*
X72259928Y-112503236D01*
X72231860Y-112506000D01*
X70618140Y-112506000D01*
X70590072Y-112503236D01*
X70568991Y-112496840D01*
X70549555Y-112486452D01*
X70532524Y-112472476D01*
X70518548Y-112455445D01*
X70508160Y-112436009D01*
X70501764Y-112414928D01*
X70499000Y-112386860D01*
X70499000Y-111923140D01*
X70501764Y-111895072D01*
X70508160Y-111873991D01*
X70518548Y-111854555D01*
X70532524Y-111837524D01*
X70549555Y-111823548D01*
X70568991Y-111813160D01*
X70590072Y-111806764D01*
X70618140Y-111804000D01*
X72231860Y-111804000D01*
X72259928Y-111806764D01*
X72259928Y-111806764D01*
G37*
G36*
X100659928Y-111806764D02*
G01*
X100681009Y-111813160D01*
X100700445Y-111823548D01*
X100717476Y-111837524D01*
X100731452Y-111854555D01*
X100741840Y-111873991D01*
X100748236Y-111895072D01*
X100751000Y-111923140D01*
X100751000Y-112386860D01*
X100748236Y-112414928D01*
X100741840Y-112436009D01*
X100731452Y-112455445D01*
X100717476Y-112472476D01*
X100700445Y-112486452D01*
X100681009Y-112496840D01*
X100659928Y-112503236D01*
X100631860Y-112506000D01*
X99018140Y-112506000D01*
X98990072Y-112503236D01*
X98968991Y-112496840D01*
X98949555Y-112486452D01*
X98932524Y-112472476D01*
X98918548Y-112455445D01*
X98908160Y-112436009D01*
X98901764Y-112414928D01*
X98899000Y-112386860D01*
X98899000Y-111923140D01*
X98901764Y-111895072D01*
X98908160Y-111873991D01*
X98918548Y-111854555D01*
X98932524Y-111837524D01*
X98949555Y-111823548D01*
X98968991Y-111813160D01*
X98990072Y-111806764D01*
X99018140Y-111804000D01*
X100631860Y-111804000D01*
X100659928Y-111806764D01*
X100659928Y-111806764D01*
G37*
G36*
X77409928Y-111806764D02*
G01*
X77431009Y-111813160D01*
X77450445Y-111823548D01*
X77467476Y-111837524D01*
X77481452Y-111854555D01*
X77491840Y-111873991D01*
X77498236Y-111895072D01*
X77501000Y-111923140D01*
X77501000Y-112386860D01*
X77498236Y-112414928D01*
X77491840Y-112436009D01*
X77481452Y-112455445D01*
X77467476Y-112472476D01*
X77450445Y-112486452D01*
X77431009Y-112496840D01*
X77409928Y-112503236D01*
X77381860Y-112506000D01*
X75768140Y-112506000D01*
X75740072Y-112503236D01*
X75718991Y-112496840D01*
X75699555Y-112486452D01*
X75682524Y-112472476D01*
X75668548Y-112455445D01*
X75658160Y-112436009D01*
X75651764Y-112414928D01*
X75649000Y-112386860D01*
X75649000Y-111923140D01*
X75651764Y-111895072D01*
X75658160Y-111873991D01*
X75668548Y-111854555D01*
X75682524Y-111837524D01*
X75699555Y-111823548D01*
X75718991Y-111813160D01*
X75740072Y-111806764D01*
X75768140Y-111804000D01*
X77381860Y-111804000D01*
X77409928Y-111806764D01*
X77409928Y-111806764D01*
G37*
G36*
X143271000Y-112401000D02*
G01*
X142169000Y-112401000D01*
X142169000Y-111099000D01*
X143271000Y-111099000D01*
X143271000Y-112401000D01*
X143271000Y-112401000D01*
G37*
G36*
X147181000Y-112401000D02*
G01*
X146079000Y-112401000D01*
X146079000Y-111099000D01*
X147181000Y-111099000D01*
X147181000Y-112401000D01*
X147181000Y-112401000D01*
G37*
G36*
X145421000Y-112401000D02*
G01*
X143729000Y-112401000D01*
X143729000Y-111099000D01*
X145421000Y-111099000D01*
X145421000Y-112401000D01*
X145421000Y-112401000D01*
G37*
G36*
X108331000Y-112141000D02*
G01*
X107229000Y-112141000D01*
X107229000Y-110839000D01*
X108331000Y-110839000D01*
X108331000Y-112141000D01*
X108331000Y-112141000D01*
G37*
G36*
X106771000Y-112141000D02*
G01*
X105069000Y-112141000D01*
X105069000Y-110839000D01*
X106771000Y-110839000D01*
X106771000Y-112141000D01*
X106771000Y-112141000D01*
G37*
G36*
X104411000Y-112141000D02*
G01*
X103309000Y-112141000D01*
X103309000Y-110839000D01*
X104411000Y-110839000D01*
X104411000Y-112141000D01*
X104411000Y-112141000D01*
G37*
G36*
X77409928Y-110536764D02*
G01*
X77431009Y-110543160D01*
X77450445Y-110553548D01*
X77467476Y-110567524D01*
X77481452Y-110584555D01*
X77491840Y-110603991D01*
X77498236Y-110625072D01*
X77501000Y-110653140D01*
X77501000Y-111116860D01*
X77498236Y-111144928D01*
X77491840Y-111166009D01*
X77481452Y-111185445D01*
X77467476Y-111202476D01*
X77450445Y-111216452D01*
X77431009Y-111226840D01*
X77409928Y-111233236D01*
X77381860Y-111236000D01*
X75768140Y-111236000D01*
X75740072Y-111233236D01*
X75718991Y-111226840D01*
X75699555Y-111216452D01*
X75682524Y-111202476D01*
X75668548Y-111185445D01*
X75658160Y-111166009D01*
X75651764Y-111144928D01*
X75649000Y-111116860D01*
X75649000Y-110653140D01*
X75651764Y-110625072D01*
X75658160Y-110603991D01*
X75668548Y-110584555D01*
X75682524Y-110567524D01*
X75699555Y-110553548D01*
X75718991Y-110543160D01*
X75740072Y-110536764D01*
X75768140Y-110534000D01*
X77381860Y-110534000D01*
X77409928Y-110536764D01*
X77409928Y-110536764D01*
G37*
G36*
X100659928Y-110536764D02*
G01*
X100681009Y-110543160D01*
X100700445Y-110553548D01*
X100717476Y-110567524D01*
X100731452Y-110584555D01*
X100741840Y-110603991D01*
X100748236Y-110625072D01*
X100751000Y-110653140D01*
X100751000Y-111116860D01*
X100748236Y-111144928D01*
X100741840Y-111166009D01*
X100731452Y-111185445D01*
X100717476Y-111202476D01*
X100700445Y-111216452D01*
X100681009Y-111226840D01*
X100659928Y-111233236D01*
X100631860Y-111236000D01*
X99018140Y-111236000D01*
X98990072Y-111233236D01*
X98968991Y-111226840D01*
X98949555Y-111216452D01*
X98932524Y-111202476D01*
X98918548Y-111185445D01*
X98908160Y-111166009D01*
X98901764Y-111144928D01*
X98899000Y-111116860D01*
X98899000Y-110653140D01*
X98901764Y-110625072D01*
X98908160Y-110603991D01*
X98918548Y-110584555D01*
X98932524Y-110567524D01*
X98949555Y-110553548D01*
X98968991Y-110543160D01*
X98990072Y-110536764D01*
X99018140Y-110534000D01*
X100631860Y-110534000D01*
X100659928Y-110536764D01*
X100659928Y-110536764D01*
G37*
G36*
X72259928Y-110536764D02*
G01*
X72281009Y-110543160D01*
X72300445Y-110553548D01*
X72317476Y-110567524D01*
X72331452Y-110584555D01*
X72341840Y-110603991D01*
X72348236Y-110625072D01*
X72351000Y-110653140D01*
X72351000Y-111116860D01*
X72348236Y-111144928D01*
X72341840Y-111166009D01*
X72331452Y-111185445D01*
X72317476Y-111202476D01*
X72300445Y-111216452D01*
X72281009Y-111226840D01*
X72259928Y-111233236D01*
X72231860Y-111236000D01*
X70618140Y-111236000D01*
X70590072Y-111233236D01*
X70568991Y-111226840D01*
X70549555Y-111216452D01*
X70532524Y-111202476D01*
X70518548Y-111185445D01*
X70508160Y-111166009D01*
X70501764Y-111144928D01*
X70499000Y-111116860D01*
X70499000Y-110653140D01*
X70501764Y-110625072D01*
X70508160Y-110603991D01*
X70518548Y-110584555D01*
X70532524Y-110567524D01*
X70549555Y-110553548D01*
X70568991Y-110543160D01*
X70590072Y-110536764D01*
X70618140Y-110534000D01*
X72231860Y-110534000D01*
X72259928Y-110536764D01*
X72259928Y-110536764D01*
G37*
G36*
X95509928Y-110536764D02*
G01*
X95531009Y-110543160D01*
X95550445Y-110553548D01*
X95567476Y-110567524D01*
X95581452Y-110584555D01*
X95591840Y-110603991D01*
X95598236Y-110625072D01*
X95601000Y-110653140D01*
X95601000Y-111116860D01*
X95598236Y-111144928D01*
X95591840Y-111166009D01*
X95581452Y-111185445D01*
X95567476Y-111202476D01*
X95550445Y-111216452D01*
X95531009Y-111226840D01*
X95509928Y-111233236D01*
X95481860Y-111236000D01*
X93868140Y-111236000D01*
X93840072Y-111233236D01*
X93818991Y-111226840D01*
X93799555Y-111216452D01*
X93782524Y-111202476D01*
X93768548Y-111185445D01*
X93758160Y-111166009D01*
X93751764Y-111144928D01*
X93749000Y-111116860D01*
X93749000Y-110653140D01*
X93751764Y-110625072D01*
X93758160Y-110603991D01*
X93768548Y-110584555D01*
X93782524Y-110567524D01*
X93799555Y-110553548D01*
X93818991Y-110543160D01*
X93840072Y-110536764D01*
X93868140Y-110534000D01*
X95481860Y-110534000D01*
X95509928Y-110536764D01*
X95509928Y-110536764D01*
G37*
G36*
X95509928Y-109266764D02*
G01*
X95531009Y-109273160D01*
X95550445Y-109283548D01*
X95567476Y-109297524D01*
X95581452Y-109314555D01*
X95591840Y-109333991D01*
X95598236Y-109355072D01*
X95601000Y-109383140D01*
X95601000Y-109846860D01*
X95598236Y-109874928D01*
X95591840Y-109896009D01*
X95581452Y-109915445D01*
X95567476Y-109932476D01*
X95550445Y-109946452D01*
X95531009Y-109956840D01*
X95509928Y-109963236D01*
X95481860Y-109966000D01*
X93868140Y-109966000D01*
X93840072Y-109963236D01*
X93818991Y-109956840D01*
X93799555Y-109946452D01*
X93782524Y-109932476D01*
X93768548Y-109915445D01*
X93758160Y-109896009D01*
X93751764Y-109874928D01*
X93749000Y-109846860D01*
X93749000Y-109383140D01*
X93751764Y-109355072D01*
X93758160Y-109333991D01*
X93768548Y-109314555D01*
X93782524Y-109297524D01*
X93799555Y-109283548D01*
X93818991Y-109273160D01*
X93840072Y-109266764D01*
X93868140Y-109264000D01*
X95481860Y-109264000D01*
X95509928Y-109266764D01*
X95509928Y-109266764D01*
G37*
G36*
X72259928Y-109266764D02*
G01*
X72281009Y-109273160D01*
X72300445Y-109283548D01*
X72317476Y-109297524D01*
X72331452Y-109314555D01*
X72341840Y-109333991D01*
X72348236Y-109355072D01*
X72351000Y-109383140D01*
X72351000Y-109846860D01*
X72348236Y-109874928D01*
X72341840Y-109896009D01*
X72331452Y-109915445D01*
X72317476Y-109932476D01*
X72300445Y-109946452D01*
X72281009Y-109956840D01*
X72259928Y-109963236D01*
X72231860Y-109966000D01*
X70618140Y-109966000D01*
X70590072Y-109963236D01*
X70568991Y-109956840D01*
X70549555Y-109946452D01*
X70532524Y-109932476D01*
X70518548Y-109915445D01*
X70508160Y-109896009D01*
X70501764Y-109874928D01*
X70499000Y-109846860D01*
X70499000Y-109383140D01*
X70501764Y-109355072D01*
X70508160Y-109333991D01*
X70518548Y-109314555D01*
X70532524Y-109297524D01*
X70549555Y-109283548D01*
X70568991Y-109273160D01*
X70590072Y-109266764D01*
X70618140Y-109264000D01*
X72231860Y-109264000D01*
X72259928Y-109266764D01*
X72259928Y-109266764D01*
G37*
G36*
X77409928Y-109266764D02*
G01*
X77431009Y-109273160D01*
X77450445Y-109283548D01*
X77467476Y-109297524D01*
X77481452Y-109314555D01*
X77491840Y-109333991D01*
X77498236Y-109355072D01*
X77501000Y-109383140D01*
X77501000Y-109846860D01*
X77498236Y-109874928D01*
X77491840Y-109896009D01*
X77481452Y-109915445D01*
X77467476Y-109932476D01*
X77450445Y-109946452D01*
X77431009Y-109956840D01*
X77409928Y-109963236D01*
X77381860Y-109966000D01*
X75768140Y-109966000D01*
X75740072Y-109963236D01*
X75718991Y-109956840D01*
X75699555Y-109946452D01*
X75682524Y-109932476D01*
X75668548Y-109915445D01*
X75658160Y-109896009D01*
X75651764Y-109874928D01*
X75649000Y-109846860D01*
X75649000Y-109383140D01*
X75651764Y-109355072D01*
X75658160Y-109333991D01*
X75668548Y-109314555D01*
X75682524Y-109297524D01*
X75699555Y-109283548D01*
X75718991Y-109273160D01*
X75740072Y-109266764D01*
X75768140Y-109264000D01*
X77381860Y-109264000D01*
X77409928Y-109266764D01*
X77409928Y-109266764D01*
G37*
G36*
X100659928Y-109266764D02*
G01*
X100681009Y-109273160D01*
X100700445Y-109283548D01*
X100717476Y-109297524D01*
X100731452Y-109314555D01*
X100741840Y-109333991D01*
X100748236Y-109355072D01*
X100751000Y-109383140D01*
X100751000Y-109846860D01*
X100748236Y-109874928D01*
X100741840Y-109896009D01*
X100731452Y-109915445D01*
X100717476Y-109932476D01*
X100700445Y-109946452D01*
X100681009Y-109956840D01*
X100659928Y-109963236D01*
X100631860Y-109966000D01*
X99018140Y-109966000D01*
X98990072Y-109963236D01*
X98968991Y-109956840D01*
X98949555Y-109946452D01*
X98932524Y-109932476D01*
X98918548Y-109915445D01*
X98908160Y-109896009D01*
X98901764Y-109874928D01*
X98899000Y-109846860D01*
X98899000Y-109383140D01*
X98901764Y-109355072D01*
X98908160Y-109333991D01*
X98918548Y-109314555D01*
X98932524Y-109297524D01*
X98949555Y-109283548D01*
X98968991Y-109273160D01*
X98990072Y-109266764D01*
X99018140Y-109264000D01*
X100631860Y-109264000D01*
X100659928Y-109266764D01*
X100659928Y-109266764D01*
G37*
G36*
X147181000Y-109651000D02*
G01*
X146079000Y-109651000D01*
X146079000Y-108349000D01*
X147181000Y-108349000D01*
X147181000Y-109651000D01*
X147181000Y-109651000D01*
G37*
G36*
X145421000Y-109651000D02*
G01*
X143729000Y-109651000D01*
X143729000Y-108349000D01*
X145421000Y-108349000D01*
X145421000Y-109651000D01*
X145421000Y-109651000D01*
G37*
G36*
X143271000Y-109651000D02*
G01*
X142169000Y-109651000D01*
X142169000Y-108349000D01*
X143271000Y-108349000D01*
X143271000Y-109651000D01*
X143271000Y-109651000D01*
G37*
G36*
X106771000Y-109641000D02*
G01*
X105069000Y-109641000D01*
X105069000Y-108339000D01*
X106771000Y-108339000D01*
X106771000Y-109641000D01*
X106771000Y-109641000D01*
G37*
G36*
X104411000Y-109641000D02*
G01*
X103309000Y-109641000D01*
X103309000Y-108339000D01*
X104411000Y-108339000D01*
X104411000Y-109641000D01*
X104411000Y-109641000D01*
G37*
G36*
X108331000Y-109641000D02*
G01*
X107229000Y-109641000D01*
X107229000Y-108339000D01*
X108331000Y-108339000D01*
X108331000Y-109641000D01*
X108331000Y-109641000D01*
G37*
G36*
X67651000Y-109581000D02*
G01*
X66349000Y-109581000D01*
X66349000Y-108479000D01*
X67651000Y-108479000D01*
X67651000Y-109581000D01*
X67651000Y-109581000D01*
G37*
G36*
X90651000Y-109331000D02*
G01*
X89349000Y-109331000D01*
X89349000Y-108229000D01*
X90651000Y-108229000D01*
X90651000Y-109331000D01*
X90651000Y-109331000D01*
G37*
G36*
X72259928Y-107996764D02*
G01*
X72281009Y-108003160D01*
X72300445Y-108013548D01*
X72317476Y-108027524D01*
X72331452Y-108044555D01*
X72341840Y-108063991D01*
X72348236Y-108085072D01*
X72351000Y-108113140D01*
X72351000Y-108576860D01*
X72348236Y-108604928D01*
X72341840Y-108626009D01*
X72331452Y-108645445D01*
X72317476Y-108662476D01*
X72300445Y-108676452D01*
X72281009Y-108686840D01*
X72259928Y-108693236D01*
X72231860Y-108696000D01*
X70618140Y-108696000D01*
X70590072Y-108693236D01*
X70568991Y-108686840D01*
X70549555Y-108676452D01*
X70532524Y-108662476D01*
X70518548Y-108645445D01*
X70508160Y-108626009D01*
X70501764Y-108604928D01*
X70499000Y-108576860D01*
X70499000Y-108113140D01*
X70501764Y-108085072D01*
X70508160Y-108063991D01*
X70518548Y-108044555D01*
X70532524Y-108027524D01*
X70549555Y-108013548D01*
X70568991Y-108003160D01*
X70590072Y-107996764D01*
X70618140Y-107994000D01*
X72231860Y-107994000D01*
X72259928Y-107996764D01*
X72259928Y-107996764D01*
G37*
G36*
X77409928Y-107996764D02*
G01*
X77431009Y-108003160D01*
X77450445Y-108013548D01*
X77467476Y-108027524D01*
X77481452Y-108044555D01*
X77491840Y-108063991D01*
X77498236Y-108085072D01*
X77501000Y-108113140D01*
X77501000Y-108576860D01*
X77498236Y-108604928D01*
X77491840Y-108626009D01*
X77481452Y-108645445D01*
X77467476Y-108662476D01*
X77450445Y-108676452D01*
X77431009Y-108686840D01*
X77409928Y-108693236D01*
X77381860Y-108696000D01*
X75768140Y-108696000D01*
X75740072Y-108693236D01*
X75718991Y-108686840D01*
X75699555Y-108676452D01*
X75682524Y-108662476D01*
X75668548Y-108645445D01*
X75658160Y-108626009D01*
X75651764Y-108604928D01*
X75649000Y-108576860D01*
X75649000Y-108113140D01*
X75651764Y-108085072D01*
X75658160Y-108063991D01*
X75668548Y-108044555D01*
X75682524Y-108027524D01*
X75699555Y-108013548D01*
X75718991Y-108003160D01*
X75740072Y-107996764D01*
X75768140Y-107994000D01*
X77381860Y-107994000D01*
X77409928Y-107996764D01*
X77409928Y-107996764D01*
G37*
G36*
X95509928Y-107996764D02*
G01*
X95531009Y-108003160D01*
X95550445Y-108013548D01*
X95567476Y-108027524D01*
X95581452Y-108044555D01*
X95591840Y-108063991D01*
X95598236Y-108085072D01*
X95601000Y-108113140D01*
X95601000Y-108576860D01*
X95598236Y-108604928D01*
X95591840Y-108626009D01*
X95581452Y-108645445D01*
X95567476Y-108662476D01*
X95550445Y-108676452D01*
X95531009Y-108686840D01*
X95509928Y-108693236D01*
X95481860Y-108696000D01*
X93868140Y-108696000D01*
X93840072Y-108693236D01*
X93818991Y-108686840D01*
X93799555Y-108676452D01*
X93782524Y-108662476D01*
X93768548Y-108645445D01*
X93758160Y-108626009D01*
X93751764Y-108604928D01*
X93749000Y-108576860D01*
X93749000Y-108113140D01*
X93751764Y-108085072D01*
X93758160Y-108063991D01*
X93768548Y-108044555D01*
X93782524Y-108027524D01*
X93799555Y-108013548D01*
X93818991Y-108003160D01*
X93840072Y-107996764D01*
X93868140Y-107994000D01*
X95481860Y-107994000D01*
X95509928Y-107996764D01*
X95509928Y-107996764D01*
G37*
G36*
X100659928Y-107996764D02*
G01*
X100681009Y-108003160D01*
X100700445Y-108013548D01*
X100717476Y-108027524D01*
X100731452Y-108044555D01*
X100741840Y-108063991D01*
X100748236Y-108085072D01*
X100751000Y-108113140D01*
X100751000Y-108576860D01*
X100748236Y-108604928D01*
X100741840Y-108626009D01*
X100731452Y-108645445D01*
X100717476Y-108662476D01*
X100700445Y-108676452D01*
X100681009Y-108686840D01*
X100659928Y-108693236D01*
X100631860Y-108696000D01*
X99018140Y-108696000D01*
X98990072Y-108693236D01*
X98968991Y-108686840D01*
X98949555Y-108676452D01*
X98932524Y-108662476D01*
X98918548Y-108645445D01*
X98908160Y-108626009D01*
X98901764Y-108604928D01*
X98899000Y-108576860D01*
X98899000Y-108113140D01*
X98901764Y-108085072D01*
X98908160Y-108063991D01*
X98918548Y-108044555D01*
X98932524Y-108027524D01*
X98949555Y-108013548D01*
X98968991Y-108003160D01*
X98990072Y-107996764D01*
X99018140Y-107994000D01*
X100631860Y-107994000D01*
X100659928Y-107996764D01*
X100659928Y-107996764D01*
G37*
G36*
X67651000Y-108021000D02*
G01*
X66349000Y-108021000D01*
X66349000Y-106329000D01*
X67651000Y-106329000D01*
X67651000Y-108021000D01*
X67651000Y-108021000D01*
G37*
G36*
X90651000Y-107771000D02*
G01*
X89349000Y-107771000D01*
X89349000Y-106329000D01*
X90651000Y-106329000D01*
X90651000Y-107771000D01*
X90651000Y-107771000D01*
G37*
G36*
X95351000Y-107401000D02*
G01*
X94249000Y-107401000D01*
X94249000Y-106099000D01*
X95351000Y-106099000D01*
X95351000Y-107401000D01*
X95351000Y-107401000D01*
G37*
G36*
X97231000Y-107401000D02*
G01*
X96129000Y-107401000D01*
X96129000Y-106099000D01*
X97231000Y-106099000D01*
X97231000Y-107401000D01*
X97231000Y-107401000D01*
G37*
G36*
X72101000Y-107401000D02*
G01*
X70999000Y-107401000D01*
X70999000Y-106099000D01*
X72101000Y-106099000D01*
X72101000Y-107401000D01*
X72101000Y-107401000D01*
G37*
G36*
X73981000Y-107401000D02*
G01*
X72879000Y-107401000D01*
X72879000Y-106099000D01*
X73981000Y-106099000D01*
X73981000Y-107401000D01*
X73981000Y-107401000D01*
G37*
G36*
X104411000Y-107141000D02*
G01*
X103309000Y-107141000D01*
X103309000Y-105839000D01*
X104411000Y-105839000D01*
X104411000Y-107141000D01*
X104411000Y-107141000D01*
G37*
G36*
X106771000Y-107141000D02*
G01*
X105069000Y-107141000D01*
X105069000Y-105839000D01*
X106771000Y-105839000D01*
X106771000Y-107141000D01*
X106771000Y-107141000D01*
G37*
G36*
X108331000Y-107141000D02*
G01*
X107229000Y-107141000D01*
X107229000Y-105839000D01*
X108331000Y-105839000D01*
X108331000Y-107141000D01*
X108331000Y-107141000D01*
G37*
G36*
X145421000Y-106901000D02*
G01*
X143729000Y-106901000D01*
X143729000Y-105599000D01*
X145421000Y-105599000D01*
X145421000Y-106901000D01*
X145421000Y-106901000D01*
G37*
G36*
X143271000Y-106901000D02*
G01*
X142169000Y-106901000D01*
X142169000Y-105599000D01*
X143271000Y-105599000D01*
X143271000Y-106901000D01*
X143271000Y-106901000D01*
G37*
G36*
X147181000Y-106901000D02*
G01*
X146079000Y-106901000D01*
X146079000Y-105599000D01*
X147181000Y-105599000D01*
X147181000Y-106901000D01*
X147181000Y-106901000D01*
G37*
G36*
X83712865Y-99325855D02*
G01*
X84177359Y-99518255D01*
X84313610Y-99574692D01*
X84854265Y-99935946D01*
X85314054Y-100395735D01*
X85675308Y-100936390D01*
X85675309Y-100936392D01*
X85924145Y-101537135D01*
X86051000Y-102174879D01*
X86051000Y-102825121D01*
X85924145Y-103462865D01*
X85701687Y-103999925D01*
X85675308Y-104063610D01*
X85314054Y-104604265D01*
X84854265Y-105064054D01*
X84313610Y-105425308D01*
X84313609Y-105425309D01*
X84313608Y-105425309D01*
X83712865Y-105674145D01*
X83075121Y-105801000D01*
X82424879Y-105801000D01*
X81787135Y-105674145D01*
X81186392Y-105425309D01*
X81186391Y-105425309D01*
X81186390Y-105425308D01*
X80645735Y-105064054D01*
X80185946Y-104604265D01*
X79824692Y-104063610D01*
X79798313Y-103999925D01*
X79575855Y-103462865D01*
X79449000Y-102825121D01*
X79449000Y-102174879D01*
X79575855Y-101537135D01*
X79824691Y-100936392D01*
X79824692Y-100936390D01*
X80185946Y-100395735D01*
X80645735Y-99935946D01*
X81186390Y-99574692D01*
X81322641Y-99518255D01*
X81787135Y-99325855D01*
X82424879Y-99199000D01*
X83075121Y-99199000D01*
X83712865Y-99325855D01*
X83712865Y-99325855D01*
G37*
G36*
X60962865Y-99325855D02*
G01*
X61427359Y-99518255D01*
X61563610Y-99574692D01*
X62104265Y-99935946D01*
X62564054Y-100395735D01*
X62925308Y-100936390D01*
X62925309Y-100936392D01*
X63174145Y-101537135D01*
X63301000Y-102174879D01*
X63301000Y-102825121D01*
X63174145Y-103462865D01*
X62951687Y-103999925D01*
X62925308Y-104063610D01*
X62564054Y-104604265D01*
X62104265Y-105064054D01*
X61563610Y-105425308D01*
X61563609Y-105425309D01*
X61563608Y-105425309D01*
X60962865Y-105674145D01*
X60325121Y-105801000D01*
X59674879Y-105801000D01*
X59037135Y-105674145D01*
X58436392Y-105425309D01*
X58436391Y-105425309D01*
X58436390Y-105425308D01*
X57895735Y-105064054D01*
X57435946Y-104604265D01*
X57074692Y-104063610D01*
X57048313Y-103999925D01*
X56825855Y-103462865D01*
X56699000Y-102825121D01*
X56699000Y-102174879D01*
X56825855Y-101537135D01*
X57074691Y-100936392D01*
X57074692Y-100936390D01*
X57435946Y-100395735D01*
X57895735Y-99935946D01*
X58436390Y-99574692D01*
X58572641Y-99518255D01*
X59037135Y-99325855D01*
X59674879Y-99199000D01*
X60325121Y-99199000D01*
X60962865Y-99325855D01*
X60962865Y-99325855D01*
G37*
G36*
X67651000Y-105671000D02*
G01*
X66349000Y-105671000D01*
X66349000Y-104569000D01*
X67651000Y-104569000D01*
X67651000Y-105671000D01*
X67651000Y-105671000D01*
G37*
G36*
X90651000Y-105671000D02*
G01*
X89349000Y-105671000D01*
X89349000Y-104569000D01*
X90651000Y-104569000D01*
X90651000Y-105671000D01*
X90651000Y-105671000D01*
G37*
G36*
X129397142Y-103298242D02*
G01*
X129545101Y-103359529D01*
X129678255Y-103448499D01*
X129791501Y-103561745D01*
X129880471Y-103694899D01*
X129941758Y-103842858D01*
X129973000Y-103999925D01*
X129973000Y-104160075D01*
X129941758Y-104317142D01*
X129880471Y-104465101D01*
X129791501Y-104598255D01*
X129678255Y-104711501D01*
X129545101Y-104800471D01*
X129397142Y-104861758D01*
X129240075Y-104893000D01*
X129079925Y-104893000D01*
X128922858Y-104861758D01*
X128774899Y-104800471D01*
X128641745Y-104711501D01*
X128528499Y-104598255D01*
X128439529Y-104465101D01*
X128378242Y-104317142D01*
X128347000Y-104160075D01*
X128347000Y-103999925D01*
X128378242Y-103842858D01*
X128439529Y-103694899D01*
X128528499Y-103561745D01*
X128641745Y-103448499D01*
X128774899Y-103359529D01*
X128922858Y-103298242D01*
X129079925Y-103267000D01*
X129240075Y-103267000D01*
X129397142Y-103298242D01*
X129397142Y-103298242D01*
G37*
G36*
X119237142Y-103298242D02*
G01*
X119385101Y-103359529D01*
X119518255Y-103448499D01*
X119631501Y-103561745D01*
X119720471Y-103694899D01*
X119781758Y-103842858D01*
X119813000Y-103999925D01*
X119813000Y-104160075D01*
X119781758Y-104317142D01*
X119720471Y-104465101D01*
X119631501Y-104598255D01*
X119518255Y-104711501D01*
X119385101Y-104800471D01*
X119237142Y-104861758D01*
X119080075Y-104893000D01*
X118919925Y-104893000D01*
X118762858Y-104861758D01*
X118614899Y-104800471D01*
X118481745Y-104711501D01*
X118368499Y-104598255D01*
X118279529Y-104465101D01*
X118218242Y-104317142D01*
X118187000Y-104160075D01*
X118187000Y-103999925D01*
X118218242Y-103842858D01*
X118279529Y-103694899D01*
X118368499Y-103561745D01*
X118481745Y-103448499D01*
X118614899Y-103359529D01*
X118762858Y-103298242D01*
X118919925Y-103267000D01*
X119080075Y-103267000D01*
X119237142Y-103298242D01*
X119237142Y-103298242D01*
G37*
G36*
X121777142Y-103298242D02*
G01*
X121925101Y-103359529D01*
X122058255Y-103448499D01*
X122171501Y-103561745D01*
X122260471Y-103694899D01*
X122321758Y-103842858D01*
X122353000Y-103999925D01*
X122353000Y-104160075D01*
X122321758Y-104317142D01*
X122260471Y-104465101D01*
X122171501Y-104598255D01*
X122058255Y-104711501D01*
X121925101Y-104800471D01*
X121777142Y-104861758D01*
X121620075Y-104893000D01*
X121459925Y-104893000D01*
X121302858Y-104861758D01*
X121154899Y-104800471D01*
X121021745Y-104711501D01*
X120908499Y-104598255D01*
X120819529Y-104465101D01*
X120758242Y-104317142D01*
X120727000Y-104160075D01*
X120727000Y-103999925D01*
X120758242Y-103842858D01*
X120819529Y-103694899D01*
X120908499Y-103561745D01*
X121021745Y-103448499D01*
X121154899Y-103359529D01*
X121302858Y-103298242D01*
X121459925Y-103267000D01*
X121620075Y-103267000D01*
X121777142Y-103298242D01*
X121777142Y-103298242D01*
G37*
G36*
X131471000Y-104751000D02*
G01*
X130369000Y-104751000D01*
X130369000Y-103449000D01*
X131471000Y-103449000D01*
X131471000Y-104751000D01*
X131471000Y-104751000D01*
G37*
G36*
X133231000Y-104751000D02*
G01*
X132129000Y-104751000D01*
X132129000Y-103449000D01*
X133231000Y-103449000D01*
X133231000Y-104751000D01*
X133231000Y-104751000D01*
G37*
G36*
X99671304Y-99287002D02*
G01*
X100090139Y-99460489D01*
X100090141Y-99460490D01*
X100176592Y-99518255D01*
X100464442Y-99710590D01*
X100467083Y-99712355D01*
X100787645Y-100032917D01*
X101030073Y-100395735D01*
X101039511Y-100409861D01*
X101212998Y-100828696D01*
X101301440Y-101273327D01*
X101301440Y-101726673D01*
X101212998Y-102171304D01*
X101039511Y-102590139D01*
X100787646Y-102967082D01*
X100467082Y-103287646D01*
X100451222Y-103298243D01*
X100090141Y-103539510D01*
X100090140Y-103539511D01*
X100090139Y-103539511D01*
X99671304Y-103712998D01*
X99226673Y-103801440D01*
X98773327Y-103801440D01*
X98328696Y-103712998D01*
X97909861Y-103539511D01*
X97909860Y-103539511D01*
X97909859Y-103539510D01*
X97548778Y-103298243D01*
X97532918Y-103287646D01*
X97212354Y-102967082D01*
X96960489Y-102590139D01*
X96787002Y-102171304D01*
X96698560Y-101726673D01*
X96698560Y-101273327D01*
X96787002Y-100828696D01*
X96960489Y-100409861D01*
X96969928Y-100395735D01*
X97212355Y-100032917D01*
X97532917Y-99712355D01*
X97535559Y-99710590D01*
X97823408Y-99518255D01*
X97909859Y-99460490D01*
X97909861Y-99460489D01*
X98328696Y-99287002D01*
X98773327Y-99198560D01*
X99226673Y-99198560D01*
X99671304Y-99287002D01*
X99671304Y-99287002D01*
G37*
G36*
X137598500Y-100251000D02*
G01*
X136250999Y-100251000D01*
X136226613Y-100253402D01*
X136203164Y-100260515D01*
X136181553Y-100272066D01*
X136162611Y-100287611D01*
X136147066Y-100306553D01*
X136135515Y-100328164D01*
X136128402Y-100351613D01*
X136126000Y-100375999D01*
X136126000Y-101044001D01*
X136128402Y-101068387D01*
X136135515Y-101091836D01*
X136147066Y-101113447D01*
X136162611Y-101132389D01*
X136181553Y-101147934D01*
X136203164Y-101159485D01*
X136226613Y-101166598D01*
X136250999Y-101169000D01*
X139349001Y-101169000D01*
X139373387Y-101166598D01*
X139396836Y-101159485D01*
X139418447Y-101147934D01*
X139437389Y-101132389D01*
X139452934Y-101113447D01*
X139464485Y-101091836D01*
X139471598Y-101068387D01*
X139474000Y-101044001D01*
X139474000Y-100375999D01*
X139471598Y-100351613D01*
X139464485Y-100328164D01*
X139452934Y-100306553D01*
X139437389Y-100287611D01*
X139418447Y-100272066D01*
X139396836Y-100260515D01*
X139373387Y-100253402D01*
X139349001Y-100251000D01*
X138001500Y-100251000D01*
X138001500Y-98249000D01*
X141948500Y-98249000D01*
X141948500Y-100251000D01*
X141175999Y-100251000D01*
X141151613Y-100253402D01*
X141128164Y-100260515D01*
X141106553Y-100272066D01*
X141087611Y-100287611D01*
X141072066Y-100306553D01*
X141060515Y-100328164D01*
X141053402Y-100351613D01*
X141051000Y-100375999D01*
X141051000Y-102651000D01*
X134549000Y-102651000D01*
X134549000Y-100375999D01*
X134546598Y-100351613D01*
X134539485Y-100328164D01*
X134527934Y-100306553D01*
X134512389Y-100287611D01*
X134493447Y-100272066D01*
X134471836Y-100260515D01*
X134448387Y-100253402D01*
X134424001Y-100251000D01*
X133651500Y-100251000D01*
X133651500Y-98249000D01*
X137598500Y-98249000D01*
X137598500Y-100251000D01*
X137598500Y-100251000D01*
G37*
G36*
X115657023Y-99710590D02*
G01*
X115757682Y-99741125D01*
X115808013Y-99756392D01*
X115947165Y-99830771D01*
X116069133Y-99930867D01*
X116169229Y-100052835D01*
X116243608Y-100191987D01*
X116243608Y-100191988D01*
X116289410Y-100342977D01*
X116301000Y-100460655D01*
X116301000Y-101539345D01*
X116289410Y-101657023D01*
X116268282Y-101726672D01*
X116243608Y-101808013D01*
X116169230Y-101947164D01*
X116169229Y-101947165D01*
X116069133Y-102069133D01*
X115969376Y-102151000D01*
X115947164Y-102169229D01*
X115808012Y-102243608D01*
X115757681Y-102258875D01*
X115657022Y-102289410D01*
X115500000Y-102304875D01*
X115342977Y-102289410D01*
X115242318Y-102258875D01*
X115191987Y-102243608D01*
X115052835Y-102169229D01*
X115030623Y-102151000D01*
X114930867Y-102069133D01*
X114830771Y-101947164D01*
X114756393Y-101808013D01*
X114756392Y-101808012D01*
X114741125Y-101757681D01*
X114710590Y-101657022D01*
X114699000Y-101539344D01*
X114699001Y-100460655D01*
X114710591Y-100342977D01*
X114756393Y-100191988D01*
X114756393Y-100191987D01*
X114830772Y-100052835D01*
X114930868Y-99930867D01*
X115052836Y-99830771D01*
X115191988Y-99756392D01*
X115242319Y-99741125D01*
X115342978Y-99710590D01*
X115500000Y-99695125D01*
X115657023Y-99710590D01*
X115657023Y-99710590D01*
G37*
G36*
X108157023Y-99710590D02*
G01*
X108257682Y-99741125D01*
X108308013Y-99756392D01*
X108447165Y-99830771D01*
X108569133Y-99930867D01*
X108669229Y-100052835D01*
X108743608Y-100191987D01*
X108743608Y-100191988D01*
X108789410Y-100342977D01*
X108801000Y-100460655D01*
X108801000Y-101539345D01*
X108789410Y-101657023D01*
X108768282Y-101726672D01*
X108743608Y-101808013D01*
X108669230Y-101947164D01*
X108669229Y-101947165D01*
X108569133Y-102069133D01*
X108469376Y-102151000D01*
X108447164Y-102169229D01*
X108308012Y-102243608D01*
X108257681Y-102258875D01*
X108157022Y-102289410D01*
X108000000Y-102304875D01*
X107842977Y-102289410D01*
X107742318Y-102258875D01*
X107691987Y-102243608D01*
X107552835Y-102169229D01*
X107530623Y-102151000D01*
X107430867Y-102069133D01*
X107330771Y-101947164D01*
X107256393Y-101808013D01*
X107256392Y-101808012D01*
X107241125Y-101757681D01*
X107210590Y-101657022D01*
X107199000Y-101539344D01*
X107199001Y-100460655D01*
X107210591Y-100342977D01*
X107256393Y-100191988D01*
X107256393Y-100191987D01*
X107330772Y-100052835D01*
X107430868Y-99930867D01*
X107552836Y-99830771D01*
X107691988Y-99756392D01*
X107742319Y-99741125D01*
X107842978Y-99710590D01*
X108000000Y-99695125D01*
X108157023Y-99710590D01*
X108157023Y-99710590D01*
G37*
G36*
X105657023Y-99710590D02*
G01*
X105757682Y-99741125D01*
X105808013Y-99756392D01*
X105947165Y-99830771D01*
X106069133Y-99930867D01*
X106169229Y-100052835D01*
X106243608Y-100191987D01*
X106243608Y-100191988D01*
X106289410Y-100342977D01*
X106301000Y-100460655D01*
X106301000Y-101539345D01*
X106289410Y-101657023D01*
X106268282Y-101726672D01*
X106243608Y-101808013D01*
X106169230Y-101947164D01*
X106169229Y-101947165D01*
X106069133Y-102069133D01*
X105969376Y-102151000D01*
X105947164Y-102169229D01*
X105808012Y-102243608D01*
X105757681Y-102258875D01*
X105657022Y-102289410D01*
X105500000Y-102304875D01*
X105342977Y-102289410D01*
X105242318Y-102258875D01*
X105191987Y-102243608D01*
X105052835Y-102169229D01*
X105030623Y-102151000D01*
X104930867Y-102069133D01*
X104830771Y-101947164D01*
X104756393Y-101808013D01*
X104756392Y-101808012D01*
X104741125Y-101757681D01*
X104710590Y-101657022D01*
X104699000Y-101539344D01*
X104699001Y-100460655D01*
X104710591Y-100342977D01*
X104756393Y-100191988D01*
X104756393Y-100191987D01*
X104830772Y-100052835D01*
X104930868Y-99930867D01*
X105052836Y-99830771D01*
X105191988Y-99756392D01*
X105242319Y-99741125D01*
X105342978Y-99710590D01*
X105500000Y-99695125D01*
X105657023Y-99710590D01*
X105657023Y-99710590D01*
G37*
G36*
X113157023Y-99710590D02*
G01*
X113257682Y-99741125D01*
X113308013Y-99756392D01*
X113447165Y-99830771D01*
X113569133Y-99930867D01*
X113669229Y-100052835D01*
X113743608Y-100191987D01*
X113743608Y-100191988D01*
X113789410Y-100342977D01*
X113801000Y-100460655D01*
X113801000Y-101539345D01*
X113789410Y-101657023D01*
X113768282Y-101726672D01*
X113743608Y-101808013D01*
X113669230Y-101947164D01*
X113669229Y-101947165D01*
X113569133Y-102069133D01*
X113469376Y-102151000D01*
X113447164Y-102169229D01*
X113308012Y-102243608D01*
X113257681Y-102258875D01*
X113157022Y-102289410D01*
X113000000Y-102304875D01*
X112842977Y-102289410D01*
X112742318Y-102258875D01*
X112691987Y-102243608D01*
X112552835Y-102169229D01*
X112530623Y-102151000D01*
X112430867Y-102069133D01*
X112330771Y-101947164D01*
X112256393Y-101808013D01*
X112256392Y-101808012D01*
X112241125Y-101757681D01*
X112210590Y-101657022D01*
X112199000Y-101539344D01*
X112199001Y-100460655D01*
X112210591Y-100342977D01*
X112256393Y-100191988D01*
X112256393Y-100191987D01*
X112330772Y-100052835D01*
X112430868Y-99930867D01*
X112552836Y-99830771D01*
X112691988Y-99756392D01*
X112742319Y-99741125D01*
X112842978Y-99710590D01*
X113000000Y-99695125D01*
X113157023Y-99710590D01*
X113157023Y-99710590D01*
G37*
G36*
X131471000Y-102151000D02*
G01*
X130369000Y-102151000D01*
X130369000Y-100849000D01*
X131471000Y-100849000D01*
X131471000Y-102151000D01*
X131471000Y-102151000D01*
G37*
G36*
X133231000Y-102151000D02*
G01*
X132129000Y-102151000D01*
X132129000Y-100849000D01*
X133231000Y-100849000D01*
X133231000Y-102151000D01*
X133231000Y-102151000D01*
G37*
G36*
X119237142Y-98218242D02*
G01*
X119385101Y-98279529D01*
X119518255Y-98368499D01*
X119631501Y-98481745D01*
X119720471Y-98614899D01*
X119781758Y-98762858D01*
X119813000Y-98919925D01*
X119813000Y-99080075D01*
X119781758Y-99237142D01*
X119720471Y-99385101D01*
X119631501Y-99518255D01*
X119518255Y-99631501D01*
X119385101Y-99720471D01*
X119237142Y-99781758D01*
X119080075Y-99813000D01*
X118919925Y-99813000D01*
X118762858Y-99781758D01*
X118614899Y-99720471D01*
X118481745Y-99631501D01*
X118368499Y-99518255D01*
X118279529Y-99385101D01*
X118218242Y-99237142D01*
X118187000Y-99080075D01*
X118187000Y-98919925D01*
X118218242Y-98762858D01*
X118279529Y-98614899D01*
X118368499Y-98481745D01*
X118481745Y-98368499D01*
X118614899Y-98279529D01*
X118762858Y-98218242D01*
X118919925Y-98187000D01*
X119080075Y-98187000D01*
X119237142Y-98218242D01*
X119237142Y-98218242D01*
G37*
G36*
X121777142Y-98218242D02*
G01*
X121925101Y-98279529D01*
X122058255Y-98368499D01*
X122171501Y-98481745D01*
X122260471Y-98614899D01*
X122321758Y-98762858D01*
X122353000Y-98919925D01*
X122353000Y-99080075D01*
X122321758Y-99237142D01*
X122260471Y-99385101D01*
X122171501Y-99518255D01*
X122058255Y-99631501D01*
X121925101Y-99720471D01*
X121777142Y-99781758D01*
X121620075Y-99813000D01*
X121459925Y-99813000D01*
X121302858Y-99781758D01*
X121154899Y-99720471D01*
X121021745Y-99631501D01*
X120908499Y-99518255D01*
X120819529Y-99385101D01*
X120758242Y-99237142D01*
X120727000Y-99080075D01*
X120727000Y-98919925D01*
X120758242Y-98762858D01*
X120819529Y-98614899D01*
X120908499Y-98481745D01*
X121021745Y-98368499D01*
X121154899Y-98279529D01*
X121302858Y-98218242D01*
X121459925Y-98187000D01*
X121620075Y-98187000D01*
X121777142Y-98218242D01*
X121777142Y-98218242D01*
G37*
G36*
X129397142Y-98218242D02*
G01*
X129545101Y-98279529D01*
X129678255Y-98368499D01*
X129791501Y-98481745D01*
X129880471Y-98614899D01*
X129941758Y-98762858D01*
X129973000Y-98919925D01*
X129973000Y-99080075D01*
X129941758Y-99237142D01*
X129880471Y-99385101D01*
X129791501Y-99518255D01*
X129678255Y-99631501D01*
X129545101Y-99720471D01*
X129397142Y-99781758D01*
X129240075Y-99813000D01*
X129079925Y-99813000D01*
X128922858Y-99781758D01*
X128774899Y-99720471D01*
X128641745Y-99631501D01*
X128528499Y-99518255D01*
X128439529Y-99385101D01*
X128378242Y-99237142D01*
X128347000Y-99080075D01*
X128347000Y-98919925D01*
X128378242Y-98762858D01*
X128439529Y-98614899D01*
X128528499Y-98481745D01*
X128641745Y-98368499D01*
X128774899Y-98279529D01*
X128922858Y-98218242D01*
X129079925Y-98187000D01*
X129240075Y-98187000D01*
X129397142Y-98218242D01*
X129397142Y-98218242D01*
G37*
G36*
X131471000Y-99601000D02*
G01*
X130369000Y-99601000D01*
X130369000Y-98299000D01*
X131471000Y-98299000D01*
X131471000Y-99601000D01*
X131471000Y-99601000D01*
G37*
G36*
X133231000Y-99601000D02*
G01*
X132129000Y-99601000D01*
X132129000Y-98299000D01*
X133231000Y-98299000D01*
X133231000Y-99601000D01*
X133231000Y-99601000D01*
G37*
M02*
