G04 #@! TF.GenerationSoftware,KiCad,Pcbnew,(5.1.4)-1*
G04 #@! TF.CreationDate,2019-11-11T11:03:14+09:00*
G04 #@! TF.ProjectId,CanDCMD_ver1.1,43616e44-434d-4445-9f76-6572312e312e,rev?*
G04 #@! TF.SameCoordinates,Original*
G04 #@! TF.FileFunction,Legend,Bot*
G04 #@! TF.FilePolarity,Positive*
%FSLAX46Y46*%
G04 Gerber Fmt 4.6, Leading zero omitted, Abs format (unit mm)*
G04 Created by KiCad (PCBNEW (5.1.4)-1) date 2019-11-11 11:03:14*
%MOMM*%
%LPD*%
G04 APERTURE LIST*
%ADD10C,0.150000*%
%ADD11C,0.250000*%
%ADD12C,0.200000*%
%ADD13C,0.300000*%
%ADD14C,0.120000*%
G04 APERTURE END LIST*
D10*
X108500000Y-122000000D02*
X109000000Y-122000000D01*
X108500000Y-121600000D02*
X108500000Y-122400000D01*
X107900000Y-122000000D02*
X108500000Y-122400000D01*
X108500000Y-121600000D02*
X107900000Y-122000000D01*
X107900000Y-122000000D02*
X107500000Y-122000000D01*
X107900000Y-121450000D02*
X107900000Y-122550000D01*
X100950000Y-117500000D02*
X100500000Y-117500000D01*
X102000000Y-117500000D02*
X101600000Y-117500000D01*
X101600000Y-116950000D02*
X101600000Y-118050000D01*
X101600000Y-117500000D02*
X101000000Y-117100000D01*
X101000000Y-117900000D02*
X101600000Y-117500000D01*
X101000000Y-117100000D02*
X101000000Y-117900000D01*
D11*
X129522023Y-134327380D02*
X129795833Y-133851190D01*
X130093452Y-134327380D02*
X129968452Y-133327380D01*
X129587500Y-133327380D01*
X129498214Y-133375000D01*
X129456547Y-133422619D01*
X129420833Y-133517857D01*
X129438690Y-133660714D01*
X129498214Y-133755952D01*
X129551785Y-133803571D01*
X129652976Y-133851190D01*
X130033928Y-133851190D01*
X128706547Y-134279761D02*
X128807738Y-134327380D01*
X128998214Y-134327380D01*
X129087500Y-134279761D01*
X129123214Y-134184523D01*
X129075595Y-133803571D01*
X129016071Y-133708333D01*
X128914880Y-133660714D01*
X128724404Y-133660714D01*
X128635119Y-133708333D01*
X128599404Y-133803571D01*
X128611309Y-133898809D01*
X129099404Y-133994047D01*
X127807738Y-134327380D02*
X127682738Y-133327380D01*
X127801785Y-134279761D02*
X127902976Y-134327380D01*
X128093452Y-134327380D01*
X128182738Y-134279761D01*
X128224404Y-134232142D01*
X128260119Y-134136904D01*
X128224404Y-133851190D01*
X128164880Y-133755952D01*
X128111309Y-133708333D01*
X128010119Y-133660714D01*
X127819642Y-133660714D01*
X127730357Y-133708333D01*
X126944642Y-134279761D02*
X127045833Y-134327380D01*
X127236309Y-134327380D01*
X127325595Y-134279761D01*
X127361309Y-134184523D01*
X127313690Y-133803571D01*
X127254166Y-133708333D01*
X127152976Y-133660714D01*
X126962500Y-133660714D01*
X126873214Y-133708333D01*
X126837500Y-133803571D01*
X126849404Y-133898809D01*
X127337500Y-133994047D01*
X126516071Y-134279761D02*
X126426785Y-134327380D01*
X126236309Y-134327380D01*
X126135119Y-134279761D01*
X126075595Y-134184523D01*
X126069642Y-134136904D01*
X126105357Y-134041666D01*
X126194642Y-133994047D01*
X126337500Y-133994047D01*
X126426785Y-133946428D01*
X126462500Y-133851190D01*
X126456547Y-133803571D01*
X126397023Y-133708333D01*
X126295833Y-133660714D01*
X126152976Y-133660714D01*
X126063690Y-133708333D01*
X125664880Y-134327380D02*
X125581547Y-133660714D01*
X125539880Y-133327380D02*
X125593452Y-133375000D01*
X125551785Y-133422619D01*
X125498214Y-133375000D01*
X125539880Y-133327380D01*
X125551785Y-133422619D01*
X124676785Y-133660714D02*
X124777976Y-134470238D01*
X124837500Y-134565476D01*
X124891071Y-134613095D01*
X124992261Y-134660714D01*
X125135119Y-134660714D01*
X125224404Y-134613095D01*
X124754166Y-134279761D02*
X124855357Y-134327380D01*
X125045833Y-134327380D01*
X125135119Y-134279761D01*
X125176785Y-134232142D01*
X125212500Y-134136904D01*
X125176785Y-133851190D01*
X125117261Y-133755952D01*
X125063690Y-133708333D01*
X124962500Y-133660714D01*
X124772023Y-133660714D01*
X124682738Y-133708333D01*
X124200595Y-133660714D02*
X124283928Y-134327380D01*
X124212500Y-133755952D02*
X124158928Y-133708333D01*
X124057738Y-133660714D01*
X123914880Y-133660714D01*
X123825595Y-133708333D01*
X123789880Y-133803571D01*
X123855357Y-134327380D01*
X122992261Y-134279761D02*
X123093452Y-134327380D01*
X123283928Y-134327380D01*
X123373214Y-134279761D01*
X123408928Y-134184523D01*
X123361309Y-133803571D01*
X123301785Y-133708333D01*
X123200595Y-133660714D01*
X123010119Y-133660714D01*
X122920833Y-133708333D01*
X122885119Y-133803571D01*
X122897023Y-133898809D01*
X123385119Y-133994047D01*
X122093452Y-134327380D02*
X121968452Y-133327380D01*
X122087500Y-134279761D02*
X122188690Y-134327380D01*
X122379166Y-134327380D01*
X122468452Y-134279761D01*
X122510119Y-134232142D01*
X122545833Y-134136904D01*
X122510119Y-133851190D01*
X122450595Y-133755952D01*
X122397023Y-133708333D01*
X122295833Y-133660714D01*
X122105357Y-133660714D01*
X122016071Y-133708333D01*
X120855357Y-134327380D02*
X120730357Y-133327380D01*
X120777976Y-133708333D02*
X120676785Y-133660714D01*
X120486309Y-133660714D01*
X120397023Y-133708333D01*
X120355357Y-133755952D01*
X120319642Y-133851190D01*
X120355357Y-134136904D01*
X120414880Y-134232142D01*
X120468452Y-134279761D01*
X120569642Y-134327380D01*
X120760119Y-134327380D01*
X120849404Y-134279761D01*
X119962500Y-133660714D02*
X119807738Y-134327380D01*
X119486309Y-133660714D02*
X119807738Y-134327380D01*
X119932738Y-134565476D01*
X119986309Y-134613095D01*
X120087500Y-134660714D01*
X118438690Y-134041666D02*
X117962500Y-134041666D01*
X118569642Y-134327380D02*
X118111309Y-133327380D01*
X117902976Y-134327380D01*
X117557738Y-134232142D02*
X117516071Y-134279761D01*
X117569642Y-134327380D01*
X117611309Y-134279761D01*
X117557738Y-134232142D01*
X117569642Y-134327380D01*
X117093452Y-134327380D02*
X116968452Y-133327380D01*
X116724404Y-134041666D01*
X116301785Y-133327380D01*
X116426785Y-134327380D01*
X115950595Y-134327380D02*
X115867261Y-133660714D01*
X115825595Y-133327380D02*
X115879166Y-133375000D01*
X115837500Y-133422619D01*
X115783928Y-133375000D01*
X115825595Y-133327380D01*
X115837500Y-133422619D01*
X115486309Y-133660714D02*
X114962500Y-133660714D01*
X115569642Y-134327380D01*
X115045833Y-134327380D01*
X114152976Y-133660714D02*
X114236309Y-134327380D01*
X114581547Y-133660714D02*
X114647023Y-134184523D01*
X114611309Y-134279761D01*
X114522023Y-134327380D01*
X114379166Y-134327380D01*
X114277976Y-134279761D01*
X114224404Y-134232142D01*
X113819642Y-133660714D02*
X113438690Y-133660714D01*
X113635119Y-133327380D02*
X113742261Y-134184523D01*
X113706547Y-134279761D01*
X113617261Y-134327380D01*
X113522023Y-134327380D01*
X112760119Y-134327380D02*
X112694642Y-133803571D01*
X112730357Y-133708333D01*
X112819642Y-133660714D01*
X113010119Y-133660714D01*
X113111309Y-133708333D01*
X112754166Y-134279761D02*
X112855357Y-134327380D01*
X113093452Y-134327380D01*
X113182738Y-134279761D01*
X113218452Y-134184523D01*
X113206547Y-134089285D01*
X113147023Y-133994047D01*
X113045833Y-133946428D01*
X112807738Y-133946428D01*
X112706547Y-133898809D01*
X124760119Y-136077380D02*
X124676785Y-135410714D01*
X124635119Y-135077380D02*
X124688690Y-135125000D01*
X124647023Y-135172619D01*
X124593452Y-135125000D01*
X124635119Y-135077380D01*
X124647023Y-135172619D01*
X124200595Y-135410714D02*
X124283928Y-136077380D01*
X124212500Y-135505952D02*
X124158928Y-135458333D01*
X124057738Y-135410714D01*
X123914880Y-135410714D01*
X123825595Y-135458333D01*
X123789880Y-135553571D01*
X123855357Y-136077380D01*
X122551785Y-135172619D02*
X122498214Y-135125000D01*
X122397023Y-135077380D01*
X122158928Y-135077380D01*
X122069642Y-135125000D01*
X122027976Y-135172619D01*
X121992261Y-135267857D01*
X122004166Y-135363095D01*
X122069642Y-135505952D01*
X122712500Y-136077380D01*
X122093452Y-136077380D01*
X121349404Y-135077380D02*
X121254166Y-135077380D01*
X121164880Y-135125000D01*
X121123214Y-135172619D01*
X121087500Y-135267857D01*
X121063690Y-135458333D01*
X121093452Y-135696428D01*
X121164880Y-135886904D01*
X121224404Y-135982142D01*
X121277976Y-136029761D01*
X121379166Y-136077380D01*
X121474404Y-136077380D01*
X121563690Y-136029761D01*
X121605357Y-135982142D01*
X121641071Y-135886904D01*
X121664880Y-135696428D01*
X121635119Y-135458333D01*
X121563690Y-135267857D01*
X121504166Y-135172619D01*
X121450595Y-135125000D01*
X121349404Y-135077380D01*
X120188690Y-136077380D02*
X120760119Y-136077380D01*
X120474404Y-136077380D02*
X120349404Y-135077380D01*
X120462500Y-135220238D01*
X120569642Y-135315476D01*
X120670833Y-135363095D01*
X119712500Y-136077380D02*
X119522023Y-136077380D01*
X119420833Y-136029761D01*
X119367261Y-135982142D01*
X119254166Y-135839285D01*
X119182738Y-135648809D01*
X119135119Y-135267857D01*
X119170833Y-135172619D01*
X119212500Y-135125000D01*
X119301785Y-135077380D01*
X119492261Y-135077380D01*
X119593452Y-135125000D01*
X119647023Y-135172619D01*
X119706547Y-135267857D01*
X119736309Y-135505952D01*
X119700595Y-135601190D01*
X119658928Y-135648809D01*
X119569642Y-135696428D01*
X119379166Y-135696428D01*
X119277976Y-135648809D01*
X119224404Y-135601190D01*
X119164880Y-135505952D01*
X117962500Y-135029761D02*
X118980357Y-136315476D01*
X117236309Y-136077380D02*
X117807738Y-136077380D01*
X117522023Y-136077380D02*
X117397023Y-135077380D01*
X117510119Y-135220238D01*
X117617261Y-135315476D01*
X117718452Y-135363095D01*
X116283928Y-136077380D02*
X116855357Y-136077380D01*
X116569642Y-136077380D02*
X116444642Y-135077380D01*
X116557738Y-135220238D01*
X116664880Y-135315476D01*
X116766071Y-135363095D01*
X115010119Y-135029761D02*
X116027976Y-136315476D01*
X114492261Y-135077380D02*
X114397023Y-135077380D01*
X114307738Y-135125000D01*
X114266071Y-135172619D01*
X114230357Y-135267857D01*
X114206547Y-135458333D01*
X114236309Y-135696428D01*
X114307738Y-135886904D01*
X114367261Y-135982142D01*
X114420833Y-136029761D01*
X114522023Y-136077380D01*
X114617261Y-136077380D01*
X114706547Y-136029761D01*
X114748214Y-135982142D01*
X114783928Y-135886904D01*
X114807738Y-135696428D01*
X114777976Y-135458333D01*
X114706547Y-135267857D01*
X114647023Y-135172619D01*
X114593452Y-135125000D01*
X114492261Y-135077380D01*
X113301785Y-135077380D02*
X113492261Y-135077380D01*
X113593452Y-135125000D01*
X113647023Y-135172619D01*
X113760119Y-135315476D01*
X113831547Y-135505952D01*
X113879166Y-135886904D01*
X113843452Y-135982142D01*
X113801785Y-136029761D01*
X113712500Y-136077380D01*
X113522023Y-136077380D01*
X113420833Y-136029761D01*
X113367261Y-135982142D01*
X113307738Y-135886904D01*
X113277976Y-135648809D01*
X113313690Y-135553571D01*
X113355357Y-135505952D01*
X113444642Y-135458333D01*
X113635119Y-135458333D01*
X113736309Y-135505952D01*
X113789880Y-135553571D01*
X113849404Y-135648809D01*
X112891071Y-135982142D02*
X112849404Y-136029761D01*
X112902976Y-136077380D01*
X112944642Y-136029761D01*
X112891071Y-135982142D01*
X112902976Y-136077380D01*
D12*
X153166666Y-106023809D02*
X153166666Y-106500000D01*
X153452380Y-105928571D02*
X152452380Y-106261904D01*
X153452380Y-106595238D01*
X153452380Y-106928571D02*
X152452380Y-106928571D01*
X152452380Y-107166666D01*
X152500000Y-107309523D01*
X152595238Y-107404761D01*
X152690476Y-107452380D01*
X152880952Y-107500000D01*
X153023809Y-107500000D01*
X153214285Y-107452380D01*
X153309523Y-107404761D01*
X153404761Y-107309523D01*
X153452380Y-107166666D01*
X153452380Y-106928571D01*
X153357142Y-108500000D02*
X153404761Y-108452380D01*
X153452380Y-108309523D01*
X153452380Y-108214285D01*
X153404761Y-108071428D01*
X153309523Y-107976190D01*
X153214285Y-107928571D01*
X153023809Y-107880952D01*
X152880952Y-107880952D01*
X152690476Y-107928571D01*
X152595238Y-107976190D01*
X152500000Y-108071428D01*
X152452380Y-108214285D01*
X152452380Y-108309523D01*
X152500000Y-108452380D01*
X152547619Y-108500000D01*
X153452380Y-110261904D02*
X152976190Y-109928571D01*
X153452380Y-109690476D02*
X152452380Y-109690476D01*
X152452380Y-110071428D01*
X152500000Y-110166666D01*
X152547619Y-110214285D01*
X152642857Y-110261904D01*
X152785714Y-110261904D01*
X152880952Y-110214285D01*
X152928571Y-110166666D01*
X152976190Y-110071428D01*
X152976190Y-109690476D01*
X153404761Y-110642857D02*
X153452380Y-110785714D01*
X153452380Y-111023809D01*
X153404761Y-111119047D01*
X153357142Y-111166666D01*
X153261904Y-111214285D01*
X153166666Y-111214285D01*
X153071428Y-111166666D01*
X153023809Y-111119047D01*
X152976190Y-111023809D01*
X152928571Y-110833333D01*
X152880952Y-110738095D01*
X152833333Y-110690476D01*
X152738095Y-110642857D01*
X152642857Y-110642857D01*
X152547619Y-110690476D01*
X152500000Y-110738095D01*
X152452380Y-110833333D01*
X152452380Y-111071428D01*
X152500000Y-111214285D01*
X152452380Y-111500000D02*
X152452380Y-112071428D01*
X153452380Y-111785714D02*
X152452380Y-111785714D01*
X158452380Y-106214285D02*
X157452380Y-106214285D01*
X157452380Y-106595238D01*
X157500000Y-106690476D01*
X157547619Y-106738095D01*
X157642857Y-106785714D01*
X157785714Y-106785714D01*
X157880952Y-106738095D01*
X157928571Y-106690476D01*
X157976190Y-106595238D01*
X157976190Y-106214285D01*
X157452380Y-107404761D02*
X157452380Y-107595238D01*
X157500000Y-107690476D01*
X157595238Y-107785714D01*
X157785714Y-107833333D01*
X158119047Y-107833333D01*
X158309523Y-107785714D01*
X158404761Y-107690476D01*
X158452380Y-107595238D01*
X158452380Y-107404761D01*
X158404761Y-107309523D01*
X158309523Y-107214285D01*
X158119047Y-107166666D01*
X157785714Y-107166666D01*
X157595238Y-107214285D01*
X157500000Y-107309523D01*
X157452380Y-107404761D01*
X157452380Y-108166666D02*
X158452380Y-108404761D01*
X157738095Y-108595238D01*
X158452380Y-108785714D01*
X157452380Y-109023809D01*
X157452380Y-110357142D02*
X157452380Y-110547619D01*
X157500000Y-110642857D01*
X157595238Y-110738095D01*
X157785714Y-110785714D01*
X158119047Y-110785714D01*
X158309523Y-110738095D01*
X158404761Y-110642857D01*
X158452380Y-110547619D01*
X158452380Y-110357142D01*
X158404761Y-110261904D01*
X158309523Y-110166666D01*
X158119047Y-110119047D01*
X157785714Y-110119047D01*
X157595238Y-110166666D01*
X157500000Y-110261904D01*
X157452380Y-110357142D01*
X158452380Y-111214285D02*
X157452380Y-111214285D01*
X158452380Y-111785714D01*
X157452380Y-111785714D01*
D13*
X149315714Y-132642857D02*
X149412142Y-132728571D01*
X149680000Y-132814285D01*
X149851428Y-132814285D01*
X150097857Y-132728571D01*
X150247857Y-132557142D01*
X150312142Y-132385714D01*
X150355000Y-132042857D01*
X150322857Y-131785714D01*
X150194285Y-131442857D01*
X150087142Y-131271428D01*
X149894285Y-131100000D01*
X149626428Y-131014285D01*
X149455000Y-131014285D01*
X149208571Y-131100000D01*
X149133571Y-131185714D01*
X148587142Y-132300000D02*
X147730000Y-132300000D01*
X148822857Y-132814285D02*
X147997857Y-131014285D01*
X147622857Y-132814285D01*
X147022857Y-132814285D02*
X146797857Y-131014285D01*
X145994285Y-132814285D01*
X145769285Y-131014285D01*
X143765714Y-132814285D02*
X143540714Y-131014285D01*
X143112142Y-131014285D01*
X142865714Y-131100000D01*
X142715714Y-131271428D01*
X142651428Y-131442857D01*
X142608571Y-131785714D01*
X142640714Y-132042857D01*
X142769285Y-132385714D01*
X142876428Y-132557142D01*
X143069285Y-132728571D01*
X143337142Y-132814285D01*
X143765714Y-132814285D01*
X140915714Y-132642857D02*
X141012142Y-132728571D01*
X141280000Y-132814285D01*
X141451428Y-132814285D01*
X141697857Y-132728571D01*
X141847857Y-132557142D01*
X141912142Y-132385714D01*
X141955000Y-132042857D01*
X141922857Y-131785714D01*
X141794285Y-131442857D01*
X141687142Y-131271428D01*
X141494285Y-131100000D01*
X141226428Y-131014285D01*
X141055000Y-131014285D01*
X140808571Y-131100000D01*
X140733571Y-131185714D01*
X138794285Y-132814285D02*
X138569285Y-131014285D01*
X138130000Y-132300000D01*
X137369285Y-131014285D01*
X137594285Y-132814285D01*
X136480000Y-132814285D02*
X136640714Y-132728571D01*
X136715714Y-132642857D01*
X136780000Y-132471428D01*
X136715714Y-131957142D01*
X136608571Y-131785714D01*
X136512142Y-131700000D01*
X136330000Y-131614285D01*
X136072857Y-131614285D01*
X135912142Y-131700000D01*
X135837142Y-131785714D01*
X135772857Y-131957142D01*
X135837142Y-132471428D01*
X135944285Y-132642857D01*
X136040714Y-132728571D01*
X136222857Y-132814285D01*
X136480000Y-132814285D01*
X135215714Y-131614285D02*
X134530000Y-131614285D01*
X134883571Y-131014285D02*
X135076428Y-132557142D01*
X135012142Y-132728571D01*
X134851428Y-132814285D01*
X134680000Y-132814285D01*
X133822857Y-132814285D02*
X133983571Y-132728571D01*
X134058571Y-132642857D01*
X134122857Y-132471428D01*
X134058571Y-131957142D01*
X133951428Y-131785714D01*
X133855000Y-131700000D01*
X133672857Y-131614285D01*
X133415714Y-131614285D01*
X133255000Y-131700000D01*
X133180000Y-131785714D01*
X133115714Y-131957142D01*
X133180000Y-132471428D01*
X133287142Y-132642857D01*
X133383571Y-132728571D01*
X133565714Y-132814285D01*
X133822857Y-132814285D01*
X132451428Y-132814285D02*
X132301428Y-131614285D01*
X132344285Y-131957142D02*
X132237142Y-131785714D01*
X132140714Y-131700000D01*
X131958571Y-131614285D01*
X131787142Y-131614285D01*
X129965714Y-132814285D02*
X129740714Y-131014285D01*
X129312142Y-131014285D01*
X129065714Y-131100000D01*
X128915714Y-131271428D01*
X128851428Y-131442857D01*
X128808571Y-131785714D01*
X128840714Y-132042857D01*
X128969285Y-132385714D01*
X129076428Y-132557142D01*
X129269285Y-132728571D01*
X129537142Y-132814285D01*
X129965714Y-132814285D01*
X128165714Y-132814285D02*
X128015714Y-131614285D01*
X128058571Y-131957142D02*
X127951428Y-131785714D01*
X127855000Y-131700000D01*
X127672857Y-131614285D01*
X127501428Y-131614285D01*
X127051428Y-132814285D02*
X126901428Y-131614285D01*
X126826428Y-131014285D02*
X126922857Y-131100000D01*
X126847857Y-131185714D01*
X126751428Y-131100000D01*
X126826428Y-131014285D01*
X126847857Y-131185714D01*
X126215714Y-131614285D02*
X125937142Y-132814285D01*
X125358571Y-131614285D01*
X124126428Y-132728571D02*
X124308571Y-132814285D01*
X124651428Y-132814285D01*
X124812142Y-132728571D01*
X124876428Y-132557142D01*
X124790714Y-131871428D01*
X124683571Y-131700000D01*
X124501428Y-131614285D01*
X124158571Y-131614285D01*
X123997857Y-131700000D01*
X123933571Y-131871428D01*
X123955000Y-132042857D01*
X124833571Y-132214285D01*
X123280000Y-132814285D02*
X123130000Y-131614285D01*
X123172857Y-131957142D02*
X123065714Y-131785714D01*
X122969285Y-131700000D01*
X122787142Y-131614285D01*
X122615714Y-131614285D01*
X120815714Y-131614285D02*
X120537142Y-132814285D01*
X119958571Y-131614285D01*
X118726428Y-132728571D02*
X118908571Y-132814285D01*
X119251428Y-132814285D01*
X119412142Y-132728571D01*
X119476428Y-132557142D01*
X119390714Y-131871428D01*
X119283571Y-131700000D01*
X119101428Y-131614285D01*
X118758571Y-131614285D01*
X118597857Y-131700000D01*
X118533571Y-131871428D01*
X118555000Y-132042857D01*
X119433571Y-132214285D01*
X117880000Y-132814285D02*
X117730000Y-131614285D01*
X117772857Y-131957142D02*
X117665714Y-131785714D01*
X117569285Y-131700000D01*
X117387142Y-131614285D01*
X117215714Y-131614285D01*
X116744285Y-132642857D02*
X116669285Y-132728571D01*
X116765714Y-132814285D01*
X116840714Y-132728571D01*
X116744285Y-132642857D01*
X116765714Y-132814285D01*
X115790714Y-131185714D02*
X115694285Y-131100000D01*
X115512142Y-131014285D01*
X115083571Y-131014285D01*
X114922857Y-131100000D01*
X114847857Y-131185714D01*
X114783571Y-131357142D01*
X114805000Y-131528571D01*
X114922857Y-131785714D01*
X116080000Y-132814285D01*
X114965714Y-132814285D01*
X114172857Y-132642857D02*
X114097857Y-132728571D01*
X114194285Y-132814285D01*
X114269285Y-132728571D01*
X114172857Y-132642857D01*
X114194285Y-132814285D01*
X112769285Y-131014285D02*
X112597857Y-131014285D01*
X112437142Y-131100000D01*
X112362142Y-131185714D01*
X112297857Y-131357142D01*
X112255000Y-131700000D01*
X112308571Y-132128571D01*
X112437142Y-132471428D01*
X112544285Y-132642857D01*
X112640714Y-132728571D01*
X112822857Y-132814285D01*
X112994285Y-132814285D01*
X113155000Y-132728571D01*
X113230000Y-132642857D01*
X113294285Y-132471428D01*
X113337142Y-132128571D01*
X113283571Y-131700000D01*
X113155000Y-131357142D01*
X113047857Y-131185714D01*
X112951428Y-131100000D01*
X112769285Y-131014285D01*
D14*
X108700000Y-125700000D02*
X101800000Y-125700000D01*
X108700000Y-130800000D02*
X101800000Y-130800000D01*
X116990000Y-141337221D02*
X116990000Y-141662779D01*
X118010000Y-141337221D02*
X118010000Y-141662779D01*
X118510000Y-113337221D02*
X118510000Y-113662779D01*
X117490000Y-113337221D02*
X117490000Y-113662779D01*
X105490000Y-113337221D02*
X105490000Y-113662779D01*
X106510000Y-113337221D02*
X106510000Y-113662779D01*
X139662779Y-121510000D02*
X139337221Y-121510000D01*
X139662779Y-120490000D02*
X139337221Y-120490000D01*
X134010000Y-126412779D02*
X134010000Y-126087221D01*
X132990000Y-126412779D02*
X132990000Y-126087221D01*
X143010000Y-141337221D02*
X143010000Y-141662779D01*
X141990000Y-141337221D02*
X141990000Y-141662779D01*
X142510000Y-113337221D02*
X142510000Y-113662779D01*
X141490000Y-113337221D02*
X141490000Y-113662779D01*
X129490000Y-113337221D02*
X129490000Y-113662779D01*
X130510000Y-113337221D02*
X130510000Y-113662779D01*
X153510000Y-113337221D02*
X153510000Y-113662779D01*
X152490000Y-113337221D02*
X152490000Y-113662779D01*
X108490000Y-133837221D02*
X108490000Y-134162779D01*
X109510000Y-133837221D02*
X109510000Y-134162779D01*
X107010000Y-141662779D02*
X107010000Y-141337221D01*
X105990000Y-141662779D02*
X105990000Y-141337221D01*
X110990000Y-141662779D02*
X110990000Y-141337221D01*
X112010000Y-141662779D02*
X112010000Y-141337221D01*
X132010000Y-141662779D02*
X132010000Y-141337221D01*
X130990000Y-141662779D02*
X130990000Y-141337221D01*
X137010000Y-141662779D02*
X137010000Y-141337221D01*
X135990000Y-141662779D02*
X135990000Y-141337221D01*
X159990000Y-103162779D02*
X159990000Y-102837221D01*
X161010000Y-103162779D02*
X161010000Y-102837221D01*
X157990000Y-103162779D02*
X157990000Y-102837221D01*
X159010000Y-103162779D02*
X159010000Y-102837221D01*
X157010000Y-103162779D02*
X157010000Y-102837221D01*
X155990000Y-103162779D02*
X155990000Y-102837221D01*
X126200000Y-77450000D02*
X126200000Y-78950000D01*
X126200000Y-78950000D02*
X124390000Y-78950000D01*
X124390000Y-78950000D02*
X124390000Y-84075000D01*
X115800000Y-77450000D02*
X115800000Y-78950000D01*
X115800000Y-78950000D02*
X117610000Y-78950000D01*
X117610000Y-78950000D02*
X117610000Y-80050000D01*
X116860000Y-100950000D02*
X116860000Y-102050000D01*
X115050000Y-100950000D02*
X116860000Y-100950000D01*
X115050000Y-99450000D02*
X115050000Y-100950000D01*
X123640000Y-100950000D02*
X123640000Y-106075000D01*
X125450000Y-100950000D02*
X123640000Y-100950000D01*
X125450000Y-99450000D02*
X125450000Y-100950000D01*
X114950000Y-77450000D02*
X114950000Y-78950000D01*
X114950000Y-78950000D02*
X113140000Y-78950000D01*
X113140000Y-78950000D02*
X113140000Y-84075000D01*
X104550000Y-77450000D02*
X104550000Y-78950000D01*
X104550000Y-78950000D02*
X106360000Y-78950000D01*
X106360000Y-78950000D02*
X106360000Y-80050000D01*
X113700000Y-99450000D02*
X113700000Y-100950000D01*
X113700000Y-100950000D02*
X111890000Y-100950000D01*
X111890000Y-100950000D02*
X111890000Y-106075000D01*
X103300000Y-99450000D02*
X103300000Y-100950000D01*
X103300000Y-100950000D02*
X105110000Y-100950000D01*
X105110000Y-100950000D02*
X105110000Y-102050000D01*
D12*
X153900000Y-112600000D02*
X154400000Y-112600000D01*
X153900000Y-107400000D02*
X153900000Y-112600000D01*
X154400000Y-107400000D02*
X153900000Y-107400000D01*
X157100000Y-112600000D02*
X156600000Y-112600000D01*
X157100000Y-107400000D02*
X157100000Y-112600000D01*
X156600000Y-107400000D02*
X157100000Y-107400000D01*
X154400000Y-107400000D02*
X154400000Y-106000000D01*
X154500000Y-109500000D02*
X156500000Y-109500000D01*
X154500000Y-110500000D02*
X156500000Y-110500000D01*
X155500000Y-111000000D02*
X155500000Y-112000000D01*
X155500000Y-112000000D02*
X155000000Y-111500000D01*
X155500000Y-112000000D02*
X156000000Y-111500000D01*
X155500000Y-109000000D02*
X155500000Y-108000000D01*
X150500000Y-111000000D02*
X150500000Y-112000000D01*
X150500000Y-108000000D02*
X150000000Y-108500000D01*
X150500000Y-108000000D02*
X151000000Y-108500000D01*
X150500000Y-109000000D02*
X150500000Y-108000000D01*
X151500000Y-109500000D02*
X149500000Y-109500000D01*
X151500000Y-110500000D02*
X149500000Y-110500000D01*
X151600000Y-112600000D02*
X151600000Y-114000000D01*
X149400000Y-112600000D02*
X148900000Y-112600000D01*
X148900000Y-112600000D02*
X148900000Y-107400000D01*
X148900000Y-107400000D02*
X149400000Y-107400000D01*
X151600000Y-112600000D02*
X152100000Y-112600000D01*
X152100000Y-112600000D02*
X152100000Y-107400000D01*
X152100000Y-107400000D02*
X151600000Y-107400000D01*
D14*
X136912779Y-125010000D02*
X136587221Y-125010000D01*
X136912779Y-123990000D02*
X136587221Y-123990000D01*
X121490000Y-113662779D02*
X121490000Y-113337221D01*
X122510000Y-113662779D02*
X122510000Y-113337221D01*
X110510000Y-113662779D02*
X110510000Y-113337221D01*
X109490000Y-113662779D02*
X109490000Y-113337221D01*
X149990000Y-102837221D02*
X149990000Y-103162779D01*
X151010000Y-102837221D02*
X151010000Y-103162779D01*
X145490000Y-113662779D02*
X145490000Y-113337221D01*
X146510000Y-113662779D02*
X146510000Y-113337221D01*
X134510000Y-113662779D02*
X134510000Y-113337221D01*
X133490000Y-113662779D02*
X133490000Y-113337221D01*
X153990000Y-103162779D02*
X153990000Y-102837221D01*
X155010000Y-103162779D02*
X155010000Y-102837221D01*
X107990000Y-141337221D02*
X107990000Y-141662779D01*
X109010000Y-141337221D02*
X109010000Y-141662779D01*
X114010000Y-141337221D02*
X114010000Y-141662779D01*
X112990000Y-141337221D02*
X112990000Y-141662779D01*
X134010000Y-141337221D02*
X134010000Y-141662779D01*
X132990000Y-141337221D02*
X132990000Y-141662779D01*
X95162779Y-140010000D02*
X94837221Y-140010000D01*
X95162779Y-138990000D02*
X94837221Y-138990000D01*
X137990000Y-141337221D02*
X137990000Y-141662779D01*
X139010000Y-141337221D02*
X139010000Y-141662779D01*
X127890000Y-64347936D02*
X127890000Y-67152064D01*
X130610000Y-64347936D02*
X130610000Y-67152064D01*
X107360000Y-63847936D02*
X107360000Y-66652064D01*
X104640000Y-63847936D02*
X104640000Y-66652064D01*
X114510000Y-113337221D02*
X114510000Y-113662779D01*
X113490000Y-113337221D02*
X113490000Y-113662779D01*
X138510000Y-113337221D02*
X138510000Y-113662779D01*
X137490000Y-113337221D02*
X137490000Y-113662779D01*
X146990000Y-141662779D02*
X146990000Y-141337221D01*
X148010000Y-141662779D02*
X148010000Y-141337221D01*
X150510000Y-141662779D02*
X150510000Y-141337221D01*
X149490000Y-141662779D02*
X149490000Y-141337221D01*
X148510000Y-113662779D02*
X148510000Y-113337221D01*
X147490000Y-113662779D02*
X147490000Y-113337221D01*
X157490000Y-113662779D02*
X157490000Y-113337221D01*
X158510000Y-113662779D02*
X158510000Y-113337221D01*
X153010000Y-102837221D02*
X153010000Y-103162779D01*
X151990000Y-102837221D02*
X151990000Y-103162779D01*
X104500000Y-136560000D02*
X102550000Y-136560000D01*
X104500000Y-136560000D02*
X106450000Y-136560000D01*
X104500000Y-131440000D02*
X102550000Y-131440000D01*
X104500000Y-131440000D02*
X107950000Y-131440000D01*
X133610000Y-64347936D02*
X133610000Y-67152064D01*
X130890000Y-64347936D02*
X130890000Y-67152064D01*
X107640000Y-63847936D02*
X107640000Y-66652064D01*
X110360000Y-63847936D02*
X110360000Y-66652064D01*
X140610000Y-78825000D02*
X140610000Y-79925000D01*
X138800000Y-78825000D02*
X140610000Y-78825000D01*
X138800000Y-77325000D02*
X138800000Y-78825000D01*
X147390000Y-78825000D02*
X147390000Y-83950000D01*
X149200000Y-78825000D02*
X147390000Y-78825000D01*
X149200000Y-77325000D02*
X149200000Y-78825000D01*
X148700000Y-99450000D02*
X148700000Y-100950000D01*
X148700000Y-100950000D02*
X146890000Y-100950000D01*
X146890000Y-100950000D02*
X146890000Y-106075000D01*
X138300000Y-99450000D02*
X138300000Y-100950000D01*
X138300000Y-100950000D02*
X140110000Y-100950000D01*
X140110000Y-100950000D02*
X140110000Y-102050000D01*
X129360000Y-78700000D02*
X129360000Y-79800000D01*
X127550000Y-78700000D02*
X129360000Y-78700000D01*
X127550000Y-77200000D02*
X127550000Y-78700000D01*
X136140000Y-78700000D02*
X136140000Y-83825000D01*
X137950000Y-78700000D02*
X136140000Y-78700000D01*
X137950000Y-77200000D02*
X137950000Y-78700000D01*
X137200000Y-99450000D02*
X137200000Y-100950000D01*
X137200000Y-100950000D02*
X135390000Y-100950000D01*
X135390000Y-100950000D02*
X135390000Y-106075000D01*
X126800000Y-99450000D02*
X126800000Y-100950000D01*
X126800000Y-100950000D02*
X128610000Y-100950000D01*
X128610000Y-100950000D02*
X128610000Y-102050000D01*
X103990000Y-121587221D02*
X103990000Y-121912779D01*
X105010000Y-121587221D02*
X105010000Y-121912779D01*
X106000000Y-123000000D02*
X106000000Y-121000000D01*
X106000000Y-121000000D02*
X109900000Y-121000000D01*
X106000000Y-123000000D02*
X109900000Y-123000000D01*
X103500000Y-116500000D02*
X103500000Y-118500000D01*
X103500000Y-118500000D02*
X99600000Y-118500000D01*
X103500000Y-116500000D02*
X99600000Y-116500000D01*
X101912779Y-123990000D02*
X101587221Y-123990000D01*
X101912779Y-125010000D02*
X101587221Y-125010000D01*
X101010000Y-126837221D02*
X101010000Y-127162779D01*
X99990000Y-126837221D02*
X99990000Y-127162779D01*
X100150000Y-122550000D02*
X100150000Y-120950000D01*
X103350000Y-120950000D02*
X103350000Y-123250000D01*
X158000000Y-139597221D02*
X158000000Y-139922779D01*
X159020000Y-139597221D02*
X159020000Y-139922779D01*
X156530000Y-87800000D02*
X156530000Y-86600000D01*
X156530000Y-86600000D02*
X153830000Y-86600000D01*
X152530000Y-91400000D02*
X156530000Y-91400000D01*
X156530000Y-91400000D02*
X156530000Y-90200000D01*
X154741422Y-93710000D02*
X155258578Y-93710000D01*
X154741422Y-92290000D02*
X155258578Y-92290000D01*
X95758578Y-88210000D02*
X95241422Y-88210000D01*
X95758578Y-86790000D02*
X95241422Y-86790000D01*
X95758578Y-67540000D02*
X95241422Y-67540000D01*
X95758578Y-68960000D02*
X95241422Y-68960000D01*
X149010000Y-103162779D02*
X149010000Y-102837221D01*
X147990000Y-103162779D02*
X147990000Y-102837221D01*
X136760000Y-103162779D02*
X136760000Y-102837221D01*
X135740000Y-103162779D02*
X135740000Y-102837221D01*
X125010000Y-103162779D02*
X125010000Y-102837221D01*
X123990000Y-103162779D02*
X123990000Y-102837221D01*
X113260000Y-103162779D02*
X113260000Y-102837221D01*
X112240000Y-103162779D02*
X112240000Y-102837221D01*
X158758578Y-79790000D02*
X158241422Y-79790000D01*
X158758578Y-81210000D02*
X158241422Y-81210000D01*
X156000000Y-77750000D02*
X156000000Y-79750000D01*
X156000000Y-79750000D02*
X152100000Y-79750000D01*
X156000000Y-77750000D02*
X152100000Y-77750000D01*
X152510000Y-75087221D02*
X152510000Y-75412779D01*
X151490000Y-75087221D02*
X151490000Y-75412779D01*
X153700000Y-73900000D02*
X155300000Y-73900000D01*
X155300000Y-77100000D02*
X153000000Y-77100000D01*
X161000000Y-86250000D02*
X159000000Y-86250000D01*
X159000000Y-86250000D02*
X159000000Y-82350000D01*
X161000000Y-86250000D02*
X161000000Y-82350000D01*
X156991422Y-73210000D02*
X157508578Y-73210000D01*
X156991422Y-71790000D02*
X157508578Y-71790000D01*
D10*
X104822620Y-126486903D02*
X104775001Y-126534522D01*
X104727381Y-126629760D01*
X104727381Y-126867856D01*
X104775001Y-126963094D01*
X104822620Y-127010713D01*
X104917858Y-127058332D01*
X105013096Y-127058332D01*
X105155953Y-127010713D01*
X105727381Y-126439284D01*
X105727381Y-127058332D01*
X104822620Y-127439284D02*
X104775001Y-127486903D01*
X104727381Y-127582141D01*
X104727381Y-127820237D01*
X104775001Y-127915475D01*
X104822620Y-127963094D01*
X104917858Y-128010713D01*
X105013096Y-128010713D01*
X105155953Y-127963094D01*
X105727381Y-127391665D01*
X105727381Y-128010713D01*
X105060715Y-128867856D02*
X105727381Y-128867856D01*
X105060715Y-128439284D02*
X105584524Y-128439284D01*
X105679762Y-128486903D01*
X105727381Y-128582141D01*
X105727381Y-128724999D01*
X105679762Y-128820237D01*
X105632143Y-128867856D01*
X105727381Y-129344046D02*
X104727381Y-129344046D01*
X105203572Y-129344046D02*
X105203572Y-129915475D01*
X105727381Y-129915475D02*
X104727381Y-129915475D01*
X118382380Y-140285714D02*
X118382380Y-140380952D01*
X118430000Y-140476190D01*
X118477619Y-140523809D01*
X118572857Y-140571428D01*
X118763333Y-140619047D01*
X119001428Y-140619047D01*
X119191904Y-140571428D01*
X119287142Y-140523809D01*
X119334761Y-140476190D01*
X119382380Y-140380952D01*
X119382380Y-140285714D01*
X119334761Y-140190476D01*
X119287142Y-140142857D01*
X119191904Y-140095238D01*
X119001428Y-140047619D01*
X118763333Y-140047619D01*
X118572857Y-140095238D01*
X118477619Y-140142857D01*
X118430000Y-140190476D01*
X118382380Y-140285714D01*
X119287142Y-141047619D02*
X119334761Y-141095238D01*
X119382380Y-141047619D01*
X119334761Y-141000000D01*
X119287142Y-141047619D01*
X119382380Y-141047619D01*
X119382380Y-142047619D02*
X119382380Y-141476190D01*
X119382380Y-141761904D02*
X118382380Y-141761904D01*
X118525238Y-141666666D01*
X118620476Y-141571428D01*
X118668095Y-141476190D01*
X118715714Y-142904761D02*
X119382380Y-142904761D01*
X118715714Y-142476190D02*
X119239523Y-142476190D01*
X119334761Y-142523809D01*
X119382380Y-142619047D01*
X119382380Y-142761904D01*
X119334761Y-142857142D01*
X119287142Y-142904761D01*
X117452380Y-115035714D02*
X117452380Y-115130952D01*
X117500000Y-115226190D01*
X117547619Y-115273809D01*
X117642857Y-115321428D01*
X117833333Y-115369047D01*
X118071428Y-115369047D01*
X118261904Y-115321428D01*
X118357142Y-115273809D01*
X118404761Y-115226190D01*
X118452380Y-115130952D01*
X118452380Y-115035714D01*
X118404761Y-114940476D01*
X118357142Y-114892857D01*
X118261904Y-114845238D01*
X118071428Y-114797619D01*
X117833333Y-114797619D01*
X117642857Y-114845238D01*
X117547619Y-114892857D01*
X117500000Y-114940476D01*
X117452380Y-115035714D01*
X118357142Y-115797619D02*
X118404761Y-115845238D01*
X118452380Y-115797619D01*
X118404761Y-115750000D01*
X118357142Y-115797619D01*
X118452380Y-115797619D01*
X118452380Y-116797619D02*
X118452380Y-116226190D01*
X118452380Y-116511904D02*
X117452380Y-116511904D01*
X117595238Y-116416666D01*
X117690476Y-116321428D01*
X117738095Y-116226190D01*
X117785714Y-117654761D02*
X118452380Y-117654761D01*
X117785714Y-117226190D02*
X118309523Y-117226190D01*
X118404761Y-117273809D01*
X118452380Y-117369047D01*
X118452380Y-117511904D01*
X118404761Y-117607142D01*
X118357142Y-117654761D01*
X106702380Y-112285714D02*
X106702380Y-112380952D01*
X106750000Y-112476190D01*
X106797619Y-112523809D01*
X106892857Y-112571428D01*
X107083333Y-112619047D01*
X107321428Y-112619047D01*
X107511904Y-112571428D01*
X107607142Y-112523809D01*
X107654761Y-112476190D01*
X107702380Y-112380952D01*
X107702380Y-112285714D01*
X107654761Y-112190476D01*
X107607142Y-112142857D01*
X107511904Y-112095238D01*
X107321428Y-112047619D01*
X107083333Y-112047619D01*
X106892857Y-112095238D01*
X106797619Y-112142857D01*
X106750000Y-112190476D01*
X106702380Y-112285714D01*
X107607142Y-113047619D02*
X107654761Y-113095238D01*
X107702380Y-113047619D01*
X107654761Y-113000000D01*
X107607142Y-113047619D01*
X107702380Y-113047619D01*
X107702380Y-114047619D02*
X107702380Y-113476190D01*
X107702380Y-113761904D02*
X106702380Y-113761904D01*
X106845238Y-113666666D01*
X106940476Y-113571428D01*
X106988095Y-113476190D01*
X107035714Y-114904761D02*
X107702380Y-114904761D01*
X107035714Y-114476190D02*
X107559523Y-114476190D01*
X107654761Y-114523809D01*
X107702380Y-114619047D01*
X107702380Y-114761904D01*
X107654761Y-114857142D01*
X107607142Y-114904761D01*
X140714285Y-121882380D02*
X140619047Y-121882380D01*
X140523809Y-121930000D01*
X140476190Y-121977619D01*
X140428571Y-122072857D01*
X140380952Y-122263333D01*
X140380952Y-122501428D01*
X140428571Y-122691904D01*
X140476190Y-122787142D01*
X140523809Y-122834761D01*
X140619047Y-122882380D01*
X140714285Y-122882380D01*
X140809523Y-122834761D01*
X140857142Y-122787142D01*
X140904761Y-122691904D01*
X140952380Y-122501428D01*
X140952380Y-122263333D01*
X140904761Y-122072857D01*
X140857142Y-121977619D01*
X140809523Y-121930000D01*
X140714285Y-121882380D01*
X139952380Y-122787142D02*
X139904761Y-122834761D01*
X139952380Y-122882380D01*
X140000000Y-122834761D01*
X139952380Y-122787142D01*
X139952380Y-122882380D01*
X138952380Y-122882380D02*
X139523809Y-122882380D01*
X139238095Y-122882380D02*
X139238095Y-121882380D01*
X139333333Y-122025238D01*
X139428571Y-122120476D01*
X139523809Y-122168095D01*
X138095238Y-122215714D02*
X138095238Y-122882380D01*
X138523809Y-122215714D02*
X138523809Y-122739523D01*
X138476190Y-122834761D01*
X138380952Y-122882380D01*
X138238095Y-122882380D01*
X138142857Y-122834761D01*
X138095238Y-122787142D01*
X134714285Y-123452380D02*
X134619047Y-123452380D01*
X134523809Y-123500000D01*
X134476190Y-123547619D01*
X134428571Y-123642857D01*
X134380952Y-123833333D01*
X134380952Y-124071428D01*
X134428571Y-124261904D01*
X134476190Y-124357142D01*
X134523809Y-124404761D01*
X134619047Y-124452380D01*
X134714285Y-124452380D01*
X134809523Y-124404761D01*
X134857142Y-124357142D01*
X134904761Y-124261904D01*
X134952380Y-124071428D01*
X134952380Y-123833333D01*
X134904761Y-123642857D01*
X134857142Y-123547619D01*
X134809523Y-123500000D01*
X134714285Y-123452380D01*
X133952380Y-124357142D02*
X133904761Y-124404761D01*
X133952380Y-124452380D01*
X134000000Y-124404761D01*
X133952380Y-124357142D01*
X133952380Y-124452380D01*
X132952380Y-124452380D02*
X133523809Y-124452380D01*
X133238095Y-124452380D02*
X133238095Y-123452380D01*
X133333333Y-123595238D01*
X133428571Y-123690476D01*
X133523809Y-123738095D01*
X132095238Y-123785714D02*
X132095238Y-124452380D01*
X132523809Y-123785714D02*
X132523809Y-124309523D01*
X132476190Y-124404761D01*
X132380952Y-124452380D01*
X132238095Y-124452380D01*
X132142857Y-124404761D01*
X132095238Y-124357142D01*
X143382380Y-140285714D02*
X143382380Y-140380952D01*
X143430000Y-140476190D01*
X143477619Y-140523809D01*
X143572857Y-140571428D01*
X143763333Y-140619047D01*
X144001428Y-140619047D01*
X144191904Y-140571428D01*
X144287142Y-140523809D01*
X144334761Y-140476190D01*
X144382380Y-140380952D01*
X144382380Y-140285714D01*
X144334761Y-140190476D01*
X144287142Y-140142857D01*
X144191904Y-140095238D01*
X144001428Y-140047619D01*
X143763333Y-140047619D01*
X143572857Y-140095238D01*
X143477619Y-140142857D01*
X143430000Y-140190476D01*
X143382380Y-140285714D01*
X144287142Y-141047619D02*
X144334761Y-141095238D01*
X144382380Y-141047619D01*
X144334761Y-141000000D01*
X144287142Y-141047619D01*
X144382380Y-141047619D01*
X144382380Y-142047619D02*
X144382380Y-141476190D01*
X144382380Y-141761904D02*
X143382380Y-141761904D01*
X143525238Y-141666666D01*
X143620476Y-141571428D01*
X143668095Y-141476190D01*
X143715714Y-142904761D02*
X144382380Y-142904761D01*
X143715714Y-142476190D02*
X144239523Y-142476190D01*
X144334761Y-142523809D01*
X144382380Y-142619047D01*
X144382380Y-142761904D01*
X144334761Y-142857142D01*
X144287142Y-142904761D01*
X141452380Y-115285714D02*
X141452380Y-115380952D01*
X141500000Y-115476190D01*
X141547619Y-115523809D01*
X141642857Y-115571428D01*
X141833333Y-115619047D01*
X142071428Y-115619047D01*
X142261904Y-115571428D01*
X142357142Y-115523809D01*
X142404761Y-115476190D01*
X142452380Y-115380952D01*
X142452380Y-115285714D01*
X142404761Y-115190476D01*
X142357142Y-115142857D01*
X142261904Y-115095238D01*
X142071428Y-115047619D01*
X141833333Y-115047619D01*
X141642857Y-115095238D01*
X141547619Y-115142857D01*
X141500000Y-115190476D01*
X141452380Y-115285714D01*
X142357142Y-116047619D02*
X142404761Y-116095238D01*
X142452380Y-116047619D01*
X142404761Y-116000000D01*
X142357142Y-116047619D01*
X142452380Y-116047619D01*
X142452380Y-117047619D02*
X142452380Y-116476190D01*
X142452380Y-116761904D02*
X141452380Y-116761904D01*
X141595238Y-116666666D01*
X141690476Y-116571428D01*
X141738095Y-116476190D01*
X141785714Y-117904761D02*
X142452380Y-117904761D01*
X141785714Y-117476190D02*
X142309523Y-117476190D01*
X142404761Y-117523809D01*
X142452380Y-117619047D01*
X142452380Y-117761904D01*
X142404761Y-117857142D01*
X142357142Y-117904761D01*
X129452380Y-115285714D02*
X129452380Y-115380952D01*
X129500000Y-115476190D01*
X129547619Y-115523809D01*
X129642857Y-115571428D01*
X129833333Y-115619047D01*
X130071428Y-115619047D01*
X130261904Y-115571428D01*
X130357142Y-115523809D01*
X130404761Y-115476190D01*
X130452380Y-115380952D01*
X130452380Y-115285714D01*
X130404761Y-115190476D01*
X130357142Y-115142857D01*
X130261904Y-115095238D01*
X130071428Y-115047619D01*
X129833333Y-115047619D01*
X129642857Y-115095238D01*
X129547619Y-115142857D01*
X129500000Y-115190476D01*
X129452380Y-115285714D01*
X130357142Y-116047619D02*
X130404761Y-116095238D01*
X130452380Y-116047619D01*
X130404761Y-116000000D01*
X130357142Y-116047619D01*
X130452380Y-116047619D01*
X130452380Y-117047619D02*
X130452380Y-116476190D01*
X130452380Y-116761904D02*
X129452380Y-116761904D01*
X129595238Y-116666666D01*
X129690476Y-116571428D01*
X129738095Y-116476190D01*
X129785714Y-117904761D02*
X130452380Y-117904761D01*
X129785714Y-117476190D02*
X130309523Y-117476190D01*
X130404761Y-117523809D01*
X130452380Y-117619047D01*
X130452380Y-117761904D01*
X130404761Y-117857142D01*
X130357142Y-117904761D01*
X152452380Y-115285714D02*
X152452380Y-115380952D01*
X152500000Y-115476190D01*
X152547619Y-115523809D01*
X152642857Y-115571428D01*
X152833333Y-115619047D01*
X153071428Y-115619047D01*
X153261904Y-115571428D01*
X153357142Y-115523809D01*
X153404761Y-115476190D01*
X153452380Y-115380952D01*
X153452380Y-115285714D01*
X153404761Y-115190476D01*
X153357142Y-115142857D01*
X153261904Y-115095238D01*
X153071428Y-115047619D01*
X152833333Y-115047619D01*
X152642857Y-115095238D01*
X152547619Y-115142857D01*
X152500000Y-115190476D01*
X152452380Y-115285714D01*
X153357142Y-116047619D02*
X153404761Y-116095238D01*
X153452380Y-116047619D01*
X153404761Y-116000000D01*
X153357142Y-116047619D01*
X153452380Y-116047619D01*
X153452380Y-117047619D02*
X153452380Y-116476190D01*
X153452380Y-116761904D02*
X152452380Y-116761904D01*
X152595238Y-116666666D01*
X152690476Y-116571428D01*
X152738095Y-116476190D01*
X152785714Y-117904761D02*
X153452380Y-117904761D01*
X152785714Y-117476190D02*
X153309523Y-117476190D01*
X153404761Y-117523809D01*
X153452380Y-117619047D01*
X153452380Y-117761904D01*
X153404761Y-117857142D01*
X153357142Y-117904761D01*
X109882380Y-132785714D02*
X109882380Y-132880952D01*
X109930000Y-132976190D01*
X109977619Y-133023809D01*
X110072857Y-133071428D01*
X110263333Y-133119047D01*
X110501428Y-133119047D01*
X110691904Y-133071428D01*
X110787142Y-133023809D01*
X110834761Y-132976190D01*
X110882380Y-132880952D01*
X110882380Y-132785714D01*
X110834761Y-132690476D01*
X110787142Y-132642857D01*
X110691904Y-132595238D01*
X110501428Y-132547619D01*
X110263333Y-132547619D01*
X110072857Y-132595238D01*
X109977619Y-132642857D01*
X109930000Y-132690476D01*
X109882380Y-132785714D01*
X110787142Y-133547619D02*
X110834761Y-133595238D01*
X110882380Y-133547619D01*
X110834761Y-133500000D01*
X110787142Y-133547619D01*
X110882380Y-133547619D01*
X110882380Y-134547619D02*
X110882380Y-133976190D01*
X110882380Y-134261904D02*
X109882380Y-134261904D01*
X110025238Y-134166666D01*
X110120476Y-134071428D01*
X110168095Y-133976190D01*
X110215714Y-135404761D02*
X110882380Y-135404761D01*
X110215714Y-134976190D02*
X110739523Y-134976190D01*
X110834761Y-135023809D01*
X110882380Y-135119047D01*
X110882380Y-135261904D01*
X110834761Y-135357142D01*
X110787142Y-135404761D01*
X105952380Y-143285714D02*
X105952380Y-143380952D01*
X106000000Y-143476190D01*
X106047619Y-143523809D01*
X106142857Y-143571428D01*
X106333333Y-143619047D01*
X106571428Y-143619047D01*
X106761904Y-143571428D01*
X106857142Y-143523809D01*
X106904761Y-143476190D01*
X106952380Y-143380952D01*
X106952380Y-143285714D01*
X106904761Y-143190476D01*
X106857142Y-143142857D01*
X106761904Y-143095238D01*
X106571428Y-143047619D01*
X106333333Y-143047619D01*
X106142857Y-143095238D01*
X106047619Y-143142857D01*
X106000000Y-143190476D01*
X105952380Y-143285714D01*
X106857142Y-144047619D02*
X106904761Y-144095238D01*
X106952380Y-144047619D01*
X106904761Y-144000000D01*
X106857142Y-144047619D01*
X106952380Y-144047619D01*
X106952380Y-145047619D02*
X106952380Y-144476190D01*
X106952380Y-144761904D02*
X105952380Y-144761904D01*
X106095238Y-144666666D01*
X106190476Y-144571428D01*
X106238095Y-144476190D01*
X106285714Y-145904761D02*
X106952380Y-145904761D01*
X106285714Y-145476190D02*
X106809523Y-145476190D01*
X106904761Y-145523809D01*
X106952380Y-145619047D01*
X106952380Y-145761904D01*
X106904761Y-145857142D01*
X106857142Y-145904761D01*
X110952380Y-143285714D02*
X110952380Y-143380952D01*
X111000000Y-143476190D01*
X111047619Y-143523809D01*
X111142857Y-143571428D01*
X111333333Y-143619047D01*
X111571428Y-143619047D01*
X111761904Y-143571428D01*
X111857142Y-143523809D01*
X111904761Y-143476190D01*
X111952380Y-143380952D01*
X111952380Y-143285714D01*
X111904761Y-143190476D01*
X111857142Y-143142857D01*
X111761904Y-143095238D01*
X111571428Y-143047619D01*
X111333333Y-143047619D01*
X111142857Y-143095238D01*
X111047619Y-143142857D01*
X111000000Y-143190476D01*
X110952380Y-143285714D01*
X111857142Y-144047619D02*
X111904761Y-144095238D01*
X111952380Y-144047619D01*
X111904761Y-144000000D01*
X111857142Y-144047619D01*
X111952380Y-144047619D01*
X111952380Y-145047619D02*
X111952380Y-144476190D01*
X111952380Y-144761904D02*
X110952380Y-144761904D01*
X111095238Y-144666666D01*
X111190476Y-144571428D01*
X111238095Y-144476190D01*
X111285714Y-145904761D02*
X111952380Y-145904761D01*
X111285714Y-145476190D02*
X111809523Y-145476190D01*
X111904761Y-145523809D01*
X111952380Y-145619047D01*
X111952380Y-145761904D01*
X111904761Y-145857142D01*
X111857142Y-145904761D01*
X130952380Y-143285714D02*
X130952380Y-143380952D01*
X131000000Y-143476190D01*
X131047619Y-143523809D01*
X131142857Y-143571428D01*
X131333333Y-143619047D01*
X131571428Y-143619047D01*
X131761904Y-143571428D01*
X131857142Y-143523809D01*
X131904761Y-143476190D01*
X131952380Y-143380952D01*
X131952380Y-143285714D01*
X131904761Y-143190476D01*
X131857142Y-143142857D01*
X131761904Y-143095238D01*
X131571428Y-143047619D01*
X131333333Y-143047619D01*
X131142857Y-143095238D01*
X131047619Y-143142857D01*
X131000000Y-143190476D01*
X130952380Y-143285714D01*
X131857142Y-144047619D02*
X131904761Y-144095238D01*
X131952380Y-144047619D01*
X131904761Y-144000000D01*
X131857142Y-144047619D01*
X131952380Y-144047619D01*
X131952380Y-145047619D02*
X131952380Y-144476190D01*
X131952380Y-144761904D02*
X130952380Y-144761904D01*
X131095238Y-144666666D01*
X131190476Y-144571428D01*
X131238095Y-144476190D01*
X131285714Y-145904761D02*
X131952380Y-145904761D01*
X131285714Y-145476190D02*
X131809523Y-145476190D01*
X131904761Y-145523809D01*
X131952380Y-145619047D01*
X131952380Y-145761904D01*
X131904761Y-145857142D01*
X131857142Y-145904761D01*
X135952380Y-143285714D02*
X135952380Y-143380952D01*
X136000000Y-143476190D01*
X136047619Y-143523809D01*
X136142857Y-143571428D01*
X136333333Y-143619047D01*
X136571428Y-143619047D01*
X136761904Y-143571428D01*
X136857142Y-143523809D01*
X136904761Y-143476190D01*
X136952380Y-143380952D01*
X136952380Y-143285714D01*
X136904761Y-143190476D01*
X136857142Y-143142857D01*
X136761904Y-143095238D01*
X136571428Y-143047619D01*
X136333333Y-143047619D01*
X136142857Y-143095238D01*
X136047619Y-143142857D01*
X136000000Y-143190476D01*
X135952380Y-143285714D01*
X136857142Y-144047619D02*
X136904761Y-144095238D01*
X136952380Y-144047619D01*
X136904761Y-144000000D01*
X136857142Y-144047619D01*
X136952380Y-144047619D01*
X136952380Y-145047619D02*
X136952380Y-144476190D01*
X136952380Y-144761904D02*
X135952380Y-144761904D01*
X136095238Y-144666666D01*
X136190476Y-144571428D01*
X136238095Y-144476190D01*
X136285714Y-145904761D02*
X136952380Y-145904761D01*
X136285714Y-145476190D02*
X136809523Y-145476190D01*
X136904761Y-145523809D01*
X136952380Y-145619047D01*
X136952380Y-145761904D01*
X136904761Y-145857142D01*
X136857142Y-145904761D01*
X159952380Y-98785714D02*
X159952380Y-98880952D01*
X160000000Y-98976190D01*
X160047619Y-99023809D01*
X160142857Y-99071428D01*
X160333333Y-99119047D01*
X160571428Y-99119047D01*
X160761904Y-99071428D01*
X160857142Y-99023809D01*
X160904761Y-98976190D01*
X160952380Y-98880952D01*
X160952380Y-98785714D01*
X160904761Y-98690476D01*
X160857142Y-98642857D01*
X160761904Y-98595238D01*
X160571428Y-98547619D01*
X160333333Y-98547619D01*
X160142857Y-98595238D01*
X160047619Y-98642857D01*
X160000000Y-98690476D01*
X159952380Y-98785714D01*
X160857142Y-99547619D02*
X160904761Y-99595238D01*
X160952380Y-99547619D01*
X160904761Y-99500000D01*
X160857142Y-99547619D01*
X160952380Y-99547619D01*
X160952380Y-100547619D02*
X160952380Y-99976190D01*
X160952380Y-100261904D02*
X159952380Y-100261904D01*
X160095238Y-100166666D01*
X160190476Y-100071428D01*
X160238095Y-99976190D01*
X160285714Y-101404761D02*
X160952380Y-101404761D01*
X160285714Y-100976190D02*
X160809523Y-100976190D01*
X160904761Y-101023809D01*
X160952380Y-101119047D01*
X160952380Y-101261904D01*
X160904761Y-101357142D01*
X160857142Y-101404761D01*
X157952380Y-98785714D02*
X157952380Y-98880952D01*
X158000000Y-98976190D01*
X158047619Y-99023809D01*
X158142857Y-99071428D01*
X158333333Y-99119047D01*
X158571428Y-99119047D01*
X158761904Y-99071428D01*
X158857142Y-99023809D01*
X158904761Y-98976190D01*
X158952380Y-98880952D01*
X158952380Y-98785714D01*
X158904761Y-98690476D01*
X158857142Y-98642857D01*
X158761904Y-98595238D01*
X158571428Y-98547619D01*
X158333333Y-98547619D01*
X158142857Y-98595238D01*
X158047619Y-98642857D01*
X158000000Y-98690476D01*
X157952380Y-98785714D01*
X158857142Y-99547619D02*
X158904761Y-99595238D01*
X158952380Y-99547619D01*
X158904761Y-99500000D01*
X158857142Y-99547619D01*
X158952380Y-99547619D01*
X158952380Y-100547619D02*
X158952380Y-99976190D01*
X158952380Y-100261904D02*
X157952380Y-100261904D01*
X158095238Y-100166666D01*
X158190476Y-100071428D01*
X158238095Y-99976190D01*
X158285714Y-101404761D02*
X158952380Y-101404761D01*
X158285714Y-100976190D02*
X158809523Y-100976190D01*
X158904761Y-101023809D01*
X158952380Y-101119047D01*
X158952380Y-101261904D01*
X158904761Y-101357142D01*
X158857142Y-101404761D01*
X155952380Y-98785714D02*
X155952380Y-98880952D01*
X156000000Y-98976190D01*
X156047619Y-99023809D01*
X156142857Y-99071428D01*
X156333333Y-99119047D01*
X156571428Y-99119047D01*
X156761904Y-99071428D01*
X156857142Y-99023809D01*
X156904761Y-98976190D01*
X156952380Y-98880952D01*
X156952380Y-98785714D01*
X156904761Y-98690476D01*
X156857142Y-98642857D01*
X156761904Y-98595238D01*
X156571428Y-98547619D01*
X156333333Y-98547619D01*
X156142857Y-98595238D01*
X156047619Y-98642857D01*
X156000000Y-98690476D01*
X155952380Y-98785714D01*
X156857142Y-99547619D02*
X156904761Y-99595238D01*
X156952380Y-99547619D01*
X156904761Y-99500000D01*
X156857142Y-99547619D01*
X156952380Y-99547619D01*
X156952380Y-100547619D02*
X156952380Y-99976190D01*
X156952380Y-100261904D02*
X155952380Y-100261904D01*
X156095238Y-100166666D01*
X156190476Y-100071428D01*
X156238095Y-99976190D01*
X156285714Y-101404761D02*
X156952380Y-101404761D01*
X156285714Y-100976190D02*
X156809523Y-100976190D01*
X156904761Y-101023809D01*
X156952380Y-101119047D01*
X156952380Y-101261904D01*
X156904761Y-101357142D01*
X156857142Y-101404761D01*
X137345238Y-126382380D02*
X137916666Y-126382380D01*
X137630952Y-126382380D02*
X137630952Y-125382380D01*
X137726190Y-125525238D01*
X137821428Y-125620476D01*
X137916666Y-125668095D01*
X136726190Y-125382380D02*
X136630952Y-125382380D01*
X136535714Y-125430000D01*
X136488095Y-125477619D01*
X136440476Y-125572857D01*
X136392857Y-125763333D01*
X136392857Y-126001428D01*
X136440476Y-126191904D01*
X136488095Y-126287142D01*
X136535714Y-126334761D01*
X136630952Y-126382380D01*
X136726190Y-126382380D01*
X136821428Y-126334761D01*
X136869047Y-126287142D01*
X136916666Y-126191904D01*
X136964285Y-126001428D01*
X136964285Y-125763333D01*
X136916666Y-125572857D01*
X136869047Y-125477619D01*
X136821428Y-125430000D01*
X136726190Y-125382380D01*
X135964285Y-126382380D02*
X135964285Y-125382380D01*
X135869047Y-126001428D02*
X135583333Y-126382380D01*
X135583333Y-125715714D02*
X135964285Y-126096666D01*
X121022380Y-110857142D02*
X121022380Y-110285714D01*
X121022380Y-110571428D02*
X120022380Y-110571428D01*
X120165238Y-110476190D01*
X120260476Y-110380952D01*
X120308095Y-110285714D01*
X120022380Y-111476190D02*
X120022380Y-111571428D01*
X120070000Y-111666666D01*
X120117619Y-111714285D01*
X120212857Y-111761904D01*
X120403333Y-111809523D01*
X120641428Y-111809523D01*
X120831904Y-111761904D01*
X120927142Y-111714285D01*
X120974761Y-111666666D01*
X121022380Y-111571428D01*
X121022380Y-111476190D01*
X120974761Y-111380952D01*
X120927142Y-111333333D01*
X120831904Y-111285714D01*
X120641428Y-111238095D01*
X120403333Y-111238095D01*
X120212857Y-111285714D01*
X120117619Y-111333333D01*
X120070000Y-111380952D01*
X120022380Y-111476190D01*
X120641428Y-112238095D02*
X120641428Y-113000000D01*
X121022380Y-114000000D02*
X121022380Y-113428571D01*
X121022380Y-113714285D02*
X120022380Y-113714285D01*
X120165238Y-113619047D01*
X120260476Y-113523809D01*
X120308095Y-113428571D01*
X120022380Y-114619047D02*
X120022380Y-114714285D01*
X120070000Y-114809523D01*
X120117619Y-114857142D01*
X120212857Y-114904761D01*
X120403333Y-114952380D01*
X120641428Y-114952380D01*
X120831904Y-114904761D01*
X120927142Y-114857142D01*
X120974761Y-114809523D01*
X121022380Y-114714285D01*
X121022380Y-114619047D01*
X120974761Y-114523809D01*
X120927142Y-114476190D01*
X120831904Y-114428571D01*
X120641428Y-114380952D01*
X120403333Y-114380952D01*
X120212857Y-114428571D01*
X120117619Y-114476190D01*
X120070000Y-114523809D01*
X120022380Y-114619047D01*
X120022380Y-115571428D02*
X120022380Y-115666666D01*
X120070000Y-115761904D01*
X120117619Y-115809523D01*
X120212857Y-115857142D01*
X120403333Y-115904761D01*
X120641428Y-115904761D01*
X120831904Y-115857142D01*
X120927142Y-115809523D01*
X120974761Y-115761904D01*
X121022380Y-115666666D01*
X121022380Y-115571428D01*
X120974761Y-115476190D01*
X120927142Y-115428571D01*
X120831904Y-115380952D01*
X120641428Y-115333333D01*
X120403333Y-115333333D01*
X120212857Y-115380952D01*
X120117619Y-115428571D01*
X120070000Y-115476190D01*
X120022380Y-115571428D01*
X121022380Y-116333333D02*
X120022380Y-116333333D01*
X120641428Y-116428571D02*
X121022380Y-116714285D01*
X120355714Y-116714285D02*
X120736666Y-116333333D01*
X109022380Y-110857142D02*
X109022380Y-110285714D01*
X109022380Y-110571428D02*
X108022380Y-110571428D01*
X108165238Y-110476190D01*
X108260476Y-110380952D01*
X108308095Y-110285714D01*
X108022380Y-111476190D02*
X108022380Y-111571428D01*
X108070000Y-111666666D01*
X108117619Y-111714285D01*
X108212857Y-111761904D01*
X108403333Y-111809523D01*
X108641428Y-111809523D01*
X108831904Y-111761904D01*
X108927142Y-111714285D01*
X108974761Y-111666666D01*
X109022380Y-111571428D01*
X109022380Y-111476190D01*
X108974761Y-111380952D01*
X108927142Y-111333333D01*
X108831904Y-111285714D01*
X108641428Y-111238095D01*
X108403333Y-111238095D01*
X108212857Y-111285714D01*
X108117619Y-111333333D01*
X108070000Y-111380952D01*
X108022380Y-111476190D01*
X108641428Y-112238095D02*
X108641428Y-113000000D01*
X109022380Y-114000000D02*
X109022380Y-113428571D01*
X109022380Y-113714285D02*
X108022380Y-113714285D01*
X108165238Y-113619047D01*
X108260476Y-113523809D01*
X108308095Y-113428571D01*
X108022380Y-114619047D02*
X108022380Y-114714285D01*
X108070000Y-114809523D01*
X108117619Y-114857142D01*
X108212857Y-114904761D01*
X108403333Y-114952380D01*
X108641428Y-114952380D01*
X108831904Y-114904761D01*
X108927142Y-114857142D01*
X108974761Y-114809523D01*
X109022380Y-114714285D01*
X109022380Y-114619047D01*
X108974761Y-114523809D01*
X108927142Y-114476190D01*
X108831904Y-114428571D01*
X108641428Y-114380952D01*
X108403333Y-114380952D01*
X108212857Y-114428571D01*
X108117619Y-114476190D01*
X108070000Y-114523809D01*
X108022380Y-114619047D01*
X108022380Y-115571428D02*
X108022380Y-115666666D01*
X108070000Y-115761904D01*
X108117619Y-115809523D01*
X108212857Y-115857142D01*
X108403333Y-115904761D01*
X108641428Y-115904761D01*
X108831904Y-115857142D01*
X108927142Y-115809523D01*
X108974761Y-115761904D01*
X109022380Y-115666666D01*
X109022380Y-115571428D01*
X108974761Y-115476190D01*
X108927142Y-115428571D01*
X108831904Y-115380952D01*
X108641428Y-115333333D01*
X108403333Y-115333333D01*
X108212857Y-115380952D01*
X108117619Y-115428571D01*
X108070000Y-115476190D01*
X108022380Y-115571428D01*
X109022380Y-116333333D02*
X108022380Y-116333333D01*
X108641428Y-116428571D02*
X109022380Y-116714285D01*
X108355714Y-116714285D02*
X108736666Y-116333333D01*
X150952380Y-100630952D02*
X150952380Y-100059523D01*
X150952380Y-100345238D02*
X149952380Y-100345238D01*
X150095238Y-100250000D01*
X150190476Y-100154761D01*
X150238095Y-100059523D01*
X150952380Y-101059523D02*
X149952380Y-101059523D01*
X150571428Y-101154761D02*
X150952380Y-101440476D01*
X150285714Y-101440476D02*
X150666666Y-101059523D01*
X145452380Y-110857142D02*
X145452380Y-110285714D01*
X145452380Y-110571428D02*
X144452380Y-110571428D01*
X144595238Y-110476190D01*
X144690476Y-110380952D01*
X144738095Y-110285714D01*
X144452380Y-111476190D02*
X144452380Y-111571428D01*
X144500000Y-111666666D01*
X144547619Y-111714285D01*
X144642857Y-111761904D01*
X144833333Y-111809523D01*
X145071428Y-111809523D01*
X145261904Y-111761904D01*
X145357142Y-111714285D01*
X145404761Y-111666666D01*
X145452380Y-111571428D01*
X145452380Y-111476190D01*
X145404761Y-111380952D01*
X145357142Y-111333333D01*
X145261904Y-111285714D01*
X145071428Y-111238095D01*
X144833333Y-111238095D01*
X144642857Y-111285714D01*
X144547619Y-111333333D01*
X144500000Y-111380952D01*
X144452380Y-111476190D01*
X145071428Y-112238095D02*
X145071428Y-113000000D01*
X145452380Y-114000000D02*
X145452380Y-113428571D01*
X145452380Y-113714285D02*
X144452380Y-113714285D01*
X144595238Y-113619047D01*
X144690476Y-113523809D01*
X144738095Y-113428571D01*
X144452380Y-114619047D02*
X144452380Y-114714285D01*
X144500000Y-114809523D01*
X144547619Y-114857142D01*
X144642857Y-114904761D01*
X144833333Y-114952380D01*
X145071428Y-114952380D01*
X145261904Y-114904761D01*
X145357142Y-114857142D01*
X145404761Y-114809523D01*
X145452380Y-114714285D01*
X145452380Y-114619047D01*
X145404761Y-114523809D01*
X145357142Y-114476190D01*
X145261904Y-114428571D01*
X145071428Y-114380952D01*
X144833333Y-114380952D01*
X144642857Y-114428571D01*
X144547619Y-114476190D01*
X144500000Y-114523809D01*
X144452380Y-114619047D01*
X144452380Y-115571428D02*
X144452380Y-115666666D01*
X144500000Y-115761904D01*
X144547619Y-115809523D01*
X144642857Y-115857142D01*
X144833333Y-115904761D01*
X145071428Y-115904761D01*
X145261904Y-115857142D01*
X145357142Y-115809523D01*
X145404761Y-115761904D01*
X145452380Y-115666666D01*
X145452380Y-115571428D01*
X145404761Y-115476190D01*
X145357142Y-115428571D01*
X145261904Y-115380952D01*
X145071428Y-115333333D01*
X144833333Y-115333333D01*
X144642857Y-115380952D01*
X144547619Y-115428571D01*
X144500000Y-115476190D01*
X144452380Y-115571428D01*
X145452380Y-116333333D02*
X144452380Y-116333333D01*
X145071428Y-116428571D02*
X145452380Y-116714285D01*
X144785714Y-116714285D02*
X145166666Y-116333333D01*
X133022380Y-110857142D02*
X133022380Y-110285714D01*
X133022380Y-110571428D02*
X132022380Y-110571428D01*
X132165238Y-110476190D01*
X132260476Y-110380952D01*
X132308095Y-110285714D01*
X132022380Y-111476190D02*
X132022380Y-111571428D01*
X132070000Y-111666666D01*
X132117619Y-111714285D01*
X132212857Y-111761904D01*
X132403333Y-111809523D01*
X132641428Y-111809523D01*
X132831904Y-111761904D01*
X132927142Y-111714285D01*
X132974761Y-111666666D01*
X133022380Y-111571428D01*
X133022380Y-111476190D01*
X132974761Y-111380952D01*
X132927142Y-111333333D01*
X132831904Y-111285714D01*
X132641428Y-111238095D01*
X132403333Y-111238095D01*
X132212857Y-111285714D01*
X132117619Y-111333333D01*
X132070000Y-111380952D01*
X132022380Y-111476190D01*
X132641428Y-112238095D02*
X132641428Y-113000000D01*
X133022380Y-114000000D02*
X133022380Y-113428571D01*
X133022380Y-113714285D02*
X132022380Y-113714285D01*
X132165238Y-113619047D01*
X132260476Y-113523809D01*
X132308095Y-113428571D01*
X132022380Y-114619047D02*
X132022380Y-114714285D01*
X132070000Y-114809523D01*
X132117619Y-114857142D01*
X132212857Y-114904761D01*
X132403333Y-114952380D01*
X132641428Y-114952380D01*
X132831904Y-114904761D01*
X132927142Y-114857142D01*
X132974761Y-114809523D01*
X133022380Y-114714285D01*
X133022380Y-114619047D01*
X132974761Y-114523809D01*
X132927142Y-114476190D01*
X132831904Y-114428571D01*
X132641428Y-114380952D01*
X132403333Y-114380952D01*
X132212857Y-114428571D01*
X132117619Y-114476190D01*
X132070000Y-114523809D01*
X132022380Y-114619047D01*
X132022380Y-115571428D02*
X132022380Y-115666666D01*
X132070000Y-115761904D01*
X132117619Y-115809523D01*
X132212857Y-115857142D01*
X132403333Y-115904761D01*
X132641428Y-115904761D01*
X132831904Y-115857142D01*
X132927142Y-115809523D01*
X132974761Y-115761904D01*
X133022380Y-115666666D01*
X133022380Y-115571428D01*
X132974761Y-115476190D01*
X132927142Y-115428571D01*
X132831904Y-115380952D01*
X132641428Y-115333333D01*
X132403333Y-115333333D01*
X132212857Y-115380952D01*
X132117619Y-115428571D01*
X132070000Y-115476190D01*
X132022380Y-115571428D01*
X133022380Y-116333333D02*
X132022380Y-116333333D01*
X132641428Y-116428571D02*
X133022380Y-116714285D01*
X132355714Y-116714285D02*
X132736666Y-116333333D01*
X154952380Y-100630952D02*
X154952380Y-100059523D01*
X154952380Y-100345238D02*
X153952380Y-100345238D01*
X154095238Y-100250000D01*
X154190476Y-100154761D01*
X154238095Y-100059523D01*
X154952380Y-101059523D02*
X153952380Y-101059523D01*
X154571428Y-101154761D02*
X154952380Y-101440476D01*
X154285714Y-101440476D02*
X154666666Y-101059523D01*
X110382380Y-141380952D02*
X110382380Y-140809523D01*
X110382380Y-141095238D02*
X109382380Y-141095238D01*
X109525238Y-141000000D01*
X109620476Y-140904761D01*
X109668095Y-140809523D01*
X110382380Y-141809523D02*
X109382380Y-141809523D01*
X110001428Y-141904761D02*
X110382380Y-142190476D01*
X109715714Y-142190476D02*
X110096666Y-141809523D01*
X115382380Y-141380952D02*
X115382380Y-140809523D01*
X115382380Y-141095238D02*
X114382380Y-141095238D01*
X114525238Y-141000000D01*
X114620476Y-140904761D01*
X114668095Y-140809523D01*
X115382380Y-141809523D02*
X114382380Y-141809523D01*
X115001428Y-141904761D02*
X115382380Y-142190476D01*
X114715714Y-142190476D02*
X115096666Y-141809523D01*
X135382380Y-141380952D02*
X135382380Y-140809523D01*
X135382380Y-141095238D02*
X134382380Y-141095238D01*
X134525238Y-141000000D01*
X134620476Y-140904761D01*
X134668095Y-140809523D01*
X135382380Y-141809523D02*
X134382380Y-141809523D01*
X135001428Y-141904761D02*
X135382380Y-142190476D01*
X134715714Y-142190476D02*
X135096666Y-141809523D01*
X95666666Y-141382380D02*
X96238095Y-141382380D01*
X95952380Y-141382380D02*
X95952380Y-140382380D01*
X96047619Y-140525238D01*
X96142857Y-140620476D01*
X96238095Y-140668095D01*
X95285714Y-140477619D02*
X95238095Y-140430000D01*
X95142857Y-140382380D01*
X94904761Y-140382380D01*
X94809523Y-140430000D01*
X94761904Y-140477619D01*
X94714285Y-140572857D01*
X94714285Y-140668095D01*
X94761904Y-140810952D01*
X95333333Y-141382380D01*
X94714285Y-141382380D01*
X94095238Y-140382380D02*
X94000000Y-140382380D01*
X93904761Y-140430000D01*
X93857142Y-140477619D01*
X93809523Y-140572857D01*
X93761904Y-140763333D01*
X93761904Y-141001428D01*
X93809523Y-141191904D01*
X93857142Y-141287142D01*
X93904761Y-141334761D01*
X94000000Y-141382380D01*
X94095238Y-141382380D01*
X94190476Y-141334761D01*
X94238095Y-141287142D01*
X94285714Y-141191904D01*
X94333333Y-141001428D01*
X94333333Y-140763333D01*
X94285714Y-140572857D01*
X94238095Y-140477619D01*
X94190476Y-140430000D01*
X94095238Y-140382380D01*
X140382380Y-141380952D02*
X140382380Y-140809523D01*
X140382380Y-141095238D02*
X139382380Y-141095238D01*
X139525238Y-141000000D01*
X139620476Y-140904761D01*
X139668095Y-140809523D01*
X140382380Y-141809523D02*
X139382380Y-141809523D01*
X140001428Y-141904761D02*
X140382380Y-142190476D01*
X139715714Y-142190476D02*
X140096666Y-141809523D01*
X115882380Y-112904761D02*
X115882380Y-112333333D01*
X115882380Y-112619047D02*
X114882380Y-112619047D01*
X115025238Y-112523809D01*
X115120476Y-112428571D01*
X115168095Y-112333333D01*
X114882380Y-113523809D02*
X114882380Y-113619047D01*
X114930000Y-113714285D01*
X114977619Y-113761904D01*
X115072857Y-113809523D01*
X115263333Y-113857142D01*
X115501428Y-113857142D01*
X115691904Y-113809523D01*
X115787142Y-113761904D01*
X115834761Y-113714285D01*
X115882380Y-113619047D01*
X115882380Y-113523809D01*
X115834761Y-113428571D01*
X115787142Y-113380952D01*
X115691904Y-113333333D01*
X115501428Y-113285714D01*
X115263333Y-113285714D01*
X115072857Y-113333333D01*
X114977619Y-113380952D01*
X114930000Y-113428571D01*
X114882380Y-113523809D01*
X115882380Y-114285714D02*
X114882380Y-114285714D01*
X115501428Y-114380952D02*
X115882380Y-114666666D01*
X115215714Y-114666666D02*
X115596666Y-114285714D01*
X138452380Y-115654761D02*
X138452380Y-115083333D01*
X138452380Y-115369047D02*
X137452380Y-115369047D01*
X137595238Y-115273809D01*
X137690476Y-115178571D01*
X137738095Y-115083333D01*
X137452380Y-116273809D02*
X137452380Y-116369047D01*
X137500000Y-116464285D01*
X137547619Y-116511904D01*
X137642857Y-116559523D01*
X137833333Y-116607142D01*
X138071428Y-116607142D01*
X138261904Y-116559523D01*
X138357142Y-116511904D01*
X138404761Y-116464285D01*
X138452380Y-116369047D01*
X138452380Y-116273809D01*
X138404761Y-116178571D01*
X138357142Y-116130952D01*
X138261904Y-116083333D01*
X138071428Y-116035714D01*
X137833333Y-116035714D01*
X137642857Y-116083333D01*
X137547619Y-116130952D01*
X137500000Y-116178571D01*
X137452380Y-116273809D01*
X138452380Y-117035714D02*
X137452380Y-117035714D01*
X138071428Y-117130952D02*
X138452380Y-117416666D01*
X137785714Y-117416666D02*
X138166666Y-117035714D01*
X146522380Y-141380952D02*
X146522380Y-140809523D01*
X146522380Y-141095238D02*
X145522380Y-141095238D01*
X145665238Y-141000000D01*
X145760476Y-140904761D01*
X145808095Y-140809523D01*
X146522380Y-141809523D02*
X145522380Y-141809523D01*
X146141428Y-141904761D02*
X146522380Y-142190476D01*
X145855714Y-142190476D02*
X146236666Y-141809523D01*
X149202380Y-141380952D02*
X149202380Y-140809523D01*
X149202380Y-141095238D02*
X148202380Y-141095238D01*
X148345238Y-141000000D01*
X148440476Y-140904761D01*
X148488095Y-140809523D01*
X149202380Y-141809523D02*
X148202380Y-141809523D01*
X148821428Y-141904761D02*
X149202380Y-142190476D01*
X148535714Y-142190476D02*
X148916666Y-141809523D01*
X147452380Y-114964285D02*
X147452380Y-115583333D01*
X147833333Y-115250000D01*
X147833333Y-115392857D01*
X147880952Y-115488095D01*
X147928571Y-115535714D01*
X148023809Y-115583333D01*
X148261904Y-115583333D01*
X148357142Y-115535714D01*
X148404761Y-115488095D01*
X148452380Y-115392857D01*
X148452380Y-115107142D01*
X148404761Y-115011904D01*
X148357142Y-114964285D01*
X147452380Y-115916666D02*
X147452380Y-116535714D01*
X147833333Y-116202380D01*
X147833333Y-116345238D01*
X147880952Y-116440476D01*
X147928571Y-116488095D01*
X148023809Y-116535714D01*
X148261904Y-116535714D01*
X148357142Y-116488095D01*
X148404761Y-116440476D01*
X148452380Y-116345238D01*
X148452380Y-116059523D01*
X148404761Y-115964285D01*
X148357142Y-115916666D01*
X147452380Y-117154761D02*
X147452380Y-117250000D01*
X147500000Y-117345238D01*
X147547619Y-117392857D01*
X147642857Y-117440476D01*
X147833333Y-117488095D01*
X148071428Y-117488095D01*
X148261904Y-117440476D01*
X148357142Y-117392857D01*
X148404761Y-117345238D01*
X148452380Y-117250000D01*
X148452380Y-117154761D01*
X148404761Y-117059523D01*
X148357142Y-117011904D01*
X148261904Y-116964285D01*
X148071428Y-116916666D01*
X147833333Y-116916666D01*
X147642857Y-116964285D01*
X147547619Y-117011904D01*
X147500000Y-117059523D01*
X147452380Y-117154761D01*
X158452380Y-115654761D02*
X158452380Y-115083333D01*
X158452380Y-115369047D02*
X157452380Y-115369047D01*
X157595238Y-115273809D01*
X157690476Y-115178571D01*
X157738095Y-115083333D01*
X157452380Y-116273809D02*
X157452380Y-116369047D01*
X157500000Y-116464285D01*
X157547619Y-116511904D01*
X157642857Y-116559523D01*
X157833333Y-116607142D01*
X158071428Y-116607142D01*
X158261904Y-116559523D01*
X158357142Y-116511904D01*
X158404761Y-116464285D01*
X158452380Y-116369047D01*
X158452380Y-116273809D01*
X158404761Y-116178571D01*
X158357142Y-116130952D01*
X158261904Y-116083333D01*
X158071428Y-116035714D01*
X157833333Y-116035714D01*
X157642857Y-116083333D01*
X157547619Y-116130952D01*
X157500000Y-116178571D01*
X157452380Y-116273809D01*
X158452380Y-117035714D02*
X157452380Y-117035714D01*
X158071428Y-117130952D02*
X158452380Y-117416666D01*
X157785714Y-117416666D02*
X158166666Y-117035714D01*
X152952380Y-99654761D02*
X152952380Y-99083333D01*
X152952380Y-99369047D02*
X151952380Y-99369047D01*
X152095238Y-99273809D01*
X152190476Y-99178571D01*
X152238095Y-99083333D01*
X151952380Y-100273809D02*
X151952380Y-100369047D01*
X152000000Y-100464285D01*
X152047619Y-100511904D01*
X152142857Y-100559523D01*
X152333333Y-100607142D01*
X152571428Y-100607142D01*
X152761904Y-100559523D01*
X152857142Y-100511904D01*
X152904761Y-100464285D01*
X152952380Y-100369047D01*
X152952380Y-100273809D01*
X152904761Y-100178571D01*
X152857142Y-100130952D01*
X152761904Y-100083333D01*
X152571428Y-100035714D01*
X152333333Y-100035714D01*
X152142857Y-100083333D01*
X152047619Y-100130952D01*
X152000000Y-100178571D01*
X151952380Y-100273809D01*
X152952380Y-101035714D02*
X151952380Y-101035714D01*
X152571428Y-101130952D02*
X152952380Y-101416666D01*
X152285714Y-101416666D02*
X152666666Y-101035714D01*
X107014285Y-137361904D02*
X107014285Y-136561904D01*
X106747619Y-137133333D01*
X106480952Y-136561904D01*
X106480952Y-137361904D01*
X106138095Y-137133333D02*
X105757142Y-137133333D01*
X106214285Y-137361904D02*
X105947619Y-136561904D01*
X105680952Y-137361904D01*
X105490476Y-136561904D02*
X104957142Y-137361904D01*
X104957142Y-136561904D02*
X105490476Y-137361904D01*
X104728571Y-136561904D02*
X104233333Y-136561904D01*
X104500000Y-136866666D01*
X104385714Y-136866666D01*
X104309523Y-136904761D01*
X104271428Y-136942857D01*
X104233333Y-137019047D01*
X104233333Y-137209523D01*
X104271428Y-137285714D01*
X104309523Y-137323809D01*
X104385714Y-137361904D01*
X104614285Y-137361904D01*
X104690476Y-137323809D01*
X104728571Y-137285714D01*
X103738095Y-136561904D02*
X103661904Y-136561904D01*
X103585714Y-136600000D01*
X103547619Y-136638095D01*
X103509523Y-136714285D01*
X103471428Y-136866666D01*
X103471428Y-137057142D01*
X103509523Y-137209523D01*
X103547619Y-137285714D01*
X103585714Y-137323809D01*
X103661904Y-137361904D01*
X103738095Y-137361904D01*
X103814285Y-137323809D01*
X103852380Y-137285714D01*
X103890476Y-137209523D01*
X103928571Y-137057142D01*
X103928571Y-136866666D01*
X103890476Y-136714285D01*
X103852380Y-136638095D01*
X103814285Y-136600000D01*
X103738095Y-136561904D01*
X102747619Y-136561904D02*
X103128571Y-136561904D01*
X103166666Y-136942857D01*
X103128571Y-136904761D01*
X103052380Y-136866666D01*
X102861904Y-136866666D01*
X102785714Y-136904761D01*
X102747619Y-136942857D01*
X102709523Y-137019047D01*
X102709523Y-137209523D01*
X102747619Y-137285714D01*
X102785714Y-137323809D01*
X102861904Y-137361904D01*
X103052380Y-137361904D01*
X103128571Y-137323809D01*
X103166666Y-137285714D01*
X101947619Y-137361904D02*
X102404761Y-137361904D01*
X102176190Y-137361904D02*
X102176190Y-136561904D01*
X102252380Y-136676190D01*
X102328571Y-136752380D01*
X102404761Y-136790476D01*
X104061904Y-123528571D02*
X104061904Y-123604761D01*
X104100000Y-123680952D01*
X104138095Y-123719047D01*
X104214285Y-123757142D01*
X104366666Y-123795238D01*
X104557142Y-123795238D01*
X104709523Y-123757142D01*
X104785714Y-123719047D01*
X104823809Y-123680952D01*
X104861904Y-123604761D01*
X104861904Y-123528571D01*
X104823809Y-123452380D01*
X104785714Y-123414285D01*
X104709523Y-123376190D01*
X104557142Y-123338095D01*
X104366666Y-123338095D01*
X104214285Y-123376190D01*
X104138095Y-123414285D01*
X104100000Y-123452380D01*
X104061904Y-123528571D01*
X104785714Y-124138095D02*
X104823809Y-124176190D01*
X104861904Y-124138095D01*
X104823809Y-124100000D01*
X104785714Y-124138095D01*
X104861904Y-124138095D01*
X104861904Y-124938095D02*
X104861904Y-124480952D01*
X104861904Y-124709523D02*
X104061904Y-124709523D01*
X104176190Y-124633333D01*
X104252380Y-124557142D01*
X104290476Y-124480952D01*
X104328571Y-125623809D02*
X104861904Y-125623809D01*
X104328571Y-125280952D02*
X104747619Y-125280952D01*
X104823809Y-125319047D01*
X104861904Y-125395238D01*
X104861904Y-125509523D01*
X104823809Y-125585714D01*
X104785714Y-125623809D01*
X99514285Y-124061904D02*
X99895238Y-124061904D01*
X99933333Y-124442857D01*
X99895238Y-124404761D01*
X99819047Y-124366666D01*
X99628571Y-124366666D01*
X99552380Y-124404761D01*
X99514285Y-124442857D01*
X99476190Y-124519047D01*
X99476190Y-124709523D01*
X99514285Y-124785714D01*
X99552380Y-124823809D01*
X99628571Y-124861904D01*
X99819047Y-124861904D01*
X99895238Y-124823809D01*
X99933333Y-124785714D01*
X98980952Y-124061904D02*
X98904761Y-124061904D01*
X98828571Y-124100000D01*
X98790476Y-124138095D01*
X98752380Y-124214285D01*
X98714285Y-124366666D01*
X98714285Y-124557142D01*
X98752380Y-124709523D01*
X98790476Y-124785714D01*
X98828571Y-124823809D01*
X98904761Y-124861904D01*
X98980952Y-124861904D01*
X99057142Y-124823809D01*
X99095238Y-124785714D01*
X99133333Y-124709523D01*
X99171428Y-124557142D01*
X99171428Y-124366666D01*
X99133333Y-124214285D01*
X99095238Y-124138095D01*
X99057142Y-124100000D01*
X98980952Y-124061904D01*
X98371428Y-124861904D02*
X98371428Y-124061904D01*
X98295238Y-124557142D02*
X98066666Y-124861904D01*
X98066666Y-124328571D02*
X98371428Y-124633333D01*
X100952380Y-129154761D02*
X100952380Y-128583333D01*
X100952380Y-128869047D02*
X99952380Y-128869047D01*
X100095238Y-128773809D01*
X100190476Y-128678571D01*
X100238095Y-128583333D01*
X99952380Y-129773809D02*
X99952380Y-129869047D01*
X100000000Y-129964285D01*
X100047619Y-130011904D01*
X100142857Y-130059523D01*
X100333333Y-130107142D01*
X100571428Y-130107142D01*
X100761904Y-130059523D01*
X100857142Y-130011904D01*
X100904761Y-129964285D01*
X100952380Y-129869047D01*
X100952380Y-129773809D01*
X100904761Y-129678571D01*
X100857142Y-129630952D01*
X100761904Y-129583333D01*
X100571428Y-129535714D01*
X100333333Y-129535714D01*
X100142857Y-129583333D01*
X100047619Y-129630952D01*
X100000000Y-129678571D01*
X99952380Y-129773809D01*
X100952380Y-130535714D02*
X99952380Y-130535714D01*
X100571428Y-130630952D02*
X100952380Y-130916666D01*
X100285714Y-130916666D02*
X100666666Y-130535714D01*
X99383333Y-119635714D02*
X99383333Y-120016666D01*
X99611904Y-119559523D02*
X98811904Y-119826190D01*
X99611904Y-120092857D01*
X99611904Y-120359523D02*
X98811904Y-120359523D01*
X98811904Y-120664285D01*
X98850000Y-120740476D01*
X98888095Y-120778571D01*
X98964285Y-120816666D01*
X99078571Y-120816666D01*
X99154761Y-120778571D01*
X99192857Y-120740476D01*
X99230952Y-120664285D01*
X99230952Y-120359523D01*
X98811904Y-121083333D02*
X98811904Y-121578571D01*
X99116666Y-121311904D01*
X99116666Y-121426190D01*
X99154761Y-121502380D01*
X99192857Y-121540476D01*
X99269047Y-121578571D01*
X99459523Y-121578571D01*
X99535714Y-121540476D01*
X99573809Y-121502380D01*
X99611904Y-121426190D01*
X99611904Y-121197619D01*
X99573809Y-121121428D01*
X99535714Y-121083333D01*
X98888095Y-121883333D02*
X98850000Y-121921428D01*
X98811904Y-121997619D01*
X98811904Y-122188095D01*
X98850000Y-122264285D01*
X98888095Y-122302380D01*
X98964285Y-122340476D01*
X99040476Y-122340476D01*
X99154761Y-122302380D01*
X99611904Y-121845238D01*
X99611904Y-122340476D01*
X99611904Y-123102380D02*
X99611904Y-122645238D01*
X99611904Y-122873809D02*
X98811904Y-122873809D01*
X98926190Y-122797619D01*
X99002380Y-122721428D01*
X99040476Y-122645238D01*
X99611904Y-123864285D02*
X99611904Y-123407142D01*
X99611904Y-123635714D02*
X98811904Y-123635714D01*
X98926190Y-123559523D01*
X99002380Y-123483333D01*
X99040476Y-123407142D01*
X159392380Y-138545714D02*
X159392380Y-138640952D01*
X159440000Y-138736190D01*
X159487619Y-138783809D01*
X159582857Y-138831428D01*
X159773333Y-138879047D01*
X160011428Y-138879047D01*
X160201904Y-138831428D01*
X160297142Y-138783809D01*
X160344761Y-138736190D01*
X160392380Y-138640952D01*
X160392380Y-138545714D01*
X160344761Y-138450476D01*
X160297142Y-138402857D01*
X160201904Y-138355238D01*
X160011428Y-138307619D01*
X159773333Y-138307619D01*
X159582857Y-138355238D01*
X159487619Y-138402857D01*
X159440000Y-138450476D01*
X159392380Y-138545714D01*
X160297142Y-139307619D02*
X160344761Y-139355238D01*
X160392380Y-139307619D01*
X160344761Y-139260000D01*
X160297142Y-139307619D01*
X160392380Y-139307619D01*
X160392380Y-140307619D02*
X160392380Y-139736190D01*
X160392380Y-140021904D02*
X159392380Y-140021904D01*
X159535238Y-139926666D01*
X159630476Y-139831428D01*
X159678095Y-139736190D01*
X159725714Y-141164761D02*
X160392380Y-141164761D01*
X159725714Y-140736190D02*
X160249523Y-140736190D01*
X160344761Y-140783809D01*
X160392380Y-140879047D01*
X160392380Y-141021904D01*
X160344761Y-141117142D01*
X160297142Y-141164761D01*
X156921428Y-85792857D02*
X156807142Y-85830952D01*
X156769047Y-85869047D01*
X156730952Y-85945238D01*
X156730952Y-86059523D01*
X156769047Y-86135714D01*
X156807142Y-86173809D01*
X156883333Y-86211904D01*
X157188095Y-86211904D01*
X157188095Y-85411904D01*
X156921428Y-85411904D01*
X156845238Y-85450000D01*
X156807142Y-85488095D01*
X156769047Y-85564285D01*
X156769047Y-85640476D01*
X156807142Y-85716666D01*
X156845238Y-85754761D01*
X156921428Y-85792857D01*
X157188095Y-85792857D01*
X156388095Y-86211904D02*
X156388095Y-85411904D01*
X156197619Y-85411904D01*
X156083333Y-85450000D01*
X156007142Y-85526190D01*
X155969047Y-85602380D01*
X155930952Y-85754761D01*
X155930952Y-85869047D01*
X155969047Y-86021428D01*
X156007142Y-86097619D01*
X156083333Y-86173809D01*
X156197619Y-86211904D01*
X156388095Y-86211904D01*
X155664285Y-85411904D02*
X155169047Y-85411904D01*
X155435714Y-85716666D01*
X155321428Y-85716666D01*
X155245238Y-85754761D01*
X155207142Y-85792857D01*
X155169047Y-85869047D01*
X155169047Y-86059523D01*
X155207142Y-86135714D01*
X155245238Y-86173809D01*
X155321428Y-86211904D01*
X155550000Y-86211904D01*
X155626190Y-86173809D01*
X155664285Y-86135714D01*
X154902380Y-85411904D02*
X154407142Y-85411904D01*
X154673809Y-85716666D01*
X154559523Y-85716666D01*
X154483333Y-85754761D01*
X154445238Y-85792857D01*
X154407142Y-85869047D01*
X154407142Y-86059523D01*
X154445238Y-86135714D01*
X154483333Y-86173809D01*
X154559523Y-86211904D01*
X154788095Y-86211904D01*
X154864285Y-86173809D01*
X154902380Y-86135714D01*
X153797619Y-85792857D02*
X154064285Y-85792857D01*
X154064285Y-86211904D02*
X154064285Y-85411904D01*
X153683333Y-85411904D01*
X153416666Y-85983333D02*
X153035714Y-85983333D01*
X153492857Y-86211904D02*
X153226190Y-85411904D01*
X152959523Y-86211904D01*
X152273809Y-86211904D02*
X152730952Y-86211904D01*
X152502380Y-86211904D02*
X152502380Y-85411904D01*
X152578571Y-85526190D01*
X152654761Y-85602380D01*
X152730952Y-85640476D01*
X155976190Y-94285714D02*
X155976190Y-94952380D01*
X156214285Y-93904761D02*
X156452380Y-94619047D01*
X155833333Y-94619047D01*
X155452380Y-94857142D02*
X155404761Y-94904761D01*
X155452380Y-94952380D01*
X155500000Y-94904761D01*
X155452380Y-94857142D01*
X155452380Y-94952380D01*
X155071428Y-93952380D02*
X154404761Y-93952380D01*
X154833333Y-94952380D01*
X153595238Y-94285714D02*
X153595238Y-94952380D01*
X154023809Y-94285714D02*
X154023809Y-94809523D01*
X153976190Y-94904761D01*
X153880952Y-94952380D01*
X153738095Y-94952380D01*
X153642857Y-94904761D01*
X153595238Y-94857142D01*
X96476190Y-88935714D02*
X96476190Y-89602380D01*
X96714285Y-88554761D02*
X96952380Y-89269047D01*
X96333333Y-89269047D01*
X95952380Y-89507142D02*
X95904761Y-89554761D01*
X95952380Y-89602380D01*
X96000000Y-89554761D01*
X95952380Y-89507142D01*
X95952380Y-89602380D01*
X95571428Y-88602380D02*
X94904761Y-88602380D01*
X95333333Y-89602380D01*
X94095238Y-88935714D02*
X94095238Y-89602380D01*
X94523809Y-88935714D02*
X94523809Y-89459523D01*
X94476190Y-89554761D01*
X94380952Y-89602380D01*
X94238095Y-89602380D01*
X94142857Y-89554761D01*
X94095238Y-89507142D01*
X96476190Y-69685714D02*
X96476190Y-70352380D01*
X96714285Y-69304761D02*
X96952380Y-70019047D01*
X96333333Y-70019047D01*
X95952380Y-70257142D02*
X95904761Y-70304761D01*
X95952380Y-70352380D01*
X96000000Y-70304761D01*
X95952380Y-70257142D01*
X95952380Y-70352380D01*
X95571428Y-69352380D02*
X94904761Y-69352380D01*
X95333333Y-70352380D01*
X94095238Y-69685714D02*
X94095238Y-70352380D01*
X94523809Y-69685714D02*
X94523809Y-70209523D01*
X94476190Y-70304761D01*
X94380952Y-70352380D01*
X94238095Y-70352380D01*
X94142857Y-70304761D01*
X94095238Y-70257142D01*
X147952380Y-100666666D02*
X147952380Y-101285714D01*
X148333333Y-100952380D01*
X148333333Y-101095238D01*
X148380952Y-101190476D01*
X148428571Y-101238095D01*
X148523809Y-101285714D01*
X148761904Y-101285714D01*
X148857142Y-101238095D01*
X148904761Y-101190476D01*
X148952380Y-101095238D01*
X148952380Y-100809523D01*
X148904761Y-100714285D01*
X148857142Y-100666666D01*
X137202380Y-102666666D02*
X137202380Y-103285714D01*
X137583333Y-102952380D01*
X137583333Y-103095238D01*
X137630952Y-103190476D01*
X137678571Y-103238095D01*
X137773809Y-103285714D01*
X138011904Y-103285714D01*
X138107142Y-103238095D01*
X138154761Y-103190476D01*
X138202380Y-103095238D01*
X138202380Y-102809523D01*
X138154761Y-102714285D01*
X138107142Y-102666666D01*
X125452380Y-102666666D02*
X125452380Y-103285714D01*
X125833333Y-102952380D01*
X125833333Y-103095238D01*
X125880952Y-103190476D01*
X125928571Y-103238095D01*
X126023809Y-103285714D01*
X126261904Y-103285714D01*
X126357142Y-103238095D01*
X126404761Y-103190476D01*
X126452380Y-103095238D01*
X126452380Y-102809523D01*
X126404761Y-102714285D01*
X126357142Y-102666666D01*
X113452380Y-102666666D02*
X113452380Y-103285714D01*
X113833333Y-102952380D01*
X113833333Y-103095238D01*
X113880952Y-103190476D01*
X113928571Y-103238095D01*
X114023809Y-103285714D01*
X114261904Y-103285714D01*
X114357142Y-103238095D01*
X114404761Y-103190476D01*
X114452380Y-103095238D01*
X114452380Y-102809523D01*
X114404761Y-102714285D01*
X114357142Y-102666666D01*
X155892857Y-80952380D02*
X156464285Y-80952380D01*
X156178571Y-80952380D02*
X156178571Y-79952380D01*
X156273809Y-80095238D01*
X156369047Y-80190476D01*
X156464285Y-80238095D01*
X155273809Y-79952380D02*
X155178571Y-79952380D01*
X155083333Y-80000000D01*
X155035714Y-80047619D01*
X154988095Y-80142857D01*
X154940476Y-80333333D01*
X154940476Y-80571428D01*
X154988095Y-80761904D01*
X155035714Y-80857142D01*
X155083333Y-80904761D01*
X155178571Y-80952380D01*
X155273809Y-80952380D01*
X155369047Y-80904761D01*
X155416666Y-80857142D01*
X155464285Y-80761904D01*
X155511904Y-80571428D01*
X155511904Y-80333333D01*
X155464285Y-80142857D01*
X155416666Y-80047619D01*
X155369047Y-80000000D01*
X155273809Y-79952380D01*
X154083333Y-80285714D02*
X154083333Y-80952380D01*
X154511904Y-80285714D02*
X154511904Y-80809523D01*
X154464285Y-80904761D01*
X154369047Y-80952380D01*
X154226190Y-80952380D01*
X154130952Y-80904761D01*
X154083333Y-80857142D01*
X150202380Y-74535714D02*
X150202380Y-74059523D01*
X150678571Y-74011904D01*
X150630952Y-74059523D01*
X150583333Y-74154761D01*
X150583333Y-74392857D01*
X150630952Y-74488095D01*
X150678571Y-74535714D01*
X150773809Y-74583333D01*
X151011904Y-74583333D01*
X151107142Y-74535714D01*
X151154761Y-74488095D01*
X151202380Y-74392857D01*
X151202380Y-74154761D01*
X151154761Y-74059523D01*
X151107142Y-74011904D01*
X151202380Y-75535714D02*
X151202380Y-74964285D01*
X151202380Y-75250000D02*
X150202380Y-75250000D01*
X150345238Y-75154761D01*
X150440476Y-75059523D01*
X150488095Y-74964285D01*
X150202380Y-76154761D02*
X150202380Y-76250000D01*
X150250000Y-76345238D01*
X150297619Y-76392857D01*
X150392857Y-76440476D01*
X150583333Y-76488095D01*
X150821428Y-76488095D01*
X151011904Y-76440476D01*
X151107142Y-76392857D01*
X151154761Y-76345238D01*
X151202380Y-76250000D01*
X151202380Y-76154761D01*
X151154761Y-76059523D01*
X151107142Y-76011904D01*
X151011904Y-75964285D01*
X150821428Y-75916666D01*
X150583333Y-75916666D01*
X150392857Y-75964285D01*
X150297619Y-76011904D01*
X150250000Y-76059523D01*
X150202380Y-76154761D01*
X156692857Y-72083333D02*
X156730952Y-72197619D01*
X156769047Y-72235714D01*
X156845238Y-72273809D01*
X156959523Y-72273809D01*
X157035714Y-72235714D01*
X157073809Y-72197619D01*
X157111904Y-72121428D01*
X157111904Y-71816666D01*
X156311904Y-71816666D01*
X156311904Y-72083333D01*
X156350000Y-72159523D01*
X156388095Y-72197619D01*
X156464285Y-72235714D01*
X156540476Y-72235714D01*
X156616666Y-72197619D01*
X156654761Y-72159523D01*
X156692857Y-72083333D01*
X156692857Y-71816666D01*
X157111904Y-72616666D02*
X156311904Y-72616666D01*
X156311904Y-72807142D01*
X156350000Y-72921428D01*
X156426190Y-72997619D01*
X156502380Y-73035714D01*
X156654761Y-73073809D01*
X156769047Y-73073809D01*
X156921428Y-73035714D01*
X156997619Y-72997619D01*
X157073809Y-72921428D01*
X157111904Y-72807142D01*
X157111904Y-72616666D01*
X157111904Y-73454761D02*
X157111904Y-73607142D01*
X157073809Y-73683333D01*
X157035714Y-73721428D01*
X156921428Y-73797619D01*
X156769047Y-73835714D01*
X156464285Y-73835714D01*
X156388095Y-73797619D01*
X156350000Y-73759523D01*
X156311904Y-73683333D01*
X156311904Y-73530952D01*
X156350000Y-73454761D01*
X156388095Y-73416666D01*
X156464285Y-73378571D01*
X156654761Y-73378571D01*
X156730952Y-73416666D01*
X156769047Y-73454761D01*
X156807142Y-73530952D01*
X156807142Y-73683333D01*
X156769047Y-73759523D01*
X156730952Y-73797619D01*
X156654761Y-73835714D01*
X156350000Y-74597619D02*
X156311904Y-74521428D01*
X156311904Y-74407142D01*
X156350000Y-74292857D01*
X156426190Y-74216666D01*
X156502380Y-74178571D01*
X156654761Y-74140476D01*
X156769047Y-74140476D01*
X156921428Y-74178571D01*
X156997619Y-74216666D01*
X157073809Y-74292857D01*
X157111904Y-74407142D01*
X157111904Y-74483333D01*
X157073809Y-74597619D01*
X157035714Y-74635714D01*
X156769047Y-74635714D01*
X156769047Y-74483333D01*
X157111904Y-75397619D02*
X157111904Y-74940476D01*
X157111904Y-75169047D02*
X156311904Y-75169047D01*
X156426190Y-75092857D01*
X156502380Y-75016666D01*
X156540476Y-74940476D01*
X156311904Y-75892857D02*
X156311904Y-75969047D01*
X156350000Y-76045238D01*
X156388095Y-76083333D01*
X156464285Y-76121428D01*
X156616666Y-76159523D01*
X156807142Y-76159523D01*
X156959523Y-76121428D01*
X157035714Y-76083333D01*
X157073809Y-76045238D01*
X157111904Y-75969047D01*
X157111904Y-75892857D01*
X157073809Y-75816666D01*
X157035714Y-75778571D01*
X156959523Y-75740476D01*
X156807142Y-75702380D01*
X156616666Y-75702380D01*
X156464285Y-75740476D01*
X156388095Y-75778571D01*
X156350000Y-75816666D01*
X156311904Y-75892857D01*
X157111904Y-76921428D02*
X157111904Y-76464285D01*
X157111904Y-76692857D02*
X156311904Y-76692857D01*
X156426190Y-76616666D01*
X156502380Y-76540476D01*
X156540476Y-76464285D01*
X156350000Y-77683333D02*
X156311904Y-77607142D01*
X156311904Y-77492857D01*
X156350000Y-77378571D01*
X156426190Y-77302380D01*
X156502380Y-77264285D01*
X156654761Y-77226190D01*
X156769047Y-77226190D01*
X156921428Y-77264285D01*
X156997619Y-77302380D01*
X157073809Y-77378571D01*
X157111904Y-77492857D01*
X157111904Y-77569047D01*
X157073809Y-77683333D01*
X157035714Y-77721428D01*
X156769047Y-77721428D01*
X156769047Y-77569047D01*
X161030952Y-72328571D02*
X161030952Y-72861904D01*
X161221428Y-72023809D02*
X161411904Y-72595238D01*
X160916666Y-72595238D01*
X160611904Y-72785714D02*
X160573809Y-72823809D01*
X160611904Y-72861904D01*
X160650000Y-72823809D01*
X160611904Y-72785714D01*
X160611904Y-72861904D01*
X160307142Y-72061904D02*
X159773809Y-72061904D01*
X160116666Y-72861904D01*
X159126190Y-72328571D02*
X159126190Y-72861904D01*
X159469047Y-72328571D02*
X159469047Y-72747619D01*
X159430952Y-72823809D01*
X159354761Y-72861904D01*
X159240476Y-72861904D01*
X159164285Y-72823809D01*
X159126190Y-72785714D01*
M02*
