G04 #@! TF.GenerationSoftware,KiCad,Pcbnew,(5.1.4)-1*
G04 #@! TF.CreationDate,2020-03-02T11:47:12+09:00*
G04 #@! TF.ProjectId,CAN_Current_Control_MD,43414e5f-4375-4727-9265-6e745f436f6e,rev?*
G04 #@! TF.SameCoordinates,Original*
G04 #@! TF.FileFunction,Legend,Bot*
G04 #@! TF.FilePolarity,Positive*
%FSLAX46Y46*%
G04 Gerber Fmt 4.6, Leading zero omitted, Abs format (unit mm)*
G04 Created by KiCad (PCBNEW (5.1.4)-1) date 2020-03-02 11:47:12*
%MOMM*%
%LPD*%
G04 APERTURE LIST*
%ADD10C,0.150000*%
%ADD11C,0.275000*%
%ADD12C,0.120000*%
%ADD13C,0.100000*%
G04 APERTURE END LIST*
D10*
X155961904Y-111150000D02*
X156057142Y-111102380D01*
X156200000Y-111102380D01*
X156342857Y-111150000D01*
X156438095Y-111245238D01*
X156485714Y-111340476D01*
X156533333Y-111530952D01*
X156533333Y-111673809D01*
X156485714Y-111864285D01*
X156438095Y-111959523D01*
X156342857Y-112054761D01*
X156200000Y-112102380D01*
X156104761Y-112102380D01*
X155961904Y-112054761D01*
X155914285Y-112007142D01*
X155914285Y-111673809D01*
X156104761Y-111673809D01*
X155485714Y-112102380D02*
X155485714Y-111102380D01*
X154914285Y-112102380D01*
X154914285Y-111102380D01*
X154438095Y-112102380D02*
X154438095Y-111102380D01*
X154200000Y-111102380D01*
X154057142Y-111150000D01*
X153961904Y-111245238D01*
X153914285Y-111340476D01*
X153866666Y-111530952D01*
X153866666Y-111673809D01*
X153914285Y-111864285D01*
X153961904Y-111959523D01*
X154057142Y-112054761D01*
X154200000Y-112102380D01*
X154438095Y-112102380D01*
X155961904Y-123650000D02*
X156057142Y-123602380D01*
X156200000Y-123602380D01*
X156342857Y-123650000D01*
X156438095Y-123745238D01*
X156485714Y-123840476D01*
X156533333Y-124030952D01*
X156533333Y-124173809D01*
X156485714Y-124364285D01*
X156438095Y-124459523D01*
X156342857Y-124554761D01*
X156200000Y-124602380D01*
X156104761Y-124602380D01*
X155961904Y-124554761D01*
X155914285Y-124507142D01*
X155914285Y-124173809D01*
X156104761Y-124173809D01*
X155485714Y-124602380D02*
X155485714Y-123602380D01*
X154914285Y-124602380D01*
X154914285Y-123602380D01*
X154438095Y-124602380D02*
X154438095Y-123602380D01*
X154200000Y-123602380D01*
X154057142Y-123650000D01*
X153961904Y-123745238D01*
X153914285Y-123840476D01*
X153866666Y-124030952D01*
X153866666Y-124173809D01*
X153914285Y-124364285D01*
X153961904Y-124459523D01*
X154057142Y-124554761D01*
X154200000Y-124602380D01*
X154438095Y-124602380D01*
X152840476Y-121102380D02*
X153316666Y-121102380D01*
X153316666Y-120102380D01*
X153435714Y-118602380D02*
X153435714Y-117602380D01*
X153435714Y-118078571D02*
X152864285Y-118078571D01*
X152864285Y-118602380D02*
X152864285Y-117602380D01*
X153435714Y-131102380D02*
X153435714Y-130102380D01*
X153435714Y-130578571D02*
X152864285Y-130578571D01*
X152864285Y-131102380D02*
X152864285Y-130102380D01*
X152840476Y-133602380D02*
X153316666Y-133602380D01*
X153316666Y-132602380D01*
X204835714Y-141229000D02*
X204035714Y-141229000D01*
X204188095Y-142361904D02*
X204454761Y-141980952D01*
X204645238Y-142361904D02*
X204645238Y-141561904D01*
X204340476Y-141561904D01*
X204264285Y-141600000D01*
X204226190Y-141638095D01*
X204188095Y-141714285D01*
X204188095Y-141828571D01*
X204226190Y-141904761D01*
X204264285Y-141942857D01*
X204340476Y-141980952D01*
X204645238Y-141980952D01*
X204035714Y-141229000D02*
X203273809Y-141229000D01*
X203883333Y-142323809D02*
X203769047Y-142361904D01*
X203578571Y-142361904D01*
X203502380Y-142323809D01*
X203464285Y-142285714D01*
X203426190Y-142209523D01*
X203426190Y-142133333D01*
X203464285Y-142057142D01*
X203502380Y-142019047D01*
X203578571Y-141980952D01*
X203730952Y-141942857D01*
X203807142Y-141904761D01*
X203845238Y-141866666D01*
X203883333Y-141790476D01*
X203883333Y-141714285D01*
X203845238Y-141638095D01*
X203807142Y-141600000D01*
X203730952Y-141561904D01*
X203540476Y-141561904D01*
X203426190Y-141600000D01*
X203273809Y-141229000D02*
X202664285Y-141229000D01*
X203197619Y-141561904D02*
X202740476Y-141561904D01*
X202969047Y-142361904D02*
X202969047Y-141561904D01*
X204569047Y-140861904D02*
X204569047Y-140061904D01*
X204378571Y-140061904D01*
X204264285Y-140100000D01*
X204188095Y-140176190D01*
X204150000Y-140252380D01*
X204111904Y-140404761D01*
X204111904Y-140519047D01*
X204150000Y-140671428D01*
X204188095Y-140747619D01*
X204264285Y-140823809D01*
X204378571Y-140861904D01*
X204569047Y-140861904D01*
X203769047Y-140861904D02*
X203769047Y-140061904D01*
X203235714Y-140061904D02*
X203083333Y-140061904D01*
X203007142Y-140100000D01*
X202930952Y-140176190D01*
X202892857Y-140328571D01*
X202892857Y-140595238D01*
X202930952Y-140747619D01*
X203007142Y-140823809D01*
X203083333Y-140861904D01*
X203235714Y-140861904D01*
X203311904Y-140823809D01*
X203388095Y-140747619D01*
X203426190Y-140595238D01*
X203426190Y-140328571D01*
X203388095Y-140176190D01*
X203311904Y-140100000D01*
X203235714Y-140061904D01*
X204226190Y-139285714D02*
X204264285Y-139323809D01*
X204378571Y-139361904D01*
X204454761Y-139361904D01*
X204569047Y-139323809D01*
X204645238Y-139247619D01*
X204683333Y-139171428D01*
X204721428Y-139019047D01*
X204721428Y-138904761D01*
X204683333Y-138752380D01*
X204645238Y-138676190D01*
X204569047Y-138600000D01*
X204454761Y-138561904D01*
X204378571Y-138561904D01*
X204264285Y-138600000D01*
X204226190Y-138638095D01*
X203502380Y-139361904D02*
X203883333Y-139361904D01*
X203883333Y-138561904D01*
X203235714Y-139361904D02*
X203235714Y-138561904D01*
X202778571Y-139361904D02*
X203121428Y-138904761D01*
X202778571Y-138561904D02*
X203235714Y-139019047D01*
X204740476Y-137061904D02*
X204245238Y-137061904D01*
X204511904Y-137366666D01*
X204397619Y-137366666D01*
X204321428Y-137404761D01*
X204283333Y-137442857D01*
X204245238Y-137519047D01*
X204245238Y-137709523D01*
X204283333Y-137785714D01*
X204321428Y-137823809D01*
X204397619Y-137861904D01*
X204626190Y-137861904D01*
X204702380Y-137823809D01*
X204740476Y-137785714D01*
X204016666Y-137061904D02*
X203750000Y-137861904D01*
X203483333Y-137061904D01*
X203292857Y-137061904D02*
X202797619Y-137061904D01*
X203064285Y-137366666D01*
X202950000Y-137366666D01*
X202873809Y-137404761D01*
X202835714Y-137442857D01*
X202797619Y-137519047D01*
X202797619Y-137709523D01*
X202835714Y-137785714D01*
X202873809Y-137823809D01*
X202950000Y-137861904D01*
X203178571Y-137861904D01*
X203254761Y-137823809D01*
X203292857Y-137785714D01*
X204359523Y-135600000D02*
X204435714Y-135561904D01*
X204550000Y-135561904D01*
X204664285Y-135600000D01*
X204740476Y-135676190D01*
X204778571Y-135752380D01*
X204816666Y-135904761D01*
X204816666Y-136019047D01*
X204778571Y-136171428D01*
X204740476Y-136247619D01*
X204664285Y-136323809D01*
X204550000Y-136361904D01*
X204473809Y-136361904D01*
X204359523Y-136323809D01*
X204321428Y-136285714D01*
X204321428Y-136019047D01*
X204473809Y-136019047D01*
X203978571Y-136361904D02*
X203978571Y-135561904D01*
X203521428Y-136361904D01*
X203521428Y-135561904D01*
X203140476Y-136361904D02*
X203140476Y-135561904D01*
X202950000Y-135561904D01*
X202835714Y-135600000D01*
X202759523Y-135676190D01*
X202721428Y-135752380D01*
X202683333Y-135904761D01*
X202683333Y-136019047D01*
X202721428Y-136171428D01*
X202759523Y-136247619D01*
X202835714Y-136323809D01*
X202950000Y-136361904D01*
X203140476Y-136361904D01*
X215645238Y-118361904D02*
X216102380Y-118361904D01*
X215873809Y-118361904D02*
X215873809Y-117561904D01*
X215950000Y-117676190D01*
X216026190Y-117752380D01*
X216102380Y-117790476D01*
X215340476Y-117638095D02*
X215302380Y-117600000D01*
X215226190Y-117561904D01*
X215035714Y-117561904D01*
X214959523Y-117600000D01*
X214921428Y-117638095D01*
X214883333Y-117714285D01*
X214883333Y-117790476D01*
X214921428Y-117904761D01*
X215378571Y-118361904D01*
X214883333Y-118361904D01*
X214654761Y-117561904D02*
X214388095Y-118361904D01*
X214121428Y-117561904D01*
X213854761Y-118361904D02*
X213854761Y-117561904D01*
X213550000Y-117561904D01*
X213473809Y-117600000D01*
X213435714Y-117638095D01*
X213397619Y-117714285D01*
X213397619Y-117828571D01*
X213435714Y-117904761D01*
X213473809Y-117942857D01*
X213550000Y-117980952D01*
X213854761Y-117980952D01*
X215645238Y-123861904D02*
X216102380Y-123861904D01*
X215873809Y-123861904D02*
X215873809Y-123061904D01*
X215950000Y-123176190D01*
X216026190Y-123252380D01*
X216102380Y-123290476D01*
X215340476Y-123138095D02*
X215302380Y-123100000D01*
X215226190Y-123061904D01*
X215035714Y-123061904D01*
X214959523Y-123100000D01*
X214921428Y-123138095D01*
X214883333Y-123214285D01*
X214883333Y-123290476D01*
X214921428Y-123404761D01*
X215378571Y-123861904D01*
X214883333Y-123861904D01*
X214654761Y-123061904D02*
X214388095Y-123861904D01*
X214121428Y-123061904D01*
X213854761Y-123861904D02*
X213854761Y-123061904D01*
X213550000Y-123061904D01*
X213473809Y-123100000D01*
X213435714Y-123138095D01*
X213397619Y-123214285D01*
X213397619Y-123328571D01*
X213435714Y-123404761D01*
X213473809Y-123442857D01*
X213550000Y-123480952D01*
X213854761Y-123480952D01*
X166838095Y-134111904D02*
X166838095Y-133311904D01*
X165885714Y-133273809D02*
X166571428Y-134302380D01*
X165466666Y-133311904D02*
X165314285Y-133311904D01*
X165238095Y-133350000D01*
X165161904Y-133426190D01*
X165123809Y-133578571D01*
X165123809Y-133845238D01*
X165161904Y-133997619D01*
X165238095Y-134073809D01*
X165314285Y-134111904D01*
X165466666Y-134111904D01*
X165542857Y-134073809D01*
X165619047Y-133997619D01*
X165657142Y-133845238D01*
X165657142Y-133578571D01*
X165619047Y-133426190D01*
X165542857Y-133350000D01*
X165466666Y-133311904D01*
X161609523Y-133350000D02*
X161685714Y-133311904D01*
X161800000Y-133311904D01*
X161914285Y-133350000D01*
X161990476Y-133426190D01*
X162028571Y-133502380D01*
X162066666Y-133654761D01*
X162066666Y-133769047D01*
X162028571Y-133921428D01*
X161990476Y-133997619D01*
X161914285Y-134073809D01*
X161800000Y-134111904D01*
X161723809Y-134111904D01*
X161609523Y-134073809D01*
X161571428Y-134035714D01*
X161571428Y-133769047D01*
X161723809Y-133769047D01*
X161228571Y-134111904D02*
X161228571Y-133311904D01*
X160771428Y-134111904D01*
X160771428Y-133311904D01*
X160390476Y-134111904D02*
X160390476Y-133311904D01*
X160200000Y-133311904D01*
X160085714Y-133350000D01*
X160009523Y-133426190D01*
X159971428Y-133502380D01*
X159933333Y-133654761D01*
X159933333Y-133769047D01*
X159971428Y-133921428D01*
X160009523Y-133997619D01*
X160085714Y-134073809D01*
X160200000Y-134111904D01*
X160390476Y-134111904D01*
X164490476Y-133311904D02*
X164223809Y-134111904D01*
X163957142Y-133311904D01*
X163347619Y-134111904D02*
X163347619Y-133311904D01*
X163347619Y-134073809D02*
X163423809Y-134111904D01*
X163576190Y-134111904D01*
X163652380Y-134073809D01*
X163690476Y-134035714D01*
X163728571Y-133959523D01*
X163728571Y-133730952D01*
X163690476Y-133654761D01*
X163652380Y-133616666D01*
X163576190Y-133578571D01*
X163423809Y-133578571D01*
X163347619Y-133616666D01*
X162623809Y-134111904D02*
X162623809Y-133311904D01*
X162623809Y-134073809D02*
X162700000Y-134111904D01*
X162852380Y-134111904D01*
X162928571Y-134073809D01*
X162966666Y-134035714D01*
X163004761Y-133959523D01*
X163004761Y-133730952D01*
X162966666Y-133654761D01*
X162928571Y-133616666D01*
X162852380Y-133578571D01*
X162700000Y-133578571D01*
X162623809Y-133616666D01*
X171859523Y-133350000D02*
X171935714Y-133311904D01*
X172050000Y-133311904D01*
X172164285Y-133350000D01*
X172240476Y-133426190D01*
X172278571Y-133502380D01*
X172316666Y-133654761D01*
X172316666Y-133769047D01*
X172278571Y-133921428D01*
X172240476Y-133997619D01*
X172164285Y-134073809D01*
X172050000Y-134111904D01*
X171973809Y-134111904D01*
X171859523Y-134073809D01*
X171821428Y-134035714D01*
X171821428Y-133769047D01*
X171973809Y-133769047D01*
X171478571Y-134111904D02*
X171478571Y-133311904D01*
X171021428Y-134111904D01*
X171021428Y-133311904D01*
X170640476Y-134111904D02*
X170640476Y-133311904D01*
X170450000Y-133311904D01*
X170335714Y-133350000D01*
X170259523Y-133426190D01*
X170221428Y-133502380D01*
X170183333Y-133654761D01*
X170183333Y-133769047D01*
X170221428Y-133921428D01*
X170259523Y-133997619D01*
X170335714Y-134073809D01*
X170450000Y-134111904D01*
X170640476Y-134111904D01*
X174740476Y-133311904D02*
X174473809Y-134111904D01*
X174207142Y-133311904D01*
X173597619Y-134111904D02*
X173597619Y-133311904D01*
X173597619Y-134073809D02*
X173673809Y-134111904D01*
X173826190Y-134111904D01*
X173902380Y-134073809D01*
X173940476Y-134035714D01*
X173978571Y-133959523D01*
X173978571Y-133730952D01*
X173940476Y-133654761D01*
X173902380Y-133616666D01*
X173826190Y-133578571D01*
X173673809Y-133578571D01*
X173597619Y-133616666D01*
X172873809Y-134111904D02*
X172873809Y-133311904D01*
X172873809Y-134073809D02*
X172950000Y-134111904D01*
X173102380Y-134111904D01*
X173178571Y-134073809D01*
X173216666Y-134035714D01*
X173254761Y-133959523D01*
X173254761Y-133730952D01*
X173216666Y-133654761D01*
X173178571Y-133616666D01*
X173102380Y-133578571D01*
X172950000Y-133578571D01*
X172873809Y-133616666D01*
X177088095Y-134111904D02*
X177088095Y-133311904D01*
X176135714Y-133273809D02*
X176821428Y-134302380D01*
X175716666Y-133311904D02*
X175564285Y-133311904D01*
X175488095Y-133350000D01*
X175411904Y-133426190D01*
X175373809Y-133578571D01*
X175373809Y-133845238D01*
X175411904Y-133997619D01*
X175488095Y-134073809D01*
X175564285Y-134111904D01*
X175716666Y-134111904D01*
X175792857Y-134073809D01*
X175869047Y-133997619D01*
X175907142Y-133845238D01*
X175907142Y-133578571D01*
X175869047Y-133426190D01*
X175792857Y-133350000D01*
X175716666Y-133311904D01*
D11*
X220107619Y-88197202D02*
X219007619Y-88334702D01*
X219007619Y-88596607D01*
X219060000Y-88747202D01*
X219164761Y-88838869D01*
X219269523Y-88878154D01*
X219479047Y-88904345D01*
X219636190Y-88884702D01*
X219845714Y-88806130D01*
X219950476Y-88740654D01*
X220055238Y-88622797D01*
X220107619Y-88459107D01*
X220107619Y-88197202D01*
X220055238Y-89722797D02*
X220107619Y-89611488D01*
X220107619Y-89401964D01*
X220055238Y-89303750D01*
X219950476Y-89264464D01*
X219531428Y-89316845D01*
X219426666Y-89382321D01*
X219374285Y-89493630D01*
X219374285Y-89703154D01*
X219426666Y-89801369D01*
X219531428Y-89840654D01*
X219636190Y-89827559D01*
X219740952Y-89290654D01*
X220055238Y-90194226D02*
X220107619Y-90292440D01*
X220107619Y-90501964D01*
X220055238Y-90613273D01*
X219950476Y-90678750D01*
X219898095Y-90685297D01*
X219793333Y-90646011D01*
X219740952Y-90547797D01*
X219740952Y-90390654D01*
X219688571Y-90292440D01*
X219583809Y-90253154D01*
X219531428Y-90259702D01*
X219426666Y-90325178D01*
X219374285Y-90436488D01*
X219374285Y-90593630D01*
X219426666Y-90691845D01*
X220107619Y-91130535D02*
X219374285Y-91222202D01*
X219007619Y-91268035D02*
X219060000Y-91209107D01*
X219112380Y-91254940D01*
X219060000Y-91313869D01*
X219007619Y-91268035D01*
X219112380Y-91254940D01*
X219374285Y-92217440D02*
X220264761Y-92106130D01*
X220369523Y-92040654D01*
X220421904Y-91981726D01*
X220474285Y-91870416D01*
X220474285Y-91713273D01*
X220421904Y-91615059D01*
X220055238Y-92132321D02*
X220107619Y-92021011D01*
X220107619Y-91811488D01*
X220055238Y-91713273D01*
X220002857Y-91667440D01*
X219898095Y-91628154D01*
X219583809Y-91667440D01*
X219479047Y-91732916D01*
X219426666Y-91791845D01*
X219374285Y-91903154D01*
X219374285Y-92112678D01*
X219426666Y-92210892D01*
X219374285Y-92741250D02*
X220107619Y-92649583D01*
X219479047Y-92728154D02*
X219426666Y-92787083D01*
X219374285Y-92898392D01*
X219374285Y-93055535D01*
X219426666Y-93153750D01*
X219531428Y-93193035D01*
X220107619Y-93121011D01*
X220055238Y-94070416D02*
X220107619Y-93959107D01*
X220107619Y-93749583D01*
X220055238Y-93651369D01*
X219950476Y-93612083D01*
X219531428Y-93664464D01*
X219426666Y-93729940D01*
X219374285Y-93841250D01*
X219374285Y-94050773D01*
X219426666Y-94148988D01*
X219531428Y-94188273D01*
X219636190Y-94175178D01*
X219740952Y-93638273D01*
X220107619Y-95059107D02*
X219007619Y-95196607D01*
X220055238Y-95065654D02*
X220107619Y-94954345D01*
X220107619Y-94744821D01*
X220055238Y-94646607D01*
X220002857Y-94600773D01*
X219898095Y-94561488D01*
X219583809Y-94600773D01*
X219479047Y-94666250D01*
X219426666Y-94725178D01*
X219374285Y-94836488D01*
X219374285Y-95046011D01*
X219426666Y-95144226D01*
X220107619Y-96421011D02*
X219007619Y-96558511D01*
X219426666Y-96506130D02*
X219374285Y-96617440D01*
X219374285Y-96826964D01*
X219426666Y-96925178D01*
X219479047Y-96971011D01*
X219583809Y-97010297D01*
X219898095Y-96971011D01*
X220002857Y-96905535D01*
X220055238Y-96846607D01*
X220107619Y-96735297D01*
X220107619Y-96525773D01*
X220055238Y-96427559D01*
X219374285Y-97403154D02*
X220107619Y-97573392D01*
X219374285Y-97926964D02*
X220107619Y-97573392D01*
X220369523Y-97435892D01*
X220421904Y-97376964D01*
X220474285Y-97265654D01*
X219793333Y-99079345D02*
X219793333Y-99603154D01*
X220107619Y-98935297D02*
X219007619Y-99439464D01*
X220107619Y-99668630D01*
X220002857Y-100048392D02*
X220055238Y-100094226D01*
X220107619Y-100035297D01*
X220055238Y-99989464D01*
X220002857Y-100048392D01*
X220107619Y-100035297D01*
X220107619Y-100559107D02*
X219007619Y-100696607D01*
X219793333Y-100965059D01*
X219007619Y-101429940D01*
X220107619Y-101292440D01*
X220107619Y-101816250D02*
X219374285Y-101907916D01*
X219007619Y-101953750D02*
X219060000Y-101894821D01*
X219112380Y-101940654D01*
X219060000Y-101999583D01*
X219007619Y-101953750D01*
X219112380Y-101940654D01*
X219374285Y-102326964D02*
X219374285Y-102903154D01*
X220107619Y-102235297D01*
X220107619Y-102811488D01*
X219374285Y-103793630D02*
X220107619Y-103701964D01*
X219374285Y-103322202D02*
X219950476Y-103250178D01*
X220055238Y-103289464D01*
X220107619Y-103387678D01*
X220107619Y-103544821D01*
X220055238Y-103656130D01*
X220002857Y-103715059D01*
X219374285Y-104160297D02*
X219374285Y-104579345D01*
X219007619Y-104363273D02*
X219950476Y-104245416D01*
X220055238Y-104284702D01*
X220107619Y-104382916D01*
X220107619Y-104487678D01*
X220107619Y-105325773D02*
X219531428Y-105397797D01*
X219426666Y-105358511D01*
X219374285Y-105260297D01*
X219374285Y-105050773D01*
X219426666Y-104939464D01*
X220055238Y-105332321D02*
X220107619Y-105221011D01*
X220107619Y-104959107D01*
X220055238Y-104860892D01*
X219950476Y-104821607D01*
X219845714Y-104834702D01*
X219740952Y-104900178D01*
X219688571Y-105011488D01*
X219688571Y-105273392D01*
X219636190Y-105384702D01*
X220107619Y-106687678D02*
X219374285Y-106779345D01*
X219007619Y-106825178D02*
X219060000Y-106766250D01*
X219112380Y-106812083D01*
X219060000Y-106871011D01*
X219007619Y-106825178D01*
X219112380Y-106812083D01*
X219374285Y-107303154D02*
X220107619Y-107211488D01*
X219479047Y-107290059D02*
X219426666Y-107348988D01*
X219374285Y-107460297D01*
X219374285Y-107617440D01*
X219426666Y-107715654D01*
X219531428Y-107754940D01*
X220107619Y-107682916D01*
X219112380Y-109116845D02*
X219060000Y-109175773D01*
X219007619Y-109287083D01*
X219007619Y-109548988D01*
X219060000Y-109647202D01*
X219112380Y-109693035D01*
X219217142Y-109732321D01*
X219321904Y-109719226D01*
X219479047Y-109647202D01*
X220107619Y-108940059D01*
X220107619Y-109621011D01*
X219007619Y-110439464D02*
X219007619Y-110544226D01*
X219060000Y-110642440D01*
X219112380Y-110688273D01*
X219217142Y-110727559D01*
X219426666Y-110753750D01*
X219688571Y-110721011D01*
X219898095Y-110642440D01*
X220002857Y-110576964D01*
X220055238Y-110518035D01*
X220107619Y-110406726D01*
X220107619Y-110301964D01*
X220055238Y-110203750D01*
X220002857Y-110157916D01*
X219898095Y-110118630D01*
X219688571Y-110092440D01*
X219426666Y-110125178D01*
X219217142Y-110203750D01*
X219112380Y-110269226D01*
X219060000Y-110328154D01*
X219007619Y-110439464D01*
X219112380Y-111212083D02*
X219060000Y-111271011D01*
X219007619Y-111382321D01*
X219007619Y-111644226D01*
X219060000Y-111742440D01*
X219112380Y-111788273D01*
X219217142Y-111827559D01*
X219321904Y-111814464D01*
X219479047Y-111742440D01*
X220107619Y-111035297D01*
X220107619Y-111716250D01*
X219007619Y-112534702D02*
X219007619Y-112639464D01*
X219060000Y-112737678D01*
X219112380Y-112783511D01*
X219217142Y-112822797D01*
X219426666Y-112848988D01*
X219688571Y-112816250D01*
X219898095Y-112737678D01*
X220002857Y-112672202D01*
X220055238Y-112613273D01*
X220107619Y-112501964D01*
X220107619Y-112397202D01*
X220055238Y-112298988D01*
X220002857Y-112253154D01*
X219898095Y-112213869D01*
X219688571Y-112187678D01*
X219426666Y-112220416D01*
X219217142Y-112298988D01*
X219112380Y-112364464D01*
X219060000Y-112423392D01*
X219007619Y-112534702D01*
X218955238Y-114165059D02*
X220369523Y-113045416D01*
X219007619Y-114734702D02*
X219007619Y-114839464D01*
X219060000Y-114937678D01*
X219112380Y-114983511D01*
X219217142Y-115022797D01*
X219426666Y-115048988D01*
X219688571Y-115016250D01*
X219898095Y-114937678D01*
X220002857Y-114872202D01*
X220055238Y-114813273D01*
X220107619Y-114701964D01*
X220107619Y-114597202D01*
X220055238Y-114498988D01*
X220002857Y-114453154D01*
X219898095Y-114413869D01*
X219688571Y-114387678D01*
X219426666Y-114420416D01*
X219217142Y-114498988D01*
X219112380Y-114564464D01*
X219060000Y-114623392D01*
X219007619Y-114734702D01*
X219007619Y-115468035D02*
X219007619Y-116148988D01*
X219426666Y-115729940D01*
X219426666Y-115887083D01*
X219479047Y-115985297D01*
X219531428Y-116031130D01*
X219636190Y-116070416D01*
X219898095Y-116037678D01*
X220002857Y-115972202D01*
X220055238Y-115913273D01*
X220107619Y-115801964D01*
X220107619Y-115487678D01*
X220055238Y-115389464D01*
X220002857Y-115343630D01*
X218955238Y-117412678D02*
X220369523Y-116293035D01*
X219007619Y-117982321D02*
X219007619Y-118087083D01*
X219060000Y-118185297D01*
X219112380Y-118231130D01*
X219217142Y-118270416D01*
X219426666Y-118296607D01*
X219688571Y-118263869D01*
X219898095Y-118185297D01*
X220002857Y-118119821D01*
X220055238Y-118060892D01*
X220107619Y-117949583D01*
X220107619Y-117844821D01*
X220055238Y-117746607D01*
X220002857Y-117700773D01*
X219898095Y-117661488D01*
X219688571Y-117635297D01*
X219426666Y-117668035D01*
X219217142Y-117746607D01*
X219112380Y-117812083D01*
X219060000Y-117871011D01*
X219007619Y-117982321D01*
X220107619Y-119259107D02*
X220107619Y-118630535D01*
X220107619Y-118944821D02*
X219007619Y-119082321D01*
X219164761Y-118957916D01*
X219269523Y-118840059D01*
X219321904Y-118728750D01*
X220002857Y-119743630D02*
X220055238Y-119789464D01*
X220107619Y-119730535D01*
X220055238Y-119684702D01*
X220002857Y-119743630D01*
X220107619Y-119730535D01*
D12*
X215612779Y-102010000D02*
X215287221Y-102010000D01*
X215612779Y-100990000D02*
X215287221Y-100990000D01*
X158210000Y-122241422D02*
X158210000Y-122758578D01*
X156790000Y-122241422D02*
X156790000Y-122758578D01*
X161308578Y-123040000D02*
X160791422Y-123040000D01*
X161308578Y-124460000D02*
X160791422Y-124460000D01*
X167410000Y-126412779D02*
X167410000Y-126087221D01*
X166390000Y-126412779D02*
X166390000Y-126087221D01*
X153760000Y-126587221D02*
X153760000Y-126912779D01*
X152740000Y-126587221D02*
X152740000Y-126912779D01*
X152490000Y-114837221D02*
X152490000Y-115162779D01*
X153510000Y-114837221D02*
X153510000Y-115162779D01*
X206341422Y-114810000D02*
X206858578Y-114810000D01*
X206341422Y-113390000D02*
X206858578Y-113390000D01*
X200790000Y-125508578D02*
X200790000Y-124991422D01*
X202210000Y-125508578D02*
X202210000Y-124991422D01*
X208437221Y-93160000D02*
X208762779Y-93160000D01*
X208437221Y-92140000D02*
X208762779Y-92140000D01*
X208641422Y-86610000D02*
X209158578Y-86610000D01*
X208641422Y-85190000D02*
X209158578Y-85190000D01*
X209558578Y-95140000D02*
X209041422Y-95140000D01*
X209558578Y-96560000D02*
X209041422Y-96560000D01*
X158850000Y-118550000D02*
X158850000Y-114650000D01*
X156850000Y-118550000D02*
X156850000Y-114650000D01*
X158850000Y-118550000D02*
X156850000Y-118550000D01*
X193050000Y-119800000D02*
X193050000Y-117800000D01*
X193050000Y-117800000D02*
X196950000Y-117800000D01*
X193050000Y-119800000D02*
X196950000Y-119800000D01*
X209200000Y-119950000D02*
X207200000Y-119950000D01*
X207200000Y-119950000D02*
X207200000Y-116050000D01*
X209200000Y-119950000D02*
X209200000Y-116050000D01*
X200700000Y-129250000D02*
X204600000Y-129250000D01*
X200700000Y-127250000D02*
X204600000Y-127250000D01*
X200700000Y-129250000D02*
X200700000Y-127250000D01*
X214450000Y-88250000D02*
X212450000Y-88250000D01*
X212450000Y-88250000D02*
X212450000Y-84350000D01*
X214450000Y-88250000D02*
X214450000Y-84350000D01*
X209500000Y-134900000D02*
X211500000Y-134900000D01*
X209500000Y-132100000D02*
X209500000Y-134900000D01*
X211500000Y-132100000D02*
X209500000Y-132100000D01*
X211500000Y-134900000D02*
X211500000Y-132100000D01*
D13*
X170250000Y-77500000D02*
X170250000Y-78000000D01*
X170250000Y-78000000D02*
X169250000Y-78000000D01*
X169250000Y-78000000D02*
X169250000Y-77500000D01*
X167750000Y-77500000D02*
X167750000Y-82000000D01*
X167750000Y-82000000D02*
X166750000Y-82000000D01*
X166750000Y-82000000D02*
X166750000Y-77500000D01*
X172750000Y-77500000D02*
X172750000Y-82000000D01*
X172750000Y-82000000D02*
X171750000Y-82000000D01*
X171750000Y-82000000D02*
X171750000Y-77500000D01*
X165250000Y-67000000D02*
X174250000Y-67000000D01*
X174250000Y-67000000D02*
X174750000Y-67500000D01*
X164750000Y-67500000D02*
X165250000Y-67000000D01*
X164750000Y-68500000D02*
X164750000Y-67500000D01*
X174750000Y-68500000D02*
X174750000Y-67500000D01*
X174750000Y-68500000D02*
X174750000Y-77500000D01*
X164750000Y-68500000D02*
X174750000Y-68500000D01*
X164750000Y-77500000D02*
X164750000Y-68500000D01*
X164750000Y-77500000D02*
X174750000Y-77500000D01*
X162500000Y-97000000D02*
X172500000Y-97000000D01*
X162500000Y-97000000D02*
X162500000Y-88000000D01*
X162500000Y-88000000D02*
X172500000Y-88000000D01*
X172500000Y-88000000D02*
X172500000Y-97000000D01*
X172500000Y-88000000D02*
X172500000Y-87000000D01*
X162500000Y-88000000D02*
X162500000Y-87000000D01*
X162500000Y-87000000D02*
X163000000Y-86500000D01*
X172000000Y-86500000D02*
X172500000Y-87000000D01*
X163000000Y-86500000D02*
X172000000Y-86500000D01*
X169500000Y-101500000D02*
X169500000Y-97000000D01*
X170500000Y-101500000D02*
X169500000Y-101500000D01*
X170500000Y-97000000D02*
X170500000Y-101500000D01*
X164500000Y-101500000D02*
X164500000Y-97000000D01*
X165500000Y-101500000D02*
X164500000Y-101500000D01*
X165500000Y-97000000D02*
X165500000Y-101500000D01*
X167000000Y-97500000D02*
X167000000Y-97000000D01*
X168000000Y-97500000D02*
X167000000Y-97500000D01*
X168000000Y-97000000D02*
X168000000Y-97500000D01*
X180500000Y-77500000D02*
X180500000Y-78000000D01*
X180500000Y-78000000D02*
X179500000Y-78000000D01*
X179500000Y-78000000D02*
X179500000Y-77500000D01*
X178000000Y-77500000D02*
X178000000Y-82000000D01*
X178000000Y-82000000D02*
X177000000Y-82000000D01*
X177000000Y-82000000D02*
X177000000Y-77500000D01*
X183000000Y-77500000D02*
X183000000Y-82000000D01*
X183000000Y-82000000D02*
X182000000Y-82000000D01*
X182000000Y-82000000D02*
X182000000Y-77500000D01*
X175500000Y-67000000D02*
X184500000Y-67000000D01*
X184500000Y-67000000D02*
X185000000Y-67500000D01*
X175000000Y-67500000D02*
X175500000Y-67000000D01*
X175000000Y-68500000D02*
X175000000Y-67500000D01*
X185000000Y-68500000D02*
X185000000Y-67500000D01*
X185000000Y-68500000D02*
X185000000Y-77500000D01*
X175000000Y-68500000D02*
X185000000Y-68500000D01*
X175000000Y-77500000D02*
X175000000Y-68500000D01*
X175000000Y-77500000D02*
X185000000Y-77500000D01*
X178500000Y-97000000D02*
X178500000Y-97500000D01*
X178500000Y-97500000D02*
X177500000Y-97500000D01*
X177500000Y-97500000D02*
X177500000Y-97000000D01*
X176000000Y-97000000D02*
X176000000Y-101500000D01*
X176000000Y-101500000D02*
X175000000Y-101500000D01*
X175000000Y-101500000D02*
X175000000Y-97000000D01*
X181000000Y-97000000D02*
X181000000Y-101500000D01*
X181000000Y-101500000D02*
X180000000Y-101500000D01*
X180000000Y-101500000D02*
X180000000Y-97000000D01*
X173500000Y-86500000D02*
X182500000Y-86500000D01*
X182500000Y-86500000D02*
X183000000Y-87000000D01*
X173000000Y-87000000D02*
X173500000Y-86500000D01*
X173000000Y-88000000D02*
X173000000Y-87000000D01*
X183000000Y-88000000D02*
X183000000Y-87000000D01*
X183000000Y-88000000D02*
X183000000Y-97000000D01*
X173000000Y-88000000D02*
X183000000Y-88000000D01*
X173000000Y-97000000D02*
X173000000Y-88000000D01*
X173000000Y-97000000D02*
X183000000Y-97000000D01*
X185750000Y-77500000D02*
X195750000Y-77500000D01*
X185750000Y-77500000D02*
X185750000Y-68500000D01*
X185750000Y-68500000D02*
X195750000Y-68500000D01*
X195750000Y-68500000D02*
X195750000Y-77500000D01*
X195750000Y-68500000D02*
X195750000Y-67500000D01*
X185750000Y-68500000D02*
X185750000Y-67500000D01*
X185750000Y-67500000D02*
X186250000Y-67000000D01*
X195250000Y-67000000D02*
X195750000Y-67500000D01*
X186250000Y-67000000D02*
X195250000Y-67000000D01*
X192750000Y-82000000D02*
X192750000Y-77500000D01*
X193750000Y-82000000D02*
X192750000Y-82000000D01*
X193750000Y-77500000D02*
X193750000Y-82000000D01*
X187750000Y-82000000D02*
X187750000Y-77500000D01*
X188750000Y-82000000D02*
X187750000Y-82000000D01*
X188750000Y-77500000D02*
X188750000Y-82000000D01*
X190250000Y-78000000D02*
X190250000Y-77500000D01*
X191250000Y-78000000D02*
X190250000Y-78000000D01*
X191250000Y-77500000D02*
X191250000Y-78000000D01*
X189250000Y-97000000D02*
X189250000Y-97500000D01*
X189250000Y-97500000D02*
X188250000Y-97500000D01*
X188250000Y-97500000D02*
X188250000Y-97000000D01*
X186750000Y-97000000D02*
X186750000Y-101500000D01*
X186750000Y-101500000D02*
X185750000Y-101500000D01*
X185750000Y-101500000D02*
X185750000Y-97000000D01*
X191750000Y-97000000D02*
X191750000Y-101500000D01*
X191750000Y-101500000D02*
X190750000Y-101500000D01*
X190750000Y-101500000D02*
X190750000Y-97000000D01*
X184250000Y-86500000D02*
X193250000Y-86500000D01*
X193250000Y-86500000D02*
X193750000Y-87000000D01*
X183750000Y-87000000D02*
X184250000Y-86500000D01*
X183750000Y-88000000D02*
X183750000Y-87000000D01*
X193750000Y-88000000D02*
X193750000Y-87000000D01*
X193750000Y-88000000D02*
X193750000Y-97000000D01*
X183750000Y-88000000D02*
X193750000Y-88000000D01*
X183750000Y-97000000D02*
X183750000Y-88000000D01*
X183750000Y-97000000D02*
X193750000Y-97000000D01*
X196000000Y-77500000D02*
X206000000Y-77500000D01*
X196000000Y-77500000D02*
X196000000Y-68500000D01*
X196000000Y-68500000D02*
X206000000Y-68500000D01*
X206000000Y-68500000D02*
X206000000Y-77500000D01*
X206000000Y-68500000D02*
X206000000Y-67500000D01*
X196000000Y-68500000D02*
X196000000Y-67500000D01*
X196000000Y-67500000D02*
X196500000Y-67000000D01*
X205500000Y-67000000D02*
X206000000Y-67500000D01*
X196500000Y-67000000D02*
X205500000Y-67000000D01*
X203000000Y-82000000D02*
X203000000Y-77500000D01*
X204000000Y-82000000D02*
X203000000Y-82000000D01*
X204000000Y-77500000D02*
X204000000Y-82000000D01*
X198000000Y-82000000D02*
X198000000Y-77500000D01*
X199000000Y-82000000D02*
X198000000Y-82000000D01*
X199000000Y-77500000D02*
X199000000Y-82000000D01*
X200500000Y-78000000D02*
X200500000Y-77500000D01*
X201500000Y-78000000D02*
X200500000Y-78000000D01*
X201500000Y-77500000D02*
X201500000Y-78000000D01*
X194250000Y-97000000D02*
X204250000Y-97000000D01*
X194250000Y-97000000D02*
X194250000Y-88000000D01*
X194250000Y-88000000D02*
X204250000Y-88000000D01*
X204250000Y-88000000D02*
X204250000Y-97000000D01*
X204250000Y-88000000D02*
X204250000Y-87000000D01*
X194250000Y-88000000D02*
X194250000Y-87000000D01*
X194250000Y-87000000D02*
X194750000Y-86500000D01*
X203750000Y-86500000D02*
X204250000Y-87000000D01*
X194750000Y-86500000D02*
X203750000Y-86500000D01*
X201250000Y-101500000D02*
X201250000Y-97000000D01*
X202250000Y-101500000D02*
X201250000Y-101500000D01*
X202250000Y-97000000D02*
X202250000Y-101500000D01*
X196250000Y-101500000D02*
X196250000Y-97000000D01*
X197250000Y-101500000D02*
X196250000Y-101500000D01*
X197250000Y-97000000D02*
X197250000Y-101500000D01*
X198750000Y-97500000D02*
X198750000Y-97000000D01*
X199750000Y-97500000D02*
X198750000Y-97500000D01*
X199750000Y-97000000D02*
X199750000Y-97500000D01*
D12*
X215612779Y-104740000D02*
X215287221Y-104740000D01*
X215612779Y-105760000D02*
X215287221Y-105760000D01*
X177925727Y-118704478D02*
X177695522Y-118474273D01*
X177204478Y-119425727D02*
X176974273Y-119195522D01*
X151010000Y-134087221D02*
X151010000Y-134412779D01*
X149990000Y-134087221D02*
X149990000Y-134412779D01*
X201710000Y-116487221D02*
X201710000Y-116812779D01*
X200690000Y-116487221D02*
X200690000Y-116812779D01*
X186975727Y-122054478D02*
X186745522Y-121824273D01*
X186254478Y-122775727D02*
X186024273Y-122545522D01*
X208762779Y-93590000D02*
X208437221Y-93590000D01*
X208762779Y-94610000D02*
X208437221Y-94610000D01*
X208437221Y-91710000D02*
X208762779Y-91710000D01*
X208437221Y-90690000D02*
X208762779Y-90690000D01*
X171490000Y-100087221D02*
X171490000Y-100412779D01*
X172510000Y-100087221D02*
X172510000Y-100412779D01*
X181990000Y-100087221D02*
X181990000Y-100412779D01*
X183010000Y-100087221D02*
X183010000Y-100412779D01*
X192740000Y-100087221D02*
X192740000Y-100412779D01*
X193760000Y-100087221D02*
X193760000Y-100412779D01*
X204260000Y-100087221D02*
X204260000Y-100412779D01*
X203240000Y-100087221D02*
X203240000Y-100412779D01*
X159300000Y-118470000D02*
X158100000Y-118470000D01*
X158100000Y-118470000D02*
X158100000Y-121170000D01*
X162900000Y-122470000D02*
X162900000Y-118470000D01*
X162900000Y-118470000D02*
X161700000Y-118470000D01*
X193540000Y-123990000D02*
X194800000Y-123990000D01*
X200360000Y-123990000D02*
X199100000Y-123990000D01*
X193540000Y-127750000D02*
X193540000Y-123990000D01*
X200360000Y-130000000D02*
X200360000Y-123990000D01*
X204350000Y-115200000D02*
X205950000Y-115200000D01*
X205950000Y-118400000D02*
X203650000Y-118400000D01*
X207300000Y-89500000D02*
X207300000Y-87900000D01*
X210500000Y-87900000D02*
X210500000Y-90200000D01*
X154258578Y-99540000D02*
X153741422Y-99540000D01*
X154258578Y-100960000D02*
X153741422Y-100960000D01*
X154258578Y-86710000D02*
X153741422Y-86710000D01*
X154258578Y-85290000D02*
X153741422Y-85290000D01*
X166360000Y-107902064D02*
X166360000Y-105097936D01*
X163640000Y-107902064D02*
X163640000Y-105097936D01*
X184890000Y-107902064D02*
X184890000Y-105097936D01*
X187610000Y-107902064D02*
X187610000Y-105097936D01*
X169360000Y-107902064D02*
X169360000Y-105097936D01*
X166640000Y-107902064D02*
X166640000Y-105097936D01*
X187890000Y-107902064D02*
X187890000Y-105097936D01*
X190610000Y-107902064D02*
X190610000Y-105097936D01*
X208640000Y-139237221D02*
X208640000Y-139562779D01*
X209660000Y-139237221D02*
X209660000Y-139562779D01*
X213500000Y-127000000D02*
X217400000Y-127000000D01*
X213500000Y-125000000D02*
X217400000Y-125000000D01*
X213500000Y-127000000D02*
X213500000Y-125000000D01*
X213500000Y-120750000D02*
X213500000Y-118750000D01*
X213500000Y-118750000D02*
X217400000Y-118750000D01*
X213500000Y-120750000D02*
X217400000Y-120750000D01*
X210260000Y-124420000D02*
X210260000Y-125350000D01*
X210260000Y-127580000D02*
X210260000Y-126650000D01*
X210260000Y-127580000D02*
X208100000Y-127580000D01*
X210260000Y-124420000D02*
X208800000Y-124420000D01*
X210260000Y-120520000D02*
X208800000Y-120520000D01*
X210260000Y-123680000D02*
X208100000Y-123680000D01*
X210260000Y-123680000D02*
X210260000Y-122750000D01*
X210260000Y-120520000D02*
X210260000Y-121450000D01*
D10*
X215926190Y-103111904D02*
X216383333Y-103111904D01*
X216154761Y-103111904D02*
X216154761Y-102311904D01*
X216230952Y-102426190D01*
X216307142Y-102502380D01*
X216383333Y-102540476D01*
X215430952Y-102311904D02*
X215354761Y-102311904D01*
X215278571Y-102350000D01*
X215240476Y-102388095D01*
X215202380Y-102464285D01*
X215164285Y-102616666D01*
X215164285Y-102807142D01*
X215202380Y-102959523D01*
X215240476Y-103035714D01*
X215278571Y-103073809D01*
X215354761Y-103111904D01*
X215430952Y-103111904D01*
X215507142Y-103073809D01*
X215545238Y-103035714D01*
X215583333Y-102959523D01*
X215621428Y-102807142D01*
X215621428Y-102616666D01*
X215583333Y-102464285D01*
X215545238Y-102388095D01*
X215507142Y-102350000D01*
X215430952Y-102311904D01*
X214821428Y-103111904D02*
X214821428Y-102311904D01*
X214745238Y-102807142D02*
X214516666Y-103111904D01*
X214516666Y-102578571D02*
X214821428Y-102883333D01*
X197911904Y-138054761D02*
X197911904Y-137597619D01*
X197911904Y-137826190D02*
X197111904Y-137826190D01*
X197226190Y-137750000D01*
X197302380Y-137673809D01*
X197340476Y-137597619D01*
X197911904Y-138397619D02*
X197111904Y-138397619D01*
X197607142Y-138473809D02*
X197911904Y-138702380D01*
X197378571Y-138702380D02*
X197683333Y-138397619D01*
X157328571Y-124719047D02*
X157861904Y-124719047D01*
X157023809Y-124528571D02*
X157595238Y-124338095D01*
X157595238Y-124833333D01*
X157785714Y-125138095D02*
X157823809Y-125176190D01*
X157861904Y-125138095D01*
X157823809Y-125100000D01*
X157785714Y-125138095D01*
X157861904Y-125138095D01*
X157061904Y-125442857D02*
X157061904Y-125976190D01*
X157861904Y-125633333D01*
X157328571Y-126623809D02*
X157861904Y-126623809D01*
X157328571Y-126280952D02*
X157747619Y-126280952D01*
X157823809Y-126319047D01*
X157861904Y-126395238D01*
X157861904Y-126509523D01*
X157823809Y-126585714D01*
X157785714Y-126623809D01*
X161830952Y-125028571D02*
X161830952Y-125561904D01*
X162021428Y-124723809D02*
X162211904Y-125295238D01*
X161716666Y-125295238D01*
X161411904Y-125485714D02*
X161373809Y-125523809D01*
X161411904Y-125561904D01*
X161450000Y-125523809D01*
X161411904Y-125485714D01*
X161411904Y-125561904D01*
X161107142Y-124761904D02*
X160573809Y-124761904D01*
X160916666Y-125561904D01*
X159926190Y-125028571D02*
X159926190Y-125561904D01*
X160269047Y-125028571D02*
X160269047Y-125447619D01*
X160230952Y-125523809D01*
X160154761Y-125561904D01*
X160040476Y-125561904D01*
X159964285Y-125523809D01*
X159926190Y-125485714D01*
X165311904Y-127221428D02*
X165311904Y-127145238D01*
X165350000Y-127069047D01*
X165388095Y-127030952D01*
X165464285Y-126992857D01*
X165616666Y-126954761D01*
X165807142Y-126954761D01*
X165959523Y-126992857D01*
X166035714Y-127030952D01*
X166073809Y-127069047D01*
X166111904Y-127145238D01*
X166111904Y-127221428D01*
X166073809Y-127297619D01*
X166035714Y-127335714D01*
X165959523Y-127373809D01*
X165807142Y-127411904D01*
X165616666Y-127411904D01*
X165464285Y-127373809D01*
X165388095Y-127335714D01*
X165350000Y-127297619D01*
X165311904Y-127221428D01*
X166035714Y-126611904D02*
X166073809Y-126573809D01*
X166111904Y-126611904D01*
X166073809Y-126650000D01*
X166035714Y-126611904D01*
X166111904Y-126611904D01*
X166111904Y-125811904D02*
X166111904Y-126269047D01*
X166111904Y-126040476D02*
X165311904Y-126040476D01*
X165426190Y-126116666D01*
X165502380Y-126192857D01*
X165540476Y-126269047D01*
X165578571Y-125126190D02*
X166111904Y-125126190D01*
X165578571Y-125469047D02*
X165997619Y-125469047D01*
X166073809Y-125430952D01*
X166111904Y-125354761D01*
X166111904Y-125240476D01*
X166073809Y-125164285D01*
X166035714Y-125126190D01*
X151561904Y-125778571D02*
X151561904Y-125854761D01*
X151600000Y-125930952D01*
X151638095Y-125969047D01*
X151714285Y-126007142D01*
X151866666Y-126045238D01*
X152057142Y-126045238D01*
X152209523Y-126007142D01*
X152285714Y-125969047D01*
X152323809Y-125930952D01*
X152361904Y-125854761D01*
X152361904Y-125778571D01*
X152323809Y-125702380D01*
X152285714Y-125664285D01*
X152209523Y-125626190D01*
X152057142Y-125588095D01*
X151866666Y-125588095D01*
X151714285Y-125626190D01*
X151638095Y-125664285D01*
X151600000Y-125702380D01*
X151561904Y-125778571D01*
X152285714Y-126388095D02*
X152323809Y-126426190D01*
X152361904Y-126388095D01*
X152323809Y-126350000D01*
X152285714Y-126388095D01*
X152361904Y-126388095D01*
X152361904Y-127188095D02*
X152361904Y-126730952D01*
X152361904Y-126959523D02*
X151561904Y-126959523D01*
X151676190Y-126883333D01*
X151752380Y-126807142D01*
X151790476Y-126730952D01*
X151828571Y-127873809D02*
X152361904Y-127873809D01*
X151828571Y-127530952D02*
X152247619Y-127530952D01*
X152323809Y-127569047D01*
X152361904Y-127645238D01*
X152361904Y-127759523D01*
X152323809Y-127835714D01*
X152285714Y-127873809D01*
X151311904Y-114028571D02*
X151311904Y-114104761D01*
X151350000Y-114180952D01*
X151388095Y-114219047D01*
X151464285Y-114257142D01*
X151616666Y-114295238D01*
X151807142Y-114295238D01*
X151959523Y-114257142D01*
X152035714Y-114219047D01*
X152073809Y-114180952D01*
X152111904Y-114104761D01*
X152111904Y-114028571D01*
X152073809Y-113952380D01*
X152035714Y-113914285D01*
X151959523Y-113876190D01*
X151807142Y-113838095D01*
X151616666Y-113838095D01*
X151464285Y-113876190D01*
X151388095Y-113914285D01*
X151350000Y-113952380D01*
X151311904Y-114028571D01*
X152035714Y-114638095D02*
X152073809Y-114676190D01*
X152111904Y-114638095D01*
X152073809Y-114600000D01*
X152035714Y-114638095D01*
X152111904Y-114638095D01*
X152111904Y-115438095D02*
X152111904Y-114980952D01*
X152111904Y-115209523D02*
X151311904Y-115209523D01*
X151426190Y-115133333D01*
X151502380Y-115057142D01*
X151540476Y-114980952D01*
X151578571Y-116123809D02*
X152111904Y-116123809D01*
X151578571Y-115780952D02*
X151997619Y-115780952D01*
X152073809Y-115819047D01*
X152111904Y-115895238D01*
X152111904Y-116009523D01*
X152073809Y-116085714D01*
X152035714Y-116123809D01*
X207380952Y-112578571D02*
X207380952Y-113111904D01*
X207571428Y-112273809D02*
X207761904Y-112845238D01*
X207266666Y-112845238D01*
X206961904Y-113035714D02*
X206923809Y-113073809D01*
X206961904Y-113111904D01*
X207000000Y-113073809D01*
X206961904Y-113035714D01*
X206961904Y-113111904D01*
X206657142Y-112311904D02*
X206123809Y-112311904D01*
X206466666Y-113111904D01*
X205476190Y-112578571D02*
X205476190Y-113111904D01*
X205819047Y-112578571D02*
X205819047Y-112997619D01*
X205780952Y-113073809D01*
X205704761Y-113111904D01*
X205590476Y-113111904D01*
X205514285Y-113073809D01*
X205476190Y-113035714D01*
X201861904Y-122085714D02*
X201861904Y-121628571D01*
X201861904Y-121857142D02*
X201061904Y-121857142D01*
X201176190Y-121780952D01*
X201252380Y-121704761D01*
X201290476Y-121628571D01*
X201061904Y-122580952D02*
X201061904Y-122657142D01*
X201100000Y-122733333D01*
X201138095Y-122771428D01*
X201214285Y-122809523D01*
X201366666Y-122847619D01*
X201557142Y-122847619D01*
X201709523Y-122809523D01*
X201785714Y-122771428D01*
X201823809Y-122733333D01*
X201861904Y-122657142D01*
X201861904Y-122580952D01*
X201823809Y-122504761D01*
X201785714Y-122466666D01*
X201709523Y-122428571D01*
X201557142Y-122390476D01*
X201366666Y-122390476D01*
X201214285Y-122428571D01*
X201138095Y-122466666D01*
X201100000Y-122504761D01*
X201061904Y-122580952D01*
X201328571Y-123533333D02*
X201861904Y-123533333D01*
X201328571Y-123190476D02*
X201747619Y-123190476D01*
X201823809Y-123228571D01*
X201861904Y-123304761D01*
X201861904Y-123419047D01*
X201823809Y-123495238D01*
X201785714Y-123533333D01*
X212321428Y-92211904D02*
X212245238Y-92211904D01*
X212169047Y-92250000D01*
X212130952Y-92288095D01*
X212092857Y-92364285D01*
X212054761Y-92516666D01*
X212054761Y-92707142D01*
X212092857Y-92859523D01*
X212130952Y-92935714D01*
X212169047Y-92973809D01*
X212245238Y-93011904D01*
X212321428Y-93011904D01*
X212397619Y-92973809D01*
X212435714Y-92935714D01*
X212473809Y-92859523D01*
X212511904Y-92707142D01*
X212511904Y-92516666D01*
X212473809Y-92364285D01*
X212435714Y-92288095D01*
X212397619Y-92250000D01*
X212321428Y-92211904D01*
X211711904Y-92935714D02*
X211673809Y-92973809D01*
X211711904Y-93011904D01*
X211750000Y-92973809D01*
X211711904Y-92935714D01*
X211711904Y-93011904D01*
X210911904Y-93011904D02*
X211369047Y-93011904D01*
X211140476Y-93011904D02*
X211140476Y-92211904D01*
X211216666Y-92326190D01*
X211292857Y-92402380D01*
X211369047Y-92440476D01*
X210226190Y-92478571D02*
X210226190Y-93011904D01*
X210569047Y-92478571D02*
X210569047Y-92897619D01*
X210530952Y-92973809D01*
X210454761Y-93011904D01*
X210340476Y-93011904D01*
X210264285Y-92973809D01*
X210226190Y-92935714D01*
X209680952Y-84378571D02*
X209680952Y-84911904D01*
X209871428Y-84073809D02*
X210061904Y-84645238D01*
X209566666Y-84645238D01*
X209261904Y-84835714D02*
X209223809Y-84873809D01*
X209261904Y-84911904D01*
X209300000Y-84873809D01*
X209261904Y-84835714D01*
X209261904Y-84911904D01*
X208957142Y-84111904D02*
X208423809Y-84111904D01*
X208766666Y-84911904D01*
X207776190Y-84378571D02*
X207776190Y-84911904D01*
X208119047Y-84378571D02*
X208119047Y-84797619D01*
X208080952Y-84873809D01*
X208004761Y-84911904D01*
X207890476Y-84911904D01*
X207814285Y-84873809D01*
X207776190Y-84835714D01*
X209814285Y-97661904D02*
X210271428Y-97661904D01*
X210042857Y-97661904D02*
X210042857Y-96861904D01*
X210119047Y-96976190D01*
X210195238Y-97052380D01*
X210271428Y-97090476D01*
X209319047Y-96861904D02*
X209242857Y-96861904D01*
X209166666Y-96900000D01*
X209128571Y-96938095D01*
X209090476Y-97014285D01*
X209052380Y-97166666D01*
X209052380Y-97357142D01*
X209090476Y-97509523D01*
X209128571Y-97585714D01*
X209166666Y-97623809D01*
X209242857Y-97661904D01*
X209319047Y-97661904D01*
X209395238Y-97623809D01*
X209433333Y-97585714D01*
X209471428Y-97509523D01*
X209509523Y-97357142D01*
X209509523Y-97166666D01*
X209471428Y-97014285D01*
X209433333Y-96938095D01*
X209395238Y-96900000D01*
X209319047Y-96861904D01*
X208366666Y-97128571D02*
X208366666Y-97661904D01*
X208709523Y-97128571D02*
X208709523Y-97547619D01*
X208671428Y-97623809D01*
X208595238Y-97661904D01*
X208480952Y-97661904D01*
X208404761Y-97623809D01*
X208366666Y-97585714D01*
X209004761Y-130880952D02*
X209052380Y-131023809D01*
X209052380Y-131261904D01*
X209004761Y-131357142D01*
X208957142Y-131404761D01*
X208861904Y-131452380D01*
X208766666Y-131452380D01*
X208671428Y-131404761D01*
X208623809Y-131357142D01*
X208576190Y-131261904D01*
X208528571Y-131071428D01*
X208480952Y-130976190D01*
X208433333Y-130928571D01*
X208338095Y-130880952D01*
X208242857Y-130880952D01*
X208147619Y-130928571D01*
X208100000Y-130976190D01*
X208052380Y-131071428D01*
X208052380Y-131309523D01*
X208100000Y-131452380D01*
X208052380Y-131785714D02*
X209052380Y-132023809D01*
X208338095Y-132214285D01*
X209052380Y-132404761D01*
X208052380Y-132642857D01*
X209052380Y-133023809D02*
X208052380Y-133023809D01*
X208052380Y-133261904D01*
X208100000Y-133404761D01*
X208195238Y-133500000D01*
X208290476Y-133547619D01*
X208480952Y-133595238D01*
X208623809Y-133595238D01*
X208814285Y-133547619D01*
X208909523Y-133500000D01*
X209004761Y-133404761D01*
X209052380Y-133261904D01*
X209052380Y-133023809D01*
X209147619Y-133785714D02*
X209147619Y-134547619D01*
X208052380Y-135071428D02*
X208766666Y-135071428D01*
X208909523Y-135023809D01*
X209004761Y-134928571D01*
X209052380Y-134785714D01*
X209052380Y-134690476D01*
X209052380Y-135547619D02*
X208052380Y-135547619D01*
X208052380Y-135928571D01*
X208100000Y-136023809D01*
X208147619Y-136071428D01*
X208242857Y-136119047D01*
X208385714Y-136119047D01*
X208480952Y-136071428D01*
X208528571Y-136023809D01*
X208576190Y-135928571D01*
X208576190Y-135547619D01*
X169845238Y-77547619D02*
X169940476Y-77500000D01*
X170035714Y-77404761D01*
X170178571Y-77261904D01*
X170273809Y-77214285D01*
X170369047Y-77214285D01*
X170321428Y-77452380D02*
X170416666Y-77404761D01*
X170511904Y-77309523D01*
X170559523Y-77119047D01*
X170559523Y-76785714D01*
X170511904Y-76595238D01*
X170416666Y-76500000D01*
X170321428Y-76452380D01*
X170130952Y-76452380D01*
X170035714Y-76500000D01*
X169940476Y-76595238D01*
X169892857Y-76785714D01*
X169892857Y-77119047D01*
X169940476Y-77309523D01*
X170035714Y-77404761D01*
X170130952Y-77452380D01*
X170321428Y-77452380D01*
X168940476Y-77452380D02*
X169511904Y-77452380D01*
X169226190Y-77452380D02*
X169226190Y-76452380D01*
X169321428Y-76595238D01*
X169416666Y-76690476D01*
X169511904Y-76738095D01*
X167595238Y-97047619D02*
X167690476Y-97000000D01*
X167785714Y-96904761D01*
X167928571Y-96761904D01*
X168023809Y-96714285D01*
X168119047Y-96714285D01*
X168071428Y-96952380D02*
X168166666Y-96904761D01*
X168261904Y-96809523D01*
X168309523Y-96619047D01*
X168309523Y-96285714D01*
X168261904Y-96095238D01*
X168166666Y-96000000D01*
X168071428Y-95952380D01*
X167880952Y-95952380D01*
X167785714Y-96000000D01*
X167690476Y-96095238D01*
X167642857Y-96285714D01*
X167642857Y-96619047D01*
X167690476Y-96809523D01*
X167785714Y-96904761D01*
X167880952Y-96952380D01*
X168071428Y-96952380D01*
X167261904Y-96047619D02*
X167214285Y-96000000D01*
X167119047Y-95952380D01*
X166880952Y-95952380D01*
X166785714Y-96000000D01*
X166738095Y-96047619D01*
X166690476Y-96142857D01*
X166690476Y-96238095D01*
X166738095Y-96380952D01*
X167309523Y-96952380D01*
X166690476Y-96952380D01*
X180095238Y-77547619D02*
X180190476Y-77500000D01*
X180285714Y-77404761D01*
X180428571Y-77261904D01*
X180523809Y-77214285D01*
X180619047Y-77214285D01*
X180571428Y-77452380D02*
X180666666Y-77404761D01*
X180761904Y-77309523D01*
X180809523Y-77119047D01*
X180809523Y-76785714D01*
X180761904Y-76595238D01*
X180666666Y-76500000D01*
X180571428Y-76452380D01*
X180380952Y-76452380D01*
X180285714Y-76500000D01*
X180190476Y-76595238D01*
X180142857Y-76785714D01*
X180142857Y-77119047D01*
X180190476Y-77309523D01*
X180285714Y-77404761D01*
X180380952Y-77452380D01*
X180571428Y-77452380D01*
X179809523Y-76452380D02*
X179190476Y-76452380D01*
X179523809Y-76833333D01*
X179380952Y-76833333D01*
X179285714Y-76880952D01*
X179238095Y-76928571D01*
X179190476Y-77023809D01*
X179190476Y-77261904D01*
X179238095Y-77357142D01*
X179285714Y-77404761D01*
X179380952Y-77452380D01*
X179666666Y-77452380D01*
X179761904Y-77404761D01*
X179809523Y-77357142D01*
X178095238Y-97047619D02*
X178190476Y-97000000D01*
X178285714Y-96904761D01*
X178428571Y-96761904D01*
X178523809Y-96714285D01*
X178619047Y-96714285D01*
X178571428Y-96952380D02*
X178666666Y-96904761D01*
X178761904Y-96809523D01*
X178809523Y-96619047D01*
X178809523Y-96285714D01*
X178761904Y-96095238D01*
X178666666Y-96000000D01*
X178571428Y-95952380D01*
X178380952Y-95952380D01*
X178285714Y-96000000D01*
X178190476Y-96095238D01*
X178142857Y-96285714D01*
X178142857Y-96619047D01*
X178190476Y-96809523D01*
X178285714Y-96904761D01*
X178380952Y-96952380D01*
X178571428Y-96952380D01*
X177285714Y-96285714D02*
X177285714Y-96952380D01*
X177523809Y-95904761D02*
X177761904Y-96619047D01*
X177142857Y-96619047D01*
X190845238Y-77547619D02*
X190940476Y-77500000D01*
X191035714Y-77404761D01*
X191178571Y-77261904D01*
X191273809Y-77214285D01*
X191369047Y-77214285D01*
X191321428Y-77452380D02*
X191416666Y-77404761D01*
X191511904Y-77309523D01*
X191559523Y-77119047D01*
X191559523Y-76785714D01*
X191511904Y-76595238D01*
X191416666Y-76500000D01*
X191321428Y-76452380D01*
X191130952Y-76452380D01*
X191035714Y-76500000D01*
X190940476Y-76595238D01*
X190892857Y-76785714D01*
X190892857Y-77119047D01*
X190940476Y-77309523D01*
X191035714Y-77404761D01*
X191130952Y-77452380D01*
X191321428Y-77452380D01*
X189988095Y-76452380D02*
X190464285Y-76452380D01*
X190511904Y-76928571D01*
X190464285Y-76880952D01*
X190369047Y-76833333D01*
X190130952Y-76833333D01*
X190035714Y-76880952D01*
X189988095Y-76928571D01*
X189940476Y-77023809D01*
X189940476Y-77261904D01*
X189988095Y-77357142D01*
X190035714Y-77404761D01*
X190130952Y-77452380D01*
X190369047Y-77452380D01*
X190464285Y-77404761D01*
X190511904Y-77357142D01*
X188845238Y-97047619D02*
X188940476Y-97000000D01*
X189035714Y-96904761D01*
X189178571Y-96761904D01*
X189273809Y-96714285D01*
X189369047Y-96714285D01*
X189321428Y-96952380D02*
X189416666Y-96904761D01*
X189511904Y-96809523D01*
X189559523Y-96619047D01*
X189559523Y-96285714D01*
X189511904Y-96095238D01*
X189416666Y-96000000D01*
X189321428Y-95952380D01*
X189130952Y-95952380D01*
X189035714Y-96000000D01*
X188940476Y-96095238D01*
X188892857Y-96285714D01*
X188892857Y-96619047D01*
X188940476Y-96809523D01*
X189035714Y-96904761D01*
X189130952Y-96952380D01*
X189321428Y-96952380D01*
X188035714Y-95952380D02*
X188226190Y-95952380D01*
X188321428Y-96000000D01*
X188369047Y-96047619D01*
X188464285Y-96190476D01*
X188511904Y-96380952D01*
X188511904Y-96761904D01*
X188464285Y-96857142D01*
X188416666Y-96904761D01*
X188321428Y-96952380D01*
X188130952Y-96952380D01*
X188035714Y-96904761D01*
X187988095Y-96857142D01*
X187940476Y-96761904D01*
X187940476Y-96523809D01*
X187988095Y-96428571D01*
X188035714Y-96380952D01*
X188130952Y-96333333D01*
X188321428Y-96333333D01*
X188416666Y-96380952D01*
X188464285Y-96428571D01*
X188511904Y-96523809D01*
X201095238Y-77547619D02*
X201190476Y-77500000D01*
X201285714Y-77404761D01*
X201428571Y-77261904D01*
X201523809Y-77214285D01*
X201619047Y-77214285D01*
X201571428Y-77452380D02*
X201666666Y-77404761D01*
X201761904Y-77309523D01*
X201809523Y-77119047D01*
X201809523Y-76785714D01*
X201761904Y-76595238D01*
X201666666Y-76500000D01*
X201571428Y-76452380D01*
X201380952Y-76452380D01*
X201285714Y-76500000D01*
X201190476Y-76595238D01*
X201142857Y-76785714D01*
X201142857Y-77119047D01*
X201190476Y-77309523D01*
X201285714Y-77404761D01*
X201380952Y-77452380D01*
X201571428Y-77452380D01*
X200809523Y-76452380D02*
X200142857Y-76452380D01*
X200571428Y-77452380D01*
X199345238Y-97047619D02*
X199440476Y-97000000D01*
X199535714Y-96904761D01*
X199678571Y-96761904D01*
X199773809Y-96714285D01*
X199869047Y-96714285D01*
X199821428Y-96952380D02*
X199916666Y-96904761D01*
X200011904Y-96809523D01*
X200059523Y-96619047D01*
X200059523Y-96285714D01*
X200011904Y-96095238D01*
X199916666Y-96000000D01*
X199821428Y-95952380D01*
X199630952Y-95952380D01*
X199535714Y-96000000D01*
X199440476Y-96095238D01*
X199392857Y-96285714D01*
X199392857Y-96619047D01*
X199440476Y-96809523D01*
X199535714Y-96904761D01*
X199630952Y-96952380D01*
X199821428Y-96952380D01*
X198821428Y-96380952D02*
X198916666Y-96333333D01*
X198964285Y-96285714D01*
X199011904Y-96190476D01*
X199011904Y-96142857D01*
X198964285Y-96047619D01*
X198916666Y-96000000D01*
X198821428Y-95952380D01*
X198630952Y-95952380D01*
X198535714Y-96000000D01*
X198488095Y-96047619D01*
X198440476Y-96142857D01*
X198440476Y-96190476D01*
X198488095Y-96285714D01*
X198535714Y-96333333D01*
X198630952Y-96380952D01*
X198821428Y-96380952D01*
X198916666Y-96428571D01*
X198964285Y-96476190D01*
X199011904Y-96571428D01*
X199011904Y-96761904D01*
X198964285Y-96857142D01*
X198916666Y-96904761D01*
X198821428Y-96952380D01*
X198630952Y-96952380D01*
X198535714Y-96904761D01*
X198488095Y-96857142D01*
X198440476Y-96761904D01*
X198440476Y-96571428D01*
X198488095Y-96476190D01*
X198535714Y-96428571D01*
X198630952Y-96380952D01*
X215926190Y-106861904D02*
X216383333Y-106861904D01*
X216154761Y-106861904D02*
X216154761Y-106061904D01*
X216230952Y-106176190D01*
X216307142Y-106252380D01*
X216383333Y-106290476D01*
X215430952Y-106061904D02*
X215354761Y-106061904D01*
X215278571Y-106100000D01*
X215240476Y-106138095D01*
X215202380Y-106214285D01*
X215164285Y-106366666D01*
X215164285Y-106557142D01*
X215202380Y-106709523D01*
X215240476Y-106785714D01*
X215278571Y-106823809D01*
X215354761Y-106861904D01*
X215430952Y-106861904D01*
X215507142Y-106823809D01*
X215545238Y-106785714D01*
X215583333Y-106709523D01*
X215621428Y-106557142D01*
X215621428Y-106366666D01*
X215583333Y-106214285D01*
X215545238Y-106138095D01*
X215507142Y-106100000D01*
X215430952Y-106061904D01*
X214821428Y-106861904D02*
X214821428Y-106061904D01*
X214745238Y-106557142D02*
X214516666Y-106861904D01*
X214516666Y-106328571D02*
X214821428Y-106633333D01*
X179227868Y-121310389D02*
X179551117Y-121633638D01*
X179389492Y-121472014D02*
X179955178Y-120906328D01*
X179928240Y-121041015D01*
X179928240Y-121148765D01*
X179955178Y-121229577D01*
X179443367Y-120394518D02*
X179389492Y-120340643D01*
X179308680Y-120313705D01*
X179254805Y-120313705D01*
X179173993Y-120340643D01*
X179039306Y-120421455D01*
X178904619Y-120556142D01*
X178823807Y-120690829D01*
X178796869Y-120771641D01*
X178796869Y-120825516D01*
X178823807Y-120906328D01*
X178877681Y-120960203D01*
X178958494Y-120987141D01*
X179012368Y-120987141D01*
X179093181Y-120960203D01*
X179227868Y-120879391D01*
X179362555Y-120744704D01*
X179443367Y-120610017D01*
X179470304Y-120529205D01*
X179470304Y-120475330D01*
X179443367Y-120394518D01*
X178446683Y-120529205D02*
X179012368Y-119963519D01*
X178608307Y-120259831D02*
X178231184Y-120313705D01*
X178608307Y-119936582D02*
X178608307Y-120367580D01*
X152382380Y-133583333D02*
X152382380Y-133011904D01*
X152382380Y-133297619D02*
X151382380Y-133297619D01*
X151525238Y-133202380D01*
X151620476Y-133107142D01*
X151668095Y-133011904D01*
X151477619Y-133964285D02*
X151430000Y-134011904D01*
X151382380Y-134107142D01*
X151382380Y-134345238D01*
X151430000Y-134440476D01*
X151477619Y-134488095D01*
X151572857Y-134535714D01*
X151668095Y-134535714D01*
X151810952Y-134488095D01*
X152382380Y-133916666D01*
X152382380Y-134535714D01*
X151382380Y-135154761D02*
X151382380Y-135250000D01*
X151430000Y-135345238D01*
X151477619Y-135392857D01*
X151572857Y-135440476D01*
X151763333Y-135488095D01*
X152001428Y-135488095D01*
X152191904Y-135440476D01*
X152287142Y-135392857D01*
X152334761Y-135345238D01*
X152382380Y-135250000D01*
X152382380Y-135154761D01*
X152334761Y-135059523D01*
X152287142Y-135011904D01*
X152191904Y-134964285D01*
X152001428Y-134916666D01*
X151763333Y-134916666D01*
X151572857Y-134964285D01*
X151477619Y-135011904D01*
X151430000Y-135059523D01*
X151382380Y-135154761D01*
X200761904Y-113540476D02*
X200761904Y-113388095D01*
X200800000Y-113311904D01*
X200838095Y-113273809D01*
X200952380Y-113197619D01*
X201104761Y-113159523D01*
X201409523Y-113159523D01*
X201485714Y-113197619D01*
X201523809Y-113235714D01*
X201561904Y-113311904D01*
X201561904Y-113464285D01*
X201523809Y-113540476D01*
X201485714Y-113578571D01*
X201409523Y-113616666D01*
X201219047Y-113616666D01*
X201142857Y-113578571D01*
X201104761Y-113540476D01*
X201066666Y-113464285D01*
X201066666Y-113311904D01*
X201104761Y-113235714D01*
X201142857Y-113197619D01*
X201219047Y-113159523D01*
X201104761Y-114073809D02*
X201066666Y-113997619D01*
X201028571Y-113959523D01*
X200952380Y-113921428D01*
X200914285Y-113921428D01*
X200838095Y-113959523D01*
X200800000Y-113997619D01*
X200761904Y-114073809D01*
X200761904Y-114226190D01*
X200800000Y-114302380D01*
X200838095Y-114340476D01*
X200914285Y-114378571D01*
X200952380Y-114378571D01*
X201028571Y-114340476D01*
X201066666Y-114302380D01*
X201104761Y-114226190D01*
X201104761Y-114073809D01*
X201142857Y-113997619D01*
X201180952Y-113959523D01*
X201257142Y-113921428D01*
X201409523Y-113921428D01*
X201485714Y-113959523D01*
X201523809Y-113997619D01*
X201561904Y-114073809D01*
X201561904Y-114226190D01*
X201523809Y-114302380D01*
X201485714Y-114340476D01*
X201409523Y-114378571D01*
X201257142Y-114378571D01*
X201180952Y-114340476D01*
X201142857Y-114302380D01*
X201104761Y-114226190D01*
X200761904Y-114873809D02*
X200761904Y-114950000D01*
X200800000Y-115026190D01*
X200838095Y-115064285D01*
X200914285Y-115102380D01*
X201066666Y-115140476D01*
X201257142Y-115140476D01*
X201409523Y-115102380D01*
X201485714Y-115064285D01*
X201523809Y-115026190D01*
X201561904Y-114950000D01*
X201561904Y-114873809D01*
X201523809Y-114797619D01*
X201485714Y-114759523D01*
X201409523Y-114721428D01*
X201257142Y-114683333D01*
X201066666Y-114683333D01*
X200914285Y-114721428D01*
X200838095Y-114759523D01*
X200800000Y-114797619D01*
X200761904Y-114873809D01*
X184887659Y-121099468D02*
X185210908Y-121422717D01*
X185049283Y-121261093D02*
X185614969Y-120695407D01*
X185588031Y-120830094D01*
X185588031Y-120937844D01*
X185614969Y-121018656D01*
X185103158Y-120183597D02*
X185049283Y-120129722D01*
X184968471Y-120102784D01*
X184914596Y-120102784D01*
X184833784Y-120129722D01*
X184699097Y-120210534D01*
X184564410Y-120345221D01*
X184483598Y-120479908D01*
X184456660Y-120560720D01*
X184456660Y-120614595D01*
X184483598Y-120695407D01*
X184537472Y-120749282D01*
X184618285Y-120776220D01*
X184672159Y-120776220D01*
X184752972Y-120749282D01*
X184887659Y-120668470D01*
X185022346Y-120533783D01*
X185103158Y-120399096D01*
X185130095Y-120318284D01*
X185130095Y-120264409D01*
X185103158Y-120183597D01*
X184106474Y-120318284D02*
X184672159Y-119752598D01*
X184268098Y-120048910D02*
X183890975Y-120102784D01*
X184268098Y-119725661D02*
X184268098Y-120156659D01*
X212461904Y-93661904D02*
X211928571Y-93661904D01*
X212271428Y-94461904D01*
X211623809Y-94385714D02*
X211585714Y-94423809D01*
X211623809Y-94461904D01*
X211661904Y-94423809D01*
X211623809Y-94385714D01*
X211623809Y-94461904D01*
X210861904Y-93661904D02*
X211242857Y-93661904D01*
X211280952Y-94042857D01*
X211242857Y-94004761D01*
X211166666Y-93966666D01*
X210976190Y-93966666D01*
X210900000Y-94004761D01*
X210861904Y-94042857D01*
X210823809Y-94119047D01*
X210823809Y-94309523D01*
X210861904Y-94385714D01*
X210900000Y-94423809D01*
X210976190Y-94461904D01*
X211166666Y-94461904D01*
X211242857Y-94423809D01*
X211280952Y-94385714D01*
X210480952Y-94461904D02*
X210480952Y-93661904D01*
X210404761Y-94157142D02*
X210176190Y-94461904D01*
X210176190Y-93928571D02*
X210480952Y-94233333D01*
X211771428Y-90811904D02*
X212152380Y-90811904D01*
X212190476Y-91192857D01*
X212152380Y-91154761D01*
X212076190Y-91116666D01*
X211885714Y-91116666D01*
X211809523Y-91154761D01*
X211771428Y-91192857D01*
X211733333Y-91269047D01*
X211733333Y-91459523D01*
X211771428Y-91535714D01*
X211809523Y-91573809D01*
X211885714Y-91611904D01*
X212076190Y-91611904D01*
X212152380Y-91573809D01*
X212190476Y-91535714D01*
X210971428Y-91611904D02*
X211428571Y-91611904D01*
X211200000Y-91611904D02*
X211200000Y-90811904D01*
X211276190Y-90926190D01*
X211352380Y-91002380D01*
X211428571Y-91040476D01*
X210476190Y-90811904D02*
X210400000Y-90811904D01*
X210323809Y-90850000D01*
X210285714Y-90888095D01*
X210247619Y-90964285D01*
X210209523Y-91116666D01*
X210209523Y-91307142D01*
X210247619Y-91459523D01*
X210285714Y-91535714D01*
X210323809Y-91573809D01*
X210400000Y-91611904D01*
X210476190Y-91611904D01*
X210552380Y-91573809D01*
X210590476Y-91535714D01*
X210628571Y-91459523D01*
X210666666Y-91307142D01*
X210666666Y-91116666D01*
X210628571Y-90964285D01*
X210590476Y-90888095D01*
X210552380Y-90850000D01*
X210476190Y-90811904D01*
X172811904Y-99983333D02*
X172811904Y-100478571D01*
X173116666Y-100211904D01*
X173116666Y-100326190D01*
X173154761Y-100402380D01*
X173192857Y-100440476D01*
X173269047Y-100478571D01*
X173459523Y-100478571D01*
X173535714Y-100440476D01*
X173573809Y-100402380D01*
X173611904Y-100326190D01*
X173611904Y-100097619D01*
X173573809Y-100021428D01*
X173535714Y-99983333D01*
X183311904Y-99983333D02*
X183311904Y-100478571D01*
X183616666Y-100211904D01*
X183616666Y-100326190D01*
X183654761Y-100402380D01*
X183692857Y-100440476D01*
X183769047Y-100478571D01*
X183959523Y-100478571D01*
X184035714Y-100440476D01*
X184073809Y-100402380D01*
X184111904Y-100326190D01*
X184111904Y-100097619D01*
X184073809Y-100021428D01*
X184035714Y-99983333D01*
X194061904Y-99983333D02*
X194061904Y-100478571D01*
X194366666Y-100211904D01*
X194366666Y-100326190D01*
X194404761Y-100402380D01*
X194442857Y-100440476D01*
X194519047Y-100478571D01*
X194709523Y-100478571D01*
X194785714Y-100440476D01*
X194823809Y-100402380D01*
X194861904Y-100326190D01*
X194861904Y-100097619D01*
X194823809Y-100021428D01*
X194785714Y-99983333D01*
X204561904Y-99983333D02*
X204561904Y-100478571D01*
X204866666Y-100211904D01*
X204866666Y-100326190D01*
X204904761Y-100402380D01*
X204942857Y-100440476D01*
X205019047Y-100478571D01*
X205209523Y-100478571D01*
X205285714Y-100440476D01*
X205323809Y-100402380D01*
X205361904Y-100326190D01*
X205361904Y-100097619D01*
X205323809Y-100021428D01*
X205285714Y-99983333D01*
X163492857Y-118078571D02*
X163530952Y-118192857D01*
X163569047Y-118230952D01*
X163645238Y-118269047D01*
X163759523Y-118269047D01*
X163835714Y-118230952D01*
X163873809Y-118192857D01*
X163911904Y-118116666D01*
X163911904Y-117811904D01*
X163111904Y-117811904D01*
X163111904Y-118078571D01*
X163150000Y-118154761D01*
X163188095Y-118192857D01*
X163264285Y-118230952D01*
X163340476Y-118230952D01*
X163416666Y-118192857D01*
X163454761Y-118154761D01*
X163492857Y-118078571D01*
X163492857Y-117811904D01*
X163911904Y-118611904D02*
X163111904Y-118611904D01*
X163111904Y-118802380D01*
X163150000Y-118916666D01*
X163226190Y-118992857D01*
X163302380Y-119030952D01*
X163454761Y-119069047D01*
X163569047Y-119069047D01*
X163721428Y-119030952D01*
X163797619Y-118992857D01*
X163873809Y-118916666D01*
X163911904Y-118802380D01*
X163911904Y-118611904D01*
X163111904Y-119335714D02*
X163111904Y-119830952D01*
X163416666Y-119564285D01*
X163416666Y-119678571D01*
X163454761Y-119754761D01*
X163492857Y-119792857D01*
X163569047Y-119830952D01*
X163759523Y-119830952D01*
X163835714Y-119792857D01*
X163873809Y-119754761D01*
X163911904Y-119678571D01*
X163911904Y-119450000D01*
X163873809Y-119373809D01*
X163835714Y-119335714D01*
X163111904Y-120097619D02*
X163111904Y-120592857D01*
X163416666Y-120326190D01*
X163416666Y-120440476D01*
X163454761Y-120516666D01*
X163492857Y-120554761D01*
X163569047Y-120592857D01*
X163759523Y-120592857D01*
X163835714Y-120554761D01*
X163873809Y-120516666D01*
X163911904Y-120440476D01*
X163911904Y-120211904D01*
X163873809Y-120135714D01*
X163835714Y-120097619D01*
X163492857Y-121202380D02*
X163492857Y-120935714D01*
X163911904Y-120935714D02*
X163111904Y-120935714D01*
X163111904Y-121316666D01*
X163683333Y-121583333D02*
X163683333Y-121964285D01*
X163911904Y-121507142D02*
X163111904Y-121773809D01*
X163911904Y-122040476D01*
X163911904Y-122726190D02*
X163911904Y-122269047D01*
X163911904Y-122497619D02*
X163111904Y-122497619D01*
X163226190Y-122421428D01*
X163302380Y-122345238D01*
X163340476Y-122269047D01*
X200117858Y-126066666D02*
X199641667Y-126066666D01*
X200213096Y-126352380D02*
X199879762Y-125352380D01*
X199546429Y-126352380D01*
X199308334Y-125352380D02*
X198641667Y-125352380D01*
X199308334Y-126352380D01*
X198641667Y-126352380D01*
X197736905Y-126352380D02*
X198308334Y-126352380D01*
X198022620Y-126352380D02*
X198022620Y-125352380D01*
X198117858Y-125495238D01*
X198213096Y-125590476D01*
X198308334Y-125638095D01*
X197117858Y-125352380D02*
X197022620Y-125352380D01*
X196927381Y-125400000D01*
X196879762Y-125447619D01*
X196832143Y-125542857D01*
X196784524Y-125733333D01*
X196784524Y-125971428D01*
X196832143Y-126161904D01*
X196879762Y-126257142D01*
X196927381Y-126304761D01*
X197022620Y-126352380D01*
X197117858Y-126352380D01*
X197213096Y-126304761D01*
X197260715Y-126257142D01*
X197308334Y-126161904D01*
X197355953Y-125971428D01*
X197355953Y-125733333D01*
X197308334Y-125542857D01*
X197260715Y-125447619D01*
X197213096Y-125400000D01*
X197117858Y-125352380D01*
X196213096Y-125780952D02*
X196308334Y-125733333D01*
X196355953Y-125685714D01*
X196403572Y-125590476D01*
X196403572Y-125542857D01*
X196355953Y-125447619D01*
X196308334Y-125400000D01*
X196213096Y-125352380D01*
X196022620Y-125352380D01*
X195927381Y-125400000D01*
X195879762Y-125447619D01*
X195832143Y-125542857D01*
X195832143Y-125590476D01*
X195879762Y-125685714D01*
X195927381Y-125733333D01*
X196022620Y-125780952D01*
X196213096Y-125780952D01*
X196308334Y-125828571D01*
X196355953Y-125876190D01*
X196403572Y-125971428D01*
X196403572Y-126161904D01*
X196355953Y-126257142D01*
X196308334Y-126304761D01*
X196213096Y-126352380D01*
X196022620Y-126352380D01*
X195927381Y-126304761D01*
X195879762Y-126257142D01*
X195832143Y-126161904D01*
X195832143Y-125971428D01*
X195879762Y-125876190D01*
X195927381Y-125828571D01*
X196022620Y-125780952D01*
X194975001Y-125352380D02*
X195165477Y-125352380D01*
X195260715Y-125400000D01*
X195308334Y-125447619D01*
X195403572Y-125590476D01*
X195451191Y-125780952D01*
X195451191Y-126161904D01*
X195403572Y-126257142D01*
X195355953Y-126304761D01*
X195260715Y-126352380D01*
X195070239Y-126352380D01*
X194975001Y-126304761D01*
X194927381Y-126257142D01*
X194879762Y-126161904D01*
X194879762Y-125923809D01*
X194927381Y-125828571D01*
X194975001Y-125780952D01*
X195070239Y-125733333D01*
X195260715Y-125733333D01*
X195355953Y-125780952D01*
X195403572Y-125828571D01*
X195451191Y-125923809D01*
X194451191Y-126352380D02*
X194451191Y-125352380D01*
X194451191Y-125828571D02*
X193879762Y-125828571D01*
X193879762Y-126352380D02*
X193879762Y-125352380D01*
X205042857Y-109383333D02*
X205080952Y-109497619D01*
X205119047Y-109535714D01*
X205195238Y-109573809D01*
X205309523Y-109573809D01*
X205385714Y-109535714D01*
X205423809Y-109497619D01*
X205461904Y-109421428D01*
X205461904Y-109116666D01*
X204661904Y-109116666D01*
X204661904Y-109383333D01*
X204700000Y-109459523D01*
X204738095Y-109497619D01*
X204814285Y-109535714D01*
X204890476Y-109535714D01*
X204966666Y-109497619D01*
X205004761Y-109459523D01*
X205042857Y-109383333D01*
X205042857Y-109116666D01*
X205461904Y-109916666D02*
X204661904Y-109916666D01*
X204661904Y-110107142D01*
X204700000Y-110221428D01*
X204776190Y-110297619D01*
X204852380Y-110335714D01*
X205004761Y-110373809D01*
X205119047Y-110373809D01*
X205271428Y-110335714D01*
X205347619Y-110297619D01*
X205423809Y-110221428D01*
X205461904Y-110107142D01*
X205461904Y-109916666D01*
X205461904Y-110754761D02*
X205461904Y-110907142D01*
X205423809Y-110983333D01*
X205385714Y-111021428D01*
X205271428Y-111097619D01*
X205119047Y-111135714D01*
X204814285Y-111135714D01*
X204738095Y-111097619D01*
X204700000Y-111059523D01*
X204661904Y-110983333D01*
X204661904Y-110830952D01*
X204700000Y-110754761D01*
X204738095Y-110716666D01*
X204814285Y-110678571D01*
X205004761Y-110678571D01*
X205080952Y-110716666D01*
X205119047Y-110754761D01*
X205157142Y-110830952D01*
X205157142Y-110983333D01*
X205119047Y-111059523D01*
X205080952Y-111097619D01*
X205004761Y-111135714D01*
X204700000Y-111897619D02*
X204661904Y-111821428D01*
X204661904Y-111707142D01*
X204700000Y-111592857D01*
X204776190Y-111516666D01*
X204852380Y-111478571D01*
X205004761Y-111440476D01*
X205119047Y-111440476D01*
X205271428Y-111478571D01*
X205347619Y-111516666D01*
X205423809Y-111592857D01*
X205461904Y-111707142D01*
X205461904Y-111783333D01*
X205423809Y-111897619D01*
X205385714Y-111935714D01*
X205119047Y-111935714D01*
X205119047Y-111783333D01*
X205461904Y-112697619D02*
X205461904Y-112240476D01*
X205461904Y-112469047D02*
X204661904Y-112469047D01*
X204776190Y-112392857D01*
X204852380Y-112316666D01*
X204890476Y-112240476D01*
X204661904Y-113192857D02*
X204661904Y-113269047D01*
X204700000Y-113345238D01*
X204738095Y-113383333D01*
X204814285Y-113421428D01*
X204966666Y-113459523D01*
X205157142Y-113459523D01*
X205309523Y-113421428D01*
X205385714Y-113383333D01*
X205423809Y-113345238D01*
X205461904Y-113269047D01*
X205461904Y-113192857D01*
X205423809Y-113116666D01*
X205385714Y-113078571D01*
X205309523Y-113040476D01*
X205157142Y-113002380D01*
X204966666Y-113002380D01*
X204814285Y-113040476D01*
X204738095Y-113078571D01*
X204700000Y-113116666D01*
X204661904Y-113192857D01*
X205461904Y-114221428D02*
X205461904Y-113764285D01*
X205461904Y-113992857D02*
X204661904Y-113992857D01*
X204776190Y-113916666D01*
X204852380Y-113840476D01*
X204890476Y-113764285D01*
X204700000Y-114983333D02*
X204661904Y-114907142D01*
X204661904Y-114792857D01*
X204700000Y-114678571D01*
X204776190Y-114602380D01*
X204852380Y-114564285D01*
X205004761Y-114526190D01*
X205119047Y-114526190D01*
X205271428Y-114564285D01*
X205347619Y-114602380D01*
X205423809Y-114678571D01*
X205461904Y-114792857D01*
X205461904Y-114869047D01*
X205423809Y-114983333D01*
X205385714Y-115021428D01*
X205119047Y-115021428D01*
X205119047Y-114869047D01*
X206692857Y-86033333D02*
X206730952Y-86147619D01*
X206769047Y-86185714D01*
X206845238Y-86223809D01*
X206959523Y-86223809D01*
X207035714Y-86185714D01*
X207073809Y-86147619D01*
X207111904Y-86071428D01*
X207111904Y-85766666D01*
X206311904Y-85766666D01*
X206311904Y-86033333D01*
X206350000Y-86109523D01*
X206388095Y-86147619D01*
X206464285Y-86185714D01*
X206540476Y-86185714D01*
X206616666Y-86147619D01*
X206654761Y-86109523D01*
X206692857Y-86033333D01*
X206692857Y-85766666D01*
X207111904Y-86566666D02*
X206311904Y-86566666D01*
X206311904Y-86757142D01*
X206350000Y-86871428D01*
X206426190Y-86947619D01*
X206502380Y-86985714D01*
X206654761Y-87023809D01*
X206769047Y-87023809D01*
X206921428Y-86985714D01*
X206997619Y-86947619D01*
X207073809Y-86871428D01*
X207111904Y-86757142D01*
X207111904Y-86566666D01*
X207111904Y-87404761D02*
X207111904Y-87557142D01*
X207073809Y-87633333D01*
X207035714Y-87671428D01*
X206921428Y-87747619D01*
X206769047Y-87785714D01*
X206464285Y-87785714D01*
X206388095Y-87747619D01*
X206350000Y-87709523D01*
X206311904Y-87633333D01*
X206311904Y-87480952D01*
X206350000Y-87404761D01*
X206388095Y-87366666D01*
X206464285Y-87328571D01*
X206654761Y-87328571D01*
X206730952Y-87366666D01*
X206769047Y-87404761D01*
X206807142Y-87480952D01*
X206807142Y-87633333D01*
X206769047Y-87709523D01*
X206730952Y-87747619D01*
X206654761Y-87785714D01*
X206350000Y-88547619D02*
X206311904Y-88471428D01*
X206311904Y-88357142D01*
X206350000Y-88242857D01*
X206426190Y-88166666D01*
X206502380Y-88128571D01*
X206654761Y-88090476D01*
X206769047Y-88090476D01*
X206921428Y-88128571D01*
X206997619Y-88166666D01*
X207073809Y-88242857D01*
X207111904Y-88357142D01*
X207111904Y-88433333D01*
X207073809Y-88547619D01*
X207035714Y-88585714D01*
X206769047Y-88585714D01*
X206769047Y-88433333D01*
X207111904Y-89347619D02*
X207111904Y-88890476D01*
X207111904Y-89119047D02*
X206311904Y-89119047D01*
X206426190Y-89042857D01*
X206502380Y-88966666D01*
X206540476Y-88890476D01*
X206311904Y-89842857D02*
X206311904Y-89919047D01*
X206350000Y-89995238D01*
X206388095Y-90033333D01*
X206464285Y-90071428D01*
X206616666Y-90109523D01*
X206807142Y-90109523D01*
X206959523Y-90071428D01*
X207035714Y-90033333D01*
X207073809Y-89995238D01*
X207111904Y-89919047D01*
X207111904Y-89842857D01*
X207073809Y-89766666D01*
X207035714Y-89728571D01*
X206959523Y-89690476D01*
X206807142Y-89652380D01*
X206616666Y-89652380D01*
X206464285Y-89690476D01*
X206388095Y-89728571D01*
X206350000Y-89766666D01*
X206311904Y-89842857D01*
X207111904Y-90871428D02*
X207111904Y-90414285D01*
X207111904Y-90642857D02*
X206311904Y-90642857D01*
X206426190Y-90566666D01*
X206502380Y-90490476D01*
X206540476Y-90414285D01*
X206350000Y-91633333D02*
X206311904Y-91557142D01*
X206311904Y-91442857D01*
X206350000Y-91328571D01*
X206426190Y-91252380D01*
X206502380Y-91214285D01*
X206654761Y-91176190D01*
X206769047Y-91176190D01*
X206921428Y-91214285D01*
X206997619Y-91252380D01*
X207073809Y-91328571D01*
X207111904Y-91442857D01*
X207111904Y-91519047D01*
X207073809Y-91633333D01*
X207035714Y-91671428D01*
X206769047Y-91671428D01*
X206769047Y-91519047D01*
X152030952Y-101078571D02*
X152030952Y-101611904D01*
X152221428Y-100773809D02*
X152411904Y-101345238D01*
X151916666Y-101345238D01*
X151611904Y-101535714D02*
X151573809Y-101573809D01*
X151611904Y-101611904D01*
X151650000Y-101573809D01*
X151611904Y-101535714D01*
X151611904Y-101611904D01*
X151307142Y-100811904D02*
X150773809Y-100811904D01*
X151116666Y-101611904D01*
X150126190Y-101078571D02*
X150126190Y-101611904D01*
X150469047Y-101078571D02*
X150469047Y-101497619D01*
X150430952Y-101573809D01*
X150354761Y-101611904D01*
X150240476Y-101611904D01*
X150164285Y-101573809D01*
X150126190Y-101535714D01*
X154780952Y-84328571D02*
X154780952Y-84861904D01*
X154971428Y-84023809D02*
X155161904Y-84595238D01*
X154666666Y-84595238D01*
X154361904Y-84785714D02*
X154323809Y-84823809D01*
X154361904Y-84861904D01*
X154400000Y-84823809D01*
X154361904Y-84785714D01*
X154361904Y-84861904D01*
X154057142Y-84061904D02*
X153523809Y-84061904D01*
X153866666Y-84861904D01*
X152876190Y-84328571D02*
X152876190Y-84861904D01*
X153219047Y-84328571D02*
X153219047Y-84747619D01*
X153180952Y-84823809D01*
X153104761Y-84861904D01*
X152990476Y-84861904D01*
X152914285Y-84823809D01*
X152876190Y-84785714D01*
X165452380Y-107452380D02*
X165500000Y-107404761D01*
X165547619Y-107309523D01*
X165547619Y-107071428D01*
X165500000Y-106976190D01*
X165452380Y-106928571D01*
X165357142Y-106880952D01*
X165261904Y-106880952D01*
X165119047Y-106928571D01*
X164547619Y-107500000D01*
X164547619Y-106880952D01*
X164547619Y-106452380D02*
X165214285Y-106452380D01*
X165119047Y-106452380D02*
X165166666Y-106404761D01*
X165214285Y-106309523D01*
X165214285Y-106166666D01*
X165166666Y-106071428D01*
X165071428Y-106023809D01*
X164547619Y-106023809D01*
X165071428Y-106023809D02*
X165166666Y-105976190D01*
X165214285Y-105880952D01*
X165214285Y-105738095D01*
X165166666Y-105642857D01*
X165071428Y-105595238D01*
X164547619Y-105595238D01*
X186702380Y-107452380D02*
X186750000Y-107404761D01*
X186797619Y-107309523D01*
X186797619Y-107071428D01*
X186750000Y-106976190D01*
X186702380Y-106928571D01*
X186607142Y-106880952D01*
X186511904Y-106880952D01*
X186369047Y-106928571D01*
X185797619Y-107500000D01*
X185797619Y-106880952D01*
X185797619Y-106452380D02*
X186464285Y-106452380D01*
X186369047Y-106452380D02*
X186416666Y-106404761D01*
X186464285Y-106309523D01*
X186464285Y-106166666D01*
X186416666Y-106071428D01*
X186321428Y-106023809D01*
X185797619Y-106023809D01*
X186321428Y-106023809D02*
X186416666Y-105976190D01*
X186464285Y-105880952D01*
X186464285Y-105738095D01*
X186416666Y-105642857D01*
X186321428Y-105595238D01*
X185797619Y-105595238D01*
X168452380Y-107452380D02*
X168500000Y-107404761D01*
X168547619Y-107309523D01*
X168547619Y-107071428D01*
X168500000Y-106976190D01*
X168452380Y-106928571D01*
X168357142Y-106880952D01*
X168261904Y-106880952D01*
X168119047Y-106928571D01*
X167547619Y-107500000D01*
X167547619Y-106880952D01*
X167547619Y-106452380D02*
X168214285Y-106452380D01*
X168119047Y-106452380D02*
X168166666Y-106404761D01*
X168214285Y-106309523D01*
X168214285Y-106166666D01*
X168166666Y-106071428D01*
X168071428Y-106023809D01*
X167547619Y-106023809D01*
X168071428Y-106023809D02*
X168166666Y-105976190D01*
X168214285Y-105880952D01*
X168214285Y-105738095D01*
X168166666Y-105642857D01*
X168071428Y-105595238D01*
X167547619Y-105595238D01*
X189702380Y-107452380D02*
X189750000Y-107404761D01*
X189797619Y-107309523D01*
X189797619Y-107071428D01*
X189750000Y-106976190D01*
X189702380Y-106928571D01*
X189607142Y-106880952D01*
X189511904Y-106880952D01*
X189369047Y-106928571D01*
X188797619Y-107500000D01*
X188797619Y-106880952D01*
X188797619Y-106452380D02*
X189464285Y-106452380D01*
X189369047Y-106452380D02*
X189416666Y-106404761D01*
X189464285Y-106309523D01*
X189464285Y-106166666D01*
X189416666Y-106071428D01*
X189321428Y-106023809D01*
X188797619Y-106023809D01*
X189321428Y-106023809D02*
X189416666Y-105976190D01*
X189464285Y-105880952D01*
X189464285Y-105738095D01*
X189416666Y-105642857D01*
X189321428Y-105595238D01*
X188797619Y-105595238D01*
X210141904Y-138428571D02*
X210141904Y-138504761D01*
X210180000Y-138580952D01*
X210218095Y-138619047D01*
X210294285Y-138657142D01*
X210446666Y-138695238D01*
X210637142Y-138695238D01*
X210789523Y-138657142D01*
X210865714Y-138619047D01*
X210903809Y-138580952D01*
X210941904Y-138504761D01*
X210941904Y-138428571D01*
X210903809Y-138352380D01*
X210865714Y-138314285D01*
X210789523Y-138276190D01*
X210637142Y-138238095D01*
X210446666Y-138238095D01*
X210294285Y-138276190D01*
X210218095Y-138314285D01*
X210180000Y-138352380D01*
X210141904Y-138428571D01*
X210865714Y-139038095D02*
X210903809Y-139076190D01*
X210941904Y-139038095D01*
X210903809Y-139000000D01*
X210865714Y-139038095D01*
X210941904Y-139038095D01*
X210941904Y-139838095D02*
X210941904Y-139380952D01*
X210941904Y-139609523D02*
X210141904Y-139609523D01*
X210256190Y-139533333D01*
X210332380Y-139457142D01*
X210370476Y-139380952D01*
X210408571Y-140523809D02*
X210941904Y-140523809D01*
X210408571Y-140180952D02*
X210827619Y-140180952D01*
X210903809Y-140219047D01*
X210941904Y-140295238D01*
X210941904Y-140409523D01*
X210903809Y-140485714D01*
X210865714Y-140523809D01*
X207711904Y-124952380D02*
X206911904Y-124952380D01*
X207711904Y-125409523D01*
X206911904Y-125409523D01*
X207711904Y-125790476D02*
X206911904Y-125790476D01*
X206911904Y-126095238D01*
X206950000Y-126171428D01*
X206988095Y-126209523D01*
X207064285Y-126247619D01*
X207178571Y-126247619D01*
X207254761Y-126209523D01*
X207292857Y-126171428D01*
X207330952Y-126095238D01*
X207330952Y-125790476D01*
X207711904Y-126590476D02*
X206911904Y-126590476D01*
X207711904Y-127047619D01*
X206911904Y-127047619D01*
X207711904Y-121052380D02*
X206911904Y-121052380D01*
X207711904Y-121509523D01*
X206911904Y-121509523D01*
X207711904Y-121890476D02*
X206911904Y-121890476D01*
X206911904Y-122195238D01*
X206950000Y-122271428D01*
X206988095Y-122309523D01*
X207064285Y-122347619D01*
X207178571Y-122347619D01*
X207254761Y-122309523D01*
X207292857Y-122271428D01*
X207330952Y-122195238D01*
X207330952Y-121890476D01*
X207711904Y-122690476D02*
X206911904Y-122690476D01*
X207711904Y-123147619D01*
X206911904Y-123147619D01*
X196271428Y-138661904D02*
X196195238Y-138661904D01*
X196119047Y-138700000D01*
X196080952Y-138738095D01*
X196042857Y-138814285D01*
X196004761Y-138966666D01*
X196004761Y-139157142D01*
X196042857Y-139309523D01*
X196080952Y-139385714D01*
X196119047Y-139423809D01*
X196195238Y-139461904D01*
X196271428Y-139461904D01*
X196347619Y-139423809D01*
X196385714Y-139385714D01*
X196423809Y-139309523D01*
X196461904Y-139157142D01*
X196461904Y-138966666D01*
X196423809Y-138814285D01*
X196385714Y-138738095D01*
X196347619Y-138700000D01*
X196271428Y-138661904D01*
X195661904Y-139385714D02*
X195623809Y-139423809D01*
X195661904Y-139461904D01*
X195700000Y-139423809D01*
X195661904Y-139385714D01*
X195661904Y-139461904D01*
X194861904Y-139461904D02*
X195319047Y-139461904D01*
X195090476Y-139461904D02*
X195090476Y-138661904D01*
X195166666Y-138776190D01*
X195242857Y-138852380D01*
X195319047Y-138890476D01*
X194176190Y-138928571D02*
X194176190Y-139461904D01*
X194519047Y-138928571D02*
X194519047Y-139347619D01*
X194480952Y-139423809D01*
X194404761Y-139461904D01*
X194290476Y-139461904D01*
X194214285Y-139423809D01*
X194176190Y-139385714D01*
X183771428Y-138711904D02*
X183695238Y-138711904D01*
X183619047Y-138750000D01*
X183580952Y-138788095D01*
X183542857Y-138864285D01*
X183504761Y-139016666D01*
X183504761Y-139207142D01*
X183542857Y-139359523D01*
X183580952Y-139435714D01*
X183619047Y-139473809D01*
X183695238Y-139511904D01*
X183771428Y-139511904D01*
X183847619Y-139473809D01*
X183885714Y-139435714D01*
X183923809Y-139359523D01*
X183961904Y-139207142D01*
X183961904Y-139016666D01*
X183923809Y-138864285D01*
X183885714Y-138788095D01*
X183847619Y-138750000D01*
X183771428Y-138711904D01*
X183161904Y-139435714D02*
X183123809Y-139473809D01*
X183161904Y-139511904D01*
X183200000Y-139473809D01*
X183161904Y-139435714D01*
X183161904Y-139511904D01*
X182361904Y-139511904D02*
X182819047Y-139511904D01*
X182590476Y-139511904D02*
X182590476Y-138711904D01*
X182666666Y-138826190D01*
X182742857Y-138902380D01*
X182819047Y-138940476D01*
X181676190Y-138978571D02*
X181676190Y-139511904D01*
X182019047Y-138978571D02*
X182019047Y-139397619D01*
X181980952Y-139473809D01*
X181904761Y-139511904D01*
X181790476Y-139511904D01*
X181714285Y-139473809D01*
X181676190Y-139435714D01*
X181461904Y-129116666D02*
X181461904Y-128659523D01*
X181461904Y-128888095D02*
X180661904Y-128888095D01*
X180776190Y-128811904D01*
X180852380Y-128735714D01*
X180890476Y-128659523D01*
X180928571Y-129802380D02*
X181461904Y-129802380D01*
X180928571Y-129459523D02*
X181347619Y-129459523D01*
X181423809Y-129497619D01*
X181461904Y-129573809D01*
X181461904Y-129688095D01*
X181423809Y-129764285D01*
X181385714Y-129802380D01*
X184633333Y-129011904D02*
X185090476Y-129011904D01*
X184861904Y-129011904D02*
X184861904Y-128211904D01*
X184938095Y-128326190D01*
X185014285Y-128402380D01*
X185090476Y-128440476D01*
X183947619Y-128478571D02*
X183947619Y-129011904D01*
X184290476Y-128478571D02*
X184290476Y-128897619D01*
X184252380Y-128973809D01*
X184176190Y-129011904D01*
X184061904Y-129011904D01*
X183985714Y-128973809D01*
X183947619Y-128935714D01*
X188471428Y-128211904D02*
X188395238Y-128211904D01*
X188319047Y-128250000D01*
X188280952Y-128288095D01*
X188242857Y-128364285D01*
X188204761Y-128516666D01*
X188204761Y-128707142D01*
X188242857Y-128859523D01*
X188280952Y-128935714D01*
X188319047Y-128973809D01*
X188395238Y-129011904D01*
X188471428Y-129011904D01*
X188547619Y-128973809D01*
X188585714Y-128935714D01*
X188623809Y-128859523D01*
X188661904Y-128707142D01*
X188661904Y-128516666D01*
X188623809Y-128364285D01*
X188585714Y-128288095D01*
X188547619Y-128250000D01*
X188471428Y-128211904D01*
X187861904Y-128935714D02*
X187823809Y-128973809D01*
X187861904Y-129011904D01*
X187900000Y-128973809D01*
X187861904Y-128935714D01*
X187861904Y-129011904D01*
X187061904Y-129011904D02*
X187519047Y-129011904D01*
X187290476Y-129011904D02*
X187290476Y-128211904D01*
X187366666Y-128326190D01*
X187442857Y-128402380D01*
X187519047Y-128440476D01*
X186376190Y-128478571D02*
X186376190Y-129011904D01*
X186719047Y-128478571D02*
X186719047Y-128897619D01*
X186680952Y-128973809D01*
X186604761Y-129011904D01*
X186490476Y-129011904D01*
X186414285Y-128973809D01*
X186376190Y-128935714D01*
X177794280Y-125970472D02*
X177740406Y-126024347D01*
X177713468Y-126105159D01*
X177713468Y-126159034D01*
X177740406Y-126239846D01*
X177821218Y-126374533D01*
X177955905Y-126509220D01*
X178090592Y-126590032D01*
X178171404Y-126616970D01*
X178225279Y-126616970D01*
X178306091Y-126590032D01*
X178359966Y-126536157D01*
X178386903Y-126455345D01*
X178386903Y-126401470D01*
X178359966Y-126320658D01*
X178279154Y-126185971D01*
X178144467Y-126051284D01*
X178009780Y-125970472D01*
X177928967Y-125943535D01*
X177875093Y-125943535D01*
X177794280Y-125970472D01*
X177875093Y-126913281D02*
X177875093Y-126967156D01*
X177928967Y-126967156D01*
X177928967Y-126913281D01*
X177875093Y-126913281D01*
X177928967Y-126967156D01*
X177363282Y-127532841D02*
X177686531Y-127209592D01*
X177524906Y-127371217D02*
X176959221Y-126805531D01*
X177093908Y-126832469D01*
X177201658Y-126832469D01*
X177282470Y-126805531D01*
X176501285Y-127640591D02*
X176878409Y-128017714D01*
X176743722Y-127398154D02*
X177040033Y-127694466D01*
X177066971Y-127775278D01*
X177040033Y-127856090D01*
X176959221Y-127936902D01*
X176878409Y-127963840D01*
X176824534Y-127963840D01*
X184679526Y-122394280D02*
X184625651Y-122340406D01*
X184544839Y-122313468D01*
X184490964Y-122313468D01*
X184410152Y-122340406D01*
X184275465Y-122421218D01*
X184140778Y-122555905D01*
X184059966Y-122690592D01*
X184033028Y-122771404D01*
X184033028Y-122825279D01*
X184059966Y-122906091D01*
X184113841Y-122959966D01*
X184194653Y-122986903D01*
X184248528Y-122986903D01*
X184329340Y-122959966D01*
X184464027Y-122879154D01*
X184598714Y-122744467D01*
X184679526Y-122609780D01*
X184706463Y-122528967D01*
X184706463Y-122475093D01*
X184679526Y-122394280D01*
X183736717Y-122475093D02*
X183682842Y-122475093D01*
X183682842Y-122528967D01*
X183736717Y-122528967D01*
X183736717Y-122475093D01*
X183682842Y-122528967D01*
X183117157Y-121963282D02*
X183440406Y-122286531D01*
X183278781Y-122124906D02*
X183844467Y-121559221D01*
X183817529Y-121693908D01*
X183817529Y-121801658D01*
X183844467Y-121882470D01*
X183009407Y-121101285D02*
X182632284Y-121478409D01*
X183251844Y-121343722D02*
X182955532Y-121640033D01*
X182874720Y-121666971D01*
X182793908Y-121640033D01*
X182713096Y-121559221D01*
X182686158Y-121478409D01*
X182686158Y-121424534D01*
X179594280Y-128020473D02*
X179540406Y-128074348D01*
X179513468Y-128155160D01*
X179513468Y-128209035D01*
X179540406Y-128289847D01*
X179621218Y-128424534D01*
X179755905Y-128559221D01*
X179890592Y-128640033D01*
X179971404Y-128666971D01*
X180025279Y-128666971D01*
X180106091Y-128640033D01*
X180159966Y-128586158D01*
X180186903Y-128505346D01*
X180186903Y-128451471D01*
X180159966Y-128370659D01*
X180079154Y-128235972D01*
X179944467Y-128101285D01*
X179809780Y-128020473D01*
X179728967Y-127993536D01*
X179675093Y-127993536D01*
X179594280Y-128020473D01*
X179675093Y-128963282D02*
X179675093Y-129017157D01*
X179728967Y-129017157D01*
X179728967Y-128963282D01*
X179675093Y-128963282D01*
X179728967Y-129017157D01*
X179163282Y-129582842D02*
X179486531Y-129259593D01*
X179324906Y-129421218D02*
X178759221Y-128855532D01*
X178893908Y-128882470D01*
X179001658Y-128882470D01*
X179082470Y-128855532D01*
X178301285Y-129690592D02*
X178678409Y-130067715D01*
X178543722Y-129448155D02*
X178840033Y-129744467D01*
X178866971Y-129825279D01*
X178840033Y-129906091D01*
X178759221Y-129986903D01*
X178678409Y-130013841D01*
X178624534Y-130013841D01*
X180794280Y-121220473D02*
X180740406Y-121274348D01*
X180713468Y-121355160D01*
X180713468Y-121409035D01*
X180740406Y-121489847D01*
X180821218Y-121624534D01*
X180955905Y-121759221D01*
X181090592Y-121840033D01*
X181171404Y-121866971D01*
X181225279Y-121866971D01*
X181306091Y-121840033D01*
X181359966Y-121786158D01*
X181386903Y-121705346D01*
X181386903Y-121651471D01*
X181359966Y-121570659D01*
X181279154Y-121435972D01*
X181144467Y-121301285D01*
X181009780Y-121220473D01*
X180928967Y-121193536D01*
X180875093Y-121193536D01*
X180794280Y-121220473D01*
X180875093Y-122163282D02*
X180875093Y-122217157D01*
X180928967Y-122217157D01*
X180928967Y-122163282D01*
X180875093Y-122163282D01*
X180928967Y-122217157D01*
X180363282Y-122782842D02*
X180686531Y-122459593D01*
X180524906Y-122621218D02*
X179959221Y-122055532D01*
X180093908Y-122082470D01*
X180201658Y-122082470D01*
X180282470Y-122055532D01*
X179501285Y-122890592D02*
X179878409Y-123267715D01*
X179743722Y-122648155D02*
X180040033Y-122944467D01*
X180066971Y-123025279D01*
X180040033Y-123106091D01*
X179959221Y-123186903D01*
X179878409Y-123213841D01*
X179824534Y-123213841D01*
X183729526Y-123294280D02*
X183675651Y-123240406D01*
X183594839Y-123213468D01*
X183540964Y-123213468D01*
X183460152Y-123240406D01*
X183325465Y-123321218D01*
X183190778Y-123455905D01*
X183109966Y-123590592D01*
X183083028Y-123671404D01*
X183083028Y-123725279D01*
X183109966Y-123806091D01*
X183163841Y-123859966D01*
X183244653Y-123886903D01*
X183298528Y-123886903D01*
X183379340Y-123859966D01*
X183514027Y-123779154D01*
X183648714Y-123644467D01*
X183729526Y-123509780D01*
X183756463Y-123428967D01*
X183756463Y-123375093D01*
X183729526Y-123294280D01*
X182786717Y-123375093D02*
X182732842Y-123375093D01*
X182732842Y-123428967D01*
X182786717Y-123428967D01*
X182786717Y-123375093D01*
X182732842Y-123428967D01*
X182167157Y-122863282D02*
X182490406Y-123186531D01*
X182328781Y-123024906D02*
X182894467Y-122459221D01*
X182867529Y-122593908D01*
X182867529Y-122701658D01*
X182894467Y-122782470D01*
X182059407Y-122001285D02*
X181682284Y-122378409D01*
X182301844Y-122243722D02*
X182005532Y-122540033D01*
X181924720Y-122566971D01*
X181843908Y-122540033D01*
X181763096Y-122459221D01*
X181736158Y-122378409D01*
X181736158Y-122324534D01*
X191761904Y-133073809D02*
X191761904Y-132616666D01*
X191761904Y-132845238D02*
X190961904Y-132845238D01*
X191076190Y-132769047D01*
X191152380Y-132692857D01*
X191190476Y-132616666D01*
X190961904Y-133569047D02*
X190961904Y-133645238D01*
X191000000Y-133721428D01*
X191038095Y-133759523D01*
X191114285Y-133797619D01*
X191266666Y-133835714D01*
X191457142Y-133835714D01*
X191609523Y-133797619D01*
X191685714Y-133759523D01*
X191723809Y-133721428D01*
X191761904Y-133645238D01*
X191761904Y-133569047D01*
X191723809Y-133492857D01*
X191685714Y-133454761D01*
X191609523Y-133416666D01*
X191457142Y-133378571D01*
X191266666Y-133378571D01*
X191114285Y-133416666D01*
X191038095Y-133454761D01*
X191000000Y-133492857D01*
X190961904Y-133569047D01*
X191761904Y-134178571D02*
X190961904Y-134178571D01*
X191457142Y-134254761D02*
X191761904Y-134483333D01*
X191228571Y-134483333D02*
X191533333Y-134178571D01*
X202911904Y-130373809D02*
X202911904Y-129916666D01*
X202911904Y-130145238D02*
X202111904Y-130145238D01*
X202226190Y-130069047D01*
X202302380Y-129992857D01*
X202340476Y-129916666D01*
X202111904Y-130869047D02*
X202111904Y-130945238D01*
X202150000Y-131021428D01*
X202188095Y-131059523D01*
X202264285Y-131097619D01*
X202416666Y-131135714D01*
X202607142Y-131135714D01*
X202759523Y-131097619D01*
X202835714Y-131059523D01*
X202873809Y-131021428D01*
X202911904Y-130945238D01*
X202911904Y-130869047D01*
X202873809Y-130792857D01*
X202835714Y-130754761D01*
X202759523Y-130716666D01*
X202607142Y-130678571D01*
X202416666Y-130678571D01*
X202264285Y-130716666D01*
X202188095Y-130754761D01*
X202150000Y-130792857D01*
X202111904Y-130869047D01*
X202911904Y-131478571D02*
X202111904Y-131478571D01*
X202607142Y-131554761D02*
X202911904Y-131783333D01*
X202378571Y-131783333D02*
X202683333Y-131478571D01*
X183226190Y-132811904D02*
X183683333Y-132811904D01*
X183454761Y-132811904D02*
X183454761Y-132011904D01*
X183530952Y-132126190D01*
X183607142Y-132202380D01*
X183683333Y-132240476D01*
X182730952Y-132011904D02*
X182654761Y-132011904D01*
X182578571Y-132050000D01*
X182540476Y-132088095D01*
X182502380Y-132164285D01*
X182464285Y-132316666D01*
X182464285Y-132507142D01*
X182502380Y-132659523D01*
X182540476Y-132735714D01*
X182578571Y-132773809D01*
X182654761Y-132811904D01*
X182730952Y-132811904D01*
X182807142Y-132773809D01*
X182845238Y-132735714D01*
X182883333Y-132659523D01*
X182921428Y-132507142D01*
X182921428Y-132316666D01*
X182883333Y-132164285D01*
X182845238Y-132088095D01*
X182807142Y-132050000D01*
X182730952Y-132011904D01*
X182121428Y-132811904D02*
X182121428Y-132011904D01*
X182045238Y-132507142D02*
X181816666Y-132811904D01*
X181816666Y-132278571D02*
X182121428Y-132583333D01*
X195976190Y-132611904D02*
X196433333Y-132611904D01*
X196204761Y-132611904D02*
X196204761Y-131811904D01*
X196280952Y-131926190D01*
X196357142Y-132002380D01*
X196433333Y-132040476D01*
X195480952Y-131811904D02*
X195404761Y-131811904D01*
X195328571Y-131850000D01*
X195290476Y-131888095D01*
X195252380Y-131964285D01*
X195214285Y-132116666D01*
X195214285Y-132307142D01*
X195252380Y-132459523D01*
X195290476Y-132535714D01*
X195328571Y-132573809D01*
X195404761Y-132611904D01*
X195480952Y-132611904D01*
X195557142Y-132573809D01*
X195595238Y-132535714D01*
X195633333Y-132459523D01*
X195671428Y-132307142D01*
X195671428Y-132116666D01*
X195633333Y-131964285D01*
X195595238Y-131888095D01*
X195557142Y-131850000D01*
X195480952Y-131811904D01*
X194871428Y-132611904D02*
X194871428Y-131811904D01*
X194795238Y-132307142D02*
X194566666Y-132611904D01*
X194566666Y-132078571D02*
X194871428Y-132383333D01*
X187378571Y-132807142D02*
X187911904Y-132807142D01*
X187073809Y-132616666D02*
X187645238Y-132426190D01*
X187645238Y-132921428D01*
X187835714Y-133226190D02*
X187873809Y-133264285D01*
X187911904Y-133226190D01*
X187873809Y-133188095D01*
X187835714Y-133226190D01*
X187911904Y-133226190D01*
X187111904Y-133530952D02*
X187111904Y-134064285D01*
X187911904Y-133721428D01*
X187911904Y-134369047D02*
X187111904Y-134369047D01*
X187607142Y-134445238D02*
X187911904Y-134673809D01*
X187378571Y-134673809D02*
X187683333Y-134369047D01*
X199778571Y-132657142D02*
X200311904Y-132657142D01*
X199473809Y-132466666D02*
X200045238Y-132276190D01*
X200045238Y-132771428D01*
X200235714Y-133076190D02*
X200273809Y-133114285D01*
X200311904Y-133076190D01*
X200273809Y-133038095D01*
X200235714Y-133076190D01*
X200311904Y-133076190D01*
X199511904Y-133380952D02*
X199511904Y-133914285D01*
X200311904Y-133571428D01*
X200311904Y-134219047D02*
X199511904Y-134219047D01*
X200007142Y-134295238D02*
X200311904Y-134523809D01*
X199778571Y-134523809D02*
X200083333Y-134219047D01*
X184828571Y-132807142D02*
X185361904Y-132807142D01*
X184523809Y-132616666D02*
X185095238Y-132426190D01*
X185095238Y-132921428D01*
X185285714Y-133226190D02*
X185323809Y-133264285D01*
X185361904Y-133226190D01*
X185323809Y-133188095D01*
X185285714Y-133226190D01*
X185361904Y-133226190D01*
X184561904Y-133530952D02*
X184561904Y-134064285D01*
X185361904Y-133721428D01*
X185361904Y-134369047D02*
X184561904Y-134369047D01*
X185057142Y-134445238D02*
X185361904Y-134673809D01*
X184828571Y-134673809D02*
X185133333Y-134369047D01*
X197378571Y-132607142D02*
X197911904Y-132607142D01*
X197073809Y-132416666D02*
X197645238Y-132226190D01*
X197645238Y-132721428D01*
X197835714Y-133026190D02*
X197873809Y-133064285D01*
X197911904Y-133026190D01*
X197873809Y-132988095D01*
X197835714Y-133026190D01*
X197911904Y-133026190D01*
X197111904Y-133330952D02*
X197111904Y-133864285D01*
X197911904Y-133521428D01*
X197911904Y-134169047D02*
X197111904Y-134169047D01*
X197607142Y-134245238D02*
X197911904Y-134473809D01*
X197378571Y-134473809D02*
X197683333Y-134169047D01*
X187911904Y-138054761D02*
X187911904Y-137597619D01*
X187911904Y-137826190D02*
X187111904Y-137826190D01*
X187226190Y-137750000D01*
X187302380Y-137673809D01*
X187340476Y-137597619D01*
X187911904Y-138397619D02*
X187111904Y-138397619D01*
X187607142Y-138473809D02*
X187911904Y-138702380D01*
X187378571Y-138702380D02*
X187683333Y-138397619D01*
X200411904Y-138054761D02*
X200411904Y-137597619D01*
X200411904Y-137826190D02*
X199611904Y-137826190D01*
X199726190Y-137750000D01*
X199802380Y-137673809D01*
X199840476Y-137597619D01*
X200411904Y-138397619D02*
X199611904Y-138397619D01*
X200107142Y-138473809D02*
X200411904Y-138702380D01*
X199878571Y-138702380D02*
X200183333Y-138397619D01*
X185411904Y-138054761D02*
X185411904Y-137597619D01*
X185411904Y-137826190D02*
X184611904Y-137826190D01*
X184726190Y-137750000D01*
X184802380Y-137673809D01*
X184840476Y-137597619D01*
X185411904Y-138397619D02*
X184611904Y-138397619D01*
X185107142Y-138473809D02*
X185411904Y-138702380D01*
X184878571Y-138702380D02*
X185183333Y-138397619D01*
X191611904Y-126523809D02*
X191611904Y-126066666D01*
X191611904Y-126295238D02*
X190811904Y-126295238D01*
X190926190Y-126219047D01*
X191002380Y-126142857D01*
X191040476Y-126066666D01*
X190811904Y-127019047D02*
X190811904Y-127095238D01*
X190850000Y-127171428D01*
X190888095Y-127209523D01*
X190964285Y-127247619D01*
X191116666Y-127285714D01*
X191307142Y-127285714D01*
X191459523Y-127247619D01*
X191535714Y-127209523D01*
X191573809Y-127171428D01*
X191611904Y-127095238D01*
X191611904Y-127019047D01*
X191573809Y-126942857D01*
X191535714Y-126904761D01*
X191459523Y-126866666D01*
X191307142Y-126828571D01*
X191116666Y-126828571D01*
X190964285Y-126866666D01*
X190888095Y-126904761D01*
X190850000Y-126942857D01*
X190811904Y-127019047D01*
X191611904Y-127628571D02*
X190811904Y-127628571D01*
X191307142Y-127704761D02*
X191611904Y-127933333D01*
X191078571Y-127933333D02*
X191383333Y-127628571D01*
X190111904Y-126523809D02*
X190111904Y-126066666D01*
X190111904Y-126295238D02*
X189311904Y-126295238D01*
X189426190Y-126219047D01*
X189502380Y-126142857D01*
X189540476Y-126066666D01*
X189311904Y-127019047D02*
X189311904Y-127095238D01*
X189350000Y-127171428D01*
X189388095Y-127209523D01*
X189464285Y-127247619D01*
X189616666Y-127285714D01*
X189807142Y-127285714D01*
X189959523Y-127247619D01*
X190035714Y-127209523D01*
X190073809Y-127171428D01*
X190111904Y-127095238D01*
X190111904Y-127019047D01*
X190073809Y-126942857D01*
X190035714Y-126904761D01*
X189959523Y-126866666D01*
X189807142Y-126828571D01*
X189616666Y-126828571D01*
X189464285Y-126866666D01*
X189388095Y-126904761D01*
X189350000Y-126942857D01*
X189311904Y-127019047D01*
X190111904Y-127628571D02*
X189311904Y-127628571D01*
X189807142Y-127704761D02*
X190111904Y-127933333D01*
X189578571Y-127933333D02*
X189883333Y-127628571D01*
X163876190Y-115611904D02*
X164333333Y-115611904D01*
X164104761Y-115611904D02*
X164104761Y-114811904D01*
X164180952Y-114926190D01*
X164257142Y-115002380D01*
X164333333Y-115040476D01*
X163380952Y-114811904D02*
X163304761Y-114811904D01*
X163228571Y-114850000D01*
X163190476Y-114888095D01*
X163152380Y-114964285D01*
X163114285Y-115116666D01*
X163114285Y-115307142D01*
X163152380Y-115459523D01*
X163190476Y-115535714D01*
X163228571Y-115573809D01*
X163304761Y-115611904D01*
X163380952Y-115611904D01*
X163457142Y-115573809D01*
X163495238Y-115535714D01*
X163533333Y-115459523D01*
X163571428Y-115307142D01*
X163571428Y-115116666D01*
X163533333Y-114964285D01*
X163495238Y-114888095D01*
X163457142Y-114850000D01*
X163380952Y-114811904D01*
X162771428Y-115611904D02*
X162771428Y-114811904D01*
X162695238Y-115307142D02*
X162466666Y-115611904D01*
X162466666Y-115078571D02*
X162771428Y-115383333D01*
X163876190Y-114461904D02*
X164333333Y-114461904D01*
X164104761Y-114461904D02*
X164104761Y-113661904D01*
X164180952Y-113776190D01*
X164257142Y-113852380D01*
X164333333Y-113890476D01*
X163380952Y-113661904D02*
X163304761Y-113661904D01*
X163228571Y-113700000D01*
X163190476Y-113738095D01*
X163152380Y-113814285D01*
X163114285Y-113966666D01*
X163114285Y-114157142D01*
X163152380Y-114309523D01*
X163190476Y-114385714D01*
X163228571Y-114423809D01*
X163304761Y-114461904D01*
X163380952Y-114461904D01*
X163457142Y-114423809D01*
X163495238Y-114385714D01*
X163533333Y-114309523D01*
X163571428Y-114157142D01*
X163571428Y-113966666D01*
X163533333Y-113814285D01*
X163495238Y-113738095D01*
X163457142Y-113700000D01*
X163380952Y-113661904D01*
X162771428Y-114461904D02*
X162771428Y-113661904D01*
X162695238Y-114157142D02*
X162466666Y-114461904D01*
X162466666Y-113928571D02*
X162771428Y-114233333D01*
X159821428Y-129161904D02*
X160202380Y-129161904D01*
X160240476Y-129542857D01*
X160202380Y-129504761D01*
X160126190Y-129466666D01*
X159935714Y-129466666D01*
X159859523Y-129504761D01*
X159821428Y-129542857D01*
X159783333Y-129619047D01*
X159783333Y-129809523D01*
X159821428Y-129885714D01*
X159859523Y-129923809D01*
X159935714Y-129961904D01*
X160126190Y-129961904D01*
X160202380Y-129923809D01*
X160240476Y-129885714D01*
X159021428Y-129961904D02*
X159478571Y-129961904D01*
X159250000Y-129961904D02*
X159250000Y-129161904D01*
X159326190Y-129276190D01*
X159402380Y-129352380D01*
X159478571Y-129390476D01*
X158526190Y-129161904D02*
X158450000Y-129161904D01*
X158373809Y-129200000D01*
X158335714Y-129238095D01*
X158297619Y-129314285D01*
X158259523Y-129466666D01*
X158259523Y-129657142D01*
X158297619Y-129809523D01*
X158335714Y-129885714D01*
X158373809Y-129923809D01*
X158450000Y-129961904D01*
X158526190Y-129961904D01*
X158602380Y-129923809D01*
X158640476Y-129885714D01*
X158678571Y-129809523D01*
X158716666Y-129657142D01*
X158716666Y-129466666D01*
X158678571Y-129314285D01*
X158640476Y-129238095D01*
X158602380Y-129200000D01*
X158526190Y-129161904D01*
X164971428Y-125961904D02*
X164895238Y-125961904D01*
X164819047Y-126000000D01*
X164780952Y-126038095D01*
X164742857Y-126114285D01*
X164704761Y-126266666D01*
X164704761Y-126457142D01*
X164742857Y-126609523D01*
X164780952Y-126685714D01*
X164819047Y-126723809D01*
X164895238Y-126761904D01*
X164971428Y-126761904D01*
X165047619Y-126723809D01*
X165085714Y-126685714D01*
X165123809Y-126609523D01*
X165161904Y-126457142D01*
X165161904Y-126266666D01*
X165123809Y-126114285D01*
X165085714Y-126038095D01*
X165047619Y-126000000D01*
X164971428Y-125961904D01*
X164361904Y-126685714D02*
X164323809Y-126723809D01*
X164361904Y-126761904D01*
X164400000Y-126723809D01*
X164361904Y-126685714D01*
X164361904Y-126761904D01*
X163561904Y-126761904D02*
X164019047Y-126761904D01*
X163790476Y-126761904D02*
X163790476Y-125961904D01*
X163866666Y-126076190D01*
X163942857Y-126152380D01*
X164019047Y-126190476D01*
X162876190Y-126228571D02*
X162876190Y-126761904D01*
X163219047Y-126228571D02*
X163219047Y-126647619D01*
X163180952Y-126723809D01*
X163104761Y-126761904D01*
X162990476Y-126761904D01*
X162914285Y-126723809D01*
X162876190Y-126685714D01*
X181094280Y-116120473D02*
X181040406Y-116174348D01*
X181013468Y-116255160D01*
X181013468Y-116309035D01*
X181040406Y-116389847D01*
X181121218Y-116524534D01*
X181255905Y-116659221D01*
X181390592Y-116740033D01*
X181471404Y-116766971D01*
X181525279Y-116766971D01*
X181606091Y-116740033D01*
X181659966Y-116686158D01*
X181686903Y-116605346D01*
X181686903Y-116551471D01*
X181659966Y-116470659D01*
X181579154Y-116335972D01*
X181444467Y-116201285D01*
X181309780Y-116120473D01*
X181228967Y-116093536D01*
X181175093Y-116093536D01*
X181094280Y-116120473D01*
X181175093Y-117063282D02*
X181175093Y-117117157D01*
X181228967Y-117117157D01*
X181228967Y-117063282D01*
X181175093Y-117063282D01*
X181228967Y-117117157D01*
X180663282Y-117682842D02*
X180986531Y-117359593D01*
X180824906Y-117521218D02*
X180259221Y-116955532D01*
X180393908Y-116982470D01*
X180501658Y-116982470D01*
X180582470Y-116955532D01*
X179801285Y-117790592D02*
X180178409Y-118167715D01*
X180043722Y-117548155D02*
X180340033Y-117844467D01*
X180366971Y-117925279D01*
X180340033Y-118006091D01*
X180259221Y-118086903D01*
X180178409Y-118113841D01*
X180124534Y-118113841D01*
X179167343Y-127678781D02*
X179490592Y-127355532D01*
X179328967Y-127517157D02*
X178763282Y-126951471D01*
X178897969Y-126978409D01*
X179005719Y-126978409D01*
X179086531Y-126951471D01*
X178305346Y-127786531D02*
X178682470Y-128163654D01*
X178547783Y-127544094D02*
X178844094Y-127840406D01*
X178871032Y-127921218D01*
X178844094Y-128002030D01*
X178763282Y-128082842D01*
X178682470Y-128109780D01*
X178628595Y-128109780D01*
X187410338Y-120832842D02*
X187410338Y-120778967D01*
X187383401Y-120698155D01*
X187248714Y-120563468D01*
X187167902Y-120536531D01*
X187114027Y-120536531D01*
X187033215Y-120563468D01*
X186979340Y-120617343D01*
X186925465Y-120725093D01*
X186925465Y-121371590D01*
X186575279Y-121021404D01*
X186386717Y-120725093D02*
X186332842Y-120725093D01*
X186332842Y-120778967D01*
X186386717Y-120778967D01*
X186386717Y-120725093D01*
X186332842Y-120778967D01*
X186602216Y-120024720D02*
X186602216Y-119970845D01*
X186575279Y-119890033D01*
X186440592Y-119755346D01*
X186359780Y-119728409D01*
X186305905Y-119728409D01*
X186225093Y-119755346D01*
X186171218Y-119809221D01*
X186117343Y-119916971D01*
X186117343Y-120563468D01*
X185767157Y-120213282D01*
X185659407Y-119351285D02*
X185282284Y-119728409D01*
X185901844Y-119593722D02*
X185605532Y-119890033D01*
X185524720Y-119916971D01*
X185443908Y-119890033D01*
X185363096Y-119809221D01*
X185336158Y-119728409D01*
X185336158Y-119674534D01*
X175698155Y-120093722D02*
X176075279Y-120470845D01*
X175617343Y-119743536D02*
X176156091Y-120012910D01*
X175805905Y-120363096D01*
X175725093Y-120713282D02*
X175725093Y-120767157D01*
X175778967Y-120767157D01*
X175778967Y-120713282D01*
X175725093Y-120713282D01*
X175778967Y-120767157D01*
X174997783Y-120416971D02*
X174620659Y-120794094D01*
X175428781Y-121117343D01*
X174351285Y-121440592D02*
X174728409Y-121817715D01*
X174593722Y-121198155D02*
X174890033Y-121494467D01*
X174916971Y-121575279D01*
X174890033Y-121656091D01*
X174809221Y-121736903D01*
X174728409Y-121763841D01*
X174674534Y-121763841D01*
X182332842Y-117089661D02*
X182278967Y-117089661D01*
X182198155Y-117116598D01*
X182063468Y-117251285D01*
X182036531Y-117332097D01*
X182036531Y-117385972D01*
X182063468Y-117466784D01*
X182117343Y-117520659D01*
X182225093Y-117574534D01*
X182871590Y-117574534D01*
X182521404Y-117924720D01*
X182225093Y-118113282D02*
X182225093Y-118167157D01*
X182278967Y-118167157D01*
X182278967Y-118113282D01*
X182225093Y-118113282D01*
X182278967Y-118167157D01*
X181524720Y-117897783D02*
X181470845Y-117897783D01*
X181390033Y-117924720D01*
X181255346Y-118059407D01*
X181228409Y-118140219D01*
X181228409Y-118194094D01*
X181255346Y-118274906D01*
X181309221Y-118328781D01*
X181416971Y-118382656D01*
X182063468Y-118382656D01*
X181713282Y-118732842D01*
X180851285Y-118840592D02*
X181228409Y-119217715D01*
X181093722Y-118598155D02*
X181390033Y-118894467D01*
X181416971Y-118975279D01*
X181390033Y-119056091D01*
X181309221Y-119136903D01*
X181228409Y-119163841D01*
X181174534Y-119163841D01*
X196014285Y-131461904D02*
X196471428Y-131461904D01*
X196242857Y-131461904D02*
X196242857Y-130661904D01*
X196319047Y-130776190D01*
X196395238Y-130852380D01*
X196471428Y-130890476D01*
X195519047Y-130661904D02*
X195442857Y-130661904D01*
X195366666Y-130700000D01*
X195328571Y-130738095D01*
X195290476Y-130814285D01*
X195252380Y-130966666D01*
X195252380Y-131157142D01*
X195290476Y-131309523D01*
X195328571Y-131385714D01*
X195366666Y-131423809D01*
X195442857Y-131461904D01*
X195519047Y-131461904D01*
X195595238Y-131423809D01*
X195633333Y-131385714D01*
X195671428Y-131309523D01*
X195709523Y-131157142D01*
X195709523Y-130966666D01*
X195671428Y-130814285D01*
X195633333Y-130738095D01*
X195595238Y-130700000D01*
X195519047Y-130661904D01*
X194566666Y-130928571D02*
X194566666Y-131461904D01*
X194909523Y-130928571D02*
X194909523Y-131347619D01*
X194871428Y-131423809D01*
X194795238Y-131461904D01*
X194680952Y-131461904D01*
X194604761Y-131423809D01*
X194566666Y-131385714D01*
X201271428Y-120288095D02*
X201233333Y-120250000D01*
X201157142Y-120211904D01*
X200966666Y-120211904D01*
X200890476Y-120250000D01*
X200852380Y-120288095D01*
X200814285Y-120364285D01*
X200814285Y-120440476D01*
X200852380Y-120554761D01*
X201309523Y-121011904D01*
X200814285Y-121011904D01*
X200509523Y-120288095D02*
X200471428Y-120250000D01*
X200395238Y-120211904D01*
X200204761Y-120211904D01*
X200128571Y-120250000D01*
X200090476Y-120288095D01*
X200052380Y-120364285D01*
X200052380Y-120440476D01*
X200090476Y-120554761D01*
X200547619Y-121011904D01*
X200052380Y-121011904D01*
X199366666Y-120478571D02*
X199366666Y-121011904D01*
X199709523Y-120478571D02*
X199709523Y-120897619D01*
X199671428Y-120973809D01*
X199595238Y-121011904D01*
X199480952Y-121011904D01*
X199404761Y-120973809D01*
X199366666Y-120935714D01*
X202111904Y-113078571D02*
X202111904Y-113154761D01*
X202150000Y-113230952D01*
X202188095Y-113269047D01*
X202264285Y-113307142D01*
X202416666Y-113345238D01*
X202607142Y-113345238D01*
X202759523Y-113307142D01*
X202835714Y-113269047D01*
X202873809Y-113230952D01*
X202911904Y-113154761D01*
X202911904Y-113078571D01*
X202873809Y-113002380D01*
X202835714Y-112964285D01*
X202759523Y-112926190D01*
X202607142Y-112888095D01*
X202416666Y-112888095D01*
X202264285Y-112926190D01*
X202188095Y-112964285D01*
X202150000Y-113002380D01*
X202111904Y-113078571D01*
X202835714Y-113688095D02*
X202873809Y-113726190D01*
X202911904Y-113688095D01*
X202873809Y-113650000D01*
X202835714Y-113688095D01*
X202911904Y-113688095D01*
X202911904Y-114488095D02*
X202911904Y-114030952D01*
X202911904Y-114259523D02*
X202111904Y-114259523D01*
X202226190Y-114183333D01*
X202302380Y-114107142D01*
X202340476Y-114030952D01*
X202378571Y-115173809D02*
X202911904Y-115173809D01*
X202378571Y-114830952D02*
X202797619Y-114830952D01*
X202873809Y-114869047D01*
X202911904Y-114945238D01*
X202911904Y-115059523D01*
X202873809Y-115135714D01*
X202835714Y-115173809D01*
X203421428Y-118861904D02*
X203345238Y-118861904D01*
X203269047Y-118900000D01*
X203230952Y-118938095D01*
X203192857Y-119014285D01*
X203154761Y-119166666D01*
X203154761Y-119357142D01*
X203192857Y-119509523D01*
X203230952Y-119585714D01*
X203269047Y-119623809D01*
X203345238Y-119661904D01*
X203421428Y-119661904D01*
X203497619Y-119623809D01*
X203535714Y-119585714D01*
X203573809Y-119509523D01*
X203611904Y-119357142D01*
X203611904Y-119166666D01*
X203573809Y-119014285D01*
X203535714Y-118938095D01*
X203497619Y-118900000D01*
X203421428Y-118861904D01*
X202811904Y-119585714D02*
X202773809Y-119623809D01*
X202811904Y-119661904D01*
X202850000Y-119623809D01*
X202811904Y-119585714D01*
X202811904Y-119661904D01*
X202011904Y-119661904D02*
X202469047Y-119661904D01*
X202240476Y-119661904D02*
X202240476Y-118861904D01*
X202316666Y-118976190D01*
X202392857Y-119052380D01*
X202469047Y-119090476D01*
X201326190Y-119128571D02*
X201326190Y-119661904D01*
X201669047Y-119128571D02*
X201669047Y-119547619D01*
X201630952Y-119623809D01*
X201554761Y-119661904D01*
X201440476Y-119661904D01*
X201364285Y-119623809D01*
X201326190Y-119585714D01*
X210911904Y-85028571D02*
X210911904Y-85104761D01*
X210950000Y-85180952D01*
X210988095Y-85219047D01*
X211064285Y-85257142D01*
X211216666Y-85295238D01*
X211407142Y-85295238D01*
X211559523Y-85257142D01*
X211635714Y-85219047D01*
X211673809Y-85180952D01*
X211711904Y-85104761D01*
X211711904Y-85028571D01*
X211673809Y-84952380D01*
X211635714Y-84914285D01*
X211559523Y-84876190D01*
X211407142Y-84838095D01*
X211216666Y-84838095D01*
X211064285Y-84876190D01*
X210988095Y-84914285D01*
X210950000Y-84952380D01*
X210911904Y-85028571D01*
X211635714Y-85638095D02*
X211673809Y-85676190D01*
X211711904Y-85638095D01*
X211673809Y-85600000D01*
X211635714Y-85638095D01*
X211711904Y-85638095D01*
X211711904Y-86438095D02*
X211711904Y-85980952D01*
X211711904Y-86209523D02*
X210911904Y-86209523D01*
X211026190Y-86133333D01*
X211102380Y-86057142D01*
X211140476Y-85980952D01*
X211178571Y-87123809D02*
X211711904Y-87123809D01*
X211178571Y-86780952D02*
X211597619Y-86780952D01*
X211673809Y-86819047D01*
X211711904Y-86895238D01*
X211711904Y-87009523D01*
X211673809Y-87085714D01*
X211635714Y-87123809D01*
X163921428Y-129311904D02*
X164302380Y-129311904D01*
X164340476Y-129692857D01*
X164302380Y-129654761D01*
X164226190Y-129616666D01*
X164035714Y-129616666D01*
X163959523Y-129654761D01*
X163921428Y-129692857D01*
X163883333Y-129769047D01*
X163883333Y-129959523D01*
X163921428Y-130035714D01*
X163959523Y-130073809D01*
X164035714Y-130111904D01*
X164226190Y-130111904D01*
X164302380Y-130073809D01*
X164340476Y-130035714D01*
X163121428Y-130111904D02*
X163578571Y-130111904D01*
X163350000Y-130111904D02*
X163350000Y-129311904D01*
X163426190Y-129426190D01*
X163502380Y-129502380D01*
X163578571Y-129540476D01*
X162626190Y-129311904D02*
X162550000Y-129311904D01*
X162473809Y-129350000D01*
X162435714Y-129388095D01*
X162397619Y-129464285D01*
X162359523Y-129616666D01*
X162359523Y-129807142D01*
X162397619Y-129959523D01*
X162435714Y-130035714D01*
X162473809Y-130073809D01*
X162550000Y-130111904D01*
X162626190Y-130111904D01*
X162702380Y-130073809D01*
X162740476Y-130035714D01*
X162778571Y-129959523D01*
X162816666Y-129807142D01*
X162816666Y-129616666D01*
X162778571Y-129464285D01*
X162740476Y-129388095D01*
X162702380Y-129350000D01*
X162626190Y-129311904D01*
X164328571Y-130811904D02*
X163833333Y-130811904D01*
X164100000Y-131116666D01*
X163985714Y-131116666D01*
X163909523Y-131154761D01*
X163871428Y-131192857D01*
X163833333Y-131269047D01*
X163833333Y-131459523D01*
X163871428Y-131535714D01*
X163909523Y-131573809D01*
X163985714Y-131611904D01*
X164214285Y-131611904D01*
X164290476Y-131573809D01*
X164328571Y-131535714D01*
X163566666Y-130811904D02*
X163071428Y-130811904D01*
X163338095Y-131116666D01*
X163223809Y-131116666D01*
X163147619Y-131154761D01*
X163109523Y-131192857D01*
X163071428Y-131269047D01*
X163071428Y-131459523D01*
X163109523Y-131535714D01*
X163147619Y-131573809D01*
X163223809Y-131611904D01*
X163452380Y-131611904D01*
X163528571Y-131573809D01*
X163566666Y-131535714D01*
X162576190Y-130811904D02*
X162500000Y-130811904D01*
X162423809Y-130850000D01*
X162385714Y-130888095D01*
X162347619Y-130964285D01*
X162309523Y-131116666D01*
X162309523Y-131307142D01*
X162347619Y-131459523D01*
X162385714Y-131535714D01*
X162423809Y-131573809D01*
X162500000Y-131611904D01*
X162576190Y-131611904D01*
X162652380Y-131573809D01*
X162690476Y-131535714D01*
X162728571Y-131459523D01*
X162766666Y-131307142D01*
X162766666Y-131116666D01*
X162728571Y-130964285D01*
X162690476Y-130888095D01*
X162652380Y-130850000D01*
X162576190Y-130811904D01*
X211661904Y-109918571D02*
X211661904Y-109994761D01*
X211700000Y-110070952D01*
X211738095Y-110109047D01*
X211814285Y-110147142D01*
X211966666Y-110185238D01*
X212157142Y-110185238D01*
X212309523Y-110147142D01*
X212385714Y-110109047D01*
X212423809Y-110070952D01*
X212461904Y-109994761D01*
X212461904Y-109918571D01*
X212423809Y-109842380D01*
X212385714Y-109804285D01*
X212309523Y-109766190D01*
X212157142Y-109728095D01*
X211966666Y-109728095D01*
X211814285Y-109766190D01*
X211738095Y-109804285D01*
X211700000Y-109842380D01*
X211661904Y-109918571D01*
X212385714Y-110528095D02*
X212423809Y-110566190D01*
X212461904Y-110528095D01*
X212423809Y-110490000D01*
X212385714Y-110528095D01*
X212461904Y-110528095D01*
X212461904Y-111328095D02*
X212461904Y-110870952D01*
X212461904Y-111099523D02*
X211661904Y-111099523D01*
X211776190Y-111023333D01*
X211852380Y-110947142D01*
X211890476Y-110870952D01*
X211928571Y-112013809D02*
X212461904Y-112013809D01*
X211928571Y-111670952D02*
X212347619Y-111670952D01*
X212423809Y-111709047D01*
X212461904Y-111785238D01*
X212461904Y-111899523D01*
X212423809Y-111975714D01*
X212385714Y-112013809D01*
M02*
