M48
; DRILL file {KiCad (5.1.4)-1} date 2020/03/02 11:47:13
; FORMAT={-:-/ absolute / metric / decimal}
; #@! TF.CreationDate,2020-03-02T11:47:13+09:00
; #@! TF.GenerationSoftware,Kicad,Pcbnew,(5.1.4)-1
; #@! TF.FileFunction,Plated,1,2,PTH
FMAT,2
METRIC
T1C0.300
T2C0.400
T3C0.700
T4C0.750
T5C0.762
T6C0.800
T7C1.000
T8C2.000
T9C2.500
T10C3.000
T11C4.500
%
G90
G05
T1
X157.85Y-116.525
X159.275Y-128.175
X161.95Y-112.01
X164.154Y-112.89
X167.3Y-113.053
X167.65Y-111.7
X167.75Y-129.75
X167.75Y-131.2
X169.07Y-115.18
X169.3Y-112.65
X169.82Y-118.55
X170.417Y-128.28
X170.536Y-118.63
X171.086Y-121.086
X171.1Y-124.1
X171.55Y-127.51
X173.29Y-121.22
X173.85Y-111.65
X173.95Y-122.63
X174.625Y-118.625
X174.75Y-121.76
X174.75Y-124.5
X175.06Y-114.15
X176.05Y-112.65
X176.274Y-121.491
X177.228Y-114.155
X177.344Y-133.184
X177.38Y-120.264
X177.43Y-107.22
X177.45Y-126.49
X177.509Y-119.032
X177.88Y-132.5
X177.98Y-129.39
X178.023Y-114.177
X178.55Y-124.1
X178.575Y-127.6
X178.576Y-113.596
X178.9Y-103.24
X179.15Y-96.92
X179.28Y-133.34
X179.39Y-132.64
X179.54Y-117.34
X179.97Y-137.05
X180.002Y-123.178
X180.15Y-118.6
X180.15Y-121.45
X180.39Y-125.8
X180.75Y-117.9
X180.75Y-123.514
X181.148Y-126.536
X181.148Y-124.09
X181.2Y-111.95
X181.55Y-119.6
X181.55Y-121.15
X182.014Y-115.736
X182.205Y-121.405
X182.216Y-125.279
X182.78Y-112.863
X182.79Y-133.21
X182.997Y-116.832
X183.5Y-118.293
X183.9Y-125.3
X183.942Y-111.71
X183.962Y-119.65
X184.144Y-117.993
X184.5Y-124.7
X184.775Y-117.66
X185.085Y-123.706
X185.29Y-118.16
X185.45Y-111.75
X185.9Y-128.75
X186.125Y-127.539
X186.25Y-126.85
X186.431Y-122.228
X186.458Y-115.642
X186.7Y-126.2
X186.8Y-113.55
X187.03Y-116.25
X187.21Y-111.48
X187.475Y-121.6
X187.52Y-133.25
X187.6Y-113.55
X187.95Y-124.875
X187.95Y-125.575
X187.95Y-126.275
X188.93Y-117.025
X189.48Y-117.725
X189.962Y-126.652
X190.5Y-112.6
X190.5Y-129.374
X190.721Y-116.46
X190.825Y-110.875
X190.875Y-118.57
X191.19Y-123.85
X191.26Y-129.582
X191.336Y-115.856
X191.55Y-117.75
X191.6Y-119.09
X191.875Y-117.01
X191.896Y-115.296
X191.975Y-121.75
X192.3Y-122.75
X192.453Y-114.739
X192.525Y-121.162
X192.972Y-115.928
X193.175Y-127.975
X193.666Y-123.965
X193.792Y-131.69
X194.1Y-111.65
X194.388Y-125.082
X194.6Y-126.3
X194.865Y-125.65
X195.45Y-127.45
X196.25Y-127.45
X197.35Y-112.6
X197.441Y-113.691
X197.65Y-124.95
X197.746Y-125.761
X197.75Y-127.25
X197.83Y-109.56
X197.925Y-133.3
X198.5Y-117.8
X198.85Y-109.65
X199.275Y-127.175
X200.275Y-133.2
X200.4Y-97.3
X201.475Y-127.15
X202.0Y-131.0
X202.4Y-113.1
X202.45Y-107.98
X203.008Y-113.958
X203.3Y-130.15
X203.571Y-128.331
X204.868Y-110.468
X205.75Y-106.72
X206.3Y-105.35
X207.95Y-88.3
X208.05Y-127.74
X208.65Y-121.688
X208.825Y-133.225
X209.15Y-137.55
X209.425Y-123.911
X209.6Y-125.9
X210.08Y-124.83
X210.3Y-88.7
X213.6Y-101.501
X213.6Y-105.25
T2
X147.0Y-111.0
X147.0Y-114.5
X147.0Y-118.5
X147.0Y-122.25
X147.0Y-127.5
X147.0Y-132.25
X150.0Y-127.5
X150.25Y-122.25
X151.25Y-111.0
X151.25Y-111.0
X151.25Y-114.5
X151.25Y-118.5
X153.25Y-122.5
X153.264Y-119.514
X153.5Y-129.25
X155.25Y-122.5
X156.0Y-111.0
X159.5Y-144.0
X160.0Y-113.25
X160.5Y-132.0
X162.0Y-127.5
X162.25Y-144.0
X164.75Y-133.75
X165.25Y-140.75
X165.25Y-144.0
X165.5Y-119.5
X166.75Y-120.25
X166.75Y-123.5
X167.45Y-99.95
X167.5Y-134.0
X167.75Y-127.05
X167.75Y-137.25
X168.25Y-140.75
X168.25Y-144.0
X169.5Y-95.0
X170.5Y-111.5
X171.54Y-101.5
X171.75Y-95.0
X171.75Y-140.75
X171.75Y-144.0
X172.0Y-131.75
X172.2Y-82.85
X174.25Y-119.89
X174.5Y-131.0
X175.25Y-140.75
X175.25Y-144.0
X175.84Y-109.4
X177.25Y-139.5
X177.925Y-122.375
X178.0Y-105.75
X178.35Y-99.05
X178.439Y-112.7
X178.75Y-140.75
X178.75Y-144.0
X179.25Y-129.5
X179.27Y-110.24
X180.46Y-119.62
X181.25Y-95.0
X182.0Y-102.5
X182.5Y-82.85
X182.949Y-125.709
X182.96Y-109.58
X183.0Y-140.75
X183.0Y-144.0
X183.2Y-123.2
X184.5Y-95.0
X187.25Y-140.75
X187.25Y-144.0
X188.75Y-101.25
X189.85Y-121.75
X190.5Y-107.5
X190.75Y-135.5
X190.75Y-137.0
X191.0Y-140.75
X191.0Y-144.0
X191.25Y-95.25
X192.25Y-135.5
X192.25Y-137.0
X192.75Y-128.85
X192.79Y-101.35
X193.25Y-82.9
X193.9Y-127.5
X194.7Y-118.55
X195.0Y-140.75
X195.0Y-144.0
X195.75Y-95.25
X197.4Y-131.54
X197.83Y-111.31
X198.4Y-119.0
X198.7Y-129.39
X199.25Y-106.75
X199.5Y-140.75
X199.5Y-144.0
X199.55Y-126.3
X199.65Y-99.05
X201.059Y-118.84
X201.5Y-108.025
X201.75Y-95.5
X202.45Y-111.55
X202.6Y-118.675
X202.7Y-126.2
X203.25Y-102.5
X203.5Y-82.7
X203.5Y-144.0
X204.25Y-98.0
X204.25Y-106.5
X205.02Y-116.8
X205.75Y-80.0
X205.75Y-84.25
X205.75Y-88.75
X205.75Y-92.75
X205.75Y-96.25
X205.75Y-100.0
X205.75Y-104.25
X206.854Y-112.924
X207.2Y-119.85
X207.75Y-144.0
X210.0Y-116.25
X210.05Y-131.65
X210.1Y-129.1
X210.75Y-91.25
X210.75Y-93.5
X210.95Y-127.65
X211.0Y-137.5
X211.0Y-140.75
X211.0Y-144.0
X211.35Y-95.85
X211.5Y-80.0
X212.75Y-102.5
X212.75Y-106.25
X213.5Y-86.5
X214.25Y-124.5
X214.25Y-127.75
X214.25Y-132.0
X214.25Y-140.5
X214.25Y-144.0
X215.0Y-80.0
X215.25Y-87.25
X215.75Y-99.0
X215.75Y-116.25
X217.25Y-90.0
X217.25Y-94.5
X220.0Y-80.0
X220.0Y-85.0
X220.0Y-90.0
X220.0Y-94.5
X220.0Y-99.0
X220.0Y-103.25
X220.0Y-107.5
X220.0Y-112.0
X220.0Y-116.25
X220.0Y-119.75
X220.0Y-124.5
X220.0Y-127.75
X220.0Y-132.0
X220.0Y-135.75
X220.0Y-138.5
T3
X205.9Y-135.95
X205.9Y-137.45
X205.9Y-138.95
X205.9Y-140.45
X205.9Y-141.95
X205.9Y-143.45
T4
X163.75Y-87.25
X163.75Y-88.75
X163.75Y-90.25
X163.75Y-91.75
X163.75Y-93.25
X165.25Y-79.75
X165.25Y-81.25
X165.25Y-82.75
X165.25Y-84.25
X165.25Y-85.75
X165.25Y-87.25
X165.25Y-88.75
X165.25Y-90.25
X165.25Y-91.75
X165.25Y-93.25
X166.0Y-69.25
X166.0Y-70.75
X166.0Y-72.25
X166.0Y-73.75
X166.75Y-68.0
X166.75Y-79.75
X166.75Y-81.25
X166.75Y-85.75
X166.75Y-87.25
X166.75Y-88.75
X166.75Y-90.25
X166.75Y-91.75
X166.75Y-93.25
X167.5Y-69.25
X167.5Y-70.75
X167.5Y-72.25
X167.5Y-73.75
X168.25Y-68.0
X168.25Y-79.75
X168.25Y-81.25
X168.25Y-87.25
X168.25Y-88.75
X168.25Y-90.25
X168.25Y-91.75
X168.25Y-93.25
X169.0Y-69.25
X169.0Y-70.75
X169.0Y-72.25
X169.0Y-73.75
X169.75Y-68.0
X169.75Y-79.75
X169.75Y-81.25
X169.75Y-87.25
X169.75Y-88.75
X170.5Y-69.25
X170.5Y-70.75
X170.5Y-72.25
X170.5Y-73.75
X171.25Y-68.0
X172.0Y-69.25
X172.0Y-70.75
X172.0Y-72.25
X172.0Y-73.75
X172.75Y-68.0
X173.5Y-69.25
X173.5Y-70.75
X173.5Y-72.25
X173.5Y-73.75
X175.0Y-87.25
X175.0Y-88.75
X175.0Y-90.25
X175.0Y-91.75
X175.0Y-93.25
X176.25Y-69.25
X176.25Y-70.75
X176.25Y-72.25
X176.25Y-73.75
X176.5Y-79.75
X176.5Y-81.25
X176.5Y-87.25
X176.5Y-88.75
X176.5Y-90.25
X176.5Y-91.75
X176.5Y-93.25
X177.0Y-68.0
X177.75Y-69.25
X177.75Y-70.75
X177.75Y-72.25
X177.75Y-73.75
X178.0Y-79.75
X178.0Y-81.25
X178.0Y-82.75
X178.0Y-85.75
X178.0Y-87.25
X178.0Y-88.75
X178.0Y-90.25
X178.0Y-91.75
X178.0Y-93.25
X178.5Y-68.0
X179.25Y-69.25
X179.25Y-70.75
X179.25Y-72.25
X179.25Y-73.75
X179.5Y-79.75
X179.5Y-81.25
X179.5Y-82.75
X179.5Y-84.25
X179.5Y-85.75
X179.5Y-87.25
X179.5Y-88.75
X179.5Y-90.25
X179.5Y-91.75
X179.5Y-93.25
X180.0Y-68.0
X180.75Y-69.25
X180.75Y-70.75
X180.75Y-72.25
X180.75Y-73.75
X181.5Y-68.0
X182.25Y-69.25
X182.25Y-70.75
X182.25Y-72.25
X182.25Y-73.75
X183.0Y-68.0
X183.75Y-69.25
X183.75Y-70.75
X183.75Y-72.25
X183.75Y-73.75
X185.5Y-79.75
X185.5Y-81.25
X185.5Y-82.75
X185.5Y-84.25
X185.5Y-85.75
X185.5Y-87.25
X185.5Y-88.75
X185.5Y-90.25
X185.5Y-91.75
X185.5Y-93.25
X187.0Y-69.25
X187.0Y-70.75
X187.0Y-72.25
X187.0Y-73.75
X187.0Y-79.75
X187.0Y-81.25
X187.0Y-82.75
X187.0Y-84.25
X187.0Y-85.75
X187.0Y-87.25
X187.0Y-88.75
X187.0Y-90.25
X187.0Y-91.75
X187.0Y-93.25
X187.75Y-68.0
X188.5Y-69.25
X188.5Y-70.75
X188.5Y-72.25
X188.5Y-73.75
X188.5Y-79.75
X188.5Y-81.25
X188.5Y-87.25
X188.5Y-88.75
X188.5Y-90.25
X188.5Y-91.75
X188.5Y-93.25
X189.25Y-68.0
X190.0Y-69.25
X190.0Y-70.75
X190.0Y-72.25
X190.0Y-73.75
X190.0Y-79.75
X190.0Y-81.25
X190.0Y-87.25
X190.0Y-88.75
X190.0Y-90.25
X190.0Y-91.75
X190.0Y-93.25
X190.75Y-68.0
X191.5Y-69.25
X191.5Y-70.75
X191.5Y-72.25
X191.5Y-73.75
X191.5Y-87.25
X191.5Y-88.75
X192.25Y-68.0
X193.0Y-69.25
X193.0Y-70.75
X193.0Y-72.25
X193.0Y-73.75
X193.75Y-68.0
X194.5Y-69.25
X194.5Y-70.75
X194.5Y-72.25
X194.5Y-73.75
X196.0Y-87.25
X196.0Y-88.75
X196.0Y-90.25
X196.0Y-91.75
X196.0Y-93.25
X197.25Y-69.25
X197.25Y-70.75
X197.25Y-72.25
X197.25Y-73.75
X197.5Y-79.75
X197.5Y-81.25
X197.5Y-87.25
X197.5Y-88.75
X197.5Y-90.25
X197.5Y-91.75
X197.5Y-93.25
X198.0Y-68.0
X198.75Y-69.25
X198.75Y-70.75
X198.75Y-72.25
X198.75Y-73.75
X199.0Y-79.75
X199.0Y-81.25
X199.0Y-82.75
X199.0Y-85.75
X199.0Y-87.25
X199.0Y-88.75
X199.0Y-90.25
X199.0Y-91.75
X199.0Y-93.25
X199.5Y-68.0
X200.25Y-69.25
X200.25Y-70.75
X200.25Y-72.25
X200.25Y-73.75
X200.5Y-79.75
X200.5Y-81.25
X200.5Y-82.75
X200.5Y-84.25
X200.5Y-85.75
X200.5Y-87.25
X200.5Y-88.75
X200.5Y-90.25
X200.5Y-91.75
X200.5Y-93.25
X201.0Y-68.0
X201.75Y-69.25
X201.75Y-70.75
X201.75Y-72.25
X201.75Y-73.75
X202.5Y-68.0
X203.25Y-69.25
X203.25Y-70.75
X203.25Y-72.25
X203.25Y-73.75
X204.0Y-68.0
X204.75Y-69.25
X204.75Y-70.75
X204.75Y-72.25
X204.75Y-73.75
T5
X213.41Y-130.04
X213.41Y-137.66
X215.95Y-130.04
X215.95Y-137.66
X218.49Y-130.04
X218.49Y-137.66
T6
X208.0Y-83.0
X210.5Y-83.0
X204.75Y-130.35
X207.25Y-130.35
X151.5Y-75.75
X156.5Y-75.75
X180.75Y-131.25
X182.25Y-131.25
X183.75Y-131.25
X185.25Y-131.25
X186.75Y-131.25
X188.25Y-131.25
X189.75Y-131.25
X191.25Y-131.25
X192.75Y-131.25
X208.5Y-98.6
X211.0Y-98.6
T7
X181.2Y-135.75
X183.7Y-135.75
X186.2Y-135.75
X188.7Y-135.75
X211.75Y-118.5
X211.75Y-121.0
X211.75Y-123.5
X211.75Y-126.0
X156.75Y-138.42
X156.75Y-140.96
X156.75Y-143.5
X155.2Y-125.65
X155.2Y-128.15
X155.2Y-130.65
X155.2Y-133.15
X171.2Y-135.75
X173.7Y-135.75
X176.2Y-135.75
X217.75Y-82.75
X217.75Y-85.25
X147.8Y-137.45
X150.34Y-137.45
X155.2Y-113.15
X155.2Y-115.65
X155.2Y-118.15
X155.2Y-120.65
X193.7Y-135.75
X196.2Y-135.75
X198.7Y-135.75
X201.2Y-135.75
X209.1Y-104.18
X209.1Y-106.72
X209.1Y-109.26
X209.1Y-111.8
X161.15Y-135.75
X163.65Y-135.75
X166.15Y-135.75
T8
X163.65Y-142.25
X173.7Y-142.25
T9
X184.95Y-142.25
X218.25Y-122.25
X148.7Y-129.4
X148.7Y-116.9
X197.45Y-142.25
T10
X149.0Y-67.0
X149.0Y-142.0
X218.0Y-67.0
X218.0Y-142.0
T11
X150.5Y-97.5
X157.5Y-97.5
X150.5Y-89.25
X157.5Y-89.25
X189.75Y-84.25
X196.75Y-84.25
X168.75Y-84.25
X175.75Y-84.25
T0
M30
