M48
; DRILL file {KiCad (5.1.5)-3} date 2020/03/06 15:52:20
; FORMAT={-:-/ absolute / inch / decimal}
; #@! TF.CreationDate,2020-03-06T15:52:20+09:00
; #@! TF.GenerationSoftware,Kicad,Pcbnew,(5.1.5)-3
; #@! TF.FileFunction,Plated,1,2,PTH
FMAT,2
INCH
T1C0.0118
T2C0.0157
T3C0.0276
T4C0.0300
T5C0.0315
T6C0.0394
T7C0.0400
T8C0.0551
T9C0.0591
T10C0.1181
T11C0.1772
T12C0.2559
%
G90
G05
T1
X4.1154Y-5.0787
X4.1154Y-5.2756
X4.5701Y-5.6937
X4.6114Y-5.65
X4.6303Y-5.8543
X4.6551Y-5.4161
X4.6823Y-5.4244
X4.7315Y-5.6004
X4.7323Y-5.5413
X4.7429Y-4.5768
X4.8642Y-6.5335
X4.8803Y-4.5209
X4.8819Y-5.7598
X4.8819Y-6.4358
X4.8988Y-5.374
X4.9177Y-5.0996
X4.9307Y-4.5083
X4.9508Y-5.7902
X4.9831Y-5.3839
X5.0539Y-4.5374
X5.0787Y-4.1831
X5.0964Y-5.618
X5.1193Y-6.2748
X5.1414Y-5.5745
X5.1484Y-5.2669
X5.1575Y-4.1831
X5.1715Y-5.3579
X5.2017Y-6.0038
X5.2362Y-5.6823
X5.2618Y-5.5374
X5.374Y-4.0551
X5.4134Y-5.2067
X5.4286Y-6.3942
X5.4331Y-6.3646
X5.4705Y-6.4815
X5.4724Y-5.5138
X5.748Y-6.5728
T2
X1.9291Y-6.6339
X1.939Y-5.5118
X1.939Y-5.5906
X1.939Y-5.6693
X1.939Y-5.748
X1.939Y-5.8268
X1.939Y-5.9055
X1.939Y-5.9843
X1.939Y-6.063
X1.939Y-6.1417
X1.939Y-6.2205
X1.939Y-6.2992
X1.939Y-6.378
X1.939Y-6.4567
X1.9685Y-5.5512
X1.9685Y-5.5512
X1.9685Y-5.5512
X1.9685Y-5.6299
X1.9685Y-5.7087
X1.9685Y-5.7874
X1.9685Y-5.8661
X1.9685Y-5.9449
X1.9685Y-6.0236
X1.9685Y-6.1024
X1.9685Y-6.1811
X1.9685Y-6.2598
X1.9685Y-6.3386
X1.9685Y-6.4173
X1.9685Y-6.4961
X1.998Y-5.5118
X1.998Y-5.5906
X1.998Y-5.6693
X1.998Y-5.9055
X1.998Y-5.9843
X1.998Y-6.063
X1.998Y-6.2992
X1.998Y-6.378
X1.998Y-6.4567
X2.0276Y-5.5512
X2.0276Y-5.6299
X2.0276Y-5.9449
X2.0276Y-6.0236
X2.0276Y-6.3386
X2.0276Y-6.4173
X2.0276Y-6.4961
X2.0571Y-5.5118
X2.0571Y-5.5906
X2.0571Y-5.9055
X2.0571Y-5.9843
X2.0571Y-6.063
X2.0571Y-6.378
X2.0571Y-6.4567
X2.0591Y-6.626
X2.0866Y-5.5512
X2.0866Y-5.6299
X2.0866Y-5.9449
X2.0866Y-6.0236
X2.0866Y-6.3386
X2.0866Y-6.4173
X2.0866Y-6.4961
X2.1161Y-5.5118
X2.1161Y-5.5906
X2.1161Y-5.9055
X2.1161Y-5.9843
X2.1161Y-6.063
X2.1161Y-6.378
X2.1161Y-6.4567
X2.1457Y-5.5512
X2.1457Y-5.6299
X2.1457Y-5.9449
X2.1457Y-6.0236
X2.1457Y-6.3386
X2.1457Y-6.4173
X2.1457Y-6.4961
X2.1654Y-6.6831
X2.1654Y-6.8504
X2.174Y-5.5913
X2.1752Y-3.9469
X2.1752Y-4.0256
X2.1752Y-4.1043
X2.1752Y-5.5118
X2.1752Y-5.6693
X2.1752Y-5.9055
X2.1752Y-5.9843
X2.1752Y-6.063
X2.1752Y-6.2992
X2.1752Y-6.378
X2.1752Y-6.4567
X2.2047Y-3.9075
X2.2047Y-3.9862
X2.2047Y-4.065
X2.2047Y-4.1437
X2.2047Y-5.5512
X2.2047Y-5.6299
X2.2047Y-5.7087
X2.2047Y-5.8661
X2.2047Y-5.9449
X2.2047Y-6.0236
X2.2047Y-6.1024
X2.2047Y-6.3386
X2.2047Y-6.4173
X2.2047Y-6.4961
X2.2343Y-3.9469
X2.2343Y-4.0256
X2.2343Y-4.1043
X2.2343Y-5.5118
X2.2343Y-5.5906
X2.2343Y-5.6693
X2.2343Y-5.748
X2.2343Y-5.8268
X2.2343Y-5.9055
X2.2343Y-5.9843
X2.2343Y-6.063
X2.2343Y-6.1417
X2.2343Y-6.2205
X2.2343Y-6.2992
X2.2343Y-6.378
X2.2638Y-3.9075
X2.2638Y-3.9862
X2.2638Y-4.065
X2.2638Y-4.1437
X2.2638Y-5.5512
X2.2638Y-5.6299
X2.2638Y-5.7087
X2.2638Y-5.7874
X2.2638Y-5.8661
X2.2638Y-5.9449
X2.2638Y-6.0236
X2.2638Y-6.1024
X2.2638Y-6.1811
X2.2638Y-6.2598
X2.2638Y-6.3386
X2.2933Y-3.9469
X2.2933Y-5.5118
X2.2933Y-5.5906
X2.2933Y-5.6693
X2.2933Y-5.748
X2.2933Y-5.8268
X2.2933Y-5.9055
X2.2933Y-5.9843
X2.2933Y-6.063
X2.2933Y-6.1417
X2.2933Y-6.2205
X2.2933Y-6.2992
X2.3228Y-3.9075
X2.3228Y-4.1437
X2.3327Y-6.8504
X2.3819Y-3.9075
X2.3819Y-4.1437
X2.4114Y-3.9469
X2.4409Y-3.9075
X2.4409Y-4.1437
X2.4606Y-6.5059
X2.4705Y-3.9469
X2.4705Y-4.0256
X2.4705Y-4.1043
X2.5Y-3.9075
X2.5Y-3.9862
X2.5Y-4.065
X2.5Y-4.1437
X2.5Y-6.8504
X2.5295Y-3.9469
X2.5295Y-4.0256
X2.5295Y-4.1043
X2.5382Y-6.5846
X2.5591Y-3.9075
X2.5591Y-3.9862
X2.5591Y-4.065
X2.5591Y-4.1437
X2.628Y-6.5059
X2.6673Y-6.6634
X2.6673Y-6.8504
X2.7461Y-5.8957
X2.7461Y-6.0531
X2.7461Y-6.2008
X2.7461Y-6.3681
X2.8346Y-6.6634
X2.8346Y-6.8504
X2.874Y-4.4291
X2.8909Y-4.2028
X2.8909Y-4.315
X2.8937Y-6.5354
X2.9232Y-5.8957
X2.9232Y-6.0531
X2.9232Y-6.2008
X2.9232Y-6.3681
X2.9528Y-4.4094
X3.002Y-6.6634
X3.002Y-6.8504
X3.0315Y-3.9075
X3.0315Y-3.9862
X3.0315Y-4.065
X3.0315Y-4.1437
X3.061Y-3.9469
X3.061Y-4.0256
X3.061Y-4.1043
X3.061Y-5.8957
X3.0807Y-6.5354
X3.0906Y-3.9075
X3.0906Y-3.9862
X3.0906Y-4.065
X3.0906Y-4.1437
X3.1201Y-3.9469
X3.1201Y-4.0256
X3.1201Y-4.1043
X3.1496Y-3.9075
X3.1496Y-3.9862
X3.1496Y-4.065
X3.1496Y-4.1437
X3.1594Y-6.4469
X3.1594Y-6.7028
X3.1594Y-6.8504
X3.1791Y-3.9469
X3.1791Y-4.1043
X3.2087Y-3.9075
X3.2087Y-4.1437
X3.2185Y-5.8957
X3.2677Y-3.9075
X3.2677Y-4.1437
X3.3071Y-3.9469
X3.3071Y-6.5256
X3.3268Y-6.4469
X3.3268Y-6.8504
X3.3366Y-3.9075
X3.3366Y-4.1437
X3.3661Y-3.9469
X3.3661Y-4.0256
X3.3661Y-4.1043
X3.376Y-5.8957
X3.376Y-6.0236
X3.3957Y-3.9075
X3.3957Y-3.9862
X3.3957Y-4.065
X3.3957Y-4.1437
X3.4154Y-6.2992
X3.4252Y-3.9469
X3.4252Y-4.0256
X3.4252Y-4.1043
X3.4547Y-3.9075
X3.4547Y-3.9862
X3.4547Y-4.065
X3.4547Y-4.1437
X3.4941Y-6.1713
X3.4941Y-6.2992
X3.4941Y-6.4173
X3.4941Y-6.5846
X3.4941Y-6.7028
X3.4941Y-6.8504
X3.5433Y-5.8957
X3.6516Y-6.0925
X3.6614Y-6.3878
X3.6614Y-6.5846
X3.6614Y-6.7028
X3.6614Y-6.8504
X3.7575Y-4.8492
X3.7579Y-5.5913
X3.7992Y-3.9075
X3.7992Y-3.9862
X3.7992Y-4.065
X3.7992Y-4.439
X3.8031Y-4.3154
X3.8063Y-4.2028
X3.8287Y-3.9469
X3.8287Y-4.0256
X3.8287Y-4.1043
X3.8287Y-6.8504
X3.8386Y-6.5846
X3.8386Y-6.7028
X3.8583Y-3.9075
X3.8583Y-4.065
X3.8583Y-6.2008
X3.8681Y-5.9055
X3.8681Y-6.0039
X3.8791Y-4.5591
X3.887Y-4.4157
X3.8878Y-4.1043
X3.9173Y-3.9075
X3.9173Y-4.065
X3.9181Y-6.5264
X3.9272Y-6.25
X3.9272Y-6.378
X3.9358Y-5.7972
X3.9469Y-4.1043
X3.9764Y-3.9075
X3.9764Y-3.9862
X3.9764Y-4.065
X3.9961Y-5.4894
X3.9961Y-5.7008
X3.9961Y-5.876
X3.9961Y-5.9449
X3.9961Y-6.1024
X3.9961Y-6.5846
X3.9961Y-6.7028
X3.9961Y-6.8504
X4.0028Y-4.5319
X4.0059Y-3.9469
X4.0059Y-4.0256
X4.0059Y-4.1043
X4.0157Y-4.4472
X4.0354Y-3.9075
X4.0354Y-3.9862
X4.0354Y-4.065
X4.0354Y-4.9114
X4.1205Y-5.7919
X4.122Y-6.2455
X4.122Y-6.4809
X4.1224Y-4.6154
X4.1441Y-4.5764
X4.1634Y-5.6791
X4.1634Y-5.7382
X4.1634Y-5.876
X4.1634Y-5.9449
X4.1634Y-6.1024
X4.1634Y-6.3878
X4.1634Y-6.437
X4.1634Y-6.5748
X4.1634Y-6.7028
X4.1634Y-6.8504
X4.2382Y-4.3894
X4.2382Y-4.5154
X4.2433Y-4.1925
X4.2433Y-4.2909
X4.3307Y-4.3996
X4.3307Y-4.5177
X4.3307Y-4.6752
X4.3307Y-4.8327
X4.3307Y-5.4626
X4.3307Y-5.5807
X4.3307Y-5.7382
X4.3307Y-5.9449
X4.3307Y-6.1024
X4.3307Y-6.5453
X4.3307Y-6.7028
X4.3307Y-6.8602
X4.3327Y-5.1516
X4.3504Y-4.2618
X4.3799Y-5.2854
X4.3799Y-5.374
X4.398Y-5.1807
X4.3996Y-4.9988
X4.3996Y-5.4547
X4.4291Y-4.1929
X4.4311Y-4.8744
X4.439Y-6.2795
X4.4488Y-5.0394
X4.4488Y-5.128
X4.4685Y-4.2717
X4.4685Y-4.3799
X4.4685Y-4.5177
X4.4685Y-4.5866
X4.4882Y-4.9311
X4.498Y-5.9449
X4.498Y-6.2598
X4.498Y-6.5453
X4.498Y-6.8602
X4.5098Y-5.7972
X4.5177Y-5.2866
X4.5189Y-6.4764
X4.5276Y-5.4134
X4.5295Y-4.3602
X4.5374Y-4.1929
X4.5571Y-5.7382
X4.5669Y-4.8819
X4.5768Y-4.5177
X4.5768Y-4.5866
X4.5965Y-5.128
X4.626Y-4.9409
X4.626Y-6.7028
X4.6358Y-4.7441
X4.6555Y-4.1929
X4.6555Y-6.8602
X4.6654Y-4.8819
X4.6654Y-5.2866
X4.6654Y-5.9449
X4.6654Y-6.2598
X4.6752Y-4.3406
X4.6752Y-4.5866
X4.6949Y-4.4409
X4.7185Y-5.2559
X4.7244Y-5.128
X4.7441Y-4.6752
X4.7539Y-4.1929
X4.7638Y-4.9705
X4.7797Y-5.3194
X4.7797Y-5.3194
X4.7933Y-5.128
X4.8031Y-5.5118
X4.8031Y-5.6496
X4.813Y-6.8602
X4.8228Y-4.3406
X4.8228Y-6.565
X4.8303Y-4.3988
X4.8425Y-5.0492
X4.8425Y-6.4665
X4.8524Y-5.4134
X4.8622Y-4.5669
X4.8622Y-4.6752
X4.8819Y-4.9705
X4.8819Y-5.5906
X4.8917Y-5.7087
X4.9213Y-5.4823
X4.9311Y-4.1437
X4.9705Y-6.8602
X4.9803Y-4.124
X4.9807Y-4.287
X4.9823Y-5.0886
X4.9902Y-5.8957
X5.0098Y-6.4665
X5.0098Y-6.5945
X5.0169Y-4.8228
X5.0197Y-5.4331
X5.0303Y-4.3902
X5.0492Y-6.7224
X5.0492Y-6.8012
X5.0591Y-5.6594
X5.0689Y-6.5945
X5.0787Y-4.5965
X5.1181Y-4.3209
X5.128Y-6.8602
X5.1543Y-3.8957
X5.1543Y-3.9961
X5.1543Y-4.0984
X5.1575Y-6.2894
X5.1772Y-5.0886
X5.185Y-6.5945
X5.1929Y-4.3579
X5.1969Y-5.7677
X5.2323Y-6.6063
X5.2657Y-4.3433
X5.2657Y-6.2894
X5.2854Y-6.8602
X5.3043Y-6.6508
X5.3248Y-6.3484
X5.3642Y-6.4469
X5.374Y-4.3996
X5.3937Y-4.1732
X5.3937Y-6.063
X5.3949Y-6.6043
X5.4232Y-5.9252
X5.4291Y-4.8878
X5.4291Y-4.9925
X5.4331Y-5.5217
X5.4331Y-5.6988
X5.4429Y-6.8602
X5.4626Y-6.2992
X5.4724Y-6.6732
X5.4823Y-4.0878
X5.4823Y-4.2681
X5.5413Y-4.9856
X5.5512Y-6.1122
X5.5512Y-6.5748
X5.5606Y-5.389
X5.561Y-5.0689
X5.561Y-5.2264
X5.561Y-5.4823
X5.561Y-6.8209
X5.5709Y-4.065
X5.5709Y-5.7972
X5.5709Y-5.9449
X5.5709Y-6.6732
X5.5906Y-4.2795
X5.6102Y-4.4882
X5.6102Y-5.3366
X5.6201Y-4.8307
X5.6201Y-5.8169
X5.6201Y-6.1102
X5.6299Y-4.124
X5.6299Y-6.1713
X5.6693Y-5.0984
X5.6693Y-6.2697
X5.6693Y-6.3878
X5.6693Y-6.4961
X5.6693Y-6.5846
X5.6791Y-5.9055
X5.6791Y-5.9547
X5.7087Y-4.1339
X5.7283Y-5.1181
X5.748Y-5.9055
X5.748Y-5.9547
X5.7874Y-4.1142
X5.7874Y-4.4685
X5.7874Y-5.6004
X5.7874Y-5.7185
X5.7874Y-5.8366
X5.7874Y-5.9941
X5.7874Y-6.1516
X5.7874Y-6.3091
X5.7972Y-6.4469
T3
X5.6102Y-6.2992
X5.6102Y-6.3583
X5.6102Y-6.4173
X5.6102Y-6.4764
X5.6102Y-6.5354
X5.6102Y-6.5945
T4
X4.685Y-3.8976
X4.685Y-4.0976
X4.785Y-3.8976
X4.785Y-4.0976
X5.085Y-3.8976
X5.085Y-4.0976
X4.9886Y-5.1575
X5.0886Y-5.1575
X5.1886Y-5.1575
X4.9886Y-5.0157
X5.0886Y-5.0157
X5.1886Y-5.0157
T5
X4.7244Y-4.9016
X4.7835Y-4.9016
X4.8425Y-4.9016
X4.9016Y-4.9016
X4.9606Y-4.9016
X5.0197Y-4.9016
X5.0787Y-4.9016
X5.1378Y-4.9016
X5.1969Y-4.9016
X5.3484Y-5.7539
X5.3484Y-5.8524
X5.3484Y-5.9508
X3.3406Y-6.6043
X3.3406Y-6.7028
X4.6795Y-6.6445
X4.6795Y-6.7823
T6
X5.6988Y-5.7283
X5.6988Y-5.8268
X5.6988Y-6.0236
X5.6988Y-6.122
X5.6988Y-4.7441
X5.6988Y-4.8425
X5.6988Y-4.9409
X5.6988Y-5.0394
X4.1535Y-3.9764
X4.252Y-3.9764
X4.4488Y-3.9764
X4.5472Y-3.9764
X5.1181Y-6.5059
X5.2165Y-6.5059
X5.315Y-6.5059
X5.4134Y-6.5059
X5.6988Y-5.2362
X5.6988Y-5.3346
X5.6988Y-5.4331
X5.6988Y-5.5315
X2.2343Y-6.7618
X2.3327Y-6.7618
X5.1181Y-6.7618
X5.2165Y-6.7618
X5.315Y-6.7618
X5.4134Y-6.7618
T7
X1.9783Y-4.4291
X2.0783Y-4.4291
X5.6382Y-4.5571
X5.7382Y-4.5571
T9
X3.6122Y-5.9878
X3.6122Y-6.2878
X3.6122Y-6.4878
X4.4122Y-5.9878
X4.4122Y-6.3878
X4.4122Y-6.7878
T10
X2.0079Y-3.9764
X2.0079Y-6.7717
X5.7087Y-3.9764
X5.7087Y-6.7717
X3.8976Y-3.9961
T11
X3.2579Y-4.0354
X3.2579Y-4.311
X2.3622Y-4.0354
X2.3622Y-4.311
T12
X2.0965Y-5.7677
X2.5295Y-5.7677
X2.0965Y-6.1909
X2.5295Y-6.1909
T3
G00X4.628Y-4.8189
M15
G01X4.6634Y-4.8189
M16
G05
G00X5.2579Y-4.8189
M15
G01X5.2933Y-4.8189
M16
G05
T8
G00X2.1772Y-5.0118
M15
G01X2.1772Y-4.9094
M16
G05
G00X2.561Y-4.6299
M15
G01X2.4587Y-4.6299
M16
G05
G00X2.5098Y-5.3858
M15
G01X2.5098Y-5.2835
M16
G05
G00X2.8425Y-5.0118
M15
G01X2.8425Y-4.9094
M16
G05
G00X3.2323Y-5.0118
M15
G01X3.2323Y-4.9094
M16
G05
G00X3.6161Y-4.6299
M15
G01X3.5138Y-4.6299
M16
G05
G00X3.565Y-5.3858
M15
G01X3.565Y-5.2835
M16
G05
G00X3.8976Y-5.0118
M15
G01X3.8976Y-4.9094
M16
G05
T0
M30
