M48
; DRILL file {KiCad (5.1.4)-1} date 2019/11/04 15:24:07
; FORMAT={-:-/ absolute / inch / decimal}
; #@! TF.CreationDate,2019-11-04T15:24:07+09:00
; #@! TF.GenerationSoftware,Kicad,Pcbnew,(5.1.4)-1
; #@! TF.FileFunction,Plated,1,2,PTH
FMAT,2
INCH
T1C0.0118
T2C0.0157
T3C0.0197
T4C0.0276
T5C0.0295
T6C0.0315
T7C0.0320
T8C0.0394
T9C0.1181
T10C0.1772
%
G90
G05
T1
X3.3445Y-4.9611
X3.3858Y-3.8681
X3.4055Y-3.9454
X3.4071Y-4.7398
X3.4301Y-4.7907
X3.4843Y-3.8681
X3.5335Y-4.9611
X3.5449Y-4.0606
X3.563Y-2.9744
X3.563Y-3.122
X3.6024Y-3.8681
X3.6057Y-3.9409
X3.6557Y-3.9409
X3.6811Y-3.8681
X3.7795Y-3.8681
X3.8098Y-3.9594
X3.8386Y-4.9611
X3.8744Y-2.7953
X3.8787Y-2.2795
X3.887Y-4.2433
X3.888Y-3.9409
X3.9142Y-4.2661
X3.9165Y-3.8685
X3.9224Y-4.0606
X3.9665Y-4.7256
X3.998Y-4.7028
X4.0177Y-3.2185
X4.0194Y-4.5889
X4.0219Y-4.4111
X4.0239Y-4.39
X4.0276Y-4.9611
X4.0588Y-4.6282
X4.079Y-4.329
X4.088Y-3.9409
X4.1043Y-4.3602
X4.138Y-3.9409
X4.1912Y-4.5765
X4.2091Y-2.2638
X4.2091Y-2.7953
X4.2244Y-3.0827
X4.2244Y-3.122
X4.2343Y-4.748
X4.2529Y-4.1805
X4.263Y-4.5484
X4.2665Y-4.5173
X4.2694Y-4.6041
X4.2734Y-4.7533
X4.2913Y-3.9157
X4.3Y-4.2413
X4.3134Y-4.3594
X4.3228Y-3.2343
X4.326Y-4.2846
X4.3311Y-4.5421
X4.3423Y-4.2579
X4.349Y-3.0689
X4.3514Y-3.1036
X4.352Y-3.0114
X4.3549Y-4.5176
X4.3614Y-4.3594
X4.3622Y-3.2106
X4.3713Y-4.2843
X4.3722Y-3.9429
X4.3844Y-4.4974
X4.4052Y-4.4663
X4.4157Y-4.178
X4.439Y-4.3587
X4.4466Y-4.4269
X4.4473Y-4.6791
X4.4473Y-4.7382
X4.4473Y-4.7972
X4.4529Y-4.0755
X4.5138Y-3.1673
X4.5177Y-4.2082
X4.548Y-4.4654
X4.5531Y-4.1094
X4.5781Y-4.2087
X4.589Y-4.3374
X4.5984Y-4.3642
X4.613Y-4.1087
X4.6179Y-4.3856
X4.6355Y-4.2082
X4.6358Y-4.1462
X4.6465Y-4.3768
X4.667Y-4.2461
X4.6717Y-2.7953
X4.6717Y-2.2756
X4.6774Y-4.54
X4.6982Y-4.1462
X4.7Y-4.5035
X4.7622Y-4.2146
X4.7677Y-4.3642
X4.7933Y-4.1634
X4.7972Y-3.9075
X4.8248Y-3.2185
X4.8406Y-4.3016
X4.8417Y-4.2508
X4.8543Y-4.2756
X4.8545Y-3.9429
X4.9185Y-4.2789
X4.9197Y-4.2512
X4.9866Y-2.7953
X4.9886Y-2.2776
X5.0045Y-3.9429
X5.029Y-4.4187
X5.0545Y-3.9429
X5.076Y-4.1803
X5.0961Y-4.1528
X5.1045Y-3.9429
X5.2392Y-4.1006
X5.2516Y-4.0457
X5.2938Y-4.1732
X5.2953Y-3.1973
X5.2992Y-3.4055
X5.3661Y-4.1228
X5.3872Y-3.6358
X5.4469Y-5.0787
X5.4626Y-3.3888
X5.4626Y-3.4956
X5.4732Y-3.2717
X5.5217Y-3.3888
X5.5217Y-3.4956
X5.5262Y-3.6358
X5.5262Y-3.8839
X5.5368Y-3.9429
X5.5575Y-3.3949
X5.5807Y-3.4956
X5.6275Y-3.3465
X5.7003Y-3.4921
T2
X2.8839Y-3.878
X2.8839Y-4.0748
X2.8839Y-4.2717
X2.8839Y-4.4685
X2.8839Y-4.6752
X2.8839Y-4.872
X2.8839Y-5.0591
X2.8839Y-5.2362
X2.9921Y-5.2067
X3.0118Y-3.878
X3.0118Y-4.0059
X3.0118Y-4.2717
X3.0118Y-4.4685
X3.0118Y-4.6752
X3.0118Y-4.872
X3.0118Y-5.0591
X3.0657Y-4.2173
X3.1004Y-5.2756
X3.1004Y-5.4331
X3.1201Y-4.872
X3.1201Y-5.0591
X3.1201Y-5.187
X3.1314Y-4.065
X3.1334Y-4.5551
X3.1398Y-3.878
X3.1398Y-4.0059
X3.189Y-4.3307
X3.189Y-4.3996
X3.2185Y-4.872
X3.2382Y-5.0197
X3.2776Y-5.3051
X3.2874Y-4.3307
X3.2874Y-4.3996
X3.2874Y-5.4331
X3.2972Y-3.878
X3.2972Y-4.0059
X3.2972Y-4.1142
X3.3071Y-4.7933
X3.3071Y-4.872
X3.339Y-4.6906
X3.376Y-3.372
X3.376Y-4.3209
X3.376Y-4.7933
X3.376Y-4.872
X3.435Y-4.065
X3.4646Y-4.2224
X3.4646Y-4.3209
X3.4744Y-4.9114
X3.4843Y-5.3051
X3.4843Y-5.4331
X3.5057Y-3.9409
X3.5531Y-3.878
X3.5531Y-4.3209
X3.5827Y-4.7047
X3.5827Y-4.7933
X3.5827Y-4.9114
X3.5827Y-5.0295
X3.5827Y-5.1476
X3.5965Y-3.1457
X3.6201Y-3.3642
X3.6319Y-4.2239
X3.6319Y-5.0295
X3.6319Y-5.1476
X3.6535Y-5.2677
X3.6581Y-4.5674
X3.6811Y-5.315
X3.6811Y-5.4331
X3.6909Y-4.3701
X3.7286Y-4.328
X3.7303Y-5.0295
X3.7557Y-3.5195
X3.7697Y-4.5669
X3.8228Y-4.3642
X3.8386Y-5.187
X3.853Y-3.3872
X3.8583Y-4.1535
X3.8858Y-4.3031
X3.8878Y-5.4331
X3.8976Y-5.3051
X3.9114Y-4.7913
X3.937Y-4.0945
X3.937Y-5.187
X3.9567Y-4.6795
X3.9665Y-4.3996
X3.988Y-3.9409
X4.0059Y-4.1535
X4.0217Y-3.1068
X4.0217Y-3.1688
X4.0256Y-4.9016
X4.0354Y-4.0157
X4.0374Y-5.2343
X4.0453Y-5.1181
X4.0748Y-5.315
X4.0748Y-5.4331
X4.0803Y-4.6685
X4.0923Y-3.3889
X4.0945Y-5.187
X4.1043Y-4.0945
X4.124Y-4.8031
X4.128Y-4.9508
X4.1461Y-3.2307
X4.1492Y-4.5437
X4.1606Y-3.0773
X4.1634Y-4.848
X4.1732Y-4.2717
X4.2106Y-4.1004
X4.2224Y-4.9114
X4.2254Y-4.7943
X4.2295Y-4.0319
X4.2323Y-5.187
X4.238Y-3.5195
X4.2433Y-3.84
X4.252Y-5.3051
X4.2528Y-3.963
X4.2677Y-4.4272
X4.2717Y-5.4331
X4.2815Y-4.7047
X4.3028Y-4.0496
X4.3071Y-4.5118
X4.3165Y-3.84
X4.3238Y-5.0571
X4.3238Y-5.185
X4.324Y-3.9469
X4.3366Y-3.3878
X4.376Y-4.124
X4.376Y-4.4291
X4.4047Y-3.1807
X4.4252Y-5.186
X4.4722Y-3.9429
X4.4882Y-4.6161
X4.5079Y-5.187
X4.5079Y-5.315
X4.5079Y-5.4331
X4.5374Y-5.0591
X4.5374Y-5.1378
X4.5528Y-3.8764
X4.5571Y-4.0453
X4.5689Y-3.9454
X4.5917Y-4.5827
X4.6063Y-5.0591
X4.6063Y-5.1378
X4.6222Y-3.9429
X4.6358Y-4.7244
X4.6403Y-3.3169
X4.6457Y-4.9508
X4.6654Y-4.0157
X4.6709Y-3.8764
X4.676Y-3.828
X4.7047Y-5.187
X4.7047Y-5.3051
X4.7047Y-5.4331
X4.7222Y-3.5258
X4.7222Y-3.9429
X4.7343Y-4.7244
X4.7638Y-4.0551
X4.7736Y-4.4587
X4.8031Y-4.6161
X4.8228Y-3.1088
X4.8228Y-3.1708
X4.8327Y-4.7441
X4.8425Y-4.1732
X4.8765Y-3.3169
X4.8917Y-4.0157
X4.9114Y-5.187
X4.9114Y-5.315
X4.9114Y-5.4331
X4.9213Y-4.4587
X4.9311Y-5.0591
X4.9311Y-5.1378
X4.9409Y-4.3406
X4.9508Y-4.7539
X4.9545Y-3.9429
X4.9882Y-3.0898
X4.9886Y-3.2484
X5.0Y-4.0157
X5.0Y-5.0591
X5.0Y-5.1378
X5.0098Y-4.5079
X5.0098Y-4.6161
X5.0197Y-4.1732
X5.0374Y-4.9508
X5.0394Y-4.7539
X5.0492Y-4.311
X5.0787Y-3.3209
X5.1083Y-5.187
X5.1083Y-5.2953
X5.1083Y-5.4331
X5.124Y-3.2323
X5.1378Y-4.5079
X5.1969Y-4.8819
X5.2045Y-3.5258
X5.2165Y-4.0256
X5.2165Y-4.4193
X5.2303Y-4.5571
X5.2409Y-4.9516
X5.2559Y-4.6161
X5.2559Y-4.7835
X5.2598Y-2.5728
X5.2756Y-3.937
X5.2756Y-4.9213
X5.3012Y-2.937
X5.3012Y-3.0669
X5.324Y-4.7831
X5.3248Y-4.4193
X5.3248Y-4.5079
X5.3248Y-4.6161
X5.3346Y-5.0
X5.3346Y-5.1476
X5.3346Y-5.2953
X5.3346Y-5.4331
X5.3372Y-3.6358
X5.3543Y-2.815
X5.3642Y-4.5655
X5.3642Y-4.7623
X5.374Y-4.2224
X5.374Y-4.3209
X5.3898Y-3.2082
X5.4035Y-3.4336
X5.4035Y-4.9213
X5.4134Y-4.4193
X5.4134Y-4.5079
X5.4528Y-2.7953
X5.4651Y-2.9823
X5.502Y-4.9213
X5.5217Y-4.0846
X5.5217Y-4.2815
X5.5217Y-4.4783
X5.5217Y-4.6555
X5.5315Y-5.1673
X5.5315Y-5.2657
X5.5315Y-5.4331
X5.5389Y-2.9823
X5.6299Y-4.0846
X5.6299Y-4.2815
X5.6299Y-4.4783
X5.6299Y-4.6555
X5.6299Y-4.872
X5.6299Y-5.0295
X5.6324Y-3.4264
X5.6594Y-5.1673
X5.6988Y-3.9454
X5.7776Y-3.8878
X5.7776Y-4.0846
X5.7776Y-4.2815
X5.7776Y-4.4783
X5.7776Y-4.6752
X5.7776Y-4.872
X5.7776Y-5.0295
X5.7776Y-5.1673
T3
X3.6516Y-2.4783
X3.6516Y-2.5177
X3.6516Y-2.5571
X3.6516Y-2.5965
X3.6516Y-2.6358
X3.6516Y-2.6752
X3.6516Y-2.7146
X3.6516Y-2.7539
X3.6516Y-2.7933
X3.6909Y-2.4783
X3.6909Y-2.5177
X3.6909Y-2.5571
X3.6909Y-2.7146
X3.6909Y-2.7539
X3.6909Y-2.7933
X3.7303Y-2.3602
X3.7303Y-2.3996
X3.7303Y-2.439
X3.7303Y-2.4783
X3.7303Y-2.5177
X3.7303Y-2.7539
X3.7303Y-2.7933
X3.7402Y-2.8996
X3.7402Y-2.939
X3.7402Y-2.9783
X3.7402Y-3.0177
X3.7697Y-2.3602
X3.7697Y-2.3996
X3.7697Y-2.439
X3.7697Y-2.4783
X3.7697Y-2.5177
X3.7697Y-2.7539
X3.7697Y-2.7933
X3.7795Y-2.8996
X3.7795Y-2.939
X3.7795Y-2.9783
X3.7795Y-3.0177
X3.8091Y-2.3602
X3.8091Y-2.3996
X3.8091Y-2.439
X3.8091Y-2.4783
X3.8091Y-2.5177
X3.811Y-2.7539
X3.811Y-2.7933
X3.8189Y-2.8996
X3.8189Y-2.939
X3.8189Y-2.9783
X3.8189Y-3.0177
X3.8484Y-2.3602
X3.8484Y-2.3996
X3.8484Y-2.439
X3.8484Y-2.4783
X3.8484Y-2.5177
X3.8484Y-2.7343
X3.8583Y-2.8996
X3.8583Y-2.939
X3.8583Y-2.9783
X3.8583Y-3.0177
X3.8858Y-2.5768
X3.8858Y-2.6161
X3.8858Y-2.6555
X3.8878Y-2.3602
X3.8878Y-2.3996
X3.8878Y-2.439
X3.8878Y-2.4783
X3.8878Y-2.5177
X3.8898Y-2.6949
X3.8898Y-2.7343
X3.9606Y-2.7539
X3.9606Y-2.7933
X3.9803Y-2.4567
X3.9803Y-2.4961
X3.9803Y-2.5354
X4.0Y-2.7539
X4.0Y-2.7933
X4.0197Y-2.4567
X4.0197Y-2.4961
X4.0394Y-2.7539
X4.0394Y-2.7933
X4.0591Y-2.3386
X4.0591Y-2.378
X4.0591Y-2.4173
X4.0591Y-2.4567
X4.0591Y-2.4961
X4.0728Y-2.8642
X4.0728Y-2.9035
X4.0728Y-2.9429
X4.0728Y-2.9823
X4.0728Y-3.0217
X4.0787Y-2.7539
X4.0787Y-2.7933
X4.0984Y-2.3386
X4.0984Y-2.378
X4.0984Y-2.4173
X4.0984Y-2.4567
X4.0984Y-2.4961
X4.1122Y-2.8642
X4.1122Y-2.9035
X4.1122Y-2.9429
X4.1122Y-2.9823
X4.1122Y-3.0217
X4.1181Y-2.7539
X4.1181Y-2.7933
X4.1378Y-2.3386
X4.1378Y-2.378
X4.1378Y-2.4173
X4.1378Y-2.4567
X4.1378Y-2.4961
X4.1398Y-2.5354
X4.1516Y-2.8642
X4.1516Y-2.9035
X4.1516Y-2.9429
X4.1516Y-2.9823
X4.1516Y-3.0217
X4.1575Y-2.7539
X4.1575Y-2.7933
X4.1772Y-2.3386
X4.1772Y-2.378
X4.1772Y-2.4173
X4.1772Y-2.4567
X4.1772Y-2.4961
X4.1791Y-2.5354
X4.1791Y-2.5768
X4.1791Y-2.6161
X4.1791Y-2.6555
X4.1791Y-2.6929
X4.2165Y-2.3386
X4.2165Y-2.378
X4.2165Y-2.4173
X4.2165Y-2.4567
X4.2165Y-2.4961
X4.2185Y-2.5354
X4.2185Y-2.5748
X4.2185Y-2.6142
X4.2185Y-2.6535
X4.2185Y-2.6929
X4.4291Y-2.4409
X4.4291Y-2.4803
X4.4291Y-2.5197
X4.4291Y-2.5591
X4.4291Y-2.5984
X4.4291Y-2.6378
X4.4291Y-2.6772
X4.4291Y-2.7165
X4.4291Y-2.7559
X4.4291Y-2.7953
X4.4685Y-2.4409
X4.4685Y-2.4803
X4.4685Y-2.5197
X4.4685Y-2.7559
X4.4685Y-2.7953
X4.5079Y-2.4016
X4.5079Y-2.4409
X4.5079Y-2.4803
X4.5079Y-2.5197
X4.5079Y-2.7559
X4.5079Y-2.7953
X4.5354Y-2.8996
X4.5354Y-2.939
X4.5354Y-2.9783
X4.5354Y-3.0177
X4.5472Y-2.3622
X4.5472Y-2.4016
X4.5472Y-2.4409
X4.5472Y-2.4803
X4.5472Y-2.5197
X4.5472Y-2.7559
X4.5472Y-2.7953
X4.5748Y-2.8996
X4.5748Y-2.939
X4.5748Y-2.9783
X4.5748Y-3.0177
X4.5866Y-2.3622
X4.5866Y-2.4016
X4.5866Y-2.4409
X4.5866Y-2.4803
X4.5866Y-2.5197
X4.5866Y-2.7559
X4.5866Y-2.7953
X4.6142Y-2.8996
X4.6142Y-2.939
X4.6142Y-2.9783
X4.6142Y-3.0177
X4.626Y-2.3622
X4.626Y-2.4016
X4.626Y-2.4409
X4.626Y-2.4803
X4.626Y-2.5197
X4.626Y-2.7559
X4.6535Y-2.8996
X4.6535Y-2.939
X4.6535Y-2.9783
X4.6535Y-3.0177
X4.6654Y-2.3622
X4.6654Y-2.4016
X4.6654Y-2.4409
X4.6654Y-2.4803
X4.6654Y-2.5197
X4.6654Y-2.561
X4.6673Y-2.6949
X4.6673Y-2.7343
X4.7579Y-2.4803
X4.7579Y-2.5197
X4.7579Y-2.5591
X4.7579Y-2.748
X4.7579Y-2.7874
X4.7972Y-2.4016
X4.7972Y-2.4409
X4.7972Y-2.4803
X4.7972Y-2.5197
X4.7972Y-2.748
X4.7972Y-2.7874
X4.8366Y-2.3622
X4.8366Y-2.4016
X4.8366Y-2.4409
X4.8366Y-2.4803
X4.8366Y-2.5197
X4.8366Y-2.748
X4.8366Y-2.7874
X4.8465Y-2.8602
X4.8465Y-2.8996
X4.8465Y-2.939
X4.8465Y-2.9783
X4.8465Y-3.0177
X4.876Y-2.3622
X4.876Y-2.4016
X4.876Y-2.4409
X4.876Y-2.4803
X4.876Y-2.5197
X4.876Y-2.748
X4.876Y-2.7874
X4.8858Y-2.8602
X4.8858Y-2.8996
X4.8858Y-2.939
X4.8858Y-2.9783
X4.8858Y-3.0177
X4.9154Y-2.3622
X4.9154Y-2.4016
X4.9154Y-2.4409
X4.9154Y-2.4803
X4.9154Y-2.5197
X4.9154Y-2.748
X4.9154Y-2.7874
X4.9252Y-2.8602
X4.9252Y-2.8996
X4.9252Y-2.939
X4.9252Y-2.9783
X4.9252Y-3.0177
X4.9547Y-2.3622
X4.9547Y-2.4016
X4.9547Y-2.4409
X4.9547Y-2.4803
X4.9547Y-2.5197
X4.9547Y-2.5591
X4.9547Y-2.5984
X4.9547Y-2.6378
X4.9547Y-2.6772
X4.9547Y-2.7165
X4.9646Y-2.8996
X4.9646Y-2.939
X4.9646Y-2.9783
X4.9646Y-3.0177
X4.9941Y-2.3622
X4.9941Y-2.4016
X4.9941Y-2.4409
X4.9941Y-2.4803
X4.9941Y-2.5197
X4.9941Y-2.5591
X4.9941Y-2.5984
X4.9941Y-2.6378
X4.9941Y-2.6772
T4
X5.1181Y-4.5571
X5.1181Y-4.6161
X5.1181Y-4.6752
X5.1181Y-4.7343
X5.1181Y-4.7933
X5.1181Y-4.8524
T5
X2.9331Y-2.6378
X2.9331Y-2.6772
X2.9331Y-2.7362
X2.9331Y-2.7756
X2.9331Y-2.9724
X2.9331Y-3.0118
X2.9724Y-2.6378
X2.9724Y-2.6772
X2.9724Y-2.7362
X2.9724Y-2.9724
X2.9724Y-3.0118
X3.1004Y-2.6378
X3.1004Y-2.6772
X3.1004Y-2.7362
X3.1004Y-2.9724
X3.1004Y-3.0118
X3.1024Y-2.3543
X3.1024Y-2.3937
X3.1398Y-2.6378
X3.1398Y-2.6772
X3.1398Y-2.7362
X3.1398Y-2.7756
X3.1398Y-2.9724
X3.1398Y-3.0118
X3.1417Y-2.3543
X3.1417Y-2.3937
X3.2008Y-2.3563
X3.2008Y-2.3957
X3.2008Y-2.7224
X3.2008Y-2.7618
X3.2028Y-2.6378
X3.2028Y-2.6772
X3.2028Y-2.9705
X3.2028Y-3.0098
X3.2402Y-2.3563
X3.2402Y-2.3957
X3.2402Y-2.7224
X3.2402Y-2.7618
X3.2421Y-2.6378
X3.2421Y-2.6772
X3.2421Y-2.9705
X3.2421Y-3.0098
X3.2815Y-3.0098
X3.3386Y-2.6378
X3.3386Y-2.7224
X3.3386Y-3.0098
X3.378Y-2.6378
X3.378Y-2.6791
X3.378Y-2.7224
X3.378Y-2.7618
X3.378Y-2.9705
X3.378Y-3.0098
X3.3799Y-2.3563
X3.3819Y-2.3957
X3.4173Y-2.7224
X3.4173Y-2.7618
X3.4173Y-2.9705
X3.4173Y-3.0098
X3.4193Y-2.3563
X3.4193Y-2.6358
X3.4193Y-2.6791
X3.4213Y-2.3957
X3.4232Y-2.435
T6
X4.9114Y-2.0571
X4.9114Y-2.1555
X3.4921Y-4.6555
X3.4921Y-4.7539
T7
X5.1417Y-4.1953
X5.1417Y-4.2953
X5.1417Y-4.3953
T8
X3.2185Y-3.9665
X3.2185Y-4.065
X3.2185Y-4.1634
X3.2185Y-4.2618
X5.4429Y-4.0748
X5.4429Y-4.1732
X5.4429Y-4.2717
X5.4429Y-4.3701
X3.687Y-5.1083
X3.7854Y-5.1083
X3.8839Y-5.1083
X3.9823Y-5.1083
X3.0315Y-3.2382
X3.2283Y-3.2382
X5.6791Y-2.3425
X5.6791Y-2.4409
X5.0689Y-5.1043
X5.1673Y-5.1043
X5.2657Y-5.1043
X4.7598Y-4.5524
X4.7598Y-4.8524
X4.8598Y-4.5524
X4.8598Y-4.8524
X4.9598Y-4.5524
X4.9598Y-4.8524
X5.4429Y-4.5669
X5.4429Y-4.6654
X5.4429Y-4.7638
X5.4429Y-4.8622
X4.1791Y-5.1083
X4.2776Y-5.1083
X4.376Y-5.1083
X4.4744Y-5.1083
X3.1949Y-5.1083
X3.2933Y-5.1083
X3.3917Y-5.1083
X3.4902Y-5.1083
X2.9232Y-4.9508
X3.0232Y-4.9508
X4.6752Y-5.1043
X4.7736Y-5.1043
X4.872Y-5.1043
X3.2185Y-4.4587
X3.2185Y-4.5571
X3.2185Y-4.6555
X3.2185Y-4.7539
T9
X2.9724Y-2.126
X2.9724Y-5.3543
X5.689Y-2.126
X5.689Y-5.3543
X4.7736Y-5.3602
X2.9626Y-4.6063
X2.9626Y-4.1142
X5.6988Y-4.2224
X3.8346Y-5.3642
X5.1673Y-5.3602
X5.6988Y-4.7146
X4.3268Y-5.3642
X3.3425Y-5.3642
T10
X3.0413Y-2.8543
X3.3169Y-2.8543
X3.0413Y-2.5197
X3.3169Y-2.5197
X3.7795Y-2.628
X4.0551Y-2.628
X4.5669Y-2.6417
X4.8425Y-2.6417
T0
M30
