G04 #@! TF.GenerationSoftware,KiCad,Pcbnew,(5.1.5)-3*
G04 #@! TF.CreationDate,2020-04-14T12:05:06+09:00*
G04 #@! TF.ProjectId,CAN_BLDCMD,43414e5f-424c-4444-934d-442e6b696361,rev?*
G04 #@! TF.SameCoordinates,Original*
G04 #@! TF.FileFunction,Legend,Bot*
G04 #@! TF.FilePolarity,Positive*
%FSLAX46Y46*%
G04 Gerber Fmt 4.6, Leading zero omitted, Abs format (unit mm)*
G04 Created by KiCad (PCBNEW (5.1.5)-3) date 2020-04-14 12:05:06*
%MOMM*%
%LPD*%
G04 APERTURE LIST*
%ADD10C,0.150000*%
%ADD11C,0.200000*%
%ADD12C,0.100000*%
%ADD13C,0.120000*%
G04 APERTURE END LIST*
D10*
X185361904Y-122997619D02*
X185361904Y-122616666D01*
X184561904Y-122616666D01*
X185361904Y-120021428D02*
X184561904Y-120021428D01*
X184942857Y-120021428D02*
X184942857Y-120478571D01*
X185361904Y-120478571D02*
X184561904Y-120478571D01*
X225233333Y-126761904D02*
X225500000Y-126380952D01*
X225690476Y-126761904D02*
X225690476Y-125961904D01*
X225385714Y-125961904D01*
X225309523Y-126000000D01*
X225271428Y-126038095D01*
X225233333Y-126114285D01*
X225233333Y-126228571D01*
X225271428Y-126304761D01*
X225309523Y-126342857D01*
X225385714Y-126380952D01*
X225690476Y-126380952D01*
X224966666Y-125961904D02*
X224433333Y-126761904D01*
X224433333Y-125961904D02*
X224966666Y-126761904D01*
X225709523Y-123411904D02*
X225252380Y-123411904D01*
X225480952Y-124211904D02*
X225480952Y-123411904D01*
X225061904Y-123411904D02*
X224528571Y-124211904D01*
X224528571Y-123411904D02*
X225061904Y-124211904D01*
X225252380Y-120961904D02*
X225633333Y-120961904D01*
X225671428Y-121342857D01*
X225633333Y-121304761D01*
X225557142Y-121266666D01*
X225366666Y-121266666D01*
X225290476Y-121304761D01*
X225252380Y-121342857D01*
X225214285Y-121419047D01*
X225214285Y-121609523D01*
X225252380Y-121685714D01*
X225290476Y-121723809D01*
X225366666Y-121761904D01*
X225557142Y-121761904D01*
X225633333Y-121723809D01*
X225671428Y-121685714D01*
X224985714Y-120961904D02*
X224719047Y-121761904D01*
X224452380Y-120961904D01*
X225709523Y-118450000D02*
X225785714Y-118411904D01*
X225900000Y-118411904D01*
X226014285Y-118450000D01*
X226090476Y-118526190D01*
X226128571Y-118602380D01*
X226166666Y-118754761D01*
X226166666Y-118869047D01*
X226128571Y-119021428D01*
X226090476Y-119097619D01*
X226014285Y-119173809D01*
X225900000Y-119211904D01*
X225823809Y-119211904D01*
X225709523Y-119173809D01*
X225671428Y-119135714D01*
X225671428Y-118869047D01*
X225823809Y-118869047D01*
X225328571Y-119211904D02*
X225328571Y-118411904D01*
X224871428Y-119211904D01*
X224871428Y-118411904D01*
X224490476Y-119211904D02*
X224490476Y-118411904D01*
X224300000Y-118411904D01*
X224185714Y-118450000D01*
X224109523Y-118526190D01*
X224071428Y-118602380D01*
X224033333Y-118754761D01*
X224033333Y-118869047D01*
X224071428Y-119021428D01*
X224109523Y-119097619D01*
X224185714Y-119173809D01*
X224300000Y-119211904D01*
X224490476Y-119211904D01*
X229011904Y-112671428D02*
X228211904Y-112671428D01*
X229011904Y-113128571D01*
X228211904Y-113128571D01*
X228935714Y-113966666D02*
X228973809Y-113928571D01*
X229011904Y-113814285D01*
X229011904Y-113738095D01*
X228973809Y-113623809D01*
X228897619Y-113547619D01*
X228821428Y-113509523D01*
X228669047Y-113471428D01*
X228554761Y-113471428D01*
X228402380Y-113509523D01*
X228326190Y-113547619D01*
X228250000Y-113623809D01*
X228211904Y-113738095D01*
X228211904Y-113814285D01*
X228250000Y-113928571D01*
X228288095Y-113966666D01*
X234250000Y-112340476D02*
X234211904Y-112264285D01*
X234211904Y-112150000D01*
X234250000Y-112035714D01*
X234326190Y-111959523D01*
X234402380Y-111921428D01*
X234554761Y-111883333D01*
X234669047Y-111883333D01*
X234821428Y-111921428D01*
X234897619Y-111959523D01*
X234973809Y-112035714D01*
X235011904Y-112150000D01*
X235011904Y-112226190D01*
X234973809Y-112340476D01*
X234935714Y-112378571D01*
X234669047Y-112378571D01*
X234669047Y-112226190D01*
X235011904Y-112721428D02*
X234211904Y-112721428D01*
X235011904Y-113178571D01*
X234211904Y-113178571D01*
X235011904Y-113559523D02*
X234211904Y-113559523D01*
X234211904Y-113750000D01*
X234250000Y-113864285D01*
X234326190Y-113940476D01*
X234402380Y-113978571D01*
X234554761Y-114016666D01*
X234669047Y-114016666D01*
X234821428Y-113978571D01*
X234897619Y-113940476D01*
X234973809Y-113864285D01*
X235011904Y-113750000D01*
X235011904Y-113559523D01*
X233511904Y-110750000D02*
X232711904Y-110750000D01*
X233092857Y-110750000D02*
X233092857Y-111207142D01*
X233511904Y-111207142D02*
X232711904Y-111207142D01*
X233283333Y-111550000D02*
X233283333Y-111930952D01*
X233511904Y-111473809D02*
X232711904Y-111740476D01*
X233511904Y-112007142D01*
X233511904Y-112654761D02*
X233511904Y-112273809D01*
X232711904Y-112273809D01*
X233511904Y-113302380D02*
X233511904Y-112921428D01*
X232711904Y-112921428D01*
X232711904Y-113721428D02*
X232711904Y-113797619D01*
X232750000Y-113873809D01*
X232788095Y-113911904D01*
X232864285Y-113950000D01*
X233016666Y-113988095D01*
X233207142Y-113988095D01*
X233359523Y-113950000D01*
X233435714Y-113911904D01*
X233473809Y-113873809D01*
X233511904Y-113797619D01*
X233511904Y-113721428D01*
X233473809Y-113645238D01*
X233435714Y-113607142D01*
X233359523Y-113569047D01*
X233207142Y-113530952D01*
X233016666Y-113530952D01*
X232864285Y-113569047D01*
X232788095Y-113607142D01*
X232750000Y-113645238D01*
X232711904Y-113721428D01*
X232011904Y-110750000D02*
X231211904Y-110750000D01*
X231592857Y-110750000D02*
X231592857Y-111207142D01*
X232011904Y-111207142D02*
X231211904Y-111207142D01*
X231783333Y-111550000D02*
X231783333Y-111930952D01*
X232011904Y-111473809D02*
X231211904Y-111740476D01*
X232011904Y-112007142D01*
X232011904Y-112654761D02*
X232011904Y-112273809D01*
X231211904Y-112273809D01*
X232011904Y-113302380D02*
X232011904Y-112921428D01*
X231211904Y-112921428D01*
X232011904Y-113988095D02*
X232011904Y-113530952D01*
X232011904Y-113759523D02*
X231211904Y-113759523D01*
X231326190Y-113683333D01*
X231402380Y-113607142D01*
X231440476Y-113530952D01*
X230511904Y-110750000D02*
X229711904Y-110750000D01*
X230092857Y-110750000D02*
X230092857Y-111207142D01*
X230511904Y-111207142D02*
X229711904Y-111207142D01*
X230283333Y-111550000D02*
X230283333Y-111930952D01*
X230511904Y-111473809D02*
X229711904Y-111740476D01*
X230511904Y-112007142D01*
X230511904Y-112654761D02*
X230511904Y-112273809D01*
X229711904Y-112273809D01*
X230511904Y-113302380D02*
X230511904Y-112921428D01*
X229711904Y-112921428D01*
X229788095Y-113530952D02*
X229750000Y-113569047D01*
X229711904Y-113645238D01*
X229711904Y-113835714D01*
X229750000Y-113911904D01*
X229788095Y-113950000D01*
X229864285Y-113988095D01*
X229940476Y-113988095D01*
X230054761Y-113950000D01*
X230511904Y-113492857D01*
X230511904Y-113988095D01*
X226711904Y-113147619D02*
X226711904Y-112766666D01*
X227092857Y-112728571D01*
X227054761Y-112766666D01*
X227016666Y-112842857D01*
X227016666Y-113033333D01*
X227054761Y-113109523D01*
X227092857Y-113147619D01*
X227169047Y-113185714D01*
X227359523Y-113185714D01*
X227435714Y-113147619D01*
X227473809Y-113109523D01*
X227511904Y-113033333D01*
X227511904Y-112842857D01*
X227473809Y-112766666D01*
X227435714Y-112728571D01*
X226711904Y-113414285D02*
X227511904Y-113680952D01*
X226711904Y-113947619D01*
X228480952Y-93571428D02*
X227719047Y-93571428D01*
X218630952Y-93621428D02*
X217869047Y-93621428D01*
X218250000Y-94002380D02*
X218250000Y-93240476D01*
X229642857Y-132742857D02*
X229528571Y-132780952D01*
X229490476Y-132819047D01*
X229452380Y-132895238D01*
X229452380Y-133009523D01*
X229490476Y-133085714D01*
X229528571Y-133123809D01*
X229604761Y-133161904D01*
X229909523Y-133161904D01*
X229909523Y-132361904D01*
X229642857Y-132361904D01*
X229566666Y-132400000D01*
X229528571Y-132438095D01*
X229490476Y-132514285D01*
X229490476Y-132590476D01*
X229528571Y-132666666D01*
X229566666Y-132704761D01*
X229642857Y-132742857D01*
X229909523Y-132742857D01*
X227340476Y-132933333D02*
X226959523Y-132933333D01*
X227416666Y-133161904D02*
X227150000Y-132361904D01*
X226883333Y-133161904D01*
X224802380Y-132361904D02*
X225183333Y-132361904D01*
X225221428Y-132742857D01*
X225183333Y-132704761D01*
X225107142Y-132666666D01*
X224916666Y-132666666D01*
X224840476Y-132704761D01*
X224802380Y-132742857D01*
X224764285Y-132819047D01*
X224764285Y-133009523D01*
X224802380Y-133085714D01*
X224840476Y-133123809D01*
X224916666Y-133161904D01*
X225107142Y-133161904D01*
X225183333Y-133123809D01*
X225221428Y-133085714D01*
X224535714Y-132361904D02*
X224269047Y-133161904D01*
X224002380Y-132361904D01*
X222759523Y-132400000D02*
X222835714Y-132361904D01*
X222950000Y-132361904D01*
X223064285Y-132400000D01*
X223140476Y-132476190D01*
X223178571Y-132552380D01*
X223216666Y-132704761D01*
X223216666Y-132819047D01*
X223178571Y-132971428D01*
X223140476Y-133047619D01*
X223064285Y-133123809D01*
X222950000Y-133161904D01*
X222873809Y-133161904D01*
X222759523Y-133123809D01*
X222721428Y-133085714D01*
X222721428Y-132819047D01*
X222873809Y-132819047D01*
X222378571Y-133161904D02*
X222378571Y-132361904D01*
X221921428Y-133161904D01*
X221921428Y-132361904D01*
X221540476Y-133161904D02*
X221540476Y-132361904D01*
X221350000Y-132361904D01*
X221235714Y-132400000D01*
X221159523Y-132476190D01*
X221121428Y-132552380D01*
X221083333Y-132704761D01*
X221083333Y-132819047D01*
X221121428Y-132971428D01*
X221159523Y-133047619D01*
X221235714Y-133123809D01*
X221350000Y-133161904D01*
X221540476Y-133161904D01*
X210400000Y-134216666D02*
X210366666Y-134150000D01*
X210366666Y-134050000D01*
X210400000Y-133950000D01*
X210466666Y-133883333D01*
X210533333Y-133850000D01*
X210666666Y-133816666D01*
X210766666Y-133816666D01*
X210900000Y-133850000D01*
X210966666Y-133883333D01*
X211033333Y-133950000D01*
X211066666Y-134050000D01*
X211066666Y-134116666D01*
X211033333Y-134216666D01*
X211000000Y-134250000D01*
X210766666Y-134250000D01*
X210766666Y-134116666D01*
X211066666Y-134550000D02*
X210366666Y-134550000D01*
X211066666Y-134950000D01*
X210366666Y-134950000D01*
X211066666Y-135283333D02*
X210366666Y-135283333D01*
X210366666Y-135450000D01*
X210400000Y-135550000D01*
X210466666Y-135616666D01*
X210533333Y-135650000D01*
X210666666Y-135683333D01*
X210766666Y-135683333D01*
X210900000Y-135650000D01*
X210966666Y-135616666D01*
X211033333Y-135550000D01*
X211066666Y-135450000D01*
X211066666Y-135283333D01*
X213016666Y-133933333D02*
X213716666Y-134166666D01*
X213016666Y-134400000D01*
X213716666Y-134933333D02*
X213016666Y-134933333D01*
X213683333Y-134933333D02*
X213716666Y-134866666D01*
X213716666Y-134733333D01*
X213683333Y-134666666D01*
X213650000Y-134633333D01*
X213583333Y-134600000D01*
X213383333Y-134600000D01*
X213316666Y-134633333D01*
X213283333Y-134666666D01*
X213250000Y-134733333D01*
X213250000Y-134866666D01*
X213283333Y-134933333D01*
X213716666Y-135566666D02*
X213016666Y-135566666D01*
X213683333Y-135566666D02*
X213716666Y-135500000D01*
X213716666Y-135366666D01*
X213683333Y-135300000D01*
X213650000Y-135266666D01*
X213583333Y-135233333D01*
X213383333Y-135233333D01*
X213316666Y-135266666D01*
X213283333Y-135300000D01*
X213250000Y-135366666D01*
X213250000Y-135500000D01*
X213283333Y-135566666D01*
X217888095Y-137111904D02*
X217888095Y-136311904D01*
X216935714Y-136273809D02*
X217621428Y-137302380D01*
X216516666Y-136311904D02*
X216364285Y-136311904D01*
X216288095Y-136350000D01*
X216211904Y-136426190D01*
X216173809Y-136578571D01*
X216173809Y-136845238D01*
X216211904Y-136997619D01*
X216288095Y-137073809D01*
X216364285Y-137111904D01*
X216516666Y-137111904D01*
X216592857Y-137073809D01*
X216669047Y-136997619D01*
X216707142Y-136845238D01*
X216707142Y-136578571D01*
X216669047Y-136426190D01*
X216592857Y-136350000D01*
X216516666Y-136311904D01*
X202759523Y-132400000D02*
X202835714Y-132361904D01*
X202950000Y-132361904D01*
X203064285Y-132400000D01*
X203140476Y-132476190D01*
X203178571Y-132552380D01*
X203216666Y-132704761D01*
X203216666Y-132819047D01*
X203178571Y-132971428D01*
X203140476Y-133047619D01*
X203064285Y-133123809D01*
X202950000Y-133161904D01*
X202873809Y-133161904D01*
X202759523Y-133123809D01*
X202721428Y-133085714D01*
X202721428Y-132819047D01*
X202873809Y-132819047D01*
X202378571Y-133161904D02*
X202378571Y-132361904D01*
X201921428Y-133161904D01*
X201921428Y-132361904D01*
X201540476Y-133161904D02*
X201540476Y-132361904D01*
X201350000Y-132361904D01*
X201235714Y-132400000D01*
X201159523Y-132476190D01*
X201121428Y-132552380D01*
X201083333Y-132704761D01*
X201083333Y-132819047D01*
X201121428Y-132971428D01*
X201159523Y-133047619D01*
X201235714Y-133123809D01*
X201350000Y-133161904D01*
X201540476Y-133161904D01*
X205640476Y-132361904D02*
X205373809Y-133161904D01*
X205107142Y-132361904D01*
X204497619Y-133161904D02*
X204497619Y-132361904D01*
X204497619Y-133123809D02*
X204573809Y-133161904D01*
X204726190Y-133161904D01*
X204802380Y-133123809D01*
X204840476Y-133085714D01*
X204878571Y-133009523D01*
X204878571Y-132780952D01*
X204840476Y-132704761D01*
X204802380Y-132666666D01*
X204726190Y-132628571D01*
X204573809Y-132628571D01*
X204497619Y-132666666D01*
X203773809Y-133161904D02*
X203773809Y-132361904D01*
X203773809Y-133123809D02*
X203850000Y-133161904D01*
X204002380Y-133161904D01*
X204078571Y-133123809D01*
X204116666Y-133085714D01*
X204154761Y-133009523D01*
X204154761Y-132780952D01*
X204116666Y-132704761D01*
X204078571Y-132666666D01*
X204002380Y-132628571D01*
X203850000Y-132628571D01*
X203773809Y-132666666D01*
X207988095Y-133161904D02*
X207988095Y-132361904D01*
X207035714Y-132323809D02*
X207721428Y-133352380D01*
X206616666Y-132361904D02*
X206464285Y-132361904D01*
X206388095Y-132400000D01*
X206311904Y-132476190D01*
X206273809Y-132628571D01*
X206273809Y-132895238D01*
X206311904Y-133047619D01*
X206388095Y-133123809D01*
X206464285Y-133161904D01*
X206616666Y-133161904D01*
X206692857Y-133123809D01*
X206769047Y-133047619D01*
X206807142Y-132895238D01*
X206807142Y-132628571D01*
X206769047Y-132476190D01*
X206692857Y-132400000D01*
X206616666Y-132361904D01*
X184561904Y-116759523D02*
X185361904Y-117026190D01*
X184561904Y-117292857D01*
X185361904Y-117902380D02*
X184561904Y-117902380D01*
X185323809Y-117902380D02*
X185361904Y-117826190D01*
X185361904Y-117673809D01*
X185323809Y-117597619D01*
X185285714Y-117559523D01*
X185209523Y-117521428D01*
X184980952Y-117521428D01*
X184904761Y-117559523D01*
X184866666Y-117597619D01*
X184828571Y-117673809D01*
X184828571Y-117826190D01*
X184866666Y-117902380D01*
X185361904Y-118626190D02*
X184561904Y-118626190D01*
X185323809Y-118626190D02*
X185361904Y-118550000D01*
X185361904Y-118397619D01*
X185323809Y-118321428D01*
X185285714Y-118283333D01*
X185209523Y-118245238D01*
X184980952Y-118245238D01*
X184904761Y-118283333D01*
X184866666Y-118321428D01*
X184828571Y-118397619D01*
X184828571Y-118550000D01*
X184866666Y-118626190D01*
X184600000Y-114640476D02*
X184561904Y-114564285D01*
X184561904Y-114450000D01*
X184600000Y-114335714D01*
X184676190Y-114259523D01*
X184752380Y-114221428D01*
X184904761Y-114183333D01*
X185019047Y-114183333D01*
X185171428Y-114221428D01*
X185247619Y-114259523D01*
X185323809Y-114335714D01*
X185361904Y-114450000D01*
X185361904Y-114526190D01*
X185323809Y-114640476D01*
X185285714Y-114678571D01*
X185019047Y-114678571D01*
X185019047Y-114526190D01*
X185361904Y-115021428D02*
X184561904Y-115021428D01*
X185361904Y-115478571D01*
X184561904Y-115478571D01*
X185361904Y-115859523D02*
X184561904Y-115859523D01*
X184561904Y-116050000D01*
X184600000Y-116164285D01*
X184676190Y-116240476D01*
X184752380Y-116278571D01*
X184904761Y-116316666D01*
X185019047Y-116316666D01*
X185171428Y-116278571D01*
X185247619Y-116240476D01*
X185323809Y-116164285D01*
X185361904Y-116050000D01*
X185361904Y-115859523D01*
X180859523Y-127350000D02*
X180935714Y-127311904D01*
X181050000Y-127311904D01*
X181164285Y-127350000D01*
X181240476Y-127426190D01*
X181278571Y-127502380D01*
X181316666Y-127654761D01*
X181316666Y-127769047D01*
X181278571Y-127921428D01*
X181240476Y-127997619D01*
X181164285Y-128073809D01*
X181050000Y-128111904D01*
X180973809Y-128111904D01*
X180859523Y-128073809D01*
X180821428Y-128035714D01*
X180821428Y-127769047D01*
X180973809Y-127769047D01*
X180478571Y-128111904D02*
X180478571Y-127311904D01*
X180021428Y-128111904D01*
X180021428Y-127311904D01*
X179640476Y-128111904D02*
X179640476Y-127311904D01*
X179450000Y-127311904D01*
X179335714Y-127350000D01*
X179259523Y-127426190D01*
X179221428Y-127502380D01*
X179183333Y-127654761D01*
X179183333Y-127769047D01*
X179221428Y-127921428D01*
X179259523Y-127997619D01*
X179335714Y-128073809D01*
X179450000Y-128111904D01*
X179640476Y-128111904D01*
X181240476Y-129811904D02*
X180973809Y-130611904D01*
X180707142Y-129811904D01*
X180097619Y-130611904D02*
X180097619Y-129811904D01*
X180097619Y-130573809D02*
X180173809Y-130611904D01*
X180326190Y-130611904D01*
X180402380Y-130573809D01*
X180440476Y-130535714D01*
X180478571Y-130459523D01*
X180478571Y-130230952D01*
X180440476Y-130154761D01*
X180402380Y-130116666D01*
X180326190Y-130078571D01*
X180173809Y-130078571D01*
X180097619Y-130116666D01*
X179373809Y-130611904D02*
X179373809Y-129811904D01*
X179373809Y-130573809D02*
X179450000Y-130611904D01*
X179602380Y-130611904D01*
X179678571Y-130573809D01*
X179716666Y-130535714D01*
X179754761Y-130459523D01*
X179754761Y-130230952D01*
X179716666Y-130154761D01*
X179678571Y-130116666D01*
X179602380Y-130078571D01*
X179450000Y-130078571D01*
X179373809Y-130116666D01*
X180478571Y-132861904D02*
X180478571Y-132061904D01*
X180478571Y-132442857D02*
X180021428Y-132442857D01*
X180021428Y-132861904D02*
X180021428Y-132061904D01*
X180002380Y-135211904D02*
X180383333Y-135211904D01*
X180383333Y-134411904D01*
X190413095Y-133386904D02*
X190413095Y-132586904D01*
X189460714Y-132548809D02*
X190146428Y-133577380D01*
X189041666Y-132586904D02*
X188889285Y-132586904D01*
X188813095Y-132625000D01*
X188736904Y-132701190D01*
X188698809Y-132853571D01*
X188698809Y-133120238D01*
X188736904Y-133272619D01*
X188813095Y-133348809D01*
X188889285Y-133386904D01*
X189041666Y-133386904D01*
X189117857Y-133348809D01*
X189194047Y-133272619D01*
X189232142Y-133120238D01*
X189232142Y-132853571D01*
X189194047Y-132701190D01*
X189117857Y-132625000D01*
X189041666Y-132586904D01*
X195413095Y-133336904D02*
X195413095Y-132536904D01*
X194460714Y-132498809D02*
X195146428Y-133527380D01*
X194041666Y-132536904D02*
X193889285Y-132536904D01*
X193813095Y-132575000D01*
X193736904Y-132651190D01*
X193698809Y-132803571D01*
X193698809Y-133070238D01*
X193736904Y-133222619D01*
X193813095Y-133298809D01*
X193889285Y-133336904D01*
X194041666Y-133336904D01*
X194117857Y-133298809D01*
X194194047Y-133222619D01*
X194232142Y-133070238D01*
X194232142Y-132803571D01*
X194194047Y-132651190D01*
X194117857Y-132575000D01*
X194041666Y-132536904D01*
X192645238Y-133211904D02*
X193102380Y-133211904D01*
X192873809Y-133211904D02*
X192873809Y-132411904D01*
X192950000Y-132526190D01*
X193026190Y-132602380D01*
X193102380Y-132640476D01*
X192340476Y-132488095D02*
X192302380Y-132450000D01*
X192226190Y-132411904D01*
X192035714Y-132411904D01*
X191959523Y-132450000D01*
X191921428Y-132488095D01*
X191883333Y-132564285D01*
X191883333Y-132640476D01*
X191921428Y-132754761D01*
X192378571Y-133211904D01*
X191883333Y-133211904D01*
X191654761Y-132411904D02*
X191388095Y-133211904D01*
X191121428Y-132411904D01*
X197645238Y-133211904D02*
X198102380Y-133211904D01*
X197873809Y-133211904D02*
X197873809Y-132411904D01*
X197950000Y-132526190D01*
X198026190Y-132602380D01*
X198102380Y-132640476D01*
X197340476Y-132488095D02*
X197302380Y-132450000D01*
X197226190Y-132411904D01*
X197035714Y-132411904D01*
X196959523Y-132450000D01*
X196921428Y-132488095D01*
X196883333Y-132564285D01*
X196883333Y-132640476D01*
X196921428Y-132754761D01*
X197378571Y-133211904D01*
X196883333Y-133211904D01*
X196654761Y-132411904D02*
X196388095Y-133211904D01*
X196121428Y-132411904D01*
D11*
X204631547Y-143761904D02*
X204531547Y-142961904D01*
X204341071Y-142961904D01*
X204231547Y-143000000D01*
X204164880Y-143076190D01*
X204136309Y-143152380D01*
X204117261Y-143304761D01*
X204131547Y-143419047D01*
X204188690Y-143571428D01*
X204236309Y-143647619D01*
X204322023Y-143723809D01*
X204441071Y-143761904D01*
X204631547Y-143761904D01*
X203522023Y-143723809D02*
X203602976Y-143761904D01*
X203755357Y-143761904D01*
X203826785Y-143723809D01*
X203855357Y-143647619D01*
X203817261Y-143342857D01*
X203769642Y-143266666D01*
X203688690Y-143228571D01*
X203536309Y-143228571D01*
X203464880Y-143266666D01*
X203436309Y-143342857D01*
X203445833Y-143419047D01*
X203836309Y-143495238D01*
X203179166Y-143723809D02*
X203107738Y-143761904D01*
X202955357Y-143761904D01*
X202874404Y-143723809D01*
X202826785Y-143647619D01*
X202822023Y-143609523D01*
X202850595Y-143533333D01*
X202922023Y-143495238D01*
X203036309Y-143495238D01*
X203107738Y-143457142D01*
X203136309Y-143380952D01*
X203131547Y-143342857D01*
X203083928Y-143266666D01*
X203002976Y-143228571D01*
X202888690Y-143228571D01*
X202817261Y-143266666D01*
X202498214Y-143761904D02*
X202431547Y-143228571D01*
X202398214Y-142961904D02*
X202441071Y-143000000D01*
X202407738Y-143038095D01*
X202364880Y-143000000D01*
X202398214Y-142961904D01*
X202407738Y-143038095D01*
X201707738Y-143228571D02*
X201788690Y-143876190D01*
X201836309Y-143952380D01*
X201879166Y-143990476D01*
X201960119Y-144028571D01*
X202074404Y-144028571D01*
X202145833Y-143990476D01*
X201769642Y-143723809D02*
X201850595Y-143761904D01*
X202002976Y-143761904D01*
X202074404Y-143723809D01*
X202107738Y-143685714D01*
X202136309Y-143609523D01*
X202107738Y-143380952D01*
X202060119Y-143304761D01*
X202017261Y-143266666D01*
X201936309Y-143228571D01*
X201783928Y-143228571D01*
X201712500Y-143266666D01*
X201326785Y-143228571D02*
X201393452Y-143761904D01*
X201336309Y-143304761D02*
X201293452Y-143266666D01*
X201212500Y-143228571D01*
X201098214Y-143228571D01*
X201026785Y-143266666D01*
X200998214Y-143342857D01*
X201050595Y-143761904D01*
X200360119Y-143723809D02*
X200441071Y-143761904D01*
X200593452Y-143761904D01*
X200664880Y-143723809D01*
X200693452Y-143647619D01*
X200655357Y-143342857D01*
X200607738Y-143266666D01*
X200526785Y-143228571D01*
X200374404Y-143228571D01*
X200302976Y-143266666D01*
X200274404Y-143342857D01*
X200283928Y-143419047D01*
X200674404Y-143495238D01*
X199641071Y-143761904D02*
X199541071Y-142961904D01*
X199636309Y-143723809D02*
X199717261Y-143761904D01*
X199869642Y-143761904D01*
X199941071Y-143723809D01*
X199974404Y-143685714D01*
X200002976Y-143609523D01*
X199974404Y-143380952D01*
X199926785Y-143304761D01*
X199883928Y-143266666D01*
X199802976Y-143228571D01*
X199650595Y-143228571D01*
X199579166Y-143266666D01*
X198650595Y-143761904D02*
X198550595Y-142961904D01*
X198588690Y-143266666D02*
X198507738Y-143228571D01*
X198355357Y-143228571D01*
X198283928Y-143266666D01*
X198250595Y-143304761D01*
X198222023Y-143380952D01*
X198250595Y-143609523D01*
X198298214Y-143685714D01*
X198341071Y-143723809D01*
X198422023Y-143761904D01*
X198574404Y-143761904D01*
X198645833Y-143723809D01*
X197936309Y-143228571D02*
X197812500Y-143761904D01*
X197555357Y-143228571D02*
X197812500Y-143761904D01*
X197912500Y-143952380D01*
X197955357Y-143990476D01*
X198036309Y-144028571D01*
X196717261Y-143533333D02*
X196336309Y-143533333D01*
X196822023Y-143761904D02*
X196455357Y-142961904D01*
X196288690Y-143761904D01*
X196012500Y-143685714D02*
X195979166Y-143723809D01*
X196022023Y-143761904D01*
X196055357Y-143723809D01*
X196012500Y-143685714D01*
X196022023Y-143761904D01*
X195641071Y-143761904D02*
X195541071Y-142961904D01*
X195345833Y-143533333D01*
X195007738Y-142961904D01*
X195107738Y-143761904D01*
X194726785Y-143761904D02*
X194660119Y-143228571D01*
X194626785Y-142961904D02*
X194669642Y-143000000D01*
X194636309Y-143038095D01*
X194593452Y-143000000D01*
X194626785Y-142961904D01*
X194636309Y-143038095D01*
X194355357Y-143228571D02*
X193936309Y-143228571D01*
X194422023Y-143761904D01*
X194002976Y-143761904D01*
X193288690Y-143228571D02*
X193355357Y-143761904D01*
X193631547Y-143228571D02*
X193683928Y-143647619D01*
X193655357Y-143723809D01*
X193583928Y-143761904D01*
X193469642Y-143761904D01*
X193388690Y-143723809D01*
X193345833Y-143685714D01*
X193022023Y-143228571D02*
X192717261Y-143228571D01*
X192874404Y-142961904D02*
X192960119Y-143647619D01*
X192931547Y-143723809D01*
X192860119Y-143761904D01*
X192783928Y-143761904D01*
X192174404Y-143761904D02*
X192122023Y-143342857D01*
X192150595Y-143266666D01*
X192222023Y-143228571D01*
X192374404Y-143228571D01*
X192455357Y-143266666D01*
X192169642Y-143723809D02*
X192250595Y-143761904D01*
X192441071Y-143761904D01*
X192512500Y-143723809D01*
X192541071Y-143647619D01*
X192531547Y-143571428D01*
X192483928Y-143495238D01*
X192402976Y-143457142D01*
X192212500Y-143457142D01*
X192131547Y-143419047D01*
X191183928Y-143761904D02*
X191117261Y-143228571D01*
X191083928Y-142961904D02*
X191126785Y-143000000D01*
X191093452Y-143038095D01*
X191050595Y-143000000D01*
X191083928Y-142961904D01*
X191093452Y-143038095D01*
X190736309Y-143228571D02*
X190802976Y-143761904D01*
X190745833Y-143304761D02*
X190702976Y-143266666D01*
X190622023Y-143228571D01*
X190507738Y-143228571D01*
X190436309Y-143266666D01*
X190407738Y-143342857D01*
X190460119Y-143761904D01*
X189417261Y-143038095D02*
X189374404Y-143000000D01*
X189293452Y-142961904D01*
X189102976Y-142961904D01*
X189031547Y-143000000D01*
X188998214Y-143038095D01*
X188969642Y-143114285D01*
X188979166Y-143190476D01*
X189031547Y-143304761D01*
X189545833Y-143761904D01*
X189050595Y-143761904D01*
X188455357Y-142961904D02*
X188379166Y-142961904D01*
X188307738Y-143000000D01*
X188274404Y-143038095D01*
X188245833Y-143114285D01*
X188226785Y-143266666D01*
X188250595Y-143457142D01*
X188307738Y-143609523D01*
X188355357Y-143685714D01*
X188398214Y-143723809D01*
X188479166Y-143761904D01*
X188555357Y-143761904D01*
X188626785Y-143723809D01*
X188660119Y-143685714D01*
X188688690Y-143609523D01*
X188707738Y-143457142D01*
X188683928Y-143266666D01*
X188626785Y-143114285D01*
X188579166Y-143038095D01*
X188536309Y-143000000D01*
X188455357Y-142961904D01*
X187893452Y-143038095D02*
X187850595Y-143000000D01*
X187769642Y-142961904D01*
X187579166Y-142961904D01*
X187507738Y-143000000D01*
X187474404Y-143038095D01*
X187445833Y-143114285D01*
X187455357Y-143190476D01*
X187507738Y-143304761D01*
X188022023Y-143761904D01*
X187526785Y-143761904D01*
X186931547Y-142961904D02*
X186855357Y-142961904D01*
X186783928Y-143000000D01*
X186750595Y-143038095D01*
X186722023Y-143114285D01*
X186702976Y-143266666D01*
X186726785Y-143457142D01*
X186783928Y-143609523D01*
X186831547Y-143685714D01*
X186874404Y-143723809D01*
X186955357Y-143761904D01*
X187031547Y-143761904D01*
X187102976Y-143723809D01*
X187136309Y-143685714D01*
X187164880Y-143609523D01*
X187183928Y-143457142D01*
X187160119Y-143266666D01*
X187102976Y-143114285D01*
X187055357Y-143038095D01*
X187012500Y-143000000D01*
X186931547Y-142961904D01*
X185745833Y-142923809D02*
X186560119Y-143952380D01*
X185331547Y-142961904D02*
X185255357Y-142961904D01*
X185183928Y-143000000D01*
X185150595Y-143038095D01*
X185122023Y-143114285D01*
X185102976Y-143266666D01*
X185126785Y-143457142D01*
X185183928Y-143609523D01*
X185231547Y-143685714D01*
X185274404Y-143723809D01*
X185355357Y-143761904D01*
X185431547Y-143761904D01*
X185502976Y-143723809D01*
X185536309Y-143685714D01*
X185564880Y-143609523D01*
X185583928Y-143457142D01*
X185560119Y-143266666D01*
X185502976Y-143114285D01*
X185455357Y-143038095D01*
X185412500Y-143000000D01*
X185331547Y-142961904D01*
X184412500Y-143228571D02*
X184479166Y-143761904D01*
X184564880Y-142923809D02*
X184826785Y-143495238D01*
X184331547Y-143495238D01*
X183383928Y-142923809D02*
X184198214Y-143952380D01*
X182802976Y-143761904D02*
X183260119Y-143761904D01*
X183031547Y-143761904D02*
X182931547Y-142961904D01*
X183022023Y-143076190D01*
X183107738Y-143152380D01*
X183188690Y-143190476D01*
X182436309Y-142961904D02*
X181941071Y-142961904D01*
X182245833Y-143266666D01*
X182131547Y-143266666D01*
X182060119Y-143304761D01*
X182026785Y-143342857D01*
X181998214Y-143419047D01*
X182022023Y-143609523D01*
X182069642Y-143685714D01*
X182112500Y-143723809D01*
X182193452Y-143761904D01*
X182422023Y-143761904D01*
X182493452Y-143723809D01*
X182526785Y-143685714D01*
X181688690Y-143685714D02*
X181655357Y-143723809D01*
X181698214Y-143761904D01*
X181731547Y-143723809D01*
X181688690Y-143685714D01*
X181698214Y-143761904D01*
D10*
X242411904Y-130787976D02*
X241611904Y-130787976D01*
X242411904Y-131245119D01*
X241611904Y-131245119D01*
X242335714Y-132083214D02*
X242373809Y-132045119D01*
X242411904Y-131930833D01*
X242411904Y-131854642D01*
X242373809Y-131740357D01*
X242297619Y-131664166D01*
X242221428Y-131626071D01*
X242069047Y-131587976D01*
X241954761Y-131587976D01*
X241802380Y-131626071D01*
X241726190Y-131664166D01*
X241650000Y-131740357D01*
X241611904Y-131854642D01*
X241611904Y-131930833D01*
X241650000Y-132045119D01*
X241688095Y-132083214D01*
X239779000Y-130597500D02*
X239779000Y-131397500D01*
X240911904Y-131245119D02*
X240530952Y-130978452D01*
X240911904Y-130787976D02*
X240111904Y-130787976D01*
X240111904Y-131092738D01*
X240150000Y-131168928D01*
X240188095Y-131207023D01*
X240264285Y-131245119D01*
X240378571Y-131245119D01*
X240454761Y-131207023D01*
X240492857Y-131168928D01*
X240530952Y-131092738D01*
X240530952Y-130787976D01*
X239779000Y-131397500D02*
X239779000Y-132159404D01*
X240873809Y-131549880D02*
X240911904Y-131664166D01*
X240911904Y-131854642D01*
X240873809Y-131930833D01*
X240835714Y-131968928D01*
X240759523Y-132007023D01*
X240683333Y-132007023D01*
X240607142Y-131968928D01*
X240569047Y-131930833D01*
X240530952Y-131854642D01*
X240492857Y-131702261D01*
X240454761Y-131626071D01*
X240416666Y-131587976D01*
X240340476Y-131549880D01*
X240264285Y-131549880D01*
X240188095Y-131587976D01*
X240150000Y-131626071D01*
X240111904Y-131702261D01*
X240111904Y-131892738D01*
X240150000Y-132007023D01*
X239779000Y-132159404D02*
X239779000Y-132768928D01*
X240111904Y-132235595D02*
X240111904Y-132692738D01*
X240911904Y-132464166D02*
X240111904Y-132464166D01*
X239411904Y-130787976D02*
X238611904Y-130787976D01*
X238611904Y-130978452D01*
X238650000Y-131092738D01*
X238726190Y-131168928D01*
X238802380Y-131207023D01*
X238954761Y-131245119D01*
X239069047Y-131245119D01*
X239221428Y-131207023D01*
X239297619Y-131168928D01*
X239373809Y-131092738D01*
X239411904Y-130978452D01*
X239411904Y-130787976D01*
X239411904Y-131587976D02*
X238611904Y-131587976D01*
X238611904Y-132121309D02*
X238611904Y-132273690D01*
X238650000Y-132349880D01*
X238726190Y-132426071D01*
X238878571Y-132464166D01*
X239145238Y-132464166D01*
X239297619Y-132426071D01*
X239373809Y-132349880D01*
X239411904Y-132273690D01*
X239411904Y-132121309D01*
X239373809Y-132045119D01*
X239297619Y-131968928D01*
X239145238Y-131930833D01*
X238878571Y-131930833D01*
X238726190Y-131968928D01*
X238650000Y-132045119D01*
X238611904Y-132121309D01*
X237835714Y-131245119D02*
X237873809Y-131207023D01*
X237911904Y-131092738D01*
X237911904Y-131016547D01*
X237873809Y-130902261D01*
X237797619Y-130826071D01*
X237721428Y-130787976D01*
X237569047Y-130749880D01*
X237454761Y-130749880D01*
X237302380Y-130787976D01*
X237226190Y-130826071D01*
X237150000Y-130902261D01*
X237111904Y-131016547D01*
X237111904Y-131092738D01*
X237150000Y-131207023D01*
X237188095Y-131245119D01*
X237911904Y-131968928D02*
X237911904Y-131587976D01*
X237111904Y-131587976D01*
X237911904Y-132235595D02*
X237111904Y-132235595D01*
X237911904Y-132692738D02*
X237454761Y-132349880D01*
X237111904Y-132692738D02*
X237569047Y-132235595D01*
X235611904Y-130711785D02*
X235611904Y-131207023D01*
X235916666Y-130940357D01*
X235916666Y-131054642D01*
X235954761Y-131130833D01*
X235992857Y-131168928D01*
X236069047Y-131207023D01*
X236259523Y-131207023D01*
X236335714Y-131168928D01*
X236373809Y-131130833D01*
X236411904Y-131054642D01*
X236411904Y-130826071D01*
X236373809Y-130749880D01*
X236335714Y-130711785D01*
X235611904Y-131435595D02*
X236411904Y-131702261D01*
X235611904Y-131968928D01*
X235611904Y-132159404D02*
X235611904Y-132654642D01*
X235916666Y-132387976D01*
X235916666Y-132502261D01*
X235954761Y-132578452D01*
X235992857Y-132616547D01*
X236069047Y-132654642D01*
X236259523Y-132654642D01*
X236335714Y-132616547D01*
X236373809Y-132578452D01*
X236411904Y-132502261D01*
X236411904Y-132273690D01*
X236373809Y-132197500D01*
X236335714Y-132159404D01*
X234150000Y-131207023D02*
X234111904Y-131130833D01*
X234111904Y-131016547D01*
X234150000Y-130902261D01*
X234226190Y-130826071D01*
X234302380Y-130787976D01*
X234454761Y-130749880D01*
X234569047Y-130749880D01*
X234721428Y-130787976D01*
X234797619Y-130826071D01*
X234873809Y-130902261D01*
X234911904Y-131016547D01*
X234911904Y-131092738D01*
X234873809Y-131207023D01*
X234835714Y-131245119D01*
X234569047Y-131245119D01*
X234569047Y-131092738D01*
X234911904Y-131587976D02*
X234111904Y-131587976D01*
X234911904Y-132045119D01*
X234111904Y-132045119D01*
X234911904Y-132426071D02*
X234111904Y-132426071D01*
X234111904Y-132616547D01*
X234150000Y-132730833D01*
X234226190Y-132807023D01*
X234302380Y-132845119D01*
X234454761Y-132883214D01*
X234569047Y-132883214D01*
X234721428Y-132845119D01*
X234797619Y-132807023D01*
X234873809Y-132730833D01*
X234911904Y-132616547D01*
X234911904Y-132426071D01*
X235700000Y-125757142D02*
X235090476Y-125757142D01*
X235242857Y-125909523D02*
X235090476Y-125757142D01*
X235242857Y-125604761D01*
X234785714Y-125261904D02*
X234290476Y-125261904D01*
X234557142Y-125566666D01*
X234442857Y-125566666D01*
X234366666Y-125604761D01*
X234328571Y-125642857D01*
X234290476Y-125719047D01*
X234290476Y-125909523D01*
X234328571Y-125985714D01*
X234366666Y-126023809D01*
X234442857Y-126061904D01*
X234671428Y-126061904D01*
X234747619Y-126023809D01*
X234785714Y-125985714D01*
X233947619Y-125985714D02*
X233909523Y-126023809D01*
X233947619Y-126061904D01*
X233985714Y-126023809D01*
X233947619Y-125985714D01*
X233947619Y-126061904D01*
X233642857Y-125261904D02*
X233147619Y-125261904D01*
X233414285Y-125566666D01*
X233300000Y-125566666D01*
X233223809Y-125604761D01*
X233185714Y-125642857D01*
X233147619Y-125719047D01*
X233147619Y-125909523D01*
X233185714Y-125985714D01*
X233223809Y-126023809D01*
X233300000Y-126061904D01*
X233528571Y-126061904D01*
X233604761Y-126023809D01*
X233642857Y-125985714D01*
X232919047Y-125261904D02*
X232652380Y-126061904D01*
X232385714Y-125261904D01*
D12*
X187450000Y-81200000D02*
G75*
G03X187450000Y-81200000I-1200000J0D01*
G01*
X191250000Y-75900000D02*
X181250000Y-75900000D01*
X181550000Y-76200000D02*
X181250000Y-75900000D01*
X190950000Y-76200000D02*
X181550000Y-76200000D01*
X191250000Y-75900000D02*
X190950000Y-76200000D01*
X191250000Y-86600000D02*
X181250000Y-86600000D01*
X181250000Y-86600000D02*
X181550000Y-86300000D01*
X190950000Y-86300000D02*
X191250000Y-86600000D01*
X190950000Y-86300000D02*
X181550000Y-86300000D01*
X181250000Y-86600000D02*
X181250000Y-75900000D01*
X191250000Y-75900000D02*
X191250000Y-86600000D01*
X190950000Y-82600000D02*
X191250000Y-82300000D01*
X190950000Y-82600000D02*
X190950000Y-86300000D01*
X190950000Y-78600000D02*
X191250000Y-78900000D01*
X190950000Y-78600000D02*
X190950000Y-76200000D01*
X190650000Y-78600000D02*
X190950000Y-78600000D01*
X190650000Y-82600000D02*
X190650000Y-78600000D01*
X190950000Y-82600000D02*
X190650000Y-82600000D01*
X190950000Y-78900000D02*
X191250000Y-78900000D01*
X190650000Y-78600000D02*
X190950000Y-78900000D01*
X190950000Y-82300000D02*
X190650000Y-82600000D01*
X190950000Y-78900000D02*
X190950000Y-82300000D01*
X190950000Y-82300000D02*
X191250000Y-82300000D01*
X181550000Y-78600000D02*
X181250000Y-78900000D01*
X181550000Y-78600000D02*
X181550000Y-76200000D01*
X181550000Y-82600000D02*
X181250000Y-82300000D01*
X181550000Y-86300000D02*
X181550000Y-82600000D01*
X181850000Y-78600000D02*
X181550000Y-78600000D01*
X181850000Y-82600000D02*
X181850000Y-78600000D01*
X181550000Y-82600000D02*
X181850000Y-82600000D01*
X181550000Y-78900000D02*
X181250000Y-78900000D01*
X181850000Y-78600000D02*
X181550000Y-78900000D01*
X181550000Y-82300000D02*
X181850000Y-82600000D01*
X181550000Y-78900000D02*
X181550000Y-82300000D01*
X181550000Y-82300000D02*
X181250000Y-82300000D01*
X190850000Y-86600000D02*
X190850000Y-87200000D01*
X190050000Y-87200000D02*
X190850000Y-87200000D01*
X190050000Y-86600000D02*
X190050000Y-87200000D01*
X185250000Y-87200000D02*
X185250000Y-86600000D01*
X186050000Y-87200000D02*
X185250000Y-87200000D01*
X186050000Y-86600000D02*
X186050000Y-87200000D01*
X187250000Y-87200000D02*
X187250000Y-86600000D01*
X186450000Y-87200000D02*
X187250000Y-87200000D01*
X186450000Y-86600000D02*
X186450000Y-87200000D01*
X184050000Y-87200000D02*
X184050000Y-86600000D01*
X184850000Y-87200000D02*
X184050000Y-87200000D01*
X184850000Y-86600000D02*
X184850000Y-87200000D01*
X182850000Y-87200000D02*
X182850000Y-86600000D01*
X183650000Y-87200000D02*
X182850000Y-87200000D01*
X183650000Y-86600000D02*
X183650000Y-87200000D01*
X181650000Y-87200000D02*
X181650000Y-86600000D01*
X182450000Y-87200000D02*
X181650000Y-87200000D01*
X182450000Y-86600000D02*
X182450000Y-87200000D01*
X188450000Y-87200000D02*
X188450000Y-86600000D01*
X187650000Y-87200000D02*
X188450000Y-87200000D01*
X187650000Y-86600000D02*
X187650000Y-87200000D01*
X189650000Y-87200000D02*
X189650000Y-86600000D01*
X188850000Y-87200000D02*
X189650000Y-87200000D01*
X188850000Y-86600000D02*
X188850000Y-87200000D01*
X191250000Y-75200000D02*
X191250000Y-75900000D01*
X181250000Y-75200000D02*
X181250000Y-75900000D01*
X185650000Y-75200000D02*
X185650000Y-75400000D01*
X182250000Y-75200000D02*
X182250000Y-75400000D01*
X182250000Y-75400000D02*
X185650000Y-75400000D01*
X190250000Y-75400000D02*
X190250000Y-75200000D01*
X186850000Y-75400000D02*
X190250000Y-75400000D01*
X186850000Y-75200000D02*
X186850000Y-75400000D01*
X190250000Y-75200000D02*
X191250000Y-75200000D01*
X186850000Y-75200000D02*
X185650000Y-75200000D01*
X182250000Y-75200000D02*
X181250000Y-75200000D01*
D13*
X194110000Y-113112779D02*
X194110000Y-112787221D01*
X193090000Y-113112779D02*
X193090000Y-112787221D01*
X199010000Y-124187221D02*
X199010000Y-124512779D01*
X197990000Y-124187221D02*
X197990000Y-124512779D01*
X193587221Y-122310000D02*
X193912779Y-122310000D01*
X193587221Y-121290000D02*
X193912779Y-121290000D01*
X180090000Y-117012779D02*
X180090000Y-116687221D01*
X181110000Y-117012779D02*
X181110000Y-116687221D01*
X184390000Y-130787221D02*
X184390000Y-131112779D01*
X185410000Y-130787221D02*
X185410000Y-131112779D01*
X190290000Y-124558578D02*
X190290000Y-124041422D01*
X191710000Y-124558578D02*
X191710000Y-124041422D01*
X195810000Y-119241422D02*
X195810000Y-119758578D01*
X194390000Y-119241422D02*
X194390000Y-119758578D01*
X197737221Y-118960000D02*
X198062779Y-118960000D01*
X197737221Y-117940000D02*
X198062779Y-117940000D01*
X200687221Y-117940000D02*
X201012779Y-117940000D01*
X200687221Y-118960000D02*
X201012779Y-118960000D01*
X225537221Y-111310000D02*
X225862779Y-111310000D01*
X225537221Y-110290000D02*
X225862779Y-110290000D01*
X235087221Y-102910000D02*
X235412779Y-102910000D01*
X235087221Y-101890000D02*
X235412779Y-101890000D01*
X237235000Y-98737221D02*
X237235000Y-99062779D01*
X236215000Y-98737221D02*
X236215000Y-99062779D01*
X234583578Y-96810000D02*
X234066422Y-96810000D01*
X234583578Y-95390000D02*
X234066422Y-95390000D01*
X235491422Y-83260000D02*
X236008578Y-83260000D01*
X235491422Y-81840000D02*
X236008578Y-81840000D01*
X242410000Y-92508578D02*
X242410000Y-91991422D01*
X240990000Y-92508578D02*
X240990000Y-91991422D01*
X235291422Y-69010000D02*
X235808578Y-69010000D01*
X235291422Y-67590000D02*
X235808578Y-67590000D01*
X230475000Y-121050000D02*
X232475000Y-121050000D01*
X232475000Y-121050000D02*
X232475000Y-124950000D01*
X230475000Y-121050000D02*
X230475000Y-124950000D01*
X189000000Y-126300000D02*
X185100000Y-126300000D01*
X189000000Y-128300000D02*
X185100000Y-128300000D01*
X189000000Y-126300000D02*
X189000000Y-128300000D01*
X231450000Y-136750000D02*
X231450000Y-140650000D01*
X233450000Y-136750000D02*
X233450000Y-140650000D01*
X231450000Y-136750000D02*
X233450000Y-136750000D01*
X238550000Y-95850000D02*
X236550000Y-95850000D01*
X236550000Y-95850000D02*
X236550000Y-91950000D01*
X238550000Y-95850000D02*
X238550000Y-91950000D01*
X242725000Y-98550000D02*
X242725000Y-94650000D01*
X240725000Y-98550000D02*
X240725000Y-94650000D01*
X242725000Y-98550000D02*
X240725000Y-98550000D01*
X234350000Y-128250000D02*
X234350000Y-126250000D01*
X231550000Y-128250000D02*
X234350000Y-128250000D01*
X231550000Y-126250000D02*
X231550000Y-128250000D01*
X234350000Y-126250000D02*
X231550000Y-126250000D01*
D12*
X187450000Y-65950000D02*
G75*
G03X187450000Y-65950000I-1200000J0D01*
G01*
X191250000Y-60650000D02*
X181250000Y-60650000D01*
X181550000Y-60950000D02*
X181250000Y-60650000D01*
X190950000Y-60950000D02*
X181550000Y-60950000D01*
X191250000Y-60650000D02*
X190950000Y-60950000D01*
X191250000Y-71350000D02*
X181250000Y-71350000D01*
X181250000Y-71350000D02*
X181550000Y-71050000D01*
X190950000Y-71050000D02*
X191250000Y-71350000D01*
X190950000Y-71050000D02*
X181550000Y-71050000D01*
X181250000Y-71350000D02*
X181250000Y-60650000D01*
X191250000Y-60650000D02*
X191250000Y-71350000D01*
X190950000Y-67350000D02*
X191250000Y-67050000D01*
X190950000Y-67350000D02*
X190950000Y-71050000D01*
X190950000Y-63350000D02*
X191250000Y-63650000D01*
X190950000Y-63350000D02*
X190950000Y-60950000D01*
X190650000Y-63350000D02*
X190950000Y-63350000D01*
X190650000Y-67350000D02*
X190650000Y-63350000D01*
X190950000Y-67350000D02*
X190650000Y-67350000D01*
X190950000Y-63650000D02*
X191250000Y-63650000D01*
X190650000Y-63350000D02*
X190950000Y-63650000D01*
X190950000Y-67050000D02*
X190650000Y-67350000D01*
X190950000Y-63650000D02*
X190950000Y-67050000D01*
X190950000Y-67050000D02*
X191250000Y-67050000D01*
X181550000Y-63350000D02*
X181250000Y-63650000D01*
X181550000Y-63350000D02*
X181550000Y-60950000D01*
X181550000Y-67350000D02*
X181250000Y-67050000D01*
X181550000Y-71050000D02*
X181550000Y-67350000D01*
X181850000Y-63350000D02*
X181550000Y-63350000D01*
X181850000Y-67350000D02*
X181850000Y-63350000D01*
X181550000Y-67350000D02*
X181850000Y-67350000D01*
X181550000Y-63650000D02*
X181250000Y-63650000D01*
X181850000Y-63350000D02*
X181550000Y-63650000D01*
X181550000Y-67050000D02*
X181850000Y-67350000D01*
X181550000Y-63650000D02*
X181550000Y-67050000D01*
X181550000Y-67050000D02*
X181250000Y-67050000D01*
X190850000Y-71350000D02*
X190850000Y-71950000D01*
X190050000Y-71950000D02*
X190850000Y-71950000D01*
X190050000Y-71350000D02*
X190050000Y-71950000D01*
X185250000Y-71950000D02*
X185250000Y-71350000D01*
X186050000Y-71950000D02*
X185250000Y-71950000D01*
X186050000Y-71350000D02*
X186050000Y-71950000D01*
X187250000Y-71950000D02*
X187250000Y-71350000D01*
X186450000Y-71950000D02*
X187250000Y-71950000D01*
X186450000Y-71350000D02*
X186450000Y-71950000D01*
X184050000Y-71950000D02*
X184050000Y-71350000D01*
X184850000Y-71950000D02*
X184050000Y-71950000D01*
X184850000Y-71350000D02*
X184850000Y-71950000D01*
X182850000Y-71950000D02*
X182850000Y-71350000D01*
X183650000Y-71950000D02*
X182850000Y-71950000D01*
X183650000Y-71350000D02*
X183650000Y-71950000D01*
X181650000Y-71950000D02*
X181650000Y-71350000D01*
X182450000Y-71950000D02*
X181650000Y-71950000D01*
X182450000Y-71350000D02*
X182450000Y-71950000D01*
X188450000Y-71950000D02*
X188450000Y-71350000D01*
X187650000Y-71950000D02*
X188450000Y-71950000D01*
X187650000Y-71350000D02*
X187650000Y-71950000D01*
X189650000Y-71950000D02*
X189650000Y-71350000D01*
X188850000Y-71950000D02*
X189650000Y-71950000D01*
X188850000Y-71350000D02*
X188850000Y-71950000D01*
X191250000Y-59950000D02*
X191250000Y-60650000D01*
X181250000Y-59950000D02*
X181250000Y-60650000D01*
X185650000Y-59950000D02*
X185650000Y-60150000D01*
X182250000Y-59950000D02*
X182250000Y-60150000D01*
X182250000Y-60150000D02*
X185650000Y-60150000D01*
X190250000Y-60150000D02*
X190250000Y-59950000D01*
X186850000Y-60150000D02*
X190250000Y-60150000D01*
X186850000Y-59950000D02*
X186850000Y-60150000D01*
X190250000Y-59950000D02*
X191250000Y-59950000D01*
X186850000Y-59950000D02*
X185650000Y-59950000D01*
X182250000Y-59950000D02*
X181250000Y-59950000D01*
X194650000Y-60000000D02*
X193650000Y-60000000D01*
X199250000Y-60000000D02*
X198050000Y-60000000D01*
X202650000Y-60000000D02*
X203650000Y-60000000D01*
X199250000Y-60000000D02*
X199250000Y-60200000D01*
X199250000Y-60200000D02*
X202650000Y-60200000D01*
X202650000Y-60200000D02*
X202650000Y-60000000D01*
X194650000Y-60200000D02*
X198050000Y-60200000D01*
X194650000Y-60000000D02*
X194650000Y-60200000D01*
X198050000Y-60000000D02*
X198050000Y-60200000D01*
X193650000Y-60000000D02*
X193650000Y-60700000D01*
X203650000Y-60000000D02*
X203650000Y-60700000D01*
X201250000Y-71400000D02*
X201250000Y-72000000D01*
X201250000Y-72000000D02*
X202050000Y-72000000D01*
X202050000Y-72000000D02*
X202050000Y-71400000D01*
X200050000Y-71400000D02*
X200050000Y-72000000D01*
X200050000Y-72000000D02*
X200850000Y-72000000D01*
X200850000Y-72000000D02*
X200850000Y-71400000D01*
X194850000Y-71400000D02*
X194850000Y-72000000D01*
X194850000Y-72000000D02*
X194050000Y-72000000D01*
X194050000Y-72000000D02*
X194050000Y-71400000D01*
X196050000Y-71400000D02*
X196050000Y-72000000D01*
X196050000Y-72000000D02*
X195250000Y-72000000D01*
X195250000Y-72000000D02*
X195250000Y-71400000D01*
X197250000Y-71400000D02*
X197250000Y-72000000D01*
X197250000Y-72000000D02*
X196450000Y-72000000D01*
X196450000Y-72000000D02*
X196450000Y-71400000D01*
X198850000Y-71400000D02*
X198850000Y-72000000D01*
X198850000Y-72000000D02*
X199650000Y-72000000D01*
X199650000Y-72000000D02*
X199650000Y-71400000D01*
X198450000Y-71400000D02*
X198450000Y-72000000D01*
X198450000Y-72000000D02*
X197650000Y-72000000D01*
X197650000Y-72000000D02*
X197650000Y-71400000D01*
X202450000Y-71400000D02*
X202450000Y-72000000D01*
X202450000Y-72000000D02*
X203250000Y-72000000D01*
X203250000Y-71400000D02*
X203250000Y-72000000D01*
X193950000Y-67100000D02*
X193650000Y-67100000D01*
X193950000Y-63700000D02*
X193950000Y-67100000D01*
X193950000Y-67100000D02*
X194250000Y-67400000D01*
X194250000Y-63400000D02*
X193950000Y-63700000D01*
X193950000Y-63700000D02*
X193650000Y-63700000D01*
X193950000Y-67400000D02*
X194250000Y-67400000D01*
X194250000Y-67400000D02*
X194250000Y-63400000D01*
X194250000Y-63400000D02*
X193950000Y-63400000D01*
X193950000Y-71100000D02*
X193950000Y-67400000D01*
X193950000Y-67400000D02*
X193650000Y-67100000D01*
X193950000Y-63400000D02*
X193950000Y-61000000D01*
X193950000Y-63400000D02*
X193650000Y-63700000D01*
X203350000Y-67100000D02*
X203650000Y-67100000D01*
X203350000Y-63700000D02*
X203350000Y-67100000D01*
X203350000Y-67100000D02*
X203050000Y-67400000D01*
X203050000Y-63400000D02*
X203350000Y-63700000D01*
X203350000Y-63700000D02*
X203650000Y-63700000D01*
X203350000Y-67400000D02*
X203050000Y-67400000D01*
X203050000Y-67400000D02*
X203050000Y-63400000D01*
X203050000Y-63400000D02*
X203350000Y-63400000D01*
X203350000Y-63400000D02*
X203350000Y-61000000D01*
X203350000Y-63400000D02*
X203650000Y-63700000D01*
X203350000Y-67400000D02*
X203350000Y-71100000D01*
X203350000Y-67400000D02*
X203650000Y-67100000D01*
X203650000Y-60700000D02*
X203650000Y-71400000D01*
X193650000Y-71400000D02*
X193650000Y-60700000D01*
X203350000Y-71100000D02*
X193950000Y-71100000D01*
X203350000Y-71100000D02*
X203650000Y-71400000D01*
X193650000Y-71400000D02*
X193950000Y-71100000D01*
X203650000Y-71400000D02*
X193650000Y-71400000D01*
X203650000Y-60700000D02*
X203350000Y-61000000D01*
X203350000Y-61000000D02*
X193950000Y-61000000D01*
X193950000Y-61000000D02*
X193650000Y-60700000D01*
X203650000Y-60700000D02*
X193650000Y-60700000D01*
X199850000Y-66000000D02*
G75*
G03X199850000Y-66000000I-1200000J0D01*
G01*
X194650000Y-75250000D02*
X193650000Y-75250000D01*
X199250000Y-75250000D02*
X198050000Y-75250000D01*
X202650000Y-75250000D02*
X203650000Y-75250000D01*
X199250000Y-75250000D02*
X199250000Y-75450000D01*
X199250000Y-75450000D02*
X202650000Y-75450000D01*
X202650000Y-75450000D02*
X202650000Y-75250000D01*
X194650000Y-75450000D02*
X198050000Y-75450000D01*
X194650000Y-75250000D02*
X194650000Y-75450000D01*
X198050000Y-75250000D02*
X198050000Y-75450000D01*
X193650000Y-75250000D02*
X193650000Y-75950000D01*
X203650000Y-75250000D02*
X203650000Y-75950000D01*
X201250000Y-86650000D02*
X201250000Y-87250000D01*
X201250000Y-87250000D02*
X202050000Y-87250000D01*
X202050000Y-87250000D02*
X202050000Y-86650000D01*
X200050000Y-86650000D02*
X200050000Y-87250000D01*
X200050000Y-87250000D02*
X200850000Y-87250000D01*
X200850000Y-87250000D02*
X200850000Y-86650000D01*
X194850000Y-86650000D02*
X194850000Y-87250000D01*
X194850000Y-87250000D02*
X194050000Y-87250000D01*
X194050000Y-87250000D02*
X194050000Y-86650000D01*
X196050000Y-86650000D02*
X196050000Y-87250000D01*
X196050000Y-87250000D02*
X195250000Y-87250000D01*
X195250000Y-87250000D02*
X195250000Y-86650000D01*
X197250000Y-86650000D02*
X197250000Y-87250000D01*
X197250000Y-87250000D02*
X196450000Y-87250000D01*
X196450000Y-87250000D02*
X196450000Y-86650000D01*
X198850000Y-86650000D02*
X198850000Y-87250000D01*
X198850000Y-87250000D02*
X199650000Y-87250000D01*
X199650000Y-87250000D02*
X199650000Y-86650000D01*
X198450000Y-86650000D02*
X198450000Y-87250000D01*
X198450000Y-87250000D02*
X197650000Y-87250000D01*
X197650000Y-87250000D02*
X197650000Y-86650000D01*
X202450000Y-86650000D02*
X202450000Y-87250000D01*
X202450000Y-87250000D02*
X203250000Y-87250000D01*
X203250000Y-86650000D02*
X203250000Y-87250000D01*
X193950000Y-82350000D02*
X193650000Y-82350000D01*
X193950000Y-78950000D02*
X193950000Y-82350000D01*
X193950000Y-82350000D02*
X194250000Y-82650000D01*
X194250000Y-78650000D02*
X193950000Y-78950000D01*
X193950000Y-78950000D02*
X193650000Y-78950000D01*
X193950000Y-82650000D02*
X194250000Y-82650000D01*
X194250000Y-82650000D02*
X194250000Y-78650000D01*
X194250000Y-78650000D02*
X193950000Y-78650000D01*
X193950000Y-86350000D02*
X193950000Y-82650000D01*
X193950000Y-82650000D02*
X193650000Y-82350000D01*
X193950000Y-78650000D02*
X193950000Y-76250000D01*
X193950000Y-78650000D02*
X193650000Y-78950000D01*
X203350000Y-82350000D02*
X203650000Y-82350000D01*
X203350000Y-78950000D02*
X203350000Y-82350000D01*
X203350000Y-82350000D02*
X203050000Y-82650000D01*
X203050000Y-78650000D02*
X203350000Y-78950000D01*
X203350000Y-78950000D02*
X203650000Y-78950000D01*
X203350000Y-82650000D02*
X203050000Y-82650000D01*
X203050000Y-82650000D02*
X203050000Y-78650000D01*
X203050000Y-78650000D02*
X203350000Y-78650000D01*
X203350000Y-78650000D02*
X203350000Y-76250000D01*
X203350000Y-78650000D02*
X203650000Y-78950000D01*
X203350000Y-82650000D02*
X203350000Y-86350000D01*
X203350000Y-82650000D02*
X203650000Y-82350000D01*
X203650000Y-75950000D02*
X203650000Y-86650000D01*
X193650000Y-86650000D02*
X193650000Y-75950000D01*
X203350000Y-86350000D02*
X193950000Y-86350000D01*
X203350000Y-86350000D02*
X203650000Y-86650000D01*
X193650000Y-86650000D02*
X193950000Y-86350000D01*
X203650000Y-86650000D02*
X193650000Y-86650000D01*
X203650000Y-75950000D02*
X203350000Y-76250000D01*
X203350000Y-76250000D02*
X193950000Y-76250000D01*
X193950000Y-76250000D02*
X193650000Y-75950000D01*
X203650000Y-75950000D02*
X193650000Y-75950000D01*
X199850000Y-81250000D02*
G75*
G03X199850000Y-81250000I-1200000J0D01*
G01*
X212250000Y-66000000D02*
G75*
G03X212250000Y-66000000I-1200000J0D01*
G01*
X216050000Y-60700000D02*
X206050000Y-60700000D01*
X206350000Y-61000000D02*
X206050000Y-60700000D01*
X215750000Y-61000000D02*
X206350000Y-61000000D01*
X216050000Y-60700000D02*
X215750000Y-61000000D01*
X216050000Y-71400000D02*
X206050000Y-71400000D01*
X206050000Y-71400000D02*
X206350000Y-71100000D01*
X215750000Y-71100000D02*
X216050000Y-71400000D01*
X215750000Y-71100000D02*
X206350000Y-71100000D01*
X206050000Y-71400000D02*
X206050000Y-60700000D01*
X216050000Y-60700000D02*
X216050000Y-71400000D01*
X215750000Y-67400000D02*
X216050000Y-67100000D01*
X215750000Y-67400000D02*
X215750000Y-71100000D01*
X215750000Y-63400000D02*
X216050000Y-63700000D01*
X215750000Y-63400000D02*
X215750000Y-61000000D01*
X215450000Y-63400000D02*
X215750000Y-63400000D01*
X215450000Y-67400000D02*
X215450000Y-63400000D01*
X215750000Y-67400000D02*
X215450000Y-67400000D01*
X215750000Y-63700000D02*
X216050000Y-63700000D01*
X215450000Y-63400000D02*
X215750000Y-63700000D01*
X215750000Y-67100000D02*
X215450000Y-67400000D01*
X215750000Y-63700000D02*
X215750000Y-67100000D01*
X215750000Y-67100000D02*
X216050000Y-67100000D01*
X206350000Y-63400000D02*
X206050000Y-63700000D01*
X206350000Y-63400000D02*
X206350000Y-61000000D01*
X206350000Y-67400000D02*
X206050000Y-67100000D01*
X206350000Y-71100000D02*
X206350000Y-67400000D01*
X206650000Y-63400000D02*
X206350000Y-63400000D01*
X206650000Y-67400000D02*
X206650000Y-63400000D01*
X206350000Y-67400000D02*
X206650000Y-67400000D01*
X206350000Y-63700000D02*
X206050000Y-63700000D01*
X206650000Y-63400000D02*
X206350000Y-63700000D01*
X206350000Y-67100000D02*
X206650000Y-67400000D01*
X206350000Y-63700000D02*
X206350000Y-67100000D01*
X206350000Y-67100000D02*
X206050000Y-67100000D01*
X215650000Y-71400000D02*
X215650000Y-72000000D01*
X214850000Y-72000000D02*
X215650000Y-72000000D01*
X214850000Y-71400000D02*
X214850000Y-72000000D01*
X210050000Y-72000000D02*
X210050000Y-71400000D01*
X210850000Y-72000000D02*
X210050000Y-72000000D01*
X210850000Y-71400000D02*
X210850000Y-72000000D01*
X212050000Y-72000000D02*
X212050000Y-71400000D01*
X211250000Y-72000000D02*
X212050000Y-72000000D01*
X211250000Y-71400000D02*
X211250000Y-72000000D01*
X208850000Y-72000000D02*
X208850000Y-71400000D01*
X209650000Y-72000000D02*
X208850000Y-72000000D01*
X209650000Y-71400000D02*
X209650000Y-72000000D01*
X207650000Y-72000000D02*
X207650000Y-71400000D01*
X208450000Y-72000000D02*
X207650000Y-72000000D01*
X208450000Y-71400000D02*
X208450000Y-72000000D01*
X206450000Y-72000000D02*
X206450000Y-71400000D01*
X207250000Y-72000000D02*
X206450000Y-72000000D01*
X207250000Y-71400000D02*
X207250000Y-72000000D01*
X213250000Y-72000000D02*
X213250000Y-71400000D01*
X212450000Y-72000000D02*
X213250000Y-72000000D01*
X212450000Y-71400000D02*
X212450000Y-72000000D01*
X214450000Y-72000000D02*
X214450000Y-71400000D01*
X213650000Y-72000000D02*
X214450000Y-72000000D01*
X213650000Y-71400000D02*
X213650000Y-72000000D01*
X216050000Y-60000000D02*
X216050000Y-60700000D01*
X206050000Y-60000000D02*
X206050000Y-60700000D01*
X210450000Y-60000000D02*
X210450000Y-60200000D01*
X207050000Y-60000000D02*
X207050000Y-60200000D01*
X207050000Y-60200000D02*
X210450000Y-60200000D01*
X215050000Y-60200000D02*
X215050000Y-60000000D01*
X211650000Y-60200000D02*
X215050000Y-60200000D01*
X211650000Y-60000000D02*
X211650000Y-60200000D01*
X215050000Y-60000000D02*
X216050000Y-60000000D01*
X211650000Y-60000000D02*
X210450000Y-60000000D01*
X207050000Y-60000000D02*
X206050000Y-60000000D01*
X207050000Y-75250000D02*
X206050000Y-75250000D01*
X211650000Y-75250000D02*
X210450000Y-75250000D01*
X215050000Y-75250000D02*
X216050000Y-75250000D01*
X211650000Y-75250000D02*
X211650000Y-75450000D01*
X211650000Y-75450000D02*
X215050000Y-75450000D01*
X215050000Y-75450000D02*
X215050000Y-75250000D01*
X207050000Y-75450000D02*
X210450000Y-75450000D01*
X207050000Y-75250000D02*
X207050000Y-75450000D01*
X210450000Y-75250000D02*
X210450000Y-75450000D01*
X206050000Y-75250000D02*
X206050000Y-75950000D01*
X216050000Y-75250000D02*
X216050000Y-75950000D01*
X213650000Y-86650000D02*
X213650000Y-87250000D01*
X213650000Y-87250000D02*
X214450000Y-87250000D01*
X214450000Y-87250000D02*
X214450000Y-86650000D01*
X212450000Y-86650000D02*
X212450000Y-87250000D01*
X212450000Y-87250000D02*
X213250000Y-87250000D01*
X213250000Y-87250000D02*
X213250000Y-86650000D01*
X207250000Y-86650000D02*
X207250000Y-87250000D01*
X207250000Y-87250000D02*
X206450000Y-87250000D01*
X206450000Y-87250000D02*
X206450000Y-86650000D01*
X208450000Y-86650000D02*
X208450000Y-87250000D01*
X208450000Y-87250000D02*
X207650000Y-87250000D01*
X207650000Y-87250000D02*
X207650000Y-86650000D01*
X209650000Y-86650000D02*
X209650000Y-87250000D01*
X209650000Y-87250000D02*
X208850000Y-87250000D01*
X208850000Y-87250000D02*
X208850000Y-86650000D01*
X211250000Y-86650000D02*
X211250000Y-87250000D01*
X211250000Y-87250000D02*
X212050000Y-87250000D01*
X212050000Y-87250000D02*
X212050000Y-86650000D01*
X210850000Y-86650000D02*
X210850000Y-87250000D01*
X210850000Y-87250000D02*
X210050000Y-87250000D01*
X210050000Y-87250000D02*
X210050000Y-86650000D01*
X214850000Y-86650000D02*
X214850000Y-87250000D01*
X214850000Y-87250000D02*
X215650000Y-87250000D01*
X215650000Y-86650000D02*
X215650000Y-87250000D01*
X206350000Y-82350000D02*
X206050000Y-82350000D01*
X206350000Y-78950000D02*
X206350000Y-82350000D01*
X206350000Y-82350000D02*
X206650000Y-82650000D01*
X206650000Y-78650000D02*
X206350000Y-78950000D01*
X206350000Y-78950000D02*
X206050000Y-78950000D01*
X206350000Y-82650000D02*
X206650000Y-82650000D01*
X206650000Y-82650000D02*
X206650000Y-78650000D01*
X206650000Y-78650000D02*
X206350000Y-78650000D01*
X206350000Y-86350000D02*
X206350000Y-82650000D01*
X206350000Y-82650000D02*
X206050000Y-82350000D01*
X206350000Y-78650000D02*
X206350000Y-76250000D01*
X206350000Y-78650000D02*
X206050000Y-78950000D01*
X215750000Y-82350000D02*
X216050000Y-82350000D01*
X215750000Y-78950000D02*
X215750000Y-82350000D01*
X215750000Y-82350000D02*
X215450000Y-82650000D01*
X215450000Y-78650000D02*
X215750000Y-78950000D01*
X215750000Y-78950000D02*
X216050000Y-78950000D01*
X215750000Y-82650000D02*
X215450000Y-82650000D01*
X215450000Y-82650000D02*
X215450000Y-78650000D01*
X215450000Y-78650000D02*
X215750000Y-78650000D01*
X215750000Y-78650000D02*
X215750000Y-76250000D01*
X215750000Y-78650000D02*
X216050000Y-78950000D01*
X215750000Y-82650000D02*
X215750000Y-86350000D01*
X215750000Y-82650000D02*
X216050000Y-82350000D01*
X216050000Y-75950000D02*
X216050000Y-86650000D01*
X206050000Y-86650000D02*
X206050000Y-75950000D01*
X215750000Y-86350000D02*
X206350000Y-86350000D01*
X215750000Y-86350000D02*
X216050000Y-86650000D01*
X206050000Y-86650000D02*
X206350000Y-86350000D01*
X216050000Y-86650000D02*
X206050000Y-86650000D01*
X216050000Y-75950000D02*
X215750000Y-76250000D01*
X215750000Y-76250000D02*
X206350000Y-76250000D01*
X206350000Y-76250000D02*
X206050000Y-75950000D01*
X216050000Y-75950000D02*
X206050000Y-75950000D01*
X212250000Y-81250000D02*
G75*
G03X212250000Y-81250000I-1200000J0D01*
G01*
D13*
X189200000Y-115510000D02*
X187250000Y-115510000D01*
X189200000Y-115510000D02*
X191150000Y-115510000D01*
X189200000Y-110390000D02*
X187250000Y-110390000D01*
X189200000Y-110390000D02*
X192650000Y-110390000D01*
X194500000Y-125900000D02*
X192900000Y-125900000D01*
X192900000Y-122700000D02*
X195200000Y-122700000D01*
X242385000Y-103775000D02*
X242385000Y-106050000D01*
X242385000Y-103775000D02*
X242385000Y-101500000D01*
X239565000Y-103775000D02*
X239565000Y-106050000D01*
X239565000Y-103775000D02*
X239565000Y-99725000D01*
D12*
X227500000Y-109000000D02*
X227500000Y-97000000D01*
X218500000Y-109000000D02*
X227500000Y-109000000D01*
X227500000Y-109000000D02*
X228000000Y-109500000D01*
X218500000Y-97000000D02*
X218500000Y-109000000D01*
X218500000Y-109000000D02*
X218000000Y-109500000D01*
X218500000Y-97000000D02*
X218000000Y-96500000D01*
X227500000Y-97000000D02*
X218500000Y-97000000D01*
X228000000Y-96500000D02*
X227500000Y-97000000D01*
X216000000Y-104000000D02*
X216000000Y-93000000D01*
X216500000Y-105000000D02*
X218000000Y-105000000D01*
X216500000Y-105000000D02*
X216000000Y-104000000D01*
X230000000Y-104000000D02*
X230000000Y-93000000D01*
X229500000Y-105000000D02*
X228000000Y-105000000D01*
X230000000Y-104000000D02*
X229500000Y-105000000D01*
X227000000Y-108000000D02*
G75*
G03X227000000Y-108000000I-500000J0D01*
G01*
X224500000Y-103000000D02*
G75*
G03X224500000Y-103000000I-1500000J0D01*
G01*
X220800000Y-109500000D02*
X220800000Y-111700000D01*
X221200000Y-109500000D02*
X221200000Y-111700000D01*
X224800000Y-109500000D02*
X224800000Y-111700000D01*
X225200000Y-109500000D02*
X225200000Y-111700000D01*
X222800000Y-109500000D02*
X222800000Y-111700000D01*
X223200000Y-109500000D02*
X223200000Y-111700000D01*
X220000000Y-93000000D02*
X220000000Y-96500000D01*
X226000000Y-93000000D02*
X226000000Y-96500000D01*
X218000000Y-109500000D02*
X228000000Y-109500000D01*
X228000000Y-96500000D02*
X218000000Y-96500000D01*
X228000000Y-96500000D02*
X228000000Y-109500000D01*
X218000000Y-96500000D02*
X218000000Y-109500000D01*
D13*
X235825000Y-98100000D02*
X235825000Y-100400000D01*
X232625000Y-99700000D02*
X232625000Y-98100000D01*
X189250000Y-138500000D02*
X193150000Y-138500000D01*
X189250000Y-136500000D02*
X193150000Y-136500000D01*
X189250000Y-138500000D02*
X189250000Y-136500000D01*
X194250000Y-138500000D02*
X194250000Y-136500000D01*
X194250000Y-136500000D02*
X198150000Y-136500000D01*
X194250000Y-138500000D02*
X198150000Y-138500000D01*
X191330000Y-131760000D02*
X190400000Y-131760000D01*
X188170000Y-131760000D02*
X189100000Y-131760000D01*
X188170000Y-131760000D02*
X188170000Y-129600000D01*
X191330000Y-131760000D02*
X191330000Y-130300000D01*
X196330000Y-131760000D02*
X196330000Y-130300000D01*
X193170000Y-131760000D02*
X193170000Y-129600000D01*
X193170000Y-131760000D02*
X194100000Y-131760000D01*
X196330000Y-131760000D02*
X195400000Y-131760000D01*
X230395000Y-81780000D02*
X230395000Y-87640000D01*
X230395000Y-87640000D02*
X227225000Y-87640000D01*
X227225000Y-87640000D02*
X227225000Y-81780000D01*
X195640000Y-111390000D02*
X196900000Y-111390000D01*
X202460000Y-111390000D02*
X201200000Y-111390000D01*
X195640000Y-115150000D02*
X195640000Y-111390000D01*
X202460000Y-117400000D02*
X202460000Y-111390000D01*
D10*
X186345238Y-82247619D02*
X186440476Y-82200000D01*
X186535714Y-82104761D01*
X186678571Y-81961904D01*
X186773809Y-81914285D01*
X186869047Y-81914285D01*
X186821428Y-82152380D02*
X186916666Y-82104761D01*
X187011904Y-82009523D01*
X187059523Y-81819047D01*
X187059523Y-81485714D01*
X187011904Y-81295238D01*
X186916666Y-81200000D01*
X186821428Y-81152380D01*
X186630952Y-81152380D01*
X186535714Y-81200000D01*
X186440476Y-81295238D01*
X186392857Y-81485714D01*
X186392857Y-81819047D01*
X186440476Y-82009523D01*
X186535714Y-82104761D01*
X186630952Y-82152380D01*
X186821428Y-82152380D01*
X186011904Y-81247619D02*
X185964285Y-81200000D01*
X185869047Y-81152380D01*
X185630952Y-81152380D01*
X185535714Y-81200000D01*
X185488095Y-81247619D01*
X185440476Y-81342857D01*
X185440476Y-81438095D01*
X185488095Y-81580952D01*
X186059523Y-82152380D01*
X185440476Y-82152380D01*
X194361904Y-111978571D02*
X194361904Y-112054761D01*
X194400000Y-112130952D01*
X194438095Y-112169047D01*
X194514285Y-112207142D01*
X194666666Y-112245238D01*
X194857142Y-112245238D01*
X195009523Y-112207142D01*
X195085714Y-112169047D01*
X195123809Y-112130952D01*
X195161904Y-112054761D01*
X195161904Y-111978571D01*
X195123809Y-111902380D01*
X195085714Y-111864285D01*
X195009523Y-111826190D01*
X194857142Y-111788095D01*
X194666666Y-111788095D01*
X194514285Y-111826190D01*
X194438095Y-111864285D01*
X194400000Y-111902380D01*
X194361904Y-111978571D01*
X195085714Y-112588095D02*
X195123809Y-112626190D01*
X195161904Y-112588095D01*
X195123809Y-112550000D01*
X195085714Y-112588095D01*
X195161904Y-112588095D01*
X195161904Y-113388095D02*
X195161904Y-112930952D01*
X195161904Y-113159523D02*
X194361904Y-113159523D01*
X194476190Y-113083333D01*
X194552380Y-113007142D01*
X194590476Y-112930952D01*
X194628571Y-114073809D02*
X195161904Y-114073809D01*
X194628571Y-113730952D02*
X195047619Y-113730952D01*
X195123809Y-113769047D01*
X195161904Y-113845238D01*
X195161904Y-113959523D01*
X195123809Y-114035714D01*
X195085714Y-114073809D01*
X198061904Y-120678571D02*
X198061904Y-120754761D01*
X198100000Y-120830952D01*
X198138095Y-120869047D01*
X198214285Y-120907142D01*
X198366666Y-120945238D01*
X198557142Y-120945238D01*
X198709523Y-120907142D01*
X198785714Y-120869047D01*
X198823809Y-120830952D01*
X198861904Y-120754761D01*
X198861904Y-120678571D01*
X198823809Y-120602380D01*
X198785714Y-120564285D01*
X198709523Y-120526190D01*
X198557142Y-120488095D01*
X198366666Y-120488095D01*
X198214285Y-120526190D01*
X198138095Y-120564285D01*
X198100000Y-120602380D01*
X198061904Y-120678571D01*
X198785714Y-121288095D02*
X198823809Y-121326190D01*
X198861904Y-121288095D01*
X198823809Y-121250000D01*
X198785714Y-121288095D01*
X198861904Y-121288095D01*
X198861904Y-122088095D02*
X198861904Y-121630952D01*
X198861904Y-121859523D02*
X198061904Y-121859523D01*
X198176190Y-121783333D01*
X198252380Y-121707142D01*
X198290476Y-121630952D01*
X198328571Y-122773809D02*
X198861904Y-122773809D01*
X198328571Y-122430952D02*
X198747619Y-122430952D01*
X198823809Y-122469047D01*
X198861904Y-122545238D01*
X198861904Y-122659523D01*
X198823809Y-122735714D01*
X198785714Y-122773809D01*
X193921428Y-120211904D02*
X193845238Y-120211904D01*
X193769047Y-120250000D01*
X193730952Y-120288095D01*
X193692857Y-120364285D01*
X193654761Y-120516666D01*
X193654761Y-120707142D01*
X193692857Y-120859523D01*
X193730952Y-120935714D01*
X193769047Y-120973809D01*
X193845238Y-121011904D01*
X193921428Y-121011904D01*
X193997619Y-120973809D01*
X194035714Y-120935714D01*
X194073809Y-120859523D01*
X194111904Y-120707142D01*
X194111904Y-120516666D01*
X194073809Y-120364285D01*
X194035714Y-120288095D01*
X193997619Y-120250000D01*
X193921428Y-120211904D01*
X193311904Y-120935714D02*
X193273809Y-120973809D01*
X193311904Y-121011904D01*
X193350000Y-120973809D01*
X193311904Y-120935714D01*
X193311904Y-121011904D01*
X192511904Y-121011904D02*
X192969047Y-121011904D01*
X192740476Y-121011904D02*
X192740476Y-120211904D01*
X192816666Y-120326190D01*
X192892857Y-120402380D01*
X192969047Y-120440476D01*
X191826190Y-120478571D02*
X191826190Y-121011904D01*
X192169047Y-120478571D02*
X192169047Y-120897619D01*
X192130952Y-120973809D01*
X192054761Y-121011904D01*
X191940476Y-121011904D01*
X191864285Y-120973809D01*
X191826190Y-120935714D01*
X178731904Y-115878571D02*
X178731904Y-115954761D01*
X178770000Y-116030952D01*
X178808095Y-116069047D01*
X178884285Y-116107142D01*
X179036666Y-116145238D01*
X179227142Y-116145238D01*
X179379523Y-116107142D01*
X179455714Y-116069047D01*
X179493809Y-116030952D01*
X179531904Y-115954761D01*
X179531904Y-115878571D01*
X179493809Y-115802380D01*
X179455714Y-115764285D01*
X179379523Y-115726190D01*
X179227142Y-115688095D01*
X179036666Y-115688095D01*
X178884285Y-115726190D01*
X178808095Y-115764285D01*
X178770000Y-115802380D01*
X178731904Y-115878571D01*
X179455714Y-116488095D02*
X179493809Y-116526190D01*
X179531904Y-116488095D01*
X179493809Y-116450000D01*
X179455714Y-116488095D01*
X179531904Y-116488095D01*
X179531904Y-117288095D02*
X179531904Y-116830952D01*
X179531904Y-117059523D02*
X178731904Y-117059523D01*
X178846190Y-116983333D01*
X178922380Y-116907142D01*
X178960476Y-116830952D01*
X178998571Y-117973809D02*
X179531904Y-117973809D01*
X178998571Y-117630952D02*
X179417619Y-117630952D01*
X179493809Y-117669047D01*
X179531904Y-117745238D01*
X179531904Y-117859523D01*
X179493809Y-117935714D01*
X179455714Y-117973809D01*
X184352380Y-132710714D02*
X184352380Y-132805952D01*
X184400000Y-132901190D01*
X184447619Y-132948809D01*
X184542857Y-132996428D01*
X184733333Y-133044047D01*
X184971428Y-133044047D01*
X185161904Y-132996428D01*
X185257142Y-132948809D01*
X185304761Y-132901190D01*
X185352380Y-132805952D01*
X185352380Y-132710714D01*
X185304761Y-132615476D01*
X185257142Y-132567857D01*
X185161904Y-132520238D01*
X184971428Y-132472619D01*
X184733333Y-132472619D01*
X184542857Y-132520238D01*
X184447619Y-132567857D01*
X184400000Y-132615476D01*
X184352380Y-132710714D01*
X185257142Y-133472619D02*
X185304761Y-133520238D01*
X185352380Y-133472619D01*
X185304761Y-133425000D01*
X185257142Y-133472619D01*
X185352380Y-133472619D01*
X185352380Y-134472619D02*
X185352380Y-133901190D01*
X185352380Y-134186904D02*
X184352380Y-134186904D01*
X184495238Y-134091666D01*
X184590476Y-133996428D01*
X184638095Y-133901190D01*
X184685714Y-135329761D02*
X185352380Y-135329761D01*
X184685714Y-134901190D02*
X185209523Y-134901190D01*
X185304761Y-134948809D01*
X185352380Y-135044047D01*
X185352380Y-135186904D01*
X185304761Y-135282142D01*
X185257142Y-135329761D01*
X190828571Y-120669047D02*
X191361904Y-120669047D01*
X190523809Y-120478571D02*
X191095238Y-120288095D01*
X191095238Y-120783333D01*
X191285714Y-121088095D02*
X191323809Y-121126190D01*
X191361904Y-121088095D01*
X191323809Y-121050000D01*
X191285714Y-121088095D01*
X191361904Y-121088095D01*
X190561904Y-121392857D02*
X190561904Y-121926190D01*
X191361904Y-121583333D01*
X190828571Y-122573809D02*
X191361904Y-122573809D01*
X190828571Y-122230952D02*
X191247619Y-122230952D01*
X191323809Y-122269047D01*
X191361904Y-122345238D01*
X191361904Y-122459523D01*
X191323809Y-122535714D01*
X191285714Y-122573809D01*
X194928571Y-115819047D02*
X195461904Y-115819047D01*
X194623809Y-115628571D02*
X195195238Y-115438095D01*
X195195238Y-115933333D01*
X195385714Y-116238095D02*
X195423809Y-116276190D01*
X195461904Y-116238095D01*
X195423809Y-116200000D01*
X195385714Y-116238095D01*
X195461904Y-116238095D01*
X194661904Y-116542857D02*
X194661904Y-117076190D01*
X195461904Y-116733333D01*
X194928571Y-117723809D02*
X195461904Y-117723809D01*
X194928571Y-117380952D02*
X195347619Y-117380952D01*
X195423809Y-117419047D01*
X195461904Y-117495238D01*
X195461904Y-117609523D01*
X195423809Y-117685714D01*
X195385714Y-117723809D01*
X198414285Y-120011904D02*
X198871428Y-120011904D01*
X198642857Y-120011904D02*
X198642857Y-119211904D01*
X198719047Y-119326190D01*
X198795238Y-119402380D01*
X198871428Y-119440476D01*
X197919047Y-119211904D02*
X197842857Y-119211904D01*
X197766666Y-119250000D01*
X197728571Y-119288095D01*
X197690476Y-119364285D01*
X197652380Y-119516666D01*
X197652380Y-119707142D01*
X197690476Y-119859523D01*
X197728571Y-119935714D01*
X197766666Y-119973809D01*
X197842857Y-120011904D01*
X197919047Y-120011904D01*
X197995238Y-119973809D01*
X198033333Y-119935714D01*
X198071428Y-119859523D01*
X198109523Y-119707142D01*
X198109523Y-119516666D01*
X198071428Y-119364285D01*
X198033333Y-119288095D01*
X197995238Y-119250000D01*
X197919047Y-119211904D01*
X196966666Y-119478571D02*
X196966666Y-120011904D01*
X197309523Y-119478571D02*
X197309523Y-119897619D01*
X197271428Y-119973809D01*
X197195238Y-120011904D01*
X197080952Y-120011904D01*
X197004761Y-119973809D01*
X196966666Y-119935714D01*
X201821428Y-119288095D02*
X201783333Y-119250000D01*
X201707142Y-119211904D01*
X201516666Y-119211904D01*
X201440476Y-119250000D01*
X201402380Y-119288095D01*
X201364285Y-119364285D01*
X201364285Y-119440476D01*
X201402380Y-119554761D01*
X201859523Y-120011904D01*
X201364285Y-120011904D01*
X201059523Y-119288095D02*
X201021428Y-119250000D01*
X200945238Y-119211904D01*
X200754761Y-119211904D01*
X200678571Y-119250000D01*
X200640476Y-119288095D01*
X200602380Y-119364285D01*
X200602380Y-119440476D01*
X200640476Y-119554761D01*
X201097619Y-120011904D01*
X200602380Y-120011904D01*
X199916666Y-119478571D02*
X199916666Y-120011904D01*
X200259523Y-119478571D02*
X200259523Y-119897619D01*
X200221428Y-119973809D01*
X200145238Y-120011904D01*
X200030952Y-120011904D01*
X199954761Y-119973809D01*
X199916666Y-119935714D01*
X229371428Y-110561904D02*
X229295238Y-110561904D01*
X229219047Y-110600000D01*
X229180952Y-110638095D01*
X229142857Y-110714285D01*
X229104761Y-110866666D01*
X229104761Y-111057142D01*
X229142857Y-111209523D01*
X229180952Y-111285714D01*
X229219047Y-111323809D01*
X229295238Y-111361904D01*
X229371428Y-111361904D01*
X229447619Y-111323809D01*
X229485714Y-111285714D01*
X229523809Y-111209523D01*
X229561904Y-111057142D01*
X229561904Y-110866666D01*
X229523809Y-110714285D01*
X229485714Y-110638095D01*
X229447619Y-110600000D01*
X229371428Y-110561904D01*
X228761904Y-111285714D02*
X228723809Y-111323809D01*
X228761904Y-111361904D01*
X228800000Y-111323809D01*
X228761904Y-111285714D01*
X228761904Y-111361904D01*
X227961904Y-111361904D02*
X228419047Y-111361904D01*
X228190476Y-111361904D02*
X228190476Y-110561904D01*
X228266666Y-110676190D01*
X228342857Y-110752380D01*
X228419047Y-110790476D01*
X227276190Y-110828571D02*
X227276190Y-111361904D01*
X227619047Y-110828571D02*
X227619047Y-111247619D01*
X227580952Y-111323809D01*
X227504761Y-111361904D01*
X227390476Y-111361904D01*
X227314285Y-111323809D01*
X227276190Y-111285714D01*
X236221428Y-103161904D02*
X236145238Y-103161904D01*
X236069047Y-103200000D01*
X236030952Y-103238095D01*
X235992857Y-103314285D01*
X235954761Y-103466666D01*
X235954761Y-103657142D01*
X235992857Y-103809523D01*
X236030952Y-103885714D01*
X236069047Y-103923809D01*
X236145238Y-103961904D01*
X236221428Y-103961904D01*
X236297619Y-103923809D01*
X236335714Y-103885714D01*
X236373809Y-103809523D01*
X236411904Y-103657142D01*
X236411904Y-103466666D01*
X236373809Y-103314285D01*
X236335714Y-103238095D01*
X236297619Y-103200000D01*
X236221428Y-103161904D01*
X235611904Y-103885714D02*
X235573809Y-103923809D01*
X235611904Y-103961904D01*
X235650000Y-103923809D01*
X235611904Y-103885714D01*
X235611904Y-103961904D01*
X234811904Y-103961904D02*
X235269047Y-103961904D01*
X235040476Y-103961904D02*
X235040476Y-103161904D01*
X235116666Y-103276190D01*
X235192857Y-103352380D01*
X235269047Y-103390476D01*
X234126190Y-103428571D02*
X234126190Y-103961904D01*
X234469047Y-103428571D02*
X234469047Y-103847619D01*
X234430952Y-103923809D01*
X234354761Y-103961904D01*
X234240476Y-103961904D01*
X234164285Y-103923809D01*
X234126190Y-103885714D01*
X237486904Y-97678571D02*
X237486904Y-97754761D01*
X237525000Y-97830952D01*
X237563095Y-97869047D01*
X237639285Y-97907142D01*
X237791666Y-97945238D01*
X237982142Y-97945238D01*
X238134523Y-97907142D01*
X238210714Y-97869047D01*
X238248809Y-97830952D01*
X238286904Y-97754761D01*
X238286904Y-97678571D01*
X238248809Y-97602380D01*
X238210714Y-97564285D01*
X238134523Y-97526190D01*
X237982142Y-97488095D01*
X237791666Y-97488095D01*
X237639285Y-97526190D01*
X237563095Y-97564285D01*
X237525000Y-97602380D01*
X237486904Y-97678571D01*
X238210714Y-98288095D02*
X238248809Y-98326190D01*
X238286904Y-98288095D01*
X238248809Y-98250000D01*
X238210714Y-98288095D01*
X238286904Y-98288095D01*
X238286904Y-99088095D02*
X238286904Y-98630952D01*
X238286904Y-98859523D02*
X237486904Y-98859523D01*
X237601190Y-98783333D01*
X237677380Y-98707142D01*
X237715476Y-98630952D01*
X237753571Y-99773809D02*
X238286904Y-99773809D01*
X237753571Y-99430952D02*
X238172619Y-99430952D01*
X238248809Y-99469047D01*
X238286904Y-99545238D01*
X238286904Y-99659523D01*
X238248809Y-99735714D01*
X238210714Y-99773809D01*
X237758333Y-96300000D02*
X237758333Y-96766666D01*
X237925000Y-96033333D02*
X238091666Y-96533333D01*
X237658333Y-96533333D01*
X237391666Y-96700000D02*
X237358333Y-96733333D01*
X237391666Y-96766666D01*
X237425000Y-96733333D01*
X237391666Y-96700000D01*
X237391666Y-96766666D01*
X237125000Y-96066666D02*
X236658333Y-96066666D01*
X236958333Y-96766666D01*
X236091666Y-96300000D02*
X236091666Y-96766666D01*
X236391666Y-96300000D02*
X236391666Y-96666666D01*
X236358333Y-96733333D01*
X236291666Y-96766666D01*
X236191666Y-96766666D01*
X236125000Y-96733333D01*
X236091666Y-96700000D01*
X235280952Y-83878571D02*
X235280952Y-84411904D01*
X235471428Y-83573809D02*
X235661904Y-84145238D01*
X235166666Y-84145238D01*
X234861904Y-84335714D02*
X234823809Y-84373809D01*
X234861904Y-84411904D01*
X234900000Y-84373809D01*
X234861904Y-84335714D01*
X234861904Y-84411904D01*
X234557142Y-83611904D02*
X234023809Y-83611904D01*
X234366666Y-84411904D01*
X233376190Y-83878571D02*
X233376190Y-84411904D01*
X233719047Y-83878571D02*
X233719047Y-84297619D01*
X233680952Y-84373809D01*
X233604761Y-84411904D01*
X233490476Y-84411904D01*
X233414285Y-84373809D01*
X233376190Y-84335714D01*
X240178571Y-91469047D02*
X240711904Y-91469047D01*
X239873809Y-91278571D02*
X240445238Y-91088095D01*
X240445238Y-91583333D01*
X240635714Y-91888095D02*
X240673809Y-91926190D01*
X240711904Y-91888095D01*
X240673809Y-91850000D01*
X240635714Y-91888095D01*
X240711904Y-91888095D01*
X239911904Y-92192857D02*
X239911904Y-92726190D01*
X240711904Y-92383333D01*
X240178571Y-93373809D02*
X240711904Y-93373809D01*
X240178571Y-93030952D02*
X240597619Y-93030952D01*
X240673809Y-93069047D01*
X240711904Y-93145238D01*
X240711904Y-93259523D01*
X240673809Y-93335714D01*
X240635714Y-93373809D01*
X236330952Y-66628571D02*
X236330952Y-67161904D01*
X236521428Y-66323809D02*
X236711904Y-66895238D01*
X236216666Y-66895238D01*
X235911904Y-67085714D02*
X235873809Y-67123809D01*
X235911904Y-67161904D01*
X235950000Y-67123809D01*
X235911904Y-67085714D01*
X235911904Y-67161904D01*
X235607142Y-66361904D02*
X235073809Y-66361904D01*
X235416666Y-67161904D01*
X234426190Y-66628571D02*
X234426190Y-67161904D01*
X234769047Y-66628571D02*
X234769047Y-67047619D01*
X234730952Y-67123809D01*
X234654761Y-67161904D01*
X234540476Y-67161904D01*
X234464285Y-67123809D01*
X234426190Y-67085714D01*
X233695238Y-129223809D02*
X233580952Y-129261904D01*
X233390476Y-129261904D01*
X233314285Y-129223809D01*
X233276190Y-129185714D01*
X233238095Y-129109523D01*
X233238095Y-129033333D01*
X233276190Y-128957142D01*
X233314285Y-128919047D01*
X233390476Y-128880952D01*
X233542857Y-128842857D01*
X233619047Y-128804761D01*
X233657142Y-128766666D01*
X233695238Y-128690476D01*
X233695238Y-128614285D01*
X233657142Y-128538095D01*
X233619047Y-128500000D01*
X233542857Y-128461904D01*
X233352380Y-128461904D01*
X233238095Y-128500000D01*
X232971428Y-128461904D02*
X232780952Y-129261904D01*
X232628571Y-128690476D01*
X232476190Y-129261904D01*
X232285714Y-128461904D01*
X231980952Y-129261904D02*
X231980952Y-128461904D01*
X231790476Y-128461904D01*
X231676190Y-128500000D01*
X231600000Y-128576190D01*
X231561904Y-128652380D01*
X231523809Y-128804761D01*
X231523809Y-128919047D01*
X231561904Y-129071428D01*
X231600000Y-129147619D01*
X231676190Y-129223809D01*
X231790476Y-129261904D01*
X231980952Y-129261904D01*
X231371428Y-129338095D02*
X230761904Y-129338095D01*
X230342857Y-128461904D02*
X230342857Y-129033333D01*
X230380952Y-129147619D01*
X230457142Y-129223809D01*
X230571428Y-129261904D01*
X230647619Y-129261904D01*
X229961904Y-129261904D02*
X229961904Y-128461904D01*
X229657142Y-128461904D01*
X229580952Y-128500000D01*
X229542857Y-128538095D01*
X229504761Y-128614285D01*
X229504761Y-128728571D01*
X229542857Y-128804761D01*
X229580952Y-128842857D01*
X229657142Y-128880952D01*
X229961904Y-128880952D01*
X186345238Y-66997619D02*
X186440476Y-66950000D01*
X186535714Y-66854761D01*
X186678571Y-66711904D01*
X186773809Y-66664285D01*
X186869047Y-66664285D01*
X186821428Y-66902380D02*
X186916666Y-66854761D01*
X187011904Y-66759523D01*
X187059523Y-66569047D01*
X187059523Y-66235714D01*
X187011904Y-66045238D01*
X186916666Y-65950000D01*
X186821428Y-65902380D01*
X186630952Y-65902380D01*
X186535714Y-65950000D01*
X186440476Y-66045238D01*
X186392857Y-66235714D01*
X186392857Y-66569047D01*
X186440476Y-66759523D01*
X186535714Y-66854761D01*
X186630952Y-66902380D01*
X186821428Y-66902380D01*
X185440476Y-66902380D02*
X186011904Y-66902380D01*
X185726190Y-66902380D02*
X185726190Y-65902380D01*
X185821428Y-66045238D01*
X185916666Y-66140476D01*
X186011904Y-66188095D01*
X198745238Y-67047619D02*
X198840476Y-67000000D01*
X198935714Y-66904761D01*
X199078571Y-66761904D01*
X199173809Y-66714285D01*
X199269047Y-66714285D01*
X199221428Y-66952380D02*
X199316666Y-66904761D01*
X199411904Y-66809523D01*
X199459523Y-66619047D01*
X199459523Y-66285714D01*
X199411904Y-66095238D01*
X199316666Y-66000000D01*
X199221428Y-65952380D01*
X199030952Y-65952380D01*
X198935714Y-66000000D01*
X198840476Y-66095238D01*
X198792857Y-66285714D01*
X198792857Y-66619047D01*
X198840476Y-66809523D01*
X198935714Y-66904761D01*
X199030952Y-66952380D01*
X199221428Y-66952380D01*
X198459523Y-65952380D02*
X197840476Y-65952380D01*
X198173809Y-66333333D01*
X198030952Y-66333333D01*
X197935714Y-66380952D01*
X197888095Y-66428571D01*
X197840476Y-66523809D01*
X197840476Y-66761904D01*
X197888095Y-66857142D01*
X197935714Y-66904761D01*
X198030952Y-66952380D01*
X198316666Y-66952380D01*
X198411904Y-66904761D01*
X198459523Y-66857142D01*
X198745238Y-82297619D02*
X198840476Y-82250000D01*
X198935714Y-82154761D01*
X199078571Y-82011904D01*
X199173809Y-81964285D01*
X199269047Y-81964285D01*
X199221428Y-82202380D02*
X199316666Y-82154761D01*
X199411904Y-82059523D01*
X199459523Y-81869047D01*
X199459523Y-81535714D01*
X199411904Y-81345238D01*
X199316666Y-81250000D01*
X199221428Y-81202380D01*
X199030952Y-81202380D01*
X198935714Y-81250000D01*
X198840476Y-81345238D01*
X198792857Y-81535714D01*
X198792857Y-81869047D01*
X198840476Y-82059523D01*
X198935714Y-82154761D01*
X199030952Y-82202380D01*
X199221428Y-82202380D01*
X197935714Y-81535714D02*
X197935714Y-82202380D01*
X198173809Y-81154761D02*
X198411904Y-81869047D01*
X197792857Y-81869047D01*
X211145238Y-67047619D02*
X211240476Y-67000000D01*
X211335714Y-66904761D01*
X211478571Y-66761904D01*
X211573809Y-66714285D01*
X211669047Y-66714285D01*
X211621428Y-66952380D02*
X211716666Y-66904761D01*
X211811904Y-66809523D01*
X211859523Y-66619047D01*
X211859523Y-66285714D01*
X211811904Y-66095238D01*
X211716666Y-66000000D01*
X211621428Y-65952380D01*
X211430952Y-65952380D01*
X211335714Y-66000000D01*
X211240476Y-66095238D01*
X211192857Y-66285714D01*
X211192857Y-66619047D01*
X211240476Y-66809523D01*
X211335714Y-66904761D01*
X211430952Y-66952380D01*
X211621428Y-66952380D01*
X210288095Y-65952380D02*
X210764285Y-65952380D01*
X210811904Y-66428571D01*
X210764285Y-66380952D01*
X210669047Y-66333333D01*
X210430952Y-66333333D01*
X210335714Y-66380952D01*
X210288095Y-66428571D01*
X210240476Y-66523809D01*
X210240476Y-66761904D01*
X210288095Y-66857142D01*
X210335714Y-66904761D01*
X210430952Y-66952380D01*
X210669047Y-66952380D01*
X210764285Y-66904761D01*
X210811904Y-66857142D01*
X211145238Y-82297619D02*
X211240476Y-82250000D01*
X211335714Y-82154761D01*
X211478571Y-82011904D01*
X211573809Y-81964285D01*
X211669047Y-81964285D01*
X211621428Y-82202380D02*
X211716666Y-82154761D01*
X211811904Y-82059523D01*
X211859523Y-81869047D01*
X211859523Y-81535714D01*
X211811904Y-81345238D01*
X211716666Y-81250000D01*
X211621428Y-81202380D01*
X211430952Y-81202380D01*
X211335714Y-81250000D01*
X211240476Y-81345238D01*
X211192857Y-81535714D01*
X211192857Y-81869047D01*
X211240476Y-82059523D01*
X211335714Y-82154761D01*
X211430952Y-82202380D01*
X211621428Y-82202380D01*
X210335714Y-81202380D02*
X210526190Y-81202380D01*
X210621428Y-81250000D01*
X210669047Y-81297619D01*
X210764285Y-81440476D01*
X210811904Y-81630952D01*
X210811904Y-82011904D01*
X210764285Y-82107142D01*
X210716666Y-82154761D01*
X210621428Y-82202380D01*
X210430952Y-82202380D01*
X210335714Y-82154761D01*
X210288095Y-82107142D01*
X210240476Y-82011904D01*
X210240476Y-81773809D01*
X210288095Y-81678571D01*
X210335714Y-81630952D01*
X210430952Y-81583333D01*
X210621428Y-81583333D01*
X210716666Y-81630952D01*
X210764285Y-81678571D01*
X210811904Y-81773809D01*
X214009780Y-117036345D02*
X214333028Y-116713096D01*
X214171404Y-116874720D02*
X213605719Y-116309035D01*
X213740406Y-116335972D01*
X213848155Y-116335972D01*
X213928967Y-116309035D01*
X213093908Y-116820845D02*
X213040033Y-116874720D01*
X213013096Y-116955532D01*
X213013096Y-117009407D01*
X213040033Y-117090219D01*
X213120845Y-117224906D01*
X213255532Y-117359593D01*
X213390219Y-117440406D01*
X213471032Y-117467343D01*
X213524906Y-117467343D01*
X213605719Y-117440406D01*
X213659593Y-117386531D01*
X213686531Y-117305719D01*
X213686531Y-117251844D01*
X213659593Y-117171032D01*
X213578781Y-117036345D01*
X213444094Y-116901658D01*
X213309407Y-116820845D01*
X213228595Y-116793908D01*
X213174720Y-116793908D01*
X213093908Y-116820845D01*
X213228595Y-117817529D02*
X212662910Y-117251844D01*
X212959221Y-117655905D02*
X213013096Y-118033028D01*
X212635972Y-117655905D02*
X213066971Y-117655905D01*
X196861904Y-120488095D02*
X196861904Y-120983333D01*
X197166666Y-120716666D01*
X197166666Y-120830952D01*
X197204761Y-120907142D01*
X197242857Y-120945238D01*
X197319047Y-120983333D01*
X197509523Y-120983333D01*
X197585714Y-120945238D01*
X197623809Y-120907142D01*
X197661904Y-120830952D01*
X197661904Y-120602380D01*
X197623809Y-120526190D01*
X197585714Y-120488095D01*
X197585714Y-121326190D02*
X197623809Y-121364285D01*
X197661904Y-121326190D01*
X197623809Y-121288095D01*
X197585714Y-121326190D01*
X197661904Y-121326190D01*
X197661904Y-121745238D02*
X197661904Y-121897619D01*
X197623809Y-121973809D01*
X197585714Y-122011904D01*
X197471428Y-122088095D01*
X197319047Y-122126190D01*
X197014285Y-122126190D01*
X196938095Y-122088095D01*
X196900000Y-122050000D01*
X196861904Y-121973809D01*
X196861904Y-121821428D01*
X196900000Y-121745238D01*
X196938095Y-121707142D01*
X197014285Y-121669047D01*
X197204761Y-121669047D01*
X197280952Y-121707142D01*
X197319047Y-121745238D01*
X197357142Y-121821428D01*
X197357142Y-121973809D01*
X197319047Y-122050000D01*
X197280952Y-122088095D01*
X197204761Y-122126190D01*
X197661904Y-122469047D02*
X196861904Y-122469047D01*
X197357142Y-122545238D02*
X197661904Y-122773809D01*
X197128571Y-122773809D02*
X197433333Y-122469047D01*
X195666666Y-121416666D02*
X195666666Y-121283333D01*
X195700000Y-121216666D01*
X195733333Y-121183333D01*
X195833333Y-121116666D01*
X195966666Y-121083333D01*
X196233333Y-121083333D01*
X196300000Y-121116666D01*
X196333333Y-121150000D01*
X196366666Y-121216666D01*
X196366666Y-121350000D01*
X196333333Y-121416666D01*
X196300000Y-121450000D01*
X196233333Y-121483333D01*
X196066666Y-121483333D01*
X196000000Y-121450000D01*
X195966666Y-121416666D01*
X195933333Y-121350000D01*
X195933333Y-121216666D01*
X195966666Y-121150000D01*
X196000000Y-121116666D01*
X196066666Y-121083333D01*
X195966666Y-121883333D02*
X195933333Y-121816666D01*
X195900000Y-121783333D01*
X195833333Y-121750000D01*
X195800000Y-121750000D01*
X195733333Y-121783333D01*
X195700000Y-121816666D01*
X195666666Y-121883333D01*
X195666666Y-122016666D01*
X195700000Y-122083333D01*
X195733333Y-122116666D01*
X195800000Y-122150000D01*
X195833333Y-122150000D01*
X195900000Y-122116666D01*
X195933333Y-122083333D01*
X195966666Y-122016666D01*
X195966666Y-121883333D01*
X196000000Y-121816666D01*
X196033333Y-121783333D01*
X196100000Y-121750000D01*
X196233333Y-121750000D01*
X196300000Y-121783333D01*
X196333333Y-121816666D01*
X196366666Y-121883333D01*
X196366666Y-122016666D01*
X196333333Y-122083333D01*
X196300000Y-122116666D01*
X196233333Y-122150000D01*
X196100000Y-122150000D01*
X196033333Y-122116666D01*
X196000000Y-122083333D01*
X195966666Y-122016666D01*
X195666666Y-122583333D02*
X195666666Y-122650000D01*
X195700000Y-122716666D01*
X195733333Y-122750000D01*
X195800000Y-122783333D01*
X195933333Y-122816666D01*
X196100000Y-122816666D01*
X196233333Y-122783333D01*
X196300000Y-122750000D01*
X196333333Y-122716666D01*
X196366666Y-122650000D01*
X196366666Y-122583333D01*
X196333333Y-122516666D01*
X196300000Y-122483333D01*
X196233333Y-122450000D01*
X196100000Y-122416666D01*
X195933333Y-122416666D01*
X195800000Y-122450000D01*
X195733333Y-122483333D01*
X195700000Y-122516666D01*
X195666666Y-122583333D01*
X179961904Y-136316666D02*
X179961904Y-135859523D01*
X179961904Y-136088095D02*
X179161904Y-136088095D01*
X179276190Y-136011904D01*
X179352380Y-135935714D01*
X179390476Y-135859523D01*
X179238095Y-136621428D02*
X179200000Y-136659523D01*
X179161904Y-136735714D01*
X179161904Y-136926190D01*
X179200000Y-137002380D01*
X179238095Y-137040476D01*
X179314285Y-137078571D01*
X179390476Y-137078571D01*
X179504761Y-137040476D01*
X179961904Y-136583333D01*
X179961904Y-137078571D01*
X179161904Y-137573809D02*
X179161904Y-137650000D01*
X179200000Y-137726190D01*
X179238095Y-137764285D01*
X179314285Y-137802380D01*
X179466666Y-137840476D01*
X179657142Y-137840476D01*
X179809523Y-137802380D01*
X179885714Y-137764285D01*
X179923809Y-137726190D01*
X179961904Y-137650000D01*
X179961904Y-137573809D01*
X179923809Y-137497619D01*
X179885714Y-137459523D01*
X179809523Y-137421428D01*
X179657142Y-137383333D01*
X179466666Y-137383333D01*
X179314285Y-137421428D01*
X179238095Y-137459523D01*
X179200000Y-137497619D01*
X179161904Y-137573809D01*
X241426190Y-116761904D02*
X241883333Y-116761904D01*
X241654761Y-116761904D02*
X241654761Y-115961904D01*
X241730952Y-116076190D01*
X241807142Y-116152380D01*
X241883333Y-116190476D01*
X240930952Y-115961904D02*
X240854761Y-115961904D01*
X240778571Y-116000000D01*
X240740476Y-116038095D01*
X240702380Y-116114285D01*
X240664285Y-116266666D01*
X240664285Y-116457142D01*
X240702380Y-116609523D01*
X240740476Y-116685714D01*
X240778571Y-116723809D01*
X240854761Y-116761904D01*
X240930952Y-116761904D01*
X241007142Y-116723809D01*
X241045238Y-116685714D01*
X241083333Y-116609523D01*
X241121428Y-116457142D01*
X241121428Y-116266666D01*
X241083333Y-116114285D01*
X241045238Y-116038095D01*
X241007142Y-116000000D01*
X240930952Y-115961904D01*
X240321428Y-116761904D02*
X240321428Y-115961904D01*
X240245238Y-116457142D02*
X240016666Y-116761904D01*
X240016666Y-116228571D02*
X240321428Y-116533333D01*
X228836904Y-137504761D02*
X228836904Y-137047619D01*
X228836904Y-137276190D02*
X228036904Y-137276190D01*
X228151190Y-137200000D01*
X228227380Y-137123809D01*
X228265476Y-137047619D01*
X228836904Y-137847619D02*
X228036904Y-137847619D01*
X228532142Y-137923809D02*
X228836904Y-138152380D01*
X228303571Y-138152380D02*
X228608333Y-137847619D01*
X241426190Y-113361904D02*
X241883333Y-113361904D01*
X241654761Y-113361904D02*
X241654761Y-112561904D01*
X241730952Y-112676190D01*
X241807142Y-112752380D01*
X241883333Y-112790476D01*
X240930952Y-112561904D02*
X240854761Y-112561904D01*
X240778571Y-112600000D01*
X240740476Y-112638095D01*
X240702380Y-112714285D01*
X240664285Y-112866666D01*
X240664285Y-113057142D01*
X240702380Y-113209523D01*
X240740476Y-113285714D01*
X240778571Y-113323809D01*
X240854761Y-113361904D01*
X240930952Y-113361904D01*
X241007142Y-113323809D01*
X241045238Y-113285714D01*
X241083333Y-113209523D01*
X241121428Y-113057142D01*
X241121428Y-112866666D01*
X241083333Y-112714285D01*
X241045238Y-112638095D01*
X241007142Y-112600000D01*
X240930952Y-112561904D01*
X240321428Y-113361904D02*
X240321428Y-112561904D01*
X240245238Y-113057142D02*
X240016666Y-113361904D01*
X240016666Y-112828571D02*
X240321428Y-113133333D01*
X226336904Y-137504761D02*
X226336904Y-137047619D01*
X226336904Y-137276190D02*
X225536904Y-137276190D01*
X225651190Y-137200000D01*
X225727380Y-137123809D01*
X225765476Y-137047619D01*
X226336904Y-137847619D02*
X225536904Y-137847619D01*
X226032142Y-137923809D02*
X226336904Y-138152380D01*
X225803571Y-138152380D02*
X226108333Y-137847619D01*
X209809780Y-125936345D02*
X210133028Y-125613096D01*
X209971404Y-125774720D02*
X209405719Y-125209035D01*
X209540406Y-125235972D01*
X209648155Y-125235972D01*
X209728967Y-125209035D01*
X208893908Y-125720845D02*
X208840033Y-125774720D01*
X208813096Y-125855532D01*
X208813096Y-125909407D01*
X208840033Y-125990219D01*
X208920845Y-126124906D01*
X209055532Y-126259593D01*
X209190219Y-126340406D01*
X209271032Y-126367343D01*
X209324906Y-126367343D01*
X209405719Y-126340406D01*
X209459593Y-126286531D01*
X209486531Y-126205719D01*
X209486531Y-126151844D01*
X209459593Y-126071032D01*
X209378781Y-125936345D01*
X209244094Y-125801658D01*
X209109407Y-125720845D01*
X209028595Y-125693908D01*
X208974720Y-125693908D01*
X208893908Y-125720845D01*
X209028595Y-126717529D02*
X208462910Y-126151844D01*
X208759221Y-126555905D02*
X208813096Y-126933028D01*
X208435972Y-126555905D02*
X208866971Y-126555905D01*
X204011904Y-126373809D02*
X204011904Y-125916666D01*
X204011904Y-126145238D02*
X203211904Y-126145238D01*
X203326190Y-126069047D01*
X203402380Y-125992857D01*
X203440476Y-125916666D01*
X203211904Y-126869047D02*
X203211904Y-126945238D01*
X203250000Y-127021428D01*
X203288095Y-127059523D01*
X203364285Y-127097619D01*
X203516666Y-127135714D01*
X203707142Y-127135714D01*
X203859523Y-127097619D01*
X203935714Y-127059523D01*
X203973809Y-127021428D01*
X204011904Y-126945238D01*
X204011904Y-126869047D01*
X203973809Y-126792857D01*
X203935714Y-126754761D01*
X203859523Y-126716666D01*
X203707142Y-126678571D01*
X203516666Y-126678571D01*
X203364285Y-126716666D01*
X203288095Y-126754761D01*
X203250000Y-126792857D01*
X203211904Y-126869047D01*
X204011904Y-127478571D02*
X203211904Y-127478571D01*
X203707142Y-127554761D02*
X204011904Y-127783333D01*
X203478571Y-127783333D02*
X203783333Y-127478571D01*
X201076190Y-123761904D02*
X201533333Y-123761904D01*
X201304761Y-123761904D02*
X201304761Y-122961904D01*
X201380952Y-123076190D01*
X201457142Y-123152380D01*
X201533333Y-123190476D01*
X200580952Y-122961904D02*
X200504761Y-122961904D01*
X200428571Y-123000000D01*
X200390476Y-123038095D01*
X200352380Y-123114285D01*
X200314285Y-123266666D01*
X200314285Y-123457142D01*
X200352380Y-123609523D01*
X200390476Y-123685714D01*
X200428571Y-123723809D01*
X200504761Y-123761904D01*
X200580952Y-123761904D01*
X200657142Y-123723809D01*
X200695238Y-123685714D01*
X200733333Y-123609523D01*
X200771428Y-123457142D01*
X200771428Y-123266666D01*
X200733333Y-123114285D01*
X200695238Y-123038095D01*
X200657142Y-123000000D01*
X200580952Y-122961904D01*
X199971428Y-123761904D02*
X199971428Y-122961904D01*
X199895238Y-123457142D02*
X199666666Y-123761904D01*
X199666666Y-123228571D02*
X199971428Y-123533333D01*
X201076190Y-122511904D02*
X201533333Y-122511904D01*
X201304761Y-122511904D02*
X201304761Y-121711904D01*
X201380952Y-121826190D01*
X201457142Y-121902380D01*
X201533333Y-121940476D01*
X200580952Y-121711904D02*
X200504761Y-121711904D01*
X200428571Y-121750000D01*
X200390476Y-121788095D01*
X200352380Y-121864285D01*
X200314285Y-122016666D01*
X200314285Y-122207142D01*
X200352380Y-122359523D01*
X200390476Y-122435714D01*
X200428571Y-122473809D01*
X200504761Y-122511904D01*
X200580952Y-122511904D01*
X200657142Y-122473809D01*
X200695238Y-122435714D01*
X200733333Y-122359523D01*
X200771428Y-122207142D01*
X200771428Y-122016666D01*
X200733333Y-121864285D01*
X200695238Y-121788095D01*
X200657142Y-121750000D01*
X200580952Y-121711904D01*
X199971428Y-122511904D02*
X199971428Y-121711904D01*
X199895238Y-122207142D02*
X199666666Y-122511904D01*
X199666666Y-121978571D02*
X199971428Y-122283333D01*
X206126190Y-128761904D02*
X206583333Y-128761904D01*
X206354761Y-128761904D02*
X206354761Y-127961904D01*
X206430952Y-128076190D01*
X206507142Y-128152380D01*
X206583333Y-128190476D01*
X205630952Y-127961904D02*
X205554761Y-127961904D01*
X205478571Y-128000000D01*
X205440476Y-128038095D01*
X205402380Y-128114285D01*
X205364285Y-128266666D01*
X205364285Y-128457142D01*
X205402380Y-128609523D01*
X205440476Y-128685714D01*
X205478571Y-128723809D01*
X205554761Y-128761904D01*
X205630952Y-128761904D01*
X205707142Y-128723809D01*
X205745238Y-128685714D01*
X205783333Y-128609523D01*
X205821428Y-128457142D01*
X205821428Y-128266666D01*
X205783333Y-128114285D01*
X205745238Y-128038095D01*
X205707142Y-128000000D01*
X205630952Y-127961904D01*
X205021428Y-128761904D02*
X205021428Y-127961904D01*
X204945238Y-128457142D02*
X204716666Y-128761904D01*
X204716666Y-128228571D02*
X205021428Y-128533333D01*
X187561904Y-104640595D02*
X187561904Y-104183452D01*
X187561904Y-104412023D02*
X186761904Y-104412023D01*
X186876190Y-104335833D01*
X186952380Y-104259642D01*
X186990476Y-104183452D01*
X186761904Y-105135833D02*
X186761904Y-105212023D01*
X186800000Y-105288214D01*
X186838095Y-105326309D01*
X186914285Y-105364404D01*
X187066666Y-105402500D01*
X187257142Y-105402500D01*
X187409523Y-105364404D01*
X187485714Y-105326309D01*
X187523809Y-105288214D01*
X187561904Y-105212023D01*
X187561904Y-105135833D01*
X187523809Y-105059642D01*
X187485714Y-105021547D01*
X187409523Y-104983452D01*
X187257142Y-104945357D01*
X187066666Y-104945357D01*
X186914285Y-104983452D01*
X186838095Y-105021547D01*
X186800000Y-105059642D01*
X186761904Y-105135833D01*
X187561904Y-105745357D02*
X186761904Y-105745357D01*
X187257142Y-105821547D02*
X187561904Y-106050119D01*
X187028571Y-106050119D02*
X187333333Y-105745357D01*
X199836904Y-104540595D02*
X199836904Y-104083452D01*
X199836904Y-104312023D02*
X199036904Y-104312023D01*
X199151190Y-104235833D01*
X199227380Y-104159642D01*
X199265476Y-104083452D01*
X199036904Y-105035833D02*
X199036904Y-105112023D01*
X199075000Y-105188214D01*
X199113095Y-105226309D01*
X199189285Y-105264404D01*
X199341666Y-105302500D01*
X199532142Y-105302500D01*
X199684523Y-105264404D01*
X199760714Y-105226309D01*
X199798809Y-105188214D01*
X199836904Y-105112023D01*
X199836904Y-105035833D01*
X199798809Y-104959642D01*
X199760714Y-104921547D01*
X199684523Y-104883452D01*
X199532142Y-104845357D01*
X199341666Y-104845357D01*
X199189285Y-104883452D01*
X199113095Y-104921547D01*
X199075000Y-104959642D01*
X199036904Y-105035833D01*
X199836904Y-105645357D02*
X199036904Y-105645357D01*
X199532142Y-105721547D02*
X199836904Y-105950119D01*
X199303571Y-105950119D02*
X199608333Y-105645357D01*
X212086904Y-103903690D02*
X212086904Y-103446547D01*
X212086904Y-103675119D02*
X211286904Y-103675119D01*
X211401190Y-103598928D01*
X211477380Y-103522738D01*
X211515476Y-103446547D01*
X211286904Y-104398928D02*
X211286904Y-104475119D01*
X211325000Y-104551309D01*
X211363095Y-104589404D01*
X211439285Y-104627500D01*
X211591666Y-104665595D01*
X211782142Y-104665595D01*
X211934523Y-104627500D01*
X212010714Y-104589404D01*
X212048809Y-104551309D01*
X212086904Y-104475119D01*
X212086904Y-104398928D01*
X212048809Y-104322738D01*
X212010714Y-104284642D01*
X211934523Y-104246547D01*
X211782142Y-104208452D01*
X211591666Y-104208452D01*
X211439285Y-104246547D01*
X211363095Y-104284642D01*
X211325000Y-104322738D01*
X211286904Y-104398928D01*
X211286904Y-105160833D02*
X211286904Y-105237023D01*
X211325000Y-105313214D01*
X211363095Y-105351309D01*
X211439285Y-105389404D01*
X211591666Y-105427500D01*
X211782142Y-105427500D01*
X211934523Y-105389404D01*
X212010714Y-105351309D01*
X212048809Y-105313214D01*
X212086904Y-105237023D01*
X212086904Y-105160833D01*
X212048809Y-105084642D01*
X212010714Y-105046547D01*
X211934523Y-105008452D01*
X211782142Y-104970357D01*
X211591666Y-104970357D01*
X211439285Y-105008452D01*
X211363095Y-105046547D01*
X211325000Y-105084642D01*
X211286904Y-105160833D01*
X212086904Y-105770357D02*
X211286904Y-105770357D01*
X211782142Y-105846547D02*
X212086904Y-106075119D01*
X211553571Y-106075119D02*
X211858333Y-105770357D01*
X188811904Y-103878690D02*
X188811904Y-103421547D01*
X188811904Y-103650119D02*
X188011904Y-103650119D01*
X188126190Y-103573928D01*
X188202380Y-103497738D01*
X188240476Y-103421547D01*
X188011904Y-104373928D02*
X188011904Y-104450119D01*
X188050000Y-104526309D01*
X188088095Y-104564404D01*
X188164285Y-104602500D01*
X188316666Y-104640595D01*
X188507142Y-104640595D01*
X188659523Y-104602500D01*
X188735714Y-104564404D01*
X188773809Y-104526309D01*
X188811904Y-104450119D01*
X188811904Y-104373928D01*
X188773809Y-104297738D01*
X188735714Y-104259642D01*
X188659523Y-104221547D01*
X188507142Y-104183452D01*
X188316666Y-104183452D01*
X188164285Y-104221547D01*
X188088095Y-104259642D01*
X188050000Y-104297738D01*
X188011904Y-104373928D01*
X188011904Y-105135833D02*
X188011904Y-105212023D01*
X188050000Y-105288214D01*
X188088095Y-105326309D01*
X188164285Y-105364404D01*
X188316666Y-105402500D01*
X188507142Y-105402500D01*
X188659523Y-105364404D01*
X188735714Y-105326309D01*
X188773809Y-105288214D01*
X188811904Y-105212023D01*
X188811904Y-105135833D01*
X188773809Y-105059642D01*
X188735714Y-105021547D01*
X188659523Y-104983452D01*
X188507142Y-104945357D01*
X188316666Y-104945357D01*
X188164285Y-104983452D01*
X188088095Y-105021547D01*
X188050000Y-105059642D01*
X188011904Y-105135833D01*
X188811904Y-105745357D02*
X188011904Y-105745357D01*
X188507142Y-105821547D02*
X188811904Y-106050119D01*
X188278571Y-106050119D02*
X188583333Y-105745357D01*
X201061904Y-103778690D02*
X201061904Y-103321547D01*
X201061904Y-103550119D02*
X200261904Y-103550119D01*
X200376190Y-103473928D01*
X200452380Y-103397738D01*
X200490476Y-103321547D01*
X200261904Y-104273928D02*
X200261904Y-104350119D01*
X200300000Y-104426309D01*
X200338095Y-104464404D01*
X200414285Y-104502500D01*
X200566666Y-104540595D01*
X200757142Y-104540595D01*
X200909523Y-104502500D01*
X200985714Y-104464404D01*
X201023809Y-104426309D01*
X201061904Y-104350119D01*
X201061904Y-104273928D01*
X201023809Y-104197738D01*
X200985714Y-104159642D01*
X200909523Y-104121547D01*
X200757142Y-104083452D01*
X200566666Y-104083452D01*
X200414285Y-104121547D01*
X200338095Y-104159642D01*
X200300000Y-104197738D01*
X200261904Y-104273928D01*
X200261904Y-105035833D02*
X200261904Y-105112023D01*
X200300000Y-105188214D01*
X200338095Y-105226309D01*
X200414285Y-105264404D01*
X200566666Y-105302500D01*
X200757142Y-105302500D01*
X200909523Y-105264404D01*
X200985714Y-105226309D01*
X201023809Y-105188214D01*
X201061904Y-105112023D01*
X201061904Y-105035833D01*
X201023809Y-104959642D01*
X200985714Y-104921547D01*
X200909523Y-104883452D01*
X200757142Y-104845357D01*
X200566666Y-104845357D01*
X200414285Y-104883452D01*
X200338095Y-104921547D01*
X200300000Y-104959642D01*
X200261904Y-105035833D01*
X201061904Y-105645357D02*
X200261904Y-105645357D01*
X200757142Y-105721547D02*
X201061904Y-105950119D01*
X200528571Y-105950119D02*
X200833333Y-105645357D01*
X213336904Y-104660595D02*
X213336904Y-104203452D01*
X213336904Y-104432023D02*
X212536904Y-104432023D01*
X212651190Y-104355833D01*
X212727380Y-104279642D01*
X212765476Y-104203452D01*
X212536904Y-105155833D02*
X212536904Y-105232023D01*
X212575000Y-105308214D01*
X212613095Y-105346309D01*
X212689285Y-105384404D01*
X212841666Y-105422500D01*
X213032142Y-105422500D01*
X213184523Y-105384404D01*
X213260714Y-105346309D01*
X213298809Y-105308214D01*
X213336904Y-105232023D01*
X213336904Y-105155833D01*
X213298809Y-105079642D01*
X213260714Y-105041547D01*
X213184523Y-105003452D01*
X213032142Y-104965357D01*
X212841666Y-104965357D01*
X212689285Y-105003452D01*
X212613095Y-105041547D01*
X212575000Y-105079642D01*
X212536904Y-105155833D01*
X213336904Y-105765357D02*
X212536904Y-105765357D01*
X213032142Y-105841547D02*
X213336904Y-106070119D01*
X212803571Y-106070119D02*
X213108333Y-105765357D01*
X214909780Y-117936345D02*
X215233028Y-117613096D01*
X215071404Y-117774720D02*
X214505719Y-117209035D01*
X214640406Y-117235972D01*
X214748155Y-117235972D01*
X214828967Y-117209035D01*
X213993908Y-117720845D02*
X213940033Y-117774720D01*
X213913096Y-117855532D01*
X213913096Y-117909407D01*
X213940033Y-117990219D01*
X214020845Y-118124906D01*
X214155532Y-118259593D01*
X214290219Y-118340406D01*
X214371032Y-118367343D01*
X214424906Y-118367343D01*
X214505719Y-118340406D01*
X214559593Y-118286531D01*
X214586531Y-118205719D01*
X214586531Y-118151844D01*
X214559593Y-118071032D01*
X214478781Y-117936345D01*
X214344094Y-117801658D01*
X214209407Y-117720845D01*
X214128595Y-117693908D01*
X214074720Y-117693908D01*
X213993908Y-117720845D01*
X214128595Y-118717529D02*
X213562910Y-118151844D01*
X213859221Y-118555905D02*
X213913096Y-118933028D01*
X213535972Y-118555905D02*
X213966971Y-118555905D01*
X209721218Y-123570659D02*
X210098341Y-123947783D01*
X209640406Y-123220473D02*
X210179154Y-123489847D01*
X209828967Y-123840033D01*
X209748155Y-124190219D02*
X209748155Y-124244094D01*
X209802030Y-124244094D01*
X209802030Y-124190219D01*
X209748155Y-124190219D01*
X209802030Y-124244094D01*
X209020845Y-123893908D02*
X208643722Y-124271032D01*
X209451844Y-124594280D01*
X208993908Y-125052216D02*
X208428223Y-124486531D01*
X208724534Y-124890592D02*
X208778409Y-125267715D01*
X208401285Y-124890592D02*
X208832284Y-124890592D01*
X239938095Y-97066666D02*
X239900000Y-97104761D01*
X239861904Y-97180952D01*
X239861904Y-97371428D01*
X239900000Y-97447619D01*
X239938095Y-97485714D01*
X240014285Y-97523809D01*
X240090476Y-97523809D01*
X240204761Y-97485714D01*
X240661904Y-97028571D01*
X240661904Y-97523809D01*
X239861904Y-98019047D02*
X239861904Y-98095238D01*
X239900000Y-98171428D01*
X239938095Y-98209523D01*
X240014285Y-98247619D01*
X240166666Y-98285714D01*
X240357142Y-98285714D01*
X240509523Y-98247619D01*
X240585714Y-98209523D01*
X240623809Y-98171428D01*
X240661904Y-98095238D01*
X240661904Y-98019047D01*
X240623809Y-97942857D01*
X240585714Y-97904761D01*
X240509523Y-97866666D01*
X240357142Y-97828571D01*
X240166666Y-97828571D01*
X240014285Y-97866666D01*
X239938095Y-97904761D01*
X239900000Y-97942857D01*
X239861904Y-98019047D01*
X240661904Y-98628571D02*
X239861904Y-98628571D01*
X240357142Y-98704761D02*
X240661904Y-98933333D01*
X240128571Y-98933333D02*
X240433333Y-98628571D01*
X192661904Y-85933333D02*
X192661904Y-86428571D01*
X192966666Y-86161904D01*
X192966666Y-86276190D01*
X193004761Y-86352380D01*
X193042857Y-86390476D01*
X193119047Y-86428571D01*
X193309523Y-86428571D01*
X193385714Y-86390476D01*
X193423809Y-86352380D01*
X193461904Y-86276190D01*
X193461904Y-86047619D01*
X193423809Y-85971428D01*
X193385714Y-85933333D01*
X205061904Y-85933333D02*
X205061904Y-86428571D01*
X205366666Y-86161904D01*
X205366666Y-86276190D01*
X205404761Y-86352380D01*
X205442857Y-86390476D01*
X205519047Y-86428571D01*
X205709523Y-86428571D01*
X205785714Y-86390476D01*
X205823809Y-86352380D01*
X205861904Y-86276190D01*
X205861904Y-86047619D01*
X205823809Y-85971428D01*
X205785714Y-85933333D01*
X217411904Y-85883333D02*
X217411904Y-86378571D01*
X217716666Y-86111904D01*
X217716666Y-86226190D01*
X217754761Y-86302380D01*
X217792857Y-86340476D01*
X217869047Y-86378571D01*
X218059523Y-86378571D01*
X218135714Y-86340476D01*
X218173809Y-86302380D01*
X218211904Y-86226190D01*
X218211904Y-85997619D01*
X218173809Y-85921428D01*
X218135714Y-85883333D01*
X236861904Y-100438095D02*
X236861904Y-100971428D01*
X237661904Y-100628571D01*
X237585714Y-101276190D02*
X237623809Y-101314285D01*
X237661904Y-101276190D01*
X237623809Y-101238095D01*
X237585714Y-101276190D01*
X237661904Y-101276190D01*
X236861904Y-102038095D02*
X236861904Y-101657142D01*
X237242857Y-101619047D01*
X237204761Y-101657142D01*
X237166666Y-101733333D01*
X237166666Y-101923809D01*
X237204761Y-102000000D01*
X237242857Y-102038095D01*
X237319047Y-102076190D01*
X237509523Y-102076190D01*
X237585714Y-102038095D01*
X237623809Y-102000000D01*
X237661904Y-101923809D01*
X237661904Y-101733333D01*
X237623809Y-101657142D01*
X237585714Y-101619047D01*
X237661904Y-102419047D02*
X236861904Y-102419047D01*
X237357142Y-102495238D02*
X237661904Y-102723809D01*
X237128571Y-102723809D02*
X237433333Y-102419047D01*
X232921428Y-101961904D02*
X233302380Y-101961904D01*
X233340476Y-102342857D01*
X233302380Y-102304761D01*
X233226190Y-102266666D01*
X233035714Y-102266666D01*
X232959523Y-102304761D01*
X232921428Y-102342857D01*
X232883333Y-102419047D01*
X232883333Y-102609523D01*
X232921428Y-102685714D01*
X232959523Y-102723809D01*
X233035714Y-102761904D01*
X233226190Y-102761904D01*
X233302380Y-102723809D01*
X233340476Y-102685714D01*
X232121428Y-102761904D02*
X232578571Y-102761904D01*
X232350000Y-102761904D02*
X232350000Y-101961904D01*
X232426190Y-102076190D01*
X232502380Y-102152380D01*
X232578571Y-102190476D01*
X231626190Y-101961904D02*
X231550000Y-101961904D01*
X231473809Y-102000000D01*
X231435714Y-102038095D01*
X231397619Y-102114285D01*
X231359523Y-102266666D01*
X231359523Y-102457142D01*
X231397619Y-102609523D01*
X231435714Y-102685714D01*
X231473809Y-102723809D01*
X231550000Y-102761904D01*
X231626190Y-102761904D01*
X231702380Y-102723809D01*
X231740476Y-102685714D01*
X231778571Y-102609523D01*
X231816666Y-102457142D01*
X231816666Y-102266666D01*
X231778571Y-102114285D01*
X231740476Y-102038095D01*
X231702380Y-102000000D01*
X231626190Y-101961904D01*
X191714285Y-116711904D02*
X191714285Y-115911904D01*
X191447619Y-116483333D01*
X191180952Y-115911904D01*
X191180952Y-116711904D01*
X190838095Y-116483333D02*
X190457142Y-116483333D01*
X190914285Y-116711904D02*
X190647619Y-115911904D01*
X190380952Y-116711904D01*
X190190476Y-115911904D02*
X189657142Y-116711904D01*
X189657142Y-115911904D02*
X190190476Y-116711904D01*
X189428571Y-115911904D02*
X188933333Y-115911904D01*
X189200000Y-116216666D01*
X189085714Y-116216666D01*
X189009523Y-116254761D01*
X188971428Y-116292857D01*
X188933333Y-116369047D01*
X188933333Y-116559523D01*
X188971428Y-116635714D01*
X189009523Y-116673809D01*
X189085714Y-116711904D01*
X189314285Y-116711904D01*
X189390476Y-116673809D01*
X189428571Y-116635714D01*
X188438095Y-115911904D02*
X188361904Y-115911904D01*
X188285714Y-115950000D01*
X188247619Y-115988095D01*
X188209523Y-116064285D01*
X188171428Y-116216666D01*
X188171428Y-116407142D01*
X188209523Y-116559523D01*
X188247619Y-116635714D01*
X188285714Y-116673809D01*
X188361904Y-116711904D01*
X188438095Y-116711904D01*
X188514285Y-116673809D01*
X188552380Y-116635714D01*
X188590476Y-116559523D01*
X188628571Y-116407142D01*
X188628571Y-116216666D01*
X188590476Y-116064285D01*
X188552380Y-115988095D01*
X188514285Y-115950000D01*
X188438095Y-115911904D01*
X187447619Y-115911904D02*
X187828571Y-115911904D01*
X187866666Y-116292857D01*
X187828571Y-116254761D01*
X187752380Y-116216666D01*
X187561904Y-116216666D01*
X187485714Y-116254761D01*
X187447619Y-116292857D01*
X187409523Y-116369047D01*
X187409523Y-116559523D01*
X187447619Y-116635714D01*
X187485714Y-116673809D01*
X187561904Y-116711904D01*
X187752380Y-116711904D01*
X187828571Y-116673809D01*
X187866666Y-116635714D01*
X186647619Y-116711904D02*
X187104761Y-116711904D01*
X186876190Y-116711904D02*
X186876190Y-115911904D01*
X186952380Y-116026190D01*
X187028571Y-116102380D01*
X187104761Y-116140476D01*
X196366666Y-126442857D02*
X196252380Y-126480952D01*
X196214285Y-126519047D01*
X196176190Y-126595238D01*
X196176190Y-126709523D01*
X196214285Y-126785714D01*
X196252380Y-126823809D01*
X196328571Y-126861904D01*
X196633333Y-126861904D01*
X196633333Y-126061904D01*
X196366666Y-126061904D01*
X196290476Y-126100000D01*
X196252380Y-126138095D01*
X196214285Y-126214285D01*
X196214285Y-126290476D01*
X196252380Y-126366666D01*
X196290476Y-126404761D01*
X196366666Y-126442857D01*
X196633333Y-126442857D01*
X195833333Y-126861904D02*
X195833333Y-126061904D01*
X195642857Y-126061904D01*
X195528571Y-126100000D01*
X195452380Y-126176190D01*
X195414285Y-126252380D01*
X195376190Y-126404761D01*
X195376190Y-126519047D01*
X195414285Y-126671428D01*
X195452380Y-126747619D01*
X195528571Y-126823809D01*
X195642857Y-126861904D01*
X195833333Y-126861904D01*
X194995238Y-126861904D02*
X194842857Y-126861904D01*
X194766666Y-126823809D01*
X194728571Y-126785714D01*
X194652380Y-126671428D01*
X194614285Y-126519047D01*
X194614285Y-126214285D01*
X194652380Y-126138095D01*
X194690476Y-126100000D01*
X194766666Y-126061904D01*
X194919047Y-126061904D01*
X194995238Y-126100000D01*
X195033333Y-126138095D01*
X195071428Y-126214285D01*
X195071428Y-126404761D01*
X195033333Y-126480952D01*
X194995238Y-126519047D01*
X194919047Y-126557142D01*
X194766666Y-126557142D01*
X194690476Y-126519047D01*
X194652380Y-126480952D01*
X194614285Y-126404761D01*
X193852380Y-126100000D02*
X193928571Y-126061904D01*
X194042857Y-126061904D01*
X194157142Y-126100000D01*
X194233333Y-126176190D01*
X194271428Y-126252380D01*
X194309523Y-126404761D01*
X194309523Y-126519047D01*
X194271428Y-126671428D01*
X194233333Y-126747619D01*
X194157142Y-126823809D01*
X194042857Y-126861904D01*
X193966666Y-126861904D01*
X193852380Y-126823809D01*
X193814285Y-126785714D01*
X193814285Y-126519047D01*
X193966666Y-126519047D01*
X193052380Y-126861904D02*
X193509523Y-126861904D01*
X193280952Y-126861904D02*
X193280952Y-126061904D01*
X193357142Y-126176190D01*
X193433333Y-126252380D01*
X193509523Y-126290476D01*
X192557142Y-126061904D02*
X192480952Y-126061904D01*
X192404761Y-126100000D01*
X192366666Y-126138095D01*
X192328571Y-126214285D01*
X192290476Y-126366666D01*
X192290476Y-126557142D01*
X192328571Y-126709523D01*
X192366666Y-126785714D01*
X192404761Y-126823809D01*
X192480952Y-126861904D01*
X192557142Y-126861904D01*
X192633333Y-126823809D01*
X192671428Y-126785714D01*
X192709523Y-126709523D01*
X192747619Y-126557142D01*
X192747619Y-126366666D01*
X192709523Y-126214285D01*
X192671428Y-126138095D01*
X192633333Y-126100000D01*
X192557142Y-126061904D01*
X191528571Y-126861904D02*
X191985714Y-126861904D01*
X191757142Y-126861904D02*
X191757142Y-126061904D01*
X191833333Y-126176190D01*
X191909523Y-126252380D01*
X191985714Y-126290476D01*
X190766666Y-126100000D02*
X190842857Y-126061904D01*
X190957142Y-126061904D01*
X191071428Y-126100000D01*
X191147619Y-126176190D01*
X191185714Y-126252380D01*
X191223809Y-126404761D01*
X191223809Y-126519047D01*
X191185714Y-126671428D01*
X191147619Y-126747619D01*
X191071428Y-126823809D01*
X190957142Y-126861904D01*
X190880952Y-126861904D01*
X190766666Y-126823809D01*
X190728571Y-126785714D01*
X190728571Y-126519047D01*
X190880952Y-126519047D01*
X243336904Y-100784523D02*
X242536904Y-100784523D01*
X242536904Y-101089285D01*
X242575000Y-101165476D01*
X242613095Y-101203571D01*
X242689285Y-101241666D01*
X242803571Y-101241666D01*
X242879761Y-101203571D01*
X242917857Y-101165476D01*
X242955952Y-101089285D01*
X242955952Y-100784523D01*
X242536904Y-101736904D02*
X242536904Y-101889285D01*
X242575000Y-101965476D01*
X242651190Y-102041666D01*
X242803571Y-102079761D01*
X243070238Y-102079761D01*
X243222619Y-102041666D01*
X243298809Y-101965476D01*
X243336904Y-101889285D01*
X243336904Y-101736904D01*
X243298809Y-101660714D01*
X243222619Y-101584523D01*
X243070238Y-101546428D01*
X242803571Y-101546428D01*
X242651190Y-101584523D01*
X242575000Y-101660714D01*
X242536904Y-101736904D01*
X242536904Y-102346428D02*
X243336904Y-102536904D01*
X242765476Y-102689285D01*
X243336904Y-102841666D01*
X242536904Y-103032142D01*
X242917857Y-103336904D02*
X242917857Y-103603571D01*
X243336904Y-103717857D02*
X243336904Y-103336904D01*
X242536904Y-103336904D01*
X242536904Y-103717857D01*
X243336904Y-104517857D02*
X242955952Y-104251190D01*
X243336904Y-104060714D02*
X242536904Y-104060714D01*
X242536904Y-104365476D01*
X242575000Y-104441666D01*
X242613095Y-104479761D01*
X242689285Y-104517857D01*
X242803571Y-104517857D01*
X242879761Y-104479761D01*
X242917857Y-104441666D01*
X242955952Y-104365476D01*
X242955952Y-104060714D01*
X243413095Y-104670238D02*
X243413095Y-105279761D01*
X242536904Y-105622619D02*
X242536904Y-105775000D01*
X242575000Y-105851190D01*
X242651190Y-105927380D01*
X242803571Y-105965476D01*
X243070238Y-105965476D01*
X243222619Y-105927380D01*
X243298809Y-105851190D01*
X243336904Y-105775000D01*
X243336904Y-105622619D01*
X243298809Y-105546428D01*
X243222619Y-105470238D01*
X243070238Y-105432142D01*
X242803571Y-105432142D01*
X242651190Y-105470238D01*
X242575000Y-105546428D01*
X242536904Y-105622619D01*
X243336904Y-106308333D02*
X242536904Y-106308333D01*
X243336904Y-106765476D01*
X242536904Y-106765476D01*
X225642857Y-99166666D02*
X225166666Y-99166666D01*
X225738095Y-99452380D02*
X225404761Y-98452380D01*
X225071428Y-99452380D01*
X224166666Y-99357142D02*
X224214285Y-99404761D01*
X224357142Y-99452380D01*
X224452380Y-99452380D01*
X224595238Y-99404761D01*
X224690476Y-99309523D01*
X224738095Y-99214285D01*
X224785714Y-99023809D01*
X224785714Y-98880952D01*
X224738095Y-98690476D01*
X224690476Y-98595238D01*
X224595238Y-98500000D01*
X224452380Y-98452380D01*
X224357142Y-98452380D01*
X224214285Y-98500000D01*
X224166666Y-98547619D01*
X223785714Y-99404761D02*
X223642857Y-99452380D01*
X223404761Y-99452380D01*
X223309523Y-99404761D01*
X223261904Y-99357142D01*
X223214285Y-99261904D01*
X223214285Y-99166666D01*
X223261904Y-99071428D01*
X223309523Y-99023809D01*
X223404761Y-98976190D01*
X223595238Y-98928571D01*
X223690476Y-98880952D01*
X223738095Y-98833333D01*
X223785714Y-98738095D01*
X223785714Y-98642857D01*
X223738095Y-98547619D01*
X223690476Y-98500000D01*
X223595238Y-98452380D01*
X223357142Y-98452380D01*
X223214285Y-98500000D01*
X222880952Y-98452380D02*
X222214285Y-98452380D01*
X222642857Y-99452380D01*
X221357142Y-98452380D02*
X221833333Y-98452380D01*
X221880952Y-98928571D01*
X221833333Y-98880952D01*
X221738095Y-98833333D01*
X221500000Y-98833333D01*
X221404761Y-98880952D01*
X221357142Y-98928571D01*
X221309523Y-99023809D01*
X221309523Y-99261904D01*
X221357142Y-99357142D01*
X221404761Y-99404761D01*
X221500000Y-99452380D01*
X221738095Y-99452380D01*
X221833333Y-99404761D01*
X221880952Y-99357142D01*
X220738095Y-98880952D02*
X220833333Y-98833333D01*
X220880952Y-98785714D01*
X220928571Y-98690476D01*
X220928571Y-98642857D01*
X220880952Y-98547619D01*
X220833333Y-98500000D01*
X220738095Y-98452380D01*
X220547619Y-98452380D01*
X220452380Y-98500000D01*
X220404761Y-98547619D01*
X220357142Y-98642857D01*
X220357142Y-98690476D01*
X220404761Y-98785714D01*
X220452380Y-98833333D01*
X220547619Y-98880952D01*
X220738095Y-98880952D01*
X220833333Y-98928571D01*
X220880952Y-98976190D01*
X220928571Y-99071428D01*
X220928571Y-99261904D01*
X220880952Y-99357142D01*
X220833333Y-99404761D01*
X220738095Y-99452380D01*
X220547619Y-99452380D01*
X220452380Y-99404761D01*
X220404761Y-99357142D01*
X220357142Y-99261904D01*
X220357142Y-99071428D01*
X220404761Y-98976190D01*
X220452380Y-98928571D01*
X220547619Y-98880952D01*
X232075000Y-95516666D02*
X232108333Y-95616666D01*
X232141666Y-95650000D01*
X232208333Y-95683333D01*
X232308333Y-95683333D01*
X232375000Y-95650000D01*
X232408333Y-95616666D01*
X232441666Y-95550000D01*
X232441666Y-95283333D01*
X231741666Y-95283333D01*
X231741666Y-95516666D01*
X231775000Y-95583333D01*
X231808333Y-95616666D01*
X231875000Y-95650000D01*
X231941666Y-95650000D01*
X232008333Y-95616666D01*
X232041666Y-95583333D01*
X232075000Y-95516666D01*
X232075000Y-95283333D01*
X232441666Y-95983333D02*
X231741666Y-95983333D01*
X231741666Y-96150000D01*
X231775000Y-96250000D01*
X231841666Y-96316666D01*
X231908333Y-96350000D01*
X232041666Y-96383333D01*
X232141666Y-96383333D01*
X232275000Y-96350000D01*
X232341666Y-96316666D01*
X232408333Y-96250000D01*
X232441666Y-96150000D01*
X232441666Y-95983333D01*
X232441666Y-96716666D02*
X232441666Y-96850000D01*
X232408333Y-96916666D01*
X232375000Y-96950000D01*
X232275000Y-97016666D01*
X232141666Y-97050000D01*
X231875000Y-97050000D01*
X231808333Y-97016666D01*
X231775000Y-96983333D01*
X231741666Y-96916666D01*
X231741666Y-96783333D01*
X231775000Y-96716666D01*
X231808333Y-96683333D01*
X231875000Y-96650000D01*
X232041666Y-96650000D01*
X232108333Y-96683333D01*
X232141666Y-96716666D01*
X232175000Y-96783333D01*
X232175000Y-96916666D01*
X232141666Y-96983333D01*
X232108333Y-97016666D01*
X232041666Y-97050000D01*
X231775000Y-97716666D02*
X231741666Y-97650000D01*
X231741666Y-97550000D01*
X231775000Y-97450000D01*
X231841666Y-97383333D01*
X231908333Y-97350000D01*
X232041666Y-97316666D01*
X232141666Y-97316666D01*
X232275000Y-97350000D01*
X232341666Y-97383333D01*
X232408333Y-97450000D01*
X232441666Y-97550000D01*
X232441666Y-97616666D01*
X232408333Y-97716666D01*
X232375000Y-97750000D01*
X232141666Y-97750000D01*
X232141666Y-97616666D01*
X232441666Y-98416666D02*
X232441666Y-98016666D01*
X232441666Y-98216666D02*
X231741666Y-98216666D01*
X231841666Y-98150000D01*
X231908333Y-98083333D01*
X231941666Y-98016666D01*
X231741666Y-98850000D02*
X231741666Y-98916666D01*
X231775000Y-98983333D01*
X231808333Y-99016666D01*
X231875000Y-99050000D01*
X232008333Y-99083333D01*
X232175000Y-99083333D01*
X232308333Y-99050000D01*
X232375000Y-99016666D01*
X232408333Y-98983333D01*
X232441666Y-98916666D01*
X232441666Y-98850000D01*
X232408333Y-98783333D01*
X232375000Y-98750000D01*
X232308333Y-98716666D01*
X232175000Y-98683333D01*
X232008333Y-98683333D01*
X231875000Y-98716666D01*
X231808333Y-98750000D01*
X231775000Y-98783333D01*
X231741666Y-98850000D01*
X232441666Y-99750000D02*
X232441666Y-99350000D01*
X232441666Y-99550000D02*
X231741666Y-99550000D01*
X231841666Y-99483333D01*
X231908333Y-99416666D01*
X231941666Y-99350000D01*
X231775000Y-100416666D02*
X231741666Y-100350000D01*
X231741666Y-100250000D01*
X231775000Y-100150000D01*
X231841666Y-100083333D01*
X231908333Y-100050000D01*
X232041666Y-100016666D01*
X232141666Y-100016666D01*
X232275000Y-100050000D01*
X232341666Y-100083333D01*
X232408333Y-100150000D01*
X232441666Y-100250000D01*
X232441666Y-100316666D01*
X232408333Y-100416666D01*
X232375000Y-100450000D01*
X232141666Y-100450000D01*
X232141666Y-100316666D01*
X201833333Y-131911904D02*
X202290476Y-131911904D01*
X202061904Y-131911904D02*
X202061904Y-131111904D01*
X202138095Y-131226190D01*
X202214285Y-131302380D01*
X202290476Y-131340476D01*
X201147619Y-131378571D02*
X201147619Y-131911904D01*
X201490476Y-131378571D02*
X201490476Y-131797619D01*
X201452380Y-131873809D01*
X201376190Y-131911904D01*
X201261904Y-131911904D01*
X201185714Y-131873809D01*
X201147619Y-131835714D01*
X209333333Y-131811904D02*
X209790476Y-131811904D01*
X209561904Y-131811904D02*
X209561904Y-131011904D01*
X209638095Y-131126190D01*
X209714285Y-131202380D01*
X209790476Y-131240476D01*
X208647619Y-131278571D02*
X208647619Y-131811904D01*
X208990476Y-131278571D02*
X208990476Y-131697619D01*
X208952380Y-131773809D01*
X208876190Y-131811904D01*
X208761904Y-131811904D01*
X208685714Y-131773809D01*
X208647619Y-131735714D01*
X211021428Y-127111904D02*
X210945238Y-127111904D01*
X210869047Y-127150000D01*
X210830952Y-127188095D01*
X210792857Y-127264285D01*
X210754761Y-127416666D01*
X210754761Y-127607142D01*
X210792857Y-127759523D01*
X210830952Y-127835714D01*
X210869047Y-127873809D01*
X210945238Y-127911904D01*
X211021428Y-127911904D01*
X211097619Y-127873809D01*
X211135714Y-127835714D01*
X211173809Y-127759523D01*
X211211904Y-127607142D01*
X211211904Y-127416666D01*
X211173809Y-127264285D01*
X211135714Y-127188095D01*
X211097619Y-127150000D01*
X211021428Y-127111904D01*
X210411904Y-127835714D02*
X210373809Y-127873809D01*
X210411904Y-127911904D01*
X210450000Y-127873809D01*
X210411904Y-127835714D01*
X210411904Y-127911904D01*
X209611904Y-127911904D02*
X210069047Y-127911904D01*
X209840476Y-127911904D02*
X209840476Y-127111904D01*
X209916666Y-127226190D01*
X209992857Y-127302380D01*
X210069047Y-127340476D01*
X208926190Y-127378571D02*
X208926190Y-127911904D01*
X209269047Y-127378571D02*
X209269047Y-127797619D01*
X209230952Y-127873809D01*
X209154761Y-127911904D01*
X209040476Y-127911904D01*
X208964285Y-127873809D01*
X208926190Y-127835714D01*
X190797619Y-129211904D02*
X190797619Y-128411904D01*
X190340476Y-129211904D01*
X190340476Y-128411904D01*
X189959523Y-129211904D02*
X189959523Y-128411904D01*
X189654761Y-128411904D01*
X189578571Y-128450000D01*
X189540476Y-128488095D01*
X189502380Y-128564285D01*
X189502380Y-128678571D01*
X189540476Y-128754761D01*
X189578571Y-128792857D01*
X189654761Y-128830952D01*
X189959523Y-128830952D01*
X189159523Y-129211904D02*
X189159523Y-128411904D01*
X188702380Y-129211904D01*
X188702380Y-128411904D01*
X195797619Y-129211904D02*
X195797619Y-128411904D01*
X195340476Y-129211904D01*
X195340476Y-128411904D01*
X194959523Y-129211904D02*
X194959523Y-128411904D01*
X194654761Y-128411904D01*
X194578571Y-128450000D01*
X194540476Y-128488095D01*
X194502380Y-128564285D01*
X194502380Y-128678571D01*
X194540476Y-128754761D01*
X194578571Y-128792857D01*
X194654761Y-128830952D01*
X194959523Y-128830952D01*
X194159523Y-129211904D02*
X194159523Y-128411904D01*
X193702380Y-129211904D01*
X193702380Y-128411904D01*
X214588095Y-132376190D02*
X214588095Y-132833333D01*
X214588095Y-132604761D02*
X215388095Y-132604761D01*
X215273809Y-132680952D01*
X215197619Y-132757142D01*
X215159523Y-132833333D01*
X215388095Y-131880952D02*
X215388095Y-131804761D01*
X215350000Y-131728571D01*
X215311904Y-131690476D01*
X215235714Y-131652380D01*
X215083333Y-131614285D01*
X214892857Y-131614285D01*
X214740476Y-131652380D01*
X214664285Y-131690476D01*
X214626190Y-131728571D01*
X214588095Y-131804761D01*
X214588095Y-131880952D01*
X214626190Y-131957142D01*
X214664285Y-131995238D01*
X214740476Y-132033333D01*
X214892857Y-132071428D01*
X215083333Y-132071428D01*
X215235714Y-132033333D01*
X215311904Y-131995238D01*
X215350000Y-131957142D01*
X215388095Y-131880952D01*
X214588095Y-131271428D02*
X215388095Y-131271428D01*
X214892857Y-131195238D02*
X214588095Y-130966666D01*
X215121428Y-130966666D02*
X214816666Y-131271428D01*
X211511904Y-131423809D02*
X211511904Y-130966666D01*
X211511904Y-131195238D02*
X210711904Y-131195238D01*
X210826190Y-131119047D01*
X210902380Y-131042857D01*
X210940476Y-130966666D01*
X210711904Y-131919047D02*
X210711904Y-131995238D01*
X210750000Y-132071428D01*
X210788095Y-132109523D01*
X210864285Y-132147619D01*
X211016666Y-132185714D01*
X211207142Y-132185714D01*
X211359523Y-132147619D01*
X211435714Y-132109523D01*
X211473809Y-132071428D01*
X211511904Y-131995238D01*
X211511904Y-131919047D01*
X211473809Y-131842857D01*
X211435714Y-131804761D01*
X211359523Y-131766666D01*
X211207142Y-131728571D01*
X211016666Y-131728571D01*
X210864285Y-131766666D01*
X210788095Y-131804761D01*
X210750000Y-131842857D01*
X210711904Y-131919047D01*
X211511904Y-132528571D02*
X210711904Y-132528571D01*
X211207142Y-132604761D02*
X211511904Y-132833333D01*
X210978571Y-132833333D02*
X211283333Y-132528571D01*
X231511904Y-131778571D02*
X231511904Y-131854761D01*
X231550000Y-131930952D01*
X231588095Y-131969047D01*
X231664285Y-132007142D01*
X231816666Y-132045238D01*
X232007142Y-132045238D01*
X232159523Y-132007142D01*
X232235714Y-131969047D01*
X232273809Y-131930952D01*
X232311904Y-131854761D01*
X232311904Y-131778571D01*
X232273809Y-131702380D01*
X232235714Y-131664285D01*
X232159523Y-131626190D01*
X232007142Y-131588095D01*
X231816666Y-131588095D01*
X231664285Y-131626190D01*
X231588095Y-131664285D01*
X231550000Y-131702380D01*
X231511904Y-131778571D01*
X232235714Y-132388095D02*
X232273809Y-132426190D01*
X232311904Y-132388095D01*
X232273809Y-132350000D01*
X232235714Y-132388095D01*
X232311904Y-132388095D01*
X232311904Y-133188095D02*
X232311904Y-132730952D01*
X232311904Y-132959523D02*
X231511904Y-132959523D01*
X231626190Y-132883333D01*
X231702380Y-132807142D01*
X231740476Y-132730952D01*
X231778571Y-133873809D02*
X232311904Y-133873809D01*
X231778571Y-133530952D02*
X232197619Y-133530952D01*
X232273809Y-133569047D01*
X232311904Y-133645238D01*
X232311904Y-133759523D01*
X232273809Y-133835714D01*
X232235714Y-133873809D01*
X187061904Y-132521428D02*
X187061904Y-133016666D01*
X187366666Y-132750000D01*
X187366666Y-132864285D01*
X187404761Y-132940476D01*
X187442857Y-132978571D01*
X187519047Y-133016666D01*
X187709523Y-133016666D01*
X187785714Y-132978571D01*
X187823809Y-132940476D01*
X187861904Y-132864285D01*
X187861904Y-132635714D01*
X187823809Y-132559523D01*
X187785714Y-132521428D01*
X187061904Y-133283333D02*
X187061904Y-133778571D01*
X187366666Y-133511904D01*
X187366666Y-133626190D01*
X187404761Y-133702380D01*
X187442857Y-133740476D01*
X187519047Y-133778571D01*
X187709523Y-133778571D01*
X187785714Y-133740476D01*
X187823809Y-133702380D01*
X187861904Y-133626190D01*
X187861904Y-133397619D01*
X187823809Y-133321428D01*
X187785714Y-133283333D01*
X187061904Y-134273809D02*
X187061904Y-134350000D01*
X187100000Y-134426190D01*
X187138095Y-134464285D01*
X187214285Y-134502380D01*
X187366666Y-134540476D01*
X187557142Y-134540476D01*
X187709523Y-134502380D01*
X187785714Y-134464285D01*
X187823809Y-134426190D01*
X187861904Y-134350000D01*
X187861904Y-134273809D01*
X187823809Y-134197619D01*
X187785714Y-134159523D01*
X187709523Y-134121428D01*
X187557142Y-134083333D01*
X187366666Y-134083333D01*
X187214285Y-134121428D01*
X187138095Y-134159523D01*
X187100000Y-134197619D01*
X187061904Y-134273809D01*
X192061904Y-127271428D02*
X192061904Y-127766666D01*
X192366666Y-127500000D01*
X192366666Y-127614285D01*
X192404761Y-127690476D01*
X192442857Y-127728571D01*
X192519047Y-127766666D01*
X192709523Y-127766666D01*
X192785714Y-127728571D01*
X192823809Y-127690476D01*
X192861904Y-127614285D01*
X192861904Y-127385714D01*
X192823809Y-127309523D01*
X192785714Y-127271428D01*
X192061904Y-128033333D02*
X192061904Y-128528571D01*
X192366666Y-128261904D01*
X192366666Y-128376190D01*
X192404761Y-128452380D01*
X192442857Y-128490476D01*
X192519047Y-128528571D01*
X192709523Y-128528571D01*
X192785714Y-128490476D01*
X192823809Y-128452380D01*
X192861904Y-128376190D01*
X192861904Y-128147619D01*
X192823809Y-128071428D01*
X192785714Y-128033333D01*
X192061904Y-129023809D02*
X192061904Y-129100000D01*
X192100000Y-129176190D01*
X192138095Y-129214285D01*
X192214285Y-129252380D01*
X192366666Y-129290476D01*
X192557142Y-129290476D01*
X192709523Y-129252380D01*
X192785714Y-129214285D01*
X192823809Y-129176190D01*
X192861904Y-129100000D01*
X192861904Y-129023809D01*
X192823809Y-128947619D01*
X192785714Y-128909523D01*
X192709523Y-128871428D01*
X192557142Y-128833333D01*
X192366666Y-128833333D01*
X192214285Y-128871428D01*
X192138095Y-128909523D01*
X192100000Y-128947619D01*
X192061904Y-129023809D01*
X233201190Y-107036904D02*
X233658333Y-107036904D01*
X233429761Y-107036904D02*
X233429761Y-106236904D01*
X233505952Y-106351190D01*
X233582142Y-106427380D01*
X233658333Y-106465476D01*
X232705952Y-106236904D02*
X232629761Y-106236904D01*
X232553571Y-106275000D01*
X232515476Y-106313095D01*
X232477380Y-106389285D01*
X232439285Y-106541666D01*
X232439285Y-106732142D01*
X232477380Y-106884523D01*
X232515476Y-106960714D01*
X232553571Y-106998809D01*
X232629761Y-107036904D01*
X232705952Y-107036904D01*
X232782142Y-106998809D01*
X232820238Y-106960714D01*
X232858333Y-106884523D01*
X232896428Y-106732142D01*
X232896428Y-106541666D01*
X232858333Y-106389285D01*
X232820238Y-106313095D01*
X232782142Y-106275000D01*
X232705952Y-106236904D01*
X232096428Y-107036904D02*
X232096428Y-106236904D01*
X232020238Y-106732142D02*
X231791666Y-107036904D01*
X231791666Y-106503571D02*
X232096428Y-106808333D01*
X207444280Y-119420473D02*
X207390406Y-119474348D01*
X207363468Y-119555160D01*
X207363468Y-119609035D01*
X207390406Y-119689847D01*
X207471218Y-119824534D01*
X207605905Y-119959221D01*
X207740592Y-120040033D01*
X207821404Y-120066971D01*
X207875279Y-120066971D01*
X207956091Y-120040033D01*
X208009966Y-119986158D01*
X208036903Y-119905346D01*
X208036903Y-119851471D01*
X208009966Y-119770659D01*
X207929154Y-119635972D01*
X207794467Y-119501285D01*
X207659780Y-119420473D01*
X207578967Y-119393536D01*
X207525093Y-119393536D01*
X207444280Y-119420473D01*
X207525093Y-120363282D02*
X207525093Y-120417157D01*
X207578967Y-120417157D01*
X207578967Y-120363282D01*
X207525093Y-120363282D01*
X207578967Y-120417157D01*
X207013282Y-120982842D02*
X207336531Y-120659593D01*
X207174906Y-120821218D02*
X206609221Y-120255532D01*
X206743908Y-120282470D01*
X206851658Y-120282470D01*
X206932470Y-120255532D01*
X206151285Y-121090592D02*
X206528409Y-121467715D01*
X206393722Y-120848155D02*
X206690033Y-121144467D01*
X206716971Y-121225279D01*
X206690033Y-121306091D01*
X206609221Y-121386903D01*
X206528409Y-121413841D01*
X206474534Y-121413841D01*
X219129526Y-121744280D02*
X219075651Y-121690406D01*
X218994839Y-121663468D01*
X218940964Y-121663468D01*
X218860152Y-121690406D01*
X218725465Y-121771218D01*
X218590778Y-121905905D01*
X218509966Y-122040592D01*
X218483028Y-122121404D01*
X218483028Y-122175279D01*
X218509966Y-122256091D01*
X218563841Y-122309966D01*
X218644653Y-122336903D01*
X218698528Y-122336903D01*
X218779340Y-122309966D01*
X218914027Y-122229154D01*
X219048714Y-122094467D01*
X219129526Y-121959780D01*
X219156463Y-121878967D01*
X219156463Y-121825093D01*
X219129526Y-121744280D01*
X218186717Y-121825093D02*
X218132842Y-121825093D01*
X218132842Y-121878967D01*
X218186717Y-121878967D01*
X218186717Y-121825093D01*
X218132842Y-121878967D01*
X217567157Y-121313282D02*
X217890406Y-121636531D01*
X217728781Y-121474906D02*
X218294467Y-120909221D01*
X218267529Y-121043908D01*
X218267529Y-121151658D01*
X218294467Y-121232470D01*
X217459407Y-120451285D02*
X217082284Y-120828409D01*
X217701844Y-120693722D02*
X217405532Y-120990033D01*
X217324720Y-121016971D01*
X217243908Y-120990033D01*
X217163096Y-120909221D01*
X217136158Y-120828409D01*
X217136158Y-120774534D01*
X208871218Y-117717343D02*
X209194467Y-118040592D01*
X209032842Y-117878967D02*
X209598528Y-117313282D01*
X209571590Y-117447969D01*
X209571590Y-117555719D01*
X209598528Y-117636531D01*
X208763468Y-116855346D02*
X208386345Y-117232470D01*
X209005905Y-117097783D02*
X208709593Y-117394094D01*
X208628781Y-117421032D01*
X208547969Y-117394094D01*
X208467157Y-117313282D01*
X208440219Y-117232470D01*
X208440219Y-117178595D01*
X213582842Y-125239661D02*
X213528967Y-125239661D01*
X213448155Y-125266598D01*
X213313468Y-125401285D01*
X213286531Y-125482097D01*
X213286531Y-125535972D01*
X213313468Y-125616784D01*
X213367343Y-125670659D01*
X213475093Y-125724534D01*
X214121590Y-125724534D01*
X213771404Y-126074720D01*
X213475093Y-126263282D02*
X213475093Y-126317157D01*
X213528967Y-126317157D01*
X213528967Y-126263282D01*
X213475093Y-126263282D01*
X213528967Y-126317157D01*
X212774720Y-126047783D02*
X212720845Y-126047783D01*
X212640033Y-126074720D01*
X212505346Y-126209407D01*
X212478409Y-126290219D01*
X212478409Y-126344094D01*
X212505346Y-126424906D01*
X212559221Y-126478781D01*
X212666971Y-126532656D01*
X213313468Y-126532656D01*
X212963282Y-126882842D01*
X212101285Y-126990592D02*
X212478409Y-127367715D01*
X212343722Y-126748155D02*
X212640033Y-127044467D01*
X212666971Y-127125279D01*
X212640033Y-127206091D01*
X212559221Y-127286903D01*
X212478409Y-127313841D01*
X212424534Y-127313841D01*
X213956277Y-113548155D02*
X213579154Y-113925279D01*
X214306463Y-113467343D02*
X214037089Y-114006091D01*
X213686903Y-113655905D01*
X213336717Y-113575093D02*
X213282842Y-113575093D01*
X213282842Y-113628967D01*
X213336717Y-113628967D01*
X213336717Y-113575093D01*
X213282842Y-113628967D01*
X213633028Y-112847783D02*
X213255905Y-112470659D01*
X212932656Y-113278781D01*
X212609407Y-112201285D02*
X212232284Y-112578409D01*
X212851844Y-112443722D02*
X212555532Y-112740033D01*
X212474720Y-112766971D01*
X212393908Y-112740033D01*
X212313096Y-112659221D01*
X212286158Y-112578409D01*
X212286158Y-112524534D01*
X224721428Y-137561904D02*
X224645238Y-137561904D01*
X224569047Y-137600000D01*
X224530952Y-137638095D01*
X224492857Y-137714285D01*
X224454761Y-137866666D01*
X224454761Y-138057142D01*
X224492857Y-138209523D01*
X224530952Y-138285714D01*
X224569047Y-138323809D01*
X224645238Y-138361904D01*
X224721428Y-138361904D01*
X224797619Y-138323809D01*
X224835714Y-138285714D01*
X224873809Y-138209523D01*
X224911904Y-138057142D01*
X224911904Y-137866666D01*
X224873809Y-137714285D01*
X224835714Y-137638095D01*
X224797619Y-137600000D01*
X224721428Y-137561904D01*
X224111904Y-138285714D02*
X224073809Y-138323809D01*
X224111904Y-138361904D01*
X224150000Y-138323809D01*
X224111904Y-138285714D01*
X224111904Y-138361904D01*
X223311904Y-138361904D02*
X223769047Y-138361904D01*
X223540476Y-138361904D02*
X223540476Y-137561904D01*
X223616666Y-137676190D01*
X223692857Y-137752380D01*
X223769047Y-137790476D01*
X222626190Y-137828571D02*
X222626190Y-138361904D01*
X222969047Y-137828571D02*
X222969047Y-138247619D01*
X222930952Y-138323809D01*
X222854761Y-138361904D01*
X222740476Y-138361904D01*
X222664285Y-138323809D01*
X222626190Y-138285714D01*
X204721428Y-137661904D02*
X204645238Y-137661904D01*
X204569047Y-137700000D01*
X204530952Y-137738095D01*
X204492857Y-137814285D01*
X204454761Y-137966666D01*
X204454761Y-138157142D01*
X204492857Y-138309523D01*
X204530952Y-138385714D01*
X204569047Y-138423809D01*
X204645238Y-138461904D01*
X204721428Y-138461904D01*
X204797619Y-138423809D01*
X204835714Y-138385714D01*
X204873809Y-138309523D01*
X204911904Y-138157142D01*
X204911904Y-137966666D01*
X204873809Y-137814285D01*
X204835714Y-137738095D01*
X204797619Y-137700000D01*
X204721428Y-137661904D01*
X204111904Y-138385714D02*
X204073809Y-138423809D01*
X204111904Y-138461904D01*
X204150000Y-138423809D01*
X204111904Y-138385714D01*
X204111904Y-138461904D01*
X203311904Y-138461904D02*
X203769047Y-138461904D01*
X203540476Y-138461904D02*
X203540476Y-137661904D01*
X203616666Y-137776190D01*
X203692857Y-137852380D01*
X203769047Y-137890476D01*
X202626190Y-137928571D02*
X202626190Y-138461904D01*
X202969047Y-137928571D02*
X202969047Y-138347619D01*
X202930952Y-138423809D01*
X202854761Y-138461904D01*
X202740476Y-138461904D01*
X202664285Y-138423809D01*
X202626190Y-138385714D01*
X214746428Y-137711904D02*
X214670238Y-137711904D01*
X214594047Y-137750000D01*
X214555952Y-137788095D01*
X214517857Y-137864285D01*
X214479761Y-138016666D01*
X214479761Y-138207142D01*
X214517857Y-138359523D01*
X214555952Y-138435714D01*
X214594047Y-138473809D01*
X214670238Y-138511904D01*
X214746428Y-138511904D01*
X214822619Y-138473809D01*
X214860714Y-138435714D01*
X214898809Y-138359523D01*
X214936904Y-138207142D01*
X214936904Y-138016666D01*
X214898809Y-137864285D01*
X214860714Y-137788095D01*
X214822619Y-137750000D01*
X214746428Y-137711904D01*
X214136904Y-138435714D02*
X214098809Y-138473809D01*
X214136904Y-138511904D01*
X214175000Y-138473809D01*
X214136904Y-138435714D01*
X214136904Y-138511904D01*
X213336904Y-138511904D02*
X213794047Y-138511904D01*
X213565476Y-138511904D02*
X213565476Y-137711904D01*
X213641666Y-137826190D01*
X213717857Y-137902380D01*
X213794047Y-137940476D01*
X212651190Y-137978571D02*
X212651190Y-138511904D01*
X212994047Y-137978571D02*
X212994047Y-138397619D01*
X212955952Y-138473809D01*
X212879761Y-138511904D01*
X212765476Y-138511904D01*
X212689285Y-138473809D01*
X212651190Y-138435714D01*
X229361904Y-116778571D02*
X229361904Y-116854761D01*
X229400000Y-116930952D01*
X229438095Y-116969047D01*
X229514285Y-117007142D01*
X229666666Y-117045238D01*
X229857142Y-117045238D01*
X230009523Y-117007142D01*
X230085714Y-116969047D01*
X230123809Y-116930952D01*
X230161904Y-116854761D01*
X230161904Y-116778571D01*
X230123809Y-116702380D01*
X230085714Y-116664285D01*
X230009523Y-116626190D01*
X229857142Y-116588095D01*
X229666666Y-116588095D01*
X229514285Y-116626190D01*
X229438095Y-116664285D01*
X229400000Y-116702380D01*
X229361904Y-116778571D01*
X230085714Y-117388095D02*
X230123809Y-117426190D01*
X230161904Y-117388095D01*
X230123809Y-117350000D01*
X230085714Y-117388095D01*
X230161904Y-117388095D01*
X230161904Y-118188095D02*
X230161904Y-117730952D01*
X230161904Y-117959523D02*
X229361904Y-117959523D01*
X229476190Y-117883333D01*
X229552380Y-117807142D01*
X229590476Y-117730952D01*
X229628571Y-118873809D02*
X230161904Y-118873809D01*
X229628571Y-118530952D02*
X230047619Y-118530952D01*
X230123809Y-118569047D01*
X230161904Y-118645238D01*
X230161904Y-118759523D01*
X230123809Y-118835714D01*
X230085714Y-118873809D01*
X199611904Y-125878571D02*
X199611904Y-125954761D01*
X199650000Y-126030952D01*
X199688095Y-126069047D01*
X199764285Y-126107142D01*
X199916666Y-126145238D01*
X200107142Y-126145238D01*
X200259523Y-126107142D01*
X200335714Y-126069047D01*
X200373809Y-126030952D01*
X200411904Y-125954761D01*
X200411904Y-125878571D01*
X200373809Y-125802380D01*
X200335714Y-125764285D01*
X200259523Y-125726190D01*
X200107142Y-125688095D01*
X199916666Y-125688095D01*
X199764285Y-125726190D01*
X199688095Y-125764285D01*
X199650000Y-125802380D01*
X199611904Y-125878571D01*
X200335714Y-126488095D02*
X200373809Y-126526190D01*
X200411904Y-126488095D01*
X200373809Y-126450000D01*
X200335714Y-126488095D01*
X200411904Y-126488095D01*
X200411904Y-127288095D02*
X200411904Y-126830952D01*
X200411904Y-127059523D02*
X199611904Y-127059523D01*
X199726190Y-126983333D01*
X199802380Y-126907142D01*
X199840476Y-126830952D01*
X199878571Y-127973809D02*
X200411904Y-127973809D01*
X199878571Y-127630952D02*
X200297619Y-127630952D01*
X200373809Y-127669047D01*
X200411904Y-127745238D01*
X200411904Y-127859523D01*
X200373809Y-127935714D01*
X200335714Y-127973809D01*
X201321428Y-124111904D02*
X201245238Y-124111904D01*
X201169047Y-124150000D01*
X201130952Y-124188095D01*
X201092857Y-124264285D01*
X201054761Y-124416666D01*
X201054761Y-124607142D01*
X201092857Y-124759523D01*
X201130952Y-124835714D01*
X201169047Y-124873809D01*
X201245238Y-124911904D01*
X201321428Y-124911904D01*
X201397619Y-124873809D01*
X201435714Y-124835714D01*
X201473809Y-124759523D01*
X201511904Y-124607142D01*
X201511904Y-124416666D01*
X201473809Y-124264285D01*
X201435714Y-124188095D01*
X201397619Y-124150000D01*
X201321428Y-124111904D01*
X200711904Y-124835714D02*
X200673809Y-124873809D01*
X200711904Y-124911904D01*
X200750000Y-124873809D01*
X200711904Y-124835714D01*
X200711904Y-124911904D01*
X199911904Y-124911904D02*
X200369047Y-124911904D01*
X200140476Y-124911904D02*
X200140476Y-124111904D01*
X200216666Y-124226190D01*
X200292857Y-124302380D01*
X200369047Y-124340476D01*
X199226190Y-124378571D02*
X199226190Y-124911904D01*
X199569047Y-124378571D02*
X199569047Y-124797619D01*
X199530952Y-124873809D01*
X199454761Y-124911904D01*
X199340476Y-124911904D01*
X199264285Y-124873809D01*
X199226190Y-124835714D01*
X201371428Y-120511904D02*
X201295238Y-120511904D01*
X201219047Y-120550000D01*
X201180952Y-120588095D01*
X201142857Y-120664285D01*
X201104761Y-120816666D01*
X201104761Y-121007142D01*
X201142857Y-121159523D01*
X201180952Y-121235714D01*
X201219047Y-121273809D01*
X201295238Y-121311904D01*
X201371428Y-121311904D01*
X201447619Y-121273809D01*
X201485714Y-121235714D01*
X201523809Y-121159523D01*
X201561904Y-121007142D01*
X201561904Y-120816666D01*
X201523809Y-120664285D01*
X201485714Y-120588095D01*
X201447619Y-120550000D01*
X201371428Y-120511904D01*
X200761904Y-121235714D02*
X200723809Y-121273809D01*
X200761904Y-121311904D01*
X200800000Y-121273809D01*
X200761904Y-121235714D01*
X200761904Y-121311904D01*
X199961904Y-121311904D02*
X200419047Y-121311904D01*
X200190476Y-121311904D02*
X200190476Y-120511904D01*
X200266666Y-120626190D01*
X200342857Y-120702380D01*
X200419047Y-120740476D01*
X199276190Y-120778571D02*
X199276190Y-121311904D01*
X199619047Y-120778571D02*
X199619047Y-121197619D01*
X199580952Y-121273809D01*
X199504761Y-121311904D01*
X199390476Y-121311904D01*
X199314285Y-121273809D01*
X199276190Y-121235714D01*
X229861904Y-106028571D02*
X229861904Y-106104761D01*
X229900000Y-106180952D01*
X229938095Y-106219047D01*
X230014285Y-106257142D01*
X230166666Y-106295238D01*
X230357142Y-106295238D01*
X230509523Y-106257142D01*
X230585714Y-106219047D01*
X230623809Y-106180952D01*
X230661904Y-106104761D01*
X230661904Y-106028571D01*
X230623809Y-105952380D01*
X230585714Y-105914285D01*
X230509523Y-105876190D01*
X230357142Y-105838095D01*
X230166666Y-105838095D01*
X230014285Y-105876190D01*
X229938095Y-105914285D01*
X229900000Y-105952380D01*
X229861904Y-106028571D01*
X230585714Y-106638095D02*
X230623809Y-106676190D01*
X230661904Y-106638095D01*
X230623809Y-106600000D01*
X230585714Y-106638095D01*
X230661904Y-106638095D01*
X230661904Y-107438095D02*
X230661904Y-106980952D01*
X230661904Y-107209523D02*
X229861904Y-107209523D01*
X229976190Y-107133333D01*
X230052380Y-107057142D01*
X230090476Y-106980952D01*
X230128571Y-108123809D02*
X230661904Y-108123809D01*
X230128571Y-107780952D02*
X230547619Y-107780952D01*
X230623809Y-107819047D01*
X230661904Y-107895238D01*
X230661904Y-108009523D01*
X230623809Y-108085714D01*
X230585714Y-108123809D01*
X210129289Y-119855482D02*
X210506413Y-120232605D01*
X210048477Y-119505296D02*
X210587225Y-119774670D01*
X210237039Y-120124856D01*
X209698291Y-119909357D02*
X209321167Y-120286480D01*
X210129289Y-120609729D01*
X208997918Y-120609729D02*
X208944044Y-120663604D01*
X208917106Y-120744416D01*
X208917106Y-120798291D01*
X208944044Y-120879103D01*
X209024856Y-121013790D01*
X209159543Y-121148477D01*
X209294230Y-121229289D01*
X209375042Y-121256227D01*
X209428917Y-121256227D01*
X209509729Y-121229289D01*
X209563604Y-121175414D01*
X209590541Y-121094602D01*
X209590541Y-121040727D01*
X209563604Y-120959915D01*
X209482792Y-120825228D01*
X209348105Y-120690541D01*
X209213418Y-120609729D01*
X209132605Y-120582792D01*
X209078731Y-120582792D01*
X208997918Y-120609729D01*
X208755482Y-121229289D02*
X209132605Y-121606413D01*
X208809357Y-121283164D02*
X208755482Y-121283164D01*
X208674670Y-121310101D01*
X208593857Y-121390914D01*
X208566920Y-121471726D01*
X208593857Y-121552538D01*
X208890169Y-121848849D01*
X201564285Y-113433333D02*
X201183333Y-113433333D01*
X201640476Y-113661904D02*
X201373809Y-112861904D01*
X201107142Y-113661904D01*
X200916666Y-112861904D02*
X200383333Y-112861904D01*
X200916666Y-113661904D01*
X200383333Y-113661904D01*
X199659523Y-113661904D02*
X200116666Y-113661904D01*
X199888095Y-113661904D02*
X199888095Y-112861904D01*
X199964285Y-112976190D01*
X200040476Y-113052380D01*
X200116666Y-113090476D01*
X199164285Y-112861904D02*
X199088095Y-112861904D01*
X199011904Y-112900000D01*
X198973809Y-112938095D01*
X198935714Y-113014285D01*
X198897619Y-113166666D01*
X198897619Y-113357142D01*
X198935714Y-113509523D01*
X198973809Y-113585714D01*
X199011904Y-113623809D01*
X199088095Y-113661904D01*
X199164285Y-113661904D01*
X199240476Y-113623809D01*
X199278571Y-113585714D01*
X199316666Y-113509523D01*
X199354761Y-113357142D01*
X199354761Y-113166666D01*
X199316666Y-113014285D01*
X199278571Y-112938095D01*
X199240476Y-112900000D01*
X199164285Y-112861904D01*
X198440476Y-113204761D02*
X198516666Y-113166666D01*
X198554761Y-113128571D01*
X198592857Y-113052380D01*
X198592857Y-113014285D01*
X198554761Y-112938095D01*
X198516666Y-112900000D01*
X198440476Y-112861904D01*
X198288095Y-112861904D01*
X198211904Y-112900000D01*
X198173809Y-112938095D01*
X198135714Y-113014285D01*
X198135714Y-113052380D01*
X198173809Y-113128571D01*
X198211904Y-113166666D01*
X198288095Y-113204761D01*
X198440476Y-113204761D01*
X198516666Y-113242857D01*
X198554761Y-113280952D01*
X198592857Y-113357142D01*
X198592857Y-113509523D01*
X198554761Y-113585714D01*
X198516666Y-113623809D01*
X198440476Y-113661904D01*
X198288095Y-113661904D01*
X198211904Y-113623809D01*
X198173809Y-113585714D01*
X198135714Y-113509523D01*
X198135714Y-113357142D01*
X198173809Y-113280952D01*
X198211904Y-113242857D01*
X198288095Y-113204761D01*
X197450000Y-112861904D02*
X197602380Y-112861904D01*
X197678571Y-112900000D01*
X197716666Y-112938095D01*
X197792857Y-113052380D01*
X197830952Y-113204761D01*
X197830952Y-113509523D01*
X197792857Y-113585714D01*
X197754761Y-113623809D01*
X197678571Y-113661904D01*
X197526190Y-113661904D01*
X197450000Y-113623809D01*
X197411904Y-113585714D01*
X197373809Y-113509523D01*
X197373809Y-113319047D01*
X197411904Y-113242857D01*
X197450000Y-113204761D01*
X197526190Y-113166666D01*
X197678571Y-113166666D01*
X197754761Y-113204761D01*
X197792857Y-113242857D01*
X197830952Y-113319047D01*
X197030952Y-113661904D02*
X197030952Y-112861904D01*
X197030952Y-113242857D02*
X196573809Y-113242857D01*
X196573809Y-113661904D02*
X196573809Y-112861904D01*
X190811904Y-106178571D02*
X190811904Y-106254761D01*
X190850000Y-106330952D01*
X190888095Y-106369047D01*
X190964285Y-106407142D01*
X191116666Y-106445238D01*
X191307142Y-106445238D01*
X191459523Y-106407142D01*
X191535714Y-106369047D01*
X191573809Y-106330952D01*
X191611904Y-106254761D01*
X191611904Y-106178571D01*
X191573809Y-106102380D01*
X191535714Y-106064285D01*
X191459523Y-106026190D01*
X191307142Y-105988095D01*
X191116666Y-105988095D01*
X190964285Y-106026190D01*
X190888095Y-106064285D01*
X190850000Y-106102380D01*
X190811904Y-106178571D01*
X191535714Y-106788095D02*
X191573809Y-106826190D01*
X191611904Y-106788095D01*
X191573809Y-106750000D01*
X191535714Y-106788095D01*
X191611904Y-106788095D01*
X191611904Y-107588095D02*
X191611904Y-107130952D01*
X191611904Y-107359523D02*
X190811904Y-107359523D01*
X190926190Y-107283333D01*
X191002380Y-107207142D01*
X191040476Y-107130952D01*
X191078571Y-108273809D02*
X191611904Y-108273809D01*
X191078571Y-107930952D02*
X191497619Y-107930952D01*
X191573809Y-107969047D01*
X191611904Y-108045238D01*
X191611904Y-108159523D01*
X191573809Y-108235714D01*
X191535714Y-108273809D01*
X203061904Y-106178571D02*
X203061904Y-106254761D01*
X203100000Y-106330952D01*
X203138095Y-106369047D01*
X203214285Y-106407142D01*
X203366666Y-106445238D01*
X203557142Y-106445238D01*
X203709523Y-106407142D01*
X203785714Y-106369047D01*
X203823809Y-106330952D01*
X203861904Y-106254761D01*
X203861904Y-106178571D01*
X203823809Y-106102380D01*
X203785714Y-106064285D01*
X203709523Y-106026190D01*
X203557142Y-105988095D01*
X203366666Y-105988095D01*
X203214285Y-106026190D01*
X203138095Y-106064285D01*
X203100000Y-106102380D01*
X203061904Y-106178571D01*
X203785714Y-106788095D02*
X203823809Y-106826190D01*
X203861904Y-106788095D01*
X203823809Y-106750000D01*
X203785714Y-106788095D01*
X203861904Y-106788095D01*
X203861904Y-107588095D02*
X203861904Y-107130952D01*
X203861904Y-107359523D02*
X203061904Y-107359523D01*
X203176190Y-107283333D01*
X203252380Y-107207142D01*
X203290476Y-107130952D01*
X203328571Y-108273809D02*
X203861904Y-108273809D01*
X203328571Y-107930952D02*
X203747619Y-107930952D01*
X203823809Y-107969047D01*
X203861904Y-108045238D01*
X203861904Y-108159523D01*
X203823809Y-108235714D01*
X203785714Y-108273809D01*
X215311904Y-106178571D02*
X215311904Y-106254761D01*
X215350000Y-106330952D01*
X215388095Y-106369047D01*
X215464285Y-106407142D01*
X215616666Y-106445238D01*
X215807142Y-106445238D01*
X215959523Y-106407142D01*
X216035714Y-106369047D01*
X216073809Y-106330952D01*
X216111904Y-106254761D01*
X216111904Y-106178571D01*
X216073809Y-106102380D01*
X216035714Y-106064285D01*
X215959523Y-106026190D01*
X215807142Y-105988095D01*
X215616666Y-105988095D01*
X215464285Y-106026190D01*
X215388095Y-106064285D01*
X215350000Y-106102380D01*
X215311904Y-106178571D01*
X216035714Y-106788095D02*
X216073809Y-106826190D01*
X216111904Y-106788095D01*
X216073809Y-106750000D01*
X216035714Y-106788095D01*
X216111904Y-106788095D01*
X216111904Y-107588095D02*
X216111904Y-107130952D01*
X216111904Y-107359523D02*
X215311904Y-107359523D01*
X215426190Y-107283333D01*
X215502380Y-107207142D01*
X215540476Y-107130952D01*
X215578571Y-108273809D02*
X216111904Y-108273809D01*
X215578571Y-107930952D02*
X215997619Y-107930952D01*
X216073809Y-107969047D01*
X216111904Y-108045238D01*
X216111904Y-108159523D01*
X216073809Y-108235714D01*
X216035714Y-108273809D01*
M02*
